M48
; DRILL file {KiCad (6.0.11-0)} date 
; FORMAT={-:-/ absolute / metric / decimal}
; #@! TF.CreationDate,2023-02-06T17:09:38+08:00
; #@! TF.GenerationSoftware,Kicad,Pcbnew,(6.0.11-0)
; #@! TF.FileFunction,Plated,1,4,PTH
FMAT,2
METRIC
; #@! TA.AperFunction,Plated,PTH,ViaDrill
T1C0.203
; #@! TA.AperFunction,Plated,PTH,ViaDrill
T2C0.254
; #@! TA.AperFunction,Plated,PTH,ViaDrill
T3C0.381
; #@! TA.AperFunction,Plated,PTH,ComponentDrill
T4C0.600
%
G90
G05
T1
X18.466Y-41.046
X18.694Y-38.964
X18.72Y-37.109
X30.886Y-37.313
X31.445Y-36.271
T2
X18.669Y-19.355
X18.796Y-22.809
X20.994Y-38.111
X21.675Y-19.693
X22.657Y-22.809
X23.597Y-40.589
X23.664Y-19.422
X25.603Y-23.343
X26.035Y-29.032
X26.314Y-32.614
X26.365Y-27.483
X26.721Y-34.468
X26.721Y-40.894
X27.229Y-38.379
X27.33Y-36.779
X28.028Y-20.131
X28.27Y-29.439
X28.296Y-30.175
X28.296Y-30.861
X28.296Y-31.598
X28.372Y-34.265
X28.981Y-38.608
X29.083Y-20.803
X29.218Y-34.511
X29.235Y-28.854
X29.243Y-32.215
X30.387Y-23.461
X30.861Y-39.548
X30.897Y-33.767
X31.013Y-31.267
X31.182Y-31.817
X31.369Y-22.758
X31.394Y-24.435
X31.471Y-27.407
X31.474Y-27.965
X31.589Y-20.131
X31.971Y-28.22
X32.055Y-32.461
X32.664Y-19.431
X32.673Y-41.766
X32.868Y-35.687
X32.876Y-28.449
X32.887Y-32.526
X32.892Y-31.63
X33.287Y-38.442
X33.687Y-28.481
X33.708Y-32.458
X33.716Y-35.697
X34.341Y-20.345
X34.434Y-20.983
X34.442Y-31.681
X34.442Y-28.524
X34.468Y-30.861
X34.47Y-36.464
X34.492Y-24.486
X34.533Y-29.281
X35.259Y-32.465
X35.281Y-30.886
X35.395Y-37.376
X36.068Y-26.086
X36.07Y-30.898
X36.071Y-34.109
X36.093Y-29.312
X36.111Y-31.689
X36.17Y-37.973
X36.525Y-19.38
X36.779Y-23.597
X36.823Y-31.665
X36.859Y-32.495
X36.87Y-26.864
X36.881Y-27.686
X36.902Y-28.452
X36.905Y-29.298
X37.538Y-29.528
X37.642Y-34.081
X37.686Y-30.066
X37.694Y-26.924
X37.705Y-27.698
X37.833Y-41.451
X38.087Y-22.974
X38.099Y-31.168
X38.202Y-31.852
X38.455Y-34.081
X38.456Y-28.727
X38.533Y-27.681
X38.533Y-34.881
X38.837Y-29.718
X38.887Y-30.481
X39.04Y-31.445
X39.167Y-37.592
X39.287Y-35.726
X39.299Y-25.313
X39.316Y-19.927
X39.319Y-33.249
X39.319Y-34.112
X39.98Y-37.77
X40.005Y-22.708
X40.005Y-31.191
X40.07Y-24.464
X40.081Y-25.273
X40.208Y-19.355
X40.878Y-34.916
X40.894Y-32.512
X40.919Y-25.324
X40.919Y-33.325
X41.212Y-41.393
X41.326Y-38.202
X41.656Y-35.738
X41.696Y-28.517
X41.935Y-19.482
X42.037Y-22.809
X42.037Y-38.278
X42.237Y-39.314
X42.443Y-32.537
X42.469Y-27.686
X42.469Y-29.235
X42.469Y-33.299
X42.47Y-30.888
X42.754Y-38.248
X42.799Y-22.809
X43.239Y-29.278
X43.256Y-26.899
X43.282Y-27.686
X43.301Y-33.251
X43.305Y-30.886
X43.309Y-32.459
X43.309Y-35.659
X43.333Y-36.481
X43.815Y-41.402
X44.069Y-26.9
X44.069Y-33.299
X44.069Y-34.874
X44.086Y-31.724
X44.094Y-30.912
X44.094Y-32.474
X44.133Y-29.281
X44.501Y-41.351
X44.679Y-20.041
X44.846Y-32.538
X44.856Y-33.35
X44.904Y-30.909
X45.377Y-19.621
X45.644Y-32.563
X45.696Y-30.936
X45.796Y-35.258
X46.223Y-32.456
X46.507Y-37.287
X46.584Y-24.257
X46.812Y-40.208
X46.863Y-24.842
X46.99Y-37.567
X47.346Y-27.686
X48.336Y-27.203
X48.336Y-28.058
X48.362Y-26.392
X48.387Y-25.248
X48.743Y-20.117
X49.301Y-40.056
X50.521Y-19.431
X50.622Y-32.69
X50.775Y-26.213
X51.206Y-32.69
X51.892Y-32.69
X51.892Y-39.975
X52.248Y-19.406
X52.524Y-32.618
X53.34Y-30.861
X54.305Y-30.937
X54.559Y-19.406
X54.864Y-30.886
X55.499Y-39.446
X55.651Y-30.886
X55.713Y-30.331
X55.967Y-28.383
X56.185Y-36.119
X56.21Y-27.483
X56.896Y-32.512
X57.023Y-26.695
X57.125Y-19.406
X57.556Y-26.212
X58.014Y-39.192
X58.141Y-25.804
X58.903Y-25.756
X58.928Y-30.836
X59.03Y-19.406
X59.258Y-36.068
X59.487Y-25.273
X59.817Y-32.817
X60.02Y-24.841
X60.147Y-33.477
X60.554Y-39.04
X60.706Y-25.527
X60.808Y-19.355
X60.96Y-24.867
X61.062Y-33.579
X61.722Y-21.26
X61.722Y-39.167
X61.798Y-35.408
X62.382Y-22.098
X62.382Y-34.442
X62.611Y-21.221
X63.221Y-35.052
X63.246Y-29.058
X63.525Y-21.26
X63.703Y-39.497
X63.729Y-32.893
X63.777Y-35.252
X64.084Y-30.658
X64.795Y-21.615
X64.872Y-35.306
X65.1Y-19.355
X65.176Y-39.446
X65.608Y-35.331
X65.684Y-21.26
X66.396Y-34.874
X67.208Y-34.239
X67.234Y-35.331
X67.386Y-36.017
X67.666Y-21.234
X67.996Y-30.226
X68.301Y-19.355
X68.682Y-32.868
X68.724Y-34.4
X68.758Y-30.632
X69.291Y-21.26
X69.393Y-26.111
X69.571Y-33.426
X69.609Y-32.791
X69.748Y-29.947
X70.028Y-21.234
X70.714Y-34.493
X71.209Y-32.703
X71.247Y-39.04
X71.298Y-21.946
X71.709Y-41.727
X72.136Y-38.938
X72.157Y-20.087
X75.235Y-19.533
X78.181Y-21.819
X78.257Y-39.319
X78.359Y-19.253
X78.638Y-22.454
X78.74Y-30.505
X78.791Y-37.694
X79.045Y-39.421
X81.187Y-41.842
X81.661Y-19.507
X81.932Y-41.266
X83.845Y-41.554
T3
X19.71Y-24.257
X21.641Y-21.946
X21.92Y-32.283
X22.682Y-28.423
X23.546Y-24.155
T4
G00X19.11Y-26.008
M15
G01X18.51Y-26.008
M16
G05
G00X19.11Y-34.648
M15
G01X18.51Y-34.648
M16
G05
G00X23.54Y-26.008
M15
G01X22.44Y-26.008
M16
G05
G00X23.54Y-34.648
M15
G01X22.44Y-34.648
M16
G05
T0
M30
