M48
; DRILL file {KiCad 7.0.2-0} date 2023 May 15, Monday 13:16:43
; FORMAT={-:-/ absolute / inch / decimal}
; #@! TF.CreationDate,2023-05-15T13:16:43+08:00
; #@! TF.GenerationSoftware,Kicad,Pcbnew,7.0.2-0
; #@! TF.FileFunction,Plated,1,4,PTH
FMAT,2
INCH
; #@! TA.AperFunction,Plated,PTH,ViaDrill
T1C0.0120
; #@! TA.AperFunction,Plated,PTH,ViaDrill
T2C0.0150
; #@! TA.AperFunction,Plated,PTH,ComponentDrill
T3C0.0236
%
G90
G05
T1
X0.6512Y-0.6539
X0.6543Y-1.3827
X0.6559Y-1.5394
X0.6736Y-1.402
X0.6899Y-1.5983
X0.7035Y-1.0504
X0.715Y-1.4626
X0.715Y-1.489
X0.7177Y-1.5728
X0.7193Y-1.3531
X0.7327Y-0.6457
X0.7331Y-0.6772
X0.7335Y-0.7094
X0.7339Y-1.3685
X0.7364Y-0.6196
X0.7437Y-0.8169
X0.7567Y-1.486
X0.7579Y-1.5142
X0.7715Y-1.5958
X0.8165Y-1.402
X0.8433Y-1.402
X0.8476Y-0.9945
X0.8484Y-1.1571
X0.8594Y-0.8209
X0.8697Y-1.585
X0.9413Y-0.7681
X0.9413Y-0.8406
X0.9504Y-0.9067
X0.9508Y-1.3894
X0.978Y-1.3898
X1.0169Y-1.2236
X1.0169Y-1.2819
X1.0228Y-0.972
X1.0358Y-0.6224
X1.0362Y-0.5819
X1.0437Y-1.0012
X1.0453Y-1.4217
X1.0457Y-1.2233
X1.0457Y-1.3996
X1.0618Y-1.1504
X1.0669Y-1.2866
X1.0732Y-1.4394
X1.0803Y-0.9291
X1.0917Y-1.3224
X1.1169Y-1.5886
X1.1287Y-1.141
X1.1386Y-1.1984
X1.1433Y-0.6551
X1.1499Y-0.9378
X1.1499Y-0.9634
X1.1722Y-0.8072
X1.1735Y-1.0074
X1.1736Y-1.2047
X1.1862Y-1.4496
X1.1953Y-1.1192
X1.1961Y-1.6055
X1.2161Y-1.3142
X1.2181Y-1.0078
X1.2181Y-1.0078
X1.2181Y-1.141
X1.2209Y-0.8575
X1.2311Y-0.8823
X1.2353Y-1.2518
X1.2524Y-0.5949
X1.2531Y-1.3902
X1.2724Y-0.7645
X1.2752Y-1.5364
X1.2808Y-0.6985
X1.2846Y-1.2524
X1.2849Y-1.2078
X1.2992Y-1.5508
X1.3067Y-1.2746
X1.3071Y-1.2301
X1.3098Y-0.7271
X1.3205Y-1.5673
X1.3294Y-1.2524
X1.3442Y-0.6927
X1.3457Y-1.5765
X1.3473Y-1.391
X1.3502Y-0.5927
X1.3516Y-1.3192
X1.3598Y-1.1697
X1.3654Y-1.4098
X1.3693Y-1.0157
X1.374Y-0.8515
X1.374Y-1.2969
X1.3744Y-1.3419
X1.3933Y-0.9677
X1.3958Y-1.3642
X1.3962Y-0.8737
X1.3976Y-1.4082
X1.3992Y-1.4362
X1.4024Y-1.0374
X1.4094Y-1.2146
X1.4161Y-1.1307
X1.4165Y-1.0067
X1.4181Y-1.2528
X1.4209Y-0.8992
X1.424Y-1.1551
X1.4287Y-0.652
X1.4327Y-1.185
X1.4374Y-0.9882
X1.4403Y-1.3196
X1.4524Y-0.5949
X1.4531Y-1.2031
X1.4626Y-1.386
X1.4636Y-1.1498
X1.4811Y-1.5728
X1.4846Y-0.6614
X1.4925Y-1.0992
X1.5012Y-0.5839
X1.5071Y-1.2973
X1.5071Y-1.3419
X1.5074Y-0.8063
X1.5159Y-1.4816
X1.5161Y-1.5751
X1.5232Y-1.0712
X1.5294Y-0.9183
X1.5335Y-0.7811
X1.5453Y-1.065
X1.5459Y-1.5109
X1.5492Y-0.9996
X1.5524Y-0.5949
X1.5528Y-0.8965
X1.5606Y-0.7543
X1.574Y-0.9628
X1.5831Y-1.0677
X1.589Y-1.3378
X1.6Y-0.7453
X1.6151Y-0.8277
X1.6185Y-1.2992
X1.6317Y-0.7656
X1.6374Y-0.8614
X1.6412Y-0.941
X1.6433Y-0.6071
X1.6547Y-0.8811
X1.6591Y-1.3075
X1.663Y-1.0078
X1.6635Y-1.1414
X1.6858Y-1.0296
X1.6858Y-1.0742
X1.6858Y-0.939
X1.6866Y-1.5693
X1.6886Y-1.4555
X1.689Y-0.9146
X1.708Y-1.0078
X1.708Y-1.0519
X1.7303Y-1.0296
X1.7311Y-0.7646
X1.739Y-0.7331
X1.7526Y-1.0524
X1.7654Y-0.8303
X1.7902Y-1.5638
X1.7978Y-1.0524
X1.8161Y-0.6776
X1.8614Y-0.8768
X2.0063Y-1.5689
X2.1138Y-1.0811
X2.1154Y-1.0165
X2.1346Y-1.1016
X2.1474Y-0.8736
X2.1555Y-0.9957
X2.1787Y-1.215
X2.1909Y-1.2913
X2.2157Y-1.3213
X2.2291Y-1.5693
X2.2323Y-1.2771
X2.2528Y-0.8185
X2.2598Y-1.324
X2.2634Y-0.5937
X2.2638Y-1.119
X2.2809Y-0.8171
X2.295Y-1.1508
X2.2957Y-1.1189
X2.3051Y-1.0799
X2.3053Y-0.988
X2.3122Y-0.8311
X2.3126Y-1.563
X2.3146Y-1.0374
X2.328Y-0.9783
X2.328Y-1.061
X2.3299Y-0.8508
X2.3327Y-1.1047
X2.3374Y-0.5854
X2.3376Y-1.3372
X2.3382Y-1.3031
X2.3453Y-1.2339
X2.3512Y-1.1343
X2.3547Y-1.1634
X2.3669Y-1.3122
X2.3677Y-0.9039
X2.3799Y-1.0201
X2.3827Y-1.0472
X2.3843Y-1.5949
X2.3913Y-0.8339
X2.4213Y-1.1511
X2.4267Y-1.3173
X2.428Y-0.7724
X2.4331Y-1.4823
X2.4525Y-0.9618
X2.4525Y-1.0563
X2.4528Y-0.867
X2.4528Y-1.0881
X2.4529Y-1.1195
X2.4531Y-1.2768
X2.4536Y-0.9938
X2.4732Y-1.2248
X2.4807Y-1.4508
X2.4815Y-0.7953
X2.4823Y-1.4043
X2.4857Y-1.5012
X2.4882Y-0.8693
X2.4882Y-1.1823
X2.4913Y-0.8366
X2.4945Y-1.1031
X2.4953Y-0.9496
X2.4953Y-1.0098
X2.4965Y-1.0406
X2.4976Y-0.9803
X2.5047Y-1.5583
X2.5091Y-0.737
X2.5122Y-1.6031
X2.522Y-0.6008
X2.5307Y-0.7874
X2.5307Y-1.076
X2.5307Y-1.3638
X2.5315Y-1.2429
X2.5327Y-1.0319
X2.5346Y-0.672
X2.535Y-0.8949
X2.5398Y-1.498
T2
X0.7586Y-1.294
X0.7587Y-1.4279
X0.7634Y-1.2587
X0.7929Y-1.4284
X0.8587Y-1.3441
X0.872Y-1.3686
X0.9484Y-1.2728
X0.9492Y-1.3067
T3
G00X0.7079Y-0.9055
M15
G01X0.6843Y-0.9055
M16
G05
G00X0.7079Y-1.2457
M15
G01X0.6843Y-1.2457
M16
G05
G00X0.8823Y-0.9055
M15
G01X0.839Y-0.9055
M16
G05
G00X0.8823Y-1.2457
M15
G01X0.839Y-1.2457
M16
G05
T0
M30
