%TF.GenerationSoftware,KiCad,Pcbnew,7.0.2-0*%
%TF.CreationDate,2023-05-15T13:16:41+08:00*%
%TF.ProjectId,slimarm_carambola,736c696d-6172-46d5-9f63-6172616d626f,rev?*%
%TF.SameCoordinates,Original*%
%TF.FileFunction,Legend,Top*%
%TF.FilePolarity,Positive*%
%FSLAX46Y46*%
G04 Gerber Fmt 4.6, Leading zero omitted, Abs format (unit mm)*
G04 Created by KiCad (PCBNEW 7.0.2-0) date 2023-05-15 13:16:41*
%MOMM*%
%LPD*%
G01*
G04 APERTURE LIST*
%ADD10C,0.150000*%
%ADD11C,0.100000*%
%ADD12C,0.120000*%
%ADD13C,0.152400*%
%ADD14C,0.200000*%
G04 APERTURE END LIST*
D10*
X55293017Y-20230000D02*
G75*
G03*
X55293017Y-20230000I-333017J0D01*
G01*
X21596667Y-16017000D02*
X21696667Y-16050333D01*
X21696667Y-16050333D02*
X21863334Y-16050333D01*
X21863334Y-16050333D02*
X21930000Y-16017000D01*
X21930000Y-16017000D02*
X21963334Y-15983666D01*
X21963334Y-15983666D02*
X21996667Y-15917000D01*
X21996667Y-15917000D02*
X21996667Y-15850333D01*
X21996667Y-15850333D02*
X21963334Y-15783666D01*
X21963334Y-15783666D02*
X21930000Y-15750333D01*
X21930000Y-15750333D02*
X21863334Y-15717000D01*
X21863334Y-15717000D02*
X21730000Y-15683666D01*
X21730000Y-15683666D02*
X21663334Y-15650333D01*
X21663334Y-15650333D02*
X21630000Y-15617000D01*
X21630000Y-15617000D02*
X21596667Y-15550333D01*
X21596667Y-15550333D02*
X21596667Y-15483666D01*
X21596667Y-15483666D02*
X21630000Y-15417000D01*
X21630000Y-15417000D02*
X21663334Y-15383666D01*
X21663334Y-15383666D02*
X21730000Y-15350333D01*
X21730000Y-15350333D02*
X21896667Y-15350333D01*
X21896667Y-15350333D02*
X21996667Y-15383666D01*
X22296667Y-16050333D02*
X22296667Y-15350333D01*
X22296667Y-15350333D02*
X22563334Y-15350333D01*
X22563334Y-15350333D02*
X22630001Y-15383666D01*
X22630001Y-15383666D02*
X22663334Y-15417000D01*
X22663334Y-15417000D02*
X22696667Y-15483666D01*
X22696667Y-15483666D02*
X22696667Y-15583666D01*
X22696667Y-15583666D02*
X22663334Y-15650333D01*
X22663334Y-15650333D02*
X22630001Y-15683666D01*
X22630001Y-15683666D02*
X22563334Y-15717000D01*
X22563334Y-15717000D02*
X22296667Y-15717000D01*
X22996667Y-16050333D02*
X22996667Y-15350333D01*
X24096667Y-15683666D02*
X23863333Y-15683666D01*
X23863333Y-16050333D02*
X23863333Y-15350333D01*
X23863333Y-15350333D02*
X24196667Y-15350333D01*
X24563333Y-16050333D02*
X24496667Y-16017000D01*
X24496667Y-16017000D02*
X24463333Y-15950333D01*
X24463333Y-15950333D02*
X24463333Y-15350333D01*
X25130000Y-16050333D02*
X25130000Y-15683666D01*
X25130000Y-15683666D02*
X25096667Y-15617000D01*
X25096667Y-15617000D02*
X25030000Y-15583666D01*
X25030000Y-15583666D02*
X24896667Y-15583666D01*
X24896667Y-15583666D02*
X24830000Y-15617000D01*
X25130000Y-16017000D02*
X25063334Y-16050333D01*
X25063334Y-16050333D02*
X24896667Y-16050333D01*
X24896667Y-16050333D02*
X24830000Y-16017000D01*
X24830000Y-16017000D02*
X24796667Y-15950333D01*
X24796667Y-15950333D02*
X24796667Y-15883666D01*
X24796667Y-15883666D02*
X24830000Y-15817000D01*
X24830000Y-15817000D02*
X24896667Y-15783666D01*
X24896667Y-15783666D02*
X25063334Y-15783666D01*
X25063334Y-15783666D02*
X25130000Y-15750333D01*
X25430000Y-16017000D02*
X25496667Y-16050333D01*
X25496667Y-16050333D02*
X25630000Y-16050333D01*
X25630000Y-16050333D02*
X25696667Y-16017000D01*
X25696667Y-16017000D02*
X25730000Y-15950333D01*
X25730000Y-15950333D02*
X25730000Y-15917000D01*
X25730000Y-15917000D02*
X25696667Y-15850333D01*
X25696667Y-15850333D02*
X25630000Y-15817000D01*
X25630000Y-15817000D02*
X25530000Y-15817000D01*
X25530000Y-15817000D02*
X25463333Y-15783666D01*
X25463333Y-15783666D02*
X25430000Y-15717000D01*
X25430000Y-15717000D02*
X25430000Y-15683666D01*
X25430000Y-15683666D02*
X25463333Y-15617000D01*
X25463333Y-15617000D02*
X25530000Y-15583666D01*
X25530000Y-15583666D02*
X25630000Y-15583666D01*
X25630000Y-15583666D02*
X25696667Y-15617000D01*
X26030000Y-16050333D02*
X26030000Y-15350333D01*
X26330000Y-16050333D02*
X26330000Y-15683666D01*
X26330000Y-15683666D02*
X26296667Y-15617000D01*
X26296667Y-15617000D02*
X26230000Y-15583666D01*
X26230000Y-15583666D02*
X26130000Y-15583666D01*
X26130000Y-15583666D02*
X26063334Y-15617000D01*
X26063334Y-15617000D02*
X26030000Y-15650333D01*
X22080000Y-16484333D02*
X22246666Y-17184333D01*
X22246666Y-17184333D02*
X22380000Y-16684333D01*
X22380000Y-16684333D02*
X22513333Y-17184333D01*
X22513333Y-17184333D02*
X22680000Y-16484333D01*
X22913333Y-16551000D02*
X22946666Y-16517666D01*
X22946666Y-16517666D02*
X23013333Y-16484333D01*
X23013333Y-16484333D02*
X23180000Y-16484333D01*
X23180000Y-16484333D02*
X23246666Y-16517666D01*
X23246666Y-16517666D02*
X23280000Y-16551000D01*
X23280000Y-16551000D02*
X23313333Y-16617666D01*
X23313333Y-16617666D02*
X23313333Y-16684333D01*
X23313333Y-16684333D02*
X23280000Y-16784333D01*
X23280000Y-16784333D02*
X22880000Y-17184333D01*
X22880000Y-17184333D02*
X23313333Y-17184333D01*
X23946667Y-16484333D02*
X23613333Y-16484333D01*
X23613333Y-16484333D02*
X23580000Y-16817666D01*
X23580000Y-16817666D02*
X23613333Y-16784333D01*
X23613333Y-16784333D02*
X23680000Y-16751000D01*
X23680000Y-16751000D02*
X23846667Y-16751000D01*
X23846667Y-16751000D02*
X23913333Y-16784333D01*
X23913333Y-16784333D02*
X23946667Y-16817666D01*
X23946667Y-16817666D02*
X23980000Y-16884333D01*
X23980000Y-16884333D02*
X23980000Y-17051000D01*
X23980000Y-17051000D02*
X23946667Y-17117666D01*
X23946667Y-17117666D02*
X23913333Y-17151000D01*
X23913333Y-17151000D02*
X23846667Y-17184333D01*
X23846667Y-17184333D02*
X23680000Y-17184333D01*
X23680000Y-17184333D02*
X23613333Y-17151000D01*
X23613333Y-17151000D02*
X23580000Y-17117666D01*
X24746667Y-17251000D02*
X24680000Y-17217666D01*
X24680000Y-17217666D02*
X24613334Y-17151000D01*
X24613334Y-17151000D02*
X24513334Y-17051000D01*
X24513334Y-17051000D02*
X24446667Y-17017666D01*
X24446667Y-17017666D02*
X24380000Y-17017666D01*
X24413334Y-17184333D02*
X24346667Y-17151000D01*
X24346667Y-17151000D02*
X24280000Y-17084333D01*
X24280000Y-17084333D02*
X24246667Y-16951000D01*
X24246667Y-16951000D02*
X24246667Y-16717666D01*
X24246667Y-16717666D02*
X24280000Y-16584333D01*
X24280000Y-16584333D02*
X24346667Y-16517666D01*
X24346667Y-16517666D02*
X24413334Y-16484333D01*
X24413334Y-16484333D02*
X24546667Y-16484333D01*
X24546667Y-16484333D02*
X24613334Y-16517666D01*
X24613334Y-16517666D02*
X24680000Y-16584333D01*
X24680000Y-16584333D02*
X24713334Y-16717666D01*
X24713334Y-16717666D02*
X24713334Y-16951000D01*
X24713334Y-16951000D02*
X24680000Y-17084333D01*
X24680000Y-17084333D02*
X24613334Y-17151000D01*
X24613334Y-17151000D02*
X24546667Y-17184333D01*
X24546667Y-17184333D02*
X24413334Y-17184333D01*
X24946667Y-17184333D02*
X25313333Y-16717666D01*
X24946667Y-16717666D02*
X25313333Y-17184333D01*
X25513334Y-17184333D02*
X25880000Y-16717666D01*
X25513334Y-16717666D02*
X25880000Y-17184333D01*
X24992095Y-36087143D02*
X24992095Y-36544286D01*
X24992095Y-36315714D02*
X24192095Y-36315714D01*
X24192095Y-36315714D02*
X24306380Y-36391905D01*
X24306380Y-36391905D02*
X24382571Y-36468095D01*
X24382571Y-36468095D02*
X24420666Y-36544286D01*
X24458761Y-35820476D02*
X24992095Y-35630000D01*
X24992095Y-35630000D02*
X24458761Y-35439523D01*
X24192095Y-34982380D02*
X24192095Y-34906190D01*
X24192095Y-34906190D02*
X24230190Y-34829999D01*
X24230190Y-34829999D02*
X24268285Y-34791904D01*
X24268285Y-34791904D02*
X24344476Y-34753809D01*
X24344476Y-34753809D02*
X24496857Y-34715714D01*
X24496857Y-34715714D02*
X24687333Y-34715714D01*
X24687333Y-34715714D02*
X24839714Y-34753809D01*
X24839714Y-34753809D02*
X24915904Y-34791904D01*
X24915904Y-34791904D02*
X24954000Y-34829999D01*
X24954000Y-34829999D02*
X24992095Y-34906190D01*
X24992095Y-34906190D02*
X24992095Y-34982380D01*
X24992095Y-34982380D02*
X24954000Y-35058571D01*
X24954000Y-35058571D02*
X24915904Y-35096666D01*
X24915904Y-35096666D02*
X24839714Y-35134761D01*
X24839714Y-35134761D02*
X24687333Y-35172857D01*
X24687333Y-35172857D02*
X24496857Y-35172857D01*
X24496857Y-35172857D02*
X24344476Y-35134761D01*
X24344476Y-35134761D02*
X24268285Y-35096666D01*
X24268285Y-35096666D02*
X24230190Y-35058571D01*
X24230190Y-35058571D02*
X24192095Y-34982380D01*
X16107618Y-36852095D02*
X16602856Y-36852095D01*
X16602856Y-36852095D02*
X16336190Y-37156857D01*
X16336190Y-37156857D02*
X16450475Y-37156857D01*
X16450475Y-37156857D02*
X16526666Y-37194952D01*
X16526666Y-37194952D02*
X16564761Y-37233047D01*
X16564761Y-37233047D02*
X16602856Y-37309238D01*
X16602856Y-37309238D02*
X16602856Y-37499714D01*
X16602856Y-37499714D02*
X16564761Y-37575904D01*
X16564761Y-37575904D02*
X16526666Y-37614000D01*
X16526666Y-37614000D02*
X16450475Y-37652095D01*
X16450475Y-37652095D02*
X16221904Y-37652095D01*
X16221904Y-37652095D02*
X16145713Y-37614000D01*
X16145713Y-37614000D02*
X16107618Y-37575904D01*
X16869523Y-37118761D02*
X17059999Y-37652095D01*
X17059999Y-37652095D02*
X17250476Y-37118761D01*
X17479047Y-36852095D02*
X17974285Y-36852095D01*
X17974285Y-36852095D02*
X17707619Y-37156857D01*
X17707619Y-37156857D02*
X17821904Y-37156857D01*
X17821904Y-37156857D02*
X17898095Y-37194952D01*
X17898095Y-37194952D02*
X17936190Y-37233047D01*
X17936190Y-37233047D02*
X17974285Y-37309238D01*
X17974285Y-37309238D02*
X17974285Y-37499714D01*
X17974285Y-37499714D02*
X17936190Y-37575904D01*
X17936190Y-37575904D02*
X17898095Y-37614000D01*
X17898095Y-37614000D02*
X17821904Y-37652095D01*
X17821904Y-37652095D02*
X17593333Y-37652095D01*
X17593333Y-37652095D02*
X17517142Y-37614000D01*
X17517142Y-37614000D02*
X17479047Y-37575904D01*
X30092681Y-36926167D02*
X29809838Y-37209010D01*
X29951259Y-37067589D02*
X29456285Y-36572614D01*
X29456285Y-36572614D02*
X29479855Y-36690465D01*
X29479855Y-36690465D02*
X29479855Y-36784746D01*
X29479855Y-36784746D02*
X29456285Y-36855457D01*
X29833409Y-36289771D02*
X29833409Y-36242630D01*
X29833409Y-36242630D02*
X29856979Y-36171920D01*
X29856979Y-36171920D02*
X29974830Y-36054069D01*
X29974830Y-36054069D02*
X30045541Y-36030498D01*
X30045541Y-36030498D02*
X30092681Y-36030498D01*
X30092681Y-36030498D02*
X30163392Y-36054069D01*
X30163392Y-36054069D02*
X30210532Y-36101209D01*
X30210532Y-36101209D02*
X30257673Y-36195490D01*
X30257673Y-36195490D02*
X30257673Y-36761175D01*
X30257673Y-36761175D02*
X30564086Y-36454763D01*
X30776218Y-36242630D02*
X30281243Y-35747656D01*
X30281243Y-35747656D02*
X30799788Y-35936217D01*
X30799788Y-35936217D02*
X30611226Y-35417672D01*
X30611226Y-35417672D02*
X31106201Y-35912647D01*
X31341903Y-35676945D02*
X30846928Y-35181970D01*
X31082631Y-35417672D02*
X31365473Y-35134830D01*
X31624746Y-35394102D02*
X31129771Y-34899127D01*
X31483324Y-34875557D02*
X31742597Y-34616285D01*
X31742597Y-34616285D02*
X31813307Y-35205541D01*
X31813307Y-35205541D02*
X32072580Y-34946268D01*
X28838095Y-40142095D02*
X28571428Y-39761142D01*
X28380952Y-40142095D02*
X28380952Y-39342095D01*
X28380952Y-39342095D02*
X28685714Y-39342095D01*
X28685714Y-39342095D02*
X28761904Y-39380190D01*
X28761904Y-39380190D02*
X28799999Y-39418285D01*
X28799999Y-39418285D02*
X28838095Y-39494476D01*
X28838095Y-39494476D02*
X28838095Y-39608761D01*
X28838095Y-39608761D02*
X28799999Y-39684952D01*
X28799999Y-39684952D02*
X28761904Y-39723047D01*
X28761904Y-39723047D02*
X28685714Y-39761142D01*
X28685714Y-39761142D02*
X28380952Y-39761142D01*
X29180952Y-39723047D02*
X29447618Y-39723047D01*
X29561904Y-40142095D02*
X29180952Y-40142095D01*
X29180952Y-40142095D02*
X29180952Y-39342095D01*
X29180952Y-39342095D02*
X29561904Y-39342095D01*
X29866666Y-40104000D02*
X29980952Y-40142095D01*
X29980952Y-40142095D02*
X30171428Y-40142095D01*
X30171428Y-40142095D02*
X30247619Y-40104000D01*
X30247619Y-40104000D02*
X30285714Y-40065904D01*
X30285714Y-40065904D02*
X30323809Y-39989714D01*
X30323809Y-39989714D02*
X30323809Y-39913523D01*
X30323809Y-39913523D02*
X30285714Y-39837333D01*
X30285714Y-39837333D02*
X30247619Y-39799238D01*
X30247619Y-39799238D02*
X30171428Y-39761142D01*
X30171428Y-39761142D02*
X30019047Y-39723047D01*
X30019047Y-39723047D02*
X29942857Y-39684952D01*
X29942857Y-39684952D02*
X29904762Y-39646857D01*
X29904762Y-39646857D02*
X29866666Y-39570666D01*
X29866666Y-39570666D02*
X29866666Y-39494476D01*
X29866666Y-39494476D02*
X29904762Y-39418285D01*
X29904762Y-39418285D02*
X29942857Y-39380190D01*
X29942857Y-39380190D02*
X30019047Y-39342095D01*
X30019047Y-39342095D02*
X30209524Y-39342095D01*
X30209524Y-39342095D02*
X30323809Y-39380190D01*
X30666667Y-39723047D02*
X30933333Y-39723047D01*
X31047619Y-40142095D02*
X30666667Y-40142095D01*
X30666667Y-40142095D02*
X30666667Y-39342095D01*
X30666667Y-39342095D02*
X31047619Y-39342095D01*
X31276191Y-39342095D02*
X31733334Y-39342095D01*
X31504762Y-40142095D02*
X31504762Y-39342095D01*
X21442095Y-36127143D02*
X21442095Y-36584286D01*
X21442095Y-36355714D02*
X20642095Y-36355714D01*
X20642095Y-36355714D02*
X20756380Y-36431905D01*
X20756380Y-36431905D02*
X20832571Y-36508095D01*
X20832571Y-36508095D02*
X20870666Y-36584286D01*
X20908761Y-35860476D02*
X21442095Y-35670000D01*
X21442095Y-35670000D02*
X20908761Y-35479523D01*
X20984952Y-35060476D02*
X20946857Y-35136666D01*
X20946857Y-35136666D02*
X20908761Y-35174761D01*
X20908761Y-35174761D02*
X20832571Y-35212857D01*
X20832571Y-35212857D02*
X20794476Y-35212857D01*
X20794476Y-35212857D02*
X20718285Y-35174761D01*
X20718285Y-35174761D02*
X20680190Y-35136666D01*
X20680190Y-35136666D02*
X20642095Y-35060476D01*
X20642095Y-35060476D02*
X20642095Y-34908095D01*
X20642095Y-34908095D02*
X20680190Y-34831904D01*
X20680190Y-34831904D02*
X20718285Y-34793809D01*
X20718285Y-34793809D02*
X20794476Y-34755714D01*
X20794476Y-34755714D02*
X20832571Y-34755714D01*
X20832571Y-34755714D02*
X20908761Y-34793809D01*
X20908761Y-34793809D02*
X20946857Y-34831904D01*
X20946857Y-34831904D02*
X20984952Y-34908095D01*
X20984952Y-34908095D02*
X20984952Y-35060476D01*
X20984952Y-35060476D02*
X21023047Y-35136666D01*
X21023047Y-35136666D02*
X21061142Y-35174761D01*
X21061142Y-35174761D02*
X21137333Y-35212857D01*
X21137333Y-35212857D02*
X21289714Y-35212857D01*
X21289714Y-35212857D02*
X21365904Y-35174761D01*
X21365904Y-35174761D02*
X21404000Y-35136666D01*
X21404000Y-35136666D02*
X21442095Y-35060476D01*
X21442095Y-35060476D02*
X21442095Y-34908095D01*
X21442095Y-34908095D02*
X21404000Y-34831904D01*
X21404000Y-34831904D02*
X21365904Y-34793809D01*
X21365904Y-34793809D02*
X21289714Y-34755714D01*
X21289714Y-34755714D02*
X21137333Y-34755714D01*
X21137333Y-34755714D02*
X21061142Y-34793809D01*
X21061142Y-34793809D02*
X21023047Y-34831904D01*
X21023047Y-34831904D02*
X20984952Y-34908095D01*
X18176095Y-30488094D02*
X18823714Y-30488094D01*
X18823714Y-30488094D02*
X18899904Y-30449999D01*
X18899904Y-30449999D02*
X18938000Y-30411904D01*
X18938000Y-30411904D02*
X18976095Y-30335713D01*
X18976095Y-30335713D02*
X18976095Y-30183332D01*
X18976095Y-30183332D02*
X18938000Y-30107142D01*
X18938000Y-30107142D02*
X18899904Y-30069047D01*
X18899904Y-30069047D02*
X18823714Y-30030951D01*
X18823714Y-30030951D02*
X18176095Y-30030951D01*
X18938000Y-29688095D02*
X18976095Y-29573809D01*
X18976095Y-29573809D02*
X18976095Y-29383333D01*
X18976095Y-29383333D02*
X18938000Y-29307142D01*
X18938000Y-29307142D02*
X18899904Y-29269047D01*
X18899904Y-29269047D02*
X18823714Y-29230952D01*
X18823714Y-29230952D02*
X18747523Y-29230952D01*
X18747523Y-29230952D02*
X18671333Y-29269047D01*
X18671333Y-29269047D02*
X18633238Y-29307142D01*
X18633238Y-29307142D02*
X18595142Y-29383333D01*
X18595142Y-29383333D02*
X18557047Y-29535714D01*
X18557047Y-29535714D02*
X18518952Y-29611904D01*
X18518952Y-29611904D02*
X18480857Y-29649999D01*
X18480857Y-29649999D02*
X18404666Y-29688095D01*
X18404666Y-29688095D02*
X18328476Y-29688095D01*
X18328476Y-29688095D02*
X18252285Y-29649999D01*
X18252285Y-29649999D02*
X18214190Y-29611904D01*
X18214190Y-29611904D02*
X18176095Y-29535714D01*
X18176095Y-29535714D02*
X18176095Y-29345237D01*
X18176095Y-29345237D02*
X18214190Y-29230952D01*
X18557047Y-28621428D02*
X18595142Y-28507142D01*
X18595142Y-28507142D02*
X18633238Y-28469047D01*
X18633238Y-28469047D02*
X18709428Y-28430951D01*
X18709428Y-28430951D02*
X18823714Y-28430951D01*
X18823714Y-28430951D02*
X18899904Y-28469047D01*
X18899904Y-28469047D02*
X18938000Y-28507142D01*
X18938000Y-28507142D02*
X18976095Y-28583332D01*
X18976095Y-28583332D02*
X18976095Y-28888094D01*
X18976095Y-28888094D02*
X18176095Y-28888094D01*
X18176095Y-28888094D02*
X18176095Y-28621428D01*
X18176095Y-28621428D02*
X18214190Y-28545237D01*
X18214190Y-28545237D02*
X18252285Y-28507142D01*
X18252285Y-28507142D02*
X18328476Y-28469047D01*
X18328476Y-28469047D02*
X18404666Y-28469047D01*
X18404666Y-28469047D02*
X18480857Y-28507142D01*
X18480857Y-28507142D02*
X18518952Y-28545237D01*
X18518952Y-28545237D02*
X18557047Y-28621428D01*
X18557047Y-28621428D02*
X18557047Y-28888094D01*
X18976095Y-27478570D02*
X18176095Y-27478570D01*
X18176095Y-27478570D02*
X18176095Y-27288094D01*
X18176095Y-27288094D02*
X18214190Y-27173808D01*
X18214190Y-27173808D02*
X18290380Y-27097618D01*
X18290380Y-27097618D02*
X18366571Y-27059523D01*
X18366571Y-27059523D02*
X18518952Y-27021427D01*
X18518952Y-27021427D02*
X18633238Y-27021427D01*
X18633238Y-27021427D02*
X18785619Y-27059523D01*
X18785619Y-27059523D02*
X18861809Y-27097618D01*
X18861809Y-27097618D02*
X18938000Y-27173808D01*
X18938000Y-27173808D02*
X18976095Y-27288094D01*
X18976095Y-27288094D02*
X18976095Y-27478570D01*
X18938000Y-26373808D02*
X18976095Y-26449999D01*
X18976095Y-26449999D02*
X18976095Y-26602380D01*
X18976095Y-26602380D02*
X18938000Y-26678570D01*
X18938000Y-26678570D02*
X18861809Y-26716666D01*
X18861809Y-26716666D02*
X18557047Y-26716666D01*
X18557047Y-26716666D02*
X18480857Y-26678570D01*
X18480857Y-26678570D02*
X18442761Y-26602380D01*
X18442761Y-26602380D02*
X18442761Y-26449999D01*
X18442761Y-26449999D02*
X18480857Y-26373808D01*
X18480857Y-26373808D02*
X18557047Y-26335713D01*
X18557047Y-26335713D02*
X18633238Y-26335713D01*
X18633238Y-26335713D02*
X18709428Y-26716666D01*
X18442761Y-26069047D02*
X18976095Y-25878571D01*
X18976095Y-25878571D02*
X18442761Y-25688094D01*
X18976095Y-25383332D02*
X18442761Y-25383332D01*
X18176095Y-25383332D02*
X18214190Y-25421428D01*
X18214190Y-25421428D02*
X18252285Y-25383332D01*
X18252285Y-25383332D02*
X18214190Y-25345237D01*
X18214190Y-25345237D02*
X18176095Y-25383332D01*
X18176095Y-25383332D02*
X18252285Y-25383332D01*
X18938000Y-24659523D02*
X18976095Y-24735714D01*
X18976095Y-24735714D02*
X18976095Y-24888095D01*
X18976095Y-24888095D02*
X18938000Y-24964285D01*
X18938000Y-24964285D02*
X18899904Y-25002380D01*
X18899904Y-25002380D02*
X18823714Y-25040476D01*
X18823714Y-25040476D02*
X18595142Y-25040476D01*
X18595142Y-25040476D02*
X18518952Y-25002380D01*
X18518952Y-25002380D02*
X18480857Y-24964285D01*
X18480857Y-24964285D02*
X18442761Y-24888095D01*
X18442761Y-24888095D02*
X18442761Y-24735714D01*
X18442761Y-24735714D02*
X18480857Y-24659523D01*
X18938000Y-24011904D02*
X18976095Y-24088095D01*
X18976095Y-24088095D02*
X18976095Y-24240476D01*
X18976095Y-24240476D02*
X18938000Y-24316666D01*
X18938000Y-24316666D02*
X18861809Y-24354762D01*
X18861809Y-24354762D02*
X18557047Y-24354762D01*
X18557047Y-24354762D02*
X18480857Y-24316666D01*
X18480857Y-24316666D02*
X18442761Y-24240476D01*
X18442761Y-24240476D02*
X18442761Y-24088095D01*
X18442761Y-24088095D02*
X18480857Y-24011904D01*
X18480857Y-24011904D02*
X18557047Y-23973809D01*
X18557047Y-23973809D02*
X18633238Y-23973809D01*
X18633238Y-23973809D02*
X18709428Y-24354762D01*
X19548285Y-30183333D02*
X19510190Y-30145237D01*
X19510190Y-30145237D02*
X19472095Y-30069047D01*
X19472095Y-30069047D02*
X19472095Y-29878571D01*
X19472095Y-29878571D02*
X19510190Y-29802380D01*
X19510190Y-29802380D02*
X19548285Y-29764285D01*
X19548285Y-29764285D02*
X19624476Y-29726190D01*
X19624476Y-29726190D02*
X19700666Y-29726190D01*
X19700666Y-29726190D02*
X19814952Y-29764285D01*
X19814952Y-29764285D02*
X20272095Y-30221428D01*
X20272095Y-30221428D02*
X20272095Y-29726190D01*
X20195904Y-29383332D02*
X20234000Y-29345237D01*
X20234000Y-29345237D02*
X20272095Y-29383332D01*
X20272095Y-29383332D02*
X20234000Y-29421428D01*
X20234000Y-29421428D02*
X20195904Y-29383332D01*
X20195904Y-29383332D02*
X20272095Y-29383332D01*
X19472095Y-28849999D02*
X19472095Y-28773809D01*
X19472095Y-28773809D02*
X19510190Y-28697618D01*
X19510190Y-28697618D02*
X19548285Y-28659523D01*
X19548285Y-28659523D02*
X19624476Y-28621428D01*
X19624476Y-28621428D02*
X19776857Y-28583333D01*
X19776857Y-28583333D02*
X19967333Y-28583333D01*
X19967333Y-28583333D02*
X20119714Y-28621428D01*
X20119714Y-28621428D02*
X20195904Y-28659523D01*
X20195904Y-28659523D02*
X20234000Y-28697618D01*
X20234000Y-28697618D02*
X20272095Y-28773809D01*
X20272095Y-28773809D02*
X20272095Y-28849999D01*
X20272095Y-28849999D02*
X20234000Y-28926190D01*
X20234000Y-28926190D02*
X20195904Y-28964285D01*
X20195904Y-28964285D02*
X20119714Y-29002380D01*
X20119714Y-29002380D02*
X19967333Y-29040476D01*
X19967333Y-29040476D02*
X19776857Y-29040476D01*
X19776857Y-29040476D02*
X19624476Y-29002380D01*
X19624476Y-29002380D02*
X19548285Y-28964285D01*
X19548285Y-28964285D02*
X19510190Y-28926190D01*
X19510190Y-28926190D02*
X19472095Y-28849999D01*
X20576857Y-28011904D02*
X20538761Y-28049999D01*
X20538761Y-28049999D02*
X20424476Y-28126190D01*
X20424476Y-28126190D02*
X20348285Y-28164285D01*
X20348285Y-28164285D02*
X20234000Y-28202380D01*
X20234000Y-28202380D02*
X20043523Y-28240475D01*
X20043523Y-28240475D02*
X19891142Y-28240475D01*
X19891142Y-28240475D02*
X19700666Y-28202380D01*
X19700666Y-28202380D02*
X19586380Y-28164285D01*
X19586380Y-28164285D02*
X19510190Y-28126190D01*
X19510190Y-28126190D02*
X19395904Y-28049999D01*
X19395904Y-28049999D02*
X19357809Y-28011904D01*
X19738761Y-27364285D02*
X20272095Y-27364285D01*
X19434000Y-27554761D02*
X20005428Y-27745238D01*
X20005428Y-27745238D02*
X20005428Y-27249999D01*
X19814952Y-26830952D02*
X19776857Y-26907142D01*
X19776857Y-26907142D02*
X19738761Y-26945237D01*
X19738761Y-26945237D02*
X19662571Y-26983333D01*
X19662571Y-26983333D02*
X19624476Y-26983333D01*
X19624476Y-26983333D02*
X19548285Y-26945237D01*
X19548285Y-26945237D02*
X19510190Y-26907142D01*
X19510190Y-26907142D02*
X19472095Y-26830952D01*
X19472095Y-26830952D02*
X19472095Y-26678571D01*
X19472095Y-26678571D02*
X19510190Y-26602380D01*
X19510190Y-26602380D02*
X19548285Y-26564285D01*
X19548285Y-26564285D02*
X19624476Y-26526190D01*
X19624476Y-26526190D02*
X19662571Y-26526190D01*
X19662571Y-26526190D02*
X19738761Y-26564285D01*
X19738761Y-26564285D02*
X19776857Y-26602380D01*
X19776857Y-26602380D02*
X19814952Y-26678571D01*
X19814952Y-26678571D02*
X19814952Y-26830952D01*
X19814952Y-26830952D02*
X19853047Y-26907142D01*
X19853047Y-26907142D02*
X19891142Y-26945237D01*
X19891142Y-26945237D02*
X19967333Y-26983333D01*
X19967333Y-26983333D02*
X20119714Y-26983333D01*
X20119714Y-26983333D02*
X20195904Y-26945237D01*
X20195904Y-26945237D02*
X20234000Y-26907142D01*
X20234000Y-26907142D02*
X20272095Y-26830952D01*
X20272095Y-26830952D02*
X20272095Y-26678571D01*
X20272095Y-26678571D02*
X20234000Y-26602380D01*
X20234000Y-26602380D02*
X20195904Y-26564285D01*
X20195904Y-26564285D02*
X20119714Y-26526190D01*
X20119714Y-26526190D02*
X19967333Y-26526190D01*
X19967333Y-26526190D02*
X19891142Y-26564285D01*
X19891142Y-26564285D02*
X19853047Y-26602380D01*
X19853047Y-26602380D02*
X19814952Y-26678571D01*
X19472095Y-26030951D02*
X19472095Y-25954761D01*
X19472095Y-25954761D02*
X19510190Y-25878570D01*
X19510190Y-25878570D02*
X19548285Y-25840475D01*
X19548285Y-25840475D02*
X19624476Y-25802380D01*
X19624476Y-25802380D02*
X19776857Y-25764285D01*
X19776857Y-25764285D02*
X19967333Y-25764285D01*
X19967333Y-25764285D02*
X20119714Y-25802380D01*
X20119714Y-25802380D02*
X20195904Y-25840475D01*
X20195904Y-25840475D02*
X20234000Y-25878570D01*
X20234000Y-25878570D02*
X20272095Y-25954761D01*
X20272095Y-25954761D02*
X20272095Y-26030951D01*
X20272095Y-26030951D02*
X20234000Y-26107142D01*
X20234000Y-26107142D02*
X20195904Y-26145237D01*
X20195904Y-26145237D02*
X20119714Y-26183332D01*
X20119714Y-26183332D02*
X19967333Y-26221428D01*
X19967333Y-26221428D02*
X19776857Y-26221428D01*
X19776857Y-26221428D02*
X19624476Y-26183332D01*
X19624476Y-26183332D02*
X19548285Y-26145237D01*
X19548285Y-26145237D02*
X19510190Y-26107142D01*
X19510190Y-26107142D02*
X19472095Y-26030951D01*
X20272095Y-25421427D02*
X19472095Y-25421427D01*
X19472095Y-25421427D02*
X20043523Y-25154761D01*
X20043523Y-25154761D02*
X19472095Y-24888094D01*
X19472095Y-24888094D02*
X20272095Y-24888094D01*
X20576857Y-24583332D02*
X20538761Y-24545237D01*
X20538761Y-24545237D02*
X20424476Y-24469046D01*
X20424476Y-24469046D02*
X20348285Y-24430951D01*
X20348285Y-24430951D02*
X20234000Y-24392856D01*
X20234000Y-24392856D02*
X20043523Y-24354760D01*
X20043523Y-24354760D02*
X19891142Y-24354760D01*
X19891142Y-24354760D02*
X19700666Y-24392856D01*
X19700666Y-24392856D02*
X19586380Y-24430951D01*
X19586380Y-24430951D02*
X19510190Y-24469046D01*
X19510190Y-24469046D02*
X19395904Y-24545237D01*
X19395904Y-24545237D02*
X19357809Y-24583332D01*
X55810476Y-16332095D02*
X55810476Y-15532095D01*
X55810476Y-15532095D02*
X56115238Y-15532095D01*
X56115238Y-15532095D02*
X56191428Y-15570190D01*
X56191428Y-15570190D02*
X56229523Y-15608285D01*
X56229523Y-15608285D02*
X56267619Y-15684476D01*
X56267619Y-15684476D02*
X56267619Y-15798761D01*
X56267619Y-15798761D02*
X56229523Y-15874952D01*
X56229523Y-15874952D02*
X56191428Y-15913047D01*
X56191428Y-15913047D02*
X56115238Y-15951142D01*
X56115238Y-15951142D02*
X55810476Y-15951142D01*
X57067619Y-16255904D02*
X57029523Y-16294000D01*
X57029523Y-16294000D02*
X56915238Y-16332095D01*
X56915238Y-16332095D02*
X56839047Y-16332095D01*
X56839047Y-16332095D02*
X56724761Y-16294000D01*
X56724761Y-16294000D02*
X56648571Y-16217809D01*
X56648571Y-16217809D02*
X56610476Y-16141619D01*
X56610476Y-16141619D02*
X56572380Y-15989238D01*
X56572380Y-15989238D02*
X56572380Y-15874952D01*
X56572380Y-15874952D02*
X56610476Y-15722571D01*
X56610476Y-15722571D02*
X56648571Y-15646380D01*
X56648571Y-15646380D02*
X56724761Y-15570190D01*
X56724761Y-15570190D02*
X56839047Y-15532095D01*
X56839047Y-15532095D02*
X56915238Y-15532095D01*
X56915238Y-15532095D02*
X57029523Y-15570190D01*
X57029523Y-15570190D02*
X57067619Y-15608285D01*
X57372380Y-15608285D02*
X57410476Y-15570190D01*
X57410476Y-15570190D02*
X57486666Y-15532095D01*
X57486666Y-15532095D02*
X57677142Y-15532095D01*
X57677142Y-15532095D02*
X57753333Y-15570190D01*
X57753333Y-15570190D02*
X57791428Y-15608285D01*
X57791428Y-15608285D02*
X57829523Y-15684476D01*
X57829523Y-15684476D02*
X57829523Y-15760666D01*
X57829523Y-15760666D02*
X57791428Y-15874952D01*
X57791428Y-15874952D02*
X57334285Y-16332095D01*
X57334285Y-16332095D02*
X57829523Y-16332095D01*
X62439049Y-16332095D02*
X62439049Y-15532095D01*
X62439049Y-15532095D02*
X62743811Y-15532095D01*
X62743811Y-15532095D02*
X62820001Y-15570190D01*
X62820001Y-15570190D02*
X62858096Y-15608285D01*
X62858096Y-15608285D02*
X62896192Y-15684476D01*
X62896192Y-15684476D02*
X62896192Y-15798761D01*
X62896192Y-15798761D02*
X62858096Y-15874952D01*
X62858096Y-15874952D02*
X62820001Y-15913047D01*
X62820001Y-15913047D02*
X62743811Y-15951142D01*
X62743811Y-15951142D02*
X62439049Y-15951142D01*
X63696192Y-16255904D02*
X63658096Y-16294000D01*
X63658096Y-16294000D02*
X63543811Y-16332095D01*
X63543811Y-16332095D02*
X63467620Y-16332095D01*
X63467620Y-16332095D02*
X63353334Y-16294000D01*
X63353334Y-16294000D02*
X63277144Y-16217809D01*
X63277144Y-16217809D02*
X63239049Y-16141619D01*
X63239049Y-16141619D02*
X63200953Y-15989238D01*
X63200953Y-15989238D02*
X63200953Y-15874952D01*
X63200953Y-15874952D02*
X63239049Y-15722571D01*
X63239049Y-15722571D02*
X63277144Y-15646380D01*
X63277144Y-15646380D02*
X63353334Y-15570190D01*
X63353334Y-15570190D02*
X63467620Y-15532095D01*
X63467620Y-15532095D02*
X63543811Y-15532095D01*
X63543811Y-15532095D02*
X63658096Y-15570190D01*
X63658096Y-15570190D02*
X63696192Y-15608285D01*
X64458096Y-16332095D02*
X64000953Y-16332095D01*
X64229525Y-16332095D02*
X64229525Y-15532095D01*
X64229525Y-15532095D02*
X64153334Y-15646380D01*
X64153334Y-15646380D02*
X64077144Y-15722571D01*
X64077144Y-15722571D02*
X64000953Y-15760666D01*
X16622856Y-34052095D02*
X16165713Y-34052095D01*
X16394285Y-34052095D02*
X16394285Y-33252095D01*
X16394285Y-33252095D02*
X16318094Y-33366380D01*
X16318094Y-33366380D02*
X16241904Y-33442571D01*
X16241904Y-33442571D02*
X16165713Y-33480666D01*
X16889523Y-33518761D02*
X17079999Y-34052095D01*
X17079999Y-34052095D02*
X17270476Y-33518761D01*
X17689523Y-33594952D02*
X17613333Y-33556857D01*
X17613333Y-33556857D02*
X17575238Y-33518761D01*
X17575238Y-33518761D02*
X17537142Y-33442571D01*
X17537142Y-33442571D02*
X17537142Y-33404476D01*
X17537142Y-33404476D02*
X17575238Y-33328285D01*
X17575238Y-33328285D02*
X17613333Y-33290190D01*
X17613333Y-33290190D02*
X17689523Y-33252095D01*
X17689523Y-33252095D02*
X17841904Y-33252095D01*
X17841904Y-33252095D02*
X17918095Y-33290190D01*
X17918095Y-33290190D02*
X17956190Y-33328285D01*
X17956190Y-33328285D02*
X17994285Y-33404476D01*
X17994285Y-33404476D02*
X17994285Y-33442571D01*
X17994285Y-33442571D02*
X17956190Y-33518761D01*
X17956190Y-33518761D02*
X17918095Y-33556857D01*
X17918095Y-33556857D02*
X17841904Y-33594952D01*
X17841904Y-33594952D02*
X17689523Y-33594952D01*
X17689523Y-33594952D02*
X17613333Y-33633047D01*
X17613333Y-33633047D02*
X17575238Y-33671142D01*
X17575238Y-33671142D02*
X17537142Y-33747333D01*
X17537142Y-33747333D02*
X17537142Y-33899714D01*
X17537142Y-33899714D02*
X17575238Y-33975904D01*
X17575238Y-33975904D02*
X17613333Y-34014000D01*
X17613333Y-34014000D02*
X17689523Y-34052095D01*
X17689523Y-34052095D02*
X17841904Y-34052095D01*
X17841904Y-34052095D02*
X17918095Y-34014000D01*
X17918095Y-34014000D02*
X17956190Y-33975904D01*
X17956190Y-33975904D02*
X17994285Y-33899714D01*
X17994285Y-33899714D02*
X17994285Y-33747333D01*
X17994285Y-33747333D02*
X17956190Y-33671142D01*
X17956190Y-33671142D02*
X17918095Y-33633047D01*
X17918095Y-33633047D02*
X17841904Y-33594952D01*
D11*
%TO.C,C31*%
X33232927Y-38472999D02*
X33536983Y-38168943D01*
X33883466Y-39123537D02*
X33236463Y-38476534D01*
X33887001Y-39120002D02*
X34191057Y-38815946D01*
X34627696Y-37081766D02*
X34323640Y-37385822D01*
X34631231Y-37078231D02*
X35278234Y-37725233D01*
X35281769Y-37728769D02*
X34977713Y-38032825D01*
%TO.C,R10*%
X33940000Y-41122500D02*
X33510000Y-41122500D01*
X33940000Y-40202500D02*
X33940000Y-41117500D01*
X33935000Y-40202500D02*
X33505000Y-40202500D01*
X31970000Y-41120000D02*
X32400000Y-41120000D01*
X31965000Y-41120000D02*
X31965000Y-40205000D01*
X31965000Y-40200000D02*
X32395000Y-40200000D01*
%TO.C,C5*%
X32987001Y-16652927D02*
X33291057Y-16956983D01*
X32336463Y-17303466D02*
X32983466Y-16656463D01*
X32339998Y-17307001D02*
X32644054Y-17611057D01*
X34378234Y-18047696D02*
X34074178Y-17743640D01*
X34381769Y-18051231D02*
X33734767Y-18698234D01*
X33731231Y-18701769D02*
X33427175Y-18397713D01*
%TO.C,C23*%
X63492500Y-17670000D02*
X63492500Y-18100000D01*
X62572500Y-17670000D02*
X63487500Y-17670000D01*
X62572500Y-17675000D02*
X62572500Y-18105000D01*
X63490000Y-19640000D02*
X63490000Y-19210000D01*
X63490000Y-19645000D02*
X62575000Y-19645000D01*
X62570000Y-19645000D02*
X62570000Y-19215000D01*
%TO.C,C28*%
X25362500Y-24150000D02*
X25362500Y-24580000D01*
X24442500Y-24150000D02*
X25357500Y-24150000D01*
X24442500Y-24155000D02*
X24442500Y-24585000D01*
X25360000Y-26120000D02*
X25360000Y-25690000D01*
X25360000Y-26125000D02*
X24445000Y-26125000D01*
X24440000Y-26125000D02*
X24440000Y-25695000D01*
%TO.C,C41*%
X37490000Y-41142500D02*
X37060000Y-41142500D01*
X37490000Y-40222500D02*
X37490000Y-41137500D01*
X37485000Y-40222500D02*
X37055000Y-40222500D01*
X35520000Y-41140000D02*
X35950000Y-41140000D01*
X35515000Y-41140000D02*
X35515000Y-40225000D01*
X35515000Y-40220000D02*
X35945000Y-40220000D01*
%TO.C,C6*%
X34787001Y-14852927D02*
X35091057Y-15156983D01*
X34136463Y-15503466D02*
X34783466Y-14856463D01*
X34139998Y-15507001D02*
X34444054Y-15811057D01*
X36178234Y-16247696D02*
X35874178Y-15943640D01*
X36181769Y-16251231D02*
X35534767Y-16898234D01*
X35531231Y-16901769D02*
X35227175Y-16597713D01*
%TO.C,C12*%
X39702999Y-38567073D02*
X39398943Y-38263017D01*
X40353537Y-37916534D02*
X39706534Y-38563537D01*
X40350002Y-37912999D02*
X40045946Y-37608943D01*
X38311766Y-37172304D02*
X38615822Y-37476360D01*
X38308231Y-37168769D02*
X38955233Y-36521766D01*
X38958769Y-36518231D02*
X39262825Y-36822287D01*
%TO.C,C4*%
X32087001Y-17572927D02*
X32391057Y-17876983D01*
X31436463Y-18223466D02*
X32083466Y-17576463D01*
X31439998Y-18227001D02*
X31744054Y-18531057D01*
X33478234Y-18967696D02*
X33174178Y-18663640D01*
X33481769Y-18971231D02*
X32834767Y-19618234D01*
X32831231Y-19621769D02*
X32527175Y-19317713D01*
%TO.C,R21*%
X54280000Y-14595000D02*
X54280000Y-15025000D01*
X54275000Y-15030000D02*
X53845000Y-15030000D01*
X54270000Y-13665000D02*
X54270000Y-14095000D01*
X54265000Y-13660000D02*
X53835000Y-13660000D01*
X51355000Y-13660000D02*
X51785000Y-13660000D01*
X51350000Y-14095000D02*
X51350000Y-13665000D01*
X51345000Y-15030000D02*
X51775000Y-15030000D01*
X51345000Y-15030000D02*
X51345000Y-14600000D01*
D12*
%TO.C,Y1*%
X31713883Y-39339468D02*
X34259468Y-36793883D01*
X34259468Y-36793883D02*
X30193604Y-32728019D01*
X27648019Y-35273604D02*
X31713883Y-39339468D01*
D11*
%TO.C,R20*%
X60887500Y-14615000D02*
X60887500Y-15045000D01*
X60882500Y-15050000D02*
X60452500Y-15050000D01*
X60877500Y-13685000D02*
X60877500Y-14115000D01*
X60872500Y-13680000D02*
X60442500Y-13680000D01*
X57962500Y-13680000D02*
X58392500Y-13680000D01*
X57957500Y-14115000D02*
X57957500Y-13685000D01*
X57952500Y-15050000D02*
X58382500Y-15050000D01*
X57952500Y-15050000D02*
X57952500Y-14620000D01*
%TO.C,R3*%
X42660000Y-40705000D02*
X42660000Y-41135000D01*
X42655000Y-41140000D02*
X42225000Y-41140000D01*
X42650000Y-39775000D02*
X42650000Y-40205000D01*
X42645000Y-39770000D02*
X42215000Y-39770000D01*
X39735000Y-39770000D02*
X40165000Y-39770000D01*
X39730000Y-40205000D02*
X39730000Y-39775000D01*
X39725000Y-41140000D02*
X40155000Y-41140000D01*
X39725000Y-41140000D02*
X39725000Y-40710000D01*
%TO.C,C13*%
X41512999Y-36807073D02*
X41208943Y-36503017D01*
X42163537Y-36156534D02*
X41516534Y-36803537D01*
X42160002Y-36152999D02*
X41855946Y-35848943D01*
X40121766Y-35412304D02*
X40425822Y-35716360D01*
X40118231Y-35408769D02*
X40765233Y-34761766D01*
X40768769Y-34758231D02*
X41072825Y-35062287D01*
%TO.C,R15*%
X60520000Y-40745000D02*
X60520000Y-41175000D01*
X60515000Y-41180000D02*
X60085000Y-41180000D01*
X60510000Y-39815000D02*
X60510000Y-40245000D01*
X60505000Y-39810000D02*
X60075000Y-39810000D01*
X57595000Y-39810000D02*
X58025000Y-39810000D01*
X57590000Y-40245000D02*
X57590000Y-39815000D01*
X57585000Y-41180000D02*
X58015000Y-41180000D01*
X57585000Y-41180000D02*
X57585000Y-40750000D01*
D12*
%TO.C,SW1*%
X27620000Y-39500000D02*
X27620000Y-39600000D01*
X27620000Y-38000000D02*
X23220000Y-38000000D01*
X23220000Y-41100000D02*
X27620000Y-41100000D01*
X23220000Y-39500000D02*
X23220000Y-39600000D01*
D11*
%TO.C,C2*%
X29333839Y-20239765D02*
X29637895Y-20543821D01*
X28683301Y-20890304D02*
X29330304Y-20243301D01*
X28686836Y-20893839D02*
X28990892Y-21197895D01*
X30725072Y-21634534D02*
X30421016Y-21330478D01*
X30728607Y-21638069D02*
X30081605Y-22285072D01*
X30078069Y-22288607D02*
X29774013Y-21984551D01*
%TO.C,C15*%
X40602999Y-37677073D02*
X40298943Y-37373017D01*
X41253537Y-37026534D02*
X40606534Y-37673537D01*
X41250002Y-37022999D02*
X40945946Y-36718943D01*
X39211766Y-36282304D02*
X39515822Y-36586360D01*
X39208231Y-36278769D02*
X39855233Y-35631766D01*
X39858769Y-35628231D02*
X40162825Y-35932287D01*
%TO.C,R23*%
X18110000Y-18952500D02*
X17680000Y-18952500D01*
X18110000Y-18032500D02*
X18110000Y-18947500D01*
X18105000Y-18032500D02*
X17675000Y-18032500D01*
X16140000Y-18950000D02*
X16570000Y-18950000D01*
X16135000Y-18950000D02*
X16135000Y-18035000D01*
X16135000Y-18030000D02*
X16565000Y-18030000D01*
%TO.C,R24*%
X18080000Y-17632500D02*
X17650000Y-17632500D01*
X18080000Y-16712500D02*
X18080000Y-17627500D01*
X18075000Y-16712500D02*
X17645000Y-16712500D01*
X16110000Y-17630000D02*
X16540000Y-17630000D01*
X16105000Y-17630000D02*
X16105000Y-16715000D01*
X16105000Y-16710000D02*
X16535000Y-16710000D01*
%TO.C,R2*%
X20500000Y-21952500D02*
X20070000Y-21952500D01*
X20500000Y-21032500D02*
X20500000Y-21947500D01*
X20495000Y-21032500D02*
X20065000Y-21032500D01*
X18530000Y-21950000D02*
X18960000Y-21950000D01*
X18525000Y-21950000D02*
X18525000Y-21035000D01*
X18525000Y-21030000D02*
X18955000Y-21030000D01*
%TO.C,R9*%
X33828839Y-15744765D02*
X34132895Y-16048821D01*
X33178301Y-16395304D02*
X33825304Y-15748301D01*
X33181836Y-16398839D02*
X33485892Y-16702895D01*
X35220072Y-17139534D02*
X34916016Y-16835478D01*
X35223607Y-17143069D02*
X34576605Y-17790072D01*
X34573069Y-17793607D02*
X34269013Y-17489551D01*
%TO.C,R7*%
X26345000Y-32610000D02*
X25915000Y-32610000D01*
X25910000Y-32605000D02*
X25910000Y-32175000D01*
X27275000Y-32600000D02*
X26845000Y-32600000D01*
X27280000Y-32595000D02*
X27280000Y-32165000D01*
X27280000Y-29685000D02*
X27280000Y-30115000D01*
X26845000Y-29680000D02*
X27275000Y-29680000D01*
X25910000Y-29675000D02*
X25910000Y-30105000D01*
X25910000Y-29675000D02*
X26340000Y-29675000D01*
%TO.C,C3*%
X30267001Y-19352927D02*
X30571057Y-19656983D01*
X29616463Y-20003466D02*
X30263466Y-19356463D01*
X29619998Y-20007001D02*
X29924054Y-20311057D01*
X31658234Y-20747696D02*
X31354178Y-20443640D01*
X31661769Y-20751231D02*
X31014767Y-21398234D01*
X31011231Y-21401769D02*
X30707175Y-21097713D01*
%TO.C,C35*%
X20480000Y-41242500D02*
X20050000Y-41242500D01*
X20480000Y-40322500D02*
X20480000Y-41237500D01*
X20475000Y-40322500D02*
X20045000Y-40322500D01*
X18510000Y-41240000D02*
X18940000Y-41240000D01*
X18505000Y-41240000D02*
X18505000Y-40325000D01*
X18505000Y-40320000D02*
X18935000Y-40320000D01*
%TO.C,C22*%
X63807500Y-33810000D02*
X63807500Y-33380000D01*
X64727500Y-33810000D02*
X63812500Y-33810000D01*
X64727500Y-33805000D02*
X64727500Y-33375000D01*
X63810000Y-31840000D02*
X63810000Y-32270000D01*
X63810000Y-31835000D02*
X64725000Y-31835000D01*
X64730000Y-31835000D02*
X64730000Y-32265000D01*
%TO.C,R12*%
X60640000Y-38685000D02*
X60640000Y-38255000D01*
X60645000Y-38250000D02*
X61075000Y-38250000D01*
X60650000Y-39615000D02*
X60650000Y-39185000D01*
X60655000Y-39620000D02*
X61085000Y-39620000D01*
X63565000Y-39620000D02*
X63135000Y-39620000D01*
X63570000Y-39185000D02*
X63570000Y-39615000D01*
X63575000Y-38250000D02*
X63145000Y-38250000D01*
X63575000Y-38250000D02*
X63575000Y-38680000D01*
%TO.C,C40*%
X25320000Y-36777500D02*
X25750000Y-36777500D01*
X25320000Y-37697500D02*
X25320000Y-36782500D01*
X25325000Y-37697500D02*
X25755000Y-37697500D01*
X27290000Y-36780000D02*
X26860000Y-36780000D01*
X27295000Y-36780000D02*
X27295000Y-37695000D01*
X27295000Y-37700000D02*
X26865000Y-37700000D01*
%TO.C,R13*%
X18080000Y-16332500D02*
X17650000Y-16332500D01*
X18080000Y-15412500D02*
X18080000Y-16327500D01*
X18075000Y-15412500D02*
X17645000Y-15412500D01*
X16110000Y-16330000D02*
X16540000Y-16330000D01*
X16105000Y-16330000D02*
X16105000Y-15415000D01*
X16105000Y-15410000D02*
X16535000Y-15410000D01*
D12*
%TO.C,J1*%
X20631000Y-22620000D02*
X18631000Y-22620000D01*
X16731000Y-22620000D02*
X14831000Y-22620000D01*
X14831000Y-22620000D02*
X14831000Y-32020000D01*
X20631000Y-32020000D02*
X18631000Y-32020000D01*
X16731000Y-32020000D02*
X14831000Y-32020000D01*
D11*
%TO.C,C19*%
X64772500Y-20650000D02*
X64772500Y-21080000D01*
X63852500Y-20650000D02*
X64767500Y-20650000D01*
X63852500Y-20655000D02*
X63852500Y-21085000D01*
X64770000Y-22620000D02*
X64770000Y-22190000D01*
X64770000Y-22625000D02*
X63855000Y-22625000D01*
X63850000Y-22625000D02*
X63850000Y-22195000D01*
D12*
%TO.C,U6*%
X18130000Y-36040000D02*
X19930000Y-36040000D01*
X18130000Y-36040000D02*
X17330000Y-36040000D01*
X18130000Y-32920000D02*
X18930000Y-32920000D01*
X18130000Y-32920000D02*
X17330000Y-32920000D01*
%TO.C,D1*%
X64365000Y-15105000D02*
X64365000Y-13635000D01*
X64365000Y-13635000D02*
X61905000Y-13635000D01*
X61905000Y-15105000D02*
X64365000Y-15105000D01*
D11*
%TO.C,C1*%
X31147001Y-18452927D02*
X31451057Y-18756983D01*
X30496463Y-19103466D02*
X31143466Y-18456463D01*
X30499998Y-19107001D02*
X30804054Y-19411057D01*
X32538234Y-19847696D02*
X32234178Y-19543640D01*
X32541769Y-19851231D02*
X31894767Y-20498234D01*
X31891231Y-20501769D02*
X31587175Y-20197713D01*
%TO.C,C21*%
X63807500Y-29540000D02*
X63807500Y-29110000D01*
X64727500Y-29540000D02*
X63812500Y-29540000D01*
X64727500Y-29535000D02*
X64727500Y-29105000D01*
X63810000Y-27570000D02*
X63810000Y-28000000D01*
X63810000Y-27565000D02*
X64725000Y-27565000D01*
X64730000Y-27565000D02*
X64730000Y-27995000D01*
%TO.C,C36*%
X24447500Y-24040000D02*
X24447500Y-23610000D01*
X25367500Y-24040000D02*
X24452500Y-24040000D01*
X25367500Y-24035000D02*
X25367500Y-23605000D01*
X24450000Y-22070000D02*
X24450000Y-22500000D01*
X24450000Y-22065000D02*
X25365000Y-22065000D01*
X25370000Y-22065000D02*
X25370000Y-22495000D01*
%TO.C,R1*%
X20590000Y-21027500D02*
X21020000Y-21027500D01*
X20590000Y-21947500D02*
X20590000Y-21032500D01*
X20595000Y-21947500D02*
X21025000Y-21947500D01*
X22560000Y-21030000D02*
X22130000Y-21030000D01*
X22565000Y-21030000D02*
X22565000Y-21945000D01*
X22565000Y-21950000D02*
X22135000Y-21950000D01*
%TO.C,C9*%
X40487001Y-15072927D02*
X40791057Y-15376983D01*
X39836463Y-15723466D02*
X40483466Y-15076463D01*
X39839998Y-15727001D02*
X40144054Y-16031057D01*
X41878234Y-16467696D02*
X41574178Y-16163640D01*
X41881769Y-16471231D02*
X41234767Y-17118234D01*
X41231231Y-17121769D02*
X40927175Y-16817713D01*
D12*
%TO.C,U5*%
X18110000Y-39600000D02*
X19910000Y-39600000D01*
X18110000Y-39600000D02*
X17310000Y-39600000D01*
X18110000Y-36480000D02*
X18910000Y-36480000D01*
X18110000Y-36480000D02*
X17310000Y-36480000D01*
D11*
%TO.C,R14*%
X63590000Y-40725000D02*
X63590000Y-41155000D01*
X63585000Y-41160000D02*
X63155000Y-41160000D01*
X63580000Y-39795000D02*
X63580000Y-40225000D01*
X63575000Y-39790000D02*
X63145000Y-39790000D01*
X60665000Y-39790000D02*
X61095000Y-39790000D01*
X60660000Y-40225000D02*
X60660000Y-39795000D01*
X60655000Y-41160000D02*
X61085000Y-41160000D01*
X60655000Y-41160000D02*
X60655000Y-40730000D01*
%TO.C,C32*%
X29667073Y-32087001D02*
X29363017Y-32391057D01*
X29016534Y-31436463D02*
X29663537Y-32083466D01*
X29012999Y-31439998D02*
X28708943Y-31744054D01*
X28272304Y-33478234D02*
X28576360Y-33174178D01*
X28268769Y-33481769D02*
X27621766Y-32834767D01*
X27618231Y-32831231D02*
X27922287Y-32527175D01*
%TO.C,C10*%
X41077073Y-17257001D02*
X40773017Y-17561057D01*
X40426534Y-16606463D02*
X41073537Y-17253466D01*
X40422999Y-16609998D02*
X40118943Y-16914054D01*
X39682304Y-18648234D02*
X39986360Y-18344178D01*
X39678769Y-18651769D02*
X39031766Y-18004767D01*
X39028231Y-18001231D02*
X39332287Y-17697175D01*
%TO.C,C37*%
X22540000Y-41222500D02*
X22110000Y-41222500D01*
X22540000Y-40302500D02*
X22540000Y-41217500D01*
X22535000Y-40302500D02*
X22105000Y-40302500D01*
X20570000Y-41220000D02*
X21000000Y-41220000D01*
X20565000Y-41220000D02*
X20565000Y-40305000D01*
X20565000Y-40300000D02*
X20995000Y-40300000D01*
%TO.C,C26*%
X64682500Y-38250000D02*
X64682500Y-38680000D01*
X63762500Y-38250000D02*
X64677500Y-38250000D01*
X63762500Y-38255000D02*
X63762500Y-38685000D01*
X64680000Y-40220000D02*
X64680000Y-39790000D01*
X64680000Y-40225000D02*
X63765000Y-40225000D01*
X63760000Y-40225000D02*
X63760000Y-39795000D01*
%TO.C,C14*%
X38702999Y-39547073D02*
X38398943Y-39243017D01*
X39353537Y-38896534D02*
X38706534Y-39543537D01*
X39350002Y-38892999D02*
X39045946Y-38588943D01*
X37311766Y-38152304D02*
X37615822Y-38456360D01*
X37308231Y-38148769D02*
X37955233Y-37501766D01*
X37958769Y-37498231D02*
X38262825Y-37802287D01*
%TO.C,C16*%
X42382999Y-35937073D02*
X42078943Y-35633017D01*
X43033537Y-35286534D02*
X42386534Y-35933537D01*
X43030002Y-35282999D02*
X42725946Y-34978943D01*
X40991766Y-34542304D02*
X41295822Y-34846360D01*
X40988231Y-34538769D02*
X41635233Y-33891766D01*
X41638769Y-33888231D02*
X41942825Y-34192287D01*
D12*
%TO.C,U3*%
X20915000Y-13835000D02*
X20915000Y-14095000D01*
X20915000Y-14095000D02*
X19240000Y-14095000D01*
X20915000Y-19285000D02*
X20915000Y-19025000D01*
X23640000Y-13835000D02*
X20915000Y-13835000D01*
X23640000Y-13835000D02*
X26365000Y-13835000D01*
X23640000Y-19285000D02*
X20915000Y-19285000D01*
X23640000Y-19285000D02*
X26365000Y-19285000D01*
X26365000Y-13835000D02*
X26365000Y-14095000D01*
X26365000Y-19285000D02*
X26365000Y-19025000D01*
D11*
%TO.C,R5*%
X24915000Y-32610000D02*
X24485000Y-32610000D01*
X24480000Y-32605000D02*
X24480000Y-32175000D01*
X25845000Y-32600000D02*
X25415000Y-32600000D01*
X25850000Y-32595000D02*
X25850000Y-32165000D01*
X25850000Y-29685000D02*
X25850000Y-30115000D01*
X25415000Y-29680000D02*
X25845000Y-29680000D01*
X24480000Y-29675000D02*
X24480000Y-30105000D01*
X24480000Y-29675000D02*
X24910000Y-29675000D01*
%TO.C,C33*%
X18400000Y-41242500D02*
X17970000Y-41242500D01*
X18400000Y-40322500D02*
X18400000Y-41237500D01*
X18395000Y-40322500D02*
X17965000Y-40322500D01*
X16430000Y-41240000D02*
X16860000Y-41240000D01*
X16425000Y-41240000D02*
X16425000Y-40325000D01*
X16425000Y-40320000D02*
X16855000Y-40320000D01*
%TO.C,C7*%
X39247073Y-15467001D02*
X38943017Y-15771057D01*
X38596534Y-14816463D02*
X39243537Y-15463466D01*
X38592999Y-14819998D02*
X38288943Y-15124054D01*
X37852304Y-16858234D02*
X38156360Y-16554178D01*
X37848769Y-16861769D02*
X37201766Y-16214767D01*
X37198231Y-16211231D02*
X37502287Y-15907175D01*
%TO.C,C24*%
X63827500Y-36880000D02*
X63827500Y-36450000D01*
X64747500Y-36880000D02*
X63832500Y-36880000D01*
X64747500Y-36875000D02*
X64747500Y-36445000D01*
X63830000Y-34910000D02*
X63830000Y-35340000D01*
X63830000Y-34905000D02*
X64745000Y-34905000D01*
X64750000Y-34905000D02*
X64750000Y-35335000D01*
%TO.C,R22*%
X18120000Y-15072500D02*
X17690000Y-15072500D01*
X18120000Y-14152500D02*
X18120000Y-15067500D01*
X18115000Y-14152500D02*
X17685000Y-14152500D01*
X16150000Y-15070000D02*
X16580000Y-15070000D01*
X16145000Y-15070000D02*
X16145000Y-14155000D01*
X16145000Y-14150000D02*
X16575000Y-14150000D01*
%TO.C,R11*%
X39580000Y-41142500D02*
X39150000Y-41142500D01*
X39580000Y-40222500D02*
X39580000Y-41137500D01*
X39575000Y-40222500D02*
X39145000Y-40222500D01*
X37610000Y-41140000D02*
X38040000Y-41140000D01*
X37605000Y-41140000D02*
X37605000Y-40225000D01*
X37605000Y-40220000D02*
X38035000Y-40220000D01*
D13*
%TO.C,U2*%
X55575700Y-20803800D02*
X55575700Y-33656200D01*
X55575700Y-33656200D02*
X63424300Y-33656200D01*
X55702700Y-24829700D02*
X55448700Y-24829700D01*
X55702700Y-28830200D02*
X55448700Y-28830200D01*
X55702700Y-32830700D02*
X55448700Y-32830700D01*
X59500000Y-20930800D02*
X59500000Y-20676800D01*
X59500000Y-33529200D02*
X59500000Y-33783200D01*
X63297300Y-24829700D02*
X63551300Y-24829700D01*
X63297300Y-28830200D02*
X63551300Y-28830200D01*
X63297300Y-32830700D02*
X63551300Y-32830700D01*
X63424300Y-20803800D02*
X55575700Y-20803800D01*
X63424300Y-33656200D02*
X63424300Y-20803800D01*
D11*
%TO.C,C20*%
X64772500Y-24030000D02*
X64772500Y-24460000D01*
X63852500Y-24030000D02*
X64767500Y-24030000D01*
X63852500Y-24035000D02*
X63852500Y-24465000D01*
X64770000Y-26000000D02*
X64770000Y-25570000D01*
X64770000Y-26005000D02*
X63855000Y-26005000D01*
X63850000Y-26005000D02*
X63850000Y-25575000D01*
D12*
%TO.C,D2*%
X57767500Y-15105000D02*
X57767500Y-13635000D01*
X57767500Y-13635000D02*
X55307500Y-13635000D01*
X55307500Y-15105000D02*
X57767500Y-15105000D01*
D11*
%TO.C,C38*%
X28460000Y-40237500D02*
X28890000Y-40237500D01*
X28460000Y-41157500D02*
X28460000Y-40242500D01*
X28465000Y-41157500D02*
X28895000Y-41157500D01*
X30430000Y-40240000D02*
X30000000Y-40240000D01*
X30435000Y-40240000D02*
X30435000Y-41155000D01*
X30435000Y-41160000D02*
X30005000Y-41160000D01*
%TO.C,C11*%
X40188911Y-16345163D02*
X39884855Y-16649219D01*
X39538372Y-15694625D02*
X40185375Y-16341628D01*
X39534837Y-15698160D02*
X39230781Y-16002216D01*
X38794142Y-17736396D02*
X39098198Y-17432340D01*
X38790607Y-17739931D02*
X38143604Y-17092929D01*
X38140069Y-17089393D02*
X38444125Y-16785337D01*
%TO.C,C25*%
X64802500Y-17670000D02*
X64802500Y-18100000D01*
X63882500Y-17670000D02*
X64797500Y-17670000D01*
X63882500Y-17675000D02*
X63882500Y-18105000D01*
X64800000Y-19640000D02*
X64800000Y-19210000D01*
X64800000Y-19645000D02*
X63885000Y-19645000D01*
X63880000Y-19645000D02*
X63880000Y-19215000D01*
D10*
%TO.C,U1*%
X36696066Y-16577332D02*
X34928299Y-18345099D01*
X36696066Y-16577332D02*
X38463833Y-18345099D01*
X25877332Y-27396066D02*
X27645099Y-25628299D01*
X25877332Y-27396066D02*
X27645099Y-29163833D01*
X47302668Y-27183934D02*
X45534901Y-25416167D01*
X47302668Y-27183934D02*
X45534901Y-28951701D01*
X36483934Y-38002668D02*
X34716167Y-36234901D01*
X36483934Y-38002668D02*
X38251701Y-36234901D01*
D14*
X36996066Y-15728804D02*
G75*
G03*
X36996066Y-15728804I-300000J0D01*
G01*
D12*
%TO.C,U7*%
X23620000Y-34732500D02*
X23620000Y-32932500D01*
X23620000Y-34732500D02*
X23620000Y-35532500D01*
X20500000Y-34732500D02*
X20500000Y-33932500D01*
X20500000Y-34732500D02*
X20500000Y-35532500D01*
D11*
%TO.C,C8*%
X28443839Y-21129765D02*
X28747895Y-21433821D01*
X27793301Y-21780304D02*
X28440304Y-21133301D01*
X27796836Y-21783839D02*
X28100892Y-22087895D01*
X29835072Y-22524534D02*
X29531016Y-22220478D01*
X29838607Y-22528069D02*
X29191605Y-23175072D01*
X29188069Y-23178607D02*
X28884013Y-22874551D01*
D12*
%TO.C,U8*%
X27150000Y-34702500D02*
X27150000Y-32902500D01*
X27150000Y-34702500D02*
X27150000Y-35502500D01*
X24030000Y-34702500D02*
X24030000Y-33902500D01*
X24030000Y-34702500D02*
X24030000Y-35502500D01*
D11*
%TO.C,C27*%
X28577500Y-16250000D02*
X28577500Y-15820000D01*
X29497500Y-16250000D02*
X28582500Y-16250000D01*
X29497500Y-16245000D02*
X29497500Y-15815000D01*
X28580000Y-14280000D02*
X28580000Y-14710000D01*
X28580000Y-14275000D02*
X29495000Y-14275000D01*
X29500000Y-14275000D02*
X29500000Y-14705000D01*
%TO.C,C34*%
X24590000Y-37752500D02*
X24160000Y-37752500D01*
X24590000Y-36832500D02*
X24590000Y-37747500D01*
X24585000Y-36832500D02*
X24155000Y-36832500D01*
X22620000Y-37750000D02*
X23050000Y-37750000D01*
X22615000Y-37750000D02*
X22615000Y-36835000D01*
X22615000Y-36830000D02*
X23045000Y-36830000D01*
%TO.C,C39*%
X22550000Y-40202500D02*
X22120000Y-40202500D01*
X22550000Y-39282500D02*
X22550000Y-40197500D01*
X22545000Y-39282500D02*
X22115000Y-39282500D01*
X20580000Y-40200000D02*
X21010000Y-40200000D01*
X20575000Y-40200000D02*
X20575000Y-39285000D01*
X20575000Y-39280000D02*
X21005000Y-39280000D01*
D12*
%TO.C,J4*%
X29530000Y-18380000D02*
G75*
G03*
X29530000Y-18380000I-381000J0D01*
G01*
%TD*%
M02*
