G04 #@! TF.GenerationSoftware,KiCad,Pcbnew,(6.0.11-0)*
G04 #@! TF.CreationDate,2023-03-08T20:48:50+08:00*
G04 #@! TF.ProjectId,slimarm_classic_2410,736c696d-6172-46d5-9f63-6c6173736963,rev?*
G04 #@! TF.SameCoordinates,Original*
G04 #@! TF.FileFunction,Paste,Bot*
G04 #@! TF.FilePolarity,Positive*
%FSLAX46Y46*%
G04 Gerber Fmt 4.6, Leading zero omitted, Abs format (unit mm)*
G04 Created by KiCad (PCBNEW (6.0.11-0)) date 2023-03-08 20:48:50*
%MOMM*%
%LPD*%
G01*
G04 APERTURE LIST*
%ADD10R,0.711200X3.000000*%
%ADD11R,1.600200X2.209800*%
%ADD12R,0.254000X2.182700*%
G04 APERTURE END LIST*
D10*
G04 #@! TO.C,J3*
X23350000Y-18950000D03*
X22100000Y-18950000D03*
X20850000Y-18950000D03*
X19600000Y-18950000D03*
X18350000Y-18950000D03*
X17100000Y-18950000D03*
X15850000Y-18950000D03*
D11*
X13602900Y-15648000D03*
X25597100Y-15648000D03*
G04 #@! TD*
D10*
G04 #@! TO.C,J2*
X16000000Y-36070500D03*
X17250000Y-36070500D03*
X18500000Y-36070500D03*
X19750000Y-36070500D03*
X21000000Y-36070500D03*
X22250000Y-36070500D03*
X23500000Y-36070500D03*
D11*
X25747100Y-39372500D03*
X13752900Y-39372500D03*
G04 #@! TD*
D12*
G04 #@! TO.C,U5*
X59282198Y-37285350D03*
X58782199Y-37285350D03*
X58282200Y-37285350D03*
X57782198Y-37285350D03*
X57282199Y-37285350D03*
X56782200Y-37285350D03*
X56282199Y-37285350D03*
X55782200Y-37285350D03*
X55282198Y-37285350D03*
X54782199Y-37285350D03*
X54282200Y-37285350D03*
X53782199Y-37285350D03*
X53282199Y-37285350D03*
X52782198Y-37285350D03*
X52282199Y-37285350D03*
X51782200Y-37285350D03*
X51282198Y-37285350D03*
X50782199Y-37285350D03*
X50282198Y-37285350D03*
X49782199Y-37285350D03*
X49282200Y-37285350D03*
X48782198Y-37285350D03*
X48282199Y-37285350D03*
X47782198Y-37285350D03*
X47782200Y-17613050D03*
X48282199Y-17613050D03*
X48782198Y-17613050D03*
X49282200Y-17613050D03*
X49782199Y-17613050D03*
X50282200Y-17613050D03*
X50782199Y-17613050D03*
X51282198Y-17613050D03*
X51782200Y-17613050D03*
X52282199Y-17613050D03*
X52782201Y-17613050D03*
X53282199Y-17613050D03*
X53782199Y-17613050D03*
X54282200Y-17613050D03*
X54782199Y-17613050D03*
X55282198Y-17613050D03*
X55782200Y-17613050D03*
X56282199Y-17613050D03*
X56782200Y-17613050D03*
X57282199Y-17613050D03*
X57782198Y-17613050D03*
X58282200Y-17613050D03*
X58782199Y-17613050D03*
X59282200Y-17613050D03*
G04 #@! TD*
M02*
