G04 #@! TF.GenerationSoftware,KiCad,Pcbnew,(6.0.11-0)*
G04 #@! TF.CreationDate,2023-03-08T20:48:50+08:00*
G04 #@! TF.ProjectId,slimarm_classic_2410,736c696d-6172-46d5-9f63-6c6173736963,rev?*
G04 #@! TF.SameCoordinates,Original*
G04 #@! TF.FileFunction,Legend,Top*
G04 #@! TF.FilePolarity,Positive*
%FSLAX46Y46*%
G04 Gerber Fmt 4.6, Leading zero omitted, Abs format (unit mm)*
G04 Created by KiCad (PCBNEW (6.0.11-0)) date 2023-03-08 20:48:50*
%MOMM*%
%LPD*%
G01*
G04 APERTURE LIST*
G04 Aperture macros list*
%AMRoundRect*
0 Rectangle with rounded corners*
0 $1 Rounding radius*
0 $2 $3 $4 $5 $6 $7 $8 $9 X,Y pos of 4 corners*
0 Add a 4 corners polygon primitive as box body*
4,1,4,$2,$3,$4,$5,$6,$7,$8,$9,$2,$3,0*
0 Add four circle primitives for the rounded corners*
1,1,$1+$1,$2,$3*
1,1,$1+$1,$4,$5*
1,1,$1+$1,$6,$7*
1,1,$1+$1,$8,$9*
0 Add four rect primitives between the rounded corners*
20,1,$1+$1,$2,$3,$4,$5,0*
20,1,$1+$1,$4,$5,$6,$7,0*
20,1,$1+$1,$6,$7,$8,$9,0*
20,1,$1+$1,$8,$9,$2,$3,0*%
G04 Aperture macros list end*
%ADD10C,0.150000*%
%ADD11C,0.127000*%
%ADD12C,0.200000*%
%ADD13C,0.114300*%
%ADD14C,0.120000*%
%ADD15C,0.100000*%
%ADD16RoundRect,0.150000X-0.739000X-0.150000X0.739000X-0.150000X0.739000X0.150000X-0.739000X0.150000X0*%
%ADD17RoundRect,0.155000X-0.155000X0.212500X-0.155000X-0.212500X0.155000X-0.212500X0.155000X0.212500X0*%
%ADD18RoundRect,0.155000X0.155000X-0.212500X0.155000X0.212500X-0.155000X0.212500X-0.155000X-0.212500X0*%
%ADD19RoundRect,0.155000X-0.212500X-0.155000X0.212500X-0.155000X0.212500X0.155000X-0.212500X0.155000X0*%
%ADD20C,0.410000*%
%ADD21C,0.650000*%
%ADD22R,2.000000X0.600000*%
%ADD23R,2.000000X0.300000*%
%ADD24R,1.450000X0.600000*%
%ADD25O,1.600000X1.000000*%
%ADD26O,2.100000X1.000000*%
%ADD27RoundRect,0.237500X-0.237500X0.287500X-0.237500X-0.287500X0.237500X-0.287500X0.237500X0.287500X0*%
%ADD28RoundRect,0.237500X0.250000X0.237500X-0.250000X0.237500X-0.250000X-0.237500X0.250000X-0.237500X0*%
%ADD29RoundRect,0.237500X-0.250000X-0.237500X0.250000X-0.237500X0.250000X0.237500X-0.250000X0.237500X0*%
%ADD30RoundRect,0.237500X0.237500X-0.250000X0.237500X0.250000X-0.237500X0.250000X-0.237500X-0.250000X0*%
%ADD31R,1.693800X0.508000*%
%ADD32RoundRect,0.155000X0.212500X0.155000X-0.212500X0.155000X-0.212500X-0.155000X0.212500X-0.155000X0*%
%ADD33RoundRect,0.237500X-0.237500X0.250000X-0.237500X-0.250000X0.237500X-0.250000X0.237500X0.250000X0*%
%ADD34R,2.000000X2.400000*%
G04 APERTURE END LIST*
D10*
X15907619Y-25785595D02*
X15098095Y-25785595D01*
X15002857Y-25833214D01*
X14955238Y-25880833D01*
X14907619Y-25976071D01*
X14907619Y-26166547D01*
X14955238Y-26261785D01*
X15002857Y-26309404D01*
X15098095Y-26357023D01*
X15907619Y-26357023D01*
X14955238Y-26785595D02*
X14907619Y-26928452D01*
X14907619Y-27166547D01*
X14955238Y-27261785D01*
X15002857Y-27309404D01*
X15098095Y-27357023D01*
X15193333Y-27357023D01*
X15288571Y-27309404D01*
X15336190Y-27261785D01*
X15383809Y-27166547D01*
X15431428Y-26976071D01*
X15479047Y-26880833D01*
X15526666Y-26833214D01*
X15621904Y-26785595D01*
X15717142Y-26785595D01*
X15812380Y-26833214D01*
X15860000Y-26880833D01*
X15907619Y-26976071D01*
X15907619Y-27214166D01*
X15860000Y-27357023D01*
X15431428Y-28118928D02*
X15383809Y-28261785D01*
X15336190Y-28309404D01*
X15240952Y-28357023D01*
X15098095Y-28357023D01*
X15002857Y-28309404D01*
X14955238Y-28261785D01*
X14907619Y-28166547D01*
X14907619Y-27785595D01*
X15907619Y-27785595D01*
X15907619Y-28118928D01*
X15860000Y-28214166D01*
X15812380Y-28261785D01*
X15717142Y-28309404D01*
X15621904Y-28309404D01*
X15526666Y-28261785D01*
X15479047Y-28214166D01*
X15431428Y-28118928D01*
X15431428Y-27785595D01*
X14907619Y-28785595D02*
X15907619Y-28785595D01*
X15907619Y-29023690D01*
X15860000Y-29166547D01*
X15764761Y-29261785D01*
X15669523Y-29309404D01*
X15479047Y-29357023D01*
X15336190Y-29357023D01*
X15145714Y-29309404D01*
X15050476Y-29261785D01*
X14955238Y-29166547D01*
X14907619Y-29023690D01*
X14907619Y-28785595D01*
X51037976Y-17804761D02*
X51180833Y-17852380D01*
X51418928Y-17852380D01*
X51514166Y-17804761D01*
X51561785Y-17757142D01*
X51609404Y-17661904D01*
X51609404Y-17566666D01*
X51561785Y-17471428D01*
X51514166Y-17423809D01*
X51418928Y-17376190D01*
X51228452Y-17328571D01*
X51133214Y-17280952D01*
X51085595Y-17233333D01*
X51037976Y-17138095D01*
X51037976Y-17042857D01*
X51085595Y-16947619D01*
X51133214Y-16900000D01*
X51228452Y-16852380D01*
X51466547Y-16852380D01*
X51609404Y-16900000D01*
X52037976Y-17852380D02*
X52037976Y-16852380D01*
X52276071Y-16852380D01*
X52418928Y-16900000D01*
X52514166Y-16995238D01*
X52561785Y-17090476D01*
X52609404Y-17280952D01*
X52609404Y-17423809D01*
X52561785Y-17614285D01*
X52514166Y-17709523D01*
X52418928Y-17804761D01*
X52276071Y-17852380D01*
X52037976Y-17852380D01*
X53609404Y-17852380D02*
X53276071Y-17376190D01*
X53037976Y-17852380D02*
X53037976Y-16852380D01*
X53418928Y-16852380D01*
X53514166Y-16900000D01*
X53561785Y-16947619D01*
X53609404Y-17042857D01*
X53609404Y-17185714D01*
X53561785Y-17280952D01*
X53514166Y-17328571D01*
X53418928Y-17376190D01*
X53037976Y-17376190D01*
X53990357Y-17566666D02*
X54466547Y-17566666D01*
X53895119Y-17852380D02*
X54228452Y-16852380D01*
X54561785Y-17852380D01*
X54895119Y-17852380D02*
X54895119Y-16852380D01*
X55228452Y-17566666D01*
X55561785Y-16852380D01*
X55561785Y-17852380D01*
D11*
X17941407Y-18692714D02*
X18413121Y-18692714D01*
X18159121Y-18983000D01*
X18267978Y-18983000D01*
X18340550Y-19019285D01*
X18376835Y-19055571D01*
X18413121Y-19128142D01*
X18413121Y-19309571D01*
X18376835Y-19382142D01*
X18340550Y-19418428D01*
X18267978Y-19454714D01*
X18050264Y-19454714D01*
X17977692Y-19418428D01*
X17941407Y-19382142D01*
X18667121Y-18946714D02*
X18848550Y-19454714D01*
X19029978Y-18946714D01*
X19247692Y-18692714D02*
X19719407Y-18692714D01*
X19465407Y-18983000D01*
X19574264Y-18983000D01*
X19646835Y-19019285D01*
X19683121Y-19055571D01*
X19719407Y-19128142D01*
X19719407Y-19309571D01*
X19683121Y-19382142D01*
X19646835Y-19418428D01*
X19574264Y-19454714D01*
X19356550Y-19454714D01*
X19283978Y-19418428D01*
X19247692Y-19382142D01*
D12*
X55538095Y-34489047D02*
X56466666Y-34489047D01*
X56652380Y-34550952D01*
X56776190Y-34674761D01*
X56838095Y-34860476D01*
X56838095Y-34984285D01*
X56838095Y-33250952D02*
X56838095Y-33870000D01*
X55538095Y-33870000D01*
X56714285Y-32074761D02*
X56776190Y-32136666D01*
X56838095Y-32322380D01*
X56838095Y-32446190D01*
X56776190Y-32631904D01*
X56652380Y-32755714D01*
X56528571Y-32817619D01*
X56280952Y-32879523D01*
X56095238Y-32879523D01*
X55847619Y-32817619D01*
X55723809Y-32755714D01*
X55600000Y-32631904D01*
X55538095Y-32446190D01*
X55538095Y-32322380D01*
X55600000Y-32136666D01*
X55661904Y-32074761D01*
X55538095Y-31146190D02*
X56466666Y-31146190D01*
X56652380Y-31208095D01*
X56776190Y-31331904D01*
X56838095Y-31517619D01*
X56838095Y-31641428D01*
X56838095Y-29908095D02*
X56838095Y-30527142D01*
X55538095Y-30527142D01*
X56714285Y-28731904D02*
X56776190Y-28793809D01*
X56838095Y-28979523D01*
X56838095Y-29103333D01*
X56776190Y-29289047D01*
X56652380Y-29412857D01*
X56528571Y-29474761D01*
X56280952Y-29536666D01*
X56095238Y-29536666D01*
X55847619Y-29474761D01*
X55723809Y-29412857D01*
X55600000Y-29289047D01*
X55538095Y-29103333D01*
X55538095Y-28979523D01*
X55600000Y-28793809D01*
X55661904Y-28731904D01*
X55538095Y-27803333D02*
X56466666Y-27803333D01*
X56652380Y-27865238D01*
X56776190Y-27989047D01*
X56838095Y-28174761D01*
X56838095Y-28298571D01*
X56838095Y-26565238D02*
X56838095Y-27184285D01*
X55538095Y-27184285D01*
X56714285Y-25389047D02*
X56776190Y-25450952D01*
X56838095Y-25636666D01*
X56838095Y-25760476D01*
X56776190Y-25946190D01*
X56652380Y-26070000D01*
X56528571Y-26131904D01*
X56280952Y-26193809D01*
X56095238Y-26193809D01*
X55847619Y-26131904D01*
X55723809Y-26070000D01*
X55600000Y-25946190D01*
X55538095Y-25760476D01*
X55538095Y-25636666D01*
X55600000Y-25450952D01*
X55661904Y-25389047D01*
X55538095Y-24460476D02*
X56466666Y-24460476D01*
X56652380Y-24522380D01*
X56776190Y-24646190D01*
X56838095Y-24831904D01*
X56838095Y-24955714D01*
X56838095Y-23222380D02*
X56838095Y-23841428D01*
X55538095Y-23841428D01*
X56714285Y-22046190D02*
X56776190Y-22108095D01*
X56838095Y-22293809D01*
X56838095Y-22417619D01*
X56776190Y-22603333D01*
X56652380Y-22727142D01*
X56528571Y-22789047D01*
X56280952Y-22850952D01*
X56095238Y-22850952D01*
X55847619Y-22789047D01*
X55723809Y-22727142D01*
X55600000Y-22603333D01*
X55538095Y-22417619D01*
X55538095Y-22293809D01*
X55600000Y-22108095D01*
X55661904Y-22046190D01*
D13*
X24797323Y-39568352D02*
X24923114Y-39568352D01*
X24986009Y-39599800D01*
X25048904Y-39662695D01*
X25080352Y-39788485D01*
X25080352Y-40008619D01*
X25048904Y-40134409D01*
X24986009Y-40197304D01*
X24923114Y-40228752D01*
X24797323Y-40228752D01*
X24734428Y-40197304D01*
X24671533Y-40134409D01*
X24640085Y-40008619D01*
X24640085Y-39788485D01*
X24671533Y-39662695D01*
X24734428Y-39599800D01*
X24797323Y-39568352D01*
X25363380Y-40228752D02*
X25363380Y-39568352D01*
X25583514Y-40040066D01*
X25803647Y-39568352D01*
X25803647Y-40228752D01*
X26243914Y-39568352D02*
X26306809Y-39568352D01*
X26369704Y-39599800D01*
X26401152Y-39631247D01*
X26432599Y-39694142D01*
X26464047Y-39819933D01*
X26464047Y-39977171D01*
X26432599Y-40102961D01*
X26401152Y-40165857D01*
X26369704Y-40197304D01*
X26306809Y-40228752D01*
X26243914Y-40228752D01*
X26181018Y-40197304D01*
X26149571Y-40165857D01*
X26118123Y-40102961D01*
X26086675Y-39977171D01*
X26086675Y-39819933D01*
X26118123Y-39694142D01*
X26149571Y-39631247D01*
X26181018Y-39599800D01*
X26243914Y-39568352D01*
X26747075Y-39977171D02*
X27250237Y-39977171D01*
X27564714Y-40228752D02*
X27564714Y-39568352D01*
X27564714Y-39882828D02*
X27942085Y-39882828D01*
X27942085Y-40228752D02*
X27942085Y-39568352D01*
X28728275Y-39536904D02*
X28162218Y-40385990D01*
X29262885Y-40228752D02*
X28948409Y-40228752D01*
X28948409Y-39568352D01*
D11*
X18363121Y-15494714D02*
X17927692Y-15494714D01*
X18145407Y-15494714D02*
X18145407Y-14732714D01*
X18072835Y-14841571D01*
X18000264Y-14914142D01*
X17927692Y-14950428D01*
X18617121Y-14986714D02*
X18798550Y-15494714D01*
X18979978Y-14986714D01*
X19379121Y-15059285D02*
X19306550Y-15023000D01*
X19270264Y-14986714D01*
X19233978Y-14914142D01*
X19233978Y-14877857D01*
X19270264Y-14805285D01*
X19306550Y-14769000D01*
X19379121Y-14732714D01*
X19524264Y-14732714D01*
X19596835Y-14769000D01*
X19633121Y-14805285D01*
X19669407Y-14877857D01*
X19669407Y-14914142D01*
X19633121Y-14986714D01*
X19596835Y-15023000D01*
X19524264Y-15059285D01*
X19379121Y-15059285D01*
X19306550Y-15095571D01*
X19270264Y-15131857D01*
X19233978Y-15204428D01*
X19233978Y-15349571D01*
X19270264Y-15422142D01*
X19306550Y-15458428D01*
X19379121Y-15494714D01*
X19524264Y-15494714D01*
X19596835Y-15458428D01*
X19633121Y-15422142D01*
X19669407Y-15349571D01*
X19669407Y-15204428D01*
X19633121Y-15131857D01*
X19596835Y-15095571D01*
X19524264Y-15059285D01*
D13*
X17180085Y-40060066D02*
X17494561Y-40060066D01*
X17117190Y-40248752D02*
X17337323Y-39588352D01*
X17557456Y-40248752D01*
X18154961Y-40185857D02*
X18123514Y-40217304D01*
X18029171Y-40248752D01*
X17966275Y-40248752D01*
X17871933Y-40217304D01*
X17809037Y-40154409D01*
X17777590Y-40091514D01*
X17746142Y-39965723D01*
X17746142Y-39871380D01*
X17777590Y-39745590D01*
X17809037Y-39682695D01*
X17871933Y-39619800D01*
X17966275Y-39588352D01*
X18029171Y-39588352D01*
X18123514Y-39619800D01*
X18154961Y-39651247D01*
X18343647Y-39588352D02*
X18721018Y-39588352D01*
X18532333Y-40248752D02*
X18532333Y-39588352D01*
X19947190Y-39558352D02*
X20324561Y-39558352D01*
X20135875Y-40218752D02*
X20135875Y-39558352D01*
X20544695Y-39872828D02*
X20764828Y-39872828D01*
X20859171Y-40218752D02*
X20544695Y-40218752D01*
X20544695Y-39558352D01*
X20859171Y-39558352D01*
X21110752Y-40187304D02*
X21205095Y-40218752D01*
X21362333Y-40218752D01*
X21425228Y-40187304D01*
X21456675Y-40155857D01*
X21488123Y-40092961D01*
X21488123Y-40030066D01*
X21456675Y-39967171D01*
X21425228Y-39935723D01*
X21362333Y-39904276D01*
X21236542Y-39872828D01*
X21173647Y-39841380D01*
X21142199Y-39809933D01*
X21110752Y-39747038D01*
X21110752Y-39684142D01*
X21142199Y-39621247D01*
X21173647Y-39589800D01*
X21236542Y-39558352D01*
X21393780Y-39558352D01*
X21488123Y-39589800D01*
X21676809Y-39558352D02*
X22054180Y-39558352D01*
X21865495Y-40218752D02*
X21865495Y-39558352D01*
D10*
X50494761Y-35612023D02*
X50542380Y-35469166D01*
X50542380Y-35231071D01*
X50494761Y-35135833D01*
X50447142Y-35088214D01*
X50351904Y-35040595D01*
X50256666Y-35040595D01*
X50161428Y-35088214D01*
X50113809Y-35135833D01*
X50066190Y-35231071D01*
X50018571Y-35421547D01*
X49970952Y-35516785D01*
X49923333Y-35564404D01*
X49828095Y-35612023D01*
X49732857Y-35612023D01*
X49637619Y-35564404D01*
X49590000Y-35516785D01*
X49542380Y-35421547D01*
X49542380Y-35183452D01*
X49590000Y-35040595D01*
X50542380Y-34469166D02*
X50494761Y-34564404D01*
X50399523Y-34612023D01*
X49542380Y-34612023D01*
X50542380Y-34088214D02*
X49875714Y-34088214D01*
X49542380Y-34088214D02*
X49590000Y-34135833D01*
X49637619Y-34088214D01*
X49590000Y-34040595D01*
X49542380Y-34088214D01*
X49637619Y-34088214D01*
X50542380Y-33612023D02*
X49875714Y-33612023D01*
X49970952Y-33612023D02*
X49923333Y-33564404D01*
X49875714Y-33469166D01*
X49875714Y-33326309D01*
X49923333Y-33231071D01*
X50018571Y-33183452D01*
X50542380Y-33183452D01*
X50018571Y-33183452D02*
X49923333Y-33135833D01*
X49875714Y-33040595D01*
X49875714Y-32897738D01*
X49923333Y-32802500D01*
X50018571Y-32754880D01*
X50542380Y-32754880D01*
X50256666Y-32326309D02*
X50256666Y-31850119D01*
X50542380Y-32421547D02*
X49542380Y-32088214D01*
X50542380Y-31754880D01*
X50542380Y-30850119D02*
X50066190Y-31183452D01*
X50542380Y-31421547D02*
X49542380Y-31421547D01*
X49542380Y-31040595D01*
X49590000Y-30945357D01*
X49637619Y-30897738D01*
X49732857Y-30850119D01*
X49875714Y-30850119D01*
X49970952Y-30897738D01*
X50018571Y-30945357D01*
X50066190Y-31040595D01*
X50066190Y-31421547D01*
X50542380Y-30421547D02*
X49542380Y-30421547D01*
X50256666Y-30088214D01*
X49542380Y-29754880D01*
X50542380Y-29754880D01*
X50447142Y-27945357D02*
X50494761Y-27992976D01*
X50542380Y-28135833D01*
X50542380Y-28231071D01*
X50494761Y-28373928D01*
X50399523Y-28469166D01*
X50304285Y-28516785D01*
X50113809Y-28564404D01*
X49970952Y-28564404D01*
X49780476Y-28516785D01*
X49685238Y-28469166D01*
X49590000Y-28373928D01*
X49542380Y-28231071D01*
X49542380Y-28135833D01*
X49590000Y-27992976D01*
X49637619Y-27945357D01*
X50542380Y-27373928D02*
X50494761Y-27469166D01*
X50399523Y-27516785D01*
X49542380Y-27516785D01*
X50542380Y-26564404D02*
X50018571Y-26564404D01*
X49923333Y-26612023D01*
X49875714Y-26707261D01*
X49875714Y-26897738D01*
X49923333Y-26992976D01*
X50494761Y-26564404D02*
X50542380Y-26659642D01*
X50542380Y-26897738D01*
X50494761Y-26992976D01*
X50399523Y-27040595D01*
X50304285Y-27040595D01*
X50209047Y-26992976D01*
X50161428Y-26897738D01*
X50161428Y-26659642D01*
X50113809Y-26564404D01*
X50494761Y-26135833D02*
X50542380Y-26040595D01*
X50542380Y-25850119D01*
X50494761Y-25754880D01*
X50399523Y-25707261D01*
X50351904Y-25707261D01*
X50256666Y-25754880D01*
X50209047Y-25850119D01*
X50209047Y-25992976D01*
X50161428Y-26088214D01*
X50066190Y-26135833D01*
X50018571Y-26135833D01*
X49923333Y-26088214D01*
X49875714Y-25992976D01*
X49875714Y-25850119D01*
X49923333Y-25754880D01*
X50494761Y-25326309D02*
X50542380Y-25231071D01*
X50542380Y-25040595D01*
X50494761Y-24945357D01*
X50399523Y-24897738D01*
X50351904Y-24897738D01*
X50256666Y-24945357D01*
X50209047Y-25040595D01*
X50209047Y-25183452D01*
X50161428Y-25278690D01*
X50066190Y-25326309D01*
X50018571Y-25326309D01*
X49923333Y-25278690D01*
X49875714Y-25183452D01*
X49875714Y-25040595D01*
X49923333Y-24945357D01*
X50542380Y-24469166D02*
X49875714Y-24469166D01*
X49542380Y-24469166D02*
X49590000Y-24516785D01*
X49637619Y-24469166D01*
X49590000Y-24421547D01*
X49542380Y-24469166D01*
X49637619Y-24469166D01*
X50494761Y-23564404D02*
X50542380Y-23659642D01*
X50542380Y-23850119D01*
X50494761Y-23945357D01*
X50447142Y-23992976D01*
X50351904Y-24040595D01*
X50066190Y-24040595D01*
X49970952Y-23992976D01*
X49923333Y-23945357D01*
X49875714Y-23850119D01*
X49875714Y-23659642D01*
X49923333Y-23564404D01*
X52104761Y-35612023D02*
X52152380Y-35516785D01*
X52152380Y-35326309D01*
X52104761Y-35231071D01*
X52009523Y-35183452D01*
X51961904Y-35183452D01*
X51866666Y-35231071D01*
X51819047Y-35326309D01*
X51819047Y-35469166D01*
X51771428Y-35564404D01*
X51676190Y-35612023D01*
X51628571Y-35612023D01*
X51533333Y-35564404D01*
X51485714Y-35469166D01*
X51485714Y-35326309D01*
X51533333Y-35231071D01*
X52152380Y-34612023D02*
X52104761Y-34707261D01*
X52009523Y-34754880D01*
X51152380Y-34754880D01*
X52152380Y-33802500D02*
X51628571Y-33802500D01*
X51533333Y-33850119D01*
X51485714Y-33945357D01*
X51485714Y-34135833D01*
X51533333Y-34231071D01*
X52104761Y-33802500D02*
X52152380Y-33897738D01*
X52152380Y-34135833D01*
X52104761Y-34231071D01*
X52009523Y-34278690D01*
X51914285Y-34278690D01*
X51819047Y-34231071D01*
X51771428Y-34135833D01*
X51771428Y-33897738D01*
X51723809Y-33802500D01*
X52152380Y-33326309D02*
X51485714Y-33326309D01*
X51676190Y-33326309D02*
X51580952Y-33278690D01*
X51533333Y-33231071D01*
X51485714Y-33135833D01*
X51485714Y-33040595D01*
X52152380Y-32707261D02*
X51485714Y-32707261D01*
X51580952Y-32707261D02*
X51533333Y-32659642D01*
X51485714Y-32564404D01*
X51485714Y-32421547D01*
X51533333Y-32326309D01*
X51628571Y-32278690D01*
X52152380Y-32278690D01*
X51628571Y-32278690D02*
X51533333Y-32231071D01*
X51485714Y-32135833D01*
X51485714Y-31992976D01*
X51533333Y-31897738D01*
X51628571Y-31850119D01*
X52152380Y-31850119D01*
X52247619Y-31612023D02*
X52247619Y-30850119D01*
X52104761Y-30183452D02*
X52152380Y-30278690D01*
X52152380Y-30469166D01*
X52104761Y-30564404D01*
X52057142Y-30612023D01*
X51961904Y-30659642D01*
X51676190Y-30659642D01*
X51580952Y-30612023D01*
X51533333Y-30564404D01*
X51485714Y-30469166D01*
X51485714Y-30278690D01*
X51533333Y-30183452D01*
X52152380Y-29612023D02*
X52104761Y-29707261D01*
X52009523Y-29754880D01*
X51152380Y-29754880D01*
X52104761Y-29278690D02*
X52152380Y-29183452D01*
X52152380Y-28992976D01*
X52104761Y-28897738D01*
X52009523Y-28850119D01*
X51961904Y-28850119D01*
X51866666Y-28897738D01*
X51819047Y-28992976D01*
X51819047Y-29135833D01*
X51771428Y-29231071D01*
X51676190Y-29278690D01*
X51628571Y-29278690D01*
X51533333Y-29231071D01*
X51485714Y-29135833D01*
X51485714Y-28992976D01*
X51533333Y-28897738D01*
X52247619Y-28659642D02*
X52247619Y-27897738D01*
X51247619Y-27707261D02*
X51200000Y-27659642D01*
X51152380Y-27564404D01*
X51152380Y-27326309D01*
X51200000Y-27231071D01*
X51247619Y-27183452D01*
X51342857Y-27135833D01*
X51438095Y-27135833D01*
X51580952Y-27183452D01*
X52152380Y-27754880D01*
X52152380Y-27135833D01*
X51485714Y-26278690D02*
X52152380Y-26278690D01*
X51104761Y-26516785D02*
X51819047Y-26754880D01*
X51819047Y-26135833D01*
X52152380Y-25231071D02*
X52152380Y-25802500D01*
X52152380Y-25516785D02*
X51152380Y-25516785D01*
X51295238Y-25612023D01*
X51390476Y-25707261D01*
X51438095Y-25802500D01*
X51152380Y-24612023D02*
X51152380Y-24516785D01*
X51200000Y-24421547D01*
X51247619Y-24373928D01*
X51342857Y-24326309D01*
X51533333Y-24278690D01*
X51771428Y-24278690D01*
X51961904Y-24326309D01*
X52057142Y-24373928D01*
X52104761Y-24421547D01*
X52152380Y-24516785D01*
X52152380Y-24612023D01*
X52104761Y-24707261D01*
X52057142Y-24754880D01*
X51961904Y-24802500D01*
X51771428Y-24850119D01*
X51533333Y-24850119D01*
X51342857Y-24802500D01*
X51247619Y-24754880D01*
X51200000Y-24707261D01*
X51152380Y-24612023D01*
X52247619Y-24088214D02*
X52247619Y-23326309D01*
X51485714Y-23183452D02*
X52152380Y-22945357D01*
X51485714Y-22707261D01*
X52152380Y-21802500D02*
X52152380Y-22373928D01*
X52152380Y-22088214D02*
X51152380Y-22088214D01*
X51295238Y-22183452D01*
X51390476Y-22278690D01*
X51438095Y-22373928D01*
X52152380Y-21373928D02*
X51485714Y-21373928D01*
X51676190Y-21373928D02*
X51580952Y-21326309D01*
X51533333Y-21278690D01*
X51485714Y-21183452D01*
X51485714Y-21088214D01*
X51247619Y-20802500D02*
X51200000Y-20754880D01*
X51152380Y-20659642D01*
X51152380Y-20421547D01*
X51200000Y-20326309D01*
X51247619Y-20278690D01*
X51342857Y-20231071D01*
X51438095Y-20231071D01*
X51580952Y-20278690D01*
X52152380Y-20850119D01*
X52152380Y-20231071D01*
X52857619Y-35612023D02*
X52810000Y-35564404D01*
X52762380Y-35469166D01*
X52762380Y-35231071D01*
X52810000Y-35135833D01*
X52857619Y-35088214D01*
X52952857Y-35040595D01*
X53048095Y-35040595D01*
X53190952Y-35088214D01*
X53762380Y-35659642D01*
X53762380Y-35040595D01*
X52762380Y-34421547D02*
X52762380Y-34326309D01*
X52810000Y-34231071D01*
X52857619Y-34183452D01*
X52952857Y-34135833D01*
X53143333Y-34088214D01*
X53381428Y-34088214D01*
X53571904Y-34135833D01*
X53667142Y-34183452D01*
X53714761Y-34231071D01*
X53762380Y-34326309D01*
X53762380Y-34421547D01*
X53714761Y-34516785D01*
X53667142Y-34564404D01*
X53571904Y-34612023D01*
X53381428Y-34659642D01*
X53143333Y-34659642D01*
X52952857Y-34612023D01*
X52857619Y-34564404D01*
X52810000Y-34516785D01*
X52762380Y-34421547D01*
X52857619Y-33707261D02*
X52810000Y-33659642D01*
X52762380Y-33564404D01*
X52762380Y-33326309D01*
X52810000Y-33231071D01*
X52857619Y-33183452D01*
X52952857Y-33135833D01*
X53048095Y-33135833D01*
X53190952Y-33183452D01*
X53762380Y-33754880D01*
X53762380Y-33135833D01*
X52762380Y-32802500D02*
X52762380Y-32183452D01*
X53143333Y-32516785D01*
X53143333Y-32373928D01*
X53190952Y-32278690D01*
X53238571Y-32231071D01*
X53333809Y-32183452D01*
X53571904Y-32183452D01*
X53667142Y-32231071D01*
X53714761Y-32278690D01*
X53762380Y-32373928D01*
X53762380Y-32659642D01*
X53714761Y-32754880D01*
X53667142Y-32802500D01*
X53667142Y-31754880D02*
X53714761Y-31707261D01*
X53762380Y-31754880D01*
X53714761Y-31802500D01*
X53667142Y-31754880D01*
X53762380Y-31754880D01*
X52762380Y-31373928D02*
X52762380Y-30754880D01*
X53143333Y-31088214D01*
X53143333Y-30945357D01*
X53190952Y-30850119D01*
X53238571Y-30802500D01*
X53333809Y-30754880D01*
X53571904Y-30754880D01*
X53667142Y-30802500D01*
X53714761Y-30850119D01*
X53762380Y-30945357D01*
X53762380Y-31231071D01*
X53714761Y-31326309D01*
X53667142Y-31373928D01*
X53667142Y-30326309D02*
X53714761Y-30278690D01*
X53762380Y-30326309D01*
X53714761Y-30373928D01*
X53667142Y-30326309D01*
X53762380Y-30326309D01*
X53190952Y-29707261D02*
X53143333Y-29802500D01*
X53095714Y-29850119D01*
X53000476Y-29897738D01*
X52952857Y-29897738D01*
X52857619Y-29850119D01*
X52810000Y-29802500D01*
X52762380Y-29707261D01*
X52762380Y-29516785D01*
X52810000Y-29421547D01*
X52857619Y-29373928D01*
X52952857Y-29326309D01*
X53000476Y-29326309D01*
X53095714Y-29373928D01*
X53143333Y-29421547D01*
X53190952Y-29516785D01*
X53190952Y-29707261D01*
X53238571Y-29802500D01*
X53286190Y-29850119D01*
X53381428Y-29897738D01*
X53571904Y-29897738D01*
X53667142Y-29850119D01*
X53714761Y-29802500D01*
X53762380Y-29707261D01*
X53762380Y-29516785D01*
X53714761Y-29421547D01*
X53667142Y-29373928D01*
X53571904Y-29326309D01*
X53381428Y-29326309D01*
X53286190Y-29373928D01*
X53238571Y-29421547D01*
X53190952Y-29516785D01*
X53095714Y-28135833D02*
X53952857Y-28135833D01*
X54048095Y-28183452D01*
X54095714Y-28278690D01*
X54095714Y-28326309D01*
X52762380Y-28135833D02*
X52810000Y-28183452D01*
X52857619Y-28135833D01*
X52810000Y-28088214D01*
X52762380Y-28135833D01*
X52857619Y-28135833D01*
X53762380Y-27516785D02*
X53714761Y-27612023D01*
X53619523Y-27659642D01*
X52762380Y-27659642D01*
X53095714Y-27231071D02*
X53762380Y-26992976D01*
X53095714Y-26754880D02*
X53762380Y-26992976D01*
X54000476Y-27088214D01*
X54048095Y-27135833D01*
X54095714Y-27231071D01*
X53095714Y-26469166D02*
X53762380Y-26278690D01*
X53286190Y-26088214D01*
X53762380Y-25897738D01*
X53095714Y-25707261D01*
X53762380Y-25421547D02*
X53095714Y-24897738D01*
X53095714Y-25421547D02*
X53762380Y-24897738D01*
X53095714Y-24612023D02*
X53762380Y-24373928D01*
X53095714Y-24135833D02*
X53762380Y-24373928D01*
X54000476Y-24469166D01*
X54048095Y-24516785D01*
X54095714Y-24612023D01*
D13*
X13951533Y-39942828D02*
X14171666Y-39942828D01*
X14266009Y-40288752D02*
X13951533Y-40288752D01*
X13951533Y-39628352D01*
X14266009Y-39628352D01*
X14926409Y-40288752D02*
X14706275Y-39974276D01*
X14549037Y-40288752D02*
X14549037Y-39628352D01*
X14800618Y-39628352D01*
X14863514Y-39659800D01*
X14894961Y-39691247D01*
X14926409Y-39754142D01*
X14926409Y-39848485D01*
X14894961Y-39911380D01*
X14863514Y-39942828D01*
X14800618Y-39974276D01*
X14549037Y-39974276D01*
X15586809Y-40288752D02*
X15366675Y-39974276D01*
X15209437Y-40288752D02*
X15209437Y-39628352D01*
X15461018Y-39628352D01*
X15523914Y-39659800D01*
X15555361Y-39691247D01*
X15586809Y-39754142D01*
X15586809Y-39848485D01*
X15555361Y-39911380D01*
X15523914Y-39942828D01*
X15461018Y-39974276D01*
X15209437Y-39974276D01*
D10*
G04 #@! TO.C,U4*
X49390000Y-16872380D02*
X49390000Y-17110476D01*
X49151904Y-17015238D02*
X49390000Y-17110476D01*
X49628095Y-17015238D01*
X49247142Y-17300952D02*
X49390000Y-17110476D01*
X49532857Y-17300952D01*
X45820000Y-15772380D02*
X45820000Y-16010476D01*
X45581904Y-15915238D02*
X45820000Y-16010476D01*
X46058095Y-15915238D01*
X45677142Y-16200952D02*
X45820000Y-16010476D01*
X45962857Y-16200952D01*
D14*
G04 #@! TO.C,U3*
X16420000Y-18542600D02*
X17070000Y-18542600D01*
X16420000Y-18542600D02*
X14745000Y-18542600D01*
X16420000Y-21662600D02*
X15770000Y-21662600D01*
X16420000Y-21662600D02*
X17070000Y-21662600D01*
G04 #@! TO.C,C45*
X13560000Y-17136765D02*
X13560000Y-17368435D01*
X14280000Y-17136765D02*
X14280000Y-17368435D01*
G04 #@! TO.C,C21*
X24360000Y-18236765D02*
X24360000Y-18468435D01*
X25080000Y-18236765D02*
X25080000Y-18468435D01*
G04 #@! TO.C,C40*
X29858000Y-18214765D02*
X29858000Y-18446435D01*
X30578000Y-18214765D02*
X30578000Y-18446435D01*
G04 #@! TO.C,C35*
X38510000Y-36715835D02*
X38510000Y-36484165D01*
X37790000Y-36715835D02*
X37790000Y-36484165D01*
G04 #@! TO.C,C43*
X22990165Y-30924600D02*
X23221835Y-30924600D01*
X22990165Y-31644600D02*
X23221835Y-31644600D01*
D12*
G04 #@! TO.C,IC1*
X39250000Y-34500000D02*
X25250000Y-34500000D01*
X38650000Y-20500000D02*
X39250000Y-21100000D01*
X25250000Y-20500000D02*
X38650000Y-20500000D01*
X25250000Y-34500000D02*
X25250000Y-20500000D01*
X39250000Y-21100000D02*
X39250000Y-34500000D01*
X39350000Y-20500000D02*
G75*
G03*
X39350000Y-20500000I-100000J0D01*
G01*
D14*
G04 #@! TO.C,J1*
X12307500Y-32202600D02*
X10407500Y-32202600D01*
X16207500Y-22802600D02*
X14207500Y-22802600D01*
X10407500Y-22802600D02*
X10407500Y-32202600D01*
X16207500Y-32202600D02*
X14207500Y-32202600D01*
X12307500Y-22802600D02*
X10407500Y-22802600D01*
G04 #@! TO.C,D2*
X20365000Y-36115000D02*
X20365000Y-38575000D01*
X21835000Y-38575000D02*
X21835000Y-36115000D01*
X21835000Y-36115000D02*
X20365000Y-36115000D01*
G04 #@! TO.C,C18*
X37986000Y-18214765D02*
X37986000Y-18446435D01*
X38706000Y-18214765D02*
X38706000Y-18446435D01*
G04 #@! TO.C,C28*
X28800000Y-18214765D02*
X28800000Y-18446435D01*
X28080000Y-18214765D02*
X28080000Y-18446435D01*
G04 #@! TO.C,C26*
X59134165Y-15310000D02*
X59365835Y-15310000D01*
X59134165Y-14590000D02*
X59365835Y-14590000D01*
G04 #@! TO.C,C30*
X26810000Y-18214765D02*
X26810000Y-18446435D01*
X27530000Y-18214765D02*
X27530000Y-18446435D01*
G04 #@! TO.C,C8*
X19403200Y-17357235D02*
X19403200Y-17125565D01*
X18683200Y-17357235D02*
X18683200Y-17125565D01*
G04 #@! TO.C,C25*
X53184165Y-15310000D02*
X53415835Y-15310000D01*
X53184165Y-14590000D02*
X53415835Y-14590000D01*
G04 #@! TO.C,R3*
X25404724Y-38177500D02*
X24895276Y-38177500D01*
X25404724Y-39222500D02*
X24895276Y-39222500D01*
G04 #@! TO.C,C15*
X45540000Y-24115835D02*
X45540000Y-23884165D01*
X46260000Y-24115835D02*
X46260000Y-23884165D01*
G04 #@! TO.C,C41*
X22990165Y-20468600D02*
X23221835Y-20468600D01*
X22990165Y-19748600D02*
X23221835Y-19748600D01*
G04 #@! TO.C,C24*
X39256000Y-18214765D02*
X39256000Y-18446435D01*
X39976000Y-18214765D02*
X39976000Y-18446435D01*
G04 #@! TO.C,R14*
X30174724Y-15730100D02*
X29665276Y-15730100D01*
X30174724Y-16775100D02*
X29665276Y-16775100D01*
G04 #@! TO.C,C12*
X36639998Y-36739167D02*
X36639998Y-36507497D01*
X37359998Y-36739167D02*
X37359998Y-36507497D01*
G04 #@! TO.C,R9*
X18074724Y-33480100D02*
X17565276Y-33480100D01*
X18074724Y-34525100D02*
X17565276Y-34525100D01*
G04 #@! TO.C,C7*
X18734000Y-20965935D02*
X18734000Y-20734265D01*
X19454000Y-20965935D02*
X19454000Y-20734265D01*
G04 #@! TO.C,C38*
X22990165Y-33464600D02*
X23221835Y-33464600D01*
X22990165Y-34184600D02*
X23221835Y-34184600D01*
G04 #@! TO.C,D3*
X15435000Y-38600000D02*
X15435000Y-36140000D01*
X15435000Y-36140000D02*
X13965000Y-36140000D01*
X13965000Y-36140000D02*
X13965000Y-38600000D01*
G04 #@! TO.C,C22*
X37436000Y-18214765D02*
X37436000Y-18446435D01*
X36716000Y-18214765D02*
X36716000Y-18446435D01*
G04 #@! TO.C,U2*
X16420000Y-18062600D02*
X15770000Y-18062600D01*
X16420000Y-14942600D02*
X17070000Y-14942600D01*
X16420000Y-14942600D02*
X14745000Y-14942600D01*
X16420000Y-18062600D02*
X17070000Y-18062600D01*
G04 #@! TO.C,C39*
X31128000Y-18214765D02*
X31128000Y-18446435D01*
X31848000Y-18214765D02*
X31848000Y-18446435D01*
G04 #@! TO.C,R8*
X14065276Y-33480100D02*
X14574724Y-33480100D01*
X14065276Y-34525100D02*
X14574724Y-34525100D01*
G04 #@! TO.C,R13*
X28754724Y-38177500D02*
X28245276Y-38177500D01*
X28754724Y-39222500D02*
X28245276Y-39222500D01*
G04 #@! TO.C,C3*
X47234165Y-15260000D02*
X47465835Y-15260000D01*
X47234165Y-14540000D02*
X47465835Y-14540000D01*
G04 #@! TO.C,R11*
X21416600Y-25554724D02*
X21416600Y-25045276D01*
X20371600Y-25554724D02*
X20371600Y-25045276D01*
G04 #@! TO.C,C32*
X45540000Y-26734165D02*
X45540000Y-26965835D01*
X46260000Y-26734165D02*
X46260000Y-26965835D01*
G04 #@! TO.C,U4*
X48079500Y-38803000D02*
X58620500Y-38803000D01*
X58620500Y-16197000D02*
X48079500Y-16197000D01*
X48079500Y-16197000D02*
X48079500Y-16511960D01*
X58620500Y-16511960D02*
X58620500Y-16197000D01*
X58620500Y-38803000D02*
X58620500Y-38488040D01*
X48079500Y-38488040D02*
X48079500Y-38803000D01*
G36*
X46758700Y-32491100D02*
G01*
X46504700Y-32491100D01*
X46504700Y-32110100D01*
X46758700Y-32110100D01*
X46758700Y-32491100D01*
G37*
D15*
X46758700Y-32491100D02*
X46504700Y-32491100D01*
X46504700Y-32110100D01*
X46758700Y-32110100D01*
X46758700Y-32491100D01*
G36*
X60195300Y-28490600D02*
G01*
X59941300Y-28490600D01*
X59941300Y-28109600D01*
X60195300Y-28109600D01*
X60195300Y-28490600D01*
G37*
X60195300Y-28490600D02*
X59941300Y-28490600D01*
X59941300Y-28109600D01*
X60195300Y-28109600D01*
X60195300Y-28490600D01*
G36*
X60195300Y-36491600D02*
G01*
X59941300Y-36491600D01*
X59941300Y-36110600D01*
X60195300Y-36110600D01*
X60195300Y-36491600D01*
G37*
X60195300Y-36491600D02*
X59941300Y-36491600D01*
X59941300Y-36110600D01*
X60195300Y-36110600D01*
X60195300Y-36491600D01*
G36*
X46758700Y-24490100D02*
G01*
X46504700Y-24490100D01*
X46504700Y-24109100D01*
X46758700Y-24109100D01*
X46758700Y-24490100D01*
G37*
X46758700Y-24490100D02*
X46504700Y-24490100D01*
X46504700Y-24109100D01*
X46758700Y-24109100D01*
X46758700Y-24490100D01*
G36*
X60195300Y-20489600D02*
G01*
X59941300Y-20489600D01*
X59941300Y-20108600D01*
X60195300Y-20108600D01*
X60195300Y-20489600D01*
G37*
X60195300Y-20489600D02*
X59941300Y-20489600D01*
X59941300Y-20108600D01*
X60195300Y-20108600D01*
X60195300Y-20489600D01*
D14*
G04 #@! TO.C,C37*
X22990165Y-32194600D02*
X23221835Y-32194600D01*
X22990165Y-32914600D02*
X23221835Y-32914600D01*
G04 #@! TO.C,C29*
X22990165Y-29866600D02*
X23221835Y-29866600D01*
X22990165Y-29146600D02*
X23221835Y-29146600D01*
G04 #@! TO.C,C42*
X24270000Y-36734435D02*
X24270000Y-36502765D01*
X24990000Y-36734435D02*
X24990000Y-36502765D01*
G04 #@! TO.C,C10*
X47945835Y-40250000D02*
X47714165Y-40250000D01*
X47945835Y-39530000D02*
X47714165Y-39530000D01*
G04 #@! TO.C,C46*
X33668000Y-18214765D02*
X33668000Y-18446435D01*
X34388000Y-18214765D02*
X34388000Y-18446435D01*
G04 #@! TO.C,R15*
X25672876Y-15730100D02*
X26182324Y-15730100D01*
X25672876Y-16775100D02*
X26182324Y-16775100D01*
G04 #@! TO.C,C31*
X22990165Y-28596600D02*
X23221835Y-28596600D01*
X22990165Y-27876600D02*
X23221835Y-27876600D01*
G04 #@! TO.C,C19*
X26260000Y-18214765D02*
X26260000Y-18446435D01*
X25540000Y-18214765D02*
X25540000Y-18446435D01*
G04 #@! TO.C,C2*
X26770000Y-36502765D02*
X26770000Y-36734435D01*
X27490000Y-36502765D02*
X27490000Y-36734435D01*
G04 #@! TO.C,C13*
X53484165Y-39540000D02*
X53715835Y-39540000D01*
X53484165Y-40260000D02*
X53715835Y-40260000D01*
G04 #@! TO.C,R2*
X37945276Y-39072500D02*
X38454724Y-39072500D01*
X37945276Y-38027500D02*
X38454724Y-38027500D01*
G04 #@! TO.C,C9*
X22990165Y-35454600D02*
X23221835Y-35454600D01*
X22990165Y-34734600D02*
X23221835Y-34734600D01*
G04 #@! TO.C,C33*
X22990165Y-23008600D02*
X23221835Y-23008600D01*
X22990165Y-22288600D02*
X23221835Y-22288600D01*
G04 #@! TO.C,D1*
X18635000Y-38600000D02*
X18635000Y-36140000D01*
X18635000Y-36140000D02*
X17165000Y-36140000D01*
X17165000Y-36140000D02*
X17165000Y-38600000D01*
G04 #@! TO.C,C14*
X14280000Y-20685965D02*
X14280000Y-20917635D01*
X13560000Y-20685965D02*
X13560000Y-20917635D01*
G04 #@! TO.C,R10*
X20377500Y-28396876D02*
X20377500Y-28906324D01*
X21422500Y-28396876D02*
X21422500Y-28906324D01*
G04 #@! TO.C,C47*
X32398000Y-18214765D02*
X32398000Y-18446435D01*
X33118000Y-18214765D02*
X33118000Y-18446435D01*
G04 #@! TO.C,C23*
X35446000Y-18214765D02*
X35446000Y-18446435D01*
X36166000Y-18214765D02*
X36166000Y-18446435D01*
G04 #@! TO.C,C1*
X28040000Y-36502765D02*
X28040000Y-36734435D01*
X28760000Y-36502765D02*
X28760000Y-36734435D01*
G04 #@! TO.C,Y1*
X36000000Y-35600000D02*
X30250000Y-35600000D01*
X30250000Y-39200000D02*
X36000000Y-39200000D01*
X30250000Y-35600000D02*
X30250000Y-39200000D01*
G04 #@! TO.C,C27*
X59051665Y-40160000D02*
X59283335Y-40160000D01*
X59051665Y-39440000D02*
X59283335Y-39440000D01*
G04 #@! TO.C,R1*
X23222500Y-38054724D02*
X23222500Y-37545276D01*
X22177500Y-38054724D02*
X22177500Y-37545276D01*
G04 #@! TO.C,C6*
X29993998Y-36739167D02*
X29993998Y-36507497D01*
X29273998Y-36739167D02*
X29273998Y-36507497D01*
G04 #@! TO.C,R5*
X18977500Y-37520276D02*
X18977500Y-38029724D01*
X20022500Y-37520276D02*
X20022500Y-38029724D01*
G04 #@! TO.C,C34*
X22990165Y-23558600D02*
X23221835Y-23558600D01*
X22990165Y-24278600D02*
X23221835Y-24278600D01*
G04 #@! TO.C,R17*
X38674724Y-16775100D02*
X38165276Y-16775100D01*
X38674724Y-15730100D02*
X38165276Y-15730100D01*
G04 #@! TO.C,R6*
X12577500Y-37545276D02*
X12577500Y-38054724D01*
X13622500Y-37545276D02*
X13622500Y-38054724D01*
G04 #@! TO.C,C20*
X22990165Y-26606600D02*
X23221835Y-26606600D01*
X22990165Y-27326600D02*
X23221835Y-27326600D01*
G04 #@! TO.C,C36*
X25540000Y-36734435D02*
X25540000Y-36502765D01*
X26260000Y-36734435D02*
X26260000Y-36502765D01*
G04 #@! TO.C,C4*
X22990165Y-26056600D02*
X23221835Y-26056600D01*
X22990165Y-25336600D02*
X23221835Y-25336600D01*
G04 #@! TO.C,C44*
X22990165Y-21738600D02*
X23221835Y-21738600D01*
X22990165Y-21018600D02*
X23221835Y-21018600D01*
G04 #@! TO.C,R4*
X15777500Y-37545276D02*
X15777500Y-38054724D01*
X16822500Y-37545276D02*
X16822500Y-38054724D01*
G04 #@! TO.C,R16*
X34512224Y-16775100D02*
X34002776Y-16775100D01*
X34512224Y-15730100D02*
X34002776Y-15730100D01*
G04 #@! TO.C,J3*
X25940000Y-18950000D02*
G75*
G03*
X25940000Y-18950000I-381000J0D01*
G01*
G04 #@! TO.C,J2*
X14172000Y-36070500D02*
G75*
G03*
X14172000Y-36070500I-381000J0D01*
G01*
G04 #@! TD*
%LPC*%
D16*
G04 #@! TO.C,U3*
X15482500Y-19152600D03*
X15482500Y-21052600D03*
X17357500Y-20102600D03*
G04 #@! TD*
D17*
G04 #@! TO.C,C45*
X13920000Y-16685100D03*
X13920000Y-17820100D03*
G04 #@! TD*
G04 #@! TO.C,C21*
X24720000Y-17785100D03*
X24720000Y-18920100D03*
G04 #@! TD*
G04 #@! TO.C,C40*
X30218000Y-17763100D03*
X30218000Y-18898100D03*
G04 #@! TD*
D18*
G04 #@! TO.C,C35*
X38150000Y-37167500D03*
X38150000Y-36032500D03*
G04 #@! TD*
D19*
G04 #@! TO.C,C43*
X22538500Y-31284600D03*
X23673500Y-31284600D03*
G04 #@! TD*
D20*
G04 #@! TO.C,IC1*
X38650000Y-21100000D03*
X38650000Y-21900000D03*
X38650000Y-22700000D03*
X38650000Y-23500000D03*
X38650000Y-24300000D03*
X38650000Y-25100000D03*
X38650000Y-25900000D03*
X38650000Y-26700000D03*
X38650000Y-27500000D03*
X38650000Y-28300000D03*
X38650000Y-29100000D03*
X38650000Y-29900000D03*
X38650000Y-30700000D03*
X38650000Y-31500000D03*
X38650000Y-32300000D03*
X38650000Y-33100000D03*
X38650000Y-33900000D03*
X37850000Y-21100000D03*
X37850000Y-21900000D03*
X37850000Y-22700000D03*
X37850000Y-23500000D03*
X37850000Y-24300000D03*
X37850000Y-25100000D03*
X37850000Y-25900000D03*
X37850000Y-26700000D03*
X37850000Y-27500000D03*
X37850000Y-28300000D03*
X37850000Y-29100000D03*
X37850000Y-29900000D03*
X37850000Y-30700000D03*
X37850000Y-31500000D03*
X37850000Y-32300000D03*
X37850000Y-33100000D03*
X37850000Y-33900000D03*
X37050000Y-21100000D03*
X37050000Y-21900000D03*
X37050000Y-22700000D03*
X37050000Y-23500000D03*
X37050000Y-24300000D03*
X37050000Y-25100000D03*
X37050000Y-25900000D03*
X37050000Y-26700000D03*
X37050000Y-27500000D03*
X37050000Y-28300000D03*
X37050000Y-29100000D03*
X37050000Y-29900000D03*
X37050000Y-30700000D03*
X37050000Y-31500000D03*
X37050000Y-32300000D03*
X37050000Y-33100000D03*
X37050000Y-33900000D03*
X36250000Y-21100000D03*
X36250000Y-21900000D03*
X36250000Y-22700000D03*
X36250000Y-23500000D03*
X36250000Y-24300000D03*
X36250000Y-25100000D03*
X36250000Y-25900000D03*
X36250000Y-26700000D03*
X36250000Y-27500000D03*
X36250000Y-28300000D03*
X36250000Y-29100000D03*
X36250000Y-29900000D03*
X36250000Y-30700000D03*
X36250000Y-31500000D03*
X36250000Y-32300000D03*
X36250000Y-33100000D03*
X36250000Y-33900000D03*
X35450000Y-21100000D03*
X35450000Y-21900000D03*
X35450000Y-22700000D03*
X35450000Y-23500000D03*
X35450000Y-24300000D03*
X35450000Y-25100000D03*
X35450000Y-25900000D03*
X35450000Y-26700000D03*
X35450000Y-27500000D03*
X35450000Y-28300000D03*
X35450000Y-29100000D03*
X35450000Y-29900000D03*
X35450000Y-30700000D03*
X35450000Y-31500000D03*
X35450000Y-32300000D03*
X35450000Y-33100000D03*
X35450000Y-33900000D03*
X34650000Y-21100000D03*
X34650000Y-21900000D03*
X34650000Y-22700000D03*
X34650000Y-23500000D03*
X34650000Y-24300000D03*
X34650000Y-25100000D03*
X34650000Y-25900000D03*
X34650000Y-26700000D03*
X34650000Y-27500000D03*
X34650000Y-28300000D03*
X34650000Y-29100000D03*
X34650000Y-29900000D03*
X34650000Y-30700000D03*
X34650000Y-31500000D03*
X34650000Y-32300000D03*
X34650000Y-33100000D03*
X34650000Y-33900000D03*
X33850000Y-21100000D03*
X33850000Y-21900000D03*
X33850000Y-22700000D03*
X33850000Y-23500000D03*
X33850000Y-24300000D03*
X33850000Y-25100000D03*
X33850000Y-25900000D03*
X33850000Y-27500000D03*
X33850000Y-29100000D03*
X33850000Y-29900000D03*
X33850000Y-30700000D03*
X33850000Y-31500000D03*
X33850000Y-32300000D03*
X33850000Y-33100000D03*
X33850000Y-33900000D03*
X33050000Y-21100000D03*
X33050000Y-21900000D03*
X33050000Y-22700000D03*
X33050000Y-23500000D03*
X33050000Y-24300000D03*
X33050000Y-25100000D03*
X33050000Y-29900000D03*
X33050000Y-30700000D03*
X33050000Y-31500000D03*
X33050000Y-32300000D03*
X33050000Y-33100000D03*
X33050000Y-33900000D03*
X32250000Y-21100000D03*
X32250000Y-21900000D03*
X32250000Y-22700000D03*
X32250000Y-23500000D03*
X32250000Y-24300000D03*
X32250000Y-25100000D03*
X32250000Y-25900000D03*
X32250000Y-29100000D03*
X32250000Y-29900000D03*
X32250000Y-30700000D03*
X32250000Y-31500000D03*
X32250000Y-32300000D03*
X32250000Y-33100000D03*
X32250000Y-33900000D03*
X31450000Y-21100000D03*
X31450000Y-21900000D03*
X31450000Y-22700000D03*
X31450000Y-23500000D03*
X31450000Y-24300000D03*
X31450000Y-25100000D03*
X31450000Y-29900000D03*
X31450000Y-30700000D03*
X31450000Y-31500000D03*
X31450000Y-32300000D03*
X31450000Y-33100000D03*
X31450000Y-33900000D03*
X30650000Y-21100000D03*
X30650000Y-21900000D03*
X30650000Y-22700000D03*
X30650000Y-23500000D03*
X30650000Y-24300000D03*
X30650000Y-25100000D03*
X30650000Y-25900000D03*
X30650000Y-27500000D03*
X30650000Y-29100000D03*
X30650000Y-29900000D03*
X30650000Y-30700000D03*
X30650000Y-31500000D03*
X30650000Y-32300000D03*
X30650000Y-33100000D03*
X30650000Y-33900000D03*
X29850000Y-21100000D03*
X29850000Y-21900000D03*
X29850000Y-22700000D03*
X29850000Y-23500000D03*
X29850000Y-24300000D03*
X29850000Y-25100000D03*
X29850000Y-25900000D03*
X29850000Y-26700000D03*
X29850000Y-27500000D03*
X29850000Y-28300000D03*
X29850000Y-29100000D03*
X29850000Y-29900000D03*
X29850000Y-30700000D03*
X29850000Y-31500000D03*
X29850000Y-32300000D03*
X29850000Y-33100000D03*
X29850000Y-33900000D03*
X29050000Y-21100000D03*
X29050000Y-21900000D03*
X29050000Y-22700000D03*
X29050000Y-23500000D03*
X29050000Y-24300000D03*
X29050000Y-25100000D03*
X29050000Y-25900000D03*
X29050000Y-26700000D03*
X29050000Y-27500000D03*
X29050000Y-28300000D03*
X29050000Y-29100000D03*
X29050000Y-29900000D03*
X29050000Y-30700000D03*
X29050000Y-31500000D03*
X29050000Y-32300000D03*
X29050000Y-33100000D03*
X29050000Y-33900000D03*
X28250000Y-21100000D03*
X28250000Y-21900000D03*
X28250000Y-22700000D03*
X28250000Y-23500000D03*
X28250000Y-24300000D03*
X28250000Y-25100000D03*
X28250000Y-25900000D03*
X28250000Y-26700000D03*
X28250000Y-27500000D03*
X28250000Y-28300000D03*
X28250000Y-29100000D03*
X28250000Y-29900000D03*
X28250000Y-30700000D03*
X28250000Y-31500000D03*
X28250000Y-32300000D03*
X28250000Y-33100000D03*
X28250000Y-33900000D03*
X27450000Y-21100000D03*
X27450000Y-21900000D03*
X27450000Y-22700000D03*
X27450000Y-23500000D03*
X27450000Y-24300000D03*
X27450000Y-25100000D03*
X27450000Y-25900000D03*
X27450000Y-26700000D03*
X27450000Y-27500000D03*
X27450000Y-28300000D03*
X27450000Y-29100000D03*
X27450000Y-29900000D03*
X27450000Y-30700000D03*
X27450000Y-31500000D03*
X27450000Y-32300000D03*
X27450000Y-33100000D03*
X27450000Y-33900000D03*
X26650000Y-21100000D03*
X26650000Y-21900000D03*
X26650000Y-22700000D03*
X26650000Y-23500000D03*
X26650000Y-24300000D03*
X26650000Y-25100000D03*
X26650000Y-25900000D03*
X26650000Y-26700000D03*
X26650000Y-27500000D03*
X26650000Y-28300000D03*
X26650000Y-29100000D03*
X26650000Y-29900000D03*
X26650000Y-30700000D03*
X26650000Y-31500000D03*
X26650000Y-32300000D03*
X26650000Y-33100000D03*
X26650000Y-33900000D03*
X25850000Y-21100000D03*
X25850000Y-21900000D03*
X25850000Y-22700000D03*
X25850000Y-23500000D03*
X25850000Y-24300000D03*
X25850000Y-25100000D03*
X25850000Y-25900000D03*
X25850000Y-26700000D03*
X25850000Y-27500000D03*
X25850000Y-28300000D03*
X25850000Y-29100000D03*
X25850000Y-29900000D03*
X25850000Y-30700000D03*
X25850000Y-31500000D03*
X25850000Y-32300000D03*
X25850000Y-33100000D03*
X25850000Y-33900000D03*
G04 #@! TD*
D21*
G04 #@! TO.C,J1*
X16907500Y-24612600D03*
X16907500Y-30392600D03*
D22*
X18707500Y-24252600D03*
X18707500Y-25052600D03*
D23*
X18707500Y-26252600D03*
X18707500Y-27252600D03*
X18707500Y-27752600D03*
X18707500Y-28752600D03*
D22*
X18707500Y-29952600D03*
X18707500Y-30752600D03*
X18707500Y-30752600D03*
D24*
X18707500Y-29952600D03*
D23*
X18707500Y-29252600D03*
X18707500Y-28252600D03*
X18707500Y-26752600D03*
X18707500Y-25752600D03*
D24*
X18707500Y-25052600D03*
X18807500Y-24252600D03*
D25*
X13257500Y-31822600D03*
D26*
X17437500Y-23182600D03*
X17437500Y-31822600D03*
D25*
X13257500Y-23182600D03*
G04 #@! TD*
D27*
G04 #@! TO.C,D2*
X21100000Y-36900000D03*
X21100000Y-38650000D03*
G04 #@! TD*
D17*
G04 #@! TO.C,C18*
X38346000Y-17763100D03*
X38346000Y-18898100D03*
G04 #@! TD*
G04 #@! TO.C,C28*
X28440000Y-17763100D03*
X28440000Y-18898100D03*
G04 #@! TD*
D19*
G04 #@! TO.C,C26*
X58682500Y-14950000D03*
X59817500Y-14950000D03*
G04 #@! TD*
D17*
G04 #@! TO.C,C30*
X27170000Y-17763100D03*
X27170000Y-18898100D03*
G04 #@! TD*
D18*
G04 #@! TO.C,C8*
X19043200Y-17808900D03*
X19043200Y-16673900D03*
G04 #@! TD*
D19*
G04 #@! TO.C,C25*
X52732500Y-14950000D03*
X53867500Y-14950000D03*
G04 #@! TD*
D28*
G04 #@! TO.C,R3*
X26062500Y-38700000D03*
X24237500Y-38700000D03*
G04 #@! TD*
D18*
G04 #@! TO.C,C15*
X45900000Y-24567500D03*
X45900000Y-23432500D03*
G04 #@! TD*
D19*
G04 #@! TO.C,C41*
X22538500Y-20108600D03*
X23673500Y-20108600D03*
G04 #@! TD*
D17*
G04 #@! TO.C,C24*
X39616000Y-17763100D03*
X39616000Y-18898100D03*
G04 #@! TD*
D28*
G04 #@! TO.C,R14*
X30832500Y-16252600D03*
X29007500Y-16252600D03*
G04 #@! TD*
D18*
G04 #@! TO.C,C12*
X36999998Y-37190832D03*
X36999998Y-36055832D03*
G04 #@! TD*
D28*
G04 #@! TO.C,R9*
X18732500Y-34002600D03*
X16907500Y-34002600D03*
G04 #@! TD*
D18*
G04 #@! TO.C,C7*
X19094000Y-21417600D03*
X19094000Y-20282600D03*
G04 #@! TD*
D19*
G04 #@! TO.C,C38*
X22538500Y-33824600D03*
X23673500Y-33824600D03*
G04 #@! TD*
D27*
G04 #@! TO.C,D3*
X14700000Y-36925000D03*
X14700000Y-38675000D03*
G04 #@! TD*
D17*
G04 #@! TO.C,C22*
X37076000Y-17763100D03*
X37076000Y-18898100D03*
G04 #@! TD*
D16*
G04 #@! TO.C,U2*
X15482500Y-15552600D03*
X15482500Y-17452600D03*
X17357500Y-16502600D03*
G04 #@! TD*
D17*
G04 #@! TO.C,C39*
X31488000Y-17763100D03*
X31488000Y-18898100D03*
G04 #@! TD*
D29*
G04 #@! TO.C,R8*
X13407500Y-34002600D03*
X15232500Y-34002600D03*
G04 #@! TD*
D28*
G04 #@! TO.C,R13*
X29412500Y-38700000D03*
X27587500Y-38700000D03*
G04 #@! TD*
D19*
G04 #@! TO.C,C3*
X46782500Y-14900000D03*
X47917500Y-14900000D03*
G04 #@! TD*
D30*
G04 #@! TO.C,R11*
X20894100Y-26212500D03*
X20894100Y-24387500D03*
G04 #@! TD*
D17*
G04 #@! TO.C,C32*
X45900000Y-26282500D03*
X45900000Y-27417500D03*
G04 #@! TD*
D31*
G04 #@! TO.C,U4*
X47609600Y-17098700D03*
X47609600Y-17898800D03*
X47609600Y-18698900D03*
X47609600Y-19499000D03*
X47609600Y-20299100D03*
X47609600Y-21099200D03*
X47609600Y-21899300D03*
X47609600Y-22699400D03*
X47609600Y-23499500D03*
X47609600Y-24299600D03*
X47609600Y-25099700D03*
X47609600Y-25899800D03*
X47609600Y-26699900D03*
X47609600Y-27500000D03*
X47609600Y-28300100D03*
X47609600Y-29100200D03*
X47609600Y-29900300D03*
X47609600Y-30700400D03*
X47609600Y-31500500D03*
X47609600Y-32300600D03*
X47609600Y-33100700D03*
X47609600Y-33900800D03*
X47609600Y-34700900D03*
X47609600Y-35501000D03*
X47609600Y-36301100D03*
X47609600Y-37101200D03*
X47609600Y-37901300D03*
X59090400Y-37901300D03*
X59090400Y-37101200D03*
X59090400Y-36301100D03*
X59090400Y-35501000D03*
X59090400Y-34700900D03*
X59090400Y-33900800D03*
X59090400Y-33100700D03*
X59090400Y-32300600D03*
X59090400Y-31500500D03*
X59090400Y-30700400D03*
X59090400Y-29900300D03*
X59090400Y-29100200D03*
X59090400Y-28300100D03*
X59090400Y-27500000D03*
X59090400Y-26699900D03*
X59090400Y-25899800D03*
X59090400Y-25099700D03*
X59090400Y-24299600D03*
X59090400Y-23499500D03*
X59090400Y-22699400D03*
X59090400Y-21899300D03*
X59090400Y-21099200D03*
X59090400Y-20299100D03*
X59090400Y-19499000D03*
X59090400Y-18698900D03*
X59090400Y-17898800D03*
X59090400Y-17098700D03*
G04 #@! TD*
D19*
G04 #@! TO.C,C37*
X22538500Y-32554600D03*
X23673500Y-32554600D03*
G04 #@! TD*
G04 #@! TO.C,C29*
X22538500Y-29506600D03*
X23673500Y-29506600D03*
G04 #@! TD*
D18*
G04 #@! TO.C,C42*
X24630000Y-37186100D03*
X24630000Y-36051100D03*
G04 #@! TD*
D32*
G04 #@! TO.C,C10*
X48397500Y-39890000D03*
X47262500Y-39890000D03*
G04 #@! TD*
D17*
G04 #@! TO.C,C46*
X34028000Y-17763100D03*
X34028000Y-18898100D03*
G04 #@! TD*
D29*
G04 #@! TO.C,R15*
X25015100Y-16252600D03*
X26840100Y-16252600D03*
G04 #@! TD*
D19*
G04 #@! TO.C,C31*
X22538500Y-28236600D03*
X23673500Y-28236600D03*
G04 #@! TD*
D17*
G04 #@! TO.C,C19*
X25900000Y-17763100D03*
X25900000Y-18898100D03*
G04 #@! TD*
G04 #@! TO.C,C2*
X27130000Y-36051100D03*
X27130000Y-37186100D03*
G04 #@! TD*
D19*
G04 #@! TO.C,C13*
X53032500Y-39900000D03*
X54167500Y-39900000D03*
G04 #@! TD*
D29*
G04 #@! TO.C,R2*
X37287500Y-38550000D03*
X39112500Y-38550000D03*
G04 #@! TD*
D19*
G04 #@! TO.C,C9*
X22538500Y-35094600D03*
X23673500Y-35094600D03*
G04 #@! TD*
G04 #@! TO.C,C33*
X22538500Y-22648600D03*
X23673500Y-22648600D03*
G04 #@! TD*
D27*
G04 #@! TO.C,D1*
X17900000Y-36925000D03*
X17900000Y-38675000D03*
G04 #@! TD*
D17*
G04 #@! TO.C,C14*
X13920000Y-20234300D03*
X13920000Y-21369300D03*
G04 #@! TD*
D33*
G04 #@! TO.C,R10*
X20900000Y-27739100D03*
X20900000Y-29564100D03*
G04 #@! TD*
D17*
G04 #@! TO.C,C47*
X32758000Y-17763100D03*
X32758000Y-18898100D03*
G04 #@! TD*
G04 #@! TO.C,C23*
X35806000Y-17763100D03*
X35806000Y-18898100D03*
G04 #@! TD*
G04 #@! TO.C,C1*
X28400000Y-36051100D03*
X28400000Y-37186100D03*
G04 #@! TD*
D34*
G04 #@! TO.C,Y1*
X31450000Y-37400000D03*
X35150000Y-37400000D03*
G04 #@! TD*
D19*
G04 #@! TO.C,C27*
X58600000Y-39800000D03*
X59735000Y-39800000D03*
G04 #@! TD*
D30*
G04 #@! TO.C,R1*
X22700000Y-38712500D03*
X22700000Y-36887500D03*
G04 #@! TD*
D18*
G04 #@! TO.C,C6*
X29633998Y-37190832D03*
X29633998Y-36055832D03*
G04 #@! TD*
D33*
G04 #@! TO.C,R5*
X19500000Y-36862500D03*
X19500000Y-38687500D03*
G04 #@! TD*
D19*
G04 #@! TO.C,C34*
X22538500Y-23918600D03*
X23673500Y-23918600D03*
G04 #@! TD*
D28*
G04 #@! TO.C,R17*
X39332500Y-16252600D03*
X37507500Y-16252600D03*
G04 #@! TD*
D33*
G04 #@! TO.C,R6*
X13100000Y-36887500D03*
X13100000Y-38712500D03*
G04 #@! TD*
D19*
G04 #@! TO.C,C20*
X22538500Y-26966600D03*
X23673500Y-26966600D03*
G04 #@! TD*
D18*
G04 #@! TO.C,C36*
X25900000Y-37186100D03*
X25900000Y-36051100D03*
G04 #@! TD*
D19*
G04 #@! TO.C,C4*
X22538500Y-25696600D03*
X23673500Y-25696600D03*
G04 #@! TD*
G04 #@! TO.C,C44*
X22538500Y-21378600D03*
X23673500Y-21378600D03*
G04 #@! TD*
D33*
G04 #@! TO.C,R4*
X16300000Y-36887500D03*
X16300000Y-38712500D03*
G04 #@! TD*
D28*
G04 #@! TO.C,R16*
X35170000Y-16252600D03*
X33345000Y-16252600D03*
G04 #@! TD*
M02*
