G04 #@! TF.GenerationSoftware,KiCad,Pcbnew,(6.0.11-0)*
G04 #@! TF.CreationDate,2023-02-20T23:18:05+08:00*
G04 #@! TF.ProjectId,ublaster_jtag,75626c61-7374-4657-925f-6a7461672e6b,rev?*
G04 #@! TF.SameCoordinates,Original*
G04 #@! TF.FileFunction,Legend,Bot*
G04 #@! TF.FilePolarity,Positive*
%FSLAX46Y46*%
G04 Gerber Fmt 4.6, Leading zero omitted, Abs format (unit mm)*
G04 Created by KiCad (PCBNEW (6.0.11-0)) date 2023-02-20 23:18:05*
%MOMM*%
%LPD*%
G01*
G04 APERTURE LIST*
G04 Aperture macros list*
%AMRoundRect*
0 Rectangle with rounded corners*
0 $1 Rounding radius*
0 $2 $3 $4 $5 $6 $7 $8 $9 X,Y pos of 4 corners*
0 Add a 4 corners polygon primitive as box body*
4,1,4,$2,$3,$4,$5,$6,$7,$8,$9,$2,$3,0*
0 Add four circle primitives for the rounded corners*
1,1,$1+$1,$2,$3*
1,1,$1+$1,$4,$5*
1,1,$1+$1,$6,$7*
1,1,$1+$1,$8,$9*
0 Add four rect primitives between the rounded corners*
20,1,$1+$1,$2,$3,$4,$5,0*
20,1,$1+$1,$4,$5,$6,$7,0*
20,1,$1+$1,$6,$7,$8,$9,0*
20,1,$1+$1,$8,$9,$2,$3,0*%
G04 Aperture macros list end*
%ADD10C,0.180000*%
%ADD11C,0.150000*%
%ADD12C,0.160000*%
%ADD13C,0.304800*%
%ADD14C,0.120000*%
%ADD15C,0.650000*%
%ADD16O,2.100000X1.000000*%
%ADD17O,1.600000X1.000000*%
%ADD18RoundRect,0.425000X1.075000X0.425000X-1.075000X0.425000X-1.075000X-0.425000X1.075000X-0.425000X0*%
%ADD19RoundRect,0.425000X0.425000X-1.075000X0.425000X1.075000X-0.425000X1.075000X-0.425000X-1.075000X0*%
G04 APERTURE END LIST*
D10*
X32834809Y-11361019D02*
X32834809Y-12146733D01*
X32887190Y-12303876D01*
X32991952Y-12408638D01*
X33149095Y-12461019D01*
X33253857Y-12461019D01*
X31787190Y-12461019D02*
X32311000Y-12461019D01*
X32311000Y-11361019D01*
X30791952Y-12356257D02*
X30844333Y-12408638D01*
X31001476Y-12461019D01*
X31106238Y-12461019D01*
X31263380Y-12408638D01*
X31368142Y-12303876D01*
X31420523Y-12199114D01*
X31472904Y-11989590D01*
X31472904Y-11832447D01*
X31420523Y-11622923D01*
X31368142Y-11518161D01*
X31263380Y-11413400D01*
X31106238Y-11361019D01*
X31001476Y-11361019D01*
X30844333Y-11413400D01*
X30791952Y-11465780D01*
X30006238Y-11361019D02*
X30006238Y-12146733D01*
X30058619Y-12303876D01*
X30163380Y-12408638D01*
X30320523Y-12461019D01*
X30425285Y-12461019D01*
X28958619Y-12461019D02*
X29482428Y-12461019D01*
X29482428Y-11361019D01*
X27963380Y-12356257D02*
X28015761Y-12408638D01*
X28172904Y-12461019D01*
X28277666Y-12461019D01*
X28434809Y-12408638D01*
X28539571Y-12303876D01*
X28591952Y-12199114D01*
X28644333Y-11989590D01*
X28644333Y-11832447D01*
X28591952Y-11622923D01*
X28539571Y-11518161D01*
X28434809Y-11413400D01*
X28277666Y-11361019D01*
X28172904Y-11361019D01*
X28015761Y-11413400D01*
X27963380Y-11465780D01*
X27177666Y-11361019D02*
X27177666Y-12146733D01*
X27230047Y-12303876D01*
X27334809Y-12408638D01*
X27491952Y-12461019D01*
X27596714Y-12461019D01*
X26130047Y-12461019D02*
X26653857Y-12461019D01*
X26653857Y-11361019D01*
X25134809Y-12356257D02*
X25187190Y-12408638D01*
X25344333Y-12461019D01*
X25449095Y-12461019D01*
X25606238Y-12408638D01*
X25711000Y-12303876D01*
X25763380Y-12199114D01*
X25815761Y-11989590D01*
X25815761Y-11832447D01*
X25763380Y-11622923D01*
X25711000Y-11518161D01*
X25606238Y-11413400D01*
X25449095Y-11361019D01*
X25344333Y-11361019D01*
X25187190Y-11413400D01*
X25134809Y-11465780D01*
X24349095Y-11361019D02*
X24349095Y-12146733D01*
X24401476Y-12303876D01*
X24506238Y-12408638D01*
X24663380Y-12461019D01*
X24768142Y-12461019D01*
X23301476Y-12461019D02*
X23825285Y-12461019D01*
X23825285Y-11361019D01*
X22306238Y-12356257D02*
X22358619Y-12408638D01*
X22515761Y-12461019D01*
X22620523Y-12461019D01*
X22777666Y-12408638D01*
X22882428Y-12303876D01*
X22934809Y-12199114D01*
X22987190Y-11989590D01*
X22987190Y-11832447D01*
X22934809Y-11622923D01*
X22882428Y-11518161D01*
X22777666Y-11413400D01*
X22620523Y-11361019D01*
X22515761Y-11361019D01*
X22358619Y-11413400D01*
X22306238Y-11465780D01*
D11*
X14101176Y-4430200D02*
X14177366Y-4392104D01*
X14291652Y-4392104D01*
X14405938Y-4430200D01*
X14482128Y-4506390D01*
X14520223Y-4582580D01*
X14558319Y-4734961D01*
X14558319Y-4849247D01*
X14520223Y-5001628D01*
X14482128Y-5077819D01*
X14405938Y-5154009D01*
X14291652Y-5192104D01*
X14215461Y-5192104D01*
X14101176Y-5154009D01*
X14063080Y-5115914D01*
X14063080Y-4849247D01*
X14215461Y-4849247D01*
X13720223Y-5192104D02*
X13720223Y-4392104D01*
X13263080Y-5192104D01*
X13263080Y-4392104D01*
X12882128Y-5192104D02*
X12882128Y-4392104D01*
X12691652Y-4392104D01*
X12577366Y-4430200D01*
X12501176Y-4506390D01*
X12463080Y-4582580D01*
X12424985Y-4734961D01*
X12424985Y-4849247D01*
X12463080Y-5001628D01*
X12501176Y-5077819D01*
X12577366Y-5154009D01*
X12691652Y-5192104D01*
X12882128Y-5192104D01*
X14520223Y-7768104D02*
X14520223Y-6968104D01*
X14063080Y-7768104D01*
X14063080Y-6968104D01*
X13224985Y-7691914D02*
X13263080Y-7730009D01*
X13377366Y-7768104D01*
X13453557Y-7768104D01*
X13567842Y-7730009D01*
X13644033Y-7653819D01*
X13682128Y-7577628D01*
X13720223Y-7425247D01*
X13720223Y-7310961D01*
X13682128Y-7158580D01*
X13644033Y-7082390D01*
X13567842Y-7006200D01*
X13453557Y-6968104D01*
X13377366Y-6968104D01*
X13263080Y-7006200D01*
X13224985Y-7044295D01*
X12920223Y-7730009D02*
X12805938Y-7768104D01*
X12615461Y-7768104D01*
X12539271Y-7730009D01*
X12501176Y-7691914D01*
X12463080Y-7615723D01*
X12463080Y-7539533D01*
X12501176Y-7463342D01*
X12539271Y-7425247D01*
X12615461Y-7387152D01*
X12767842Y-7349057D01*
X12844033Y-7310961D01*
X12882128Y-7272866D01*
X12920223Y-7196676D01*
X12920223Y-7120485D01*
X12882128Y-7044295D01*
X12844033Y-7006200D01*
X12767842Y-6968104D01*
X12577366Y-6968104D01*
X12463080Y-7006200D01*
X14520223Y-10344104D02*
X14520223Y-9544104D01*
X14063080Y-10344104D01*
X14063080Y-9544104D01*
X13224985Y-10267914D02*
X13263080Y-10306009D01*
X13377366Y-10344104D01*
X13453557Y-10344104D01*
X13567842Y-10306009D01*
X13644033Y-10229819D01*
X13682128Y-10153628D01*
X13720223Y-10001247D01*
X13720223Y-9886961D01*
X13682128Y-9734580D01*
X13644033Y-9658390D01*
X13567842Y-9582200D01*
X13453557Y-9544104D01*
X13377366Y-9544104D01*
X13263080Y-9582200D01*
X13224985Y-9620295D01*
X12882128Y-9925057D02*
X12615461Y-9925057D01*
X12501176Y-10344104D02*
X12882128Y-10344104D01*
X12882128Y-9544104D01*
X12501176Y-9544104D01*
X14596414Y-12120104D02*
X14101176Y-12120104D01*
X14367842Y-12424866D01*
X14253557Y-12424866D01*
X14177366Y-12462961D01*
X14139271Y-12501057D01*
X14101176Y-12577247D01*
X14101176Y-12767723D01*
X14139271Y-12843914D01*
X14177366Y-12882009D01*
X14253557Y-12920104D01*
X14482128Y-12920104D01*
X14558319Y-12882009D01*
X14596414Y-12843914D01*
X13834509Y-12386771D02*
X13644033Y-12920104D01*
X13453557Y-12386771D01*
X13224985Y-12120104D02*
X12729747Y-12120104D01*
X12996414Y-12424866D01*
X12882128Y-12424866D01*
X12805938Y-12462961D01*
X12767842Y-12501057D01*
X12729747Y-12577247D01*
X12729747Y-12767723D01*
X12767842Y-12843914D01*
X12805938Y-12882009D01*
X12882128Y-12920104D01*
X13110700Y-12920104D01*
X13186890Y-12882009D01*
X13224985Y-12843914D01*
X14101176Y-14734200D02*
X14177366Y-14696104D01*
X14291652Y-14696104D01*
X14405938Y-14734200D01*
X14482128Y-14810390D01*
X14520223Y-14886580D01*
X14558319Y-15038961D01*
X14558319Y-15153247D01*
X14520223Y-15305628D01*
X14482128Y-15381819D01*
X14405938Y-15458009D01*
X14291652Y-15496104D01*
X14215461Y-15496104D01*
X14101176Y-15458009D01*
X14063080Y-15419914D01*
X14063080Y-15153247D01*
X14215461Y-15153247D01*
X13720223Y-15496104D02*
X13720223Y-14696104D01*
X13263080Y-15496104D01*
X13263080Y-14696104D01*
X12882128Y-15496104D02*
X12882128Y-14696104D01*
X12691652Y-14696104D01*
X12577366Y-14734200D01*
X12501176Y-14810390D01*
X12463080Y-14886580D01*
X12424985Y-15038961D01*
X12424985Y-15153247D01*
X12463080Y-15305628D01*
X12501176Y-15381819D01*
X12577366Y-15458009D01*
X12691652Y-15496104D01*
X12882128Y-15496104D01*
D12*
X28164325Y-14783763D02*
X28050039Y-14821858D01*
X27859563Y-14821858D01*
X27783372Y-14783763D01*
X27745277Y-14745668D01*
X27707182Y-14669477D01*
X27707182Y-14593287D01*
X27745277Y-14517096D01*
X27783372Y-14479001D01*
X27859563Y-14440906D01*
X28011944Y-14402811D01*
X28088134Y-14364715D01*
X28126229Y-14326620D01*
X28164325Y-14250430D01*
X28164325Y-14174239D01*
X28126229Y-14098049D01*
X28088134Y-14059954D01*
X28011944Y-14021858D01*
X27821467Y-14021858D01*
X27707182Y-14059954D01*
X26907182Y-14745668D02*
X26945277Y-14783763D01*
X27059563Y-14821858D01*
X27135753Y-14821858D01*
X27250039Y-14783763D01*
X27326229Y-14707573D01*
X27364325Y-14631382D01*
X27402420Y-14479001D01*
X27402420Y-14364715D01*
X27364325Y-14212334D01*
X27326229Y-14136144D01*
X27250039Y-14059954D01*
X27135753Y-14021858D01*
X27059563Y-14021858D01*
X26945277Y-14059954D01*
X26907182Y-14098049D01*
X26564325Y-14821858D02*
X26564325Y-14021858D01*
X26107182Y-14821858D02*
X26450039Y-14364715D01*
X26107182Y-14021858D02*
X26564325Y-14479001D01*
D13*
X31796480Y-6790571D02*
X31796480Y-7790571D01*
X32439337Y-6790571D02*
X32439337Y-7576285D01*
X32367908Y-7719142D01*
X32225051Y-7790571D01*
X32010765Y-7790571D01*
X31867908Y-7719142D01*
X31796480Y-7647714D01*
X31082194Y-7790571D02*
X31082194Y-6290571D01*
X31082194Y-6862000D02*
X30939337Y-6790571D01*
X30653622Y-6790571D01*
X30510765Y-6862000D01*
X30439337Y-6933428D01*
X30367908Y-7076285D01*
X30367908Y-7504857D01*
X30439337Y-7647714D01*
X30510765Y-7719142D01*
X30653622Y-7790571D01*
X30939337Y-7790571D01*
X31082194Y-7719142D01*
X29510765Y-7790571D02*
X29653622Y-7719142D01*
X29725051Y-7576285D01*
X29725051Y-6290571D01*
X28296480Y-7790571D02*
X28296480Y-7004857D01*
X28367908Y-6862000D01*
X28510765Y-6790571D01*
X28796480Y-6790571D01*
X28939337Y-6862000D01*
X28296480Y-7719142D02*
X28439337Y-7790571D01*
X28796480Y-7790571D01*
X28939337Y-7719142D01*
X29010765Y-7576285D01*
X29010765Y-7433428D01*
X28939337Y-7290571D01*
X28796480Y-7219142D01*
X28439337Y-7219142D01*
X28296480Y-7147714D01*
X27653622Y-7719142D02*
X27510765Y-7790571D01*
X27225051Y-7790571D01*
X27082194Y-7719142D01*
X27010765Y-7576285D01*
X27010765Y-7504857D01*
X27082194Y-7362000D01*
X27225051Y-7290571D01*
X27439337Y-7290571D01*
X27582194Y-7219142D01*
X27653622Y-7076285D01*
X27653622Y-7004857D01*
X27582194Y-6862000D01*
X27439337Y-6790571D01*
X27225051Y-6790571D01*
X27082194Y-6862000D01*
X26582194Y-6790571D02*
X26010765Y-6790571D01*
X26367908Y-6290571D02*
X26367908Y-7576285D01*
X26296480Y-7719142D01*
X26153622Y-7790571D01*
X26010765Y-7790571D01*
X24939337Y-7719142D02*
X25082194Y-7790571D01*
X25367908Y-7790571D01*
X25510765Y-7719142D01*
X25582194Y-7576285D01*
X25582194Y-7004857D01*
X25510765Y-6862000D01*
X25367908Y-6790571D01*
X25082194Y-6790571D01*
X24939337Y-6862000D01*
X24867908Y-7004857D01*
X24867908Y-7147714D01*
X25582194Y-7290571D01*
X24225051Y-7790571D02*
X24225051Y-6790571D01*
X24225051Y-7076285D02*
X24153622Y-6933428D01*
X24082194Y-6862000D01*
X23939337Y-6790571D01*
X23796480Y-6790571D01*
X21725051Y-6290571D02*
X21725051Y-7362000D01*
X21796480Y-7576285D01*
X21939337Y-7719142D01*
X22153622Y-7790571D01*
X22296480Y-7790571D01*
X21225051Y-6290571D02*
X20367908Y-6290571D01*
X20796480Y-7790571D02*
X20796480Y-6290571D01*
X19939337Y-7362000D02*
X19225051Y-7362000D01*
X20082194Y-7790571D02*
X19582194Y-6290571D01*
X19082194Y-7790571D01*
X17796480Y-6362000D02*
X17939337Y-6290571D01*
X18153622Y-6290571D01*
X18367908Y-6362000D01*
X18510765Y-6504857D01*
X18582194Y-6647714D01*
X18653622Y-6933428D01*
X18653622Y-7147714D01*
X18582194Y-7433428D01*
X18510765Y-7576285D01*
X18367908Y-7719142D01*
X18153622Y-7790571D01*
X18010765Y-7790571D01*
X17796480Y-7719142D01*
X17725051Y-7647714D01*
X17725051Y-7147714D01*
X18010765Y-7147714D01*
D10*
X33253857Y-9873485D02*
X32991952Y-10606819D01*
X32730047Y-9873485D01*
X31734809Y-10606819D02*
X32363380Y-10606819D01*
X32049095Y-10606819D02*
X32049095Y-9506819D01*
X32153857Y-9663961D01*
X32258619Y-9768723D01*
X32363380Y-9821104D01*
X31263380Y-10502057D02*
X31211000Y-10554438D01*
X31263380Y-10606819D01*
X31315761Y-10554438D01*
X31263380Y-10502057D01*
X31263380Y-10606819D01*
X30530047Y-9506819D02*
X30425285Y-9506819D01*
X30320523Y-9559200D01*
X30268142Y-9611580D01*
X30215761Y-9716342D01*
X30163380Y-9925866D01*
X30163380Y-10187771D01*
X30215761Y-10397295D01*
X30268142Y-10502057D01*
X30320523Y-10554438D01*
X30425285Y-10606819D01*
X30530047Y-10606819D01*
X30634809Y-10554438D01*
X30687190Y-10502057D01*
X30739571Y-10397295D01*
X30791952Y-10187771D01*
X30791952Y-9925866D01*
X30739571Y-9716342D01*
X30687190Y-9611580D01*
X30634809Y-9559200D01*
X30530047Y-9506819D01*
X28906238Y-9611580D02*
X28853857Y-9559200D01*
X28749095Y-9506819D01*
X28487190Y-9506819D01*
X28382428Y-9559200D01*
X28330047Y-9611580D01*
X28277666Y-9716342D01*
X28277666Y-9821104D01*
X28330047Y-9978247D01*
X28958619Y-10606819D01*
X28277666Y-10606819D01*
X27911000Y-9506819D02*
X27230047Y-9506819D01*
X27596714Y-9925866D01*
X27439571Y-9925866D01*
X27334809Y-9978247D01*
X27282428Y-10030628D01*
X27230047Y-10135390D01*
X27230047Y-10397295D01*
X27282428Y-10502057D01*
X27334809Y-10554438D01*
X27439571Y-10606819D01*
X27753857Y-10606819D01*
X27858619Y-10554438D01*
X27911000Y-10502057D01*
X26758619Y-10502057D02*
X26706238Y-10554438D01*
X26758619Y-10606819D01*
X26810999Y-10554438D01*
X26758619Y-10502057D01*
X26758619Y-10606819D01*
X26287190Y-9611580D02*
X26234809Y-9559200D01*
X26130047Y-9506819D01*
X25868142Y-9506819D01*
X25763380Y-9559200D01*
X25710999Y-9611580D01*
X25658619Y-9716342D01*
X25658619Y-9821104D01*
X25710999Y-9978247D01*
X26339571Y-10606819D01*
X25658619Y-10606819D01*
X25187190Y-10502057D02*
X25134809Y-10554438D01*
X25187190Y-10606819D01*
X25239571Y-10554438D01*
X25187190Y-10502057D01*
X25187190Y-10606819D01*
X24715761Y-9611580D02*
X24663380Y-9559200D01*
X24558619Y-9506819D01*
X24296714Y-9506819D01*
X24191952Y-9559200D01*
X24139571Y-9611580D01*
X24087190Y-9716342D01*
X24087190Y-9821104D01*
X24139571Y-9978247D01*
X24768142Y-10606819D01*
X24087190Y-10606819D01*
X23406238Y-9506819D02*
X23301476Y-9506819D01*
X23196714Y-9559200D01*
X23144333Y-9611580D01*
X23091952Y-9716342D01*
X23039571Y-9925866D01*
X23039571Y-10187771D01*
X23091952Y-10397295D01*
X23144333Y-10502057D01*
X23196714Y-10554438D01*
X23301476Y-10606819D01*
X23406238Y-10606819D01*
X23510999Y-10554438D01*
X23563380Y-10502057D01*
X23615761Y-10397295D01*
X23668142Y-10187771D01*
X23668142Y-9925866D01*
X23615761Y-9716342D01*
X23563380Y-9611580D01*
X23510999Y-9559200D01*
X23406238Y-9506819D01*
X21730047Y-9873485D02*
X21730047Y-10816342D01*
X21782428Y-10921104D01*
X21887190Y-10973485D01*
X21939571Y-10973485D01*
X21730047Y-9506819D02*
X21782428Y-9559200D01*
X21730047Y-9611580D01*
X21677666Y-9559200D01*
X21730047Y-9506819D01*
X21730047Y-9611580D01*
X21049095Y-10606819D02*
X21153857Y-10554438D01*
X21206238Y-10449676D01*
X21206238Y-9506819D01*
X20734809Y-9873485D02*
X20472904Y-10606819D01*
X20210999Y-9873485D02*
X20472904Y-10606819D01*
X20577666Y-10868723D01*
X20630047Y-10921104D01*
X20734809Y-10973485D01*
X19896714Y-9873485D02*
X19687190Y-10606819D01*
X19477666Y-10083009D01*
X19268142Y-10606819D01*
X19058619Y-9873485D01*
X18744333Y-10606819D02*
X18168142Y-9873485D01*
X18744333Y-9873485D02*
X18168142Y-10606819D01*
X17853857Y-9873485D02*
X17591952Y-10606819D01*
X17330047Y-9873485D02*
X17591952Y-10606819D01*
X17696714Y-10868723D01*
X17749095Y-10921104D01*
X17853857Y-10973485D01*
G04 #@! TO.C,G\u002A\u002A\u002A*
G36*
X39772285Y-10619864D02*
G01*
X39512640Y-10619864D01*
X39512640Y-9795775D01*
X39772285Y-9795775D01*
X39772285Y-10619864D01*
G37*
G36*
X41138240Y-12030975D02*
G01*
X41025352Y-12030975D01*
X41025352Y-11848456D01*
X41025113Y-11802298D01*
X41022523Y-11707972D01*
X41016768Y-11631901D01*
X41007457Y-11571155D01*
X40994198Y-11522802D01*
X40976599Y-11483911D01*
X40966656Y-11467492D01*
X40930259Y-11425423D01*
X40884922Y-11400719D01*
X40825126Y-11389959D01*
X40812553Y-11389154D01*
X40776204Y-11389292D01*
X40750858Y-11395900D01*
X40727650Y-11410879D01*
X40722959Y-11414644D01*
X40704959Y-11431264D01*
X40691030Y-11450023D01*
X40680657Y-11473840D01*
X40673326Y-11505635D01*
X40668520Y-11548325D01*
X40665725Y-11604832D01*
X40664426Y-11678073D01*
X40664107Y-11770968D01*
X40664107Y-12030975D01*
X40551218Y-12030975D01*
X40551218Y-11762091D01*
X40551552Y-11670696D01*
X40552691Y-11596065D01*
X40554793Y-11538165D01*
X40558012Y-11494036D01*
X40562506Y-11460717D01*
X40568430Y-11435249D01*
X40577165Y-11409680D01*
X40612461Y-11346210D01*
X40661740Y-11300414D01*
X40724500Y-11272664D01*
X40800240Y-11263331D01*
X40825064Y-11264023D01*
X40887617Y-11274945D01*
X40939247Y-11301295D01*
X40986213Y-11345848D01*
X41025352Y-11391573D01*
X41025352Y-10744042D01*
X41138240Y-10744042D01*
X41138240Y-12030975D01*
G37*
G36*
X42410750Y-7117566D02*
G01*
X42435832Y-7141631D01*
X42449176Y-7174973D01*
X42448357Y-7211305D01*
X42430950Y-7244341D01*
X42401966Y-7262878D01*
X42365925Y-7264872D01*
X42332929Y-7248381D01*
X42327804Y-7243080D01*
X42313981Y-7212745D01*
X42314377Y-7177449D01*
X42326781Y-7143914D01*
X42348982Y-7118864D01*
X42378768Y-7109020D01*
X42410750Y-7117566D01*
G37*
G36*
X42650553Y-11263800D02*
G01*
X42679951Y-11268400D01*
X42703443Y-11281441D01*
X42731302Y-11307158D01*
X42775129Y-11350986D01*
X42775129Y-11274620D01*
X42888018Y-11274620D01*
X42888018Y-12030975D01*
X42777274Y-12030975D01*
X42772928Y-11774153D01*
X42772782Y-11765620D01*
X42770847Y-11675226D01*
X42768161Y-11604106D01*
X42764144Y-11549212D01*
X42758213Y-11507494D01*
X42749787Y-11475905D01*
X42738283Y-11451396D01*
X42723122Y-11430918D01*
X42703720Y-11411423D01*
X42703160Y-11410909D01*
X42681004Y-11394546D01*
X42656729Y-11388514D01*
X42620420Y-11390301D01*
X42604039Y-11392303D01*
X42569353Y-11398177D01*
X42546529Y-11404283D01*
X42537596Y-11406666D01*
X42530606Y-11401230D01*
X42527488Y-11382070D01*
X42526774Y-11344769D01*
X42527713Y-11308651D01*
X42533597Y-11283346D01*
X42548834Y-11269792D01*
X42577828Y-11264338D01*
X42624981Y-11263331D01*
X42650553Y-11263800D01*
G37*
G36*
X43742810Y-11701002D02*
G01*
X43726019Y-11795437D01*
X43691778Y-11877252D01*
X43640790Y-11945303D01*
X43573756Y-11998449D01*
X43491381Y-12035548D01*
X43480261Y-12038875D01*
X43398511Y-12050683D01*
X43316721Y-12042360D01*
X43238767Y-12015663D01*
X43168525Y-11972351D01*
X43109872Y-11914183D01*
X43066685Y-11842916D01*
X43057481Y-11820553D01*
X43033114Y-11729845D01*
X43028245Y-11650060D01*
X43146949Y-11650060D01*
X43153027Y-11721412D01*
X43173158Y-11788240D01*
X43207727Y-11845532D01*
X43215847Y-11854621D01*
X43251120Y-11885360D01*
X43287975Y-11908008D01*
X43301267Y-11913500D01*
X43366882Y-11927716D01*
X43434966Y-11924484D01*
X43498948Y-11904760D01*
X43552259Y-11869501D01*
X43587764Y-11823182D01*
X43614154Y-11762269D01*
X43629689Y-11693765D01*
X43632825Y-11624489D01*
X43622018Y-11561261D01*
X43597376Y-11503820D01*
X43554273Y-11446192D01*
X43500400Y-11405273D01*
X43438877Y-11382132D01*
X43372820Y-11377841D01*
X43305349Y-11393467D01*
X43239581Y-11430080D01*
X43209194Y-11458993D01*
X43175417Y-11513837D01*
X43154541Y-11579197D01*
X43146949Y-11650060D01*
X43028245Y-11650060D01*
X43027555Y-11638762D01*
X43039775Y-11550486D01*
X43068745Y-11468198D01*
X43113436Y-11395079D01*
X43172819Y-11334310D01*
X43245864Y-11289073D01*
X43256170Y-11284437D01*
X43288132Y-11272133D01*
X43318465Y-11265646D01*
X43355199Y-11263791D01*
X43406367Y-11265382D01*
X43406916Y-11265408D01*
X43482484Y-11273933D01*
X43543610Y-11293322D01*
X43597013Y-11326660D01*
X43649412Y-11377036D01*
X43681751Y-11417121D01*
X43714707Y-11476259D01*
X43734548Y-11543656D01*
X43743558Y-11624489D01*
X43743691Y-11625685D01*
X43742810Y-11701002D01*
G37*
G36*
X44037651Y-9738493D02*
G01*
X44059602Y-9814898D01*
X44083173Y-9895841D01*
X44104220Y-9966942D01*
X44122022Y-10025825D01*
X44135860Y-10070112D01*
X44145013Y-10097423D01*
X44148762Y-10105382D01*
X44151007Y-10097800D01*
X44158945Y-10070519D01*
X44171829Y-10026042D01*
X44188910Y-9966963D01*
X44209439Y-9895875D01*
X44232665Y-9815370D01*
X44257839Y-9728042D01*
X44363561Y-9361153D01*
X44608019Y-9361153D01*
X44740798Y-9970753D01*
X44756042Y-10040855D01*
X44780044Y-10151704D01*
X44802287Y-10255015D01*
X44822333Y-10348716D01*
X44839742Y-10430731D01*
X44854074Y-10498988D01*
X44864891Y-10551412D01*
X44871753Y-10585930D01*
X44874220Y-10600467D01*
X44874118Y-10604214D01*
X44870583Y-10611529D01*
X44859375Y-10616026D01*
X44836771Y-10618185D01*
X44799050Y-10618484D01*
X44742492Y-10617400D01*
X44610120Y-10614220D01*
X44569029Y-10399731D01*
X44559049Y-10347584D01*
X44542318Y-10259968D01*
X44525293Y-10170623D01*
X44509493Y-10087516D01*
X44496435Y-10018614D01*
X44490586Y-9988139D01*
X44479879Y-9934843D01*
X44470763Y-9892641D01*
X44464055Y-9865240D01*
X44460575Y-9856345D01*
X44458494Y-9861905D01*
X44450803Y-9886662D01*
X44438273Y-9928852D01*
X44421652Y-9985903D01*
X44401686Y-10055247D01*
X44379123Y-10134312D01*
X44354711Y-10220528D01*
X44338690Y-10277298D01*
X44315182Y-10360530D01*
X44293951Y-10435611D01*
X44275766Y-10499825D01*
X44261397Y-10550457D01*
X44251613Y-10584791D01*
X44247184Y-10600109D01*
X44246540Y-10601999D01*
X44239344Y-10611162D01*
X44223322Y-10616595D01*
X44193900Y-10619197D01*
X44146499Y-10619864D01*
X44051835Y-10619864D01*
X44041646Y-10583175D01*
X44038617Y-10572273D01*
X44007411Y-10460918D01*
X43976824Y-10353362D01*
X43947456Y-10251601D01*
X43919908Y-10157631D01*
X43894781Y-10073447D01*
X43872677Y-10001045D01*
X43854197Y-9942418D01*
X43839942Y-9899564D01*
X43830513Y-9874477D01*
X43826512Y-9869153D01*
X43825111Y-9876180D01*
X43819662Y-9904136D01*
X43810826Y-9949791D01*
X43799149Y-10010325D01*
X43785173Y-10082914D01*
X43769442Y-10164738D01*
X43752502Y-10252975D01*
X43683193Y-10614220D01*
X43550894Y-10617400D01*
X43526336Y-10617957D01*
X43477592Y-10618558D01*
X43446231Y-10617587D01*
X43428530Y-10614568D01*
X43420764Y-10609021D01*
X43419211Y-10600467D01*
X43420157Y-10594138D01*
X43425339Y-10567222D01*
X43434648Y-10521585D01*
X43447646Y-10459301D01*
X43463893Y-10382443D01*
X43482950Y-10293085D01*
X43504377Y-10193302D01*
X43527736Y-10085166D01*
X43552587Y-9970753D01*
X43685347Y-9361153D01*
X43929896Y-9361153D01*
X44037651Y-9738493D01*
G37*
G36*
X45597352Y-12459953D02*
G01*
X45473174Y-12459953D01*
X45473174Y-7842798D01*
X45597352Y-7842798D01*
X45597352Y-12459953D01*
G37*
G36*
X42221974Y-7729909D02*
G01*
X42097796Y-7729909D01*
X42097796Y-7052575D01*
X42221974Y-7052575D01*
X42221974Y-7729909D01*
G37*
G36*
X40409046Y-11758524D02*
G01*
X40393846Y-11815524D01*
X40371525Y-11864462D01*
X40338163Y-11915047D01*
X40302367Y-11955685D01*
X40235412Y-12005768D01*
X40158329Y-12038455D01*
X40115263Y-12046586D01*
X40045836Y-12048336D01*
X39976236Y-12039253D01*
X39916846Y-12020123D01*
X39916812Y-12020107D01*
X39845897Y-11977904D01*
X39791091Y-11923830D01*
X39747394Y-11852952D01*
X39741046Y-11839939D01*
X39726649Y-11807886D01*
X39717599Y-11779798D01*
X39712664Y-11749040D01*
X39710607Y-11708977D01*
X39710393Y-11679795D01*
X39819991Y-11679795D01*
X39832175Y-11753884D01*
X39861105Y-11822400D01*
X39906030Y-11875146D01*
X39966810Y-11911903D01*
X39994252Y-11921277D01*
X40062330Y-11929299D01*
X40130179Y-11918452D01*
X40192201Y-11890080D01*
X40242798Y-11845532D01*
X40251793Y-11834055D01*
X40281339Y-11782143D01*
X40297751Y-11721320D01*
X40302752Y-11645843D01*
X40301797Y-11620303D01*
X40287057Y-11545019D01*
X40256498Y-11481517D01*
X40212693Y-11431596D01*
X40158214Y-11397055D01*
X40095633Y-11379692D01*
X40027523Y-11381306D01*
X39956456Y-11403696D01*
X39932088Y-11416810D01*
X39879432Y-11461995D01*
X39842653Y-11521989D01*
X39822567Y-11595139D01*
X39819991Y-11679795D01*
X39710393Y-11679795D01*
X39710196Y-11652976D01*
X39710196Y-11651257D01*
X39710748Y-11594741D01*
X39713064Y-11554281D01*
X39718190Y-11523531D01*
X39727175Y-11496142D01*
X39741064Y-11465767D01*
X39774890Y-11408829D01*
X39836059Y-11341723D01*
X39911706Y-11291697D01*
X39923322Y-11286343D01*
X39990541Y-11267299D01*
X40065981Y-11261597D01*
X40141277Y-11269276D01*
X40208061Y-11290371D01*
X40266441Y-11325059D01*
X40328435Y-11383717D01*
X40375740Y-11456021D01*
X40406914Y-11538949D01*
X40420515Y-11629479D01*
X40419584Y-11645843D01*
X40415103Y-11724588D01*
X40409046Y-11758524D01*
G37*
G36*
X44750685Y-8621731D02*
G01*
X44886152Y-8621731D01*
X44886152Y-8712042D01*
X44750685Y-8712042D01*
X44750685Y-9231331D01*
X44660374Y-9231331D01*
X44660374Y-8712042D01*
X44524907Y-8712042D01*
X44524907Y-8621731D01*
X44660374Y-8621731D01*
X44660374Y-8384664D01*
X44750685Y-8384664D01*
X44750685Y-8621731D01*
G37*
G36*
X38897037Y-10156083D02*
G01*
X38897396Y-10213284D01*
X38897393Y-10219821D01*
X38896773Y-10276601D01*
X38894424Y-10317561D01*
X38889395Y-10348853D01*
X38880738Y-10376630D01*
X38867504Y-10407046D01*
X38826245Y-10476009D01*
X38762814Y-10542571D01*
X38684371Y-10593194D01*
X38592596Y-10626536D01*
X38506504Y-10640228D01*
X38411525Y-10637904D01*
X38321959Y-10617792D01*
X38241005Y-10581001D01*
X38171862Y-10528640D01*
X38117728Y-10461820D01*
X38100230Y-10431000D01*
X38081995Y-10392449D01*
X38072087Y-10363042D01*
X38064840Y-10326353D01*
X38193252Y-10326425D01*
X38321663Y-10326496D01*
X38340337Y-10359323D01*
X38356616Y-10382621D01*
X38397205Y-10415687D01*
X38445083Y-10432015D01*
X38495471Y-10431987D01*
X38543588Y-10415981D01*
X38584654Y-10384378D01*
X38613890Y-10337559D01*
X38618374Y-10326011D01*
X38628192Y-10297586D01*
X38632107Y-10280969D01*
X38630684Y-10279623D01*
X38611907Y-10276263D01*
X38572388Y-10273561D01*
X38513475Y-10271566D01*
X38436516Y-10270332D01*
X38342860Y-10269909D01*
X38053612Y-10269909D01*
X38058403Y-10169699D01*
X38061828Y-10119561D01*
X38063027Y-10111864D01*
X38325786Y-10111864D01*
X38631548Y-10111864D01*
X38620529Y-10082882D01*
X38604585Y-10047586D01*
X38572967Y-10006397D01*
X38531646Y-9983509D01*
X38477446Y-9976564D01*
X38452105Y-9978498D01*
X38399302Y-9997059D01*
X38358784Y-10033701D01*
X38333121Y-10086464D01*
X38325786Y-10111864D01*
X38063027Y-10111864D01*
X38068550Y-10076392D01*
X38080457Y-10038060D01*
X38099769Y-9995195D01*
X38109504Y-9976723D01*
X38162004Y-9904972D01*
X38228624Y-9848297D01*
X38306429Y-9807588D01*
X38392485Y-9783733D01*
X38483860Y-9777621D01*
X38577618Y-9790141D01*
X38670826Y-9822183D01*
X38744813Y-9865834D01*
X38809995Y-9928623D01*
X38860598Y-10008476D01*
X38869546Y-10026915D01*
X38882594Y-10056873D01*
X38890769Y-10084183D01*
X38894735Y-10111864D01*
X38895206Y-10115151D01*
X38897037Y-10156083D01*
G37*
G36*
X39240256Y-7431412D02*
G01*
X39252166Y-7438146D01*
X39270631Y-7451902D01*
X39297676Y-7474317D01*
X39335327Y-7507029D01*
X39385610Y-7551678D01*
X39450552Y-7609899D01*
X39484860Y-7640816D01*
X39533827Y-7685523D01*
X39568807Y-7718627D01*
X39591749Y-7742191D01*
X39604603Y-7758278D01*
X39609320Y-7768950D01*
X39607850Y-7776271D01*
X39606371Y-7778270D01*
X39600071Y-7781079D01*
X39589420Y-7777862D01*
X39572385Y-7767062D01*
X39546935Y-7747122D01*
X39511037Y-7716487D01*
X39462660Y-7673600D01*
X39399771Y-7616906D01*
X39381823Y-7600641D01*
X39324529Y-7548344D01*
X39281979Y-7508572D01*
X39252436Y-7479429D01*
X39234164Y-7459021D01*
X39225425Y-7445452D01*
X39224484Y-7436829D01*
X39229603Y-7431257D01*
X39232874Y-7430061D01*
X39240256Y-7431412D01*
G37*
G36*
X42450358Y-7585975D02*
G01*
X42453396Y-7837153D01*
X42484440Y-7840725D01*
X42491762Y-7841700D01*
X42507553Y-7847538D01*
X42514155Y-7862591D01*
X42515485Y-7893520D01*
X42514733Y-7914862D01*
X42508927Y-7938249D01*
X42495729Y-7947905D01*
X42475184Y-7951714D01*
X42423775Y-7948636D01*
X42378369Y-7929204D01*
X42345607Y-7895727D01*
X42341496Y-7888552D01*
X42335398Y-7874456D01*
X42330861Y-7856344D01*
X42327657Y-7831122D01*
X42325559Y-7795696D01*
X42324338Y-7746973D01*
X42323766Y-7681861D01*
X42323616Y-7597264D01*
X42323574Y-7334798D01*
X42447320Y-7334798D01*
X42450358Y-7585975D01*
G37*
G36*
X43887379Y-8983935D02*
G01*
X43866621Y-9065458D01*
X43828413Y-9133964D01*
X43773744Y-9188018D01*
X43703601Y-9226186D01*
X43702387Y-9226646D01*
X43645257Y-9238752D01*
X43579436Y-9238525D01*
X43514328Y-9226803D01*
X43459334Y-9204425D01*
X43423557Y-9179674D01*
X43373586Y-9128494D01*
X43340628Y-9070414D01*
X43328844Y-9039420D01*
X43384248Y-9039420D01*
X43386907Y-9039425D01*
X43420538Y-9041311D01*
X43438444Y-9048206D01*
X43446956Y-9062432D01*
X43450252Y-9069258D01*
X43469295Y-9091540D01*
X43497212Y-9113868D01*
X43505556Y-9119052D01*
X43561356Y-9140035D01*
X43620704Y-9142968D01*
X43678150Y-9129041D01*
X43728246Y-9099440D01*
X43765544Y-9055355D01*
X43774496Y-9039716D01*
X43786739Y-9016623D01*
X43792012Y-8999449D01*
X43788086Y-8987319D01*
X43772731Y-8979357D01*
X43743717Y-8974688D01*
X43698816Y-8972437D01*
X43635797Y-8971728D01*
X43552430Y-8971687D01*
X43313731Y-8971687D01*
X43320359Y-8901131D01*
X43321691Y-8888309D01*
X43325702Y-8868006D01*
X43418596Y-8868006D01*
X43423496Y-8872575D01*
X43443021Y-8876629D01*
X43479270Y-8879357D01*
X43534187Y-8880893D01*
X43609719Y-8881375D01*
X43800842Y-8881375D01*
X43790369Y-8844687D01*
X43767787Y-8793851D01*
X43729753Y-8750397D01*
X43682087Y-8721275D01*
X43628866Y-8706933D01*
X43574167Y-8707820D01*
X43522068Y-8724385D01*
X43476644Y-8757076D01*
X43441975Y-8806343D01*
X43434950Y-8821474D01*
X43423228Y-8850474D01*
X43418596Y-8868006D01*
X43325702Y-8868006D01*
X43336074Y-8815502D01*
X43362706Y-8754833D01*
X43404742Y-8698737D01*
X43448989Y-8658991D01*
X43515067Y-8624222D01*
X43587321Y-8609381D01*
X43662216Y-8615072D01*
X43736218Y-8641901D01*
X43771768Y-8663715D01*
X43827120Y-8716901D01*
X43865766Y-8784206D01*
X43887012Y-8864215D01*
X43887604Y-8881375D01*
X43890164Y-8955511D01*
X43887379Y-8983935D01*
G37*
G36*
X39444907Y-12459953D02*
G01*
X39444907Y-11917334D01*
X39405096Y-11957145D01*
X39389145Y-11972379D01*
X39330238Y-12015234D01*
X39266311Y-12039177D01*
X39190907Y-12046913D01*
X39162916Y-12046470D01*
X39107444Y-12039749D01*
X39060076Y-12023701D01*
X38999163Y-11986628D01*
X38941068Y-11928340D01*
X38896653Y-11855936D01*
X38867261Y-11772357D01*
X38854236Y-11680545D01*
X38855910Y-11645843D01*
X38970884Y-11645843D01*
X38972009Y-11679673D01*
X38976642Y-11725671D01*
X38983659Y-11760919D01*
X38984932Y-11764979D01*
X39012914Y-11820560D01*
X39055856Y-11870662D01*
X39106883Y-11907125D01*
X39149975Y-11922883D01*
X39214224Y-11928641D01*
X39278348Y-11916940D01*
X39336357Y-11889102D01*
X39382258Y-11846446D01*
X39413945Y-11793881D01*
X39436485Y-11725686D01*
X39443675Y-11654586D01*
X39436380Y-11584425D01*
X39415465Y-11519047D01*
X39381793Y-11462298D01*
X39336229Y-11418021D01*
X39279638Y-11390060D01*
X39227960Y-11379600D01*
X39158790Y-11382305D01*
X39097183Y-11404135D01*
X39045363Y-11443248D01*
X39005556Y-11497799D01*
X38979988Y-11565946D01*
X38970884Y-11645843D01*
X38855910Y-11645843D01*
X38858921Y-11583439D01*
X38878789Y-11497186D01*
X38915267Y-11416710D01*
X38965850Y-11351760D01*
X39029161Y-11303672D01*
X39103819Y-11273786D01*
X39188448Y-11263441D01*
X39235767Y-11265364D01*
X39292359Y-11276859D01*
X39342078Y-11301615D01*
X39393425Y-11342930D01*
X39444907Y-11390384D01*
X39444907Y-11274620D01*
X39557796Y-11274620D01*
X39557796Y-12459953D01*
X39444907Y-12459953D01*
G37*
G36*
X42874914Y-7648345D02*
G01*
X42845845Y-7690142D01*
X42807728Y-7720953D01*
X42763134Y-7737889D01*
X42714631Y-7738061D01*
X42664790Y-7718578D01*
X42645853Y-7707258D01*
X42626659Y-7697945D01*
X42618675Y-7700039D01*
X42617085Y-7712975D01*
X42609577Y-7725133D01*
X42582286Y-7729909D01*
X42547487Y-7729909D01*
X42551084Y-7542481D01*
X42646864Y-7542481D01*
X42647797Y-7581441D01*
X42670514Y-7619842D01*
X42671332Y-7620732D01*
X42700361Y-7637786D01*
X42733688Y-7637794D01*
X42765138Y-7623510D01*
X42788536Y-7597689D01*
X42797707Y-7563087D01*
X42797322Y-7553998D01*
X42785346Y-7515851D01*
X42760532Y-7490578D01*
X42728218Y-7480190D01*
X42693736Y-7486697D01*
X42662422Y-7512109D01*
X42646864Y-7542481D01*
X42551084Y-7542481D01*
X42551241Y-7534313D01*
X42551389Y-7526611D01*
X42552853Y-7457663D01*
X42554563Y-7406995D01*
X42557091Y-7370684D01*
X42561013Y-7344810D01*
X42566899Y-7325452D01*
X42575324Y-7308691D01*
X42586861Y-7290604D01*
X42615613Y-7255368D01*
X42664564Y-7221301D01*
X42726051Y-7203764D01*
X42802417Y-7201792D01*
X42837752Y-7205116D01*
X42897291Y-7218462D01*
X42946656Y-7243333D01*
X42993485Y-7282972D01*
X42994383Y-7283875D01*
X43040362Y-7345432D01*
X43072399Y-7420561D01*
X43089493Y-7504402D01*
X43090646Y-7592101D01*
X43074860Y-7678800D01*
X43071012Y-7690719D01*
X43039959Y-7751766D01*
X42994260Y-7807632D01*
X42939453Y-7852545D01*
X42881073Y-7880737D01*
X42880585Y-7880886D01*
X42834401Y-7890120D01*
X42769035Y-7896072D01*
X42687640Y-7898456D01*
X42549352Y-7899242D01*
X42549352Y-7811253D01*
X42687640Y-7807187D01*
X42698200Y-7806868D01*
X42755901Y-7804517D01*
X42797199Y-7801068D01*
X42827453Y-7795606D01*
X42852023Y-7787215D01*
X42876267Y-7774982D01*
X42880571Y-7772507D01*
X42931957Y-7729958D01*
X42969220Y-7674210D01*
X42991831Y-7609787D01*
X42999262Y-7541212D01*
X42990986Y-7473010D01*
X42966473Y-7409705D01*
X42925197Y-7355821D01*
X42888056Y-7326548D01*
X42834474Y-7301405D01*
X42780399Y-7292203D01*
X42729641Y-7298329D01*
X42686006Y-7319168D01*
X42653303Y-7354106D01*
X42635341Y-7402531D01*
X42634146Y-7410051D01*
X42632557Y-7427732D01*
X42635171Y-7427693D01*
X42642836Y-7417370D01*
X42669917Y-7399103D01*
X42706346Y-7385383D01*
X42743524Y-7379995D01*
X42753073Y-7380368D01*
X42803524Y-7394899D01*
X42846786Y-7428406D01*
X42878794Y-7477946D01*
X42882136Y-7485937D01*
X42895630Y-7543353D01*
X42894461Y-7563087D01*
X42892366Y-7598452D01*
X42874914Y-7648345D01*
G37*
G36*
X41995879Y-9781450D02*
G01*
X42048268Y-9791000D01*
X42097260Y-9812319D01*
X42151418Y-9848483D01*
X42188107Y-9875947D01*
X42188107Y-9795775D01*
X42447752Y-9795775D01*
X42447752Y-10619864D01*
X42188107Y-10619864D01*
X42188107Y-10376791D01*
X42187837Y-10298075D01*
X42186522Y-10224610D01*
X42183609Y-10168118D01*
X42178549Y-10125584D01*
X42170793Y-10093994D01*
X42159792Y-10070332D01*
X42144999Y-10051585D01*
X42125864Y-10034737D01*
X42098460Y-10018852D01*
X42053153Y-10009366D01*
X42008740Y-10016283D01*
X41972764Y-10039374D01*
X41968178Y-10044325D01*
X41960679Y-10053864D01*
X41954976Y-10065549D01*
X41950777Y-10082299D01*
X41947786Y-10107033D01*
X41945708Y-10142669D01*
X41944250Y-10192125D01*
X41943116Y-10258321D01*
X41942013Y-10344174D01*
X41938630Y-10619864D01*
X41680107Y-10619864D01*
X41680107Y-10340014D01*
X41680422Y-10249262D01*
X41681564Y-10169982D01*
X41683679Y-10107634D01*
X41686913Y-10059288D01*
X41691412Y-10022014D01*
X41697321Y-9992881D01*
X41720388Y-9926805D01*
X41760823Y-9862703D01*
X41814581Y-9816748D01*
X41881410Y-9789144D01*
X41961060Y-9780092D01*
X41995879Y-9781450D01*
G37*
G36*
X42425174Y-12030975D02*
G01*
X42312858Y-12030975D01*
X42306640Y-11679307D01*
X42166977Y-11850379D01*
X42162232Y-11856184D01*
X42118707Y-11908800D01*
X42079628Y-11954956D01*
X42047420Y-11991868D01*
X42024506Y-12016752D01*
X42013313Y-12026823D01*
X42002217Y-12028694D01*
X41972934Y-12029759D01*
X41935270Y-12028763D01*
X41871227Y-12025331D01*
X42024657Y-11844709D01*
X42038314Y-11828605D01*
X42083259Y-11775230D01*
X42122578Y-11727966D01*
X42154006Y-11689572D01*
X42175278Y-11662807D01*
X42184129Y-11650432D01*
X42184193Y-11649060D01*
X42176075Y-11633261D01*
X42155745Y-11603791D01*
X42125293Y-11563441D01*
X42086809Y-11515001D01*
X42042384Y-11461261D01*
X42031862Y-11448751D01*
X41988240Y-11396569D01*
X41950530Y-11350959D01*
X41920904Y-11314584D01*
X41901535Y-11290104D01*
X41894596Y-11280182D01*
X41903395Y-11277514D01*
X41929161Y-11275422D01*
X41965953Y-11274620D01*
X42037310Y-11274620D01*
X42306640Y-11605402D01*
X42309597Y-11174722D01*
X42312553Y-10744042D01*
X42425174Y-10744042D01*
X42425174Y-12030975D01*
G37*
G36*
X44457174Y-9231331D02*
G01*
X44369795Y-9231331D01*
X44364632Y-9047887D01*
X44363474Y-9010001D01*
X44360776Y-8946548D01*
X44357243Y-8899406D01*
X44352370Y-8864354D01*
X44345652Y-8837173D01*
X44336582Y-8813642D01*
X44318580Y-8778468D01*
X44290047Y-8743281D01*
X44253670Y-8723368D01*
X44203701Y-8714439D01*
X44182402Y-8712950D01*
X44153327Y-8713852D01*
X44133681Y-8721775D01*
X44114944Y-8739085D01*
X44111317Y-8743087D01*
X44098468Y-8759936D01*
X44088865Y-8779585D01*
X44082046Y-8805332D01*
X44077548Y-8840470D01*
X44074908Y-8888294D01*
X44073664Y-8952102D01*
X44073352Y-9035187D01*
X44073352Y-9231331D01*
X43983040Y-9231331D01*
X43983040Y-9018891D01*
X43983314Y-8958882D01*
X43984891Y-8883029D01*
X43988029Y-8824925D01*
X43992908Y-8781659D01*
X43999708Y-8750324D01*
X44019225Y-8704458D01*
X44057618Y-8656654D01*
X44106598Y-8624701D01*
X44162209Y-8609518D01*
X44220494Y-8612025D01*
X44277498Y-8633140D01*
X44329263Y-8673782D01*
X44366863Y-8713650D01*
X44366863Y-8204042D01*
X44457174Y-8204042D01*
X44457174Y-9231331D01*
G37*
G36*
X43390170Y-10317175D02*
G01*
X43359401Y-10410450D01*
X43311676Y-10489596D01*
X43248007Y-10553515D01*
X43169406Y-10601108D01*
X43076885Y-10631275D01*
X43056670Y-10634671D01*
X42993137Y-10638154D01*
X42921846Y-10634430D01*
X42852382Y-10624272D01*
X42794332Y-10608455D01*
X42749341Y-10587151D01*
X42685099Y-10541867D01*
X42629605Y-10485617D01*
X42589752Y-10424596D01*
X42574788Y-10389712D01*
X42550213Y-10295614D01*
X42545154Y-10213941D01*
X42804368Y-10213941D01*
X42805577Y-10245322D01*
X42818966Y-10312343D01*
X42846841Y-10363160D01*
X42888793Y-10396891D01*
X42939236Y-10412898D01*
X42999380Y-10413924D01*
X43055180Y-10397749D01*
X43074954Y-10385273D01*
X43108387Y-10346832D01*
X43130418Y-10296018D01*
X43140917Y-10237733D01*
X43139753Y-10176878D01*
X43126798Y-10118357D01*
X43101920Y-10067072D01*
X43064990Y-10027926D01*
X43058629Y-10023595D01*
X43022365Y-10009043D01*
X42972685Y-10004620D01*
X42919622Y-10011513D01*
X42870028Y-10036455D01*
X42833927Y-10078956D01*
X42811860Y-10138342D01*
X42804368Y-10213941D01*
X42545154Y-10213941D01*
X42544065Y-10196357D01*
X42556380Y-10097624D01*
X42587192Y-10005097D01*
X42592572Y-9993855D01*
X42640068Y-9921860D01*
X42701260Y-9864469D01*
X42773055Y-9821681D01*
X42852363Y-9793496D01*
X42936091Y-9779915D01*
X43021149Y-9780937D01*
X43104444Y-9796562D01*
X43182886Y-9826791D01*
X43253384Y-9871623D01*
X43312844Y-9931058D01*
X43358178Y-10005097D01*
X43384726Y-10078244D01*
X43401369Y-10180319D01*
X43398560Y-10237733D01*
X43396271Y-10284514D01*
X43390170Y-10317175D01*
G37*
G36*
X44343224Y-11267511D02*
G01*
X44353681Y-11285768D01*
X44368156Y-11316624D01*
X44387707Y-11362182D01*
X44413391Y-11424548D01*
X44446268Y-11505826D01*
X44471103Y-11567109D01*
X44498233Y-11633119D01*
X44521748Y-11689318D01*
X44540466Y-11732914D01*
X44553203Y-11761116D01*
X44558774Y-11771133D01*
X44561302Y-11767271D01*
X44571336Y-11745766D01*
X44587636Y-11707942D01*
X44608977Y-11656713D01*
X44634138Y-11594990D01*
X44661894Y-11525686D01*
X44759370Y-11280264D01*
X44822761Y-11276879D01*
X44849591Y-11276030D01*
X44875953Y-11276867D01*
X44886152Y-11279674D01*
X44885370Y-11282206D01*
X44877825Y-11301734D01*
X44863227Y-11338024D01*
X44842757Y-11388232D01*
X44817596Y-11449515D01*
X44788924Y-11519030D01*
X44757924Y-11593935D01*
X44725775Y-11671387D01*
X44693658Y-11748542D01*
X44662756Y-11822559D01*
X44634248Y-11890593D01*
X44609316Y-11949803D01*
X44589140Y-11997345D01*
X44574903Y-12030376D01*
X44567783Y-12046053D01*
X44560608Y-12057699D01*
X44553513Y-12062987D01*
X44549776Y-12054577D01*
X44538787Y-12027622D01*
X44521727Y-11984905D01*
X44499725Y-11929269D01*
X44473908Y-11863556D01*
X44445405Y-11790607D01*
X44420063Y-11726430D01*
X44393537Y-11661193D01*
X44370401Y-11606350D01*
X44351814Y-11564580D01*
X44338937Y-11538558D01*
X44332929Y-11530962D01*
X44329572Y-11537468D01*
X44318652Y-11562745D01*
X44301690Y-11604038D01*
X44279902Y-11658337D01*
X44254505Y-11722631D01*
X44226715Y-11793909D01*
X44207536Y-11843175D01*
X44181237Y-11909924D01*
X44158147Y-11967590D01*
X44139484Y-12013172D01*
X44126464Y-12043671D01*
X44120306Y-12056087D01*
X44116331Y-12050429D01*
X44104596Y-12026753D01*
X44086389Y-11987246D01*
X44062885Y-11934667D01*
X44035260Y-11871778D01*
X44004690Y-11801339D01*
X43972351Y-11726110D01*
X43939418Y-11648851D01*
X43907068Y-11572323D01*
X43876477Y-11499287D01*
X43848819Y-11432502D01*
X43825271Y-11374729D01*
X43807008Y-11328728D01*
X43795207Y-11297261D01*
X43791044Y-11283087D01*
X43796254Y-11279683D01*
X43818447Y-11276036D01*
X43852134Y-11274620D01*
X43913138Y-11274620D01*
X44012326Y-11523085D01*
X44031291Y-11570062D01*
X44057915Y-11634130D01*
X44081314Y-11688222D01*
X44100248Y-11729571D01*
X44113477Y-11755411D01*
X44119764Y-11762974D01*
X44121578Y-11759977D01*
X44131144Y-11739365D01*
X44147106Y-11702241D01*
X44168144Y-11651754D01*
X44192939Y-11591052D01*
X44220174Y-11523281D01*
X44230951Y-11496311D01*
X44258010Y-11429073D01*
X44282454Y-11368998D01*
X44302860Y-11319544D01*
X44317807Y-11284168D01*
X44325871Y-11266329D01*
X44330133Y-11260374D01*
X44335727Y-11259748D01*
X44343224Y-11267511D01*
G37*
G36*
X40618952Y-10009691D02*
G01*
X40443123Y-10012800D01*
X40267295Y-10015909D01*
X40434979Y-10275553D01*
X40479246Y-10344168D01*
X40522190Y-10410872D01*
X40560515Y-10470540D01*
X40592309Y-10520193D01*
X40615662Y-10556850D01*
X40628661Y-10577531D01*
X40654660Y-10619864D01*
X39862596Y-10619864D01*
X39862596Y-10394087D01*
X40222409Y-10394087D01*
X40048147Y-10101173D01*
X40031506Y-10073173D01*
X39989234Y-10001780D01*
X39951479Y-9937630D01*
X39919652Y-9883153D01*
X39895168Y-9840773D01*
X39879441Y-9812919D01*
X39873885Y-9802018D01*
X39878888Y-9800998D01*
X39903483Y-9799586D01*
X39946250Y-9798332D01*
X40004558Y-9797280D01*
X40075776Y-9796473D01*
X40157273Y-9795957D01*
X40246418Y-9795775D01*
X40618952Y-9795775D01*
X40618952Y-10009691D01*
G37*
G36*
X40354775Y-7467418D02*
G01*
X40396176Y-7600039D01*
X40436823Y-7467418D01*
X40477470Y-7334798D01*
X40613122Y-7334960D01*
X40748774Y-7335123D01*
X40780903Y-7393354D01*
X40813033Y-7451585D01*
X40846746Y-7393191D01*
X40880460Y-7334798D01*
X41026907Y-7334798D01*
X40964040Y-7424005D01*
X40948051Y-7447163D01*
X40923943Y-7484191D01*
X40907350Y-7512535D01*
X40901174Y-7527423D01*
X40902327Y-7531736D01*
X40913566Y-7552595D01*
X40934215Y-7584227D01*
X40961112Y-7621659D01*
X40975552Y-7640880D01*
X41005440Y-7680995D01*
X41022488Y-7706868D01*
X41026773Y-7721597D01*
X41018372Y-7728280D01*
X40997363Y-7730018D01*
X40963825Y-7729909D01*
X40889676Y-7729909D01*
X40854946Y-7673464D01*
X40838983Y-7648760D01*
X40822170Y-7625863D01*
X40812717Y-7617031D01*
X40806482Y-7622448D01*
X40791869Y-7642945D01*
X40773523Y-7673476D01*
X40741827Y-7729909D01*
X40669100Y-7729909D01*
X40633583Y-7729067D01*
X40606668Y-7726702D01*
X40596374Y-7723347D01*
X40599598Y-7716923D01*
X40613659Y-7695206D01*
X40636320Y-7662403D01*
X40664769Y-7622648D01*
X40733163Y-7528511D01*
X40673235Y-7437553D01*
X40657217Y-7413558D01*
X40633298Y-7379039D01*
X40615651Y-7355260D01*
X40607255Y-7346341D01*
X40602494Y-7354907D01*
X40591565Y-7381689D01*
X40575873Y-7423382D01*
X40556687Y-7476611D01*
X40535274Y-7537998D01*
X40515388Y-7594662D01*
X40495496Y-7648750D01*
X40478742Y-7691579D01*
X40466457Y-7719762D01*
X40459969Y-7729909D01*
X40458973Y-7735025D01*
X40463631Y-7757204D01*
X40474251Y-7792906D01*
X40489617Y-7837713D01*
X40501077Y-7869622D01*
X40515297Y-7910060D01*
X40525031Y-7938830D01*
X40528640Y-7951165D01*
X40522335Y-7953265D01*
X40498982Y-7954356D01*
X40464319Y-7953428D01*
X40399997Y-7950042D01*
X40295617Y-7650887D01*
X40291767Y-7639848D01*
X40264972Y-7562763D01*
X40240879Y-7493015D01*
X40220442Y-7433397D01*
X40204615Y-7386703D01*
X40194352Y-7355728D01*
X40190606Y-7343264D01*
X40195784Y-7339799D01*
X40217926Y-7336195D01*
X40251674Y-7334798D01*
X40313375Y-7334798D01*
X40354775Y-7467418D01*
G37*
G36*
X39215976Y-7571800D02*
G01*
X39238828Y-7588162D01*
X39272405Y-7617190D01*
X39319250Y-7660613D01*
X39341882Y-7682644D01*
X39371763Y-7714658D01*
X39390345Y-7738732D01*
X39394765Y-7751422D01*
X39392727Y-7754182D01*
X39383705Y-7757973D01*
X39369039Y-7752551D01*
X39346187Y-7736189D01*
X39312609Y-7707161D01*
X39265764Y-7663738D01*
X39243132Y-7641706D01*
X39213252Y-7609693D01*
X39194669Y-7585619D01*
X39190249Y-7572929D01*
X39192287Y-7570169D01*
X39201309Y-7566378D01*
X39215976Y-7571800D01*
G37*
G36*
X40099388Y-8681550D02*
G01*
X40104242Y-8752665D01*
X40107979Y-8825466D01*
X40110979Y-8903953D01*
X40112354Y-8949594D01*
X40113890Y-9021819D01*
X40114451Y-9085086D01*
X40114042Y-9135994D01*
X40113626Y-9146664D01*
X40112671Y-9171144D01*
X40110347Y-9187136D01*
X40101220Y-9197874D01*
X40077317Y-9221551D01*
X40041834Y-9254808D01*
X39997704Y-9294902D01*
X39947862Y-9339089D01*
X39911655Y-9370926D01*
X39866313Y-9411559D01*
X39834411Y-9441806D01*
X39813633Y-9464272D01*
X39801660Y-9481562D01*
X39796176Y-9496278D01*
X39794863Y-9511026D01*
X39791483Y-9542797D01*
X39772008Y-9591263D01*
X39738893Y-9630028D01*
X39696369Y-9655933D01*
X39648666Y-9665817D01*
X39600015Y-9656523D01*
X39592368Y-9652918D01*
X39561404Y-9631904D01*
X39531977Y-9604041D01*
X39509992Y-9575545D01*
X39501352Y-9552633D01*
X39499995Y-9548418D01*
X39483518Y-9535664D01*
X39453374Y-9524555D01*
X39445870Y-9522605D01*
X39403571Y-9511547D01*
X39365885Y-9501605D01*
X39361027Y-9500329D01*
X39333582Y-9493751D01*
X39317907Y-9491038D01*
X39317036Y-9491838D01*
X39314056Y-9507796D01*
X39311644Y-9541112D01*
X39310029Y-9587676D01*
X39309440Y-9643375D01*
X39309440Y-9795775D01*
X39444907Y-9795775D01*
X39444907Y-10021553D01*
X39309440Y-10021553D01*
X39309440Y-10619864D01*
X39049796Y-10619864D01*
X39049796Y-10021553D01*
X38914329Y-10021553D01*
X38914329Y-9795775D01*
X39049796Y-9795775D01*
X39049796Y-9480566D01*
X39247352Y-9474042D01*
X38976418Y-9407723D01*
X38921258Y-9394095D01*
X38849453Y-9375961D01*
X38786419Y-9359589D01*
X38735453Y-9345855D01*
X38699850Y-9335634D01*
X38682907Y-9329801D01*
X38677285Y-9326467D01*
X38652879Y-9307295D01*
X38626463Y-9281670D01*
X38620429Y-9275589D01*
X38596912Y-9253362D01*
X38579464Y-9237290D01*
X38790152Y-9237290D01*
X38793854Y-9239848D01*
X38816085Y-9247985D01*
X38856151Y-9260261D01*
X38911459Y-9275950D01*
X38979420Y-9294324D01*
X39057440Y-9314658D01*
X39142929Y-9336225D01*
X39193341Y-9348721D01*
X39275363Y-9368958D01*
X39348751Y-9386946D01*
X39410851Y-9402042D01*
X39459008Y-9413600D01*
X39490567Y-9420978D01*
X39502875Y-9423532D01*
X39512492Y-9416132D01*
X39527430Y-9396707D01*
X39536402Y-9385652D01*
X39569814Y-9359958D01*
X39611091Y-9340599D01*
X39649813Y-9333000D01*
X39676801Y-9337638D01*
X39708448Y-9349822D01*
X39715180Y-9353384D01*
X39727215Y-9358922D01*
X39738612Y-9360259D01*
X39752331Y-9355644D01*
X39771333Y-9343324D01*
X39798578Y-9321548D01*
X39837029Y-9288564D01*
X39889646Y-9242620D01*
X39999501Y-9146664D01*
X39991937Y-8949109D01*
X39989752Y-8893698D01*
X39987354Y-8836713D01*
X39985276Y-8791358D01*
X39983686Y-8761277D01*
X39982751Y-8750114D01*
X39982490Y-8750061D01*
X39968351Y-8749273D01*
X39934455Y-8747840D01*
X39883273Y-8745852D01*
X39817276Y-8743402D01*
X39738934Y-8740582D01*
X39650717Y-8737485D01*
X39555098Y-8734201D01*
X39129066Y-8719726D01*
X39059525Y-8767450D01*
X39034698Y-8784488D01*
X38940331Y-8849250D01*
X38865241Y-9037601D01*
X38843487Y-9092657D01*
X38822168Y-9147708D01*
X38805277Y-9192546D01*
X38794157Y-9223598D01*
X38790152Y-9237290D01*
X38579464Y-9237290D01*
X38559450Y-9218855D01*
X38509995Y-9173837D01*
X38450503Y-9120077D01*
X38382929Y-9059344D01*
X38309227Y-8993408D01*
X38231352Y-8924038D01*
X38187265Y-8884818D01*
X38112981Y-8818582D01*
X38044709Y-8757516D01*
X37984262Y-8703255D01*
X37933455Y-8657432D01*
X37894102Y-8621681D01*
X37868018Y-8597637D01*
X37857017Y-8586933D01*
X37855999Y-8584833D01*
X37850925Y-8564161D01*
X37843539Y-8524331D01*
X37834228Y-8467835D01*
X37823377Y-8397164D01*
X37811374Y-8314810D01*
X37798602Y-8223265D01*
X37785450Y-8125020D01*
X37773829Y-8035737D01*
X37760253Y-7928537D01*
X37749333Y-7837427D01*
X37740735Y-7758772D01*
X37737373Y-7723265D01*
X37857220Y-7723265D01*
X37858230Y-7734024D01*
X37861860Y-7764701D01*
X37867801Y-7812795D01*
X37875738Y-7875809D01*
X37885355Y-7951241D01*
X37896338Y-8036594D01*
X37908373Y-8129369D01*
X37961123Y-8534473D01*
X38313906Y-8849035D01*
X38352721Y-8883597D01*
X38425926Y-8948513D01*
X38493094Y-9007726D01*
X38552428Y-9059675D01*
X38602134Y-9102799D01*
X38640417Y-9135535D01*
X38665480Y-9156322D01*
X38675528Y-9163598D01*
X38683168Y-9153965D01*
X38696534Y-9126874D01*
X38714014Y-9086371D01*
X38734090Y-9036504D01*
X38755243Y-8981324D01*
X38775956Y-8924880D01*
X38794711Y-8871221D01*
X38809989Y-8824396D01*
X38820271Y-8788456D01*
X38824041Y-8767450D01*
X38823900Y-8761602D01*
X38820998Y-8727940D01*
X38815114Y-8682369D01*
X38807262Y-8633020D01*
X38804537Y-8617278D01*
X38795604Y-8564354D01*
X38784746Y-8498666D01*
X38773091Y-8427076D01*
X38761768Y-8356442D01*
X38758897Y-8338371D01*
X38746411Y-8259784D01*
X38733273Y-8177116D01*
X38720880Y-8099160D01*
X38710632Y-8034709D01*
X38710121Y-8031493D01*
X38696474Y-7945732D01*
X38685738Y-7879611D01*
X38677219Y-7830570D01*
X38670219Y-7796053D01*
X38664043Y-7773498D01*
X38657994Y-7760348D01*
X38651377Y-7754043D01*
X38643494Y-7752026D01*
X38633651Y-7751736D01*
X38624880Y-7751458D01*
X38594188Y-7750366D01*
X38572387Y-7749562D01*
X38788302Y-7749562D01*
X38788503Y-7751172D01*
X38792259Y-7777781D01*
X38799394Y-7825114D01*
X38809943Y-7893395D01*
X38823940Y-7982847D01*
X38841423Y-8093693D01*
X38862424Y-8226155D01*
X38886979Y-8380456D01*
X38915123Y-8556820D01*
X38918290Y-8576289D01*
X38927584Y-8629590D01*
X38935993Y-8672509D01*
X38942698Y-8701062D01*
X38946881Y-8711269D01*
X38947074Y-8711233D01*
X38959089Y-8704263D01*
X38981918Y-8688708D01*
X39008760Y-8669445D01*
X39032817Y-8651347D01*
X39047290Y-8639288D01*
X39047726Y-8634860D01*
X39045824Y-8612434D01*
X39041033Y-8575708D01*
X39033971Y-8529758D01*
X39027181Y-8488074D01*
X39016438Y-8421727D01*
X39004907Y-8350179D01*
X38994143Y-8283064D01*
X38992570Y-8273227D01*
X38981643Y-8204888D01*
X38968862Y-8124966D01*
X38955691Y-8042612D01*
X38943593Y-7966975D01*
X38939047Y-7938450D01*
X38928859Y-7873780D01*
X38919703Y-7814696D01*
X38912436Y-7766764D01*
X38907917Y-7735553D01*
X38902881Y-7701766D01*
X38895296Y-7672608D01*
X38883806Y-7661717D01*
X38864890Y-7666646D01*
X38835028Y-7684953D01*
X38826425Y-7690740D01*
X38800382Y-7711211D01*
X38789119Y-7728820D01*
X38788302Y-7749562D01*
X38572387Y-7749562D01*
X38545650Y-7748576D01*
X38482182Y-7746197D01*
X38406700Y-7743340D01*
X38322118Y-7740112D01*
X38231352Y-7736625D01*
X38170532Y-7734295D01*
X38086139Y-7731112D01*
X38011093Y-7728341D01*
X37948034Y-7726076D01*
X37899607Y-7724412D01*
X37868455Y-7723444D01*
X37857220Y-7723265D01*
X37737373Y-7723265D01*
X37734122Y-7688938D01*
X37729158Y-7624289D01*
X37725509Y-7561191D01*
X37722838Y-7496010D01*
X37720810Y-7425109D01*
X37715701Y-7214509D01*
X37836347Y-7214509D01*
X37840243Y-7407298D01*
X37841355Y-7458223D01*
X37842820Y-7515166D01*
X37844248Y-7560699D01*
X37845520Y-7591100D01*
X37846515Y-7602649D01*
X37856169Y-7603628D01*
X37885621Y-7605361D01*
X37931898Y-7607648D01*
X37992005Y-7610350D01*
X38062945Y-7613327D01*
X38141721Y-7616439D01*
X38194965Y-7618501D01*
X38284488Y-7622052D01*
X38371857Y-7625611D01*
X38451970Y-7628967D01*
X38519724Y-7631906D01*
X38570018Y-7634219D01*
X38705485Y-7640771D01*
X38794345Y-7579186D01*
X39004640Y-7579186D01*
X39005070Y-7585148D01*
X39008405Y-7611794D01*
X39014505Y-7654165D01*
X39022724Y-7707861D01*
X39032416Y-7768481D01*
X39047903Y-7863736D01*
X39066021Y-7975805D01*
X39084556Y-8091032D01*
X39102694Y-8204329D01*
X39119621Y-8310609D01*
X39134523Y-8404784D01*
X39146585Y-8481767D01*
X39166074Y-8607091D01*
X39387335Y-8614486D01*
X39441307Y-8616318D01*
X39533201Y-8619536D01*
X39627933Y-8622952D01*
X39717036Y-8626258D01*
X39792040Y-8629149D01*
X39834986Y-8630690D01*
X39890839Y-8632146D01*
X39935369Y-8632640D01*
X39964832Y-8632143D01*
X39975485Y-8630624D01*
X39974502Y-8621979D01*
X39970900Y-8593190D01*
X39964971Y-8546768D01*
X39957051Y-8485309D01*
X39947473Y-8411407D01*
X39936573Y-8327658D01*
X39924685Y-8236658D01*
X39914885Y-8161532D01*
X39903760Y-8075617D01*
X39893903Y-7998797D01*
X39885650Y-7933728D01*
X39879338Y-7883069D01*
X39875304Y-7849479D01*
X39873885Y-7835614D01*
X39867215Y-7826573D01*
X39845631Y-7804432D01*
X39811167Y-7771343D01*
X39765934Y-7729175D01*
X39712043Y-7679799D01*
X39651604Y-7625084D01*
X39586728Y-7566899D01*
X39519526Y-7507115D01*
X39452108Y-7447601D01*
X39386585Y-7390227D01*
X39325067Y-7336862D01*
X39269666Y-7289377D01*
X39222492Y-7249641D01*
X39185654Y-7219524D01*
X39161265Y-7200895D01*
X39151435Y-7195625D01*
X39146783Y-7203655D01*
X39134706Y-7230349D01*
X39117815Y-7270949D01*
X39097777Y-7321106D01*
X39076254Y-7376471D01*
X39054912Y-7432694D01*
X39035415Y-7485426D01*
X39019428Y-7530319D01*
X39008615Y-7563022D01*
X39004640Y-7579186D01*
X38794345Y-7579186D01*
X38891541Y-7511823D01*
X38969820Y-7313244D01*
X39048098Y-7114664D01*
X38634081Y-7010570D01*
X38623127Y-7007817D01*
X38530145Y-6984565D01*
X38443969Y-6963212D01*
X38367110Y-6944365D01*
X38302084Y-6928634D01*
X38251403Y-6916628D01*
X38217580Y-6908954D01*
X38203129Y-6906222D01*
X38201284Y-6906668D01*
X38184288Y-6917202D01*
X38154004Y-6940062D01*
X38113217Y-6973012D01*
X38064711Y-7013816D01*
X38011271Y-7060239D01*
X37836347Y-7214509D01*
X37715701Y-7214509D01*
X37714648Y-7171109D01*
X37842772Y-7058220D01*
X37892816Y-7014157D01*
X37963280Y-6952322D01*
X38019794Y-6903174D01*
X38064180Y-6865271D01*
X38098263Y-6837171D01*
X38123868Y-6817432D01*
X38142818Y-6804612D01*
X38156937Y-6797269D01*
X38168049Y-6793962D01*
X38177979Y-6793248D01*
X38185034Y-6794118D01*
X38213427Y-6799641D01*
X38259928Y-6809768D01*
X38322099Y-6823932D01*
X38397503Y-6841567D01*
X38483703Y-6862106D01*
X38578261Y-6884984D01*
X38678738Y-6909633D01*
X39148703Y-7025700D01*
X39248421Y-7114664D01*
X39547983Y-7381921D01*
X39625054Y-7450767D01*
X39701786Y-7519493D01*
X39772177Y-7582721D01*
X39834470Y-7638867D01*
X39886912Y-7686347D01*
X39927748Y-7723576D01*
X39955223Y-7748968D01*
X39967584Y-7760939D01*
X39968459Y-7761995D01*
X39974476Y-7773482D01*
X39980844Y-7793867D01*
X39987894Y-7825082D01*
X39995959Y-7869058D01*
X40005372Y-7927726D01*
X40016464Y-8003018D01*
X40029568Y-8096866D01*
X40045015Y-8211200D01*
X40045019Y-8211227D01*
X40061175Y-8333927D01*
X40074309Y-8438308D01*
X40084802Y-8528372D01*
X40093035Y-8608119D01*
X40094982Y-8630624D01*
X40095348Y-8634860D01*
X40099388Y-8681550D01*
G37*
G36*
X41573884Y-10368074D02*
G01*
X41540787Y-10455140D01*
X41491735Y-10527028D01*
X41427079Y-10583144D01*
X41347172Y-10622891D01*
X41285993Y-10637080D01*
X41212778Y-10638747D01*
X41140114Y-10626758D01*
X41074524Y-10602248D01*
X41022529Y-10566353D01*
X40991485Y-10536618D01*
X40991485Y-10619864D01*
X40731840Y-10619864D01*
X40731840Y-10226235D01*
X40993486Y-10226235D01*
X40996127Y-10256444D01*
X41008518Y-10309249D01*
X41032529Y-10349670D01*
X41071205Y-10383888D01*
X41114622Y-10404458D01*
X41169607Y-10410519D01*
X41223911Y-10398620D01*
X41270611Y-10369268D01*
X41306118Y-10326660D01*
X41327438Y-10273864D01*
X41334061Y-10207820D01*
X41331634Y-10166420D01*
X41315027Y-10103469D01*
X41283058Y-10056589D01*
X41236162Y-10026313D01*
X41174775Y-10013173D01*
X41159325Y-10012642D01*
X41098214Y-10021665D01*
X41050222Y-10048539D01*
X41016201Y-10092261D01*
X40997004Y-10151827D01*
X40993486Y-10226235D01*
X40731840Y-10226235D01*
X40731840Y-9795775D01*
X40991485Y-9795775D01*
X40991485Y-9875947D01*
X41028781Y-9847499D01*
X41068976Y-9821105D01*
X41145895Y-9789809D01*
X41226473Y-9778210D01*
X41307042Y-9785773D01*
X41383932Y-9811961D01*
X41453475Y-9856238D01*
X41512000Y-9918069D01*
X41537958Y-9957926D01*
X41569164Y-10029029D01*
X41587031Y-10110799D01*
X41592839Y-10207820D01*
X41590672Y-10266426D01*
X41573884Y-10368074D01*
G37*
G36*
X41635574Y-11266056D02*
G01*
X41666225Y-11273020D01*
X41697059Y-11285918D01*
X41717394Y-11296973D01*
X41768447Y-11340240D01*
X41801521Y-11396177D01*
X41815874Y-11463129D01*
X41810762Y-11539441D01*
X41802513Y-11568332D01*
X41781881Y-11603041D01*
X41748302Y-11633511D01*
X41699393Y-11661328D01*
X41632771Y-11688073D01*
X41546051Y-11715331D01*
X41489660Y-11734880D01*
X41443879Y-11760762D01*
X41417584Y-11791364D01*
X41409174Y-11828004D01*
X41409214Y-11831608D01*
X41419569Y-11879040D01*
X41448027Y-11913153D01*
X41494322Y-11933747D01*
X41558191Y-11940622D01*
X41587761Y-11938523D01*
X41642335Y-11922407D01*
X41685925Y-11892905D01*
X41714808Y-11853021D01*
X41725263Y-11805758D01*
X41725545Y-11799874D01*
X41731055Y-11788761D01*
X41747913Y-11783773D01*
X41781707Y-11782620D01*
X41807338Y-11782951D01*
X41828322Y-11786100D01*
X41836638Y-11795273D01*
X41838089Y-11813664D01*
X41834487Y-11855617D01*
X41812488Y-11921508D01*
X41772348Y-11976530D01*
X41716216Y-12018109D01*
X41646240Y-12043669D01*
X41638744Y-12045124D01*
X41587426Y-12049094D01*
X41527789Y-12046551D01*
X41470014Y-12038337D01*
X41424281Y-12025296D01*
X41371998Y-11996633D01*
X41327412Y-11951769D01*
X41300996Y-11893992D01*
X41291986Y-11822131D01*
X41295847Y-11768327D01*
X41311025Y-11720211D01*
X41339819Y-11680395D01*
X41384468Y-11646684D01*
X41447211Y-11616889D01*
X41530288Y-11588815D01*
X41540790Y-11585673D01*
X41601892Y-11566071D01*
X41644807Y-11548945D01*
X41672939Y-11532355D01*
X41689696Y-11514362D01*
X41698483Y-11493025D01*
X41698738Y-11491991D01*
X41699845Y-11449990D01*
X41683818Y-11415960D01*
X41654787Y-11390526D01*
X41616878Y-11374316D01*
X41574221Y-11367957D01*
X41530944Y-11372076D01*
X41491176Y-11387299D01*
X41459044Y-11414255D01*
X41438678Y-11453569D01*
X41434238Y-11467539D01*
X41424792Y-11482107D01*
X41406967Y-11488004D01*
X41373674Y-11489109D01*
X41351267Y-11488848D01*
X41329343Y-11485890D01*
X41320503Y-11476960D01*
X41318863Y-11458806D01*
X41322061Y-11432908D01*
X41340735Y-11384375D01*
X41372070Y-11337861D01*
X41411413Y-11301280D01*
X41413604Y-11299769D01*
X41440386Y-11283572D01*
X41467385Y-11273662D01*
X41502052Y-11268115D01*
X41551839Y-11265007D01*
X41597211Y-11263890D01*
X41635574Y-11266056D01*
G37*
G36*
X41177716Y-7399709D02*
G01*
X41185455Y-7426801D01*
X41198398Y-7471885D01*
X41208794Y-7507847D01*
X41221372Y-7551074D01*
X41260145Y-7442936D01*
X41298919Y-7334798D01*
X41383938Y-7334798D01*
X41421800Y-7442509D01*
X41430687Y-7467466D01*
X41445591Y-7506476D01*
X41455828Y-7527378D01*
X41462727Y-7532545D01*
X41467619Y-7524353D01*
X41467968Y-7523213D01*
X41475373Y-7498434D01*
X41486576Y-7460324D01*
X41499297Y-7416642D01*
X41523019Y-7334798D01*
X41769641Y-7334798D01*
X41811042Y-7467418D01*
X41852442Y-7600039D01*
X41893089Y-7467418D01*
X41933737Y-7334798D01*
X42062189Y-7334798D01*
X41994645Y-7529531D01*
X41973751Y-7588597D01*
X41953506Y-7643453D01*
X41936443Y-7687228D01*
X41923904Y-7716483D01*
X41917232Y-7727781D01*
X41916055Y-7733649D01*
X41920408Y-7756852D01*
X41930837Y-7793311D01*
X41946135Y-7838408D01*
X41957366Y-7869677D01*
X41971570Y-7910067D01*
X41981299Y-7938825D01*
X41984907Y-7951165D01*
X41978580Y-7953267D01*
X41955204Y-7954356D01*
X41920520Y-7953428D01*
X41856134Y-7950042D01*
X41754009Y-7654673D01*
X41750700Y-7645115D01*
X41724163Y-7569287D01*
X41699960Y-7501554D01*
X41679080Y-7444573D01*
X41662508Y-7400999D01*
X41651233Y-7373489D01*
X41646240Y-7364698D01*
X41643504Y-7370797D01*
X41634992Y-7395519D01*
X41622197Y-7435650D01*
X41606303Y-7487450D01*
X41588493Y-7547177D01*
X41536391Y-7724264D01*
X41414818Y-7724264D01*
X41381081Y-7625487D01*
X41372871Y-7601938D01*
X41358544Y-7563305D01*
X41347480Y-7536663D01*
X41341570Y-7526741D01*
X41339156Y-7529652D01*
X41330065Y-7549017D01*
X41316668Y-7582542D01*
X41300905Y-7625519D01*
X41266014Y-7724264D01*
X41146822Y-7724264D01*
X41092044Y-7543642D01*
X41078807Y-7499606D01*
X41062236Y-7443242D01*
X41049000Y-7396733D01*
X41040204Y-7363986D01*
X41036953Y-7348909D01*
X41038857Y-7344123D01*
X41057825Y-7337091D01*
X41097928Y-7334798D01*
X41159216Y-7334798D01*
X41177716Y-7399709D01*
G37*
D14*
G04 #@! TO.C,J6*
X12226600Y-6126400D02*
X12226600Y-16346400D01*
X12226600Y-4856400D02*
X12226600Y-3526400D01*
X9566600Y-6126400D02*
X9566600Y-16346400D01*
X12226600Y-3526400D02*
X10896600Y-3526400D01*
X12226600Y-6126400D02*
X9566600Y-6126400D01*
X12226600Y-16346400D02*
X9566600Y-16346400D01*
G04 #@! TO.C,J7*
X28581200Y-15757200D02*
X28581200Y-13097200D01*
X37531200Y-15757200D02*
X38861200Y-15757200D01*
X36261200Y-13097200D02*
X28581200Y-13097200D01*
X38861200Y-15757200D02*
X38861200Y-14427200D01*
X36261200Y-15757200D02*
X28581200Y-15757200D01*
X36261200Y-15757200D02*
X36261200Y-13097200D01*
G04 #@! TD*
%LPC*%
D15*
G04 #@! TO.C,J4*
X42205600Y-6990600D03*
X42205600Y-12770600D03*
D16*
X41675600Y-14200600D03*
D17*
X45855600Y-14200600D03*
D16*
X41675600Y-5560600D03*
D17*
X45855600Y-5560600D03*
G04 #@! TD*
D18*
G04 #@! TO.C,J6*
X10896600Y-4856400D03*
X10896600Y-7396400D03*
X10896600Y-9936400D03*
X10896600Y-12476400D03*
X10896600Y-15016400D03*
G04 #@! TD*
D19*
G04 #@! TO.C,J7*
X37531200Y-14427200D03*
X34991200Y-14427200D03*
X32451200Y-14427200D03*
X29911200Y-14427200D03*
G04 #@! TD*
M02*
