G04 #@! TF.GenerationSoftware,KiCad,Pcbnew,(6.0.11-0)*
G04 #@! TF.CreationDate,2023-02-20T23:18:05+08:00*
G04 #@! TF.ProjectId,ublaster_jtag,75626c61-7374-4657-925f-6a7461672e6b,rev?*
G04 #@! TF.SameCoordinates,Original*
G04 #@! TF.FileFunction,Soldermask,Top*
G04 #@! TF.FilePolarity,Negative*
%FSLAX46Y46*%
G04 Gerber Fmt 4.6, Leading zero omitted, Abs format (unit mm)*
G04 Created by KiCad (PCBNEW (6.0.11-0)) date 2023-02-20 23:18:05*
%MOMM*%
%LPD*%
G01*
G04 APERTURE LIST*
G04 Aperture macros list*
%AMRoundRect*
0 Rectangle with rounded corners*
0 $1 Rounding radius*
0 $2 $3 $4 $5 $6 $7 $8 $9 X,Y pos of 4 corners*
0 Add a 4 corners polygon primitive as box body*
4,1,4,$2,$3,$4,$5,$6,$7,$8,$9,$2,$3,0*
0 Add four circle primitives for the rounded corners*
1,1,$1+$1,$2,$3*
1,1,$1+$1,$4,$5*
1,1,$1+$1,$6,$7*
1,1,$1+$1,$8,$9*
0 Add four rect primitives between the rounded corners*
20,1,$1+$1,$2,$3,$4,$5,0*
20,1,$1+$1,$4,$5,$6,$7,0*
20,1,$1+$1,$6,$7,$8,$9,0*
20,1,$1+$1,$8,$9,$2,$3,0*%
G04 Aperture macros list end*
%ADD10RoundRect,0.155000X-0.212500X-0.155000X0.212500X-0.155000X0.212500X0.155000X-0.212500X0.155000X0*%
%ADD11RoundRect,0.155000X0.212500X0.155000X-0.212500X0.155000X-0.212500X-0.155000X0.212500X-0.155000X0*%
%ADD12RoundRect,0.237500X-0.250000X-0.237500X0.250000X-0.237500X0.250000X0.237500X-0.250000X0.237500X0*%
%ADD13RoundRect,0.155000X-0.155000X0.212500X-0.155000X-0.212500X0.155000X-0.212500X0.155000X0.212500X0*%
%ADD14C,0.650000*%
%ADD15R,1.450000X0.600000*%
%ADD16R,2.000000X0.300000*%
%ADD17R,2.000000X0.600000*%
%ADD18O,2.100000X1.000000*%
%ADD19O,1.600000X1.000000*%
%ADD20R,2.400000X2.000000*%
%ADD21RoundRect,0.155000X0.155000X-0.212500X0.155000X0.212500X-0.155000X0.212500X-0.155000X-0.212500X0*%
%ADD22RoundRect,0.075000X-0.075000X-0.662500X0.075000X-0.662500X0.075000X0.662500X-0.075000X0.662500X0*%
%ADD23RoundRect,0.075000X-0.662500X-0.075000X0.662500X-0.075000X0.662500X0.075000X-0.662500X0.075000X0*%
%ADD24RoundRect,0.237500X0.237500X-0.250000X0.237500X0.250000X-0.237500X0.250000X-0.237500X-0.250000X0*%
%ADD25RoundRect,0.237500X0.250000X0.237500X-0.250000X0.237500X-0.250000X-0.237500X0.250000X-0.237500X0*%
%ADD26RoundRect,0.425000X-1.075000X-0.425000X1.075000X-0.425000X1.075000X0.425000X-1.075000X0.425000X0*%
%ADD27RoundRect,0.237500X-0.237500X0.250000X-0.237500X-0.250000X0.237500X-0.250000X0.237500X0.250000X0*%
%ADD28RoundRect,0.150000X-0.587500X-0.150000X0.587500X-0.150000X0.587500X0.150000X-0.587500X0.150000X0*%
%ADD29R,1.000000X2.750000*%
G04 APERTURE END LIST*
D10*
G04 #@! TO.C,C11*
X24908700Y-6324600D03*
X26043700Y-6324600D03*
G04 #@! TD*
D11*
G04 #@! TO.C,C51*
X32731900Y-15697200D03*
X33866900Y-15697200D03*
G04 #@! TD*
D12*
G04 #@! TO.C,R22*
X36044500Y-14351000D03*
X37869500Y-14351000D03*
G04 #@! TD*
D13*
G04 #@! TO.C,C49*
X25247600Y-10125900D03*
X25247600Y-11260900D03*
G04 #@! TD*
D14*
G04 #@! TO.C,J4*
X42205600Y-6990600D03*
X42205600Y-12770600D03*
D15*
X40760600Y-13130600D03*
X40760600Y-12330600D03*
D16*
X40760600Y-11130600D03*
X40760600Y-10130600D03*
X40760600Y-9630600D03*
X40760600Y-8630600D03*
D15*
X40760600Y-7430600D03*
D17*
X40760600Y-6630600D03*
X40760600Y-6630600D03*
X40760600Y-7430600D03*
D16*
X40760600Y-8130600D03*
X40760600Y-9130600D03*
X40760600Y-10630600D03*
X40760600Y-11630600D03*
D17*
X40760600Y-12330600D03*
X40760600Y-13130600D03*
D18*
X41675600Y-14200600D03*
D19*
X45855600Y-14200600D03*
D18*
X41675600Y-5560600D03*
D19*
X45855600Y-5560600D03*
G04 #@! TD*
D20*
G04 #@! TO.C,Y2*
X22631400Y-8132200D03*
X22631400Y-11832200D03*
G04 #@! TD*
D21*
G04 #@! TO.C,C17*
X25247600Y-13597700D03*
X25247600Y-12462700D03*
G04 #@! TD*
D22*
G04 #@! TO.C,U1*
X28415800Y-5794300D03*
X28915800Y-5794300D03*
X29415800Y-5794300D03*
X29915800Y-5794300D03*
X30415800Y-5794300D03*
X30915800Y-5794300D03*
X31415800Y-5794300D03*
X31915800Y-5794300D03*
X32415800Y-5794300D03*
X32915800Y-5794300D03*
X33415800Y-5794300D03*
X33915800Y-5794300D03*
D23*
X35328300Y-7206800D03*
X35328300Y-7706800D03*
X35328300Y-8206800D03*
X35328300Y-8706800D03*
X35328300Y-9206800D03*
X35328300Y-9706800D03*
X35328300Y-10206800D03*
X35328300Y-10706800D03*
X35328300Y-11206800D03*
X35328300Y-11706800D03*
X35328300Y-12206800D03*
X35328300Y-12706800D03*
D22*
X33915800Y-14119300D03*
X33415800Y-14119300D03*
X32915800Y-14119300D03*
X32415800Y-14119300D03*
X31915800Y-14119300D03*
X31415800Y-14119300D03*
X30915800Y-14119300D03*
X30415800Y-14119300D03*
X29915800Y-14119300D03*
X29415800Y-14119300D03*
X28915800Y-14119300D03*
X28415800Y-14119300D03*
D23*
X27003300Y-12706800D03*
X27003300Y-12206800D03*
X27003300Y-11706800D03*
X27003300Y-11206800D03*
X27003300Y-10706800D03*
X27003300Y-10206800D03*
X27003300Y-9706800D03*
X27003300Y-9206800D03*
X27003300Y-8706800D03*
X27003300Y-8206800D03*
X27003300Y-7706800D03*
X27003300Y-7206800D03*
G04 #@! TD*
D24*
G04 #@! TO.C,R19*
X37871400Y-12748900D03*
X37871400Y-10923900D03*
G04 #@! TD*
D10*
G04 #@! TO.C,C48*
X32681100Y-4191000D03*
X33816100Y-4191000D03*
G04 #@! TD*
D25*
G04 #@! TO.C,R23*
X26896700Y-5054600D03*
X25071700Y-5054600D03*
G04 #@! TD*
D26*
G04 #@! TO.C,J3*
X10896600Y-4831000D03*
X10896600Y-7371000D03*
X10896600Y-9911000D03*
X10896600Y-12451000D03*
X10896600Y-14991000D03*
G04 #@! TD*
D10*
G04 #@! TO.C,C50*
X28515500Y-15697200D03*
X29650500Y-15697200D03*
G04 #@! TD*
D13*
G04 #@! TO.C,C16*
X25247600Y-7357300D03*
X25247600Y-8492300D03*
G04 #@! TD*
D27*
G04 #@! TO.C,R24*
X37846000Y-6631300D03*
X37846000Y-8456300D03*
G04 #@! TD*
D11*
G04 #@! TO.C,C5*
X25992900Y-3835400D03*
X24857900Y-3835400D03*
G04 #@! TD*
G04 #@! TO.C,C52*
X29675900Y-4165600D03*
X28540900Y-4165600D03*
G04 #@! TD*
D28*
G04 #@! TO.C,U6*
X21439900Y-4155400D03*
X21439900Y-6055400D03*
X23314900Y-5105400D03*
G04 #@! TD*
D12*
G04 #@! TO.C,R20*
X36044500Y-4724400D03*
X37869500Y-4724400D03*
G04 #@! TD*
D29*
G04 #@! TO.C,J8*
X18789400Y-13005600D03*
X18789400Y-6755600D03*
X16789400Y-13005600D03*
X16789400Y-6755600D03*
X14789400Y-13005600D03*
X14789400Y-6755600D03*
G04 #@! TD*
M02*
