G04 #@! TF.GenerationSoftware,KiCad,Pcbnew,7.0.1-0*
G04 #@! TF.CreationDate,2023-04-12T11:12:59+08:00*
G04 #@! TF.ProjectId,slimarm_classic_2410,736c696d-6172-46d5-9f63-6c6173736963,rev?*
G04 #@! TF.SameCoordinates,Original*
G04 #@! TF.FileFunction,Copper,L2,Inr*
G04 #@! TF.FilePolarity,Positive*
%FSLAX46Y46*%
G04 Gerber Fmt 4.6, Leading zero omitted, Abs format (unit mm)*
G04 Created by KiCad (PCBNEW 7.0.1-0) date 2023-04-12 11:12:59*
%MOMM*%
%LPD*%
G01*
G04 APERTURE LIST*
G04 #@! TA.AperFunction,ComponentPad*
%ADD10O,1.000000X2.100000*%
G04 #@! TD*
G04 #@! TA.AperFunction,ComponentPad*
%ADD11O,1.000000X1.600000*%
G04 #@! TD*
G04 #@! TA.AperFunction,ViaPad*
%ADD12C,0.457200*%
G04 #@! TD*
G04 #@! TA.AperFunction,ViaPad*
%ADD13C,0.635000*%
G04 #@! TD*
G04 APERTURE END LIST*
D10*
G04 #@! TO.N,GND*
G04 #@! TO.C,J1*
X32006000Y-13947500D03*
D11*
X32006000Y-9767500D03*
D10*
X23366000Y-13947500D03*
D11*
X23366000Y-9767500D03*
G04 #@! TD*
D10*
G04 #@! TO.N,GND*
G04 #@! TO.C,J4*
X23366000Y-40890250D03*
D11*
X23366000Y-45070250D03*
D10*
X32006000Y-40890250D03*
D11*
X32006000Y-45070250D03*
G04 #@! TD*
D12*
G04 #@! TO.N,GND*
X21996000Y-36320000D03*
D13*
X51920000Y-45860000D03*
D12*
X31047500Y-36090000D03*
X25340500Y-36100000D03*
X54822015Y-12532015D03*
X23054500Y-23150000D03*
X68160000Y-18810000D03*
X48760000Y-12640000D03*
X21926000Y-32280000D03*
X32650000Y-26250000D03*
X39820000Y-30140000D03*
X53700000Y-30540000D03*
X29966000Y-12580250D03*
X44640000Y-46640000D03*
X23054500Y-21040000D03*
X62070000Y-40030000D03*
X34230000Y-27850000D03*
X61380000Y-46900000D03*
X23054500Y-22120000D03*
X69640000Y-40400000D03*
X41636422Y-9240306D03*
X67250000Y-28500000D03*
X34640000Y-34900000D03*
X29424738Y-32664510D03*
X21926000Y-30200000D03*
X23054500Y-24400000D03*
X61200000Y-10320000D03*
X67990000Y-13590000D03*
X34258993Y-30298967D03*
X53340000Y-38390000D03*
X34095000Y-46655000D03*
X25144100Y-23114000D03*
X69640000Y-36920000D03*
X21996000Y-34260000D03*
X23054500Y-32250000D03*
D13*
X56540000Y-45790000D03*
D12*
X25400000Y-27907936D03*
X30241007Y-23901033D03*
X62700000Y-38470000D03*
X35880443Y-32679116D03*
X27864230Y-29506074D03*
X56700000Y-31840000D03*
X21926000Y-25660000D03*
X29289134Y-19365609D03*
X27178000Y-19558000D03*
X33390000Y-26680000D03*
X64890000Y-31830000D03*
X46910000Y-43310000D03*
X29060000Y-34770000D03*
X35766000Y-35790000D03*
X32490000Y-18332500D03*
X68206000Y-21530000D03*
X29902500Y-18280000D03*
X62290000Y-34520000D03*
X38340000Y-43740000D03*
X35032800Y-22317200D03*
X23054500Y-30220000D03*
X29435000Y-27085000D03*
X40570000Y-34810000D03*
X45740000Y-11530000D03*
X56910000Y-34520000D03*
X57840000Y-38360000D03*
X36650000Y-27892064D03*
X50730000Y-32115900D03*
X29490000Y-20610000D03*
X46600000Y-34537500D03*
X38500000Y-34720000D03*
X64050000Y-9350000D03*
X66910000Y-8040000D03*
X57185000Y-11745000D03*
X55460000Y-31950000D03*
X23054500Y-25670000D03*
X66430000Y-47080000D03*
X65567500Y-44704000D03*
X39406000Y-42000000D03*
X53340000Y-40132000D03*
X23054500Y-36300000D03*
X24964100Y-33630000D03*
X65220000Y-23880000D03*
X21896000Y-23120000D03*
X34880000Y-16480000D03*
X68834000Y-44450000D03*
X27850000Y-24707936D03*
X68780000Y-26630000D03*
X27380000Y-13060000D03*
X59490626Y-34515422D03*
X65220000Y-22110000D03*
X23054500Y-26670000D03*
X24964100Y-31840000D03*
X23054500Y-27690000D03*
X23054500Y-34290000D03*
X23054500Y-35300000D03*
X66780000Y-11360000D03*
X32695000Y-37685000D03*
X23054500Y-33240000D03*
X23736000Y-18250250D03*
X33200000Y-29220000D03*
X69730000Y-44000000D03*
X23054500Y-28960000D03*
X69396000Y-25590000D03*
X21926000Y-27670000D03*
X21896000Y-21070000D03*
X68120000Y-23840000D03*
X39670000Y-46760000D03*
X49260000Y-46650000D03*
X23054500Y-31200000D03*
X69156178Y-34457297D03*
X31850001Y-30307936D03*
X46140000Y-14935900D03*
X31066321Y-23925311D03*
X34345900Y-23970357D03*
G04 #@! TO.N,/NRESET*
X32646052Y-29496052D03*
X39770000Y-37730000D03*
G04 #@! TO.N,+3V3*
X39270000Y-32115900D03*
X32630000Y-28730000D03*
X35510000Y-20170000D03*
X43250000Y-11410000D03*
X68326000Y-42164000D03*
X49830000Y-34720000D03*
X24189500Y-36280000D03*
X28660000Y-33490000D03*
X69220000Y-35037500D03*
X33410000Y-42080000D03*
X29481144Y-25457534D03*
X65510000Y-11340000D03*
X53350000Y-29970000D03*
X56610000Y-31000000D03*
X51890000Y-8819100D03*
X49740000Y-12640000D03*
X69342000Y-31750000D03*
X34216999Y-28655283D03*
X34036000Y-16764000D03*
X42672000Y-34777900D03*
X30100000Y-20340000D03*
X24964100Y-29010000D03*
X24189500Y-25630000D03*
X37220000Y-14120000D03*
X35057936Y-23099999D03*
X67721975Y-27444475D03*
X29429722Y-27870245D03*
D13*
X57600000Y-46300000D03*
D12*
X34010000Y-26810000D03*
X24183764Y-26657678D03*
X30133451Y-37685245D03*
X37687500Y-46300000D03*
X56290000Y-12480000D03*
X38258993Y-25498967D03*
X33439203Y-31119262D03*
X49614100Y-29670000D03*
X24154100Y-27640000D03*
X45860000Y-38230000D03*
G04 #@! TO.N,+5V*
X40790000Y-42770000D03*
D13*
X51977500Y-42278000D03*
X30226000Y-16764000D03*
X56600000Y-42217500D03*
X30226000Y-38354000D03*
X24892000Y-38100000D03*
D12*
X44480000Y-11460000D03*
D13*
X24892000Y-17018000D03*
D12*
G04 #@! TO.N,+1V8*
X41630000Y-11650000D03*
X27857936Y-21500000D03*
X24189500Y-23130000D03*
X30262786Y-29478576D03*
X37449999Y-24707936D03*
X24189500Y-32260000D03*
X31875262Y-31135490D03*
X24189500Y-33250000D03*
X31824738Y-23064510D03*
X24189500Y-30170000D03*
X24189500Y-34250000D03*
X28650000Y-27900000D03*
X31020245Y-24679722D03*
D13*
X52927500Y-43434000D03*
D12*
X33470000Y-25550000D03*
X28632800Y-32717200D03*
X35880000Y-28730000D03*
X34440000Y-20570000D03*
X29425249Y-24684184D03*
X30293201Y-26357527D03*
X24189500Y-22180000D03*
X24189500Y-21060000D03*
X24189500Y-31290000D03*
X37620000Y-34680000D03*
G04 #@! TO.N,/BUS_DAT6*
X53520000Y-22640000D03*
X41840000Y-22690000D03*
G04 #@! TO.N,/BUS_DAT1*
X41320000Y-23870000D03*
X48580000Y-23390000D03*
G04 #@! TO.N,/DRAM_DQML*
X55580000Y-23620000D03*
X46050000Y-25720000D03*
G04 #@! TO.N,/BUS_DAT5*
X53090000Y-24070000D03*
X38250000Y-26300000D03*
G04 #@! TO.N,/BUS_DAT0*
X39070000Y-27090000D03*
X47014413Y-24945587D03*
G04 #@! TO.N,/BUS_ADR24*
X38243666Y-27885496D03*
X42050000Y-28080000D03*
G04 #@! TO.N,/BUS_ADR12*
X39710000Y-26490000D03*
X61490000Y-16500000D03*
G04 #@! TO.N,/BUS_ADR4*
X62340000Y-29610000D03*
X38257936Y-31099999D03*
G04 #@! TO.N,/DRAM_DQMU*
X54810000Y-21370000D03*
X58490000Y-16540000D03*
G04 #@! TO.N,/BUS_DAT12*
X50425000Y-16525000D03*
X36650000Y-22307935D03*
G04 #@! TO.N,/BUS_DAT7*
X37457936Y-25499999D03*
X54170000Y-23120000D03*
G04 #@! TO.N,/BUS_DAT4*
X52420000Y-24670000D03*
X37430738Y-26289203D03*
G04 #@! TO.N,/BUS_ADR7*
X37450001Y-29492064D03*
X64450000Y-16610000D03*
G04 #@! TO.N,/BUS_ADR3*
X63180000Y-28710000D03*
X37422425Y-31061794D03*
G04 #@! TO.N,/DRAM_NSCAS*
X37450000Y-31907935D03*
X59290000Y-31550000D03*
G04 #@! TO.N,/BUS_DAT14*
X48560000Y-16120000D03*
X35849999Y-23107936D03*
G04 #@! TO.N,/BUS_DAT10*
X53075000Y-16600000D03*
X35057935Y-24700000D03*
G04 #@! TO.N,/BUS_DAT2*
X50230000Y-21770000D03*
X35850001Y-25492064D03*
G04 #@! TO.N,/BUS_ADR10*
X61270000Y-17460000D03*
X36650000Y-28707935D03*
G04 #@! TO.N,/BUS_ADR5*
X36650000Y-31107935D03*
X66260000Y-16420000D03*
G04 #@! TO.N,/BUS_ADR1*
X35865816Y-31875249D03*
X64510000Y-27770000D03*
G04 #@! TO.N,/DRAM_SCKE*
X58000000Y-17780000D03*
X48990000Y-20810000D03*
G04 #@! TO.N,/BUS_DAT3*
X51580000Y-22350000D03*
X35830000Y-26280000D03*
G04 #@! TO.N,/BUS_ADR23*
X42100000Y-27470000D03*
X35849999Y-27907936D03*
G04 #@! TO.N,/BUS_ADR11*
X37450000Y-30307935D03*
X63018660Y-28008660D03*
G04 #@! TO.N,/BUS_NWE*
X58640000Y-32130000D03*
X35830369Y-31070978D03*
G04 #@! TO.N,/BUS_DAT8*
X34280000Y-25540000D03*
X57650000Y-16260000D03*
G04 #@! TO.N,/DRAM_SCLK*
X35020000Y-30340000D03*
X57300000Y-17140000D03*
G04 #@! TO.N,/DRAM_CS*
X35057936Y-32700000D03*
X61550000Y-33080000D03*
G04 #@! TO.N,/BUS_ADR9*
X35857935Y-29500000D03*
X61000000Y-18230000D03*
G04 #@! TO.N,/BUS_NWAIT*
X41280000Y-34750000D03*
X34248967Y-31091007D03*
G04 #@! TO.N,/JTAG_NTRST*
X52050000Y-10790000D03*
X61030000Y-11420000D03*
X33398331Y-23968776D03*
G04 #@! TO.N,/JTAG_TCK*
X33390000Y-24770000D03*
X63370000Y-11470000D03*
X54875000Y-9615000D03*
G04 #@! TO.N,/JTAG_TDI*
X48890000Y-10940000D03*
X32344100Y-20630000D03*
X58420000Y-11510000D03*
G04 #@! TO.N,/JTAG_TMS*
X50350000Y-10870000D03*
X31842065Y-22300000D03*
X59670000Y-11460000D03*
G04 #@! TO.N,/JTAG_TDO*
X62150000Y-11440000D03*
X33442064Y-23100001D03*
G04 #@! TO.N,/USB_DP*
X27880000Y-19740000D03*
X30234640Y-28692855D03*
X26870000Y-16750000D03*
G04 #@! TO.N,/USB_DN*
X27540000Y-16750000D03*
X28513521Y-19755412D03*
X29457936Y-28700000D03*
G04 #@! TO.N,/GPIO_G0*
X59200000Y-42070000D03*
X27050000Y-27907935D03*
G04 #@! TO.N,/GPIO_G2*
X59090000Y-43790000D03*
X26250000Y-27107936D03*
G04 #@! TO.N,/GPIO_G1*
X25330000Y-26350000D03*
X59090000Y-45230000D03*
G04 #@! TO.N,/NAND_ALE*
X63370000Y-36660000D03*
X33450000Y-31907936D03*
G04 #@! TO.N,/NAND_NFWE*
X62500000Y-36310000D03*
X34243666Y-31914504D03*
G04 #@! TO.N,/NAND_NFRE*
X64980000Y-37060000D03*
X34253948Y-33496052D03*
G04 #@! TO.N,/NAND_NFCE*
X36720000Y-34670000D03*
X64910000Y-35990000D03*
G04 #@! TO.N,/NAND_CLE*
X64080000Y-37130000D03*
X33439203Y-30280738D03*
G04 #@! TO.N,/SPI0_CLK*
X28649999Y-25507936D03*
X40250000Y-11210000D03*
G04 #@! TO.N,/NAND_RNB*
X64940000Y-38050000D03*
X29453948Y-31096052D03*
G04 #@! TO.N,/SPI0_MISO*
X27842065Y-25500000D03*
X37680000Y-11330000D03*
G04 #@! TO.N,/SPI0_MOSI*
X38970000Y-11310000D03*
X27057935Y-23899999D03*
G04 #@! TO.N,/CH_DP*
X27990000Y-38150000D03*
X28075000Y-42485000D03*
G04 #@! TO.N,/CH_DN*
X28560000Y-42040000D03*
X27406746Y-38172873D03*
G04 #@! TO.N,/UART_RTS*
X30251162Y-30290876D03*
X45010000Y-38630000D03*
G04 #@! TO.N,/UART_CTS*
X46050000Y-40400000D03*
X31050001Y-30292064D03*
G04 #@! TO.N,/OM0*
X67200000Y-44640000D03*
X27846052Y-31903948D03*
G04 #@! TO.N,/UART_TX*
X34960000Y-43730000D03*
X31050001Y-33492063D03*
G04 #@! TO.N,/UART_RX*
X30940000Y-34500000D03*
X36710000Y-43810000D03*
G04 #@! TO.N,/GPIO_G5*
X25320000Y-27140000D03*
X25580000Y-18130000D03*
G04 #@! TO.N,/DRAM_BA0*
X61240000Y-24880000D03*
X45000000Y-28400000D03*
G04 #@! TO.N,/DRAM_BA1*
X44990000Y-29140000D03*
X62360000Y-24980000D03*
G04 #@! TO.N,/BUS_ADR25*
X42060000Y-28960000D03*
X37457935Y-27900000D03*
G04 #@! TD*
G04 #@! TA.AperFunction,Conductor*
G04 #@! TO.N,GND*
G36*
X68583965Y-7358917D02*
G01*
X68593833Y-7359313D01*
X68804599Y-7376239D01*
X68823777Y-7379306D01*
X69005323Y-7423167D01*
X69024620Y-7427829D01*
X69043097Y-7433860D01*
X69165048Y-7484554D01*
X69233893Y-7513172D01*
X69251192Y-7522012D01*
X69427250Y-7630167D01*
X69442959Y-7641604D01*
X69599955Y-7775945D01*
X69613684Y-7789698D01*
X69747749Y-7946913D01*
X69759163Y-7962646D01*
X69867010Y-8138875D01*
X69875826Y-8156198D01*
X69954814Y-8347127D01*
X69960814Y-8365616D01*
X70008992Y-8566536D01*
X70012029Y-8585734D01*
X70028601Y-8796587D01*
X70028982Y-8806303D01*
X70028982Y-8868627D01*
X70028995Y-8868709D01*
X70028995Y-31273357D01*
X70013367Y-31333619D01*
X69970423Y-31378691D01*
X69910987Y-31397212D01*
X69850040Y-31384514D01*
X69802946Y-31343798D01*
X69802020Y-31342456D01*
X69691124Y-31244211D01*
X69559931Y-31175356D01*
X69445206Y-31147079D01*
X69416080Y-31139900D01*
X69267920Y-31139900D01*
X69238794Y-31147079D01*
X69124068Y-31175356D01*
X68992875Y-31244211D01*
X68881980Y-31342455D01*
X68797815Y-31464389D01*
X68745278Y-31602920D01*
X68727418Y-31750000D01*
X68745278Y-31897079D01*
X68797815Y-32035610D01*
X68881980Y-32157544D01*
X68992875Y-32255788D01*
X68992876Y-32255788D01*
X68992878Y-32255790D01*
X69124067Y-32324643D01*
X69267920Y-32360100D01*
X69416079Y-32360100D01*
X69416080Y-32360100D01*
X69559933Y-32324643D01*
X69691122Y-32255790D01*
X69802020Y-32157543D01*
X69802945Y-32156202D01*
X69850040Y-32115486D01*
X69910987Y-32102788D01*
X69970423Y-32121309D01*
X70013367Y-32166381D01*
X70028995Y-32226643D01*
X70028995Y-34773493D01*
X70010329Y-34838920D01*
X69959951Y-34884650D01*
X69893027Y-34896914D01*
X69829707Y-34872021D01*
X69789053Y-34817464D01*
X69764184Y-34751889D01*
X69680019Y-34629955D01*
X69569124Y-34531711D01*
X69437931Y-34462856D01*
X69322435Y-34434389D01*
X69294080Y-34427400D01*
X69145920Y-34427400D01*
X69117565Y-34434389D01*
X69002068Y-34462856D01*
X68870875Y-34531711D01*
X68759980Y-34629955D01*
X68675815Y-34751889D01*
X68623278Y-34890420D01*
X68605418Y-35037500D01*
X68623278Y-35184579D01*
X68675815Y-35323110D01*
X68759980Y-35445044D01*
X68870875Y-35543288D01*
X68870876Y-35543288D01*
X68870878Y-35543290D01*
X69002067Y-35612143D01*
X69145920Y-35647600D01*
X69294079Y-35647600D01*
X69294080Y-35647600D01*
X69437933Y-35612143D01*
X69569122Y-35543290D01*
X69680020Y-35445043D01*
X69764184Y-35323110D01*
X69789052Y-35257536D01*
X69829707Y-35202979D01*
X69893027Y-35178086D01*
X69959951Y-35190350D01*
X70010329Y-35236080D01*
X70028995Y-35301507D01*
X70028995Y-46063948D01*
X70028597Y-46073874D01*
X70011701Y-46284264D01*
X70008631Y-46303458D01*
X69960187Y-46503974D01*
X69954156Y-46522451D01*
X69874970Y-46712943D01*
X69866126Y-46730249D01*
X69843595Y-46766927D01*
X69758147Y-46906021D01*
X69746706Y-46921733D01*
X69612583Y-47078475D01*
X69598827Y-47092208D01*
X69441861Y-47226061D01*
X69426135Y-47237470D01*
X69253280Y-47343252D01*
X69250177Y-47345152D01*
X69232854Y-47353967D01*
X69042228Y-47432830D01*
X69023739Y-47438830D01*
X68823138Y-47486932D01*
X68803940Y-47489969D01*
X68593413Y-47506515D01*
X68583697Y-47506896D01*
X68528144Y-47506896D01*
X68514879Y-47508996D01*
X22744853Y-47510423D01*
X22734923Y-47510025D01*
X22524309Y-47493112D01*
X22505118Y-47490042D01*
X22304384Y-47441547D01*
X22285907Y-47435516D01*
X22095207Y-47356243D01*
X22077901Y-47347399D01*
X22022412Y-47313312D01*
X21901939Y-47239303D01*
X21886226Y-47227862D01*
X21729313Y-47093593D01*
X21715584Y-47079841D01*
X21581582Y-46922700D01*
X21570173Y-46906975D01*
X21462364Y-46730811D01*
X21453560Y-46713508D01*
X21374610Y-46522670D01*
X21368611Y-46504183D01*
X21320456Y-46303361D01*
X21319924Y-46300000D01*
X37072918Y-46300000D01*
X37090778Y-46447079D01*
X37143315Y-46585610D01*
X37227480Y-46707544D01*
X37338375Y-46805788D01*
X37338376Y-46805788D01*
X37338378Y-46805790D01*
X37469567Y-46874643D01*
X37613420Y-46910100D01*
X37761579Y-46910100D01*
X37761580Y-46910100D01*
X37905433Y-46874643D01*
X38036622Y-46805790D01*
X38147520Y-46707543D01*
X38231684Y-46585610D01*
X38284222Y-46447079D01*
X38302081Y-46300000D01*
X56895865Y-46300000D01*
X56916327Y-46468510D01*
X56976520Y-46627227D01*
X57072948Y-46766928D01*
X57200003Y-46879489D01*
X57200004Y-46879489D01*
X57200006Y-46879491D01*
X57350311Y-46958377D01*
X57515126Y-46999000D01*
X57684873Y-46999000D01*
X57684874Y-46999000D01*
X57849689Y-46958377D01*
X57999994Y-46879491D01*
X58127052Y-46766927D01*
X58223480Y-46627227D01*
X58283673Y-46468510D01*
X58304134Y-46300000D01*
X58283673Y-46131490D01*
X58223480Y-45972773D01*
X58168042Y-45892457D01*
X58127051Y-45833071D01*
X57999996Y-45720510D01*
X57849687Y-45641622D01*
X57738783Y-45614287D01*
X57684874Y-45601000D01*
X57515126Y-45601000D01*
X57474504Y-45611012D01*
X57350312Y-45641622D01*
X57200003Y-45720510D01*
X57072948Y-45833071D01*
X56976520Y-45972772D01*
X56916327Y-46131489D01*
X56895865Y-46300000D01*
X38302081Y-46300000D01*
X38284222Y-46152921D01*
X38234605Y-46022092D01*
X38231684Y-46014389D01*
X38147519Y-45892455D01*
X38036624Y-45794211D01*
X37971027Y-45759783D01*
X37905433Y-45725357D01*
X37905432Y-45725356D01*
X37905431Y-45725356D01*
X37800301Y-45699444D01*
X37761580Y-45689900D01*
X37613420Y-45689900D01*
X37577964Y-45698639D01*
X37469568Y-45725356D01*
X37338375Y-45794211D01*
X37227480Y-45892455D01*
X37143315Y-46014389D01*
X37090778Y-46152920D01*
X37072918Y-46300000D01*
X21319924Y-46300000D01*
X21317419Y-46284163D01*
X21300855Y-46073413D01*
X21300474Y-46063695D01*
X21300475Y-46020975D01*
X21300474Y-46020972D01*
X21300474Y-45320250D01*
X22662800Y-45320250D01*
X22662800Y-45412786D01*
X22678219Y-45539773D01*
X22738774Y-45699444D01*
X22835779Y-45839981D01*
X22963605Y-45953224D01*
X23114809Y-46032583D01*
X23116000Y-46032876D01*
X23116000Y-45320250D01*
X23616000Y-45320250D01*
X23616000Y-46032876D01*
X23617190Y-46032583D01*
X23768394Y-45953224D01*
X23896220Y-45839981D01*
X23993225Y-45699444D01*
X24053780Y-45539773D01*
X24069200Y-45412786D01*
X24069200Y-45320250D01*
X31302800Y-45320250D01*
X31302800Y-45412786D01*
X31318219Y-45539773D01*
X31378774Y-45699444D01*
X31475779Y-45839981D01*
X31603605Y-45953224D01*
X31754809Y-46032583D01*
X31756000Y-46032876D01*
X31756000Y-45320250D01*
X32256000Y-45320250D01*
X32256000Y-46032876D01*
X32257190Y-46032583D01*
X32408394Y-45953224D01*
X32536220Y-45839981D01*
X32633225Y-45699444D01*
X32693780Y-45539773D01*
X32709200Y-45412786D01*
X32709200Y-45320250D01*
X32256000Y-45320250D01*
X31756000Y-45320250D01*
X31302800Y-45320250D01*
X24069200Y-45320250D01*
X23616000Y-45320250D01*
X23116000Y-45320250D01*
X22662800Y-45320250D01*
X21300474Y-45320250D01*
X21300474Y-45229999D01*
X58475418Y-45229999D01*
X58493278Y-45377079D01*
X58545815Y-45515610D01*
X58629980Y-45637544D01*
X58740875Y-45735788D01*
X58740876Y-45735788D01*
X58740878Y-45735790D01*
X58872067Y-45804643D01*
X59015920Y-45840100D01*
X59164079Y-45840100D01*
X59164080Y-45840100D01*
X59307933Y-45804643D01*
X59439122Y-45735790D01*
X59550020Y-45637543D01*
X59634184Y-45515610D01*
X59686722Y-45377079D01*
X59704581Y-45230000D01*
X59686722Y-45082921D01*
X59634184Y-44944390D01*
X59634184Y-44944389D01*
X59550019Y-44822455D01*
X59439124Y-44724211D01*
X59307931Y-44655356D01*
X59245628Y-44640000D01*
X66585418Y-44640000D01*
X66603278Y-44787079D01*
X66655815Y-44925610D01*
X66739980Y-45047544D01*
X66850875Y-45145788D01*
X66850876Y-45145788D01*
X66850878Y-45145790D01*
X66982067Y-45214643D01*
X67125920Y-45250100D01*
X67274079Y-45250100D01*
X67274080Y-45250100D01*
X67417933Y-45214643D01*
X67549122Y-45145790D01*
X67660020Y-45047543D01*
X67744184Y-44925610D01*
X67796722Y-44787079D01*
X67814581Y-44640000D01*
X67796722Y-44492921D01*
X67757539Y-44389603D01*
X67744184Y-44354389D01*
X67660019Y-44232455D01*
X67549124Y-44134211D01*
X67469416Y-44092377D01*
X67417933Y-44065357D01*
X67417932Y-44065356D01*
X67417931Y-44065356D01*
X67321133Y-44041497D01*
X67274080Y-44029900D01*
X67125920Y-44029900D01*
X67090464Y-44038639D01*
X66982068Y-44065356D01*
X66850875Y-44134211D01*
X66739980Y-44232455D01*
X66655815Y-44354389D01*
X66603278Y-44492920D01*
X66585418Y-44640000D01*
X59245628Y-44640000D01*
X59206667Y-44630397D01*
X59149727Y-44598734D01*
X59116697Y-44542576D01*
X59116697Y-44477424D01*
X59149727Y-44421266D01*
X59206667Y-44389603D01*
X59307933Y-44364643D01*
X59439122Y-44295790D01*
X59550020Y-44197543D01*
X59634184Y-44075610D01*
X59686722Y-43937079D01*
X59704581Y-43790000D01*
X59686722Y-43642921D01*
X59634184Y-43504390D01*
X59634184Y-43504389D01*
X59550019Y-43382455D01*
X59439124Y-43284211D01*
X59307931Y-43215356D01*
X59211133Y-43191497D01*
X59164080Y-43179900D01*
X59015920Y-43179900D01*
X58980463Y-43188639D01*
X58872068Y-43215356D01*
X58740875Y-43284211D01*
X58629980Y-43382455D01*
X58545815Y-43504389D01*
X58493278Y-43642920D01*
X58475418Y-43790000D01*
X58493278Y-43937079D01*
X58545815Y-44075610D01*
X58629980Y-44197544D01*
X58740875Y-44295788D01*
X58740876Y-44295788D01*
X58740878Y-44295790D01*
X58872067Y-44364643D01*
X58939518Y-44381268D01*
X58973332Y-44389603D01*
X59030272Y-44421266D01*
X59063302Y-44477424D01*
X59063302Y-44542576D01*
X59030272Y-44598734D01*
X58973332Y-44630397D01*
X58872068Y-44655356D01*
X58740875Y-44724211D01*
X58629980Y-44822455D01*
X58545815Y-44944389D01*
X58493278Y-45082920D01*
X58475418Y-45229999D01*
X21300474Y-45229999D01*
X21300474Y-44820250D01*
X22662800Y-44820250D01*
X23116000Y-44820250D01*
X23116000Y-44107624D01*
X23115999Y-44107623D01*
X23616000Y-44107623D01*
X23616000Y-44820250D01*
X24069200Y-44820250D01*
X31302800Y-44820250D01*
X31756000Y-44820250D01*
X31756000Y-44107624D01*
X31755999Y-44107623D01*
X32256000Y-44107623D01*
X32256000Y-44820250D01*
X32709200Y-44820250D01*
X32709200Y-44727714D01*
X32693780Y-44600726D01*
X32633225Y-44441055D01*
X32536220Y-44300518D01*
X32408394Y-44187275D01*
X32257190Y-44107916D01*
X32256000Y-44107623D01*
X31755999Y-44107623D01*
X31754809Y-44107916D01*
X31603605Y-44187275D01*
X31475779Y-44300518D01*
X31378774Y-44441055D01*
X31318219Y-44600726D01*
X31302800Y-44727714D01*
X31302800Y-44820250D01*
X24069200Y-44820250D01*
X24069200Y-44727714D01*
X24053780Y-44600726D01*
X23993225Y-44441055D01*
X23896220Y-44300518D01*
X23768394Y-44187275D01*
X23617190Y-44107916D01*
X23616000Y-44107623D01*
X23115999Y-44107623D01*
X23114809Y-44107916D01*
X22963605Y-44187275D01*
X22835779Y-44300518D01*
X22738774Y-44441055D01*
X22678219Y-44600726D01*
X22662800Y-44727714D01*
X22662800Y-44820250D01*
X21300474Y-44820250D01*
X21300474Y-43730000D01*
X34345418Y-43730000D01*
X34363278Y-43877079D01*
X34415815Y-44015610D01*
X34499980Y-44137544D01*
X34610875Y-44235788D01*
X34610876Y-44235788D01*
X34610878Y-44235790D01*
X34742067Y-44304643D01*
X34885920Y-44340100D01*
X35034079Y-44340100D01*
X35034080Y-44340100D01*
X35177933Y-44304643D01*
X35309122Y-44235790D01*
X35420020Y-44137543D01*
X35504184Y-44015610D01*
X35556722Y-43877079D01*
X35564867Y-43810000D01*
X36095418Y-43810000D01*
X36113278Y-43957079D01*
X36165815Y-44095610D01*
X36249980Y-44217544D01*
X36360875Y-44315788D01*
X36360876Y-44315788D01*
X36360878Y-44315790D01*
X36492067Y-44384643D01*
X36635920Y-44420100D01*
X36784079Y-44420100D01*
X36784080Y-44420100D01*
X36927933Y-44384643D01*
X37059122Y-44315790D01*
X37170020Y-44217543D01*
X37254184Y-44095610D01*
X37306722Y-43957079D01*
X37324581Y-43810000D01*
X37306722Y-43662921D01*
X37254184Y-43524390D01*
X37254184Y-43524389D01*
X37170019Y-43402455D01*
X37059124Y-43304211D01*
X36927931Y-43235356D01*
X36831133Y-43211497D01*
X36784080Y-43199900D01*
X36635920Y-43199900D01*
X36600464Y-43208639D01*
X36492068Y-43235356D01*
X36360875Y-43304211D01*
X36249980Y-43402455D01*
X36165815Y-43524389D01*
X36113278Y-43662920D01*
X36095418Y-43810000D01*
X35564867Y-43810000D01*
X35574581Y-43730000D01*
X35556722Y-43582921D01*
X35504184Y-43444390D01*
X35504184Y-43444389D01*
X35420019Y-43322455D01*
X35309124Y-43224211D01*
X35177931Y-43155356D01*
X35081133Y-43131497D01*
X35034080Y-43119900D01*
X34885920Y-43119900D01*
X34850463Y-43128639D01*
X34742068Y-43155356D01*
X34610875Y-43224211D01*
X34499980Y-43322455D01*
X34415815Y-43444389D01*
X34363278Y-43582920D01*
X34345418Y-43730000D01*
X21300474Y-43730000D01*
X21300474Y-42485000D01*
X27460418Y-42485000D01*
X27478278Y-42632079D01*
X27530815Y-42770610D01*
X27614980Y-42892544D01*
X27725875Y-42990788D01*
X27725876Y-42990788D01*
X27725878Y-42990790D01*
X27857067Y-43059643D01*
X28000920Y-43095100D01*
X28149079Y-43095100D01*
X28149080Y-43095100D01*
X28292933Y-43059643D01*
X28424122Y-42990790D01*
X28535020Y-42892543D01*
X28619184Y-42770610D01*
X28619415Y-42770000D01*
X40175418Y-42770000D01*
X40193278Y-42917079D01*
X40245815Y-43055610D01*
X40329980Y-43177544D01*
X40440875Y-43275788D01*
X40440876Y-43275788D01*
X40440878Y-43275790D01*
X40572067Y-43344643D01*
X40715920Y-43380100D01*
X40864079Y-43380100D01*
X40864080Y-43380100D01*
X41007933Y-43344643D01*
X41139122Y-43275790D01*
X41224784Y-43199900D01*
X41250019Y-43177544D01*
X41265335Y-43155356D01*
X41334184Y-43055610D01*
X41386722Y-42917079D01*
X41404581Y-42770000D01*
X41386722Y-42622921D01*
X41354108Y-42536927D01*
X41334184Y-42484389D01*
X41250019Y-42362455D01*
X41154689Y-42278000D01*
X51273365Y-42278000D01*
X51293827Y-42446510D01*
X51354020Y-42605227D01*
X51450448Y-42744928D01*
X51577503Y-42857489D01*
X51577504Y-42857489D01*
X51577506Y-42857491D01*
X51727811Y-42936377D01*
X51892626Y-42977000D01*
X52062372Y-42977000D01*
X52062374Y-42977000D01*
X52153834Y-42954457D01*
X52220396Y-42956468D01*
X52276321Y-42992626D01*
X52305475Y-43052501D01*
X52299448Y-43118824D01*
X52243827Y-43265487D01*
X52223365Y-43433999D01*
X52243827Y-43602510D01*
X52304020Y-43761227D01*
X52400448Y-43900928D01*
X52527503Y-44013489D01*
X52527504Y-44013489D01*
X52527506Y-44013491D01*
X52677811Y-44092377D01*
X52842626Y-44133000D01*
X53012373Y-44133000D01*
X53012374Y-44133000D01*
X53177189Y-44092377D01*
X53327494Y-44013491D01*
X53454552Y-43900927D01*
X53550980Y-43761227D01*
X53611173Y-43602510D01*
X53631634Y-43434000D01*
X53611173Y-43265490D01*
X53550980Y-43106773D01*
X53470923Y-42990790D01*
X53454551Y-42967071D01*
X53327496Y-42854510D01*
X53177187Y-42775622D01*
X53066283Y-42748287D01*
X53012374Y-42735000D01*
X52842626Y-42735000D01*
X52751167Y-42757542D01*
X52684602Y-42755530D01*
X52628678Y-42719372D01*
X52599524Y-42659497D01*
X52605551Y-42593174D01*
X52612144Y-42575790D01*
X52661173Y-42446510D01*
X52681634Y-42278000D01*
X52674288Y-42217499D01*
X55895865Y-42217499D01*
X55916327Y-42386010D01*
X55976520Y-42544727D01*
X56072948Y-42684428D01*
X56200003Y-42796989D01*
X56200004Y-42796989D01*
X56200006Y-42796991D01*
X56350311Y-42875877D01*
X56515126Y-42916500D01*
X56684873Y-42916500D01*
X56684874Y-42916500D01*
X56849689Y-42875877D01*
X56999994Y-42796991D01*
X57127052Y-42684427D01*
X57223480Y-42544727D01*
X57283673Y-42386010D01*
X57304134Y-42217500D01*
X57286224Y-42070000D01*
X58585418Y-42070000D01*
X58603278Y-42217079D01*
X58655815Y-42355610D01*
X58739980Y-42477544D01*
X58850875Y-42575788D01*
X58850876Y-42575788D01*
X58850878Y-42575790D01*
X58982067Y-42644643D01*
X59125920Y-42680100D01*
X59274079Y-42680100D01*
X59274080Y-42680100D01*
X59417933Y-42644643D01*
X59549122Y-42575790D01*
X59652291Y-42484390D01*
X59660019Y-42477544D01*
X59679301Y-42449610D01*
X59744184Y-42355610D01*
X59796722Y-42217079D01*
X59803167Y-42164000D01*
X67711418Y-42164000D01*
X67729278Y-42311079D01*
X67781815Y-42449610D01*
X67865980Y-42571544D01*
X67976875Y-42669788D01*
X67976876Y-42669788D01*
X67976878Y-42669790D01*
X68108067Y-42738643D01*
X68251920Y-42774100D01*
X68400079Y-42774100D01*
X68400080Y-42774100D01*
X68543933Y-42738643D01*
X68675122Y-42669790D01*
X68761604Y-42593174D01*
X68786019Y-42571544D01*
X68804530Y-42544727D01*
X68870184Y-42449610D01*
X68922722Y-42311079D01*
X68940581Y-42164000D01*
X68922722Y-42016921D01*
X68885197Y-41917975D01*
X68870184Y-41878389D01*
X68786019Y-41756455D01*
X68675124Y-41658211D01*
X68543931Y-41589356D01*
X68421266Y-41559122D01*
X68400080Y-41553900D01*
X68251920Y-41553900D01*
X68230734Y-41559122D01*
X68108068Y-41589356D01*
X67976875Y-41658211D01*
X67865980Y-41756455D01*
X67781815Y-41878389D01*
X67729278Y-42016920D01*
X67711418Y-42164000D01*
X59803167Y-42164000D01*
X59814581Y-42070000D01*
X59796722Y-41922921D01*
X59747976Y-41794389D01*
X59744184Y-41784389D01*
X59660019Y-41662455D01*
X59549124Y-41564211D01*
X59417931Y-41495356D01*
X59314651Y-41469900D01*
X59274080Y-41459900D01*
X59125920Y-41459900D01*
X59090464Y-41468639D01*
X58982068Y-41495356D01*
X58850875Y-41564211D01*
X58739980Y-41662455D01*
X58655815Y-41784389D01*
X58603278Y-41922920D01*
X58585418Y-42070000D01*
X57286224Y-42070000D01*
X57283673Y-42048990D01*
X57223480Y-41890273D01*
X57146013Y-41778043D01*
X57127051Y-41750571D01*
X56999996Y-41638010D01*
X56907293Y-41589356D01*
X56849689Y-41559123D01*
X56849688Y-41559122D01*
X56849687Y-41559122D01*
X56738783Y-41531787D01*
X56684874Y-41518500D01*
X56515126Y-41518500D01*
X56474504Y-41528512D01*
X56350312Y-41559122D01*
X56200003Y-41638010D01*
X56072948Y-41750571D01*
X55976520Y-41890272D01*
X55916327Y-42048989D01*
X55895865Y-42217499D01*
X52674288Y-42217499D01*
X52661173Y-42109490D01*
X52600980Y-41950773D01*
X52518724Y-41831604D01*
X52504551Y-41811071D01*
X52377496Y-41698510D01*
X52227187Y-41619622D01*
X52104390Y-41589356D01*
X52062374Y-41579000D01*
X51892626Y-41579000D01*
X51852004Y-41589012D01*
X51727812Y-41619622D01*
X51577503Y-41698510D01*
X51450448Y-41811071D01*
X51354020Y-41950772D01*
X51293827Y-42109489D01*
X51273365Y-42278000D01*
X41154689Y-42278000D01*
X41139124Y-42264211D01*
X41007931Y-42195356D01*
X40880714Y-42164000D01*
X40864080Y-42159900D01*
X40715920Y-42159900D01*
X40699290Y-42163999D01*
X40572068Y-42195356D01*
X40440875Y-42264211D01*
X40329980Y-42362455D01*
X40245815Y-42484389D01*
X40193278Y-42622920D01*
X40175418Y-42770000D01*
X28619415Y-42770000D01*
X28644986Y-42702574D01*
X28678701Y-42653729D01*
X28731253Y-42626148D01*
X28777933Y-42614643D01*
X28909122Y-42545790D01*
X29020020Y-42447543D01*
X29104184Y-42325610D01*
X29156722Y-42187079D01*
X29174581Y-42040000D01*
X29156722Y-41892921D01*
X29118536Y-41792232D01*
X29104184Y-41754389D01*
X29020019Y-41632455D01*
X28909124Y-41534211D01*
X28777931Y-41465356D01*
X28681133Y-41441497D01*
X28634080Y-41429900D01*
X28485920Y-41429900D01*
X28450464Y-41438639D01*
X28342068Y-41465356D01*
X28210875Y-41534211D01*
X28099980Y-41632455D01*
X28015814Y-41754391D01*
X27990011Y-41822427D01*
X27956298Y-41871269D01*
X27903748Y-41898850D01*
X27857068Y-41910356D01*
X27725876Y-41979210D01*
X27614980Y-42077455D01*
X27530815Y-42199389D01*
X27478278Y-42337920D01*
X27460418Y-42485000D01*
X21300474Y-42485000D01*
X21300474Y-41140250D01*
X22662800Y-41140250D01*
X22662800Y-41482786D01*
X22678219Y-41609773D01*
X22738774Y-41769444D01*
X22835779Y-41909981D01*
X22963605Y-42023224D01*
X23114809Y-42102583D01*
X23116000Y-42102876D01*
X23116000Y-41140250D01*
X23616000Y-41140250D01*
X23616000Y-42102876D01*
X23617190Y-42102583D01*
X23768394Y-42023224D01*
X23896220Y-41909981D01*
X23993225Y-41769444D01*
X24053780Y-41609773D01*
X24069200Y-41482786D01*
X24069200Y-41387972D01*
X24365283Y-41387972D01*
X24374904Y-41516360D01*
X24421943Y-41636213D01*
X24502214Y-41736870D01*
X24502215Y-41736870D01*
X24502217Y-41736873D01*
X24608595Y-41809400D01*
X24731625Y-41847350D01*
X24828005Y-41847350D01*
X24923312Y-41832985D01*
X25039311Y-41777122D01*
X25133692Y-41689550D01*
X25198067Y-41578050D01*
X25226716Y-41452528D01*
X25221878Y-41387972D01*
X30145283Y-41387972D01*
X30154904Y-41516360D01*
X30201943Y-41636213D01*
X30282214Y-41736870D01*
X30282215Y-41736870D01*
X30282217Y-41736873D01*
X30388595Y-41809400D01*
X30511625Y-41847350D01*
X30608005Y-41847350D01*
X30703312Y-41832985D01*
X30819311Y-41777122D01*
X30913692Y-41689550D01*
X30978067Y-41578050D01*
X31006716Y-41452528D01*
X30997095Y-41324138D01*
X30950057Y-41204288D01*
X30950056Y-41204287D01*
X30950056Y-41204286D01*
X30898989Y-41140250D01*
X31302800Y-41140250D01*
X31302800Y-41482786D01*
X31318219Y-41609773D01*
X31378774Y-41769444D01*
X31475779Y-41909981D01*
X31603605Y-42023224D01*
X31754809Y-42102583D01*
X31756000Y-42102876D01*
X31756000Y-41140250D01*
X32256000Y-41140250D01*
X32256000Y-42102876D01*
X32257190Y-42102583D01*
X32408394Y-42023224D01*
X32536221Y-41909980D01*
X32590320Y-41831604D01*
X32634735Y-41792251D01*
X32692349Y-41778043D01*
X32749968Y-41792232D01*
X32794396Y-41831569D01*
X32815460Y-41887045D01*
X32811767Y-41917571D01*
X32815093Y-41917975D01*
X32795418Y-42080000D01*
X32813278Y-42227079D01*
X32865815Y-42365610D01*
X32949980Y-42487544D01*
X33060875Y-42585788D01*
X33060876Y-42585788D01*
X33060878Y-42585790D01*
X33192067Y-42654643D01*
X33335920Y-42690100D01*
X33484079Y-42690100D01*
X33484080Y-42690100D01*
X33627933Y-42654643D01*
X33759122Y-42585790D01*
X33870020Y-42487543D01*
X33954184Y-42365610D01*
X34006722Y-42227079D01*
X34024581Y-42080000D01*
X34006722Y-41932921D01*
X33968821Y-41832984D01*
X33954184Y-41794389D01*
X33870019Y-41672455D01*
X33759124Y-41574211D01*
X33648901Y-41516362D01*
X33627933Y-41505357D01*
X33627932Y-41505356D01*
X33627931Y-41505356D01*
X33531133Y-41481497D01*
X33484080Y-41469900D01*
X33335920Y-41469900D01*
X33300463Y-41478639D01*
X33192068Y-41505356D01*
X33060875Y-41574211D01*
X32949979Y-41672456D01*
X32908720Y-41732231D01*
X32864296Y-41771587D01*
X32806670Y-41785790D01*
X32749044Y-41771586D01*
X32704620Y-41732229D01*
X32683575Y-41676734D01*
X32690730Y-41617817D01*
X32693780Y-41609773D01*
X32709200Y-41482786D01*
X32709200Y-41140250D01*
X32256000Y-41140250D01*
X31756000Y-41140250D01*
X31302800Y-41140250D01*
X30898989Y-41140250D01*
X30869785Y-41103629D01*
X30869784Y-41103628D01*
X30869783Y-41103627D01*
X30763405Y-41031100D01*
X30763404Y-41031099D01*
X30763403Y-41031099D01*
X30640375Y-40993150D01*
X30543995Y-40993150D01*
X30448687Y-41007515D01*
X30332688Y-41063377D01*
X30238307Y-41150950D01*
X30173932Y-41262450D01*
X30145283Y-41387972D01*
X25221878Y-41387972D01*
X25217095Y-41324138D01*
X25170057Y-41204288D01*
X25170056Y-41204287D01*
X25170056Y-41204286D01*
X25089785Y-41103629D01*
X25089784Y-41103628D01*
X25089783Y-41103627D01*
X24983405Y-41031100D01*
X24983404Y-41031099D01*
X24983403Y-41031099D01*
X24860375Y-40993150D01*
X24763995Y-40993150D01*
X24668687Y-41007515D01*
X24552688Y-41063377D01*
X24458307Y-41150950D01*
X24393932Y-41262450D01*
X24365283Y-41387972D01*
X24069200Y-41387972D01*
X24069200Y-41140250D01*
X23616000Y-41140250D01*
X23116000Y-41140250D01*
X22662800Y-41140250D01*
X21300474Y-41140250D01*
X21300474Y-40640250D01*
X22662800Y-40640250D01*
X23116000Y-40640250D01*
X23116000Y-39677624D01*
X23115999Y-39677623D01*
X23616000Y-39677623D01*
X23616000Y-40640250D01*
X24069200Y-40640250D01*
X31302800Y-40640250D01*
X31756000Y-40640250D01*
X31756000Y-39677624D01*
X31755999Y-39677623D01*
X32256000Y-39677623D01*
X32256000Y-40640250D01*
X32709200Y-40640250D01*
X32709200Y-40400000D01*
X45435418Y-40400000D01*
X45453278Y-40547079D01*
X45505815Y-40685610D01*
X45589980Y-40807544D01*
X45700875Y-40905788D01*
X45700876Y-40905788D01*
X45700878Y-40905790D01*
X45832067Y-40974643D01*
X45975920Y-41010100D01*
X46124079Y-41010100D01*
X46124080Y-41010100D01*
X46267933Y-40974643D01*
X46399122Y-40905790D01*
X46510020Y-40807543D01*
X46594184Y-40685610D01*
X46646722Y-40547079D01*
X46664581Y-40400000D01*
X46646722Y-40252921D01*
X46594184Y-40114390D01*
X46594184Y-40114389D01*
X46510019Y-39992455D01*
X46399124Y-39894211D01*
X46267931Y-39825356D01*
X46171133Y-39801497D01*
X46124080Y-39789900D01*
X45975920Y-39789900D01*
X45940463Y-39798639D01*
X45832068Y-39825356D01*
X45700875Y-39894211D01*
X45589980Y-39992455D01*
X45505815Y-40114389D01*
X45453278Y-40252920D01*
X45435418Y-40400000D01*
X32709200Y-40400000D01*
X32709200Y-40297714D01*
X32693780Y-40170726D01*
X32633225Y-40011055D01*
X32536220Y-39870518D01*
X32408394Y-39757275D01*
X32257190Y-39677916D01*
X32256000Y-39677623D01*
X31755999Y-39677623D01*
X31754809Y-39677916D01*
X31603605Y-39757275D01*
X31475779Y-39870518D01*
X31378774Y-40011055D01*
X31318219Y-40170726D01*
X31302800Y-40297714D01*
X31302800Y-40640250D01*
X24069200Y-40640250D01*
X24069200Y-40297714D01*
X24053780Y-40170726D01*
X23993225Y-40011055D01*
X23896220Y-39870518D01*
X23768394Y-39757275D01*
X23617190Y-39677916D01*
X23616000Y-39677623D01*
X23115999Y-39677623D01*
X23114809Y-39677916D01*
X22963605Y-39757275D01*
X22835779Y-39870518D01*
X22738774Y-40011055D01*
X22678219Y-40170726D01*
X22662800Y-40297714D01*
X22662800Y-40640250D01*
X21300474Y-40640250D01*
X21300474Y-38099999D01*
X24187865Y-38099999D01*
X24208327Y-38268510D01*
X24268520Y-38427227D01*
X24364948Y-38566928D01*
X24492003Y-38679489D01*
X24492004Y-38679489D01*
X24492006Y-38679491D01*
X24642311Y-38758377D01*
X24807126Y-38799000D01*
X24976873Y-38799000D01*
X24976874Y-38799000D01*
X25141689Y-38758377D01*
X25291994Y-38679491D01*
X25419052Y-38566927D01*
X25515480Y-38427227D01*
X25575673Y-38268510D01*
X25587286Y-38172873D01*
X26792164Y-38172873D01*
X26810024Y-38319952D01*
X26862561Y-38458483D01*
X26946726Y-38580417D01*
X27057621Y-38678661D01*
X27057622Y-38678661D01*
X27057624Y-38678663D01*
X27188813Y-38747516D01*
X27332666Y-38782973D01*
X27480824Y-38782973D01*
X27480826Y-38782973D01*
X27624679Y-38747516D01*
X27662540Y-38727644D01*
X27720164Y-38713442D01*
X27757077Y-38722541D01*
X27757448Y-38721040D01*
X27844777Y-38742564D01*
X27915920Y-38760100D01*
X28064079Y-38760100D01*
X28064080Y-38760100D01*
X28207933Y-38724643D01*
X28339122Y-38655790D01*
X28450020Y-38557543D01*
X28534184Y-38435610D01*
X28586722Y-38297079D01*
X28604581Y-38150000D01*
X28586722Y-38002921D01*
X28544948Y-37892772D01*
X28534184Y-37864389D01*
X28450019Y-37742455D01*
X28385441Y-37685244D01*
X29518869Y-37685244D01*
X29536729Y-37832324D01*
X29589821Y-37972316D01*
X29597879Y-38016287D01*
X29589821Y-38060258D01*
X29542327Y-38185489D01*
X29521865Y-38354000D01*
X29542327Y-38522510D01*
X29602520Y-38681227D01*
X29698948Y-38820928D01*
X29826003Y-38933489D01*
X29826004Y-38933489D01*
X29826006Y-38933491D01*
X29976311Y-39012377D01*
X30141126Y-39053000D01*
X30310873Y-39053000D01*
X30310874Y-39053000D01*
X30475689Y-39012377D01*
X30625994Y-38933491D01*
X30753052Y-38820927D01*
X30849480Y-38681227D01*
X30868908Y-38630000D01*
X44395418Y-38630000D01*
X44413278Y-38777079D01*
X44465815Y-38915610D01*
X44549980Y-39037544D01*
X44660875Y-39135788D01*
X44660876Y-39135788D01*
X44660878Y-39135790D01*
X44792067Y-39204643D01*
X44935920Y-39240100D01*
X45084079Y-39240100D01*
X45084080Y-39240100D01*
X45227933Y-39204643D01*
X45359122Y-39135790D01*
X45470020Y-39037543D01*
X45554184Y-38915610D01*
X45561228Y-38897034D01*
X45594942Y-38848191D01*
X45647495Y-38820609D01*
X45706843Y-38820609D01*
X45785920Y-38840100D01*
X45934079Y-38840100D01*
X45934080Y-38840100D01*
X46077933Y-38804643D01*
X46209122Y-38735790D01*
X46320020Y-38637543D01*
X46404184Y-38515610D01*
X46456722Y-38377079D01*
X46474581Y-38230000D01*
X46456722Y-38082921D01*
X46411229Y-37962966D01*
X46404184Y-37944389D01*
X46320019Y-37822455D01*
X46209124Y-37724211D01*
X46077931Y-37655356D01*
X45956678Y-37625470D01*
X45934080Y-37619900D01*
X45785920Y-37619900D01*
X45763322Y-37625470D01*
X45642068Y-37655356D01*
X45510875Y-37724211D01*
X45399980Y-37822455D01*
X45315814Y-37944391D01*
X45308770Y-37962966D01*
X45275055Y-38011809D01*
X45222504Y-38039390D01*
X45163154Y-38039390D01*
X45125736Y-38030167D01*
X45084080Y-38019900D01*
X44935920Y-38019900D01*
X44900463Y-38028639D01*
X44792068Y-38055356D01*
X44660875Y-38124211D01*
X44549980Y-38222455D01*
X44465815Y-38344389D01*
X44413278Y-38482920D01*
X44395418Y-38630000D01*
X30868908Y-38630000D01*
X30909673Y-38522510D01*
X30930134Y-38354000D01*
X30909673Y-38185490D01*
X30849480Y-38026773D01*
X30754654Y-37889394D01*
X30736309Y-37848633D01*
X30733610Y-37804015D01*
X30742598Y-37729999D01*
X39155418Y-37729999D01*
X39173278Y-37877079D01*
X39225815Y-38015610D01*
X39309980Y-38137544D01*
X39420875Y-38235788D01*
X39420876Y-38235788D01*
X39420878Y-38235790D01*
X39552067Y-38304643D01*
X39695920Y-38340100D01*
X39844079Y-38340100D01*
X39844080Y-38340100D01*
X39987933Y-38304643D01*
X40119122Y-38235790D01*
X40230020Y-38137543D01*
X40314184Y-38015610D01*
X40366722Y-37877079D01*
X40384581Y-37730000D01*
X40366722Y-37582921D01*
X40334108Y-37496926D01*
X40314184Y-37444389D01*
X40230019Y-37322455D01*
X40119124Y-37224211D01*
X40033848Y-37179455D01*
X39987933Y-37155357D01*
X39987932Y-37155356D01*
X39987931Y-37155356D01*
X39891133Y-37131497D01*
X39844080Y-37119900D01*
X39695920Y-37119900D01*
X39660464Y-37128639D01*
X39552068Y-37155356D01*
X39420875Y-37224211D01*
X39309980Y-37322455D01*
X39225815Y-37444389D01*
X39173278Y-37582920D01*
X39155418Y-37729999D01*
X30742598Y-37729999D01*
X30748032Y-37685245D01*
X30730173Y-37538166D01*
X30677635Y-37399635D01*
X30677635Y-37399634D01*
X30593470Y-37277700D01*
X30482575Y-37179456D01*
X30351382Y-37110601D01*
X30254584Y-37086742D01*
X30207531Y-37075145D01*
X30059371Y-37075145D01*
X30023914Y-37083884D01*
X29915519Y-37110601D01*
X29784326Y-37179456D01*
X29673431Y-37277700D01*
X29589266Y-37399634D01*
X29536729Y-37538165D01*
X29518869Y-37685244D01*
X28385441Y-37685244D01*
X28339124Y-37644211D01*
X28207931Y-37575356D01*
X28081566Y-37544210D01*
X28064080Y-37539900D01*
X27915920Y-37539900D01*
X27898434Y-37544210D01*
X27772067Y-37575356D01*
X27734207Y-37595227D01*
X27676582Y-37609430D01*
X27639667Y-37600331D01*
X27639297Y-37601833D01*
X27594616Y-37590820D01*
X27480826Y-37562773D01*
X27332666Y-37562773D01*
X27320426Y-37565790D01*
X27188814Y-37598229D01*
X27057621Y-37667084D01*
X26946726Y-37765328D01*
X26862561Y-37887262D01*
X26810024Y-38025793D01*
X26792164Y-38172873D01*
X25587286Y-38172873D01*
X25596134Y-38100000D01*
X25575673Y-37931490D01*
X25515480Y-37772773D01*
X25442528Y-37667084D01*
X25419051Y-37633071D01*
X25291996Y-37520510D01*
X25216841Y-37481066D01*
X25141689Y-37441623D01*
X25141688Y-37441622D01*
X25141687Y-37441622D01*
X25030783Y-37414287D01*
X24976874Y-37401000D01*
X24807126Y-37401000D01*
X24766504Y-37411012D01*
X24642312Y-37441622D01*
X24492003Y-37520510D01*
X24364948Y-37633071D01*
X24268520Y-37772772D01*
X24208327Y-37931489D01*
X24187865Y-38099999D01*
X21300474Y-38099999D01*
X21300474Y-36279999D01*
X23574918Y-36279999D01*
X23592778Y-36427079D01*
X23645315Y-36565610D01*
X23729480Y-36687544D01*
X23840375Y-36785788D01*
X23840376Y-36785788D01*
X23840378Y-36785790D01*
X23971567Y-36854643D01*
X24115420Y-36890100D01*
X24263579Y-36890100D01*
X24263580Y-36890100D01*
X24407433Y-36854643D01*
X24538622Y-36785790D01*
X24649520Y-36687543D01*
X24733684Y-36565610D01*
X24786222Y-36427079D01*
X24800438Y-36310000D01*
X61885418Y-36310000D01*
X61903278Y-36457079D01*
X61955815Y-36595610D01*
X62039980Y-36717544D01*
X62150875Y-36815788D01*
X62150876Y-36815788D01*
X62150878Y-36815790D01*
X62282067Y-36884643D01*
X62425920Y-36920100D01*
X62574077Y-36920100D01*
X62574080Y-36920100D01*
X62691067Y-36891264D01*
X62740627Y-36889268D01*
X62787010Y-36906858D01*
X62822787Y-36941222D01*
X62909980Y-37067544D01*
X63020875Y-37165788D01*
X63020876Y-37165788D01*
X63020878Y-37165790D01*
X63152067Y-37234643D01*
X63295920Y-37270100D01*
X63295921Y-37270100D01*
X63395040Y-37270100D01*
X63443644Y-37280023D01*
X63484469Y-37308202D01*
X63510982Y-37350129D01*
X63535815Y-37415609D01*
X63619980Y-37537544D01*
X63730875Y-37635788D01*
X63730876Y-37635788D01*
X63730878Y-37635790D01*
X63862067Y-37704643D01*
X64005920Y-37740100D01*
X64154080Y-37740100D01*
X64201507Y-37728410D01*
X64268070Y-37730420D01*
X64323995Y-37766576D01*
X64353150Y-37826450D01*
X64347126Y-37892772D01*
X64343278Y-37902918D01*
X64325418Y-38050000D01*
X64343278Y-38197079D01*
X64395815Y-38335610D01*
X64479980Y-38457544D01*
X64590875Y-38555788D01*
X64590876Y-38555788D01*
X64590878Y-38555790D01*
X64722067Y-38624643D01*
X64865920Y-38660100D01*
X65014079Y-38660100D01*
X65014080Y-38660100D01*
X65157933Y-38624643D01*
X65289122Y-38555790D01*
X65400020Y-38457543D01*
X65484184Y-38335610D01*
X65536722Y-38197079D01*
X65554581Y-38050000D01*
X65536722Y-37902921D01*
X65499210Y-37804010D01*
X65484184Y-37764389D01*
X65408924Y-37655357D01*
X65402681Y-37646313D01*
X65381636Y-37590820D01*
X65388791Y-37531901D01*
X65422504Y-37483059D01*
X65440020Y-37467543D01*
X65524184Y-37345610D01*
X65576722Y-37207079D01*
X65594581Y-37060000D01*
X65576722Y-36912921D01*
X65539884Y-36815788D01*
X65524184Y-36774389D01*
X65440019Y-36652455D01*
X65365917Y-36586807D01*
X65329039Y-36528489D01*
X65329041Y-36459489D01*
X65365918Y-36401176D01*
X65370020Y-36397543D01*
X65454184Y-36275610D01*
X65506722Y-36137079D01*
X65524581Y-35990000D01*
X65506722Y-35842921D01*
X65454551Y-35705357D01*
X65454184Y-35704389D01*
X65370019Y-35582455D01*
X65259124Y-35484211D01*
X65127931Y-35415356D01*
X65031133Y-35391497D01*
X64984080Y-35379900D01*
X64835920Y-35379900D01*
X64803057Y-35388000D01*
X64692068Y-35415356D01*
X64560875Y-35484211D01*
X64449980Y-35582455D01*
X64365815Y-35704389D01*
X64313278Y-35842920D01*
X64295418Y-35989999D01*
X64313278Y-36137079D01*
X64365815Y-36275609D01*
X64426679Y-36363785D01*
X64447725Y-36419278D01*
X64440571Y-36478196D01*
X64406856Y-36527040D01*
X64354305Y-36554622D01*
X64294954Y-36554622D01*
X64183048Y-36527040D01*
X64154080Y-36519900D01*
X64054960Y-36519900D01*
X64006356Y-36509977D01*
X63965531Y-36481798D01*
X63939018Y-36439871D01*
X63914184Y-36374390D01*
X63830019Y-36252455D01*
X63719124Y-36154211D01*
X63587931Y-36085356D01*
X63491133Y-36061497D01*
X63444080Y-36049900D01*
X63295920Y-36049900D01*
X63178936Y-36078733D01*
X63129371Y-36080730D01*
X63082988Y-36063140D01*
X63047212Y-36028776D01*
X62960019Y-35902455D01*
X62849124Y-35804211D01*
X62717931Y-35735356D01*
X62621133Y-35711497D01*
X62574080Y-35699900D01*
X62425920Y-35699900D01*
X62390464Y-35708639D01*
X62282068Y-35735356D01*
X62150875Y-35804211D01*
X62039980Y-35902455D01*
X61955815Y-36024389D01*
X61903278Y-36162920D01*
X61885418Y-36310000D01*
X24800438Y-36310000D01*
X24804081Y-36280000D01*
X24786222Y-36132921D01*
X24733684Y-35994390D01*
X24733684Y-35994389D01*
X24649519Y-35872455D01*
X24538624Y-35774211D01*
X24407431Y-35705356D01*
X24310633Y-35681497D01*
X24263580Y-35669900D01*
X24115420Y-35669900D01*
X24079964Y-35678639D01*
X23971568Y-35705356D01*
X23840375Y-35774211D01*
X23729480Y-35872455D01*
X23645315Y-35994389D01*
X23592778Y-36132920D01*
X23574918Y-36279999D01*
X21300474Y-36279999D01*
X21300474Y-34250000D01*
X23574918Y-34250000D01*
X23592778Y-34397079D01*
X23645315Y-34535610D01*
X23729480Y-34657544D01*
X23840375Y-34755788D01*
X23840376Y-34755788D01*
X23840378Y-34755790D01*
X23971567Y-34824643D01*
X24115420Y-34860100D01*
X24263579Y-34860100D01*
X24263580Y-34860100D01*
X24407433Y-34824643D01*
X24538622Y-34755790D01*
X24649520Y-34657543D01*
X24733684Y-34535610D01*
X24747189Y-34500000D01*
X30325418Y-34500000D01*
X30343278Y-34647079D01*
X30395815Y-34785610D01*
X30479980Y-34907544D01*
X30590875Y-35005788D01*
X30590876Y-35005788D01*
X30590878Y-35005790D01*
X30722067Y-35074643D01*
X30865920Y-35110100D01*
X31014079Y-35110100D01*
X31014080Y-35110100D01*
X31157933Y-35074643D01*
X31289122Y-35005790D01*
X31400020Y-34907543D01*
X31484184Y-34785610D01*
X31528029Y-34670000D01*
X36105418Y-34670000D01*
X36123278Y-34817079D01*
X36175815Y-34955610D01*
X36259980Y-35077544D01*
X36370875Y-35175788D01*
X36370876Y-35175788D01*
X36370878Y-35175790D01*
X36502067Y-35244643D01*
X36645920Y-35280100D01*
X36794079Y-35280100D01*
X36794080Y-35280100D01*
X36937933Y-35244643D01*
X37069122Y-35175790D01*
X37082129Y-35164266D01*
X37134680Y-35136685D01*
X37194031Y-35136685D01*
X37246583Y-35164267D01*
X37262182Y-35178086D01*
X37270878Y-35185790D01*
X37402067Y-35254643D01*
X37545920Y-35290100D01*
X37694079Y-35290100D01*
X37694080Y-35290100D01*
X37837933Y-35254643D01*
X37969122Y-35185790D01*
X38080020Y-35087543D01*
X38164184Y-34965610D01*
X38216722Y-34827079D01*
X38226081Y-34749999D01*
X40665418Y-34749999D01*
X40683278Y-34897079D01*
X40735815Y-35035610D01*
X40819980Y-35157544D01*
X40930875Y-35255788D01*
X40930876Y-35255788D01*
X40930878Y-35255790D01*
X41062067Y-35324643D01*
X41205920Y-35360100D01*
X41354079Y-35360100D01*
X41354080Y-35360100D01*
X41497933Y-35324643D01*
X41629122Y-35255790D01*
X41740020Y-35157543D01*
X41824184Y-35035610D01*
X41854767Y-34954968D01*
X41888481Y-34906124D01*
X41941033Y-34878542D01*
X42000384Y-34878542D01*
X42052936Y-34906123D01*
X42086651Y-34954968D01*
X42127815Y-35063509D01*
X42211980Y-35185444D01*
X42322875Y-35283688D01*
X42322876Y-35283688D01*
X42322878Y-35283690D01*
X42454067Y-35352543D01*
X42597920Y-35388000D01*
X42746079Y-35388000D01*
X42746080Y-35388000D01*
X42889933Y-35352543D01*
X43021122Y-35283690D01*
X43131628Y-35185790D01*
X43132019Y-35185444D01*
X43146637Y-35164267D01*
X43216184Y-35063510D01*
X43268722Y-34924979D01*
X43286581Y-34777900D01*
X43279550Y-34719999D01*
X49215418Y-34719999D01*
X49233278Y-34867079D01*
X49285815Y-35005610D01*
X49369980Y-35127544D01*
X49480875Y-35225788D01*
X49480876Y-35225788D01*
X49480878Y-35225790D01*
X49612067Y-35294643D01*
X49755920Y-35330100D01*
X49904079Y-35330100D01*
X49904080Y-35330100D01*
X50047933Y-35294643D01*
X50179122Y-35225790D01*
X50290020Y-35127543D01*
X50374184Y-35005610D01*
X50426722Y-34867079D01*
X50444581Y-34720000D01*
X50426722Y-34572921D01*
X50374184Y-34434390D01*
X50374184Y-34434389D01*
X50290019Y-34312455D01*
X50179124Y-34214211D01*
X50047931Y-34145356D01*
X49951133Y-34121497D01*
X49904080Y-34109900D01*
X49755920Y-34109900D01*
X49720464Y-34118639D01*
X49612068Y-34145356D01*
X49480875Y-34214211D01*
X49369980Y-34312455D01*
X49285815Y-34434389D01*
X49233278Y-34572920D01*
X49215418Y-34719999D01*
X43279550Y-34719999D01*
X43268722Y-34630821D01*
X43231593Y-34532920D01*
X43216184Y-34492289D01*
X43132019Y-34370355D01*
X43021124Y-34272111D01*
X42889931Y-34203256D01*
X42793133Y-34179397D01*
X42746080Y-34167800D01*
X42597920Y-34167800D01*
X42562463Y-34176539D01*
X42454068Y-34203256D01*
X42322875Y-34272111D01*
X42211980Y-34370355D01*
X42127816Y-34492289D01*
X42097232Y-34572932D01*
X42063517Y-34621776D01*
X42010965Y-34649357D01*
X41951614Y-34649357D01*
X41899063Y-34621775D01*
X41865348Y-34572931D01*
X41850174Y-34532920D01*
X41824184Y-34464390D01*
X41768964Y-34384390D01*
X41740019Y-34342455D01*
X41629124Y-34244211D01*
X41497931Y-34175356D01*
X41401133Y-34151497D01*
X41354080Y-34139900D01*
X41205920Y-34139900D01*
X41170463Y-34148639D01*
X41062068Y-34175356D01*
X40930875Y-34244211D01*
X40819980Y-34342455D01*
X40735815Y-34464389D01*
X40683278Y-34602920D01*
X40665418Y-34749999D01*
X38226081Y-34749999D01*
X38234581Y-34680000D01*
X38216722Y-34532921D01*
X38164184Y-34394390D01*
X38164184Y-34394389D01*
X38080019Y-34272455D01*
X37969124Y-34174211D01*
X37837931Y-34105356D01*
X37741133Y-34081497D01*
X37694080Y-34069900D01*
X37545920Y-34069900D01*
X37510463Y-34078639D01*
X37402068Y-34105356D01*
X37270874Y-34174212D01*
X37257867Y-34185735D01*
X37205315Y-34213314D01*
X37145966Y-34213313D01*
X37093416Y-34185732D01*
X37069124Y-34164211D01*
X36937931Y-34095356D01*
X36841133Y-34071497D01*
X36794080Y-34059900D01*
X36645920Y-34059900D01*
X36610463Y-34068639D01*
X36502068Y-34095356D01*
X36370875Y-34164211D01*
X36259980Y-34262455D01*
X36175815Y-34384389D01*
X36123278Y-34522920D01*
X36105418Y-34670000D01*
X31528029Y-34670000D01*
X31536722Y-34647079D01*
X31554581Y-34500000D01*
X31536722Y-34352921D01*
X31484184Y-34214390D01*
X31421561Y-34123664D01*
X31400516Y-34068174D01*
X31407670Y-34009256D01*
X31441382Y-33960413D01*
X31510021Y-33899606D01*
X31594185Y-33777673D01*
X31646723Y-33639142D01*
X31664582Y-33492063D01*
X31646723Y-33344984D01*
X31610700Y-33250000D01*
X31594185Y-33206452D01*
X31510020Y-33084518D01*
X31399125Y-32986274D01*
X31275534Y-32921409D01*
X31267934Y-32917420D01*
X31267933Y-32917419D01*
X31267932Y-32917419D01*
X31171134Y-32893560D01*
X31124081Y-32881963D01*
X30975921Y-32881963D01*
X30940464Y-32890702D01*
X30832069Y-32917419D01*
X30700876Y-32986274D01*
X30589981Y-33084518D01*
X30505816Y-33206452D01*
X30453279Y-33344983D01*
X30435419Y-33492062D01*
X30453279Y-33639142D01*
X30505816Y-33777673D01*
X30568438Y-33868395D01*
X30589484Y-33923888D01*
X30582330Y-33982805D01*
X30548616Y-34031650D01*
X30479979Y-34092457D01*
X30395815Y-34214389D01*
X30343278Y-34352920D01*
X30325418Y-34500000D01*
X24747189Y-34500000D01*
X24786222Y-34397079D01*
X24804081Y-34250000D01*
X24786222Y-34102921D01*
X24753608Y-34016927D01*
X24733684Y-33964389D01*
X24640967Y-33830066D01*
X24641589Y-33829636D01*
X24613045Y-33784493D01*
X24613049Y-33715493D01*
X24641590Y-33670364D01*
X24640967Y-33669934D01*
X24733684Y-33535610D01*
X24748686Y-33496052D01*
X24786222Y-33397079D01*
X24804081Y-33250000D01*
X24786222Y-33102921D01*
X24748255Y-33002810D01*
X24733684Y-32964389D01*
X24640967Y-32830066D01*
X24643318Y-32828442D01*
X24618691Y-32789500D01*
X24618691Y-32720500D01*
X24643318Y-32681557D01*
X24640967Y-32679934D01*
X24733684Y-32545610D01*
X24738374Y-32533244D01*
X24786222Y-32407079D01*
X24804081Y-32260000D01*
X24786222Y-32112921D01*
X24750624Y-32019057D01*
X24733684Y-31974389D01*
X24685062Y-31903948D01*
X27231470Y-31903948D01*
X27249330Y-32051027D01*
X27301867Y-32189558D01*
X27386032Y-32311492D01*
X27496927Y-32409736D01*
X27496928Y-32409736D01*
X27496930Y-32409738D01*
X27628119Y-32478591D01*
X27771972Y-32514048D01*
X27771973Y-32514048D01*
X27902919Y-32514048D01*
X27969193Y-32533244D01*
X28014947Y-32584890D01*
X28026015Y-32652995D01*
X28018218Y-32717199D01*
X28036078Y-32864279D01*
X28088615Y-33002809D01*
X28123165Y-33052864D01*
X28142608Y-33098500D01*
X28142608Y-33148104D01*
X28123166Y-33193740D01*
X28115816Y-33204387D01*
X28063278Y-33342920D01*
X28045418Y-33490000D01*
X28063278Y-33637079D01*
X28115815Y-33775610D01*
X28199980Y-33897544D01*
X28310875Y-33995788D01*
X28310876Y-33995788D01*
X28310878Y-33995790D01*
X28442067Y-34064643D01*
X28585920Y-34100100D01*
X28734079Y-34100100D01*
X28734080Y-34100100D01*
X28877933Y-34064643D01*
X29009122Y-33995790D01*
X29120020Y-33897543D01*
X29204184Y-33775610D01*
X29256722Y-33637079D01*
X29274581Y-33490000D01*
X29256722Y-33342921D01*
X29212789Y-33227079D01*
X29204184Y-33204389D01*
X29169635Y-33154337D01*
X29150191Y-33108699D01*
X29150191Y-33059092D01*
X29169636Y-33013455D01*
X29176984Y-33002810D01*
X29229522Y-32864279D01*
X29247381Y-32717200D01*
X29245292Y-32700000D01*
X29241351Y-32667543D01*
X29229522Y-32570121D01*
X29176984Y-32431590D01*
X29176984Y-32431589D01*
X29092819Y-32309655D01*
X28981924Y-32211411D01*
X28885605Y-32160859D01*
X28850733Y-32142557D01*
X28850732Y-32142556D01*
X28850731Y-32142556D01*
X28753933Y-32118697D01*
X28706880Y-32107100D01*
X28575933Y-32107100D01*
X28509659Y-32087904D01*
X28463905Y-32036258D01*
X28452837Y-31968153D01*
X28460633Y-31903948D01*
X28454930Y-31856982D01*
X28442774Y-31756869D01*
X28398936Y-31641278D01*
X28390236Y-31618337D01*
X28306071Y-31496403D01*
X28195176Y-31398159D01*
X28063983Y-31329304D01*
X27967185Y-31305445D01*
X27920132Y-31293848D01*
X27771972Y-31293848D01*
X27736516Y-31302587D01*
X27628120Y-31329304D01*
X27496927Y-31398159D01*
X27386032Y-31496403D01*
X27301867Y-31618337D01*
X27249330Y-31756868D01*
X27231470Y-31903948D01*
X24685062Y-31903948D01*
X24644676Y-31845440D01*
X24625232Y-31799803D01*
X24625232Y-31750197D01*
X24644676Y-31704560D01*
X24649518Y-31697544D01*
X24649520Y-31697543D01*
X24733684Y-31575610D01*
X24786222Y-31437079D01*
X24804081Y-31290000D01*
X24786222Y-31142921D01*
X24733684Y-31004390D01*
X24733684Y-31004389D01*
X24677838Y-30923483D01*
X24649520Y-30882457D01*
X24582196Y-30822813D01*
X24545321Y-30764499D01*
X24545321Y-30695501D01*
X24582196Y-30637186D01*
X24649520Y-30577543D01*
X24733684Y-30455610D01*
X24786222Y-30317079D01*
X24804081Y-30170000D01*
X24786222Y-30022921D01*
X24733684Y-29884390D01*
X24733684Y-29884389D01*
X24667543Y-29788568D01*
X24646497Y-29733074D01*
X24653651Y-29674157D01*
X24687366Y-29625312D01*
X24739918Y-29597731D01*
X24799266Y-29597731D01*
X24890020Y-29620100D01*
X25038179Y-29620100D01*
X25038180Y-29620100D01*
X25182033Y-29584643D01*
X25313222Y-29515790D01*
X25424120Y-29417543D01*
X25508284Y-29295610D01*
X25560822Y-29157079D01*
X25578681Y-29010000D01*
X25560822Y-28862921D01*
X25518921Y-28752437D01*
X25508284Y-28724389D01*
X25424119Y-28602455D01*
X25313224Y-28504211D01*
X25182031Y-28435356D01*
X25062068Y-28405788D01*
X25038180Y-28399900D01*
X24890020Y-28399900D01*
X24866132Y-28405788D01*
X24746168Y-28435356D01*
X24614975Y-28504211D01*
X24504080Y-28602455D01*
X24419915Y-28724389D01*
X24367378Y-28862920D01*
X24349518Y-29009999D01*
X24367378Y-29157079D01*
X24419916Y-29295610D01*
X24486056Y-29391431D01*
X24507102Y-29446925D01*
X24499948Y-29505842D01*
X24466233Y-29554686D01*
X24413681Y-29582268D01*
X24354331Y-29582268D01*
X24299427Y-29568735D01*
X24263580Y-29559900D01*
X24115420Y-29559900D01*
X24079963Y-29568639D01*
X23971568Y-29595356D01*
X23840375Y-29664211D01*
X23729480Y-29762455D01*
X23645315Y-29884389D01*
X23592778Y-30022920D01*
X23574918Y-30169999D01*
X23592778Y-30317079D01*
X23645315Y-30455610D01*
X23720952Y-30565188D01*
X23729480Y-30577543D01*
X23796802Y-30637185D01*
X23833679Y-30695499D01*
X23833679Y-30764497D01*
X23796803Y-30822814D01*
X23729479Y-30882457D01*
X23645315Y-31004389D01*
X23592778Y-31142920D01*
X23574918Y-31289999D01*
X23592778Y-31437079D01*
X23645315Y-31575610D01*
X23734323Y-31704559D01*
X23753767Y-31750196D01*
X23753767Y-31799802D01*
X23734323Y-31845438D01*
X23645316Y-31974387D01*
X23592778Y-32112920D01*
X23574918Y-32259999D01*
X23592778Y-32407079D01*
X23645315Y-32545610D01*
X23738033Y-32679934D01*
X23735681Y-32681556D01*
X23760305Y-32720490D01*
X23760313Y-32789483D01*
X23735683Y-32828444D01*
X23738033Y-32830066D01*
X23645315Y-32964389D01*
X23592778Y-33102920D01*
X23574918Y-33250000D01*
X23592778Y-33397079D01*
X23645315Y-33535610D01*
X23738033Y-33669934D01*
X23737409Y-33670364D01*
X23765953Y-33715502D01*
X23765953Y-33784498D01*
X23737409Y-33829635D01*
X23738033Y-33830066D01*
X23645315Y-33964389D01*
X23592778Y-34102920D01*
X23574918Y-34250000D01*
X21300474Y-34250000D01*
X21300474Y-27640000D01*
X23539518Y-27640000D01*
X23557378Y-27787079D01*
X23609915Y-27925610D01*
X23694080Y-28047544D01*
X23804975Y-28145788D01*
X23804976Y-28145788D01*
X23804978Y-28145790D01*
X23936167Y-28214643D01*
X24080020Y-28250100D01*
X24228179Y-28250100D01*
X24228180Y-28250100D01*
X24372033Y-28214643D01*
X24503222Y-28145790D01*
X24614120Y-28047543D01*
X24698284Y-27925610D01*
X24750822Y-27787079D01*
X24759206Y-27718031D01*
X24784690Y-27656507D01*
X24838330Y-27617038D01*
X24904653Y-27611011D01*
X24964528Y-27640165D01*
X24970875Y-27645788D01*
X24970876Y-27645788D01*
X24970878Y-27645790D01*
X25102067Y-27714643D01*
X25245920Y-27750100D01*
X25394079Y-27750100D01*
X25394080Y-27750100D01*
X25537933Y-27714643D01*
X25669122Y-27645790D01*
X25720870Y-27599944D01*
X25773420Y-27572364D01*
X25832771Y-27572364D01*
X25885323Y-27599946D01*
X25900875Y-27613724D01*
X25900876Y-27613724D01*
X25900878Y-27613726D01*
X26032067Y-27682579D01*
X26175920Y-27718036D01*
X26175921Y-27718036D01*
X26318510Y-27718036D01*
X26384784Y-27737233D01*
X26430538Y-27788879D01*
X26441606Y-27856983D01*
X26435418Y-27907935D01*
X26453278Y-28055014D01*
X26505815Y-28193545D01*
X26589980Y-28315479D01*
X26700875Y-28413723D01*
X26700876Y-28413723D01*
X26700878Y-28413725D01*
X26832067Y-28482578D01*
X26975920Y-28518035D01*
X27124079Y-28518035D01*
X27124080Y-28518035D01*
X27267933Y-28482578D01*
X27399122Y-28413725D01*
X27510020Y-28315478D01*
X27594184Y-28193545D01*
X27646722Y-28055014D01*
X27664581Y-27907935D01*
X27663617Y-27900000D01*
X28035418Y-27900000D01*
X28053278Y-28047079D01*
X28105815Y-28185610D01*
X28189980Y-28307544D01*
X28300875Y-28405788D01*
X28300876Y-28405788D01*
X28300878Y-28405790D01*
X28432067Y-28474643D01*
X28575920Y-28510100D01*
X28575921Y-28510100D01*
X28726446Y-28510100D01*
X28792720Y-28529297D01*
X28838474Y-28580942D01*
X28849542Y-28649047D01*
X28843354Y-28700000D01*
X28861214Y-28847079D01*
X28913751Y-28985610D01*
X28997916Y-29107544D01*
X29108811Y-29205788D01*
X29108812Y-29205788D01*
X29108814Y-29205790D01*
X29240003Y-29274643D01*
X29383856Y-29310100D01*
X29383857Y-29310100D01*
X29528695Y-29310100D01*
X29594969Y-29329297D01*
X29640723Y-29380943D01*
X29651790Y-29449045D01*
X29649758Y-29465788D01*
X29648205Y-29478576D01*
X29666064Y-29625655D01*
X29718601Y-29764185D01*
X29747371Y-29805865D01*
X29766815Y-29851501D01*
X29766815Y-29901107D01*
X29747372Y-29946744D01*
X29706977Y-30005266D01*
X29654440Y-30143796D01*
X29636580Y-30290876D01*
X29643396Y-30347006D01*
X29632328Y-30415110D01*
X29586574Y-30466756D01*
X29520300Y-30485952D01*
X29379868Y-30485952D01*
X29363855Y-30489899D01*
X29236016Y-30521408D01*
X29104823Y-30590263D01*
X28993928Y-30688507D01*
X28909763Y-30810441D01*
X28857226Y-30948972D01*
X28839366Y-31096052D01*
X28857226Y-31243131D01*
X28909763Y-31381662D01*
X28993928Y-31503596D01*
X29104823Y-31601840D01*
X29104824Y-31601840D01*
X29104826Y-31601842D01*
X29236015Y-31670695D01*
X29379868Y-31706152D01*
X29528027Y-31706152D01*
X29528028Y-31706152D01*
X29671881Y-31670695D01*
X29803070Y-31601842D01*
X29893848Y-31521420D01*
X29913967Y-31503596D01*
X29918785Y-31496617D01*
X29998132Y-31381662D01*
X30050670Y-31243131D01*
X30068529Y-31096052D01*
X30068529Y-31096051D01*
X30061714Y-31039922D01*
X30072782Y-30971818D01*
X30118536Y-30920172D01*
X30184810Y-30900976D01*
X30325241Y-30900976D01*
X30325242Y-30900976D01*
X30469095Y-30865519D01*
X30591825Y-30801105D01*
X30649449Y-30786902D01*
X30707075Y-30801106D01*
X30829804Y-30865519D01*
X30832068Y-30866707D01*
X30975921Y-30902164D01*
X30975922Y-30902164D01*
X31139137Y-30902164D01*
X31139137Y-30903250D01*
X31179019Y-30903248D01*
X31231574Y-30930828D01*
X31265291Y-30979673D01*
X31272446Y-31038592D01*
X31260680Y-31135489D01*
X31278540Y-31282569D01*
X31331077Y-31421100D01*
X31415242Y-31543034D01*
X31526137Y-31641278D01*
X31526138Y-31641278D01*
X31526140Y-31641280D01*
X31657329Y-31710133D01*
X31801182Y-31745590D01*
X31949341Y-31745590D01*
X31949342Y-31745590D01*
X32093195Y-31710133D01*
X32224384Y-31641280D01*
X32335282Y-31543033D01*
X32419446Y-31421100D01*
X32471984Y-31282569D01*
X32489843Y-31135490D01*
X32471984Y-30988411D01*
X32425828Y-30866707D01*
X32419446Y-30849879D01*
X32335281Y-30727945D01*
X32224386Y-30629701D01*
X32093193Y-30560846D01*
X31970962Y-30530719D01*
X31949342Y-30525390D01*
X31801182Y-30525390D01*
X31786126Y-30525390D01*
X31786126Y-30524304D01*
X31746232Y-30524303D01*
X31693682Y-30496720D01*
X31659969Y-30447876D01*
X31652816Y-30388960D01*
X31654203Y-30377544D01*
X31664582Y-30292064D01*
X31646723Y-30144985D01*
X31594185Y-30006454D01*
X31594185Y-30006453D01*
X31510020Y-29884519D01*
X31399125Y-29786275D01*
X31267932Y-29717420D01*
X31171134Y-29693561D01*
X31124081Y-29681964D01*
X30992638Y-29681964D01*
X30926364Y-29662767D01*
X30880610Y-29611121D01*
X30869542Y-29543017D01*
X30871983Y-29522920D01*
X30877367Y-29478576D01*
X30875814Y-29465790D01*
X30874023Y-29451039D01*
X30859508Y-29331497D01*
X30806970Y-29192966D01*
X30767486Y-29135763D01*
X30748044Y-29090130D01*
X30748044Y-29040522D01*
X30767487Y-28994888D01*
X30778824Y-28978465D01*
X30831362Y-28839934D01*
X30844711Y-28729999D01*
X32015418Y-28729999D01*
X32031540Y-28862767D01*
X32033278Y-28877079D01*
X32085816Y-29015610D01*
X32112463Y-29054215D01*
X32131906Y-29099849D01*
X32131906Y-29149455D01*
X32112463Y-29195092D01*
X32101867Y-29210442D01*
X32049330Y-29348972D01*
X32031470Y-29496052D01*
X32049330Y-29643131D01*
X32101867Y-29781662D01*
X32186032Y-29903596D01*
X32296927Y-30001840D01*
X32296928Y-30001840D01*
X32296930Y-30001842D01*
X32428119Y-30070695D01*
X32571972Y-30106152D01*
X32571973Y-30106152D01*
X32705853Y-30106152D01*
X32772127Y-30125348D01*
X32817881Y-30176994D01*
X32828949Y-30245098D01*
X32824621Y-30280736D01*
X32842481Y-30427817D01*
X32895018Y-30566347D01*
X32938651Y-30629561D01*
X32958094Y-30675197D01*
X32958094Y-30724803D01*
X32938651Y-30770439D01*
X32895018Y-30833652D01*
X32842481Y-30972182D01*
X32824621Y-31119262D01*
X32842481Y-31266341D01*
X32895018Y-31404871D01*
X32926845Y-31450981D01*
X32946288Y-31496617D01*
X32946288Y-31546222D01*
X32926845Y-31591858D01*
X32905816Y-31622323D01*
X32853278Y-31760856D01*
X32842155Y-31852457D01*
X32835419Y-31907936D01*
X32836217Y-31914504D01*
X32853278Y-32055015D01*
X32905815Y-32193546D01*
X32989980Y-32315480D01*
X33100875Y-32413724D01*
X33100876Y-32413724D01*
X33100878Y-32413726D01*
X33232067Y-32482579D01*
X33375920Y-32518036D01*
X33524079Y-32518036D01*
X33524080Y-32518036D01*
X33667933Y-32482579D01*
X33782949Y-32422213D01*
X33840575Y-32408010D01*
X33898199Y-32422212D01*
X34025733Y-32489147D01*
X34169586Y-32524604D01*
X34169587Y-32524604D01*
X34324685Y-32524604D01*
X34390959Y-32543801D01*
X34436713Y-32595447D01*
X34447780Y-32663550D01*
X34443355Y-32700000D01*
X34449062Y-32747005D01*
X34437995Y-32815109D01*
X34392241Y-32866755D01*
X34325967Y-32885952D01*
X34179868Y-32885952D01*
X34144412Y-32894691D01*
X34036016Y-32921408D01*
X33904823Y-32990263D01*
X33793928Y-33088507D01*
X33709763Y-33210441D01*
X33657226Y-33348972D01*
X33639366Y-33496051D01*
X33657226Y-33643131D01*
X33709763Y-33781662D01*
X33793928Y-33903596D01*
X33904823Y-34001840D01*
X33904824Y-34001840D01*
X33904826Y-34001842D01*
X34036015Y-34070695D01*
X34179868Y-34106152D01*
X34328027Y-34106152D01*
X34328028Y-34106152D01*
X34471881Y-34070695D01*
X34603070Y-34001842D01*
X34713968Y-33903595D01*
X34798132Y-33781662D01*
X34850670Y-33643131D01*
X34868529Y-33496052D01*
X34862821Y-33449046D01*
X34873889Y-33380943D01*
X34919643Y-33329297D01*
X34985917Y-33310100D01*
X35132015Y-33310100D01*
X35132016Y-33310100D01*
X35275869Y-33274643D01*
X35407058Y-33205790D01*
X35517956Y-33107543D01*
X35536968Y-33079999D01*
X60935418Y-33079999D01*
X60953278Y-33227079D01*
X61005815Y-33365610D01*
X61089980Y-33487544D01*
X61200875Y-33585788D01*
X61200876Y-33585788D01*
X61200878Y-33585790D01*
X61332067Y-33654643D01*
X61475920Y-33690100D01*
X61624079Y-33690100D01*
X61624080Y-33690100D01*
X61767933Y-33654643D01*
X61899122Y-33585790D01*
X62000415Y-33496052D01*
X62010019Y-33487544D01*
X62094184Y-33365610D01*
X62094183Y-33365610D01*
X62146722Y-33227079D01*
X62164581Y-33080000D01*
X62146722Y-32932921D01*
X62094184Y-32794390D01*
X62094184Y-32794389D01*
X62010019Y-32672455D01*
X61899124Y-32574211D01*
X61767931Y-32505356D01*
X61659340Y-32478591D01*
X61624080Y-32469900D01*
X61475920Y-32469900D01*
X61440660Y-32478591D01*
X61332068Y-32505356D01*
X61200875Y-32574211D01*
X61089980Y-32672455D01*
X61005815Y-32794389D01*
X60953278Y-32932920D01*
X60935418Y-33079999D01*
X35536968Y-33079999D01*
X35602120Y-32985610D01*
X35654658Y-32847079D01*
X35672517Y-32700000D01*
X35670278Y-32681557D01*
X35663325Y-32624296D01*
X35674393Y-32556191D01*
X35720147Y-32504545D01*
X35786421Y-32485349D01*
X35939895Y-32485349D01*
X35939896Y-32485349D01*
X36083749Y-32449892D01*
X36214938Y-32381039D01*
X36325836Y-32282792D01*
X36410000Y-32160859D01*
X36462538Y-32022328D01*
X36480397Y-31875249D01*
X36478178Y-31856982D01*
X36489247Y-31788877D01*
X36535001Y-31737231D01*
X36601275Y-31718035D01*
X36718510Y-31718035D01*
X36784784Y-31737232D01*
X36830538Y-31788877D01*
X36841606Y-31856982D01*
X36835418Y-31907935D01*
X36853278Y-32055014D01*
X36905815Y-32193545D01*
X36989980Y-32315479D01*
X37100875Y-32413723D01*
X37100876Y-32413723D01*
X37100878Y-32413725D01*
X37232067Y-32482578D01*
X37375920Y-32518035D01*
X37524079Y-32518035D01*
X37524080Y-32518035D01*
X37667933Y-32482578D01*
X37799122Y-32413725D01*
X37910020Y-32315478D01*
X37994184Y-32193545D01*
X38046722Y-32055014D01*
X38064581Y-31907935D01*
X38057430Y-31849045D01*
X38068498Y-31780942D01*
X38114252Y-31729296D01*
X38180526Y-31710099D01*
X38332015Y-31710099D01*
X38332016Y-31710099D01*
X38475869Y-31674642D01*
X38590805Y-31614318D01*
X38654421Y-31600260D01*
X38716384Y-31620392D01*
X38759587Y-31669158D01*
X38772105Y-31733095D01*
X38750482Y-31794554D01*
X38725815Y-31830290D01*
X38673278Y-31968820D01*
X38655418Y-32115900D01*
X38673278Y-32262979D01*
X38725815Y-32401510D01*
X38809980Y-32523444D01*
X38920875Y-32621688D01*
X38920876Y-32621688D01*
X38920878Y-32621690D01*
X39052067Y-32690543D01*
X39195920Y-32726000D01*
X39344079Y-32726000D01*
X39344080Y-32726000D01*
X39487933Y-32690543D01*
X39619122Y-32621690D01*
X39730020Y-32523443D01*
X39814184Y-32401510D01*
X39866722Y-32262979D01*
X39882869Y-32129999D01*
X58025418Y-32129999D01*
X58043278Y-32277079D01*
X58095815Y-32415610D01*
X58179980Y-32537544D01*
X58290875Y-32635788D01*
X58290876Y-32635788D01*
X58290878Y-32635790D01*
X58422067Y-32704643D01*
X58565920Y-32740100D01*
X58714079Y-32740100D01*
X58714080Y-32740100D01*
X58857933Y-32704643D01*
X58989122Y-32635790D01*
X59100020Y-32537543D01*
X59184184Y-32415610D01*
X59236722Y-32277079D01*
X59237684Y-32269152D01*
X59258730Y-32213660D01*
X59303154Y-32174304D01*
X59360780Y-32160100D01*
X59364079Y-32160100D01*
X59364080Y-32160100D01*
X59507933Y-32124643D01*
X59639122Y-32055790D01*
X59750020Y-31957543D01*
X59834184Y-31835610D01*
X59886722Y-31697079D01*
X59904581Y-31550000D01*
X59886722Y-31402921D01*
X59842232Y-31285610D01*
X59834184Y-31264389D01*
X59750019Y-31142455D01*
X59639124Y-31044211D01*
X59561860Y-31003660D01*
X59507933Y-30975357D01*
X59507932Y-30975356D01*
X59507931Y-30975356D01*
X59411133Y-30951497D01*
X59364080Y-30939900D01*
X59215920Y-30939900D01*
X59199578Y-30943928D01*
X59072068Y-30975356D01*
X58940875Y-31044211D01*
X58829980Y-31142455D01*
X58745815Y-31264389D01*
X58693278Y-31402920D01*
X58692316Y-31410846D01*
X58671270Y-31466340D01*
X58626846Y-31505696D01*
X58569220Y-31519900D01*
X58565920Y-31519900D01*
X58530463Y-31528639D01*
X58422068Y-31555356D01*
X58290875Y-31624211D01*
X58179980Y-31722455D01*
X58095815Y-31844389D01*
X58043278Y-31982920D01*
X58025418Y-32129999D01*
X39882869Y-32129999D01*
X39884581Y-32115900D01*
X39866722Y-31968821D01*
X39819929Y-31845438D01*
X39814184Y-31830289D01*
X39730019Y-31708355D01*
X39619124Y-31610111D01*
X39514798Y-31555357D01*
X39487933Y-31541257D01*
X39487932Y-31541256D01*
X39487931Y-31541256D01*
X39351147Y-31507542D01*
X39344080Y-31505800D01*
X39195920Y-31505800D01*
X39191210Y-31506961D01*
X39052066Y-31541256D01*
X38937129Y-31601580D01*
X38873512Y-31615638D01*
X38811550Y-31595505D01*
X38768347Y-31546738D01*
X38755830Y-31482800D01*
X38777455Y-31421342D01*
X38786979Y-31407544D01*
X38802120Y-31385609D01*
X38854658Y-31247078D01*
X38872517Y-31099999D01*
X38860375Y-30999999D01*
X55995418Y-30999999D01*
X56013278Y-31147079D01*
X56065815Y-31285610D01*
X56149980Y-31407544D01*
X56260875Y-31505788D01*
X56260876Y-31505788D01*
X56260878Y-31505790D01*
X56392067Y-31574643D01*
X56535920Y-31610100D01*
X56684079Y-31610100D01*
X56684080Y-31610100D01*
X56827933Y-31574643D01*
X56959122Y-31505790D01*
X57070020Y-31407543D01*
X57154184Y-31285610D01*
X57206722Y-31147079D01*
X57224581Y-31000000D01*
X57206722Y-30852921D01*
X57154184Y-30714390D01*
X57154184Y-30714389D01*
X57070019Y-30592455D01*
X56959124Y-30494211D01*
X56827931Y-30425356D01*
X56731133Y-30401497D01*
X56684080Y-30389900D01*
X56535920Y-30389900D01*
X56500463Y-30398639D01*
X56392068Y-30425356D01*
X56260875Y-30494211D01*
X56149980Y-30592455D01*
X56065815Y-30714389D01*
X56013278Y-30852920D01*
X55995418Y-30999999D01*
X38860375Y-30999999D01*
X38854658Y-30952920D01*
X38809426Y-30833652D01*
X38802120Y-30814388D01*
X38717955Y-30692454D01*
X38607060Y-30594210D01*
X38475867Y-30525355D01*
X38364213Y-30497835D01*
X38332016Y-30489899D01*
X38183856Y-30489899D01*
X38182454Y-30489899D01*
X38116180Y-30470703D01*
X38070426Y-30419057D01*
X38059358Y-30350953D01*
X38064581Y-30307935D01*
X38062510Y-30290876D01*
X38046722Y-30160856D01*
X37994184Y-30022325D01*
X37958368Y-29970436D01*
X37938926Y-29924803D01*
X37938926Y-29875196D01*
X37958371Y-29829559D01*
X37962953Y-29822921D01*
X37994185Y-29777674D01*
X38046723Y-29639143D01*
X38064582Y-29492064D01*
X38046723Y-29344985D01*
X37997194Y-29214387D01*
X37994185Y-29206453D01*
X37910020Y-29084519D01*
X37799125Y-28986275D01*
X37667932Y-28917420D01*
X37571134Y-28893561D01*
X37524081Y-28881964D01*
X37383417Y-28881964D01*
X37317143Y-28862767D01*
X37271389Y-28811121D01*
X37260321Y-28743017D01*
X37264581Y-28707933D01*
X37257431Y-28649046D01*
X37268499Y-28580942D01*
X37314253Y-28529296D01*
X37380527Y-28510100D01*
X37532014Y-28510100D01*
X37532015Y-28510100D01*
X37675868Y-28474643D01*
X37806993Y-28405823D01*
X37864617Y-28391620D01*
X37922241Y-28405822D01*
X38025733Y-28460139D01*
X38169586Y-28495596D01*
X38317745Y-28495596D01*
X38317746Y-28495596D01*
X38461599Y-28460139D01*
X38592788Y-28391286D01*
X38677886Y-28315896D01*
X38703685Y-28293040D01*
X38705918Y-28289806D01*
X38787850Y-28171106D01*
X38822402Y-28079999D01*
X41435418Y-28079999D01*
X41453278Y-28227079D01*
X41505815Y-28365610D01*
X41549469Y-28428853D01*
X41565676Y-28452333D01*
X41568762Y-28456803D01*
X41588206Y-28502439D01*
X41588206Y-28552046D01*
X41568762Y-28597682D01*
X41515816Y-28674387D01*
X41463278Y-28812920D01*
X41445418Y-28960000D01*
X41463278Y-29107079D01*
X41515815Y-29245610D01*
X41599980Y-29367544D01*
X41710875Y-29465788D01*
X41710876Y-29465788D01*
X41710878Y-29465790D01*
X41842067Y-29534643D01*
X41985920Y-29570100D01*
X42134079Y-29570100D01*
X42134080Y-29570100D01*
X42277933Y-29534643D01*
X42409122Y-29465790D01*
X42520020Y-29367543D01*
X42604184Y-29245610D01*
X42644237Y-29140000D01*
X44375418Y-29140000D01*
X44393278Y-29287079D01*
X44445815Y-29425610D01*
X44529980Y-29547544D01*
X44640875Y-29645788D01*
X44640876Y-29645788D01*
X44640878Y-29645790D01*
X44772067Y-29714643D01*
X44915920Y-29750100D01*
X45064079Y-29750100D01*
X45064080Y-29750100D01*
X45207933Y-29714643D01*
X45292993Y-29670000D01*
X48999518Y-29670000D01*
X49017378Y-29817079D01*
X49069915Y-29955610D01*
X49154080Y-30077544D01*
X49264975Y-30175788D01*
X49264976Y-30175788D01*
X49264978Y-30175790D01*
X49396167Y-30244643D01*
X49540020Y-30280100D01*
X49688179Y-30280100D01*
X49688180Y-30280100D01*
X49832033Y-30244643D01*
X49963222Y-30175790D01*
X50074120Y-30077543D01*
X50148351Y-29970000D01*
X52735418Y-29970000D01*
X52753278Y-30117079D01*
X52805815Y-30255610D01*
X52889980Y-30377544D01*
X53000875Y-30475788D01*
X53000876Y-30475788D01*
X53000878Y-30475790D01*
X53132067Y-30544643D01*
X53275920Y-30580100D01*
X53424079Y-30580100D01*
X53424080Y-30580100D01*
X53567933Y-30544643D01*
X53699122Y-30475790D01*
X53810020Y-30377543D01*
X53894184Y-30255610D01*
X53946722Y-30117079D01*
X53964581Y-29970000D01*
X53946722Y-29822921D01*
X53906711Y-29717420D01*
X53894184Y-29684389D01*
X53842837Y-29610000D01*
X61725418Y-29610000D01*
X61743278Y-29757079D01*
X61795815Y-29895610D01*
X61879980Y-30017544D01*
X61990875Y-30115788D01*
X61990876Y-30115788D01*
X61990878Y-30115790D01*
X62122067Y-30184643D01*
X62265920Y-30220100D01*
X62414079Y-30220100D01*
X62414080Y-30220100D01*
X62557933Y-30184643D01*
X62689122Y-30115790D01*
X62793013Y-30023751D01*
X62800019Y-30017544D01*
X62810858Y-30001842D01*
X62884184Y-29895610D01*
X62936722Y-29757079D01*
X62954581Y-29610000D01*
X62936722Y-29462921D01*
X62936721Y-29462920D01*
X62935279Y-29451039D01*
X62942433Y-29392121D01*
X62976148Y-29343277D01*
X63028700Y-29315695D01*
X63088048Y-29315695D01*
X63105920Y-29320100D01*
X63254079Y-29320100D01*
X63254080Y-29320100D01*
X63397933Y-29284643D01*
X63529122Y-29215790D01*
X63630247Y-29126201D01*
X63640019Y-29117544D01*
X63647243Y-29107079D01*
X63724184Y-28995610D01*
X63776722Y-28857079D01*
X63794581Y-28710000D01*
X63776722Y-28562921D01*
X63744108Y-28476927D01*
X63724184Y-28424389D01*
X63631467Y-28290066D01*
X63631842Y-28289806D01*
X63614191Y-28266316D01*
X63602321Y-28218150D01*
X63610279Y-28169191D01*
X63615382Y-28155739D01*
X63633241Y-28008660D01*
X63615382Y-27861581D01*
X63580650Y-27770000D01*
X63895418Y-27770000D01*
X63913278Y-27917079D01*
X63965815Y-28055610D01*
X64049980Y-28177544D01*
X64160875Y-28275788D01*
X64160876Y-28275788D01*
X64160878Y-28275790D01*
X64292067Y-28344643D01*
X64435920Y-28380100D01*
X64584079Y-28380100D01*
X64584080Y-28380100D01*
X64727933Y-28344643D01*
X64859122Y-28275790D01*
X64951956Y-28193546D01*
X64970019Y-28177544D01*
X64985335Y-28155356D01*
X65054184Y-28055610D01*
X65106722Y-27917079D01*
X65124581Y-27770000D01*
X65106722Y-27622921D01*
X65060253Y-27500392D01*
X65054184Y-27484389D01*
X65026633Y-27444474D01*
X67107393Y-27444474D01*
X67125253Y-27591554D01*
X67177790Y-27730085D01*
X67261955Y-27852019D01*
X67372850Y-27950263D01*
X67372851Y-27950263D01*
X67372853Y-27950265D01*
X67504042Y-28019118D01*
X67647895Y-28054575D01*
X67796054Y-28054575D01*
X67796055Y-28054575D01*
X67939908Y-28019118D01*
X68071097Y-27950265D01*
X68181995Y-27852018D01*
X68266159Y-27730085D01*
X68318697Y-27591554D01*
X68336556Y-27444475D01*
X68318697Y-27297396D01*
X68279998Y-27195356D01*
X68266159Y-27158864D01*
X68181994Y-27036930D01*
X68071099Y-26938686D01*
X67939906Y-26869831D01*
X67843108Y-26845972D01*
X67796055Y-26834375D01*
X67647895Y-26834375D01*
X67612439Y-26843114D01*
X67504043Y-26869831D01*
X67372850Y-26938686D01*
X67261955Y-27036930D01*
X67177790Y-27158864D01*
X67125253Y-27297395D01*
X67107393Y-27444474D01*
X65026633Y-27444474D01*
X64970019Y-27362455D01*
X64859124Y-27264211D01*
X64727931Y-27195356D01*
X64631133Y-27171497D01*
X64584080Y-27159900D01*
X64435920Y-27159900D01*
X64400464Y-27168639D01*
X64292068Y-27195356D01*
X64160875Y-27264211D01*
X64049980Y-27362455D01*
X63965815Y-27484389D01*
X63913278Y-27622920D01*
X63895418Y-27770000D01*
X63580650Y-27770000D01*
X63577182Y-27760855D01*
X63562844Y-27723049D01*
X63478679Y-27601115D01*
X63367784Y-27502871D01*
X63236591Y-27434016D01*
X63139793Y-27410157D01*
X63092740Y-27398560D01*
X62944580Y-27398560D01*
X62909124Y-27407299D01*
X62800728Y-27434016D01*
X62669535Y-27502871D01*
X62558640Y-27601115D01*
X62474475Y-27723049D01*
X62421938Y-27861580D01*
X62404078Y-28008660D01*
X62421938Y-28155739D01*
X62474475Y-28294270D01*
X62567193Y-28428594D01*
X62566817Y-28428853D01*
X62584463Y-28452333D01*
X62596337Y-28500499D01*
X62588381Y-28549465D01*
X62583278Y-28562920D01*
X62565418Y-28710000D01*
X62584720Y-28868961D01*
X62577566Y-28927878D01*
X62543852Y-28976722D01*
X62491301Y-29004303D01*
X62431951Y-29004304D01*
X62414082Y-28999900D01*
X62414080Y-28999900D01*
X62265920Y-28999900D01*
X62230464Y-29008639D01*
X62122068Y-29035356D01*
X61990875Y-29104211D01*
X61879980Y-29202455D01*
X61795815Y-29324389D01*
X61743278Y-29462920D01*
X61725418Y-29610000D01*
X53842837Y-29610000D01*
X53810019Y-29562455D01*
X53699124Y-29464211D01*
X53567931Y-29395356D01*
X53471133Y-29371497D01*
X53424080Y-29359900D01*
X53275920Y-29359900D01*
X53240464Y-29368639D01*
X53132068Y-29395356D01*
X53000875Y-29464211D01*
X52889980Y-29562455D01*
X52805815Y-29684389D01*
X52753278Y-29822920D01*
X52735418Y-29970000D01*
X50148351Y-29970000D01*
X50158284Y-29955610D01*
X50210822Y-29817079D01*
X50228681Y-29670000D01*
X50210822Y-29522921D01*
X50170857Y-29417543D01*
X50158284Y-29384389D01*
X50074119Y-29262455D01*
X49963224Y-29164211D01*
X49855252Y-29107543D01*
X49832033Y-29095357D01*
X49832032Y-29095356D01*
X49832031Y-29095356D01*
X49715776Y-29066702D01*
X49688180Y-29059900D01*
X49540020Y-29059900D01*
X49528145Y-29062827D01*
X49396168Y-29095356D01*
X49264975Y-29164211D01*
X49154080Y-29262455D01*
X49069915Y-29384389D01*
X49017378Y-29522920D01*
X48999518Y-29670000D01*
X45292993Y-29670000D01*
X45339122Y-29645790D01*
X45450020Y-29547543D01*
X45534184Y-29425610D01*
X45586722Y-29287079D01*
X45604581Y-29140000D01*
X45586722Y-28992921D01*
X45534184Y-28854390D01*
X45529554Y-28847682D01*
X45510111Y-28802044D01*
X45510112Y-28752437D01*
X45529557Y-28706800D01*
X45534251Y-28700000D01*
X45544184Y-28685610D01*
X45596722Y-28547079D01*
X45614581Y-28400000D01*
X45613563Y-28391620D01*
X45612165Y-28380100D01*
X45596722Y-28252921D01*
X45557497Y-28149493D01*
X45544184Y-28114389D01*
X45460019Y-27992455D01*
X45349124Y-27894211D01*
X45268733Y-27852019D01*
X45217933Y-27825357D01*
X45217932Y-27825356D01*
X45217931Y-27825356D01*
X45092284Y-27794387D01*
X45074080Y-27789900D01*
X44925920Y-27789900D01*
X44907716Y-27794387D01*
X44782068Y-27825356D01*
X44650875Y-27894211D01*
X44539980Y-27992455D01*
X44455815Y-28114389D01*
X44403278Y-28252920D01*
X44385418Y-28399999D01*
X44403278Y-28547079D01*
X44455816Y-28685611D01*
X44460446Y-28692319D01*
X44479888Y-28737954D01*
X44479888Y-28787558D01*
X44460445Y-28833194D01*
X44445816Y-28854387D01*
X44393278Y-28992920D01*
X44375418Y-29140000D01*
X42644237Y-29140000D01*
X42656722Y-29107079D01*
X42674581Y-28960000D01*
X42656722Y-28812921D01*
X42604184Y-28674390D01*
X42541236Y-28583193D01*
X42521793Y-28537559D01*
X42521793Y-28487952D01*
X42541234Y-28442320D01*
X42594184Y-28365610D01*
X42646722Y-28227079D01*
X42664581Y-28080000D01*
X42646722Y-27932921D01*
X42625500Y-27876963D01*
X42618346Y-27818044D01*
X42639393Y-27762551D01*
X42640563Y-27760856D01*
X42644184Y-27755610D01*
X42696722Y-27617079D01*
X42714581Y-27470000D01*
X42696722Y-27322921D01*
X42648844Y-27196677D01*
X42644184Y-27184389D01*
X42560019Y-27062455D01*
X42449124Y-26964211D01*
X42346024Y-26910100D01*
X42317933Y-26895357D01*
X42317932Y-26895356D01*
X42317931Y-26895356D01*
X42190089Y-26863846D01*
X42174080Y-26859900D01*
X42025920Y-26859900D01*
X42012057Y-26863317D01*
X41882068Y-26895356D01*
X41750875Y-26964211D01*
X41639980Y-27062455D01*
X41555815Y-27184389D01*
X41503278Y-27322920D01*
X41485418Y-27469999D01*
X41503278Y-27617081D01*
X41524499Y-27673037D01*
X41531653Y-27731950D01*
X41510612Y-27787440D01*
X41505817Y-27794387D01*
X41453278Y-27932920D01*
X41435418Y-28079999D01*
X38822402Y-28079999D01*
X38840388Y-28032575D01*
X38858247Y-27885496D01*
X38852447Y-27837732D01*
X38859601Y-27778816D01*
X38893319Y-27729970D01*
X38945875Y-27702389D01*
X38980864Y-27702392D01*
X38980864Y-27700100D01*
X39144079Y-27700100D01*
X39144080Y-27700100D01*
X39287933Y-27664643D01*
X39419122Y-27595790D01*
X39526805Y-27500391D01*
X39530019Y-27497544D01*
X39533531Y-27492457D01*
X39614184Y-27375610D01*
X39666722Y-27237079D01*
X39670113Y-27209151D01*
X39691159Y-27153659D01*
X39735584Y-27114303D01*
X39769983Y-27105824D01*
X39769461Y-27103703D01*
X39784079Y-27100100D01*
X39784080Y-27100100D01*
X39927933Y-27064643D01*
X40059122Y-26995790D01*
X40170020Y-26897543D01*
X40254184Y-26775610D01*
X40306722Y-26637079D01*
X40324581Y-26490000D01*
X40306722Y-26342921D01*
X40262299Y-26225788D01*
X40254184Y-26204389D01*
X40170019Y-26082455D01*
X40059124Y-25984211D01*
X39927931Y-25915356D01*
X39831133Y-25891497D01*
X39784080Y-25879900D01*
X39635920Y-25879900D01*
X39600464Y-25888639D01*
X39492068Y-25915356D01*
X39360875Y-25984211D01*
X39249980Y-26082455D01*
X39165815Y-26204389D01*
X39113278Y-26342920D01*
X39109887Y-26370848D01*
X39088841Y-26426341D01*
X39044416Y-26465697D01*
X38986791Y-26479900D01*
X38982704Y-26479900D01*
X38916430Y-26460703D01*
X38870676Y-26409057D01*
X38859608Y-26340952D01*
X38860926Y-26330100D01*
X38864581Y-26300000D01*
X38846722Y-26152921D01*
X38807114Y-26048483D01*
X38794184Y-26014389D01*
X38767987Y-25976437D01*
X38748543Y-25930800D01*
X38748543Y-25881193D01*
X38767988Y-25835556D01*
X38803177Y-25784577D01*
X38827668Y-25720000D01*
X45435418Y-25720000D01*
X45453278Y-25867079D01*
X45505815Y-26005610D01*
X45589980Y-26127544D01*
X45700875Y-26225788D01*
X45700876Y-26225788D01*
X45700878Y-26225790D01*
X45832067Y-26294643D01*
X45975920Y-26330100D01*
X46124079Y-26330100D01*
X46124080Y-26330100D01*
X46267933Y-26294643D01*
X46399122Y-26225790D01*
X46493326Y-26142333D01*
X46510019Y-26127544D01*
X46512022Y-26124643D01*
X46594184Y-26005610D01*
X46646722Y-25867079D01*
X46664581Y-25720000D01*
X46657160Y-25658886D01*
X46664314Y-25599972D01*
X46698028Y-25551127D01*
X46750581Y-25523545D01*
X46809929Y-25523545D01*
X46940333Y-25555687D01*
X47088492Y-25555687D01*
X47088493Y-25555687D01*
X47232346Y-25520230D01*
X47363535Y-25451377D01*
X47474433Y-25353130D01*
X47558597Y-25231197D01*
X47611135Y-25092666D01*
X47628994Y-24945587D01*
X47611135Y-24798508D01*
X47578521Y-24712513D01*
X47562398Y-24670000D01*
X51805418Y-24670000D01*
X51823278Y-24817079D01*
X51875815Y-24955610D01*
X51959980Y-25077544D01*
X52070875Y-25175788D01*
X52070876Y-25175788D01*
X52070878Y-25175790D01*
X52202067Y-25244643D01*
X52345920Y-25280100D01*
X52494079Y-25280100D01*
X52494080Y-25280100D01*
X52637933Y-25244643D01*
X52769122Y-25175790D01*
X52871702Y-25084912D01*
X52880019Y-25077544D01*
X52895335Y-25055356D01*
X52964184Y-24955610D01*
X52992860Y-24879999D01*
X60625418Y-24879999D01*
X60643278Y-25027079D01*
X60695815Y-25165610D01*
X60779980Y-25287544D01*
X60890875Y-25385788D01*
X60890876Y-25385788D01*
X60890878Y-25385790D01*
X61022067Y-25454643D01*
X61165920Y-25490100D01*
X61314079Y-25490100D01*
X61314080Y-25490100D01*
X61457933Y-25454643D01*
X61589122Y-25385790D01*
X61676504Y-25308375D01*
X61738839Y-25278798D01*
X61807334Y-25287114D01*
X61860780Y-25330752D01*
X61899980Y-25387544D01*
X62010875Y-25485788D01*
X62010876Y-25485788D01*
X62010878Y-25485790D01*
X62142067Y-25554643D01*
X62285920Y-25590100D01*
X62434079Y-25590100D01*
X62434080Y-25590100D01*
X62577933Y-25554643D01*
X62709122Y-25485790D01*
X62802663Y-25402920D01*
X62820019Y-25387544D01*
X62821231Y-25385789D01*
X62904184Y-25265610D01*
X62956722Y-25127079D01*
X62974581Y-24980000D01*
X62956722Y-24832921D01*
X62918797Y-24732920D01*
X62904184Y-24694389D01*
X62820019Y-24572455D01*
X62709124Y-24474211D01*
X62643527Y-24439783D01*
X62577933Y-24405357D01*
X62577932Y-24405356D01*
X62577931Y-24405356D01*
X62451566Y-24374210D01*
X62434080Y-24369900D01*
X62285920Y-24369900D01*
X62268434Y-24374210D01*
X62142068Y-24405356D01*
X62010877Y-24474210D01*
X61923496Y-24551623D01*
X61861159Y-24581201D01*
X61792665Y-24572884D01*
X61739219Y-24529247D01*
X61700020Y-24472457D01*
X61700018Y-24472455D01*
X61589124Y-24374211D01*
X61457931Y-24305356D01*
X61361133Y-24281497D01*
X61314080Y-24269900D01*
X61165920Y-24269900D01*
X61130464Y-24278639D01*
X61022068Y-24305356D01*
X60890875Y-24374211D01*
X60779980Y-24472455D01*
X60695815Y-24594389D01*
X60643278Y-24732920D01*
X60625418Y-24879999D01*
X52992860Y-24879999D01*
X53016722Y-24817079D01*
X53020113Y-24789151D01*
X53041159Y-24733659D01*
X53085584Y-24694303D01*
X53143209Y-24680100D01*
X53164079Y-24680100D01*
X53164080Y-24680100D01*
X53307933Y-24644643D01*
X53439122Y-24575790D01*
X53542291Y-24484390D01*
X53550019Y-24477544D01*
X53552321Y-24474210D01*
X53634184Y-24355610D01*
X53686722Y-24217079D01*
X53704581Y-24070000D01*
X53686722Y-23922921D01*
X53634184Y-23784390D01*
X53628845Y-23770312D01*
X53630604Y-23769644D01*
X53617606Y-23735374D01*
X53624757Y-23676455D01*
X53658471Y-23627609D01*
X53711023Y-23600026D01*
X53770374Y-23600025D01*
X53807241Y-23619374D01*
X53807547Y-23618793D01*
X53820876Y-23625789D01*
X53820878Y-23625790D01*
X53952067Y-23694643D01*
X54095920Y-23730100D01*
X54244079Y-23730100D01*
X54244080Y-23730100D01*
X54387933Y-23694643D01*
X54519122Y-23625790D01*
X54525658Y-23620000D01*
X54965418Y-23620000D01*
X54983278Y-23767079D01*
X55035815Y-23905610D01*
X55119980Y-24027544D01*
X55230875Y-24125788D01*
X55230876Y-24125788D01*
X55230878Y-24125790D01*
X55362067Y-24194643D01*
X55505920Y-24230100D01*
X55654079Y-24230100D01*
X55654080Y-24230100D01*
X55797933Y-24194643D01*
X55929122Y-24125790D01*
X56040020Y-24027543D01*
X56124184Y-23905610D01*
X56176722Y-23767079D01*
X56194581Y-23620000D01*
X56176722Y-23472921D01*
X56124184Y-23334390D01*
X56124184Y-23334389D01*
X56040019Y-23212455D01*
X55929124Y-23114211D01*
X55797931Y-23045356D01*
X55701133Y-23021497D01*
X55654080Y-23009900D01*
X55505920Y-23009900D01*
X55470463Y-23018639D01*
X55362068Y-23045356D01*
X55230875Y-23114211D01*
X55119980Y-23212455D01*
X55035815Y-23334389D01*
X54983278Y-23472920D01*
X54965418Y-23620000D01*
X54525658Y-23620000D01*
X54630020Y-23527543D01*
X54714184Y-23405610D01*
X54766722Y-23267079D01*
X54784581Y-23120000D01*
X54766722Y-22972921D01*
X54714184Y-22834390D01*
X54714184Y-22834389D01*
X54630019Y-22712455D01*
X54519124Y-22614211D01*
X54387931Y-22545356D01*
X54291133Y-22521497D01*
X54244080Y-22509900D01*
X54244079Y-22509900D01*
X54208752Y-22509900D01*
X54160148Y-22499977D01*
X54119323Y-22471798D01*
X54092810Y-22429871D01*
X54091719Y-22426994D01*
X54064184Y-22354390D01*
X53980020Y-22232457D01*
X53980019Y-22232455D01*
X53869124Y-22134211D01*
X53737931Y-22065356D01*
X53641133Y-22041497D01*
X53594080Y-22029900D01*
X53445920Y-22029900D01*
X53410464Y-22038639D01*
X53302068Y-22065356D01*
X53170875Y-22134211D01*
X53059980Y-22232455D01*
X52975815Y-22354389D01*
X52923278Y-22492920D01*
X52905418Y-22640000D01*
X52923278Y-22787079D01*
X52975815Y-22925610D01*
X53059980Y-23047544D01*
X53170875Y-23145788D01*
X53170876Y-23145788D01*
X53170878Y-23145790D01*
X53302067Y-23214643D01*
X53445920Y-23250100D01*
X53481248Y-23250100D01*
X53529852Y-23260023D01*
X53570677Y-23288202D01*
X53597189Y-23330128D01*
X53610974Y-23366474D01*
X53631155Y-23419688D01*
X53629394Y-23420355D01*
X53642394Y-23454629D01*
X53635241Y-23513546D01*
X53601527Y-23562391D01*
X53548975Y-23589973D01*
X53489625Y-23589974D01*
X53452758Y-23570625D01*
X53452453Y-23571207D01*
X53439122Y-23564210D01*
X53307933Y-23495357D01*
X53307932Y-23495356D01*
X53307931Y-23495356D01*
X53211133Y-23471497D01*
X53164080Y-23459900D01*
X53015920Y-23459900D01*
X52980464Y-23468639D01*
X52872068Y-23495356D01*
X52740875Y-23564211D01*
X52629980Y-23662455D01*
X52545815Y-23784389D01*
X52493278Y-23922920D01*
X52489887Y-23950848D01*
X52468841Y-24006341D01*
X52424416Y-24045697D01*
X52366791Y-24059900D01*
X52345920Y-24059900D01*
X52310464Y-24068639D01*
X52202068Y-24095356D01*
X52070875Y-24164211D01*
X51959980Y-24262455D01*
X51875815Y-24384389D01*
X51823278Y-24522920D01*
X51805418Y-24670000D01*
X47562398Y-24670000D01*
X47558597Y-24659976D01*
X47474432Y-24538042D01*
X47363537Y-24439798D01*
X47241579Y-24375790D01*
X47232346Y-24370944D01*
X47232345Y-24370943D01*
X47232344Y-24370943D01*
X47135546Y-24347084D01*
X47088493Y-24335487D01*
X46940333Y-24335487D01*
X46904876Y-24344226D01*
X46796481Y-24370943D01*
X46665288Y-24439798D01*
X46554393Y-24538042D01*
X46470228Y-24659976D01*
X46417691Y-24798507D01*
X46399831Y-24945587D01*
X46407252Y-25006697D01*
X46400098Y-25065615D01*
X46366383Y-25114459D01*
X46313831Y-25142041D01*
X46254481Y-25142041D01*
X46142576Y-25114459D01*
X46124080Y-25109900D01*
X45975920Y-25109900D01*
X45957424Y-25114459D01*
X45832068Y-25145356D01*
X45700875Y-25214211D01*
X45589980Y-25312455D01*
X45505815Y-25434389D01*
X45453278Y-25572920D01*
X45435418Y-25720000D01*
X38827668Y-25720000D01*
X38855715Y-25646046D01*
X38873574Y-25498967D01*
X38855715Y-25351888D01*
X38806628Y-25222457D01*
X38803177Y-25213356D01*
X38719012Y-25091422D01*
X38608117Y-24993178D01*
X38517439Y-24945587D01*
X38476926Y-24924324D01*
X38476925Y-24924323D01*
X38476924Y-24924323D01*
X38369461Y-24897836D01*
X38333073Y-24888867D01*
X38184913Y-24888867D01*
X38182578Y-24888867D01*
X38116304Y-24869670D01*
X38070550Y-24818024D01*
X38059482Y-24749920D01*
X38060320Y-24743018D01*
X38064580Y-24707936D01*
X38046721Y-24560857D01*
X38002647Y-24444643D01*
X37994183Y-24422325D01*
X37910018Y-24300391D01*
X37799123Y-24202147D01*
X37667930Y-24133292D01*
X37571132Y-24109433D01*
X37524079Y-24097836D01*
X37375919Y-24097836D01*
X37340462Y-24106575D01*
X37232067Y-24133292D01*
X37100874Y-24202147D01*
X36989979Y-24300391D01*
X36905814Y-24422325D01*
X36853277Y-24560856D01*
X36835417Y-24707936D01*
X36853277Y-24855015D01*
X36905814Y-24993546D01*
X36937380Y-25039276D01*
X36956824Y-25084912D01*
X36956824Y-25134517D01*
X36937382Y-25180153D01*
X36913752Y-25214388D01*
X36861214Y-25352919D01*
X36843354Y-25499999D01*
X36861214Y-25647078D01*
X36913752Y-25785609D01*
X36926763Y-25804459D01*
X36946207Y-25850096D01*
X36946207Y-25899702D01*
X36926763Y-25945338D01*
X36886554Y-26003590D01*
X36834016Y-26142123D01*
X36816156Y-26289203D01*
X36834016Y-26436282D01*
X36886553Y-26574813D01*
X36970718Y-26696747D01*
X37081613Y-26794991D01*
X37081614Y-26794991D01*
X37081616Y-26794993D01*
X37212805Y-26863846D01*
X37356658Y-26899303D01*
X37504817Y-26899303D01*
X37504818Y-26899303D01*
X37648671Y-26863846D01*
X37772460Y-26798876D01*
X37830082Y-26784674D01*
X37887708Y-26798878D01*
X37993478Y-26854390D01*
X38032067Y-26874643D01*
X38175920Y-26910100D01*
X38175921Y-26910100D01*
X38337296Y-26910100D01*
X38403570Y-26929297D01*
X38449324Y-26980943D01*
X38460391Y-27049046D01*
X38458498Y-27064643D01*
X38455419Y-27090000D01*
X38461218Y-27137760D01*
X38454065Y-27196677D01*
X38420351Y-27245520D01*
X38367801Y-27273103D01*
X38332802Y-27273104D01*
X38332802Y-27275396D01*
X38317746Y-27275396D01*
X38169586Y-27275396D01*
X38156433Y-27278638D01*
X38025732Y-27310852D01*
X37894607Y-27379672D01*
X37836982Y-27393875D01*
X37779356Y-27379671D01*
X37675870Y-27325357D01*
X37562423Y-27297395D01*
X37532015Y-27289900D01*
X37383855Y-27289900D01*
X37353447Y-27297395D01*
X37240003Y-27325356D01*
X37108810Y-27394211D01*
X36997915Y-27492455D01*
X36913750Y-27614389D01*
X36861213Y-27752920D01*
X36843353Y-27900000D01*
X36850504Y-27958889D01*
X36839436Y-28026993D01*
X36793682Y-28078639D01*
X36727408Y-28097835D01*
X36581489Y-28097835D01*
X36515215Y-28078638D01*
X36469461Y-28026992D01*
X36458393Y-27958888D01*
X36464580Y-27907935D01*
X36456056Y-27837736D01*
X36446721Y-27760857D01*
X36403082Y-27645790D01*
X36394183Y-27622325D01*
X36310018Y-27500391D01*
X36199123Y-27402147D01*
X36067930Y-27333292D01*
X35971132Y-27309433D01*
X35924079Y-27297836D01*
X35775919Y-27297836D01*
X35740462Y-27306575D01*
X35632067Y-27333292D01*
X35500874Y-27402147D01*
X35389979Y-27500391D01*
X35305814Y-27622325D01*
X35253277Y-27760856D01*
X35235417Y-27907935D01*
X35253277Y-28055015D01*
X35305815Y-28193548D01*
X35358766Y-28270261D01*
X35378210Y-28315896D01*
X35378210Y-28365502D01*
X35358767Y-28411138D01*
X35335816Y-28444388D01*
X35283278Y-28582920D01*
X35265418Y-28729999D01*
X35283278Y-28877079D01*
X35335816Y-29015610D01*
X35344765Y-29028575D01*
X35364210Y-29074212D01*
X35364210Y-29123818D01*
X35344766Y-29169455D01*
X35313751Y-29214387D01*
X35261213Y-29352920D01*
X35243353Y-29500000D01*
X35255081Y-29596585D01*
X35247927Y-29655501D01*
X35214214Y-29704345D01*
X35161663Y-29731927D01*
X35102314Y-29731929D01*
X35094081Y-29729900D01*
X35094080Y-29729900D01*
X34945920Y-29729900D01*
X34933043Y-29733074D01*
X34802068Y-29765356D01*
X34670875Y-29834211D01*
X34559980Y-29932455D01*
X34475815Y-30054389D01*
X34423278Y-30192920D01*
X34405418Y-30339999D01*
X34405657Y-30341960D01*
X34403774Y-30353545D01*
X34403604Y-30354947D01*
X34403547Y-30354940D01*
X34394589Y-30410064D01*
X34348835Y-30461710D01*
X34282561Y-30480907D01*
X34169446Y-30480907D01*
X34103172Y-30461710D01*
X34057418Y-30410064D01*
X34046350Y-30341960D01*
X34050482Y-30307935D01*
X34053784Y-30280738D01*
X34035925Y-30133659D01*
X33993702Y-30022327D01*
X33983387Y-29995127D01*
X33899222Y-29873193D01*
X33788327Y-29774949D01*
X33657134Y-29706094D01*
X33559234Y-29681964D01*
X33513283Y-29670638D01*
X33379402Y-29670638D01*
X33313128Y-29651442D01*
X33267374Y-29599796D01*
X33256306Y-29531692D01*
X33260633Y-29496052D01*
X33256767Y-29464211D01*
X33242774Y-29348973D01*
X33190236Y-29210442D01*
X33163589Y-29171838D01*
X33144145Y-29126201D01*
X33144145Y-29076593D01*
X33163589Y-29030958D01*
X33174184Y-29015610D01*
X33226722Y-28877079D01*
X33244581Y-28730000D01*
X33235509Y-28655283D01*
X33602417Y-28655283D01*
X33620277Y-28802362D01*
X33672814Y-28940893D01*
X33756979Y-29062827D01*
X33867874Y-29161071D01*
X33867875Y-29161071D01*
X33867877Y-29161073D01*
X33999066Y-29229926D01*
X34142919Y-29265383D01*
X34291078Y-29265383D01*
X34291079Y-29265383D01*
X34434932Y-29229926D01*
X34566121Y-29161073D01*
X34677019Y-29062826D01*
X34761183Y-28940893D01*
X34813721Y-28802362D01*
X34831580Y-28655283D01*
X34813721Y-28508204D01*
X34774893Y-28405823D01*
X34761183Y-28369672D01*
X34677018Y-28247738D01*
X34566123Y-28149494D01*
X34434930Y-28080639D01*
X34338132Y-28056780D01*
X34291079Y-28045183D01*
X34142919Y-28045183D01*
X34107463Y-28053922D01*
X33999067Y-28080639D01*
X33867874Y-28149494D01*
X33756979Y-28247738D01*
X33672814Y-28369672D01*
X33620277Y-28508203D01*
X33602417Y-28655283D01*
X33235509Y-28655283D01*
X33226722Y-28582921D01*
X33188667Y-28482578D01*
X33174184Y-28444389D01*
X33090019Y-28322455D01*
X32979124Y-28224211D01*
X32847931Y-28155356D01*
X32751133Y-28131497D01*
X32704080Y-28119900D01*
X32555920Y-28119900D01*
X32520463Y-28128639D01*
X32412068Y-28155356D01*
X32280875Y-28224211D01*
X32169980Y-28322455D01*
X32085815Y-28444389D01*
X32033278Y-28582920D01*
X32015418Y-28729999D01*
X30844711Y-28729999D01*
X30849221Y-28692855D01*
X30831362Y-28545776D01*
X30792124Y-28442315D01*
X30778824Y-28407244D01*
X30694659Y-28285310D01*
X30583764Y-28187066D01*
X30452571Y-28118211D01*
X30355773Y-28094352D01*
X30308720Y-28082755D01*
X30160560Y-28082755D01*
X30158467Y-28082755D01*
X30092193Y-28063559D01*
X30046439Y-28011913D01*
X30035371Y-27943809D01*
X30044303Y-27870245D01*
X30042090Y-27852018D01*
X30026444Y-27723166D01*
X29986211Y-27617081D01*
X29973906Y-27584634D01*
X29889741Y-27462700D01*
X29778846Y-27364456D01*
X29676712Y-27310852D01*
X29647655Y-27295602D01*
X29647654Y-27295601D01*
X29647653Y-27295601D01*
X29520294Y-27264210D01*
X29503802Y-27260145D01*
X29355642Y-27260145D01*
X29339150Y-27264210D01*
X29211788Y-27295601D01*
X29069138Y-27370470D01*
X29011512Y-27384673D01*
X28953887Y-27370469D01*
X28867934Y-27325357D01*
X28754492Y-27297396D01*
X28724080Y-27289900D01*
X28575920Y-27289900D01*
X28545512Y-27297395D01*
X28432068Y-27325356D01*
X28300875Y-27394211D01*
X28189980Y-27492455D01*
X28105815Y-27614389D01*
X28053278Y-27752920D01*
X28035418Y-27900000D01*
X27663617Y-27900000D01*
X27646722Y-27760856D01*
X27603083Y-27645789D01*
X27594184Y-27622324D01*
X27510019Y-27500390D01*
X27399124Y-27402146D01*
X27327309Y-27364455D01*
X27267933Y-27333292D01*
X27267932Y-27333291D01*
X27267931Y-27333291D01*
X27171133Y-27309432D01*
X27124080Y-27297835D01*
X26981490Y-27297835D01*
X26915216Y-27278638D01*
X26869462Y-27226992D01*
X26858394Y-27158888D01*
X26860688Y-27140000D01*
X26864581Y-27107936D01*
X26846722Y-26960857D01*
X26812200Y-26869831D01*
X26794184Y-26822325D01*
X26710019Y-26700391D01*
X26599124Y-26602147D01*
X26467931Y-26533292D01*
X26371133Y-26509433D01*
X26324080Y-26497836D01*
X26175920Y-26497836D01*
X26148453Y-26504606D01*
X26093364Y-26518184D01*
X26034013Y-26518184D01*
X25981461Y-26490602D01*
X25947747Y-26441757D01*
X25940593Y-26382841D01*
X25944581Y-26350000D01*
X25926722Y-26202921D01*
X25894108Y-26116926D01*
X25874184Y-26064389D01*
X25790019Y-25942455D01*
X25679124Y-25844211D01*
X25596988Y-25801103D01*
X25547933Y-25775357D01*
X25547932Y-25775356D01*
X25547931Y-25775356D01*
X25434618Y-25747427D01*
X25404080Y-25739900D01*
X25255920Y-25739900D01*
X25236316Y-25744732D01*
X25112066Y-25775356D01*
X24973466Y-25848099D01*
X24908353Y-25862076D01*
X24845400Y-25840352D01*
X24802765Y-25789192D01*
X24792745Y-25723355D01*
X24793153Y-25720000D01*
X24804081Y-25630000D01*
X24788296Y-25500000D01*
X27227484Y-25500000D01*
X27230343Y-25523545D01*
X27245343Y-25647079D01*
X27297880Y-25785610D01*
X27382045Y-25907544D01*
X27492940Y-26005788D01*
X27492941Y-26005788D01*
X27492943Y-26005790D01*
X27624132Y-26074643D01*
X27767985Y-26110100D01*
X27916144Y-26110100D01*
X27916145Y-26110100D01*
X28059998Y-26074643D01*
X28180849Y-26011215D01*
X28238471Y-25997013D01*
X28296097Y-26011217D01*
X28300876Y-26013725D01*
X28300877Y-26013726D01*
X28361970Y-26045790D01*
X28431833Y-26082457D01*
X28432066Y-26082579D01*
X28575919Y-26118036D01*
X28724078Y-26118036D01*
X28724079Y-26118036D01*
X28867932Y-26082579D01*
X28999121Y-26013726D01*
X29020225Y-25995029D01*
X29063183Y-25970227D01*
X29112428Y-25964247D01*
X29160075Y-25978047D01*
X29263211Y-26032177D01*
X29407064Y-26067634D01*
X29407065Y-26067634D01*
X29570280Y-26067634D01*
X29570280Y-26070330D01*
X29603626Y-26070327D01*
X29656184Y-26097906D01*
X29689903Y-26146751D01*
X29697058Y-26205672D01*
X29678619Y-26357526D01*
X29696479Y-26504606D01*
X29749016Y-26643137D01*
X29833181Y-26765071D01*
X29944076Y-26863315D01*
X29944077Y-26863315D01*
X29944079Y-26863317D01*
X30075268Y-26932170D01*
X30219121Y-26967627D01*
X30367280Y-26967627D01*
X30367281Y-26967627D01*
X30511134Y-26932170D01*
X30642323Y-26863317D01*
X30753221Y-26765070D01*
X30837385Y-26643137D01*
X30889923Y-26504606D01*
X30907782Y-26357527D01*
X30889923Y-26210448D01*
X30850614Y-26106799D01*
X30837385Y-26071916D01*
X30753220Y-25949982D01*
X30642325Y-25851738D01*
X30511132Y-25782883D01*
X30414334Y-25759024D01*
X30367281Y-25747427D01*
X30219121Y-25747427D01*
X30204065Y-25747427D01*
X30204065Y-25744732D01*
X30170689Y-25744726D01*
X30118145Y-25717141D01*
X30084438Y-25668299D01*
X30077286Y-25609387D01*
X30078430Y-25599972D01*
X30095725Y-25457534D01*
X30094694Y-25449047D01*
X30092915Y-25434389D01*
X30077866Y-25310455D01*
X30038423Y-25206453D01*
X30025328Y-25171923D01*
X29976241Y-25100809D01*
X29956794Y-25055157D01*
X29956803Y-25005535D01*
X29965769Y-24984507D01*
X29964094Y-24983872D01*
X29974812Y-24955610D01*
X30021971Y-24831263D01*
X30039830Y-24684184D01*
X30039288Y-24679721D01*
X30405663Y-24679721D01*
X30423523Y-24826801D01*
X30476060Y-24965332D01*
X30560225Y-25087266D01*
X30671120Y-25185510D01*
X30671121Y-25185510D01*
X30671123Y-25185512D01*
X30802312Y-25254365D01*
X30946165Y-25289822D01*
X31094324Y-25289822D01*
X31094325Y-25289822D01*
X31238178Y-25254365D01*
X31369367Y-25185512D01*
X31474169Y-25092666D01*
X31480264Y-25087266D01*
X31486976Y-25077543D01*
X31564429Y-24965332D01*
X31616967Y-24826801D01*
X31623864Y-24770000D01*
X32775418Y-24770000D01*
X32793278Y-24917079D01*
X32845815Y-25055610D01*
X32911580Y-25150886D01*
X32932626Y-25206380D01*
X32925472Y-25265297D01*
X32873278Y-25402920D01*
X32855418Y-25550000D01*
X32873278Y-25697079D01*
X32925815Y-25835610D01*
X33009980Y-25957544D01*
X33120875Y-26055788D01*
X33120876Y-26055788D01*
X33120878Y-26055790D01*
X33252067Y-26124643D01*
X33395920Y-26160100D01*
X33395921Y-26160100D01*
X33496583Y-26160100D01*
X33554209Y-26174303D01*
X33598633Y-26213660D01*
X33619679Y-26269153D01*
X33612525Y-26328070D01*
X33578811Y-26376915D01*
X33549979Y-26402457D01*
X33465815Y-26524389D01*
X33413278Y-26662920D01*
X33395418Y-26810000D01*
X33413278Y-26957079D01*
X33465815Y-27095610D01*
X33549980Y-27217544D01*
X33660875Y-27315788D01*
X33660876Y-27315788D01*
X33660878Y-27315790D01*
X33792067Y-27384643D01*
X33935920Y-27420100D01*
X34084079Y-27420100D01*
X34084080Y-27420100D01*
X34227933Y-27384643D01*
X34359122Y-27315790D01*
X34470020Y-27217543D01*
X34554184Y-27095610D01*
X34606722Y-26957079D01*
X34624581Y-26810000D01*
X34606722Y-26662921D01*
X34569817Y-26565610D01*
X34554184Y-26524389D01*
X34470020Y-26402457D01*
X34398777Y-26339341D01*
X34362619Y-26283416D01*
X34360608Y-26216850D01*
X34393325Y-26158844D01*
X34451329Y-26126129D01*
X34497933Y-26114643D01*
X34629122Y-26045790D01*
X34740020Y-25947543D01*
X34824184Y-25825610D01*
X34876722Y-25687079D01*
X34894581Y-25540000D01*
X34892180Y-25520230D01*
X34883537Y-25449047D01*
X34894605Y-25380942D01*
X34940359Y-25329297D01*
X35006633Y-25310100D01*
X35117547Y-25310100D01*
X35183821Y-25329296D01*
X35229575Y-25380942D01*
X35240643Y-25449046D01*
X35235419Y-25492063D01*
X35253279Y-25639143D01*
X35305816Y-25777673D01*
X35321989Y-25801103D01*
X35341433Y-25846739D01*
X35341433Y-25896345D01*
X35321990Y-25941982D01*
X35285815Y-25994390D01*
X35233278Y-26132920D01*
X35215418Y-26279999D01*
X35233278Y-26427079D01*
X35285815Y-26565610D01*
X35369980Y-26687544D01*
X35480875Y-26785788D01*
X35480876Y-26785788D01*
X35480878Y-26785790D01*
X35612067Y-26854643D01*
X35755920Y-26890100D01*
X35904079Y-26890100D01*
X35904080Y-26890100D01*
X36047933Y-26854643D01*
X36179122Y-26785790D01*
X36290020Y-26687543D01*
X36374184Y-26565610D01*
X36426722Y-26427079D01*
X36444581Y-26280000D01*
X36426722Y-26132921D01*
X36374184Y-25994390D01*
X36358011Y-25970960D01*
X36338567Y-25925324D01*
X36338567Y-25875717D01*
X36358011Y-25830081D01*
X36394185Y-25777674D01*
X36446723Y-25639143D01*
X36464582Y-25492064D01*
X36446723Y-25344985D01*
X36400254Y-25222457D01*
X36394185Y-25206453D01*
X36310020Y-25084519D01*
X36199125Y-24986275D01*
X36116667Y-24942998D01*
X36067934Y-24917421D01*
X36067933Y-24917420D01*
X36067932Y-24917420D01*
X35952087Y-24888867D01*
X35924081Y-24881964D01*
X35790389Y-24881964D01*
X35724115Y-24862768D01*
X35678361Y-24811122D01*
X35667293Y-24743018D01*
X35672516Y-24700000D01*
X35671120Y-24688505D01*
X35654657Y-24552921D01*
X35614055Y-24445862D01*
X35602119Y-24414389D01*
X35517954Y-24292455D01*
X35407059Y-24194211D01*
X35275866Y-24125356D01*
X35164212Y-24097836D01*
X35132015Y-24089900D01*
X34983855Y-24089900D01*
X34951658Y-24097836D01*
X34840003Y-24125356D01*
X34708810Y-24194211D01*
X34597915Y-24292455D01*
X34513750Y-24414389D01*
X34461213Y-24552920D01*
X34443353Y-24700000D01*
X34454398Y-24790953D01*
X34443330Y-24859058D01*
X34397576Y-24910703D01*
X34331302Y-24929900D01*
X34205920Y-24929900D01*
X34178731Y-24936601D01*
X34152779Y-24942998D01*
X34093428Y-24942998D01*
X34040876Y-24915415D01*
X34007161Y-24866570D01*
X34000008Y-24807656D01*
X34004581Y-24770000D01*
X33986722Y-24622921D01*
X33934184Y-24484390D01*
X33907589Y-24445861D01*
X33888146Y-24400225D01*
X33888146Y-24350618D01*
X33907591Y-24304981D01*
X33910758Y-24300393D01*
X33942515Y-24254386D01*
X33995053Y-24115855D01*
X34012912Y-23968776D01*
X34000918Y-23869999D01*
X40705418Y-23869999D01*
X40723278Y-24017079D01*
X40775815Y-24155610D01*
X40859980Y-24277544D01*
X40970875Y-24375788D01*
X40970876Y-24375788D01*
X40970878Y-24375790D01*
X41102067Y-24444643D01*
X41245920Y-24480100D01*
X41394079Y-24480100D01*
X41394080Y-24480100D01*
X41537933Y-24444643D01*
X41669122Y-24375790D01*
X41780020Y-24277543D01*
X41864184Y-24155610D01*
X41916722Y-24017079D01*
X41934581Y-23870000D01*
X41916722Y-23722921D01*
X41883949Y-23636507D01*
X41864184Y-23584389D01*
X41811141Y-23507544D01*
X41802164Y-23494539D01*
X41780441Y-23431587D01*
X41789368Y-23390000D01*
X47965418Y-23390000D01*
X47983278Y-23537079D01*
X48035815Y-23675610D01*
X48119980Y-23797544D01*
X48230875Y-23895788D01*
X48230876Y-23895788D01*
X48230878Y-23895790D01*
X48362067Y-23964643D01*
X48505920Y-24000100D01*
X48654079Y-24000100D01*
X48654080Y-24000100D01*
X48797933Y-23964643D01*
X48929122Y-23895790D01*
X49040020Y-23797543D01*
X49124184Y-23675610D01*
X49176722Y-23537079D01*
X49194581Y-23390000D01*
X49176722Y-23242921D01*
X49127909Y-23114211D01*
X49124184Y-23104389D01*
X49040019Y-22982455D01*
X48929124Y-22884211D01*
X48839321Y-22837079D01*
X48797933Y-22815357D01*
X48797932Y-22815356D01*
X48797931Y-22815356D01*
X48683206Y-22787079D01*
X48654080Y-22779900D01*
X48505920Y-22779900D01*
X48476794Y-22787079D01*
X48362068Y-22815356D01*
X48230875Y-22884211D01*
X48119980Y-22982455D01*
X48035815Y-23104389D01*
X47983278Y-23242920D01*
X47965418Y-23390000D01*
X41789368Y-23390000D01*
X41794418Y-23366474D01*
X41840065Y-23317983D01*
X41904215Y-23300100D01*
X41914079Y-23300100D01*
X41914080Y-23300100D01*
X42057933Y-23264643D01*
X42189122Y-23195790D01*
X42292291Y-23104390D01*
X42300019Y-23097544D01*
X42384184Y-22975610D01*
X42392789Y-22952920D01*
X42436722Y-22837079D01*
X42454581Y-22690000D01*
X42436722Y-22542921D01*
X42384184Y-22404390D01*
X42384184Y-22404389D01*
X42300019Y-22282455D01*
X42189124Y-22184211D01*
X42057931Y-22115356D01*
X41961133Y-22091497D01*
X41914080Y-22079900D01*
X41765920Y-22079900D01*
X41730464Y-22088639D01*
X41622068Y-22115356D01*
X41490875Y-22184211D01*
X41379980Y-22282455D01*
X41295815Y-22404389D01*
X41243278Y-22542920D01*
X41225418Y-22689999D01*
X41243278Y-22837079D01*
X41295815Y-22975610D01*
X41357835Y-23065460D01*
X41379559Y-23128413D01*
X41365582Y-23193526D01*
X41319935Y-23242017D01*
X41255785Y-23259900D01*
X41245920Y-23259900D01*
X41216794Y-23267079D01*
X41102068Y-23295356D01*
X40970875Y-23364211D01*
X40859980Y-23462455D01*
X40775815Y-23584389D01*
X40723278Y-23722920D01*
X40705418Y-23869999D01*
X34000918Y-23869999D01*
X33995053Y-23821697D01*
X33942515Y-23683166D01*
X33910309Y-23636507D01*
X33890865Y-23590870D01*
X33890865Y-23541263D01*
X33910307Y-23495629D01*
X33986248Y-23385611D01*
X34038786Y-23247080D01*
X34056645Y-23100001D01*
X34056645Y-23099999D01*
X34443354Y-23099999D01*
X34461214Y-23247078D01*
X34513751Y-23385609D01*
X34597916Y-23507543D01*
X34708811Y-23605787D01*
X34708812Y-23605787D01*
X34708814Y-23605789D01*
X34840003Y-23674642D01*
X34983856Y-23710099D01*
X35132015Y-23710099D01*
X35132016Y-23710099D01*
X35275869Y-23674642D01*
X35388780Y-23615381D01*
X35446405Y-23601178D01*
X35504029Y-23615380D01*
X35632066Y-23682579D01*
X35775919Y-23718036D01*
X35924078Y-23718036D01*
X35924079Y-23718036D01*
X36067932Y-23682579D01*
X36199121Y-23613726D01*
X36285638Y-23537079D01*
X36310018Y-23515480D01*
X36310339Y-23515016D01*
X36394183Y-23393546D01*
X36446721Y-23255015D01*
X36464580Y-23107936D01*
X36464149Y-23104390D01*
X36458393Y-23056982D01*
X36469461Y-22988877D01*
X36515215Y-22937231D01*
X36581489Y-22918035D01*
X36724079Y-22918035D01*
X36724080Y-22918035D01*
X36867933Y-22882578D01*
X36999122Y-22813725D01*
X37110020Y-22715478D01*
X37194184Y-22593545D01*
X37246722Y-22455014D01*
X37264581Y-22307935D01*
X37263617Y-22300000D01*
X37260678Y-22275790D01*
X37246722Y-22160856D01*
X37210137Y-22064389D01*
X37194184Y-22022324D01*
X37110019Y-21900390D01*
X36999124Y-21802146D01*
X36937873Y-21769999D01*
X49615418Y-21769999D01*
X49633278Y-21917079D01*
X49685815Y-22055610D01*
X49769980Y-22177544D01*
X49880875Y-22275788D01*
X49880876Y-22275788D01*
X49880878Y-22275790D01*
X50012067Y-22344643D01*
X50155920Y-22380100D01*
X50304079Y-22380100D01*
X50304080Y-22380100D01*
X50426199Y-22350000D01*
X50965418Y-22350000D01*
X50983278Y-22497079D01*
X51035815Y-22635610D01*
X51119980Y-22757544D01*
X51230875Y-22855788D01*
X51230876Y-22855788D01*
X51230878Y-22855790D01*
X51362067Y-22924643D01*
X51505920Y-22960100D01*
X51654079Y-22960100D01*
X51654080Y-22960100D01*
X51797933Y-22924643D01*
X51929122Y-22855790D01*
X52040020Y-22757543D01*
X52124184Y-22635610D01*
X52176722Y-22497079D01*
X52194581Y-22350000D01*
X52176722Y-22202921D01*
X52128549Y-22075899D01*
X52124184Y-22064389D01*
X52040019Y-21942455D01*
X51929124Y-21844211D01*
X51833855Y-21794210D01*
X51797933Y-21775357D01*
X51797932Y-21775356D01*
X51797931Y-21775356D01*
X51701133Y-21751497D01*
X51654080Y-21739900D01*
X51505920Y-21739900D01*
X51470463Y-21748639D01*
X51362068Y-21775356D01*
X51230875Y-21844211D01*
X51119982Y-21942454D01*
X51027871Y-22075899D01*
X51005727Y-22095515D01*
X51007274Y-22099594D01*
X51000120Y-22158512D01*
X50983278Y-22202920D01*
X50965418Y-22350000D01*
X50426199Y-22350000D01*
X50447933Y-22344643D01*
X50579122Y-22275790D01*
X50690020Y-22177543D01*
X50774184Y-22055610D01*
X50774184Y-22055609D01*
X50782128Y-22044101D01*
X50804272Y-22024483D01*
X50802725Y-22020403D01*
X50809879Y-21961488D01*
X50826722Y-21917079D01*
X50844581Y-21770000D01*
X50826722Y-21622921D01*
X50774184Y-21484390D01*
X50774184Y-21484389D01*
X50695226Y-21369999D01*
X54195418Y-21369999D01*
X54213278Y-21517079D01*
X54265815Y-21655610D01*
X54349980Y-21777544D01*
X54460875Y-21875788D01*
X54460876Y-21875788D01*
X54460878Y-21875790D01*
X54592067Y-21944643D01*
X54735920Y-21980100D01*
X54884079Y-21980100D01*
X54884080Y-21980100D01*
X55027933Y-21944643D01*
X55159122Y-21875790D01*
X55270020Y-21777543D01*
X55354184Y-21655610D01*
X55406722Y-21517079D01*
X55424581Y-21370000D01*
X55406722Y-21222921D01*
X55374108Y-21136927D01*
X55354184Y-21084389D01*
X55270019Y-20962455D01*
X55159124Y-20864211D01*
X55027931Y-20795356D01*
X54931133Y-20771497D01*
X54884080Y-20759900D01*
X54735920Y-20759900D01*
X54700464Y-20768639D01*
X54592068Y-20795356D01*
X54460875Y-20864211D01*
X54349980Y-20962455D01*
X54265815Y-21084389D01*
X54213278Y-21222920D01*
X54195418Y-21369999D01*
X50695226Y-21369999D01*
X50690019Y-21362455D01*
X50579124Y-21264211D01*
X50490205Y-21217543D01*
X50447933Y-21195357D01*
X50447932Y-21195356D01*
X50447931Y-21195356D01*
X50351133Y-21171497D01*
X50304080Y-21159900D01*
X50155920Y-21159900D01*
X50120464Y-21168639D01*
X50012068Y-21195356D01*
X49880875Y-21264211D01*
X49769980Y-21362455D01*
X49685815Y-21484389D01*
X49633278Y-21622920D01*
X49615418Y-21769999D01*
X36937873Y-21769999D01*
X36933527Y-21767718D01*
X36867933Y-21733292D01*
X36867932Y-21733291D01*
X36867931Y-21733291D01*
X36771133Y-21709432D01*
X36724080Y-21697835D01*
X36575920Y-21697835D01*
X36540464Y-21706574D01*
X36432068Y-21733291D01*
X36300875Y-21802146D01*
X36189980Y-21900390D01*
X36105815Y-22022324D01*
X36053278Y-22160855D01*
X36035418Y-22307935D01*
X36041606Y-22358889D01*
X36030538Y-22426994D01*
X35984784Y-22478640D01*
X35918510Y-22497836D01*
X35775919Y-22497836D01*
X35767233Y-22499977D01*
X35632065Y-22533292D01*
X35519153Y-22592553D01*
X35461528Y-22606756D01*
X35403903Y-22592553D01*
X35275869Y-22525356D01*
X35275868Y-22525355D01*
X35275867Y-22525355D01*
X35179069Y-22501496D01*
X35132016Y-22489899D01*
X34983856Y-22489899D01*
X34954726Y-22497079D01*
X34840004Y-22525355D01*
X34708811Y-22594210D01*
X34597916Y-22692454D01*
X34513751Y-22814388D01*
X34461214Y-22952919D01*
X34443354Y-23099999D01*
X34056645Y-23099999D01*
X34038786Y-22952922D01*
X33997625Y-22844389D01*
X33986248Y-22814390D01*
X33902083Y-22692456D01*
X33791188Y-22594212D01*
X33659995Y-22525357D01*
X33528392Y-22492920D01*
X33516144Y-22489901D01*
X33367984Y-22489901D01*
X33355736Y-22492920D01*
X33224132Y-22525357D01*
X33092939Y-22594212D01*
X32982044Y-22692456D01*
X32897879Y-22814390D01*
X32845342Y-22952921D01*
X32832707Y-23056982D01*
X32827483Y-23100001D01*
X32831126Y-23130000D01*
X32845342Y-23247080D01*
X32897880Y-23385613D01*
X32930085Y-23432270D01*
X32949529Y-23477906D01*
X32949529Y-23527512D01*
X32930085Y-23573148D01*
X32854147Y-23683163D01*
X32801609Y-23821696D01*
X32783749Y-23968775D01*
X32801609Y-24115855D01*
X32854147Y-24254386D01*
X32880740Y-24292913D01*
X32900184Y-24338550D01*
X32900184Y-24388156D01*
X32880740Y-24433793D01*
X32845816Y-24484389D01*
X32793278Y-24622920D01*
X32775418Y-24770000D01*
X31623864Y-24770000D01*
X31634826Y-24679722D01*
X31616967Y-24532643D01*
X31583593Y-24444643D01*
X31564429Y-24394111D01*
X31480264Y-24272177D01*
X31369369Y-24173933D01*
X31238176Y-24105078D01*
X31141378Y-24081219D01*
X31094325Y-24069622D01*
X30946165Y-24069622D01*
X30910709Y-24078361D01*
X30802313Y-24105078D01*
X30671120Y-24173933D01*
X30560225Y-24272177D01*
X30476060Y-24394111D01*
X30423523Y-24532642D01*
X30405663Y-24679721D01*
X30039288Y-24679721D01*
X30021971Y-24537105D01*
X29975431Y-24414389D01*
X29969433Y-24398573D01*
X29885268Y-24276639D01*
X29774373Y-24178395D01*
X29643180Y-24109540D01*
X29546382Y-24085681D01*
X29499329Y-24074084D01*
X29351169Y-24074084D01*
X29315712Y-24082823D01*
X29207317Y-24109540D01*
X29076124Y-24178395D01*
X28965229Y-24276639D01*
X28881064Y-24398573D01*
X28828527Y-24537104D01*
X28810667Y-24684184D01*
X28819739Y-24758889D01*
X28808671Y-24826994D01*
X28762917Y-24878640D01*
X28696643Y-24897836D01*
X28575919Y-24897836D01*
X28552170Y-24903689D01*
X28432065Y-24933292D01*
X28311216Y-24996719D01*
X28253591Y-25010922D01*
X28195965Y-24996718D01*
X28191187Y-24994210D01*
X28117641Y-24955610D01*
X28059999Y-24925357D01*
X27948342Y-24897836D01*
X27916145Y-24889900D01*
X27767985Y-24889900D01*
X27735788Y-24897836D01*
X27624133Y-24925356D01*
X27492940Y-24994211D01*
X27382045Y-25092455D01*
X27297880Y-25214389D01*
X27245343Y-25352920D01*
X27227609Y-25498966D01*
X27227484Y-25500000D01*
X24788296Y-25500000D01*
X24786222Y-25482921D01*
X24736999Y-25353130D01*
X24733684Y-25344389D01*
X24649519Y-25222455D01*
X24538624Y-25124211D01*
X24407431Y-25055356D01*
X24292706Y-25027079D01*
X24263580Y-25019900D01*
X24115420Y-25019900D01*
X24087730Y-25026725D01*
X23971568Y-25055356D01*
X23840375Y-25124211D01*
X23729480Y-25222455D01*
X23645315Y-25344389D01*
X23592778Y-25482920D01*
X23574918Y-25629999D01*
X23592778Y-25777079D01*
X23645315Y-25915610D01*
X23729479Y-26037542D01*
X23741829Y-26048483D01*
X23778705Y-26106799D01*
X23778705Y-26175796D01*
X23741829Y-26234112D01*
X23723745Y-26250132D01*
X23639579Y-26372067D01*
X23587042Y-26510598D01*
X23569182Y-26657677D01*
X23587042Y-26804757D01*
X23639580Y-26943288D01*
X23721714Y-27062281D01*
X23742760Y-27117774D01*
X23735607Y-27176691D01*
X23701893Y-27225535D01*
X23694080Y-27232456D01*
X23609915Y-27354389D01*
X23557378Y-27492920D01*
X23539518Y-27640000D01*
X21300474Y-27640000D01*
X21300474Y-23899998D01*
X26443353Y-23899998D01*
X26461213Y-24047078D01*
X26513750Y-24185609D01*
X26597915Y-24307543D01*
X26708810Y-24405787D01*
X26708811Y-24405787D01*
X26708813Y-24405789D01*
X26840002Y-24474642D01*
X26983855Y-24510099D01*
X27132014Y-24510099D01*
X27132015Y-24510099D01*
X27275868Y-24474642D01*
X27407057Y-24405789D01*
X27517955Y-24307542D01*
X27602119Y-24185609D01*
X27654657Y-24047078D01*
X27672516Y-23899999D01*
X27654657Y-23752920D01*
X27610507Y-23636507D01*
X27602119Y-23614388D01*
X27517954Y-23492454D01*
X27407059Y-23394210D01*
X27275866Y-23325355D01*
X27179068Y-23301496D01*
X27132015Y-23289899D01*
X26983855Y-23289899D01*
X26948399Y-23298638D01*
X26840003Y-23325355D01*
X26708810Y-23394210D01*
X26597915Y-23492454D01*
X26513750Y-23614388D01*
X26461213Y-23752919D01*
X26443353Y-23899998D01*
X21300474Y-23899998D01*
X21300474Y-23129999D01*
X23574918Y-23129999D01*
X23592778Y-23277079D01*
X23645315Y-23415610D01*
X23729480Y-23537544D01*
X23840375Y-23635788D01*
X23840376Y-23635788D01*
X23840378Y-23635790D01*
X23971567Y-23704643D01*
X24115420Y-23740100D01*
X24263579Y-23740100D01*
X24263580Y-23740100D01*
X24407433Y-23704643D01*
X24538622Y-23635790D01*
X24649520Y-23537543D01*
X24733684Y-23415610D01*
X24786222Y-23277079D01*
X24804081Y-23130000D01*
X24796129Y-23064510D01*
X31210156Y-23064510D01*
X31228016Y-23211589D01*
X31280553Y-23350120D01*
X31364718Y-23472054D01*
X31475613Y-23570298D01*
X31475614Y-23570298D01*
X31475616Y-23570300D01*
X31606805Y-23639153D01*
X31750658Y-23674610D01*
X31898817Y-23674610D01*
X31898818Y-23674610D01*
X32042671Y-23639153D01*
X32173860Y-23570300D01*
X32284758Y-23472053D01*
X32368922Y-23350120D01*
X32421460Y-23211589D01*
X32439319Y-23064510D01*
X32421460Y-22917431D01*
X32368922Y-22778900D01*
X32359498Y-22765247D01*
X32340053Y-22719610D01*
X32340053Y-22670002D01*
X32359498Y-22624365D01*
X32366507Y-22614211D01*
X32386249Y-22585610D01*
X32438787Y-22447079D01*
X32456646Y-22300000D01*
X32438787Y-22152921D01*
X32390077Y-22024483D01*
X32386249Y-22014389D01*
X32302084Y-21892455D01*
X32191189Y-21794211D01*
X32059996Y-21725356D01*
X31948338Y-21697835D01*
X31916145Y-21689900D01*
X31767985Y-21689900D01*
X31735792Y-21697835D01*
X31624133Y-21725356D01*
X31492940Y-21794211D01*
X31382045Y-21892455D01*
X31297880Y-22014389D01*
X31245343Y-22152920D01*
X31227483Y-22300000D01*
X31245343Y-22447079D01*
X31297880Y-22585609D01*
X31307305Y-22599263D01*
X31326749Y-22644899D01*
X31326749Y-22694505D01*
X31307306Y-22740142D01*
X31280553Y-22778900D01*
X31228016Y-22917430D01*
X31210156Y-23064510D01*
X24796129Y-23064510D01*
X24786222Y-22982921D01*
X24733684Y-22844390D01*
X24651576Y-22725436D01*
X24632134Y-22679803D01*
X24632134Y-22630197D01*
X24651576Y-22584563D01*
X24733684Y-22465610D01*
X24786222Y-22327079D01*
X24804081Y-22180000D01*
X24786222Y-22032921D01*
X24753608Y-21946926D01*
X24733684Y-21894389D01*
X24691602Y-21833423D01*
X24649520Y-21772457D01*
X24582196Y-21712813D01*
X24545321Y-21654499D01*
X24545321Y-21585501D01*
X24582196Y-21527186D01*
X24612883Y-21500000D01*
X27243354Y-21500000D01*
X27261214Y-21647079D01*
X27313751Y-21785610D01*
X27397916Y-21907544D01*
X27508811Y-22005788D01*
X27508812Y-22005788D01*
X27508814Y-22005790D01*
X27640003Y-22074643D01*
X27783856Y-22110100D01*
X27932015Y-22110100D01*
X27932016Y-22110100D01*
X28075869Y-22074643D01*
X28207058Y-22005790D01*
X28317956Y-21907543D01*
X28402120Y-21785610D01*
X28454658Y-21647079D01*
X28472517Y-21500000D01*
X28454658Y-21352921D01*
X28411871Y-21240100D01*
X28402120Y-21214389D01*
X28317955Y-21092455D01*
X28207060Y-20994211D01*
X28075867Y-20925356D01*
X27979069Y-20901497D01*
X27932016Y-20889900D01*
X27783856Y-20889900D01*
X27748400Y-20898639D01*
X27640004Y-20925356D01*
X27508811Y-20994211D01*
X27397916Y-21092455D01*
X27313751Y-21214389D01*
X27261214Y-21352920D01*
X27243354Y-21500000D01*
X24612883Y-21500000D01*
X24649520Y-21467543D01*
X24733684Y-21345610D01*
X24786222Y-21207079D01*
X24804081Y-21060000D01*
X24786222Y-20912921D01*
X24741636Y-20795357D01*
X24733684Y-20774389D01*
X24649519Y-20652455D01*
X24538624Y-20554211D01*
X24407431Y-20485356D01*
X24286746Y-20455610D01*
X24263580Y-20449900D01*
X24115420Y-20449900D01*
X24092254Y-20455610D01*
X23971568Y-20485356D01*
X23840375Y-20554211D01*
X23729480Y-20652455D01*
X23645315Y-20774389D01*
X23592778Y-20912920D01*
X23574918Y-21060000D01*
X23592778Y-21207079D01*
X23645315Y-21345610D01*
X23706281Y-21433934D01*
X23729480Y-21467543D01*
X23796803Y-21527186D01*
X23833679Y-21585501D01*
X23833679Y-21654499D01*
X23796803Y-21712813D01*
X23729480Y-21772457D01*
X23729479Y-21772458D01*
X23645315Y-21894389D01*
X23592778Y-22032920D01*
X23574918Y-22179999D01*
X23592778Y-22327079D01*
X23645315Y-22465610D01*
X23727421Y-22584560D01*
X23746865Y-22630197D01*
X23746865Y-22679803D01*
X23727421Y-22725440D01*
X23645315Y-22844389D01*
X23592778Y-22982920D01*
X23574918Y-23129999D01*
X21300474Y-23129999D01*
X21300474Y-19740000D01*
X27265418Y-19740000D01*
X27283278Y-19887079D01*
X27335815Y-20025610D01*
X27419980Y-20147544D01*
X27530875Y-20245788D01*
X27530876Y-20245788D01*
X27530878Y-20245790D01*
X27662067Y-20314643D01*
X27805920Y-20350100D01*
X27954078Y-20350100D01*
X27954080Y-20350100D01*
X28097933Y-20314643D01*
X28124451Y-20300724D01*
X28182076Y-20286521D01*
X28239703Y-20300725D01*
X28270864Y-20317079D01*
X28295588Y-20330055D01*
X28439441Y-20365512D01*
X28587600Y-20365512D01*
X28587601Y-20365512D01*
X28691106Y-20340000D01*
X29485418Y-20340000D01*
X29503278Y-20487079D01*
X29555815Y-20625610D01*
X29639980Y-20747544D01*
X29750875Y-20845788D01*
X29750876Y-20845788D01*
X29750878Y-20845790D01*
X29882067Y-20914643D01*
X30025920Y-20950100D01*
X30174079Y-20950100D01*
X30174080Y-20950100D01*
X30317933Y-20914643D01*
X30449122Y-20845790D01*
X30560020Y-20747543D01*
X30641155Y-20629999D01*
X31729518Y-20629999D01*
X31747378Y-20777079D01*
X31799915Y-20915610D01*
X31884080Y-21037544D01*
X31994975Y-21135788D01*
X31994976Y-21135788D01*
X31994978Y-21135790D01*
X32126167Y-21204643D01*
X32270020Y-21240100D01*
X32418179Y-21240100D01*
X32418180Y-21240100D01*
X32562033Y-21204643D01*
X32693222Y-21135790D01*
X32804120Y-21037543D01*
X32888284Y-20915610D01*
X32940822Y-20777079D01*
X32958681Y-20630000D01*
X32951396Y-20570000D01*
X33825418Y-20570000D01*
X33843278Y-20717079D01*
X33895815Y-20855610D01*
X33979980Y-20977544D01*
X34090875Y-21075788D01*
X34090876Y-21075788D01*
X34090878Y-21075790D01*
X34222067Y-21144643D01*
X34365920Y-21180100D01*
X34514079Y-21180100D01*
X34514080Y-21180100D01*
X34657933Y-21144643D01*
X34789122Y-21075790D01*
X34900020Y-20977543D01*
X34984184Y-20855610D01*
X35001482Y-20809999D01*
X48375418Y-20809999D01*
X48393278Y-20957079D01*
X48445815Y-21095610D01*
X48529980Y-21217544D01*
X48640875Y-21315788D01*
X48640876Y-21315788D01*
X48640878Y-21315790D01*
X48772067Y-21384643D01*
X48915920Y-21420100D01*
X49064079Y-21420100D01*
X49064080Y-21420100D01*
X49207933Y-21384643D01*
X49339122Y-21315790D01*
X49424558Y-21240100D01*
X49450019Y-21217544D01*
X49457243Y-21207079D01*
X49534184Y-21095610D01*
X49586722Y-20957079D01*
X49604581Y-20810000D01*
X49586722Y-20662921D01*
X49534184Y-20524390D01*
X49534184Y-20524389D01*
X49450019Y-20402455D01*
X49339124Y-20304211D01*
X49257173Y-20261200D01*
X49207933Y-20235357D01*
X49207932Y-20235356D01*
X49207931Y-20235356D01*
X49111133Y-20211497D01*
X49064080Y-20199900D01*
X48915920Y-20199900D01*
X48880463Y-20208639D01*
X48772068Y-20235356D01*
X48640875Y-20304211D01*
X48529980Y-20402455D01*
X48445815Y-20524389D01*
X48393278Y-20662920D01*
X48375418Y-20809999D01*
X35001482Y-20809999D01*
X35020759Y-20759169D01*
X35062208Y-20704010D01*
X35126722Y-20679543D01*
X35194326Y-20693345D01*
X35292067Y-20744643D01*
X35435920Y-20780100D01*
X35584079Y-20780100D01*
X35584080Y-20780100D01*
X35727933Y-20744643D01*
X35859122Y-20675790D01*
X35970020Y-20577543D01*
X36054184Y-20455610D01*
X36106722Y-20317079D01*
X36124581Y-20170000D01*
X36106722Y-20022921D01*
X36054184Y-19884390D01*
X36054184Y-19884389D01*
X35970019Y-19762455D01*
X35859124Y-19664211D01*
X35727931Y-19595356D01*
X35631133Y-19571497D01*
X35584080Y-19559900D01*
X35435920Y-19559900D01*
X35400464Y-19568639D01*
X35292068Y-19595356D01*
X35160875Y-19664211D01*
X35049980Y-19762455D01*
X34965815Y-19884390D01*
X34929241Y-19980829D01*
X34887791Y-20035989D01*
X34823277Y-20060456D01*
X34755673Y-20046655D01*
X34657933Y-19995357D01*
X34657932Y-19995356D01*
X34657931Y-19995356D01*
X34561133Y-19971497D01*
X34514080Y-19959900D01*
X34365920Y-19959900D01*
X34330464Y-19968639D01*
X34222068Y-19995356D01*
X34090875Y-20064211D01*
X33979980Y-20162455D01*
X33895815Y-20284389D01*
X33843278Y-20422920D01*
X33825418Y-20570000D01*
X32951396Y-20570000D01*
X32940822Y-20482921D01*
X32888284Y-20344390D01*
X32888284Y-20344389D01*
X32804119Y-20222455D01*
X32693224Y-20124211D01*
X32562031Y-20055356D01*
X32441346Y-20025610D01*
X32418180Y-20019900D01*
X32270020Y-20019900D01*
X32246854Y-20025610D01*
X32126168Y-20055356D01*
X31994975Y-20124211D01*
X31884080Y-20222455D01*
X31799915Y-20344389D01*
X31747378Y-20482920D01*
X31729518Y-20629999D01*
X30641155Y-20629999D01*
X30644184Y-20625610D01*
X30696722Y-20487079D01*
X30714581Y-20340000D01*
X30696722Y-20192921D01*
X30647909Y-20064211D01*
X30644184Y-20054389D01*
X30560019Y-19932455D01*
X30449124Y-19834211D01*
X30317931Y-19765356D01*
X30215057Y-19740000D01*
X30174080Y-19729900D01*
X30025920Y-19729900D01*
X29990463Y-19738639D01*
X29882068Y-19765356D01*
X29750875Y-19834211D01*
X29639980Y-19932455D01*
X29555815Y-20054389D01*
X29503278Y-20192920D01*
X29485418Y-20340000D01*
X28691106Y-20340000D01*
X28731454Y-20330055D01*
X28862643Y-20261202D01*
X28973541Y-20162955D01*
X29057705Y-20041022D01*
X29110243Y-19902491D01*
X29128102Y-19755412D01*
X29110243Y-19608333D01*
X29057705Y-19469802D01*
X29057705Y-19469801D01*
X28973540Y-19347867D01*
X28862645Y-19249623D01*
X28731452Y-19180768D01*
X28634654Y-19156909D01*
X28587601Y-19145312D01*
X28439441Y-19145312D01*
X28415692Y-19151165D01*
X28295587Y-19180768D01*
X28269068Y-19194687D01*
X28211443Y-19208890D01*
X28153818Y-19194687D01*
X28097933Y-19165356D01*
X27982524Y-19136911D01*
X27954080Y-19129900D01*
X27805920Y-19129900D01*
X27770463Y-19138639D01*
X27662068Y-19165356D01*
X27530875Y-19234211D01*
X27419980Y-19332455D01*
X27335815Y-19454389D01*
X27283278Y-19592920D01*
X27265418Y-19740000D01*
X21300474Y-19740000D01*
X21300474Y-17017999D01*
X24187865Y-17017999D01*
X24208327Y-17186510D01*
X24268520Y-17345227D01*
X24364948Y-17484928D01*
X24492003Y-17597489D01*
X24492004Y-17597489D01*
X24492006Y-17597491D01*
X24642311Y-17676377D01*
X24807126Y-17717000D01*
X24807127Y-17717000D01*
X24904484Y-17717000D01*
X24962110Y-17731203D01*
X25006534Y-17770560D01*
X25027580Y-17826054D01*
X25020426Y-17884971D01*
X24983278Y-17982920D01*
X24965418Y-18129999D01*
X24983278Y-18277079D01*
X25035815Y-18415610D01*
X25119980Y-18537544D01*
X25230875Y-18635788D01*
X25230876Y-18635788D01*
X25230878Y-18635790D01*
X25362067Y-18704643D01*
X25505920Y-18740100D01*
X25654079Y-18740100D01*
X25654080Y-18740100D01*
X25797933Y-18704643D01*
X25929122Y-18635790D01*
X26040020Y-18537543D01*
X26124184Y-18415610D01*
X26176722Y-18277079D01*
X26194581Y-18130000D01*
X26176722Y-17982921D01*
X26124184Y-17844390D01*
X26124184Y-17844389D01*
X26040019Y-17722455D01*
X25929124Y-17624211D01*
X25797931Y-17555356D01*
X25701133Y-17531497D01*
X25654080Y-17519900D01*
X25628880Y-17519900D01*
X25571254Y-17505697D01*
X25526830Y-17466340D01*
X25505784Y-17410847D01*
X25512938Y-17351929D01*
X25523286Y-17324643D01*
X25575673Y-17186510D01*
X25596134Y-17018000D01*
X25575673Y-16849490D01*
X25537941Y-16749999D01*
X26255418Y-16749999D01*
X26273278Y-16897079D01*
X26325815Y-17035610D01*
X26409980Y-17157544D01*
X26520875Y-17255788D01*
X26520876Y-17255788D01*
X26520878Y-17255790D01*
X26652067Y-17324643D01*
X26795920Y-17360100D01*
X26944078Y-17360100D01*
X26944080Y-17360100D01*
X27087933Y-17324643D01*
X27147377Y-17293443D01*
X27205000Y-17279241D01*
X27262622Y-17293443D01*
X27322067Y-17324643D01*
X27465920Y-17360100D01*
X27614079Y-17360100D01*
X27614080Y-17360100D01*
X27757933Y-17324643D01*
X27889122Y-17255790D01*
X28000020Y-17157543D01*
X28084184Y-17035610D01*
X28136722Y-16897079D01*
X28152881Y-16764000D01*
X29521865Y-16764000D01*
X29542327Y-16932510D01*
X29602520Y-17091227D01*
X29698948Y-17230928D01*
X29826003Y-17343489D01*
X29826004Y-17343489D01*
X29826006Y-17343491D01*
X29976311Y-17422377D01*
X30141126Y-17463000D01*
X30310873Y-17463000D01*
X30310874Y-17463000D01*
X30475689Y-17422377D01*
X30625994Y-17343491D01*
X30753052Y-17230927D01*
X30849480Y-17091227D01*
X30909673Y-16932510D01*
X30930134Y-16764000D01*
X30930134Y-16763999D01*
X33421418Y-16763999D01*
X33439278Y-16911079D01*
X33491815Y-17049610D01*
X33575980Y-17171544D01*
X33686875Y-17269788D01*
X33686876Y-17269788D01*
X33686878Y-17269790D01*
X33818067Y-17338643D01*
X33961920Y-17374100D01*
X34110079Y-17374100D01*
X34110080Y-17374100D01*
X34253933Y-17338643D01*
X34385122Y-17269790D01*
X34492805Y-17174391D01*
X34496019Y-17171544D01*
X34521175Y-17135100D01*
X34580184Y-17049610D01*
X34632722Y-16911079D01*
X34650581Y-16764000D01*
X34632722Y-16616921D01*
X34580184Y-16478390D01*
X34580184Y-16478389D01*
X34496019Y-16356455D01*
X34385124Y-16258211D01*
X34278889Y-16202455D01*
X34253933Y-16189357D01*
X34253932Y-16189356D01*
X34253931Y-16189356D01*
X34157133Y-16165497D01*
X34110080Y-16153900D01*
X33961920Y-16153900D01*
X33926463Y-16162639D01*
X33818068Y-16189356D01*
X33686875Y-16258211D01*
X33575980Y-16356455D01*
X33491815Y-16478389D01*
X33439278Y-16616920D01*
X33421418Y-16763999D01*
X30930134Y-16763999D01*
X30909673Y-16595490D01*
X30849480Y-16436773D01*
X30796227Y-16359623D01*
X30753051Y-16297071D01*
X30625996Y-16184510D01*
X30503080Y-16119999D01*
X47945418Y-16119999D01*
X47963278Y-16267079D01*
X48015815Y-16405610D01*
X48099980Y-16527544D01*
X48210875Y-16625788D01*
X48210876Y-16625788D01*
X48210878Y-16625790D01*
X48342067Y-16694643D01*
X48485920Y-16730100D01*
X48634079Y-16730100D01*
X48634080Y-16730100D01*
X48777933Y-16694643D01*
X48909122Y-16625790D01*
X49020020Y-16527543D01*
X49021775Y-16525000D01*
X49810418Y-16525000D01*
X49828278Y-16672079D01*
X49880815Y-16810610D01*
X49964980Y-16932544D01*
X50075875Y-17030788D01*
X50075876Y-17030788D01*
X50075878Y-17030790D01*
X50207067Y-17099643D01*
X50350920Y-17135100D01*
X50499079Y-17135100D01*
X50499080Y-17135100D01*
X50642933Y-17099643D01*
X50774122Y-17030790D01*
X50868087Y-16947544D01*
X50885019Y-16932544D01*
X50885043Y-16932510D01*
X50969184Y-16810610D01*
X51021722Y-16672079D01*
X51030474Y-16599999D01*
X52460418Y-16599999D01*
X52478278Y-16747079D01*
X52530815Y-16885610D01*
X52614980Y-17007544D01*
X52725875Y-17105788D01*
X52725876Y-17105788D01*
X52725878Y-17105790D01*
X52857067Y-17174643D01*
X53000920Y-17210100D01*
X53149079Y-17210100D01*
X53149080Y-17210100D01*
X53292933Y-17174643D01*
X53358942Y-17139999D01*
X56685418Y-17139999D01*
X56703278Y-17287079D01*
X56755815Y-17425610D01*
X56839980Y-17547544D01*
X56950875Y-17645788D01*
X56950876Y-17645788D01*
X56950878Y-17645790D01*
X57082067Y-17714643D01*
X57225920Y-17750100D01*
X57225921Y-17750100D01*
X57271934Y-17750100D01*
X57329559Y-17764303D01*
X57373984Y-17803660D01*
X57395030Y-17859153D01*
X57403278Y-17927079D01*
X57455815Y-18065610D01*
X57539980Y-18187544D01*
X57650875Y-18285788D01*
X57650876Y-18285788D01*
X57650878Y-18285790D01*
X57782067Y-18354643D01*
X57925920Y-18390100D01*
X58074079Y-18390100D01*
X58074080Y-18390100D01*
X58217933Y-18354643D01*
X58349122Y-18285790D01*
X58412097Y-18229999D01*
X60385418Y-18229999D01*
X60403278Y-18377079D01*
X60455815Y-18515610D01*
X60539980Y-18637544D01*
X60650875Y-18735788D01*
X60650876Y-18735788D01*
X60650878Y-18735790D01*
X60782067Y-18804643D01*
X60925920Y-18840100D01*
X61074079Y-18840100D01*
X61074080Y-18840100D01*
X61217933Y-18804643D01*
X61349122Y-18735790D01*
X61460020Y-18637543D01*
X61544184Y-18515610D01*
X61596722Y-18377079D01*
X61614581Y-18230000D01*
X61596722Y-18082921D01*
X61596721Y-18082920D01*
X61594907Y-18067975D01*
X61595836Y-18067862D01*
X61591497Y-18041170D01*
X61603368Y-17993002D01*
X61633167Y-17953347D01*
X61730020Y-17867543D01*
X61814184Y-17745610D01*
X61866722Y-17607079D01*
X61884581Y-17460000D01*
X61866722Y-17312921D01*
X61814184Y-17174390D01*
X61813836Y-17173886D01*
X61792789Y-17118394D01*
X61799943Y-17059475D01*
X61833658Y-17010629D01*
X61839117Y-17005792D01*
X61839122Y-17005790D01*
X61950020Y-16907543D01*
X62034184Y-16785610D01*
X62086722Y-16647079D01*
X62091224Y-16609999D01*
X63835418Y-16609999D01*
X63853278Y-16757079D01*
X63905815Y-16895610D01*
X63989980Y-17017544D01*
X64100875Y-17115788D01*
X64100876Y-17115788D01*
X64100878Y-17115790D01*
X64232067Y-17184643D01*
X64375920Y-17220100D01*
X64524079Y-17220100D01*
X64524080Y-17220100D01*
X64667933Y-17184643D01*
X64799122Y-17115790D01*
X64895067Y-17030790D01*
X64910019Y-17017544D01*
X64925827Y-16994643D01*
X64994184Y-16895610D01*
X65046722Y-16757079D01*
X65064581Y-16610000D01*
X65063721Y-16602921D01*
X65057426Y-16551073D01*
X65046722Y-16462921D01*
X65030444Y-16420000D01*
X65645418Y-16420000D01*
X65663278Y-16567079D01*
X65715815Y-16705610D01*
X65799980Y-16827544D01*
X65910875Y-16925788D01*
X65910876Y-16925788D01*
X65910878Y-16925790D01*
X66042067Y-16994643D01*
X66185920Y-17030100D01*
X66334079Y-17030100D01*
X66334080Y-17030100D01*
X66477933Y-16994643D01*
X66609122Y-16925790D01*
X66720020Y-16827543D01*
X66804184Y-16705610D01*
X66856722Y-16567079D01*
X66874581Y-16420000D01*
X66856722Y-16272921D01*
X66804184Y-16134390D01*
X66804184Y-16134389D01*
X66720019Y-16012455D01*
X66609124Y-15914211D01*
X66477931Y-15845356D01*
X66381133Y-15821497D01*
X66334080Y-15809900D01*
X66185920Y-15809900D01*
X66150464Y-15818639D01*
X66042068Y-15845356D01*
X65910875Y-15914211D01*
X65799980Y-16012455D01*
X65715815Y-16134389D01*
X65663278Y-16272920D01*
X65645418Y-16420000D01*
X65030444Y-16420000D01*
X65007546Y-16359622D01*
X64994184Y-16324389D01*
X64910019Y-16202455D01*
X64799124Y-16104211D01*
X64667931Y-16035356D01*
X64571133Y-16011497D01*
X64524080Y-15999900D01*
X64375920Y-15999900D01*
X64340463Y-16008639D01*
X64232068Y-16035356D01*
X64100875Y-16104211D01*
X63989980Y-16202455D01*
X63905815Y-16324389D01*
X63853278Y-16462920D01*
X63835418Y-16609999D01*
X62091224Y-16609999D01*
X62104581Y-16500000D01*
X62086722Y-16352921D01*
X62034184Y-16214390D01*
X62034184Y-16214389D01*
X61950019Y-16092455D01*
X61839124Y-15994211D01*
X61707931Y-15925356D01*
X61611133Y-15901497D01*
X61564080Y-15889900D01*
X61415920Y-15889900D01*
X61380463Y-15898639D01*
X61272068Y-15925356D01*
X61140875Y-15994211D01*
X61029980Y-16092455D01*
X60945815Y-16214389D01*
X60893278Y-16352920D01*
X60875418Y-16500000D01*
X60893278Y-16647079D01*
X60945815Y-16785609D01*
X60946166Y-16786117D01*
X60967210Y-16841610D01*
X60960056Y-16900527D01*
X60926341Y-16949370D01*
X60809980Y-17052455D01*
X60725815Y-17174389D01*
X60673278Y-17312920D01*
X60655418Y-17460000D01*
X60675093Y-17622025D01*
X60674162Y-17622137D01*
X60678501Y-17648835D01*
X60666630Y-17696999D01*
X60636829Y-17736656D01*
X60539980Y-17822455D01*
X60455815Y-17944389D01*
X60403278Y-18082920D01*
X60385418Y-18229999D01*
X58412097Y-18229999D01*
X58460020Y-18187543D01*
X58544184Y-18065610D01*
X58596722Y-17927079D01*
X58614581Y-17780000D01*
X58596722Y-17632921D01*
X58544184Y-17494390D01*
X58544184Y-17494389D01*
X58460020Y-17372457D01*
X58453764Y-17366915D01*
X58420050Y-17318070D01*
X58412896Y-17259153D01*
X58433942Y-17203660D01*
X58478366Y-17164303D01*
X58535992Y-17150100D01*
X58564079Y-17150100D01*
X58564080Y-17150100D01*
X58707933Y-17114643D01*
X58839122Y-17045790D01*
X58950020Y-16947543D01*
X59034184Y-16825610D01*
X59086722Y-16687079D01*
X59104581Y-16540000D01*
X59086722Y-16392921D01*
X59041212Y-16272920D01*
X59034184Y-16254389D01*
X58950019Y-16132455D01*
X58839124Y-16034211D01*
X58707931Y-15965356D01*
X58611133Y-15941497D01*
X58564080Y-15929900D01*
X58415920Y-15929900D01*
X58382024Y-15938254D01*
X58283282Y-15962592D01*
X58233715Y-15964589D01*
X58187333Y-15946998D01*
X58151559Y-15912636D01*
X58110020Y-15852457D01*
X58089627Y-15834390D01*
X57999124Y-15754211D01*
X57867931Y-15685356D01*
X57771133Y-15661497D01*
X57724080Y-15649900D01*
X57575920Y-15649900D01*
X57540463Y-15658639D01*
X57432068Y-15685356D01*
X57300875Y-15754211D01*
X57189980Y-15852455D01*
X57105815Y-15974389D01*
X57053278Y-16112920D01*
X57035418Y-16260000D01*
X57053278Y-16407079D01*
X57069164Y-16448967D01*
X57076318Y-16507884D01*
X57055272Y-16563378D01*
X57010848Y-16602734D01*
X56950878Y-16634209D01*
X56839980Y-16732455D01*
X56755815Y-16854389D01*
X56703278Y-16992920D01*
X56685418Y-17139999D01*
X53358942Y-17139999D01*
X53424122Y-17105790D01*
X53509558Y-17030100D01*
X53535019Y-17007544D01*
X53586789Y-16932543D01*
X53619184Y-16885610D01*
X53671722Y-16747079D01*
X53689581Y-16600000D01*
X53671722Y-16452921D01*
X53633797Y-16352920D01*
X53619184Y-16314389D01*
X53535019Y-16192455D01*
X53424124Y-16094211D01*
X53292931Y-16025356D01*
X53166566Y-15994210D01*
X53149080Y-15989900D01*
X53000920Y-15989900D01*
X52983434Y-15994210D01*
X52857068Y-16025356D01*
X52725875Y-16094211D01*
X52614980Y-16192455D01*
X52530815Y-16314389D01*
X52478278Y-16452920D01*
X52460418Y-16599999D01*
X51030474Y-16599999D01*
X51039581Y-16525000D01*
X51021722Y-16377921D01*
X50979685Y-16267079D01*
X50969184Y-16239389D01*
X50885019Y-16117455D01*
X50774124Y-16019211D01*
X50642931Y-15950356D01*
X50541501Y-15925356D01*
X50499080Y-15914900D01*
X50350920Y-15914900D01*
X50315463Y-15923639D01*
X50207068Y-15950356D01*
X50075875Y-16019211D01*
X49964980Y-16117455D01*
X49880815Y-16239389D01*
X49828278Y-16377920D01*
X49810418Y-16525000D01*
X49021775Y-16525000D01*
X49104184Y-16405610D01*
X49156722Y-16267079D01*
X49174581Y-16120000D01*
X49173721Y-16112921D01*
X49171236Y-16092455D01*
X49156722Y-15972921D01*
X49111035Y-15852454D01*
X49104184Y-15834389D01*
X49020019Y-15712455D01*
X48909124Y-15614211D01*
X48777931Y-15545356D01*
X48681133Y-15521497D01*
X48634080Y-15509900D01*
X48485920Y-15509900D01*
X48450464Y-15518639D01*
X48342068Y-15545356D01*
X48210875Y-15614211D01*
X48099980Y-15712455D01*
X48015815Y-15834389D01*
X47963278Y-15972920D01*
X47945418Y-16119999D01*
X30503080Y-16119999D01*
X30475687Y-16105622D01*
X30364783Y-16078287D01*
X30310874Y-16065000D01*
X30141126Y-16065000D01*
X30100504Y-16075012D01*
X29976312Y-16105622D01*
X29826003Y-16184510D01*
X29698948Y-16297071D01*
X29602520Y-16436772D01*
X29542327Y-16595489D01*
X29521865Y-16764000D01*
X28152881Y-16764000D01*
X28154581Y-16750000D01*
X28136722Y-16602921D01*
X28084184Y-16464390D01*
X28084184Y-16464389D01*
X28000019Y-16342455D01*
X27889124Y-16244211D01*
X27757931Y-16175356D01*
X27661133Y-16151497D01*
X27614080Y-16139900D01*
X27465920Y-16139900D01*
X27442171Y-16145753D01*
X27322066Y-16175356D01*
X27262625Y-16206554D01*
X27205000Y-16220757D01*
X27147375Y-16206554D01*
X27087933Y-16175356D01*
X26972524Y-16146911D01*
X26944080Y-16139900D01*
X26795920Y-16139900D01*
X26760463Y-16148639D01*
X26652068Y-16175356D01*
X26520875Y-16244211D01*
X26409980Y-16342455D01*
X26325815Y-16464389D01*
X26273278Y-16602920D01*
X26255418Y-16749999D01*
X25537941Y-16749999D01*
X25515480Y-16690773D01*
X25454840Y-16602921D01*
X25419051Y-16551071D01*
X25291996Y-16438510D01*
X25141687Y-16359622D01*
X24998738Y-16324389D01*
X24976874Y-16319000D01*
X24807126Y-16319000D01*
X24785262Y-16324389D01*
X24642312Y-16359622D01*
X24492003Y-16438510D01*
X24364948Y-16551071D01*
X24268520Y-16690772D01*
X24208327Y-16849489D01*
X24187865Y-17017999D01*
X21300474Y-17017999D01*
X21300474Y-14197500D01*
X22662800Y-14197500D01*
X22662800Y-14540036D01*
X22678219Y-14667023D01*
X22738774Y-14826694D01*
X22835779Y-14967231D01*
X22963605Y-15080474D01*
X23114809Y-15159833D01*
X23116000Y-15160126D01*
X23116000Y-14197500D01*
X23616000Y-14197500D01*
X23616000Y-15160126D01*
X23617190Y-15159833D01*
X23768394Y-15080474D01*
X23896220Y-14967231D01*
X23993225Y-14826694D01*
X24053780Y-14667023D01*
X24069200Y-14540036D01*
X24069200Y-14197500D01*
X31302800Y-14197500D01*
X31302800Y-14540036D01*
X31318219Y-14667023D01*
X31378774Y-14826694D01*
X31475779Y-14967231D01*
X31603605Y-15080474D01*
X31754809Y-15159833D01*
X31756000Y-15160126D01*
X31756000Y-14197500D01*
X32256000Y-14197500D01*
X32256000Y-15160126D01*
X32257190Y-15159833D01*
X32408394Y-15080474D01*
X32536220Y-14967231D01*
X32633225Y-14826694D01*
X32693780Y-14667023D01*
X32709200Y-14540036D01*
X32709200Y-14197500D01*
X32256000Y-14197500D01*
X31756000Y-14197500D01*
X31302800Y-14197500D01*
X24069200Y-14197500D01*
X23616000Y-14197500D01*
X23116000Y-14197500D01*
X22662800Y-14197500D01*
X21300474Y-14197500D01*
X21300474Y-14120000D01*
X36605418Y-14120000D01*
X36623278Y-14267079D01*
X36675815Y-14405610D01*
X36759980Y-14527544D01*
X36870875Y-14625788D01*
X36870876Y-14625788D01*
X36870878Y-14625790D01*
X37002067Y-14694643D01*
X37145920Y-14730100D01*
X37294079Y-14730100D01*
X37294080Y-14730100D01*
X37437933Y-14694643D01*
X37569122Y-14625790D01*
X37680020Y-14527543D01*
X37764184Y-14405610D01*
X37816722Y-14267079D01*
X37834581Y-14120000D01*
X37816722Y-13972921D01*
X37764184Y-13834390D01*
X37764184Y-13834389D01*
X37680019Y-13712455D01*
X37569124Y-13614211D01*
X37437931Y-13545356D01*
X37341133Y-13521497D01*
X37294080Y-13509900D01*
X37145920Y-13509900D01*
X37110463Y-13518639D01*
X37002068Y-13545356D01*
X36870875Y-13614211D01*
X36759980Y-13712455D01*
X36675815Y-13834389D01*
X36623278Y-13972920D01*
X36605418Y-14120000D01*
X21300474Y-14120000D01*
X21300474Y-13697500D01*
X22662800Y-13697500D01*
X23116000Y-13697500D01*
X23116000Y-12734874D01*
X23115999Y-12734873D01*
X23616000Y-12734873D01*
X23616000Y-13697500D01*
X24069200Y-13697500D01*
X24069200Y-13385222D01*
X24365283Y-13385222D01*
X24374904Y-13513610D01*
X24421943Y-13633463D01*
X24502214Y-13734120D01*
X24502215Y-13734120D01*
X24502217Y-13734123D01*
X24608595Y-13806650D01*
X24731625Y-13844600D01*
X24828005Y-13844600D01*
X24923312Y-13830235D01*
X25039311Y-13774372D01*
X25133692Y-13686800D01*
X25198067Y-13575300D01*
X25226716Y-13449778D01*
X25221878Y-13385222D01*
X30145283Y-13385222D01*
X30154904Y-13513610D01*
X30201943Y-13633463D01*
X30282214Y-13734120D01*
X30282215Y-13734120D01*
X30282217Y-13734123D01*
X30388595Y-13806650D01*
X30511625Y-13844600D01*
X30608005Y-13844600D01*
X30703312Y-13830235D01*
X30819311Y-13774372D01*
X30902160Y-13697500D01*
X31302800Y-13697500D01*
X31756000Y-13697500D01*
X31756000Y-12734874D01*
X31755999Y-12734873D01*
X32256000Y-12734873D01*
X32256000Y-13697500D01*
X32709200Y-13697500D01*
X32709200Y-13354964D01*
X32693780Y-13227976D01*
X32633225Y-13068305D01*
X32536220Y-12927768D01*
X32408394Y-12814525D01*
X32257190Y-12735166D01*
X32256000Y-12734873D01*
X31755999Y-12734873D01*
X31754809Y-12735166D01*
X31603605Y-12814525D01*
X31475779Y-12927768D01*
X31378774Y-13068305D01*
X31318219Y-13227976D01*
X31302800Y-13354964D01*
X31302800Y-13697500D01*
X30902160Y-13697500D01*
X30913692Y-13686800D01*
X30978067Y-13575300D01*
X31006716Y-13449778D01*
X30997095Y-13321388D01*
X30950057Y-13201538D01*
X30950056Y-13201537D01*
X30950056Y-13201536D01*
X30869785Y-13100879D01*
X30869784Y-13100878D01*
X30869783Y-13100877D01*
X30763405Y-13028350D01*
X30763404Y-13028349D01*
X30763403Y-13028349D01*
X30640375Y-12990400D01*
X30543995Y-12990400D01*
X30448687Y-13004765D01*
X30332688Y-13060627D01*
X30238307Y-13148200D01*
X30173932Y-13259700D01*
X30145283Y-13385222D01*
X25221878Y-13385222D01*
X25217095Y-13321388D01*
X25170057Y-13201538D01*
X25170056Y-13201537D01*
X25170056Y-13201536D01*
X25089785Y-13100879D01*
X25089784Y-13100878D01*
X25089783Y-13100877D01*
X24983405Y-13028350D01*
X24983404Y-13028349D01*
X24983403Y-13028349D01*
X24860375Y-12990400D01*
X24763995Y-12990400D01*
X24668687Y-13004765D01*
X24552688Y-13060627D01*
X24458307Y-13148200D01*
X24393932Y-13259700D01*
X24365283Y-13385222D01*
X24069200Y-13385222D01*
X24069200Y-13354964D01*
X24053780Y-13227976D01*
X23993225Y-13068305D01*
X23896220Y-12927768D01*
X23768394Y-12814525D01*
X23617190Y-12735166D01*
X23616000Y-12734873D01*
X23115999Y-12734873D01*
X23114809Y-12735166D01*
X22963605Y-12814525D01*
X22835779Y-12927768D01*
X22738774Y-13068305D01*
X22678219Y-13227976D01*
X22662800Y-13354964D01*
X22662800Y-13697500D01*
X21300474Y-13697500D01*
X21300474Y-12639999D01*
X49125418Y-12639999D01*
X49143278Y-12787079D01*
X49195815Y-12925610D01*
X49279980Y-13047544D01*
X49390875Y-13145788D01*
X49390876Y-13145788D01*
X49390878Y-13145790D01*
X49522067Y-13214643D01*
X49665920Y-13250100D01*
X49814079Y-13250100D01*
X49814080Y-13250100D01*
X49957933Y-13214643D01*
X50089122Y-13145790D01*
X50200020Y-13047543D01*
X50284184Y-12925610D01*
X50336722Y-12787079D01*
X50354581Y-12640000D01*
X50336722Y-12492921D01*
X50331822Y-12480000D01*
X55675418Y-12480000D01*
X55693278Y-12627079D01*
X55745815Y-12765610D01*
X55829980Y-12887544D01*
X55940875Y-12985788D01*
X55940876Y-12985788D01*
X55940878Y-12985790D01*
X56072067Y-13054643D01*
X56215920Y-13090100D01*
X56364079Y-13090100D01*
X56364080Y-13090100D01*
X56507933Y-13054643D01*
X56639122Y-12985790D01*
X56750020Y-12887543D01*
X56834184Y-12765610D01*
X56886722Y-12627079D01*
X56904581Y-12480000D01*
X56886722Y-12332921D01*
X56848620Y-12232455D01*
X56834184Y-12194389D01*
X56750019Y-12072455D01*
X56639124Y-11974211D01*
X56531152Y-11917543D01*
X56507933Y-11905357D01*
X56507932Y-11905356D01*
X56507931Y-11905356D01*
X56411133Y-11881497D01*
X56364080Y-11869900D01*
X56215920Y-11869900D01*
X56180464Y-11878639D01*
X56072068Y-11905356D01*
X55940875Y-11974211D01*
X55829980Y-12072455D01*
X55745815Y-12194389D01*
X55693278Y-12332920D01*
X55675418Y-12480000D01*
X50331822Y-12480000D01*
X50284184Y-12354390D01*
X50284184Y-12354389D01*
X50200019Y-12232455D01*
X50089124Y-12134211D01*
X49957931Y-12065356D01*
X49861133Y-12041497D01*
X49814080Y-12029900D01*
X49665920Y-12029900D01*
X49630464Y-12038639D01*
X49522068Y-12065356D01*
X49390875Y-12134211D01*
X49279980Y-12232455D01*
X49195815Y-12354389D01*
X49143278Y-12492920D01*
X49125418Y-12639999D01*
X21300474Y-12639999D01*
X21300474Y-11330000D01*
X37065418Y-11330000D01*
X37083278Y-11477079D01*
X37135815Y-11615610D01*
X37219980Y-11737544D01*
X37330875Y-11835788D01*
X37330876Y-11835788D01*
X37330878Y-11835790D01*
X37462067Y-11904643D01*
X37605920Y-11940100D01*
X37754079Y-11940100D01*
X37754080Y-11940100D01*
X37897933Y-11904643D01*
X38029122Y-11835790D01*
X38140020Y-11737543D01*
X38224184Y-11615610D01*
X38224184Y-11615608D01*
X38229852Y-11607398D01*
X38274276Y-11568041D01*
X38331902Y-11553837D01*
X38389528Y-11568040D01*
X38433952Y-11607397D01*
X38509980Y-11717544D01*
X38620875Y-11815788D01*
X38620876Y-11815788D01*
X38620878Y-11815790D01*
X38752067Y-11884643D01*
X38895920Y-11920100D01*
X39044079Y-11920100D01*
X39044080Y-11920100D01*
X39187933Y-11884643D01*
X39319122Y-11815790D01*
X39430020Y-11717543D01*
X39514184Y-11595610D01*
X39522834Y-11572799D01*
X39562302Y-11519161D01*
X39623828Y-11493675D01*
X39689667Y-11503695D01*
X39740826Y-11546331D01*
X39789980Y-11617544D01*
X39900875Y-11715788D01*
X39900876Y-11715788D01*
X39900878Y-11715790D01*
X40032067Y-11784643D01*
X40175920Y-11820100D01*
X40324079Y-11820100D01*
X40324080Y-11820100D01*
X40467933Y-11784643D01*
X40599122Y-11715790D01*
X40710020Y-11617543D01*
X40794184Y-11495610D01*
X40794185Y-11495607D01*
X40799605Y-11487755D01*
X40849401Y-11445743D01*
X40913622Y-11434774D01*
X40974540Y-11457877D01*
X41015337Y-11508674D01*
X41024751Y-11573141D01*
X41015418Y-11649999D01*
X41033278Y-11797079D01*
X41085815Y-11935610D01*
X41169980Y-12057544D01*
X41280875Y-12155788D01*
X41280876Y-12155788D01*
X41280878Y-12155790D01*
X41412067Y-12224643D01*
X41555920Y-12260100D01*
X41704079Y-12260100D01*
X41704080Y-12260100D01*
X41847933Y-12224643D01*
X41979122Y-12155790D01*
X42090020Y-12057543D01*
X42174184Y-11935610D01*
X42226722Y-11797079D01*
X42244581Y-11650000D01*
X42226722Y-11502921D01*
X42191481Y-11409999D01*
X42635418Y-11409999D01*
X42653278Y-11557079D01*
X42705815Y-11695610D01*
X42789980Y-11817544D01*
X42900875Y-11915788D01*
X42900876Y-11915788D01*
X42900878Y-11915790D01*
X43032067Y-11984643D01*
X43175920Y-12020100D01*
X43324079Y-12020100D01*
X43324080Y-12020100D01*
X43467933Y-11984643D01*
X43599122Y-11915790D01*
X43710020Y-11817543D01*
X43745695Y-11765857D01*
X43790116Y-11726504D01*
X43847742Y-11712300D01*
X43905368Y-11726503D01*
X43949793Y-11765860D01*
X44019980Y-11867544D01*
X44130875Y-11965788D01*
X44130876Y-11965788D01*
X44130878Y-11965790D01*
X44262067Y-12034643D01*
X44405920Y-12070100D01*
X44554079Y-12070100D01*
X44554080Y-12070100D01*
X44697933Y-12034643D01*
X44829122Y-11965790D01*
X44928732Y-11877543D01*
X44940019Y-11867544D01*
X44953824Y-11847545D01*
X45024184Y-11745610D01*
X45076722Y-11607079D01*
X45094581Y-11460000D01*
X45076722Y-11312921D01*
X45031212Y-11192920D01*
X45024184Y-11174389D01*
X44940019Y-11052455D01*
X44829124Y-10954211D01*
X44802045Y-10939999D01*
X48275418Y-10939999D01*
X48293278Y-11087079D01*
X48345815Y-11225610D01*
X48429980Y-11347544D01*
X48540875Y-11445788D01*
X48540876Y-11445788D01*
X48540878Y-11445790D01*
X48672067Y-11514643D01*
X48815920Y-11550100D01*
X48964079Y-11550100D01*
X48964080Y-11550100D01*
X49107933Y-11514643D01*
X49116781Y-11509999D01*
X57805418Y-11509999D01*
X57823278Y-11657079D01*
X57875815Y-11795610D01*
X57959980Y-11917544D01*
X58070875Y-12015788D01*
X58070876Y-12015788D01*
X58070878Y-12015790D01*
X58202067Y-12084643D01*
X58345920Y-12120100D01*
X58494079Y-12120100D01*
X58494080Y-12120100D01*
X58637933Y-12084643D01*
X58769122Y-12015790D01*
X58880020Y-11917543D01*
X58960208Y-11801370D01*
X59004630Y-11762016D01*
X59062256Y-11747812D01*
X59119882Y-11762016D01*
X59164304Y-11801371D01*
X59209980Y-11867543D01*
X59209981Y-11867544D01*
X59320875Y-11965788D01*
X59320876Y-11965788D01*
X59320878Y-11965790D01*
X59452067Y-12034643D01*
X59595920Y-12070100D01*
X59744079Y-12070100D01*
X59744080Y-12070100D01*
X59887933Y-12034643D01*
X60019122Y-11965790D01*
X60118732Y-11877543D01*
X60130019Y-11867544D01*
X60143823Y-11847545D01*
X60214184Y-11745610D01*
X60241644Y-11673203D01*
X60275356Y-11624363D01*
X60327907Y-11596781D01*
X60387258Y-11596780D01*
X60439810Y-11624361D01*
X60473525Y-11673204D01*
X60485814Y-11705608D01*
X60569980Y-11827544D01*
X60680875Y-11925788D01*
X60680876Y-11925788D01*
X60680878Y-11925790D01*
X60812067Y-11994643D01*
X60955920Y-12030100D01*
X61104079Y-12030100D01*
X61104080Y-12030100D01*
X61247933Y-11994643D01*
X61379122Y-11925790D01*
X61490020Y-11827543D01*
X61490021Y-11827540D01*
X61500768Y-11818020D01*
X61563104Y-11788441D01*
X61631599Y-11796757D01*
X61685044Y-11840392D01*
X61689980Y-11847543D01*
X61689981Y-11847544D01*
X61689982Y-11847545D01*
X61800875Y-11945788D01*
X61800876Y-11945788D01*
X61800878Y-11945790D01*
X61932067Y-12014643D01*
X62075920Y-12050100D01*
X62224079Y-12050100D01*
X62224080Y-12050100D01*
X62367933Y-12014643D01*
X62499122Y-11945790D01*
X62610020Y-11847543D01*
X62647597Y-11793103D01*
X62692020Y-11753748D01*
X62749646Y-11739544D01*
X62807272Y-11753747D01*
X62851696Y-11793104D01*
X62909980Y-11877544D01*
X63020875Y-11975788D01*
X63020876Y-11975788D01*
X63020878Y-11975790D01*
X63152067Y-12044643D01*
X63295920Y-12080100D01*
X63444079Y-12080100D01*
X63444080Y-12080100D01*
X63587933Y-12044643D01*
X63719122Y-11975790D01*
X63830020Y-11877543D01*
X63914184Y-11755610D01*
X63966722Y-11617079D01*
X63984581Y-11470000D01*
X63968796Y-11340000D01*
X64895418Y-11340000D01*
X64913278Y-11487079D01*
X64965815Y-11625610D01*
X65049980Y-11747544D01*
X65160875Y-11845788D01*
X65160876Y-11845788D01*
X65160878Y-11845790D01*
X65292067Y-11914643D01*
X65435920Y-11950100D01*
X65584079Y-11950100D01*
X65584080Y-11950100D01*
X65727933Y-11914643D01*
X65859122Y-11845790D01*
X65970020Y-11747543D01*
X66054184Y-11625610D01*
X66106722Y-11487079D01*
X66124581Y-11340000D01*
X66106722Y-11192921D01*
X66062136Y-11075357D01*
X66054184Y-11054389D01*
X65970019Y-10932455D01*
X65859124Y-10834211D01*
X65780450Y-10792920D01*
X65727933Y-10765357D01*
X65727932Y-10765356D01*
X65727931Y-10765356D01*
X65631133Y-10741497D01*
X65584080Y-10729900D01*
X65435920Y-10729900D01*
X65400464Y-10738639D01*
X65292068Y-10765356D01*
X65160875Y-10834211D01*
X65049980Y-10932455D01*
X64965815Y-11054389D01*
X64913278Y-11192920D01*
X64895418Y-11340000D01*
X63968796Y-11340000D01*
X63966722Y-11322921D01*
X63923132Y-11207983D01*
X63914184Y-11184389D01*
X63830019Y-11062455D01*
X63719124Y-10964211D01*
X63587931Y-10895356D01*
X63485057Y-10870000D01*
X63444080Y-10859900D01*
X63295920Y-10859900D01*
X63260464Y-10868639D01*
X63152068Y-10895356D01*
X63020875Y-10964211D01*
X62909979Y-11062457D01*
X62872402Y-11116896D01*
X62827978Y-11156252D01*
X62770352Y-11170455D01*
X62712727Y-11156251D01*
X62668303Y-11116895D01*
X62658336Y-11102455D01*
X62610020Y-11032457D01*
X62610018Y-11032455D01*
X62499124Y-10934211D01*
X62406038Y-10885356D01*
X62367933Y-10865357D01*
X62367932Y-10865356D01*
X62367931Y-10865356D01*
X62271133Y-10841497D01*
X62224080Y-10829900D01*
X62075920Y-10829900D01*
X62040463Y-10838639D01*
X61932068Y-10865356D01*
X61800877Y-10934210D01*
X61679230Y-11041980D01*
X61616893Y-11071558D01*
X61548399Y-11063241D01*
X61494953Y-11019604D01*
X61493210Y-11017079D01*
X61490020Y-11012457D01*
X61480711Y-11004210D01*
X61379124Y-10914211D01*
X61313527Y-10879783D01*
X61247933Y-10845357D01*
X61247932Y-10845356D01*
X61247931Y-10845356D01*
X61151133Y-10821497D01*
X61104080Y-10809900D01*
X60955920Y-10809900D01*
X60920464Y-10818639D01*
X60812068Y-10845356D01*
X60680875Y-10914211D01*
X60569980Y-11012455D01*
X60485815Y-11134389D01*
X60458357Y-11206793D01*
X60424642Y-11255637D01*
X60372090Y-11283219D01*
X60312740Y-11283219D01*
X60260188Y-11255637D01*
X60226473Y-11206793D01*
X60214184Y-11174389D01*
X60130019Y-11052455D01*
X60019124Y-10954211D01*
X59940086Y-10912729D01*
X59887933Y-10885357D01*
X59887932Y-10885356D01*
X59887931Y-10885356D01*
X59784651Y-10859900D01*
X59744080Y-10849900D01*
X59595920Y-10849900D01*
X59560464Y-10858639D01*
X59452068Y-10885356D01*
X59320875Y-10954211D01*
X59209980Y-11052455D01*
X59129793Y-11168627D01*
X59085368Y-11207984D01*
X59027742Y-11222187D01*
X58970117Y-11207983D01*
X58925693Y-11168626D01*
X58880020Y-11102457D01*
X58769124Y-11004211D01*
X58660500Y-10947201D01*
X58637933Y-10935357D01*
X58637932Y-10935356D01*
X58637931Y-10935356D01*
X58511566Y-10904210D01*
X58494080Y-10899900D01*
X58345920Y-10899900D01*
X58328434Y-10904210D01*
X58202068Y-10935356D01*
X58070875Y-11004211D01*
X57959980Y-11102455D01*
X57875815Y-11224389D01*
X57823278Y-11362920D01*
X57805418Y-11509999D01*
X49116781Y-11509999D01*
X49239122Y-11445790D01*
X49350020Y-11347543D01*
X49434184Y-11225610D01*
X49486722Y-11087079D01*
X49501154Y-10968221D01*
X49522199Y-10912732D01*
X49526676Y-10908764D01*
X49518177Y-10901234D01*
X49713322Y-10901234D01*
X49726298Y-10912729D01*
X49747345Y-10968222D01*
X49753278Y-11017079D01*
X49805815Y-11155610D01*
X49889980Y-11277544D01*
X50000875Y-11375788D01*
X50000876Y-11375788D01*
X50000878Y-11375790D01*
X50132067Y-11444643D01*
X50275920Y-11480100D01*
X50424079Y-11480100D01*
X50424080Y-11480100D01*
X50567933Y-11444643D01*
X50699122Y-11375790D01*
X50810020Y-11277543D01*
X50894184Y-11155610D01*
X50946722Y-11017079D01*
X50964581Y-10870000D01*
X50954867Y-10789999D01*
X51435418Y-10789999D01*
X51453278Y-10937079D01*
X51505815Y-11075610D01*
X51589980Y-11197544D01*
X51700875Y-11295788D01*
X51700876Y-11295788D01*
X51700878Y-11295790D01*
X51832067Y-11364643D01*
X51975920Y-11400100D01*
X52124079Y-11400100D01*
X52124080Y-11400100D01*
X52267933Y-11364643D01*
X52399122Y-11295790D01*
X52510020Y-11197543D01*
X52594184Y-11075610D01*
X52646722Y-10937079D01*
X52664581Y-10790000D01*
X52646722Y-10642921D01*
X52606639Y-10537231D01*
X52594184Y-10504389D01*
X52510019Y-10382455D01*
X52399124Y-10284211D01*
X52267931Y-10215356D01*
X52163608Y-10189643D01*
X52124080Y-10179900D01*
X51975920Y-10179900D01*
X51940463Y-10188639D01*
X51832068Y-10215356D01*
X51700875Y-10284211D01*
X51589980Y-10382455D01*
X51505815Y-10504389D01*
X51453278Y-10642920D01*
X51435418Y-10789999D01*
X50954867Y-10789999D01*
X50946722Y-10722921D01*
X50894184Y-10584390D01*
X50894184Y-10584389D01*
X50810019Y-10462455D01*
X50699124Y-10364211D01*
X50567931Y-10295356D01*
X50471133Y-10271497D01*
X50424080Y-10259900D01*
X50275920Y-10259900D01*
X50240463Y-10268639D01*
X50132068Y-10295356D01*
X50000875Y-10364211D01*
X49889980Y-10462455D01*
X49805815Y-10584389D01*
X49753278Y-10722920D01*
X49738846Y-10841775D01*
X49717800Y-10897268D01*
X49713322Y-10901234D01*
X49518177Y-10901234D01*
X49513700Y-10897268D01*
X49492654Y-10841775D01*
X49491875Y-10835357D01*
X49486722Y-10792921D01*
X49434184Y-10654390D01*
X49434184Y-10654389D01*
X49350019Y-10532455D01*
X49239124Y-10434211D01*
X49107931Y-10365356D01*
X49011133Y-10341497D01*
X48964080Y-10329900D01*
X48815920Y-10329900D01*
X48780464Y-10338639D01*
X48672068Y-10365356D01*
X48540875Y-10434211D01*
X48429980Y-10532455D01*
X48345815Y-10654389D01*
X48293278Y-10792920D01*
X48275418Y-10939999D01*
X44802045Y-10939999D01*
X44750086Y-10912729D01*
X44697933Y-10885357D01*
X44697932Y-10885356D01*
X44697931Y-10885356D01*
X44594651Y-10859900D01*
X44554080Y-10849900D01*
X44405920Y-10849900D01*
X44370464Y-10858639D01*
X44262068Y-10885356D01*
X44130875Y-10954211D01*
X44019982Y-11052454D01*
X43984306Y-11104140D01*
X43939881Y-11143496D01*
X43882256Y-11157699D01*
X43824630Y-11143495D01*
X43780206Y-11104139D01*
X43710019Y-11002455D01*
X43599124Y-10904211D01*
X43486985Y-10845356D01*
X43467933Y-10835357D01*
X43467932Y-10835356D01*
X43467931Y-10835356D01*
X43341566Y-10804210D01*
X43324080Y-10799900D01*
X43175920Y-10799900D01*
X43158434Y-10804210D01*
X43032068Y-10835356D01*
X42900875Y-10904211D01*
X42789980Y-11002455D01*
X42705815Y-11124389D01*
X42653278Y-11262920D01*
X42635418Y-11409999D01*
X42191481Y-11409999D01*
X42187727Y-11400100D01*
X42174184Y-11364389D01*
X42090019Y-11242455D01*
X41979124Y-11144211D01*
X41899564Y-11102455D01*
X41847933Y-11075357D01*
X41847932Y-11075356D01*
X41847931Y-11075356D01*
X41722292Y-11044389D01*
X41704080Y-11039900D01*
X41555920Y-11039900D01*
X41537708Y-11044389D01*
X41412068Y-11075356D01*
X41280875Y-11144211D01*
X41169980Y-11242455D01*
X41080394Y-11372244D01*
X41030597Y-11414257D01*
X40966376Y-11425225D01*
X40905458Y-11402122D01*
X40864661Y-11351324D01*
X40855248Y-11286858D01*
X40864581Y-11210000D01*
X40846722Y-11062921D01*
X40812873Y-10973668D01*
X40794184Y-10924389D01*
X40710019Y-10802455D01*
X40599124Y-10704211D01*
X40533527Y-10669783D01*
X40467933Y-10635357D01*
X40467932Y-10635356D01*
X40467931Y-10635356D01*
X40371133Y-10611497D01*
X40324080Y-10599900D01*
X40175920Y-10599900D01*
X40140463Y-10608639D01*
X40032068Y-10635356D01*
X39900875Y-10704211D01*
X39789980Y-10802455D01*
X39705814Y-10924391D01*
X39697164Y-10947201D01*
X39657695Y-11000840D01*
X39596169Y-11026324D01*
X39530331Y-11016303D01*
X39479173Y-10973668D01*
X39475414Y-10968222D01*
X39430020Y-10902457D01*
X39388142Y-10865356D01*
X39319124Y-10804211D01*
X39187931Y-10735356D01*
X39061566Y-10704210D01*
X39044080Y-10699900D01*
X38895920Y-10699900D01*
X38878434Y-10704210D01*
X38752068Y-10735356D01*
X38620875Y-10804211D01*
X38509980Y-10902455D01*
X38420147Y-11032602D01*
X38375722Y-11071959D01*
X38318097Y-11086162D01*
X38260471Y-11071958D01*
X38216047Y-11032602D01*
X38210379Y-11024390D01*
X38140020Y-10922457D01*
X38129043Y-10912732D01*
X38029124Y-10824211D01*
X37897931Y-10755356D01*
X37794379Y-10729833D01*
X37754080Y-10719900D01*
X37605920Y-10719900D01*
X37570464Y-10728639D01*
X37462068Y-10755356D01*
X37330875Y-10824211D01*
X37219980Y-10922455D01*
X37135815Y-11044389D01*
X37083278Y-11182920D01*
X37065418Y-11330000D01*
X21300474Y-11330000D01*
X21300474Y-10017500D01*
X22662800Y-10017500D01*
X22662800Y-10110036D01*
X22678219Y-10237023D01*
X22738774Y-10396694D01*
X22835779Y-10537231D01*
X22963605Y-10650474D01*
X23114809Y-10729833D01*
X23116000Y-10730126D01*
X23116000Y-10017500D01*
X23616000Y-10017500D01*
X23616000Y-10730126D01*
X23617190Y-10729833D01*
X23768394Y-10650474D01*
X23896220Y-10537231D01*
X23993225Y-10396694D01*
X24053780Y-10237023D01*
X24069200Y-10110036D01*
X24069200Y-10017500D01*
X31302800Y-10017500D01*
X31302800Y-10110036D01*
X31318219Y-10237023D01*
X31378774Y-10396694D01*
X31475779Y-10537231D01*
X31603605Y-10650474D01*
X31754809Y-10729833D01*
X31756000Y-10730126D01*
X31756000Y-10017500D01*
X32256000Y-10017500D01*
X32256000Y-10730126D01*
X32257190Y-10729833D01*
X32408394Y-10650474D01*
X32536220Y-10537231D01*
X32633225Y-10396694D01*
X32693780Y-10237023D01*
X32709200Y-10110036D01*
X32709200Y-10017500D01*
X32256000Y-10017500D01*
X31756000Y-10017500D01*
X31302800Y-10017500D01*
X24069200Y-10017500D01*
X23616000Y-10017500D01*
X23116000Y-10017500D01*
X22662800Y-10017500D01*
X21300474Y-10017500D01*
X21300474Y-9614999D01*
X54260418Y-9614999D01*
X54278278Y-9762079D01*
X54330815Y-9900610D01*
X54414980Y-10022544D01*
X54525875Y-10120788D01*
X54525876Y-10120788D01*
X54525878Y-10120790D01*
X54657067Y-10189643D01*
X54800920Y-10225100D01*
X54949079Y-10225100D01*
X54949080Y-10225100D01*
X55092933Y-10189643D01*
X55224122Y-10120790D01*
X55335020Y-10022543D01*
X55419184Y-9900610D01*
X55471722Y-9762079D01*
X55489581Y-9615000D01*
X55471722Y-9467921D01*
X55419184Y-9329390D01*
X55419184Y-9329389D01*
X55335019Y-9207455D01*
X55224124Y-9109211D01*
X55092931Y-9040356D01*
X54996133Y-9016497D01*
X54949080Y-9004900D01*
X54800920Y-9004900D01*
X54765463Y-9013639D01*
X54657068Y-9040356D01*
X54525875Y-9109211D01*
X54414980Y-9207455D01*
X54330815Y-9329389D01*
X54278278Y-9467920D01*
X54260418Y-9614999D01*
X21300474Y-9614999D01*
X21300474Y-9517500D01*
X22662800Y-9517500D01*
X23116000Y-9517500D01*
X23116000Y-8804874D01*
X23115999Y-8804873D01*
X23616000Y-8804873D01*
X23616000Y-9517500D01*
X24069200Y-9517500D01*
X31302800Y-9517500D01*
X31756000Y-9517500D01*
X31756000Y-8804874D01*
X31755999Y-8804873D01*
X32256000Y-8804873D01*
X32256000Y-9517500D01*
X32709200Y-9517500D01*
X32709200Y-9424964D01*
X32693780Y-9297976D01*
X32633225Y-9138305D01*
X32536220Y-8997768D01*
X32408394Y-8884525D01*
X32283739Y-8819100D01*
X51275418Y-8819100D01*
X51293278Y-8966179D01*
X51345815Y-9104710D01*
X51429980Y-9226644D01*
X51540875Y-9324888D01*
X51540876Y-9324888D01*
X51540878Y-9324890D01*
X51672067Y-9393743D01*
X51815920Y-9429200D01*
X51964079Y-9429200D01*
X51964080Y-9429200D01*
X52107933Y-9393743D01*
X52239122Y-9324890D01*
X52350020Y-9226643D01*
X52434184Y-9104710D01*
X52486722Y-8966179D01*
X52504581Y-8819100D01*
X52486722Y-8672021D01*
X52434184Y-8533490D01*
X52434184Y-8533489D01*
X52350019Y-8411555D01*
X52239124Y-8313311D01*
X52107931Y-8244456D01*
X52011133Y-8220597D01*
X51964080Y-8209000D01*
X51815920Y-8209000D01*
X51780463Y-8217739D01*
X51672068Y-8244456D01*
X51540875Y-8313311D01*
X51429980Y-8411555D01*
X51345815Y-8533489D01*
X51293278Y-8672020D01*
X51275418Y-8819100D01*
X32283739Y-8819100D01*
X32257190Y-8805166D01*
X32256000Y-8804873D01*
X31755999Y-8804873D01*
X31754809Y-8805166D01*
X31603605Y-8884525D01*
X31475779Y-8997768D01*
X31378774Y-9138305D01*
X31318219Y-9297976D01*
X31302800Y-9424964D01*
X31302800Y-9517500D01*
X24069200Y-9517500D01*
X24069200Y-9424964D01*
X24053780Y-9297976D01*
X23993225Y-9138305D01*
X23896220Y-8997768D01*
X23768394Y-8884525D01*
X23617190Y-8805166D01*
X23616000Y-8804873D01*
X23115999Y-8804873D01*
X23114809Y-8805166D01*
X22963605Y-8884525D01*
X22835779Y-8997768D01*
X22738774Y-9138305D01*
X22678219Y-9297976D01*
X22662800Y-9424964D01*
X22662800Y-9517500D01*
X21300474Y-9517500D01*
X21300474Y-8796060D01*
X21300872Y-8786132D01*
X21311261Y-8656794D01*
X21317699Y-8576643D01*
X21320766Y-8557466D01*
X21369002Y-8357819D01*
X21375026Y-8339361D01*
X21453873Y-8149690D01*
X21462706Y-8132407D01*
X21570218Y-7957396D01*
X21581654Y-7941691D01*
X21626668Y-7889086D01*
X21715187Y-7785639D01*
X21728930Y-7771919D01*
X21885218Y-7638642D01*
X21900937Y-7627238D01*
X22076130Y-7520024D01*
X22093435Y-7511218D01*
X22283228Y-7432698D01*
X22301700Y-7426703D01*
X22501423Y-7378808D01*
X22520609Y-7375772D01*
X22730314Y-7359286D01*
X22740030Y-7358906D01*
X68583965Y-7358917D01*
G37*
G04 #@! TD.AperFunction*
G04 #@! TD*
M02*
