M48
; DRILL file {KiCad 7.0.1-0} date 2023 April 12, Wednesday 10:26:12
; FORMAT={-:-/ absolute / inch / decimal}
; #@! TF.CreationDate,2023-04-12T10:26:12+08:00
; #@! TF.GenerationSoftware,Kicad,Pcbnew,7.0.1-0
; #@! TF.FileFunction,Plated,1,4,PTH
FMAT,2
INCH
; #@! TA.AperFunction,Plated,PTH,ViaDrill
T1C0.0100
; #@! TA.AperFunction,Plated,PTH,ViaDrill
T2C0.0150
; #@! TA.AperFunction,Plated,PTH,ComponentDrill
T3C0.0236
%
G90
G05
T1
X0.862Y-0.8295
X0.862Y-0.9102
X0.8632Y-1.0102
X0.8632Y-1.0894
X0.8632Y-1.189
X0.8632Y-1.2709
X0.866Y-1.3488
X0.866Y-1.4299
X0.9077Y-0.8283
X0.9077Y-0.8709
X0.9077Y-0.9114
X0.9077Y-0.9606
X0.9077Y-1.0106
X0.9077Y-1.05
X0.9077Y-1.0902
X0.9077Y-1.1402
X0.9077Y-1.1898
X0.9077Y-1.2283
X0.9077Y-1.2697
X0.9077Y-1.3087
X0.9077Y-1.35
X0.9077Y-1.3898
X0.9077Y-1.4291
X0.9345Y-0.7185
X0.9509Y-1.0882
X0.9521Y-1.0495
X0.9523Y-0.8291
X0.9523Y-0.8732
X0.9523Y-0.9106
X0.9523Y-1.0091
X0.9523Y-1.1878
X0.9523Y-1.2319
X0.9523Y-1.2701
X0.9523Y-1.3091
X0.9523Y-1.3484
X0.9523Y-1.4283
X0.9828Y-1.1421
X0.9828Y-1.2535
X0.9828Y-1.324
X0.9899Y-0.91
X0.9969Y-1.0685
X0.9972Y-1.0374
X0.9977Y-1.4213
X1.0Y-1.0987
X1.0071Y-0.7138
X1.0335Y-1.0672
X1.0579Y-0.6594
X1.065Y-1.0987
X1.0653Y-0.9409
X1.07Y-0.77
X1.078Y-0.5142
X1.079Y-1.5029
X1.0843Y-0.6594
X1.0961Y-1.0039
X1.0963Y-1.2561
X1.0965Y-0.9728
X1.0968Y-0.8465
X1.097Y-1.1617
X1.0976Y-0.7772
X1.102Y-1.502
X1.1053Y-1.6726
X1.1226Y-0.7778
X1.1244Y-1.6551
X1.1273Y-1.2881
X1.128Y-1.0042
X1.128Y-1.0984
X1.1283Y-1.3185
X1.1441Y-1.3689
X1.1531Y-0.7624
X1.1585Y-1.286
X1.1585Y-0.9718
X1.1587Y-1.0973
X1.1589Y-1.0663
X1.1596Y-1.2243
X1.1598Y-1.1299
X1.1607Y-1.0023
X1.161Y-0.8114
X1.1773Y-0.7197
X1.1798Y-0.4953
X1.185Y-0.8008
X1.1864Y-1.4837
X1.1903Y-1.1296
X1.1906Y-0.941
X1.191Y-1.1926
X1.1914Y-1.1606
X1.1926Y-1.0377
X1.2181Y-1.3583
X1.2213Y-0.9716
X1.2223Y-1.4209
X1.2224Y-1.1926
X1.2224Y-1.3186
X1.2231Y-0.9419
X1.2529Y-0.9081
X1.2536Y-0.878
X1.2539Y-1.1932
X1.2549Y-1.2258
X1.2734Y-0.8122
X1.2791Y-0.7218
X1.2846Y-1.1311
X1.2853Y-1.1613
X1.2854Y-1.0335
X1.2872Y-1.4837
X1.3071Y-1.1504
X1.3146Y-0.9752
X1.3146Y-1.0504
X1.3149Y-0.9437
X1.3154Y-1.6567
X1.3165Y-1.1922
X1.3165Y-1.2252
X1.3166Y-0.9094
X1.3169Y-1.2562
X1.3177Y-1.0059
X1.339Y-1.0555
X1.34Y-0.66
X1.3423Y-1.8368
X1.3471Y-1.1282
X1.3476Y-1.0965
X1.3482Y-1.2565
X1.3484Y-1.2241
X1.3486Y-1.3187
X1.3488Y-1.1929
X1.3496Y-1.0055
X1.3522Y-0.9437
X1.3559Y-0.8098
X1.3638Y-1.374
X1.3732Y-0.6488
X1.3764Y-1.7217
X1.3787Y-1.1945
X1.3792Y-0.8786
X1.3802Y-0.9724
X1.3802Y-0.9094
X1.3802Y-1.2874
X1.398Y-0.7941
X1.4081Y-1.4091
X1.4106Y-1.0346
X1.4106Y-1.2233
X1.4114Y-0.9098
X1.4114Y-1.0987
X1.4114Y-1.0036
X1.4117Y-1.1614
X1.412Y-1.2549
X1.4126Y-1.1311
X1.4126Y-1.2866
X1.4429Y-0.8783
X1.4429Y-1.0981
X1.4429Y-1.1302
X1.4429Y-1.2247
X1.4453Y-1.7248
X1.4457Y-1.365
X1.4654Y-0.5559
X1.4733Y-1.2229
X1.4737Y-1.035
X1.4744Y-0.9728
X1.4744Y-1.1932
X1.4744Y-1.2562
X1.4744Y-1.1611
X1.4747Y-1.0984
X1.4747Y-1.0039
X1.4811Y-1.3654
X1.4835Y-0.4461
X1.4838Y-1.8228
X1.5057Y-1.0979
X1.5059Y-1.0354
X1.5062Y-1.2244
X1.5063Y-1.0039
X1.5094Y-1.722
X1.5157Y-1.3669
X1.5343Y-0.4453
X1.5382Y-1.0665
X1.5461Y-1.2644
X1.5514Y-1.6535
X1.5618Y-1.8409
X1.5634Y-1.0429
X1.5657Y-1.4854
X1.5677Y-1.1866
X1.5846Y-0.4413
X1.5972Y-1.3705
X1.6059Y-1.6839
X1.6252Y-1.3681
X1.6268Y-0.9398
X1.639Y-0.4587
X1.6392Y-0.3638
X1.6472Y-0.8933
X1.6555Y-1.1055
X1.6559Y-1.1402
X1.6575Y-1.0815
X1.68Y-1.3692
X1.7028Y-0.4492
X1.7512Y-0.4512
X1.7575Y-1.8362
X1.7713Y-1.1472
X1.7717Y-1.1181
X1.772Y-1.5209
X1.8008Y-0.4539
X1.8055Y-1.5051
X1.813Y-1.0126
X1.813Y-1.5906
X1.8165Y-0.588
X1.8346Y-1.3597
X1.8469Y-1.7051
X1.851Y-0.9821
X1.9118Y-0.6346
X1.9126Y-0.9209
X1.9197Y-0.4976
X1.9248Y-0.4307
X1.9287Y-0.8193
X1.9394Y-1.8366
X1.9533Y-1.1681
X1.9583Y-0.4976
X1.9618Y-1.3669
X1.9776Y-0.8571
X1.9823Y-0.428
X1.9852Y-0.6506
X1.9972Y-1.2644
X2.0307Y-0.8799
X2.0429Y-0.3472
X2.0492Y-0.4248
X2.0638Y-0.9713
X2.0896Y-0.6535
X2.0902Y-0.9476
X2.1Y-1.5114
X2.1Y-1.58
X2.1004Y-1.1799
X2.1071Y-0.8913
X2.1142Y-1.2024
X2.1327Y-0.9102
X2.1579Y-0.8413
X2.1583Y-0.4934
X2.1604Y-0.3785
X2.1835Y-1.2579
X2.1882Y-0.9299
X2.2161Y-0.4913
X2.2287Y-1.2205
X2.2323Y-1.2535
X2.2406Y-1.3591
X2.2514Y-0.4624
X2.2559Y-0.6748
X2.2697Y-0.6402
X2.2772Y-1.5102
X2.2835Y-0.7
X2.3Y-0.4531
X2.3028Y-0.6512
X2.3087Y-1.265
X2.3264Y-1.724
X2.3264Y-1.7807
X2.3307Y-1.6563
X2.3343Y-1.2421
X2.3422Y-1.3589
X2.3492Y-0.4512
X2.4016Y-0.7177
X2.4028Y-0.4496
X2.4094Y-0.4063
X2.411Y-0.9795
X2.4122Y-0.6874
X2.4165Y-1.8465
X2.4209Y-0.6496
X2.4232Y-1.3024
X2.4437Y-1.576
X2.4469Y-0.4504
X2.4524Y-1.3591
X2.4543Y-1.1657
X2.4551Y-0.9835
X2.4606Y-1.4295
X2.4685Y-1.5146
X2.481Y-1.1027
X2.4874Y-1.1303
X2.4949Y-0.4516
X2.4949Y-1.4433
X2.5217Y-0.3681
X2.5228Y-1.4618
X2.5374Y-0.6539
X2.5398Y-1.0933
X2.5547Y-1.2531
X2.5555Y-1.4169
X2.5567Y-1.498
X2.5583Y-1.4591
X2.5677Y-0.8705
X2.5677Y-0.9402
X2.5791Y-0.4465
X2.5814Y-1.76
X2.6087Y-0.6465
X2.6154Y-1.8535
X2.6291Y-0.4472
X2.6343Y-0.3165
X2.6457Y-1.7575
X2.6476Y-1.122
X2.6662Y-1.0805
X2.6768Y-0.535
X2.6819Y-0.9386
X2.6835Y-0.7406
X2.6853Y-0.8476
X2.69Y-1.66
X2.7079Y-1.0484
X2.71Y-1.75
X2.7227Y-1.3566
X2.7252Y-1.3794
X2.73Y-1.25
X2.7321Y-1.0075
X2.7417Y-1.4535
X2.7417Y-1.5906
X2.7453Y-1.7323
T2
X0.98Y-0.67
X0.98Y-1.5
X1.19Y-0.66
X1.19Y-1.51
X2.0441Y-1.8055
X2.0464Y-1.6645
X2.0838Y-1.71
X2.226Y-1.8028
X2.2283Y-1.6621
X2.2677Y-1.8228
T3
G00X0.9199Y-0.3964
M15
G01X0.9199Y-0.3727
M16
G05
G00X0.9199Y-0.5708
M15
G01X0.9199Y-0.5275
M16
G05
G00X0.9199Y-1.5882
M15
G01X0.9199Y-1.6315
M16
G05
G00X0.9199Y-1.7626
M15
G01X0.9199Y-1.7862
M16
G05
G00X1.2601Y-0.3964
M15
G01X1.2601Y-0.3727
M16
G05
G00X1.2601Y-0.5708
M15
G01X1.2601Y-0.5275
M16
G05
G00X1.2601Y-1.5882
M15
G01X1.2601Y-1.6315
M16
G05
G00X1.2601Y-1.7626
M15
G01X1.2601Y-1.7862
M16
G05
T0
M30
