M48
; DRILL file {KiCad (6.0.11-0)} date 
; FORMAT={-:-/ absolute / metric / decimal}
; #@! TF.CreationDate,2023-02-20T23:18:07+08:00
; #@! TF.GenerationSoftware,Kicad,Pcbnew,(6.0.11-0)
; #@! TF.FileFunction,Plated,1,2,PTH
FMAT,2
METRIC
; #@! TA.AperFunction,Plated,PTH,ViaDrill
T1C0.254
; #@! TA.AperFunction,Plated,PTH,ComponentDrill
T2C0.600
%
G90
G05
T1
X10.82Y-6.121
X10.82Y-13.741
X13.462Y-7.112
X13.665Y-12.954
X15.215Y-10.439
X15.723Y-8.433
X15.773Y-13.208
X16.84Y-9.322
X17.805Y-7.01
X18.313Y-9.855
X19.025Y-11.024
X19.101Y-4.75
X20.142Y-15.316
X20.574Y-6.756
X21.031Y-7.849
X22.555Y-13.97
X22.631Y-3.861
X24.291Y-4.403
X25.519Y-4.31
X25.603Y-14.376
X26.492Y-15.316
X26.611Y-6.815
X27.508Y-15.799
X27.584Y-14.478
X28.245Y-4.775
X28.981Y-6.96
X29.176Y-4.665
X29.769Y-6.883
X30.302Y-7.772
X30.861Y-11.709
X31.322Y-7.163
X31.44Y-8.377
X31.775Y-10.871
X31.979Y-12.192
X32.334Y-7.391
X32.918Y-8.052
X33.655Y-10.744
X33.662Y-12.871
X33.749Y-8.654
X35.382Y-6.426
X36.22Y-15.596
X36.271Y-5.69
X38.786Y-7.95
X42.545Y-8.128
X45.771Y-9.906
T2
G00X41.126Y-5.561
M15
G01X42.226Y-5.561
M16
G05
G00X41.126Y-14.201
M15
G01X42.226Y-14.201
M16
G05
G00X45.556Y-5.561
M15
G01X46.156Y-5.561
M16
G05
G00X45.556Y-14.201
M15
G01X46.156Y-14.201
M16
G05
T0
M30
