G04 #@! TF.GenerationSoftware,KiCad,Pcbnew,(6.0.11-0)*
G04 #@! TF.CreationDate,2023-02-20T23:18:05+08:00*
G04 #@! TF.ProjectId,ublaster_jtag,75626c61-7374-4657-925f-6a7461672e6b,rev?*
G04 #@! TF.SameCoordinates,Original*
G04 #@! TF.FileFunction,Copper,L2,Bot*
G04 #@! TF.FilePolarity,Positive*
%FSLAX46Y46*%
G04 Gerber Fmt 4.6, Leading zero omitted, Abs format (unit mm)*
G04 Created by KiCad (PCBNEW (6.0.11-0)) date 2023-02-20 23:18:05*
%MOMM*%
%LPD*%
G01*
G04 APERTURE LIST*
G04 Aperture macros list*
%AMRoundRect*
0 Rectangle with rounded corners*
0 $1 Rounding radius*
0 $2 $3 $4 $5 $6 $7 $8 $9 X,Y pos of 4 corners*
0 Add a 4 corners polygon primitive as box body*
4,1,4,$2,$3,$4,$5,$6,$7,$8,$9,$2,$3,0*
0 Add four circle primitives for the rounded corners*
1,1,$1+$1,$2,$3*
1,1,$1+$1,$4,$5*
1,1,$1+$1,$6,$7*
1,1,$1+$1,$8,$9*
0 Add four rect primitives between the rounded corners*
20,1,$1+$1,$2,$3,$4,$5,0*
20,1,$1+$1,$4,$5,$6,$7,0*
20,1,$1+$1,$6,$7,$8,$9,0*
20,1,$1+$1,$8,$9,$2,$3,0*%
G04 Aperture macros list end*
G04 #@! TA.AperFunction,ComponentPad*
%ADD10O,2.100000X1.000000*%
G04 #@! TD*
G04 #@! TA.AperFunction,ComponentPad*
%ADD11O,1.600000X1.000000*%
G04 #@! TD*
G04 #@! TA.AperFunction,SMDPad,CuDef*
%ADD12RoundRect,0.425000X1.075000X0.425000X-1.075000X0.425000X-1.075000X-0.425000X1.075000X-0.425000X0*%
G04 #@! TD*
G04 #@! TA.AperFunction,SMDPad,CuDef*
%ADD13RoundRect,0.425000X0.425000X-1.075000X0.425000X1.075000X-0.425000X1.075000X-0.425000X-1.075000X0*%
G04 #@! TD*
G04 #@! TA.AperFunction,ViaPad*
%ADD14C,0.457200*%
G04 #@! TD*
G04 #@! TA.AperFunction,Conductor*
%ADD15C,0.304800*%
G04 #@! TD*
G04 #@! TA.AperFunction,Conductor*
%ADD16C,0.152400*%
G04 #@! TD*
G04 APERTURE END LIST*
D10*
G04 #@! TO.P,J4,S1,SHIELD*
G04 #@! TO.N,GND*
X41675600Y-14200600D03*
D11*
X45855600Y-14200600D03*
D10*
X41675600Y-5560600D03*
D11*
X45855600Y-5560600D03*
G04 #@! TD*
D12*
G04 #@! TO.P,J6,1,Pin_1*
G04 #@! TO.N,GND*
X10896600Y-4856400D03*
G04 #@! TO.P,J6,2,Pin_2*
G04 #@! TO.N,/UB_ASNCS*
X10896600Y-7396400D03*
G04 #@! TO.P,J6,3,Pin_3*
G04 #@! TO.N,/UB_ASNCE*
X10896600Y-9936400D03*
G04 #@! TO.P,J6,4,Pin_4*
G04 #@! TO.N,/UB_3v3*
X10896600Y-12476400D03*
G04 #@! TO.P,J6,5,Pin_5*
G04 #@! TO.N,GND*
X10896600Y-15016400D03*
G04 #@! TD*
D13*
G04 #@! TO.P,J7,1,Pin_1*
G04 #@! TO.N,/UB_3v3*
X37531200Y-14427200D03*
G04 #@! TO.P,J7,2,Pin_2*
G04 #@! TO.N,GND*
X34991200Y-14427200D03*
G04 #@! TO.P,J7,3,Pin_3*
G04 #@! TO.N,/SWDIO*
X32451200Y-14427200D03*
G04 #@! TO.P,J7,4,Pin_4*
G04 #@! TO.N,/SWCLK*
X29911200Y-14427200D03*
G04 #@! TD*
D14*
G04 #@! TO.N,GND*
X38785800Y-7950200D03*
X27584400Y-14478000D03*
X45770800Y-9906000D03*
X33655000Y-10744200D03*
X22555200Y-13970000D03*
X10820400Y-6121400D03*
X10820400Y-13741400D03*
X13665200Y-12954000D03*
X15773400Y-13208000D03*
X17805400Y-7010400D03*
X13462000Y-7112000D03*
X21030700Y-7848600D03*
X27508200Y-15798800D03*
G04 #@! TO.N,/UB_3v3*
X26492200Y-15316200D03*
G04 #@! TO.N,GND*
X33749336Y-8654136D03*
X31775400Y-10871200D03*
X25603200Y-14376400D03*
G04 #@! TO.N,/UB_VBUS*
X42545000Y-8128000D03*
G04 #@! TO.N,/UB_3v3*
X20574000Y-6756400D03*
G04 #@! TO.N,/UB_VBUS*
X24290750Y-4402550D03*
G04 #@! TO.N,GND*
X25518650Y-4309650D03*
X22631400Y-3860800D03*
G04 #@! TO.N,/UB_3v3*
X20142200Y-15316200D03*
G04 #@! TO.N,GND*
X19100800Y-4749800D03*
G04 #@! TO.N,/JTAG_TDI*
X19024600Y-11023600D03*
G04 #@! TO.N,/UB_ASDO*
X15214600Y-10439400D03*
G04 #@! TO.N,/JTAG_TMS*
X18313400Y-9855200D03*
G04 #@! TO.N,/JTAG_TDO*
X16840200Y-9321800D03*
G04 #@! TO.N,/JTAG_TCK*
X15722600Y-8432800D03*
G04 #@! TO.N,/UB_ASNCE*
X32918400Y-8051800D03*
G04 #@! TO.N,/UB_ASNCS*
X32334200Y-7391400D03*
G04 #@! TO.N,/JTAG_TDI*
X31439764Y-8376564D03*
G04 #@! TO.N,/UB_ASDO*
X31321681Y-7162835D03*
G04 #@! TO.N,/JTAG_TMS*
X30302200Y-7772400D03*
G04 #@! TO.N,/JTAG_TDO*
X29768800Y-6883400D03*
G04 #@! TO.N,/JTAG_TCK*
X28981400Y-6959600D03*
G04 #@! TO.N,GND*
X36271200Y-5689600D03*
G04 #@! TO.N,/UB_3v3*
X35382200Y-6426200D03*
G04 #@! TO.N,GND*
X29176250Y-4665250D03*
G04 #@! TO.N,/UB_3v3*
X28244800Y-4775200D03*
X26611450Y-6814950D03*
G04 #@! TO.N,GND*
X33662264Y-12870536D03*
X36220400Y-15595600D03*
G04 #@! TO.N,/SWDIO*
X31978600Y-12192000D03*
G04 #@! TO.N,/SWCLK*
X30861000Y-11709400D03*
G04 #@! TD*
D15*
G04 #@! TO.N,/UB_3v3*
X20142200Y-15316200D02*
X25417742Y-15316200D01*
X26136600Y-13512800D02*
X30124400Y-9525000D01*
X25417742Y-15316200D02*
X26136600Y-14597342D01*
X30124400Y-9525000D02*
X33632814Y-9525000D01*
X35331400Y-7826414D02*
X35331400Y-6426200D01*
X26136600Y-14597342D02*
X26136600Y-13512800D01*
X33632814Y-9525000D02*
X35331400Y-7826414D01*
D16*
G04 #@! TO.N,/UB_ASNCE*
X32918400Y-8051800D02*
X31826200Y-9144000D01*
X31826200Y-9144000D02*
X29383312Y-9144000D01*
X29383312Y-9144000D02*
X27910112Y-10617200D01*
X27910112Y-10617200D02*
X20508631Y-10617200D01*
X20508631Y-10617200D02*
X19340231Y-11785600D01*
X19340231Y-11785600D02*
X12745800Y-11785600D01*
X12745800Y-11785600D02*
X10896600Y-9936400D01*
G04 #@! TO.N,/UB_ASNCS*
X32334200Y-7391400D02*
X32334200Y-8128707D01*
X32334200Y-8128707D02*
X31623707Y-8839200D01*
X31623707Y-8839200D02*
X29257060Y-8839200D01*
X29257060Y-8839200D02*
X27783860Y-10312400D01*
X27783860Y-10312400D02*
X20382379Y-10312400D01*
X20382379Y-10312400D02*
X19213979Y-11480800D01*
X19213979Y-11480800D02*
X14981000Y-11480800D01*
X14981000Y-11480800D02*
X10896600Y-7396400D01*
G04 #@! TO.N,/JTAG_TDI*
X31439764Y-8376564D02*
X31281928Y-8534400D01*
X31281928Y-8534400D02*
X29130808Y-8534400D01*
X29130808Y-8534400D02*
X27657608Y-10007600D01*
X27657608Y-10007600D02*
X20040600Y-10007600D01*
X20040600Y-10007600D02*
X19024600Y-11023600D01*
G04 #@! TO.N,/UB_ASDO*
X15214600Y-10439400D02*
X18375779Y-10439400D01*
X18375779Y-10439400D02*
X19112379Y-9702800D01*
X19112379Y-9702800D02*
X27531356Y-9702800D01*
X27531356Y-9702800D02*
X29004556Y-8229600D01*
X29004556Y-8229600D02*
X30491579Y-8229600D01*
X30491579Y-8229600D02*
X31321681Y-7399498D01*
X31321681Y-7399498D02*
X31321681Y-7162835D01*
G04 #@! TO.N,/JTAG_TMS*
X30302200Y-7772400D02*
X29030704Y-7772400D01*
X29030704Y-7772400D02*
X27405104Y-9398000D01*
X27405104Y-9398000D02*
X18770600Y-9398000D01*
X18770600Y-9398000D02*
X18313400Y-9855200D01*
G04 #@! TO.N,/JTAG_TDO*
X29768800Y-6883400D02*
X29235400Y-7416800D01*
X29235400Y-7416800D02*
X28955252Y-7416800D01*
X28955252Y-7416800D02*
X27278852Y-9093200D01*
X27278852Y-9093200D02*
X17068800Y-9093200D01*
X17068800Y-9093200D02*
X16840200Y-9321800D01*
G04 #@! TO.N,/JTAG_TCK*
X15722600Y-8432800D02*
X16078200Y-8788400D01*
X16078200Y-8788400D02*
X27152600Y-8788400D01*
X27152600Y-8788400D02*
X28981400Y-6959600D01*
D15*
G04 #@! TO.N,/UB_VBUS*
X42545000Y-8128000D02*
X43561000Y-7112000D01*
X42799000Y-3962400D02*
X27838400Y-3962400D01*
X27838400Y-3962400D02*
X26543000Y-5257800D01*
X43561000Y-7112000D02*
X43561000Y-4724400D01*
X43561000Y-4724400D02*
X42799000Y-3962400D01*
X26543000Y-5257800D02*
X25146000Y-5257800D01*
X25146000Y-5257800D02*
X24290750Y-4402550D01*
G04 #@! TO.N,/UB_3v3*
X35382200Y-6426200D02*
X37531200Y-8575200D01*
X37531200Y-8575200D02*
X37531200Y-14427200D01*
X26611450Y-6814950D02*
X26611450Y-6408550D01*
X26611450Y-6408550D02*
X28244800Y-4775200D01*
X20574000Y-6756400D02*
X26552900Y-6756400D01*
D16*
X26552900Y-6756400D02*
X26611450Y-6814950D01*
D15*
X11536600Y-12476400D02*
X14376400Y-15316200D01*
D16*
X10896600Y-12476400D02*
X11536600Y-12476400D01*
D15*
X14376400Y-15316200D02*
X20142200Y-15316200D01*
D16*
X35331400Y-6426200D02*
X35382200Y-6426200D01*
G04 #@! TO.N,/SWDIO*
X31978600Y-12192000D02*
X32451200Y-12664600D01*
X32451200Y-12664600D02*
X32451200Y-14427200D01*
G04 #@! TO.N,GND*
X35052000Y-14427200D02*
X34991200Y-14427200D01*
X36220400Y-15595600D02*
X35052000Y-14427200D01*
G04 #@! TO.N,/SWCLK*
X29911200Y-12659200D02*
X30861000Y-11709400D01*
X29911200Y-14427200D02*
X29911200Y-12659200D01*
G04 #@! TD*
G04 #@! TA.AperFunction,Conductor*
G04 #@! TO.N,/UB_3v3*
G36*
X20249075Y-15113752D02*
G01*
X20273870Y-15125040D01*
X20292343Y-15132207D01*
X20303709Y-15136617D01*
X20303715Y-15136619D01*
X20303890Y-15136687D01*
X20304065Y-15136742D01*
X20304072Y-15136744D01*
X20332698Y-15145669D01*
X20332897Y-15145731D01*
X20333111Y-15145781D01*
X20361668Y-15152452D01*
X20361682Y-15152455D01*
X20361880Y-15152501D01*
X20380189Y-15155450D01*
X20391669Y-15157299D01*
X20391672Y-15157299D01*
X20391831Y-15157325D01*
X20391979Y-15157340D01*
X20391995Y-15157342D01*
X20409419Y-15159094D01*
X20423742Y-15160534D01*
X20423882Y-15160542D01*
X20423898Y-15160543D01*
X20441507Y-15161514D01*
X20458603Y-15162457D01*
X20467686Y-15162683D01*
X20497347Y-15163421D01*
X20497405Y-15163422D01*
X20497445Y-15163422D01*
X20497474Y-15163423D01*
X20541140Y-15163760D01*
X20541214Y-15163760D01*
X20579110Y-15163791D01*
X20587380Y-15167225D01*
X20590800Y-15175491D01*
X20590800Y-15456909D01*
X20587373Y-15465182D01*
X20579109Y-15468609D01*
X20541140Y-15468639D01*
X20497474Y-15468976D01*
X20497445Y-15468977D01*
X20497405Y-15468977D01*
X20497347Y-15468978D01*
X20467686Y-15469716D01*
X20458603Y-15469942D01*
X20441507Y-15470885D01*
X20423898Y-15471856D01*
X20423882Y-15471857D01*
X20423742Y-15471865D01*
X20409419Y-15473305D01*
X20391995Y-15475057D01*
X20391979Y-15475059D01*
X20391831Y-15475074D01*
X20391672Y-15475100D01*
X20391669Y-15475100D01*
X20380189Y-15476949D01*
X20361880Y-15479898D01*
X20361682Y-15479944D01*
X20361668Y-15479947D01*
X20333111Y-15486618D01*
X20332897Y-15486668D01*
X20332699Y-15486730D01*
X20332698Y-15486730D01*
X20304072Y-15495655D01*
X20304065Y-15495657D01*
X20303890Y-15495712D01*
X20303715Y-15495780D01*
X20303709Y-15495782D01*
X20292343Y-15500192D01*
X20273870Y-15507359D01*
X20253940Y-15516433D01*
X20249075Y-15518648D01*
X20240126Y-15518958D01*
X20236117Y-15516433D01*
X20226682Y-15507359D01*
X20027900Y-15316200D01*
X20142200Y-15206283D01*
X20236118Y-15115967D01*
X20244456Y-15112702D01*
X20249075Y-15113752D01*
G37*
G04 #@! TD.AperFunction*
G04 #@! TD*
G04 #@! TA.AperFunction,Conductor*
G04 #@! TO.N,/UB_3v3*
G36*
X35414160Y-6325273D02*
G01*
X35426463Y-6345849D01*
X35426465Y-6345851D01*
X35426860Y-6346511D01*
X35560246Y-6569578D01*
X35541321Y-6594719D01*
X35525771Y-6619154D01*
X35513272Y-6643597D01*
X35503497Y-6668760D01*
X35496121Y-6695357D01*
X35490816Y-6724100D01*
X35487257Y-6755702D01*
X35487248Y-6755857D01*
X35485125Y-6790771D01*
X35485124Y-6790795D01*
X35485119Y-6790878D01*
X35485117Y-6790970D01*
X35484075Y-6830339D01*
X35483872Y-6863172D01*
X35480394Y-6871424D01*
X35472172Y-6874800D01*
X35190760Y-6874800D01*
X35182487Y-6871373D01*
X35179060Y-6863040D01*
X35179285Y-6818939D01*
X35179286Y-6818846D01*
X35179926Y-6770035D01*
X35179926Y-6770005D01*
X35180603Y-6726740D01*
X35180992Y-6687942D01*
X35180993Y-6687887D01*
X35180924Y-6676489D01*
X35180788Y-6654287D01*
X35180775Y-6652189D01*
X35180484Y-6643597D01*
X35179632Y-6618530D01*
X35179632Y-6618523D01*
X35179627Y-6618387D01*
X35177229Y-6585224D01*
X35173259Y-6551444D01*
X35167395Y-6515788D01*
X35160946Y-6484820D01*
X35162614Y-6476022D01*
X35166008Y-6472636D01*
X35300180Y-6385111D01*
X35302130Y-6383839D01*
X35397727Y-6321478D01*
X35406527Y-6319828D01*
X35414160Y-6325273D01*
G37*
G04 #@! TD.AperFunction*
G04 #@! TD*
G04 #@! TA.AperFunction,Conductor*
G04 #@! TO.N,/UB_ASNCE*
G36*
X32995396Y-7974481D02*
G01*
X32998984Y-7983143D01*
X32993584Y-8259354D01*
X32989996Y-8267558D01*
X32985428Y-8270276D01*
X32951443Y-8281064D01*
X32950924Y-8281215D01*
X32913606Y-8291143D01*
X32913347Y-8291208D01*
X32879309Y-8299273D01*
X32847668Y-8306878D01*
X32839592Y-8309172D01*
X32817779Y-8315368D01*
X32817767Y-8315372D01*
X32817559Y-8315431D01*
X32787986Y-8326376D01*
X32775600Y-8332469D01*
X32758243Y-8341007D01*
X32758238Y-8341010D01*
X32757949Y-8341152D01*
X32757685Y-8341320D01*
X32757678Y-8341324D01*
X32726691Y-8361049D01*
X32726451Y-8361202D01*
X32692491Y-8387967D01*
X32663336Y-8415178D01*
X32654952Y-8418317D01*
X32647082Y-8414897D01*
X32555304Y-8323119D01*
X32551877Y-8314846D01*
X32555023Y-8306863D01*
X32582074Y-8277877D01*
X32582232Y-8277708D01*
X32608997Y-8243748D01*
X32609150Y-8243508D01*
X32628875Y-8212521D01*
X32628879Y-8212514D01*
X32629047Y-8212250D01*
X32643823Y-8182213D01*
X32654768Y-8152640D01*
X32654827Y-8152432D01*
X32654831Y-8152420D01*
X32663289Y-8122643D01*
X32663321Y-8122531D01*
X32670926Y-8090890D01*
X32678991Y-8056852D01*
X32679062Y-8056568D01*
X32688982Y-8019282D01*
X32689137Y-8018750D01*
X32699923Y-7984774D01*
X32705693Y-7977925D01*
X32710846Y-7976616D01*
X32789524Y-7975078D01*
X32987057Y-7971216D01*
X32995396Y-7974481D01*
G37*
G04 #@! TD.AperFunction*
G04 #@! TD*
G04 #@! TA.AperFunction,Conductor*
G04 #@! TO.N,/UB_ASNCE*
G36*
X11000126Y-9643779D02*
G01*
X11690897Y-9657282D01*
X11699100Y-9660870D01*
X11701911Y-9665745D01*
X11750461Y-9834476D01*
X11750739Y-9835676D01*
X11778785Y-9994444D01*
X11778914Y-9995408D01*
X11792246Y-10140454D01*
X11792280Y-10140936D01*
X11798865Y-10276098D01*
X11806692Y-10404816D01*
X11823784Y-10530547D01*
X11858176Y-10656989D01*
X11917901Y-10787835D01*
X11918162Y-10788225D01*
X11918164Y-10788228D01*
X11947522Y-10832046D01*
X12010995Y-10926783D01*
X12011269Y-10927090D01*
X12011272Y-10927094D01*
X12138133Y-11069281D01*
X12141084Y-11077735D01*
X12137676Y-11085343D01*
X12045543Y-11177476D01*
X12037270Y-11180903D01*
X12029481Y-11177933D01*
X11887294Y-11051072D01*
X11887290Y-11051069D01*
X11886983Y-11050795D01*
X11748035Y-10957701D01*
X11617189Y-10897976D01*
X11559933Y-10882403D01*
X11491116Y-10863684D01*
X11491111Y-10863683D01*
X11490747Y-10863584D01*
X11365016Y-10846492D01*
X11364792Y-10846478D01*
X11364788Y-10846478D01*
X11301983Y-10842659D01*
X11236298Y-10838665D01*
X11101136Y-10832080D01*
X11100673Y-10832047D01*
X10955602Y-10818713D01*
X10954650Y-10818586D01*
X10795877Y-10790539D01*
X10794676Y-10790261D01*
X10770244Y-10783231D01*
X10625944Y-10741710D01*
X10618942Y-10736130D01*
X10617482Y-10730696D01*
X10616033Y-10656532D01*
X10603099Y-9994921D01*
X10596318Y-9648045D01*
X10599583Y-9639706D01*
X10608245Y-9636118D01*
X11000126Y-9643779D01*
G37*
G04 #@! TD.AperFunction*
G04 #@! TD*
G04 #@! TA.AperFunction,Conductor*
G04 #@! TO.N,/UB_ASNCS*
G36*
X32342633Y-7285869D02*
G01*
X32534127Y-7484999D01*
X32537392Y-7493338D01*
X32536083Y-7498489D01*
X32521621Y-7526401D01*
X32519688Y-7530132D01*
X32519422Y-7530617D01*
X32500066Y-7564005D01*
X32499902Y-7564279D01*
X32481550Y-7594031D01*
X32464553Y-7621782D01*
X32464493Y-7621889D01*
X32464491Y-7621893D01*
X32449422Y-7648920D01*
X32449417Y-7648930D01*
X32449311Y-7649120D01*
X32436138Y-7677771D01*
X32425348Y-7709459D01*
X32417252Y-7745909D01*
X32417219Y-7746189D01*
X32417218Y-7746194D01*
X32412193Y-7788615D01*
X32412165Y-7788848D01*
X32412157Y-7789084D01*
X32410790Y-7828703D01*
X32407080Y-7836853D01*
X32399097Y-7840000D01*
X32269303Y-7840000D01*
X32261030Y-7836573D01*
X32257610Y-7828704D01*
X32256242Y-7789085D01*
X32256242Y-7789084D01*
X32256234Y-7788848D01*
X32251147Y-7745909D01*
X32243051Y-7709459D01*
X32232261Y-7677771D01*
X32219088Y-7649120D01*
X32218982Y-7648930D01*
X32218977Y-7648920D01*
X32203908Y-7621893D01*
X32203906Y-7621889D01*
X32203846Y-7621782D01*
X32186849Y-7594031D01*
X32168497Y-7564279D01*
X32168333Y-7564005D01*
X32148986Y-7530634D01*
X32148719Y-7530148D01*
X32132318Y-7498490D01*
X32131555Y-7489568D01*
X32134274Y-7484998D01*
X32325767Y-7285869D01*
X32333971Y-7282281D01*
X32342633Y-7285869D01*
G37*
G04 #@! TD.AperFunction*
G04 #@! TD*
G04 #@! TA.AperFunction,Conductor*
G04 #@! TO.N,/UB_ASNCS*
G36*
X11000126Y-7103779D02*
G01*
X11690897Y-7117282D01*
X11699100Y-7120870D01*
X11701911Y-7125745D01*
X11750461Y-7294476D01*
X11750739Y-7295676D01*
X11778785Y-7454444D01*
X11778914Y-7455408D01*
X11792246Y-7600454D01*
X11792280Y-7600936D01*
X11798865Y-7736098D01*
X11806692Y-7864816D01*
X11823784Y-7990547D01*
X11858176Y-8116989D01*
X11917901Y-8247835D01*
X11918162Y-8248225D01*
X11918164Y-8248228D01*
X11947522Y-8292046D01*
X12010995Y-8386783D01*
X12011269Y-8387090D01*
X12011272Y-8387094D01*
X12138133Y-8529281D01*
X12141084Y-8537735D01*
X12137676Y-8545343D01*
X12045543Y-8637476D01*
X12037270Y-8640903D01*
X12029481Y-8637933D01*
X11887294Y-8511072D01*
X11887290Y-8511069D01*
X11886983Y-8510795D01*
X11748035Y-8417701D01*
X11617189Y-8357976D01*
X11559933Y-8342403D01*
X11491116Y-8323684D01*
X11491111Y-8323683D01*
X11490747Y-8323584D01*
X11365016Y-8306492D01*
X11364792Y-8306478D01*
X11364788Y-8306478D01*
X11301983Y-8302659D01*
X11236298Y-8298665D01*
X11101136Y-8292080D01*
X11100673Y-8292047D01*
X10955602Y-8278713D01*
X10954650Y-8278586D01*
X10795877Y-8250539D01*
X10794676Y-8250261D01*
X10770244Y-8243231D01*
X10625944Y-8201710D01*
X10618942Y-8196130D01*
X10617482Y-8190696D01*
X10616033Y-8116532D01*
X10603099Y-7454921D01*
X10596318Y-7108045D01*
X10599583Y-7099706D01*
X10608245Y-7096118D01*
X11000126Y-7103779D01*
G37*
G04 #@! TD.AperFunction*
G04 #@! TD*
G04 #@! TA.AperFunction,Conductor*
G04 #@! TO.N,/JTAG_TDI*
G36*
X31361815Y-8296463D02*
G01*
X31507907Y-8298092D01*
X31516141Y-8301611D01*
X31519475Y-8309921D01*
X31519068Y-8312854D01*
X31442099Y-8596556D01*
X31436625Y-8603644D01*
X31430845Y-8605193D01*
X31421448Y-8605224D01*
X31393070Y-8605316D01*
X31352860Y-8605729D01*
X31317291Y-8606338D01*
X31284518Y-8607077D01*
X31252696Y-8607882D01*
X31252687Y-8607882D01*
X31220011Y-8608685D01*
X31219968Y-8608686D01*
X31203906Y-8609021D01*
X31184598Y-8609424D01*
X31184533Y-8609398D01*
X31184533Y-8609425D01*
X31144558Y-8610033D01*
X31144484Y-8610034D01*
X31137080Y-8610100D01*
X31055028Y-8610100D01*
X31046755Y-8606673D01*
X31043328Y-8598400D01*
X31043328Y-8469249D01*
X31046755Y-8460976D01*
X31054358Y-8457568D01*
X31076821Y-8456280D01*
X31076828Y-8456279D01*
X31077231Y-8456256D01*
X31105849Y-8450565D01*
X31119109Y-8445466D01*
X31129339Y-8441533D01*
X31129341Y-8441532D01*
X31129861Y-8441332D01*
X31149950Y-8428766D01*
X31166796Y-8413072D01*
X31181081Y-8394459D01*
X31193485Y-8373133D01*
X31204690Y-8349302D01*
X31215378Y-8323172D01*
X31223310Y-8302542D01*
X31229478Y-8296050D01*
X31234361Y-8295042D01*
X31361815Y-8296463D01*
G37*
G04 #@! TD.AperFunction*
G04 #@! TD*
G04 #@! TA.AperFunction,Conductor*
G04 #@! TO.N,/JTAG_TDI*
G36*
X19295919Y-10660504D02*
G01*
X19387697Y-10752282D01*
X19391124Y-10760555D01*
X19387978Y-10768536D01*
X19360767Y-10797691D01*
X19334002Y-10831651D01*
X19333851Y-10831888D01*
X19333849Y-10831891D01*
X19314124Y-10862878D01*
X19314120Y-10862885D01*
X19313952Y-10863149D01*
X19299176Y-10893186D01*
X19288231Y-10922759D01*
X19288172Y-10922967D01*
X19288168Y-10922979D01*
X19281972Y-10944792D01*
X19279678Y-10952868D01*
X19279649Y-10952989D01*
X19272073Y-10984509D01*
X19272066Y-10984540D01*
X19272057Y-10984577D01*
X19264015Y-11018520D01*
X19263937Y-11018831D01*
X19254017Y-11056117D01*
X19253862Y-11056649D01*
X19243077Y-11090626D01*
X19237307Y-11097474D01*
X19232154Y-11098784D01*
X19153476Y-11100322D01*
X18955943Y-11104184D01*
X18947604Y-11100919D01*
X18944016Y-11092257D01*
X18949416Y-10816046D01*
X18953004Y-10807842D01*
X18957573Y-10805123D01*
X18991557Y-10794335D01*
X18992075Y-10794184D01*
X19029393Y-10784256D01*
X19029652Y-10784191D01*
X19063690Y-10776126D01*
X19095331Y-10768521D01*
X19103407Y-10766227D01*
X19125220Y-10760031D01*
X19125232Y-10760027D01*
X19125440Y-10759968D01*
X19155013Y-10749023D01*
X19167399Y-10742930D01*
X19184756Y-10734392D01*
X19184761Y-10734389D01*
X19185050Y-10734247D01*
X19185314Y-10734079D01*
X19185321Y-10734075D01*
X19216308Y-10714350D01*
X19216311Y-10714348D01*
X19216548Y-10714197D01*
X19250508Y-10687432D01*
X19262361Y-10676370D01*
X19279663Y-10660223D01*
X19288050Y-10657084D01*
X19295919Y-10660504D01*
G37*
G04 #@! TD.AperFunction*
G04 #@! TD*
G04 #@! TA.AperFunction,Conductor*
G04 #@! TO.N,/UB_ASDO*
G36*
X15321690Y-10237518D02*
G01*
X15353348Y-10253919D01*
X15353834Y-10254186D01*
X15387205Y-10273533D01*
X15387479Y-10273697D01*
X15417231Y-10292049D01*
X15444982Y-10309046D01*
X15445089Y-10309106D01*
X15445093Y-10309108D01*
X15472120Y-10324177D01*
X15472130Y-10324182D01*
X15472320Y-10324288D01*
X15472521Y-10324380D01*
X15472530Y-10324385D01*
X15492527Y-10333579D01*
X15500971Y-10337461D01*
X15521891Y-10344584D01*
X15532353Y-10348147D01*
X15532356Y-10348148D01*
X15532659Y-10348251D01*
X15569109Y-10356347D01*
X15569389Y-10356380D01*
X15569394Y-10356381D01*
X15585222Y-10358256D01*
X15612048Y-10361434D01*
X15651904Y-10362810D01*
X15660054Y-10366520D01*
X15663200Y-10374503D01*
X15663200Y-10504297D01*
X15659773Y-10512570D01*
X15651903Y-10515990D01*
X15612048Y-10517365D01*
X15611825Y-10517391D01*
X15611817Y-10517392D01*
X15569394Y-10522418D01*
X15569389Y-10522419D01*
X15569109Y-10522452D01*
X15532659Y-10530548D01*
X15532356Y-10530651D01*
X15532353Y-10530652D01*
X15521891Y-10534215D01*
X15500971Y-10541338D01*
X15500693Y-10541466D01*
X15472530Y-10554414D01*
X15472521Y-10554419D01*
X15472320Y-10554511D01*
X15472130Y-10554617D01*
X15472120Y-10554622D01*
X15445093Y-10569691D01*
X15444982Y-10569753D01*
X15444863Y-10569826D01*
X15417231Y-10586750D01*
X15417203Y-10586767D01*
X15387479Y-10605102D01*
X15387205Y-10605266D01*
X15353817Y-10624622D01*
X15353332Y-10624888D01*
X15321690Y-10641282D01*
X15312769Y-10642046D01*
X15308199Y-10639327D01*
X15253543Y-10586767D01*
X15109069Y-10447833D01*
X15105481Y-10439629D01*
X15109069Y-10430967D01*
X15179539Y-10363200D01*
X15308198Y-10239474D01*
X15316537Y-10236209D01*
X15321690Y-10237518D01*
G37*
G04 #@! TD.AperFunction*
G04 #@! TD*
G04 #@! TA.AperFunction,Conductor*
G04 #@! TO.N,/UB_ASDO*
G36*
X31327509Y-7059354D02*
G01*
X31329494Y-7061873D01*
X31478800Y-7316755D01*
X31480025Y-7325626D01*
X31477053Y-7330866D01*
X31451234Y-7357160D01*
X31451162Y-7357234D01*
X31424063Y-7385939D01*
X31400579Y-7411787D01*
X31400527Y-7411846D01*
X31379244Y-7436000D01*
X31379188Y-7436064D01*
X31358740Y-7459630D01*
X31358725Y-7459647D01*
X31337666Y-7483822D01*
X31337586Y-7483914D01*
X31314473Y-7509895D01*
X31314349Y-7510032D01*
X31287850Y-7538889D01*
X31287770Y-7538974D01*
X31256349Y-7572000D01*
X31226902Y-7601910D01*
X31218656Y-7605401D01*
X31210292Y-7601974D01*
X31118644Y-7510326D01*
X31115217Y-7502053D01*
X31118148Y-7494307D01*
X31132550Y-7478004D01*
X31132839Y-7477677D01*
X31133072Y-7477316D01*
X31133076Y-7477311D01*
X31147975Y-7454247D01*
X31148265Y-7453798D01*
X31157809Y-7430613D01*
X31157921Y-7430024D01*
X31162030Y-7408396D01*
X31162030Y-7408394D01*
X31162139Y-7407821D01*
X31161921Y-7385120D01*
X31157822Y-7362211D01*
X31156267Y-7357234D01*
X31150577Y-7339016D01*
X31150574Y-7339009D01*
X31150507Y-7338793D01*
X31140645Y-7314565D01*
X31128900Y-7289227D01*
X31119495Y-7269815D01*
X31118971Y-7260876D01*
X31121591Y-7256604D01*
X31310966Y-7059677D01*
X31319170Y-7056089D01*
X31327509Y-7059354D01*
G37*
G04 #@! TD.AperFunction*
G04 #@! TD*
G04 #@! TA.AperFunction,Conductor*
G04 #@! TO.N,/JTAG_TMS*
G36*
X30208602Y-7572474D02*
G01*
X30340413Y-7699230D01*
X30407731Y-7763967D01*
X30411319Y-7772171D01*
X30407731Y-7780833D01*
X30244191Y-7938102D01*
X30208602Y-7972326D01*
X30200263Y-7975591D01*
X30195110Y-7974282D01*
X30163451Y-7957880D01*
X30162965Y-7957613D01*
X30129594Y-7938266D01*
X30129320Y-7938102D01*
X30099568Y-7919750D01*
X30071936Y-7902826D01*
X30071817Y-7902753D01*
X30071706Y-7902691D01*
X30044679Y-7887622D01*
X30044669Y-7887617D01*
X30044479Y-7887511D01*
X30044278Y-7887419D01*
X30044269Y-7887414D01*
X30016106Y-7874466D01*
X30015828Y-7874338D01*
X29994908Y-7867215D01*
X29984446Y-7863652D01*
X29984443Y-7863651D01*
X29984140Y-7863548D01*
X29947690Y-7855452D01*
X29947410Y-7855419D01*
X29947405Y-7855418D01*
X29904982Y-7850392D01*
X29904974Y-7850391D01*
X29904751Y-7850365D01*
X29864897Y-7848990D01*
X29856747Y-7845280D01*
X29853600Y-7837297D01*
X29853600Y-7707503D01*
X29857027Y-7699230D01*
X29864896Y-7695810D01*
X29904751Y-7694434D01*
X29931577Y-7691256D01*
X29947405Y-7689381D01*
X29947410Y-7689380D01*
X29947690Y-7689347D01*
X29984140Y-7681251D01*
X29984443Y-7681148D01*
X29984446Y-7681147D01*
X29994908Y-7677584D01*
X30015828Y-7670461D01*
X30024272Y-7666579D01*
X30044269Y-7657385D01*
X30044278Y-7657380D01*
X30044479Y-7657288D01*
X30044669Y-7657182D01*
X30044679Y-7657177D01*
X30071706Y-7642108D01*
X30071710Y-7642106D01*
X30071817Y-7642046D01*
X30099568Y-7625049D01*
X30129320Y-7606697D01*
X30129594Y-7606533D01*
X30162965Y-7587186D01*
X30163451Y-7586919D01*
X30195110Y-7570518D01*
X30204032Y-7569756D01*
X30208602Y-7572474D01*
G37*
G04 #@! TD.AperFunction*
G04 #@! TD*
G04 #@! TA.AperFunction,Conductor*
G04 #@! TO.N,/JTAG_TMS*
G36*
X18584719Y-9492104D02*
G01*
X18676497Y-9583882D01*
X18679924Y-9592155D01*
X18676778Y-9600136D01*
X18649567Y-9629291D01*
X18622802Y-9663251D01*
X18622651Y-9663488D01*
X18622649Y-9663491D01*
X18602924Y-9694478D01*
X18602920Y-9694485D01*
X18602752Y-9694749D01*
X18587976Y-9724786D01*
X18577031Y-9754359D01*
X18576972Y-9754567D01*
X18576968Y-9754579D01*
X18570772Y-9776392D01*
X18568478Y-9784468D01*
X18568449Y-9784589D01*
X18560873Y-9816109D01*
X18560866Y-9816140D01*
X18560857Y-9816177D01*
X18552815Y-9850120D01*
X18552737Y-9850431D01*
X18542817Y-9887717D01*
X18542662Y-9888249D01*
X18531877Y-9922226D01*
X18526107Y-9929074D01*
X18520954Y-9930384D01*
X18442276Y-9931922D01*
X18244743Y-9935784D01*
X18236404Y-9932519D01*
X18232816Y-9923857D01*
X18238216Y-9647646D01*
X18241804Y-9639442D01*
X18246373Y-9636723D01*
X18280357Y-9625935D01*
X18280875Y-9625784D01*
X18318193Y-9615856D01*
X18318452Y-9615791D01*
X18352490Y-9607726D01*
X18384131Y-9600121D01*
X18392207Y-9597827D01*
X18414020Y-9591631D01*
X18414032Y-9591627D01*
X18414240Y-9591568D01*
X18443813Y-9580623D01*
X18456199Y-9574530D01*
X18473556Y-9565992D01*
X18473561Y-9565989D01*
X18473850Y-9565847D01*
X18474114Y-9565679D01*
X18474121Y-9565675D01*
X18505108Y-9545950D01*
X18505111Y-9545948D01*
X18505348Y-9545797D01*
X18539308Y-9519032D01*
X18551161Y-9507970D01*
X18568463Y-9491823D01*
X18576850Y-9488684D01*
X18584719Y-9492104D01*
G37*
G04 #@! TD.AperFunction*
G04 #@! TD*
G04 #@! TA.AperFunction,Conductor*
G04 #@! TO.N,/JTAG_TDO*
G36*
X29845796Y-6806081D02*
G01*
X29849384Y-6814743D01*
X29843984Y-7090954D01*
X29840396Y-7099158D01*
X29835828Y-7101876D01*
X29801843Y-7112664D01*
X29801324Y-7112815D01*
X29764006Y-7122743D01*
X29763747Y-7122808D01*
X29729709Y-7130873D01*
X29698068Y-7138478D01*
X29689992Y-7140772D01*
X29668179Y-7146968D01*
X29668167Y-7146972D01*
X29667959Y-7147031D01*
X29638386Y-7157976D01*
X29626000Y-7164069D01*
X29608643Y-7172607D01*
X29608638Y-7172610D01*
X29608349Y-7172752D01*
X29608085Y-7172920D01*
X29608078Y-7172924D01*
X29577091Y-7192649D01*
X29576851Y-7192802D01*
X29542891Y-7219567D01*
X29513736Y-7246778D01*
X29505352Y-7249917D01*
X29497482Y-7246497D01*
X29405704Y-7154719D01*
X29402277Y-7146446D01*
X29405423Y-7138463D01*
X29432474Y-7109477D01*
X29432632Y-7109308D01*
X29459397Y-7075348D01*
X29459550Y-7075108D01*
X29479275Y-7044121D01*
X29479279Y-7044114D01*
X29479447Y-7043850D01*
X29494223Y-7013813D01*
X29505168Y-6984240D01*
X29505227Y-6984032D01*
X29505231Y-6984020D01*
X29513689Y-6954243D01*
X29513721Y-6954131D01*
X29521326Y-6922490D01*
X29529391Y-6888452D01*
X29529462Y-6888168D01*
X29539382Y-6850882D01*
X29539537Y-6850350D01*
X29550323Y-6816374D01*
X29556093Y-6809525D01*
X29561246Y-6808216D01*
X29639924Y-6806678D01*
X29837457Y-6802816D01*
X29845796Y-6806081D01*
G37*
G04 #@! TD.AperFunction*
G04 #@! TD*
G04 #@! TA.AperFunction,Conductor*
G04 #@! TO.N,/JTAG_TDO*
G36*
X17200683Y-9020927D02*
G01*
X17204110Y-9029200D01*
X17204110Y-9158758D01*
X17200683Y-9167031D01*
X17193517Y-9170406D01*
X17168023Y-9172826D01*
X17140260Y-9182594D01*
X17119474Y-9197935D01*
X17104317Y-9218081D01*
X17093442Y-9242263D01*
X17085502Y-9269712D01*
X17085459Y-9269917D01*
X17085455Y-9269931D01*
X17079149Y-9299661D01*
X17073066Y-9331179D01*
X17073002Y-9331489D01*
X17065901Y-9363591D01*
X17065702Y-9364362D01*
X17058562Y-9388597D01*
X17052937Y-9395564D01*
X17047570Y-9396988D01*
X16774834Y-9402320D01*
X16766495Y-9399055D01*
X16762907Y-9390851D01*
X16763285Y-9387665D01*
X16838030Y-9101509D01*
X16843436Y-9094371D01*
X16848778Y-9092780D01*
X16883464Y-9091081D01*
X16883466Y-9091081D01*
X16883768Y-9091066D01*
X16886515Y-9090637D01*
X16920573Y-9085323D01*
X16920581Y-9085321D01*
X16920878Y-9085275D01*
X16921163Y-9085200D01*
X16921173Y-9085198D01*
X16953137Y-9076797D01*
X16953136Y-9076797D01*
X16953354Y-9076740D01*
X16983019Y-9066377D01*
X17011698Y-9055100D01*
X17040937Y-9043927D01*
X17041479Y-9043736D01*
X17072939Y-9033604D01*
X17073862Y-9033349D01*
X17109504Y-9025050D01*
X17110595Y-9024850D01*
X17152473Y-9019206D01*
X17153548Y-9019111D01*
X17191892Y-9017510D01*
X17192380Y-9017500D01*
X17192410Y-9017500D01*
X17200683Y-9020927D01*
G37*
G04 #@! TD.AperFunction*
G04 #@! TD*
G04 #@! TA.AperFunction,Conductor*
G04 #@! TO.N,/JTAG_TCK*
G36*
X15837470Y-8355804D02*
G01*
X15930154Y-8357616D01*
X15938358Y-8361204D01*
X15941077Y-8365774D01*
X15951862Y-8399750D01*
X15952017Y-8400282D01*
X15961937Y-8437568D01*
X15962008Y-8437852D01*
X15970073Y-8471890D01*
X15977678Y-8503531D01*
X15977710Y-8503643D01*
X15986168Y-8533420D01*
X15986172Y-8533432D01*
X15986231Y-8533640D01*
X15997176Y-8563213D01*
X16011952Y-8593250D01*
X16012120Y-8593514D01*
X16012124Y-8593521D01*
X16031849Y-8624508D01*
X16032002Y-8624748D01*
X16058767Y-8658708D01*
X16058925Y-8658877D01*
X16085977Y-8687863D01*
X16089116Y-8696249D01*
X16085696Y-8704119D01*
X15993919Y-8795896D01*
X15985646Y-8799323D01*
X15977663Y-8796177D01*
X15948677Y-8769125D01*
X15948508Y-8768967D01*
X15914548Y-8742202D01*
X15914308Y-8742049D01*
X15883321Y-8722324D01*
X15883314Y-8722320D01*
X15883050Y-8722152D01*
X15882761Y-8722010D01*
X15882756Y-8722007D01*
X15865399Y-8713469D01*
X15853013Y-8707376D01*
X15823440Y-8696431D01*
X15823232Y-8696372D01*
X15823220Y-8696368D01*
X15801407Y-8690172D01*
X15793331Y-8687878D01*
X15761690Y-8680273D01*
X15727652Y-8672208D01*
X15727393Y-8672143D01*
X15690075Y-8662215D01*
X15689556Y-8662064D01*
X15655573Y-8651276D01*
X15648726Y-8645507D01*
X15647416Y-8640354D01*
X15642016Y-8364143D01*
X15645281Y-8355804D01*
X15653943Y-8352216D01*
X15837470Y-8355804D01*
G37*
G04 #@! TD.AperFunction*
G04 #@! TD*
G04 #@! TA.AperFunction,Conductor*
G04 #@! TO.N,/JTAG_TCK*
G36*
X29058396Y-6882281D02*
G01*
X29061984Y-6890943D01*
X29056584Y-7167154D01*
X29052996Y-7175358D01*
X29048428Y-7178076D01*
X29027051Y-7184862D01*
X29019835Y-7187152D01*
X29016295Y-7187700D01*
X28961557Y-7187700D01*
X28960945Y-7187684D01*
X28919841Y-7185530D01*
X28919839Y-7185530D01*
X28918613Y-7185466D01*
X28890840Y-7196126D01*
X28889087Y-7196645D01*
X28859987Y-7202831D01*
X28858991Y-7203554D01*
X28858990Y-7203555D01*
X28846240Y-7212819D01*
X28843556Y-7214277D01*
X28828836Y-7219927D01*
X28828835Y-7219928D01*
X28827688Y-7220368D01*
X28806653Y-7241403D01*
X28805257Y-7242595D01*
X28781194Y-7260078D01*
X28780579Y-7261143D01*
X28772696Y-7274797D01*
X28770836Y-7277220D01*
X28725993Y-7322062D01*
X28717720Y-7325489D01*
X28709447Y-7322062D01*
X28618304Y-7230919D01*
X28614877Y-7222646D01*
X28618023Y-7214663D01*
X28643201Y-7187684D01*
X28645232Y-7185508D01*
X28671997Y-7151548D01*
X28672150Y-7151308D01*
X28691875Y-7120321D01*
X28691879Y-7120314D01*
X28692047Y-7120050D01*
X28706823Y-7090013D01*
X28717768Y-7060440D01*
X28717827Y-7060232D01*
X28717831Y-7060220D01*
X28726289Y-7030443D01*
X28726321Y-7030331D01*
X28733926Y-6998690D01*
X28741991Y-6964652D01*
X28742062Y-6964368D01*
X28751982Y-6927082D01*
X28752137Y-6926550D01*
X28762923Y-6892574D01*
X28768693Y-6885725D01*
X28773846Y-6884416D01*
X28852524Y-6882878D01*
X29050057Y-6879016D01*
X29058396Y-6882281D01*
G37*
G04 #@! TD.AperFunction*
G04 #@! TD*
G04 #@! TA.AperFunction,Conductor*
G04 #@! TO.N,/UB_VBUS*
G36*
X42762711Y-7711297D02*
G01*
X42961703Y-7910289D01*
X42965130Y-7918562D01*
X42961709Y-7926829D01*
X42934948Y-7953631D01*
X42934892Y-7953688D01*
X42934883Y-7953697D01*
X42904197Y-7984861D01*
X42904139Y-7984922D01*
X42877506Y-8012913D01*
X42877489Y-8012931D01*
X42877442Y-8012981D01*
X42854151Y-8038991D01*
X42833856Y-8063824D01*
X42816089Y-8088414D01*
X42800382Y-8113695D01*
X42786266Y-8140600D01*
X42773274Y-8170064D01*
X42773217Y-8170217D01*
X42763724Y-8195578D01*
X42757614Y-8202125D01*
X42752995Y-8203175D01*
X42476343Y-8208584D01*
X42468004Y-8205319D01*
X42464416Y-8196657D01*
X42469825Y-7920004D01*
X42473413Y-7911800D01*
X42477421Y-7909276D01*
X42488136Y-7905265D01*
X42502935Y-7899725D01*
X42509942Y-7896635D01*
X42532216Y-7886814D01*
X42532223Y-7886810D01*
X42532399Y-7886733D01*
X42559304Y-7872617D01*
X42571944Y-7864764D01*
X42584399Y-7857026D01*
X42584408Y-7857020D01*
X42584585Y-7856910D01*
X42609175Y-7839143D01*
X42634008Y-7818848D01*
X42660018Y-7795557D01*
X42660068Y-7795510D01*
X42660086Y-7795493D01*
X42688077Y-7768860D01*
X42688138Y-7768802D01*
X42719302Y-7738116D01*
X42746171Y-7711290D01*
X42754447Y-7707870D01*
X42762711Y-7711297D01*
G37*
G04 #@! TD.AperFunction*
G04 #@! TD*
G04 #@! TA.AperFunction,Conductor*
G04 #@! TO.N,/UB_VBUS*
G36*
X24498745Y-4327375D02*
G01*
X24506949Y-4330963D01*
X24509474Y-4334971D01*
X24519024Y-4360485D01*
X24532016Y-4389949D01*
X24546132Y-4416854D01*
X24561839Y-4442135D01*
X24579606Y-4466725D01*
X24599901Y-4491558D01*
X24623192Y-4517568D01*
X24623239Y-4517618D01*
X24623256Y-4517636D01*
X24648484Y-4544150D01*
X24649947Y-4545688D01*
X24680633Y-4576852D01*
X24707460Y-4603721D01*
X24710880Y-4611997D01*
X24707453Y-4620261D01*
X24508461Y-4819253D01*
X24500188Y-4822680D01*
X24491921Y-4819260D01*
X24465052Y-4792433D01*
X24433888Y-4761747D01*
X24432350Y-4760284D01*
X24405836Y-4735056D01*
X24405818Y-4735039D01*
X24405768Y-4734992D01*
X24379758Y-4711701D01*
X24354925Y-4691406D01*
X24330335Y-4673639D01*
X24330158Y-4673529D01*
X24330149Y-4673523D01*
X24317694Y-4665785D01*
X24305054Y-4657932D01*
X24278149Y-4643816D01*
X24277973Y-4643739D01*
X24277966Y-4643735D01*
X24248842Y-4630893D01*
X24248835Y-4630890D01*
X24248685Y-4630824D01*
X24223171Y-4621274D01*
X24216625Y-4615164D01*
X24215575Y-4610545D01*
X24210166Y-4333893D01*
X24213431Y-4325554D01*
X24222093Y-4321966D01*
X24498745Y-4327375D01*
G37*
G04 #@! TD.AperFunction*
G04 #@! TD*
G04 #@! TA.AperFunction,Conductor*
G04 #@! TO.N,/UB_3v3*
G36*
X35351247Y-6346353D02*
G01*
X35427658Y-6347847D01*
X35429192Y-6347877D01*
X35590195Y-6351025D01*
X35598399Y-6354613D01*
X35600924Y-6358621D01*
X35610474Y-6384135D01*
X35623466Y-6413599D01*
X35637582Y-6440504D01*
X35653289Y-6465785D01*
X35671056Y-6490375D01*
X35691351Y-6515208D01*
X35714642Y-6541218D01*
X35714689Y-6541268D01*
X35714706Y-6541286D01*
X35739934Y-6567800D01*
X35741397Y-6569338D01*
X35772083Y-6600502D01*
X35798910Y-6627371D01*
X35802330Y-6635647D01*
X35798903Y-6643911D01*
X35599911Y-6842903D01*
X35591638Y-6846330D01*
X35583371Y-6842910D01*
X35556502Y-6816083D01*
X35525338Y-6785397D01*
X35523800Y-6783934D01*
X35497286Y-6758706D01*
X35497268Y-6758689D01*
X35497218Y-6758642D01*
X35492670Y-6754569D01*
X35489604Y-6751823D01*
X35489602Y-6751822D01*
X35471208Y-6735351D01*
X35446375Y-6715056D01*
X35421785Y-6697289D01*
X35396504Y-6681582D01*
X35369599Y-6667466D01*
X35340135Y-6654474D01*
X35307180Y-6642139D01*
X35301616Y-6357543D01*
X35304881Y-6349204D01*
X35313543Y-6345616D01*
X35351247Y-6346353D01*
G37*
G04 #@! TD.AperFunction*
G04 #@! TD*
G04 #@! TA.AperFunction,Conductor*
G04 #@! TO.N,/UB_3v3*
G36*
X37680728Y-12740627D02*
G01*
X37684141Y-12748332D01*
X37693235Y-12935378D01*
X37720581Y-13098554D01*
X37763299Y-13234334D01*
X37819048Y-13350326D01*
X37885490Y-13454136D01*
X37960284Y-13553370D01*
X37960320Y-13553415D01*
X37960328Y-13553426D01*
X38041004Y-13655525D01*
X38041192Y-13655770D01*
X38125354Y-13768250D01*
X38125776Y-13768853D01*
X38211116Y-13899276D01*
X38211620Y-13900121D01*
X38258505Y-13986914D01*
X38292141Y-14049180D01*
X38293058Y-14058087D01*
X38290280Y-14062850D01*
X37539633Y-14843431D01*
X37531429Y-14847019D01*
X37522767Y-14843431D01*
X36772120Y-14062850D01*
X36768855Y-14054511D01*
X36770259Y-14049179D01*
X36850779Y-13900120D01*
X36851283Y-13899275D01*
X36936623Y-13768853D01*
X36937045Y-13768250D01*
X37021207Y-13655770D01*
X37021395Y-13655525D01*
X37102071Y-13553426D01*
X37102079Y-13553415D01*
X37102115Y-13553370D01*
X37176909Y-13454136D01*
X37243351Y-13350326D01*
X37299100Y-13234334D01*
X37341818Y-13098554D01*
X37369164Y-12935378D01*
X37378259Y-12748332D01*
X37382083Y-12740235D01*
X37389945Y-12737200D01*
X37672455Y-12737200D01*
X37680728Y-12740627D01*
G37*
G04 #@! TD.AperFunction*
G04 #@! TD*
G04 #@! TA.AperFunction,Conductor*
G04 #@! TO.N,/UB_3v3*
G36*
X26548877Y-6272252D02*
G01*
X26549821Y-6273099D01*
X26748745Y-6472023D01*
X26752172Y-6480296D01*
X26749634Y-6487572D01*
X26735894Y-6504870D01*
X26725822Y-6529650D01*
X26724294Y-6553843D01*
X26729694Y-6577552D01*
X26729946Y-6578100D01*
X26729946Y-6578101D01*
X26734336Y-6587657D01*
X26740408Y-6600877D01*
X26754822Y-6623920D01*
X26754940Y-6624083D01*
X26754941Y-6624085D01*
X26771274Y-6646717D01*
X26771322Y-6646783D01*
X26788170Y-6669404D01*
X26788399Y-6669722D01*
X26803826Y-6691950D01*
X26804379Y-6692828D01*
X26812859Y-6707708D01*
X26813978Y-6716593D01*
X26811127Y-6721610D01*
X26660543Y-6878199D01*
X26660542Y-6878200D01*
X26622165Y-6918108D01*
X26613961Y-6921696D01*
X26605622Y-6918431D01*
X26603637Y-6915913D01*
X26602720Y-6914347D01*
X26449806Y-6653306D01*
X26472579Y-6622171D01*
X26479573Y-6600877D01*
X26483678Y-6588375D01*
X26486339Y-6552266D01*
X26483800Y-6514190D01*
X26482743Y-6504870D01*
X26479321Y-6474714D01*
X26479282Y-6474315D01*
X26476115Y-6434168D01*
X26476084Y-6432891D01*
X26477311Y-6392684D01*
X26477561Y-6390609D01*
X26486088Y-6350477D01*
X26486938Y-6347945D01*
X26505778Y-6307732D01*
X26507253Y-6305367D01*
X26532428Y-6274043D01*
X26540282Y-6269741D01*
X26548877Y-6272252D01*
G37*
G04 #@! TD.AperFunction*
G04 #@! TD*
G04 #@! TA.AperFunction,Conductor*
G04 #@! TO.N,/UB_3v3*
G36*
X28321796Y-4697881D02*
G01*
X28325384Y-4706543D01*
X28319975Y-4983195D01*
X28316387Y-4991399D01*
X28312378Y-4993924D01*
X28296525Y-4999858D01*
X28286864Y-5003474D01*
X28286714Y-5003540D01*
X28286707Y-5003543D01*
X28257583Y-5016385D01*
X28257576Y-5016389D01*
X28257400Y-5016466D01*
X28230495Y-5030582D01*
X28217854Y-5038436D01*
X28205400Y-5046173D01*
X28205391Y-5046179D01*
X28205214Y-5046289D01*
X28180624Y-5064056D01*
X28155791Y-5084351D01*
X28129781Y-5107642D01*
X28129731Y-5107689D01*
X28129713Y-5107706D01*
X28103199Y-5132934D01*
X28101661Y-5134397D01*
X28070497Y-5165083D01*
X28070489Y-5165091D01*
X28070431Y-5165148D01*
X28043629Y-5191909D01*
X28035353Y-5195330D01*
X28027089Y-5191903D01*
X27828097Y-4992911D01*
X27824670Y-4984638D01*
X27828090Y-4976371D01*
X27854916Y-4949502D01*
X27885602Y-4918338D01*
X27887065Y-4916800D01*
X27912293Y-4890286D01*
X27912310Y-4890268D01*
X27912357Y-4890218D01*
X27935648Y-4864208D01*
X27955943Y-4839375D01*
X27973710Y-4814785D01*
X27989417Y-4789504D01*
X28003533Y-4762599D01*
X28016525Y-4733135D01*
X28026076Y-4707621D01*
X28032185Y-4701075D01*
X28036804Y-4700025D01*
X28313457Y-4694616D01*
X28321796Y-4697881D01*
G37*
G04 #@! TD.AperFunction*
G04 #@! TD*
G04 #@! TA.AperFunction,Conductor*
G04 #@! TO.N,/UB_3v3*
G36*
X20680875Y-6553952D02*
G01*
X20705670Y-6565240D01*
X20724143Y-6572407D01*
X20735509Y-6576817D01*
X20735515Y-6576819D01*
X20735690Y-6576887D01*
X20735865Y-6576942D01*
X20735872Y-6576944D01*
X20764498Y-6585869D01*
X20764697Y-6585931D01*
X20764911Y-6585981D01*
X20793468Y-6592652D01*
X20793482Y-6592655D01*
X20793680Y-6592701D01*
X20811989Y-6595650D01*
X20823469Y-6597499D01*
X20823472Y-6597499D01*
X20823631Y-6597525D01*
X20823779Y-6597540D01*
X20823795Y-6597542D01*
X20841219Y-6599294D01*
X20855542Y-6600734D01*
X20855682Y-6600742D01*
X20855698Y-6600743D01*
X20873307Y-6601714D01*
X20890403Y-6602657D01*
X20899486Y-6602883D01*
X20929147Y-6603621D01*
X20929205Y-6603622D01*
X20929245Y-6603622D01*
X20929274Y-6603623D01*
X20972940Y-6603960D01*
X20973014Y-6603960D01*
X21010910Y-6603991D01*
X21019180Y-6607425D01*
X21022600Y-6615691D01*
X21022600Y-6897109D01*
X21019173Y-6905382D01*
X21010909Y-6908809D01*
X20972940Y-6908839D01*
X20929274Y-6909176D01*
X20929245Y-6909177D01*
X20929205Y-6909177D01*
X20929147Y-6909178D01*
X20899486Y-6909916D01*
X20890403Y-6910142D01*
X20873307Y-6911085D01*
X20855698Y-6912056D01*
X20855682Y-6912057D01*
X20855542Y-6912065D01*
X20841219Y-6913505D01*
X20823795Y-6915257D01*
X20823779Y-6915259D01*
X20823631Y-6915274D01*
X20823472Y-6915300D01*
X20823469Y-6915300D01*
X20811989Y-6917149D01*
X20793680Y-6920098D01*
X20793482Y-6920144D01*
X20793468Y-6920147D01*
X20764911Y-6926818D01*
X20764697Y-6926868D01*
X20764499Y-6926930D01*
X20764498Y-6926930D01*
X20735872Y-6935855D01*
X20735865Y-6935857D01*
X20735690Y-6935912D01*
X20735515Y-6935980D01*
X20735509Y-6935982D01*
X20724143Y-6940392D01*
X20705670Y-6947559D01*
X20685740Y-6956633D01*
X20680875Y-6958848D01*
X20671926Y-6959158D01*
X20667917Y-6956633D01*
X20658482Y-6947559D01*
X20468469Y-6764833D01*
X20464881Y-6756629D01*
X20468469Y-6747967D01*
X20667918Y-6556167D01*
X20676256Y-6552902D01*
X20680875Y-6553952D01*
G37*
G04 #@! TD.AperFunction*
G04 #@! TD*
G04 #@! TA.AperFunction,Conductor*
G04 #@! TO.N,/UB_3v3*
G36*
X26711178Y-6825546D02*
G01*
X26715772Y-6832969D01*
X26717212Y-6841807D01*
X26711586Y-6849308D01*
X26660542Y-6878200D01*
X26660541Y-6878201D01*
X26601216Y-6911780D01*
X26551196Y-6940093D01*
X26470705Y-6985653D01*
X26461817Y-6986746D01*
X26457695Y-6984656D01*
X26438926Y-6969847D01*
X26438924Y-6969846D01*
X26438737Y-6969698D01*
X26414190Y-6953370D01*
X26413943Y-6953238D01*
X26389788Y-6940350D01*
X26389781Y-6940347D01*
X26389521Y-6940208D01*
X26364026Y-6929880D01*
X26363736Y-6929796D01*
X26363733Y-6929795D01*
X26356334Y-6927652D01*
X26337001Y-6922054D01*
X26326856Y-6920092D01*
X26307951Y-6916435D01*
X26307940Y-6916433D01*
X26307742Y-6916395D01*
X26307532Y-6916370D01*
X26307525Y-6916369D01*
X26294468Y-6914819D01*
X26275546Y-6912573D01*
X26239710Y-6910255D01*
X26239610Y-6910252D01*
X26239607Y-6910252D01*
X26213351Y-6909503D01*
X26199529Y-6909108D01*
X26199487Y-6909108D01*
X26199455Y-6909107D01*
X26165920Y-6908879D01*
X26157671Y-6905396D01*
X26154300Y-6897179D01*
X26154300Y-6615783D01*
X26157727Y-6607510D01*
X26166083Y-6604083D01*
X26169122Y-6604104D01*
X26211989Y-6604407D01*
X26212134Y-6604409D01*
X26248737Y-6605121D01*
X26262634Y-6605392D01*
X26307342Y-6606593D01*
X26347484Y-6607653D01*
X26347490Y-6607653D01*
X26384389Y-6608211D01*
X26384431Y-6608211D01*
X26419264Y-6607911D01*
X26419277Y-6607911D01*
X26419348Y-6607910D01*
X26453676Y-6606388D01*
X26453799Y-6606377D01*
X26453816Y-6606376D01*
X26469061Y-6605026D01*
X26488685Y-6603289D01*
X26525683Y-6598252D01*
X26565981Y-6590918D01*
X26711178Y-6825546D01*
G37*
G04 #@! TD.AperFunction*
G04 #@! TD*
G04 #@! TA.AperFunction,Conductor*
G04 #@! TO.N,/SWCLK*
G36*
X29984621Y-12740627D02*
G01*
X29988029Y-12748234D01*
X29998889Y-12938895D01*
X30031313Y-13102973D01*
X30081603Y-13237728D01*
X30146692Y-13351454D01*
X30223512Y-13452446D01*
X30223645Y-13452596D01*
X30223653Y-13452606D01*
X30308995Y-13548998D01*
X30399904Y-13649220D01*
X30400234Y-13649600D01*
X30493368Y-13761588D01*
X30493958Y-13762361D01*
X30586390Y-13894453D01*
X30587042Y-13895498D01*
X30672023Y-14049142D01*
X30673029Y-14058040D01*
X30670218Y-14062915D01*
X29919633Y-14843431D01*
X29911429Y-14847019D01*
X29902767Y-14843431D01*
X29152182Y-14062915D01*
X29148917Y-14054576D01*
X29150377Y-14049142D01*
X29235357Y-13895498D01*
X29236009Y-13894453D01*
X29328441Y-13762361D01*
X29329031Y-13761588D01*
X29422165Y-13649600D01*
X29422495Y-13649220D01*
X29513404Y-13548998D01*
X29598746Y-13452606D01*
X29598754Y-13452596D01*
X29598887Y-13452446D01*
X29675707Y-13351454D01*
X29740796Y-13237728D01*
X29791086Y-13102973D01*
X29823510Y-12938895D01*
X29834371Y-12748234D01*
X29838263Y-12740170D01*
X29846052Y-12737200D01*
X29976348Y-12737200D01*
X29984621Y-12740627D01*
G37*
G04 #@! TD.AperFunction*
G04 #@! TD*
G04 #@! TA.AperFunction,Conductor*
G04 #@! TO.N,/UB_3v3*
G36*
X11503597Y-11881758D02*
G01*
X11628496Y-12015897D01*
X11629091Y-12016589D01*
X11730707Y-12144395D01*
X11731242Y-12145124D01*
X11811748Y-12264224D01*
X11812137Y-12264839D01*
X11879369Y-12379010D01*
X11879554Y-12379336D01*
X11941269Y-12492266D01*
X12005132Y-12607419D01*
X12078810Y-12728228D01*
X12170061Y-12858294D01*
X12170207Y-12858473D01*
X12286513Y-13001055D01*
X12286523Y-13001066D01*
X12286645Y-13001216D01*
X12428561Y-13152331D01*
X12431725Y-13160706D01*
X12428304Y-13168612D01*
X12228569Y-13368347D01*
X12220296Y-13371774D01*
X12212553Y-13368845D01*
X12137787Y-13302841D01*
X12104513Y-13273466D01*
X11995202Y-13203705D01*
X11890484Y-13162463D01*
X11889879Y-13162362D01*
X11889875Y-13162361D01*
X11803962Y-13148033D01*
X11787983Y-13145368D01*
X11685319Y-13148044D01*
X11684901Y-13148116D01*
X11684899Y-13148116D01*
X11580366Y-13166077D01*
X11580357Y-13166079D01*
X11580118Y-13166120D01*
X11579887Y-13166181D01*
X11579878Y-13166183D01*
X11481402Y-13192208D01*
X11470001Y-13195221D01*
X11352592Y-13230973D01*
X11352538Y-13230989D01*
X11225719Y-13268942D01*
X11225291Y-13269061D01*
X11094513Y-13302841D01*
X11085646Y-13301592D01*
X11081795Y-13297916D01*
X11062928Y-13269061D01*
X10794336Y-12858294D01*
X10489593Y-12392238D01*
X10487933Y-12383438D01*
X10492982Y-12376043D01*
X10494167Y-12375363D01*
X11489816Y-11879259D01*
X11498749Y-11878637D01*
X11503597Y-11881758D01*
G37*
G04 #@! TD.AperFunction*
G04 #@! TD*
G04 #@! TA.AperFunction,Conductor*
G04 #@! TO.N,/UB_3v3*
G36*
X20048282Y-15115966D02*
G01*
X20256500Y-15316200D01*
X20142200Y-15426117D01*
X20057719Y-15507359D01*
X20048283Y-15516433D01*
X20039944Y-15519698D01*
X20035325Y-15518648D01*
X20030460Y-15516433D01*
X20010529Y-15507359D01*
X19992056Y-15500192D01*
X19980690Y-15495782D01*
X19980684Y-15495780D01*
X19980509Y-15495712D01*
X19980334Y-15495657D01*
X19980327Y-15495655D01*
X19951701Y-15486730D01*
X19951700Y-15486730D01*
X19951502Y-15486668D01*
X19951288Y-15486618D01*
X19922731Y-15479947D01*
X19922717Y-15479944D01*
X19922519Y-15479898D01*
X19904210Y-15476949D01*
X19892730Y-15475100D01*
X19892727Y-15475100D01*
X19892568Y-15475074D01*
X19892420Y-15475059D01*
X19892404Y-15475057D01*
X19874980Y-15473305D01*
X19860657Y-15471865D01*
X19860517Y-15471857D01*
X19860501Y-15471856D01*
X19842892Y-15470885D01*
X19825796Y-15469942D01*
X19816713Y-15469716D01*
X19787052Y-15468978D01*
X19786994Y-15468977D01*
X19786954Y-15468977D01*
X19786925Y-15468976D01*
X19743259Y-15468639D01*
X19705291Y-15468609D01*
X19697020Y-15465176D01*
X19693600Y-15456909D01*
X19693600Y-15175491D01*
X19697027Y-15167218D01*
X19705290Y-15163791D01*
X19743185Y-15163760D01*
X19743259Y-15163760D01*
X19786925Y-15163423D01*
X19786954Y-15163422D01*
X19786994Y-15163422D01*
X19787052Y-15163421D01*
X19816713Y-15162683D01*
X19825796Y-15162457D01*
X19842892Y-15161514D01*
X19860501Y-15160543D01*
X19860517Y-15160542D01*
X19860657Y-15160534D01*
X19874980Y-15159094D01*
X19892404Y-15157342D01*
X19892420Y-15157340D01*
X19892568Y-15157325D01*
X19892727Y-15157299D01*
X19892730Y-15157299D01*
X19904210Y-15155450D01*
X19922519Y-15152501D01*
X19922717Y-15152455D01*
X19922731Y-15152452D01*
X19951288Y-15145781D01*
X19951502Y-15145731D01*
X19951701Y-15145669D01*
X19980327Y-15136744D01*
X19980334Y-15136742D01*
X19980509Y-15136687D01*
X19980684Y-15136619D01*
X19980690Y-15136617D01*
X19992056Y-15132207D01*
X20010529Y-15125040D01*
X20035327Y-15113751D01*
X20044275Y-15113443D01*
X20048282Y-15115966D01*
G37*
G04 #@! TD.AperFunction*
G04 #@! TD*
G04 #@! TA.AperFunction,Conductor*
G04 #@! TO.N,/SWDIO*
G36*
X32093470Y-12115004D02*
G01*
X32186154Y-12116816D01*
X32194358Y-12120404D01*
X32197077Y-12124974D01*
X32207862Y-12158950D01*
X32208017Y-12159482D01*
X32217937Y-12196768D01*
X32218008Y-12197052D01*
X32226073Y-12231090D01*
X32233678Y-12262731D01*
X32233710Y-12262843D01*
X32242168Y-12292620D01*
X32242172Y-12292632D01*
X32242231Y-12292840D01*
X32253176Y-12322413D01*
X32267952Y-12352450D01*
X32268120Y-12352714D01*
X32268124Y-12352721D01*
X32287849Y-12383708D01*
X32288002Y-12383948D01*
X32314767Y-12417908D01*
X32314925Y-12418077D01*
X32341977Y-12447063D01*
X32345116Y-12455449D01*
X32341696Y-12463319D01*
X32249919Y-12555096D01*
X32241646Y-12558523D01*
X32233663Y-12555377D01*
X32204677Y-12528325D01*
X32204508Y-12528167D01*
X32170548Y-12501402D01*
X32170308Y-12501249D01*
X32139321Y-12481524D01*
X32139314Y-12481520D01*
X32139050Y-12481352D01*
X32138761Y-12481210D01*
X32138756Y-12481207D01*
X32121399Y-12472669D01*
X32109013Y-12466576D01*
X32079440Y-12455631D01*
X32079232Y-12455572D01*
X32079220Y-12455568D01*
X32057407Y-12449372D01*
X32049331Y-12447078D01*
X32017690Y-12439473D01*
X31983652Y-12431408D01*
X31983393Y-12431343D01*
X31946075Y-12421415D01*
X31945556Y-12421264D01*
X31911573Y-12410476D01*
X31904726Y-12404707D01*
X31903416Y-12399554D01*
X31898016Y-12123343D01*
X31901281Y-12115004D01*
X31909943Y-12111416D01*
X32093470Y-12115004D01*
G37*
G04 #@! TD.AperFunction*
G04 #@! TD*
G04 #@! TA.AperFunction,Conductor*
G04 #@! TO.N,/SWDIO*
G36*
X32524621Y-12740627D02*
G01*
X32528029Y-12748234D01*
X32538889Y-12938895D01*
X32571313Y-13102973D01*
X32621603Y-13237728D01*
X32686692Y-13351454D01*
X32763512Y-13452446D01*
X32763645Y-13452596D01*
X32763653Y-13452606D01*
X32848995Y-13548998D01*
X32939904Y-13649220D01*
X32940234Y-13649600D01*
X33033368Y-13761588D01*
X33033958Y-13762361D01*
X33126390Y-13894453D01*
X33127042Y-13895498D01*
X33212023Y-14049142D01*
X33213029Y-14058040D01*
X33210218Y-14062915D01*
X32459633Y-14843431D01*
X32451429Y-14847019D01*
X32442767Y-14843431D01*
X31692182Y-14062915D01*
X31688917Y-14054576D01*
X31690377Y-14049142D01*
X31775357Y-13895498D01*
X31776009Y-13894453D01*
X31868441Y-13762361D01*
X31869031Y-13761588D01*
X31962165Y-13649600D01*
X31962495Y-13649220D01*
X32053404Y-13548998D01*
X32138746Y-13452606D01*
X32138754Y-13452596D01*
X32138887Y-13452446D01*
X32215707Y-13351454D01*
X32280796Y-13237728D01*
X32331086Y-13102973D01*
X32363510Y-12938895D01*
X32374371Y-12748234D01*
X32378263Y-12740170D01*
X32386052Y-12737200D01*
X32516348Y-12737200D01*
X32524621Y-12740627D01*
G37*
G04 #@! TD.AperFunction*
G04 #@! TD*
G04 #@! TA.AperFunction,Conductor*
G04 #@! TO.N,GND*
G36*
X35994491Y-15259432D02*
G01*
X36028451Y-15286197D01*
X36059949Y-15306247D01*
X36089986Y-15321023D01*
X36119559Y-15331968D01*
X36149668Y-15340521D01*
X36181309Y-15348126D01*
X36215483Y-15356223D01*
X36253187Y-15366254D01*
X36295420Y-15379661D01*
X36301222Y-15676422D01*
X36004461Y-15670620D01*
X35991054Y-15628387D01*
X35981023Y-15590683D01*
X35972926Y-15556509D01*
X35965321Y-15524868D01*
X35956768Y-15494759D01*
X35945823Y-15465186D01*
X35931047Y-15435149D01*
X35910997Y-15403651D01*
X35884232Y-15369691D01*
X35849311Y-15332274D01*
X35957074Y-15224511D01*
X35994491Y-15259432D01*
G37*
G04 #@! TD.AperFunction*
G04 #@! TD*
G04 #@! TA.AperFunction,Conductor*
G04 #@! TO.N,GND*
G36*
X35841562Y-14296857D02*
G01*
X35875798Y-14455350D01*
X35894880Y-14600288D01*
X35906787Y-14735320D01*
X35919494Y-14864093D01*
X35940982Y-14990254D01*
X35979226Y-15117449D01*
X36042206Y-15249327D01*
X36137898Y-15389533D01*
X36274281Y-15541717D01*
X36166517Y-15649481D01*
X36018889Y-15517639D01*
X35882620Y-15426148D01*
X35754085Y-15367507D01*
X35629661Y-15334218D01*
X35505722Y-15318782D01*
X35378643Y-15313701D01*
X35244801Y-15311476D01*
X35100571Y-15304608D01*
X34942328Y-15285598D01*
X34766449Y-15246948D01*
X34675934Y-14142189D01*
X35784195Y-14121164D01*
X35841562Y-14296857D01*
G37*
G04 #@! TD.AperFunction*
G04 #@! TD*
G04 #@! TA.AperFunction,Conductor*
G04 #@! TO.N,/SWCLK*
G36*
X30937996Y-11632081D02*
G01*
X30941584Y-11640743D01*
X30936184Y-11916954D01*
X30932596Y-11925158D01*
X30928028Y-11927876D01*
X30894043Y-11938664D01*
X30893524Y-11938815D01*
X30856206Y-11948743D01*
X30855947Y-11948808D01*
X30821909Y-11956873D01*
X30790268Y-11964478D01*
X30782192Y-11966772D01*
X30760379Y-11972968D01*
X30760367Y-11972972D01*
X30760159Y-11973031D01*
X30730586Y-11983976D01*
X30718200Y-11990069D01*
X30700843Y-11998607D01*
X30700838Y-11998610D01*
X30700549Y-11998752D01*
X30700285Y-11998920D01*
X30700278Y-11998924D01*
X30669291Y-12018649D01*
X30669051Y-12018802D01*
X30635091Y-12045567D01*
X30605936Y-12072778D01*
X30597552Y-12075917D01*
X30589682Y-12072497D01*
X30497904Y-11980719D01*
X30494477Y-11972446D01*
X30497623Y-11964463D01*
X30524674Y-11935477D01*
X30524832Y-11935308D01*
X30551597Y-11901348D01*
X30551750Y-11901108D01*
X30571475Y-11870121D01*
X30571479Y-11870114D01*
X30571647Y-11869850D01*
X30586423Y-11839813D01*
X30597368Y-11810240D01*
X30597427Y-11810032D01*
X30597431Y-11810020D01*
X30605889Y-11780243D01*
X30605921Y-11780131D01*
X30613526Y-11748490D01*
X30621591Y-11714452D01*
X30621662Y-11714168D01*
X30631582Y-11676882D01*
X30631737Y-11676350D01*
X30642523Y-11642374D01*
X30648293Y-11635525D01*
X30653446Y-11634216D01*
X30732124Y-11632678D01*
X30929657Y-11628816D01*
X30937996Y-11632081D01*
G37*
G04 #@! TD.AperFunction*
G04 #@! TD*
G04 #@! TA.AperFunction,Conductor*
G04 #@! TO.N,GND*
G36*
X35946812Y-7566709D02*
G01*
X35953395Y-7572838D01*
X37087395Y-8706838D01*
X37121421Y-8769150D01*
X37124300Y-8795933D01*
X37124300Y-12551093D01*
X37104298Y-12619214D01*
X37050642Y-12665707D01*
X37009831Y-12676564D01*
X36999197Y-12677541D01*
X36981461Y-12679171D01*
X36895033Y-12706256D01*
X36831771Y-12726081D01*
X36831769Y-12726082D01*
X36824522Y-12728353D01*
X36683844Y-12813550D01*
X36567550Y-12929844D01*
X36511347Y-13022647D01*
X36458950Y-13070554D01*
X36388970Y-13082527D01*
X36323626Y-13054766D01*
X36291304Y-13014579D01*
X36205986Y-12847134D01*
X36198836Y-12836123D01*
X36083715Y-12693962D01*
X36074438Y-12684685D01*
X35932277Y-12569564D01*
X35921266Y-12562414D01*
X35758279Y-12479368D01*
X35746025Y-12474664D01*
X35568534Y-12427105D01*
X35557201Y-12425158D01*
X35483954Y-12419393D01*
X35479027Y-12419200D01*
X35263315Y-12419200D01*
X35248076Y-12423675D01*
X35246871Y-12425065D01*
X35245200Y-12432748D01*
X35245200Y-14131389D01*
X34737200Y-14141027D01*
X34737200Y-12437316D01*
X34732725Y-12422077D01*
X34731335Y-12420872D01*
X34723652Y-12419201D01*
X34503375Y-12419201D01*
X34498444Y-12419395D01*
X34425197Y-12425158D01*
X34413868Y-12427105D01*
X34236375Y-12474664D01*
X34224121Y-12479368D01*
X34061134Y-12562414D01*
X34050123Y-12569564D01*
X33907962Y-12684685D01*
X33898685Y-12693962D01*
X33783564Y-12836123D01*
X33776414Y-12847134D01*
X33691096Y-13014579D01*
X33642348Y-13066194D01*
X33573433Y-13083260D01*
X33506231Y-13060359D01*
X33471053Y-13022647D01*
X33414850Y-12929844D01*
X33298556Y-12813550D01*
X33157878Y-12728353D01*
X33150631Y-12726082D01*
X33150629Y-12726081D01*
X33087367Y-12706256D01*
X33000939Y-12679171D01*
X32930516Y-12672700D01*
X32894157Y-12672700D01*
X32826036Y-12652698D01*
X32779543Y-12599042D01*
X32770071Y-12568577D01*
X32768665Y-12560604D01*
X32766751Y-12549749D01*
X32761240Y-12540203D01*
X32759970Y-12536714D01*
X32758394Y-12533335D01*
X32755540Y-12522683D01*
X32733522Y-12491239D01*
X32727626Y-12481983D01*
X32713951Y-12458298D01*
X32708439Y-12448751D01*
X32699996Y-12441666D01*
X32699993Y-12441663D01*
X32679036Y-12424078D01*
X32670932Y-12416652D01*
X32554071Y-12299791D01*
X32536049Y-12277043D01*
X32534947Y-12275264D01*
X32534945Y-12275262D01*
X32531690Y-12270006D01*
X32523517Y-12261248D01*
X32515464Y-12252620D01*
X32508609Y-12244630D01*
X32507918Y-12243753D01*
X32485665Y-12200137D01*
X32485430Y-12199308D01*
X32484142Y-12194391D01*
X32482583Y-12187905D01*
X32478537Y-12171070D01*
X32470517Y-12137222D01*
X32469760Y-12134114D01*
X32469689Y-12133830D01*
X32468713Y-12130049D01*
X32458793Y-12092763D01*
X32457158Y-12086894D01*
X32457003Y-12086362D01*
X32455200Y-12080438D01*
X32444415Y-12046462D01*
X32442789Y-12042839D01*
X32431542Y-12017794D01*
X32420090Y-11992289D01*
X32418122Y-11988980D01*
X32417371Y-11987719D01*
X32417455Y-11987669D01*
X32416577Y-11985979D01*
X32416758Y-11985885D01*
X32410704Y-11975075D01*
X32393490Y-11937215D01*
X32393489Y-11937213D01*
X32389774Y-11929043D01*
X32299444Y-11824210D01*
X32183321Y-11748943D01*
X32174719Y-11746371D01*
X32174716Y-11746369D01*
X32078180Y-11717499D01*
X32050741Y-11709293D01*
X32041765Y-11709238D01*
X32041764Y-11709238D01*
X31982541Y-11708877D01*
X31912362Y-11708448D01*
X31903731Y-11710915D01*
X31903729Y-11710915D01*
X31787941Y-11744007D01*
X31787938Y-11744008D01*
X31779307Y-11746475D01*
X31662273Y-11820318D01*
X31570669Y-11924040D01*
X31566854Y-11932166D01*
X31558869Y-11949172D01*
X31516558Y-11996971D01*
X31519811Y-12023941D01*
X31516029Y-12040013D01*
X31515673Y-12041177D01*
X31511858Y-12049303D01*
X31506088Y-12086362D01*
X31493497Y-12167228D01*
X31490568Y-12186037D01*
X31491732Y-12194939D01*
X31491732Y-12194942D01*
X31507346Y-12314346D01*
X31507347Y-12314350D01*
X31508511Y-12323251D01*
X31564244Y-12449914D01*
X31653287Y-12555843D01*
X31667332Y-12565192D01*
X31712954Y-12619588D01*
X31721926Y-12690016D01*
X31691397Y-12754114D01*
X31662784Y-12777855D01*
X31603844Y-12813550D01*
X31487550Y-12929844D01*
X31402353Y-13070522D01*
X31353171Y-13227461D01*
X31346700Y-13297884D01*
X31346700Y-15556516D01*
X31353171Y-15626939D01*
X31368997Y-15677439D01*
X31396904Y-15766489D01*
X31402353Y-15783878D01*
X31487550Y-15924556D01*
X31582825Y-16019831D01*
X31616851Y-16082143D01*
X31611786Y-16152958D01*
X31569239Y-16209794D01*
X31502719Y-16234605D01*
X31493730Y-16234926D01*
X30868670Y-16234926D01*
X30800549Y-16214924D01*
X30754056Y-16161268D01*
X30743952Y-16090994D01*
X30773446Y-16026414D01*
X30779575Y-16019831D01*
X30874850Y-15924556D01*
X30960047Y-15783878D01*
X30965497Y-15766489D01*
X30993403Y-15677439D01*
X31009229Y-15626939D01*
X31015700Y-15556516D01*
X31015700Y-13297884D01*
X31009229Y-13227461D01*
X30960047Y-13070522D01*
X30874850Y-12929844D01*
X30758556Y-12813550D01*
X30617878Y-12728353D01*
X30581781Y-12717041D01*
X30522762Y-12677586D01*
X30494441Y-12612483D01*
X30505813Y-12542403D01*
X30530367Y-12507713D01*
X30753212Y-12284868D01*
X30775959Y-12266847D01*
X30777734Y-12265748D01*
X30777738Y-12265745D01*
X30782996Y-12262488D01*
X30800379Y-12246265D01*
X30808369Y-12239409D01*
X30809246Y-12238718D01*
X30852862Y-12216465D01*
X30853691Y-12216230D01*
X30858609Y-12214942D01*
X30881808Y-12209366D01*
X30882203Y-12209272D01*
X30882608Y-12209176D01*
X30915777Y-12201317D01*
X30919114Y-12200503D01*
X30919373Y-12200438D01*
X30922922Y-12199520D01*
X30932725Y-12196912D01*
X30959989Y-12189659D01*
X30960021Y-12189650D01*
X30960240Y-12189592D01*
X30966018Y-12187983D01*
X30966537Y-12187832D01*
X30969646Y-12186887D01*
X30972130Y-12186132D01*
X30972209Y-12186108D01*
X30972556Y-12186002D01*
X30972845Y-12185910D01*
X30972920Y-12185887D01*
X30990598Y-12180275D01*
X31006541Y-12175214D01*
X31020048Y-12169149D01*
X31024326Y-12167228D01*
X31042794Y-12160610D01*
X31046169Y-12159690D01*
X31046172Y-12159689D01*
X31054835Y-12157327D01*
X31172762Y-12084919D01*
X31188143Y-12067927D01*
X31227957Y-12023941D01*
X31265627Y-11982324D01*
X31282142Y-11948237D01*
X31323752Y-11902369D01*
X31320294Y-11876372D01*
X31323444Y-11862991D01*
X31325964Y-11857789D01*
X31348922Y-11721325D01*
X31349068Y-11709400D01*
X31343369Y-11669602D01*
X31330723Y-11581303D01*
X31330722Y-11581301D01*
X31329450Y-11572416D01*
X31272174Y-11446443D01*
X31181844Y-11341610D01*
X31065721Y-11266343D01*
X31057119Y-11263771D01*
X31057116Y-11263769D01*
X30941744Y-11229266D01*
X30941745Y-11229266D01*
X30933141Y-11226693D01*
X30924165Y-11226638D01*
X30924164Y-11226638D01*
X30864941Y-11226277D01*
X30794762Y-11225848D01*
X30786131Y-11228315D01*
X30786129Y-11228315D01*
X30670341Y-11261407D01*
X30670338Y-11261408D01*
X30661707Y-11263875D01*
X30544673Y-11337718D01*
X30538731Y-11344446D01*
X30514485Y-11371900D01*
X30453069Y-11441440D01*
X30449255Y-11449563D01*
X30449254Y-11449565D01*
X30399673Y-11555168D01*
X30399067Y-11556358D01*
X30398556Y-11557547D01*
X30397941Y-11558858D01*
X30395187Y-11563855D01*
X30394335Y-11566539D01*
X30394258Y-11566703D01*
X30394234Y-11566857D01*
X30384401Y-11597831D01*
X30382596Y-11603762D01*
X30382441Y-11604294D01*
X30380806Y-11610163D01*
X30370886Y-11647449D01*
X30369910Y-11651230D01*
X30369839Y-11651514D01*
X30369082Y-11654622D01*
X30361062Y-11688470D01*
X30355457Y-11711791D01*
X30354180Y-11716669D01*
X30353945Y-11717499D01*
X30331633Y-11761215D01*
X30330933Y-11762103D01*
X30324130Y-11770026D01*
X30307907Y-11787410D01*
X30304751Y-11792409D01*
X30304747Y-11792414D01*
X30302732Y-11795606D01*
X30285285Y-11817435D01*
X29691468Y-12411252D01*
X29683364Y-12418678D01*
X29662406Y-12436264D01*
X29662404Y-12436267D01*
X29653961Y-12443351D01*
X29637536Y-12471799D01*
X29634778Y-12476576D01*
X29628873Y-12485845D01*
X29613185Y-12508250D01*
X29613184Y-12508253D01*
X29606860Y-12517284D01*
X29604006Y-12527933D01*
X29602431Y-12531311D01*
X29601160Y-12534804D01*
X29595649Y-12544349D01*
X29593735Y-12555205D01*
X29593734Y-12555207D01*
X29591375Y-12568582D01*
X29559847Y-12632194D01*
X29498933Y-12668662D01*
X29467290Y-12672700D01*
X29431884Y-12672700D01*
X29361461Y-12679171D01*
X29275033Y-12706256D01*
X29211771Y-12726081D01*
X29211769Y-12726082D01*
X29204522Y-12728353D01*
X29063844Y-12813550D01*
X28947550Y-12929844D01*
X28862353Y-13070522D01*
X28813171Y-13227461D01*
X28806700Y-13297884D01*
X28806700Y-15556516D01*
X28813171Y-15626939D01*
X28828997Y-15677439D01*
X28856904Y-15766489D01*
X28862353Y-15783878D01*
X28947550Y-15924556D01*
X29042825Y-16019831D01*
X29076851Y-16082143D01*
X29071786Y-16152958D01*
X29029239Y-16209794D01*
X28962719Y-16234605D01*
X28953730Y-16234926D01*
X12793726Y-16234926D01*
X12725605Y-16214924D01*
X12679112Y-16161268D01*
X12669008Y-16090994D01*
X12695806Y-16029631D01*
X12754236Y-15957477D01*
X12761386Y-15946466D01*
X12844432Y-15783479D01*
X12849136Y-15771225D01*
X12896695Y-15593734D01*
X12898642Y-15582401D01*
X12904407Y-15509154D01*
X12904600Y-15504228D01*
X12904600Y-15288515D01*
X12900125Y-15273276D01*
X12898735Y-15272071D01*
X12891052Y-15270400D01*
X10768600Y-15270400D01*
X10700479Y-15250398D01*
X10653986Y-15196742D01*
X10642600Y-15144400D01*
X10642600Y-14888400D01*
X10662602Y-14820279D01*
X10716258Y-14773786D01*
X10768600Y-14762400D01*
X12886484Y-14762400D01*
X12901723Y-14757925D01*
X12902928Y-14756535D01*
X12904599Y-14748852D01*
X12904599Y-14724032D01*
X12924601Y-14655911D01*
X12978257Y-14609418D01*
X13048531Y-14599314D01*
X13113111Y-14628808D01*
X13119694Y-14634937D01*
X14134249Y-15649492D01*
X14154304Y-15659710D01*
X14171159Y-15670040D01*
X14189368Y-15683270D01*
X14198801Y-15686335D01*
X14198803Y-15686336D01*
X14210780Y-15690228D01*
X14229041Y-15697792D01*
X14249094Y-15708009D01*
X14258887Y-15709560D01*
X14271326Y-15711530D01*
X14290552Y-15716146D01*
X14311954Y-15723100D01*
X19667547Y-15723100D01*
X19692220Y-15725540D01*
X19705086Y-15728109D01*
X19711279Y-15728114D01*
X19711281Y-15728114D01*
X19741809Y-15728138D01*
X19742684Y-15728142D01*
X19781592Y-15728443D01*
X19783744Y-15728478D01*
X19801223Y-15728912D01*
X19813537Y-15729218D01*
X19817290Y-15729368D01*
X19837691Y-15730493D01*
X19843334Y-15730932D01*
X19855209Y-15732127D01*
X19862603Y-15733092D01*
X19867970Y-15733957D01*
X19876587Y-15735655D01*
X19878809Y-15736174D01*
X19887676Y-15738589D01*
X19890798Y-15739563D01*
X19898852Y-15742378D01*
X19906403Y-15745308D01*
X19913026Y-15748098D01*
X19924878Y-15753493D01*
X19924882Y-15753495D01*
X19927800Y-15754823D01*
X19930693Y-15755799D01*
X19932081Y-15756723D01*
X19939251Y-15758963D01*
X19949010Y-15762013D01*
X19951704Y-15762888D01*
X19974748Y-15770662D01*
X19974753Y-15770663D01*
X19977802Y-15771692D01*
X19980940Y-15772405D01*
X19980953Y-15772409D01*
X19980986Y-15772416D01*
X19990611Y-15775010D01*
X20055598Y-15795313D01*
X20055599Y-15795313D01*
X20064167Y-15797990D01*
X20127192Y-15799145D01*
X20193548Y-15800361D01*
X20193551Y-15800361D01*
X20202526Y-15800525D01*
X20211189Y-15798163D01*
X20211191Y-15798163D01*
X20327371Y-15766489D01*
X20336035Y-15764127D01*
X20343687Y-15759429D01*
X20348284Y-15757440D01*
X20352659Y-15755749D01*
X20356603Y-15754822D01*
X20362236Y-15752257D01*
X20362240Y-15752256D01*
X20371379Y-15748095D01*
X20377997Y-15745307D01*
X20385548Y-15742377D01*
X20393605Y-15739561D01*
X20396738Y-15738584D01*
X20405590Y-15736174D01*
X20407812Y-15735655D01*
X20416429Y-15733957D01*
X20421796Y-15733092D01*
X20429195Y-15732126D01*
X20441058Y-15730933D01*
X20446708Y-15730493D01*
X20467110Y-15729367D01*
X20470855Y-15729218D01*
X20483729Y-15728898D01*
X20500544Y-15728480D01*
X20502696Y-15728445D01*
X20541728Y-15728142D01*
X20542606Y-15728138D01*
X20573126Y-15728114D01*
X20573128Y-15728114D01*
X20579314Y-15728109D01*
X20585381Y-15726898D01*
X20585385Y-15726898D01*
X20592210Y-15725536D01*
X20616865Y-15723100D01*
X25482188Y-15723100D01*
X25503590Y-15716146D01*
X25522816Y-15711530D01*
X25535255Y-15709560D01*
X25545048Y-15708009D01*
X25565101Y-15697792D01*
X25583362Y-15690228D01*
X25595339Y-15686336D01*
X25595341Y-15686335D01*
X25604774Y-15683270D01*
X25622983Y-15670040D01*
X25639838Y-15659710D01*
X25659893Y-15649492D01*
X25842925Y-15466460D01*
X25905237Y-15432434D01*
X25976052Y-15437499D01*
X26032888Y-15480046D01*
X26047349Y-15504809D01*
X26077844Y-15574114D01*
X26096056Y-15595780D01*
X26158479Y-15670040D01*
X26166887Y-15680043D01*
X26174358Y-15685016D01*
X26174359Y-15685017D01*
X26191482Y-15696415D01*
X26282081Y-15756723D01*
X26367721Y-15783479D01*
X26405598Y-15795313D01*
X26405599Y-15795313D01*
X26414167Y-15797990D01*
X26479799Y-15799192D01*
X26543548Y-15800361D01*
X26543551Y-15800361D01*
X26552526Y-15800525D01*
X26561189Y-15798163D01*
X26561191Y-15798163D01*
X26677371Y-15766489D01*
X26686035Y-15764127D01*
X26803962Y-15691719D01*
X26896827Y-15589124D01*
X26936908Y-15506397D01*
X26953250Y-15472668D01*
X26953251Y-15472666D01*
X26957164Y-15464589D01*
X26980122Y-15328125D01*
X26980268Y-15316200D01*
X26978563Y-15304291D01*
X26961923Y-15188103D01*
X26961922Y-15188101D01*
X26960650Y-15179216D01*
X26903374Y-15053243D01*
X26813044Y-14948410D01*
X26696921Y-14873143D01*
X26619160Y-14849887D01*
X26559628Y-14811207D01*
X26530457Y-14746479D01*
X26530815Y-14709457D01*
X26531931Y-14702412D01*
X26536546Y-14683190D01*
X26540435Y-14671221D01*
X26543500Y-14661788D01*
X26543500Y-13733533D01*
X26563502Y-13665412D01*
X26580405Y-13644438D01*
X30256038Y-9968805D01*
X30318350Y-9934779D01*
X30345133Y-9931900D01*
X33697260Y-9931900D01*
X33718662Y-9924946D01*
X33737888Y-9920330D01*
X33750327Y-9918360D01*
X33760120Y-9916809D01*
X33780173Y-9906592D01*
X33798434Y-9899028D01*
X33810411Y-9895136D01*
X33810413Y-9895135D01*
X33819846Y-9892070D01*
X33838055Y-9878840D01*
X33854910Y-9868510D01*
X33874965Y-9858292D01*
X33966106Y-9767151D01*
X35641766Y-8091492D01*
X35641769Y-8091488D01*
X35664692Y-8068565D01*
X35674912Y-8048507D01*
X35685240Y-8031654D01*
X35698469Y-8013446D01*
X35705423Y-7992045D01*
X35712988Y-7973779D01*
X35718709Y-7962552D01*
X35718709Y-7962551D01*
X35723209Y-7953720D01*
X35724760Y-7943929D01*
X35724761Y-7943925D01*
X35726733Y-7931477D01*
X35731347Y-7912258D01*
X35732123Y-7909869D01*
X35738299Y-7890861D01*
X35738299Y-7858444D01*
X35738300Y-7858438D01*
X35738300Y-7661933D01*
X35758302Y-7593812D01*
X35811958Y-7547319D01*
X35882232Y-7537215D01*
X35946812Y-7566709D01*
G37*
G04 #@! TD.AperFunction*
G04 #@! TA.AperFunction,Conductor*
G36*
X36476169Y-15794041D02*
G01*
X36511347Y-15831753D01*
X36567550Y-15924556D01*
X36662825Y-16019831D01*
X36696851Y-16082143D01*
X36691786Y-16152958D01*
X36649239Y-16209794D01*
X36582719Y-16234605D01*
X36573730Y-16234926D01*
X36287561Y-16234926D01*
X36219440Y-16214924D01*
X36172947Y-16161268D01*
X36162843Y-16090994D01*
X36189642Y-16029630D01*
X36198836Y-16018277D01*
X36205986Y-16007266D01*
X36291304Y-15839821D01*
X36340052Y-15788206D01*
X36408967Y-15771140D01*
X36476169Y-15794041D01*
G37*
G04 #@! TD.AperFunction*
G04 #@! TA.AperFunction,Conductor*
G36*
X27538651Y-3470638D02*
G01*
X27585144Y-3524294D01*
X27595248Y-3594568D01*
X27565754Y-3659148D01*
X27559625Y-3665731D01*
X26977045Y-4248312D01*
X26411362Y-4813995D01*
X26349050Y-4848020D01*
X26322267Y-4850900D01*
X25366733Y-4850900D01*
X25298612Y-4830898D01*
X25277638Y-4813995D01*
X24914104Y-4450461D01*
X24898377Y-4431283D01*
X24894533Y-4425520D01*
X24891098Y-4420370D01*
X24883369Y-4412629D01*
X24865153Y-4394384D01*
X24864618Y-4393844D01*
X24837123Y-4365921D01*
X24835673Y-4364423D01*
X24815264Y-4342974D01*
X24812682Y-4340177D01*
X24799018Y-4324919D01*
X24795333Y-4320613D01*
X24787784Y-4311375D01*
X24783246Y-4305474D01*
X24780055Y-4301057D01*
X24775168Y-4293771D01*
X24773965Y-4291835D01*
X24769402Y-4283858D01*
X24767881Y-4280958D01*
X24764178Y-4273276D01*
X24760915Y-4265877D01*
X24758198Y-4259205D01*
X24753634Y-4247012D01*
X24753629Y-4247001D01*
X24752507Y-4244003D01*
X24729036Y-4196649D01*
X24727323Y-4193930D01*
X24726269Y-4192051D01*
X24721466Y-4182573D01*
X24701924Y-4139593D01*
X24611594Y-4034760D01*
X24495471Y-3959493D01*
X24486869Y-3956921D01*
X24486866Y-3956919D01*
X24371494Y-3922416D01*
X24371495Y-3922416D01*
X24362891Y-3919843D01*
X24353915Y-3919788D01*
X24353914Y-3919788D01*
X24294691Y-3919427D01*
X24224512Y-3918998D01*
X24215881Y-3921465D01*
X24215879Y-3921465D01*
X24100091Y-3954557D01*
X24100088Y-3954558D01*
X24091457Y-3957025D01*
X23974423Y-4030868D01*
X23882819Y-4134590D01*
X23879005Y-4142713D01*
X23879004Y-4142715D01*
X23860299Y-4182555D01*
X23824008Y-4259853D01*
X23822628Y-4268718D01*
X23822627Y-4268720D01*
X23806967Y-4369300D01*
X23802718Y-4396587D01*
X23803882Y-4405489D01*
X23803882Y-4405492D01*
X23819496Y-4524896D01*
X23819497Y-4524900D01*
X23820661Y-4533801D01*
X23876394Y-4660464D01*
X23965437Y-4766393D01*
X23972908Y-4771366D01*
X23972909Y-4771367D01*
X24073158Y-4838099D01*
X24073161Y-4838100D01*
X24080631Y-4843073D01*
X24095356Y-4847673D01*
X24100299Y-4849218D01*
X24121167Y-4858756D01*
X24121382Y-4858319D01*
X24126943Y-4861049D01*
X24132203Y-4864307D01*
X24138000Y-4866477D01*
X24138002Y-4866478D01*
X24147405Y-4869998D01*
X24154077Y-4872715D01*
X24161476Y-4875978D01*
X24169158Y-4879681D01*
X24172058Y-4881202D01*
X24180035Y-4885765D01*
X24181971Y-4886968D01*
X24189263Y-4891859D01*
X24193664Y-4895039D01*
X24199587Y-4899594D01*
X24208805Y-4907127D01*
X24213126Y-4910824D01*
X24228312Y-4924422D01*
X24231113Y-4927007D01*
X24252626Y-4947476D01*
X24254127Y-4948928D01*
X24282044Y-4976418D01*
X24282584Y-4976953D01*
X24308570Y-5002898D01*
X24313718Y-5006333D01*
X24319515Y-5010202D01*
X24338671Y-5025914D01*
X24903849Y-5591092D01*
X24923904Y-5601310D01*
X24940759Y-5611640D01*
X24950942Y-5619039D01*
X24950944Y-5619040D01*
X24958968Y-5624870D01*
X24980380Y-5631827D01*
X24998638Y-5639390D01*
X25018694Y-5649609D01*
X25028487Y-5651160D01*
X25028490Y-5651161D01*
X25040930Y-5653132D01*
X25060151Y-5657746D01*
X25081553Y-5664700D01*
X26475667Y-5664700D01*
X26543788Y-5684702D01*
X26590281Y-5738358D01*
X26600385Y-5808632D01*
X26570891Y-5873212D01*
X26564762Y-5879795D01*
X26352100Y-6092457D01*
X26343945Y-6099926D01*
X26330158Y-6111479D01*
X26326283Y-6116301D01*
X26322481Y-6121031D01*
X26313364Y-6131193D01*
X26278158Y-6166399D01*
X26273655Y-6175237D01*
X26267942Y-6186450D01*
X26257610Y-6203309D01*
X26244380Y-6221518D01*
X26241315Y-6230951D01*
X26241314Y-6230953D01*
X26237422Y-6242930D01*
X26229858Y-6261191D01*
X26222178Y-6276266D01*
X26219918Y-6280701D01*
X26171170Y-6332317D01*
X26107650Y-6349500D01*
X21048656Y-6349500D01*
X21023972Y-6347058D01*
X21011122Y-6344491D01*
X21003689Y-6344485D01*
X20974457Y-6344461D01*
X20973587Y-6344457D01*
X20934609Y-6344156D01*
X20932455Y-6344121D01*
X20914976Y-6343687D01*
X20902662Y-6343381D01*
X20898909Y-6343231D01*
X20878508Y-6342106D01*
X20872865Y-6341667D01*
X20860990Y-6340472D01*
X20853596Y-6339507D01*
X20848229Y-6338642D01*
X20839612Y-6336944D01*
X20837390Y-6336425D01*
X20828537Y-6334014D01*
X20825417Y-6333041D01*
X20817354Y-6330224D01*
X20809784Y-6327287D01*
X20803169Y-6324501D01*
X20788395Y-6317775D01*
X20783275Y-6316048D01*
X20782285Y-6315654D01*
X20778721Y-6313343D01*
X20770119Y-6310771D01*
X20770118Y-6310770D01*
X20750332Y-6304853D01*
X20746156Y-6303525D01*
X20741445Y-6301936D01*
X20738398Y-6300908D01*
X20735257Y-6300194D01*
X20732188Y-6299330D01*
X20732192Y-6299316D01*
X20729118Y-6298508D01*
X20696420Y-6288730D01*
X20646141Y-6273693D01*
X20637165Y-6273638D01*
X20637164Y-6273638D01*
X20577941Y-6273277D01*
X20507762Y-6272848D01*
X20499131Y-6275315D01*
X20499129Y-6275315D01*
X20383341Y-6308407D01*
X20383338Y-6308408D01*
X20374707Y-6310875D01*
X20257673Y-6384718D01*
X20166069Y-6488440D01*
X20162255Y-6496563D01*
X20162254Y-6496565D01*
X20150120Y-6522410D01*
X20107258Y-6613703D01*
X20105878Y-6622568D01*
X20105877Y-6622570D01*
X20090742Y-6719778D01*
X20085968Y-6750437D01*
X20087132Y-6759339D01*
X20087132Y-6759342D01*
X20102746Y-6878746D01*
X20102747Y-6878750D01*
X20103911Y-6887651D01*
X20159644Y-7014314D01*
X20248687Y-7120243D01*
X20256158Y-7125216D01*
X20256159Y-7125217D01*
X20268891Y-7133692D01*
X20363881Y-7196923D01*
X20435172Y-7219196D01*
X20487398Y-7235513D01*
X20487399Y-7235513D01*
X20495967Y-7238190D01*
X20561599Y-7239392D01*
X20625348Y-7240561D01*
X20625351Y-7240561D01*
X20634326Y-7240725D01*
X20642989Y-7238363D01*
X20642991Y-7238363D01*
X20759171Y-7206689D01*
X20767835Y-7204327D01*
X20775485Y-7199630D01*
X20780084Y-7197640D01*
X20784459Y-7195949D01*
X20788403Y-7195022D01*
X20794036Y-7192457D01*
X20794040Y-7192456D01*
X20803179Y-7188295D01*
X20809797Y-7185507D01*
X20817348Y-7182577D01*
X20825405Y-7179761D01*
X20828538Y-7178784D01*
X20837390Y-7176374D01*
X20839612Y-7175855D01*
X20848229Y-7174157D01*
X20853596Y-7173292D01*
X20860995Y-7172326D01*
X20872858Y-7171133D01*
X20878508Y-7170693D01*
X20898910Y-7169567D01*
X20902655Y-7169418D01*
X20915529Y-7169098D01*
X20932344Y-7168680D01*
X20934496Y-7168645D01*
X20973528Y-7168342D01*
X20974406Y-7168338D01*
X21004926Y-7168314D01*
X21004928Y-7168314D01*
X21011114Y-7168309D01*
X21017181Y-7167098D01*
X21017185Y-7167098D01*
X21024010Y-7165736D01*
X21048665Y-7163300D01*
X26126690Y-7163300D01*
X26152112Y-7165892D01*
X26164156Y-7168373D01*
X26177117Y-7168461D01*
X26193475Y-7168573D01*
X26196207Y-7168621D01*
X26225383Y-7169453D01*
X26229921Y-7169665D01*
X26239541Y-7170287D01*
X26299261Y-7189852D01*
X26340342Y-7216105D01*
X26343128Y-7217518D01*
X26345853Y-7219074D01*
X26345784Y-7219196D01*
X26354298Y-7224165D01*
X26401331Y-7255473D01*
X26488958Y-7282850D01*
X26524848Y-7294063D01*
X26524849Y-7294063D01*
X26533417Y-7296740D01*
X26599049Y-7297942D01*
X26662798Y-7299111D01*
X26662801Y-7299111D01*
X26671776Y-7299275D01*
X26680439Y-7296913D01*
X26680441Y-7296913D01*
X26796621Y-7265239D01*
X26805285Y-7262877D01*
X26923212Y-7190469D01*
X26932905Y-7179761D01*
X26974604Y-7133692D01*
X27016077Y-7087874D01*
X27048895Y-7020138D01*
X27072500Y-6971418D01*
X27072501Y-6971416D01*
X27076414Y-6963339D01*
X27099372Y-6826875D01*
X27099518Y-6814950D01*
X27098675Y-6809058D01*
X27081173Y-6686853D01*
X27081172Y-6686851D01*
X27079900Y-6677966D01*
X27069728Y-6655593D01*
X27065277Y-6645803D01*
X27055292Y-6575512D01*
X27084894Y-6510981D01*
X27090884Y-6504559D01*
X28196892Y-5398551D01*
X28216064Y-5382828D01*
X28221833Y-5378980D01*
X28221836Y-5378977D01*
X28226983Y-5375544D01*
X28252990Y-5349576D01*
X28253302Y-5349267D01*
X28281432Y-5321569D01*
X28282926Y-5320123D01*
X28297138Y-5306600D01*
X28304384Y-5299706D01*
X28307172Y-5297132D01*
X28322430Y-5283468D01*
X28326736Y-5279783D01*
X28335974Y-5272234D01*
X28341875Y-5267696D01*
X28346292Y-5264505D01*
X28353578Y-5259618D01*
X28355514Y-5258415D01*
X28363491Y-5253852D01*
X28366391Y-5252331D01*
X28374073Y-5248628D01*
X28381472Y-5245365D01*
X28388144Y-5242648D01*
X28400322Y-5238090D01*
X28400339Y-5238082D01*
X28403346Y-5236957D01*
X28406233Y-5235526D01*
X28406238Y-5235524D01*
X28411240Y-5233045D01*
X28421738Y-5229055D01*
X28421737Y-5229052D01*
X28429971Y-5225489D01*
X28438635Y-5223127D01*
X28556562Y-5150719D01*
X28649427Y-5048124D01*
X28709764Y-4923589D01*
X28732722Y-4787125D01*
X28732868Y-4775200D01*
X28731673Y-4766852D01*
X28714523Y-4647103D01*
X28714522Y-4647101D01*
X28713250Y-4638216D01*
X28702143Y-4613786D01*
X28671982Y-4547451D01*
X28661996Y-4477160D01*
X28691596Y-4412629D01*
X28751387Y-4374345D01*
X28786683Y-4369300D01*
X40730454Y-4369300D01*
X40798575Y-4389302D01*
X40845068Y-4442958D01*
X40855172Y-4513232D01*
X40825678Y-4577812D01*
X40766872Y-4615922D01*
X40745523Y-4622368D01*
X40734184Y-4627041D01*
X40570523Y-4714060D01*
X40560306Y-4720849D01*
X40416667Y-4837997D01*
X40407963Y-4846641D01*
X40289816Y-4989456D01*
X40282956Y-4999627D01*
X40194796Y-5162676D01*
X40190044Y-5173981D01*
X40154350Y-5289292D01*
X40154144Y-5303395D01*
X40160899Y-5306600D01*
X41803600Y-5306600D01*
X41871721Y-5326602D01*
X41918214Y-5380258D01*
X41929600Y-5432600D01*
X41929600Y-5688600D01*
X41909598Y-5756721D01*
X41855942Y-5803214D01*
X41803600Y-5814600D01*
X40167676Y-5814600D01*
X40154145Y-5818573D01*
X40153025Y-5826368D01*
X40184738Y-5934121D01*
X40189331Y-5945489D01*
X40275207Y-6109754D01*
X40281921Y-6120015D01*
X40398068Y-6264473D01*
X40406646Y-6273232D01*
X40548639Y-6392378D01*
X40558759Y-6399308D01*
X40721185Y-6488602D01*
X40732458Y-6493434D01*
X40909138Y-6549480D01*
X40921132Y-6552030D01*
X41065361Y-6568207D01*
X41072385Y-6568600D01*
X41564580Y-6568600D01*
X41632701Y-6588602D01*
X41679194Y-6642258D01*
X41689298Y-6712532D01*
X41680990Y-6742814D01*
X41641016Y-6839320D01*
X41639938Y-6847508D01*
X41638888Y-6855484D01*
X41621100Y-6990600D01*
X41641016Y-7141880D01*
X41699408Y-7282850D01*
X41792296Y-7403904D01*
X41913350Y-7496792D01*
X42054320Y-7555184D01*
X42079290Y-7558471D01*
X42134948Y-7565799D01*
X42199876Y-7594522D01*
X42238967Y-7653787D01*
X42239812Y-7724778D01*
X42212943Y-7774129D01*
X42137069Y-7860040D01*
X42133255Y-7868163D01*
X42133254Y-7868165D01*
X42121192Y-7893857D01*
X42078258Y-7985303D01*
X42076878Y-7994168D01*
X42076877Y-7994170D01*
X42060519Y-8099234D01*
X42056968Y-8122037D01*
X42058132Y-8130939D01*
X42058132Y-8130942D01*
X42073746Y-8250346D01*
X42073747Y-8250350D01*
X42074911Y-8259251D01*
X42130644Y-8385914D01*
X42219687Y-8491843D01*
X42227158Y-8496816D01*
X42227159Y-8496817D01*
X42237112Y-8503442D01*
X42334881Y-8568523D01*
X42428290Y-8597706D01*
X42458398Y-8607113D01*
X42458399Y-8607113D01*
X42466967Y-8609790D01*
X42532599Y-8610992D01*
X42596348Y-8612161D01*
X42596351Y-8612161D01*
X42605326Y-8612325D01*
X42613989Y-8609963D01*
X42613991Y-8609963D01*
X42730171Y-8578289D01*
X42738835Y-8575927D01*
X42856762Y-8503519D01*
X42949627Y-8400924D01*
X42996041Y-8305125D01*
X43002316Y-8293716D01*
X43003498Y-8291808D01*
X43003499Y-8291806D01*
X43006757Y-8286546D01*
X43008925Y-8280754D01*
X43008929Y-8280746D01*
X43012448Y-8271344D01*
X43015165Y-8264672D01*
X43018428Y-8257273D01*
X43022131Y-8249591D01*
X43023652Y-8246691D01*
X43028215Y-8238714D01*
X43029418Y-8236778D01*
X43034309Y-8229486D01*
X43037494Y-8225079D01*
X43042037Y-8219170D01*
X43042482Y-8218625D01*
X43049608Y-8209905D01*
X43053261Y-8205636D01*
X43066868Y-8190442D01*
X43069435Y-8187661D01*
X43089899Y-8166153D01*
X43091348Y-8164655D01*
X43118939Y-8136632D01*
X43119258Y-8136310D01*
X43145347Y-8110180D01*
X43148774Y-8105045D01*
X43148778Y-8105040D01*
X43152652Y-8099234D01*
X43168361Y-8080082D01*
X43894292Y-7354151D01*
X43904510Y-7334096D01*
X43914840Y-7317241D01*
X43922239Y-7307057D01*
X43928070Y-7299032D01*
X43931136Y-7289597D01*
X43935028Y-7277620D01*
X43942592Y-7259358D01*
X43948308Y-7248140D01*
X43948308Y-7248139D01*
X43952809Y-7239306D01*
X43956330Y-7217074D01*
X43960946Y-7197848D01*
X43964835Y-7185879D01*
X43967900Y-7176446D01*
X43967900Y-5826368D01*
X44583025Y-5826368D01*
X44614738Y-5934121D01*
X44619331Y-5945489D01*
X44705207Y-6109754D01*
X44711921Y-6120015D01*
X44828068Y-6264473D01*
X44836646Y-6273232D01*
X44978639Y-6392378D01*
X44988759Y-6399308D01*
X45151185Y-6488602D01*
X45162458Y-6493434D01*
X45339138Y-6549480D01*
X45351132Y-6552030D01*
X45495361Y-6568207D01*
X45502385Y-6568600D01*
X45583485Y-6568600D01*
X45598724Y-6564125D01*
X45599929Y-6562735D01*
X45601600Y-6555052D01*
X45601600Y-5832715D01*
X45597125Y-5817476D01*
X45595735Y-5816271D01*
X45588052Y-5814600D01*
X44597676Y-5814600D01*
X44584145Y-5818573D01*
X44583025Y-5826368D01*
X43967900Y-5826368D01*
X43967900Y-5303395D01*
X44584144Y-5303395D01*
X44590899Y-5306600D01*
X45583485Y-5306600D01*
X45598724Y-5302125D01*
X45599929Y-5300735D01*
X45601600Y-5293052D01*
X45601600Y-4570715D01*
X45597125Y-4555476D01*
X45595735Y-4554271D01*
X45588052Y-4552600D01*
X45508943Y-4552600D01*
X45502795Y-4552901D01*
X45364997Y-4566412D01*
X45352962Y-4568795D01*
X45175524Y-4622367D01*
X45164184Y-4627041D01*
X45000523Y-4714060D01*
X44990306Y-4720849D01*
X44846667Y-4837997D01*
X44837963Y-4846641D01*
X44719816Y-4989456D01*
X44712956Y-4999627D01*
X44624796Y-5162676D01*
X44620044Y-5173981D01*
X44584350Y-5289292D01*
X44584144Y-5303395D01*
X43967900Y-5303395D01*
X43967900Y-4659954D01*
X43960946Y-4638552D01*
X43956330Y-4619326D01*
X43954360Y-4606887D01*
X43952809Y-4597094D01*
X43942592Y-4577041D01*
X43935028Y-4558780D01*
X43931136Y-4546803D01*
X43931135Y-4546801D01*
X43928070Y-4537368D01*
X43914840Y-4519159D01*
X43904508Y-4502300D01*
X43898795Y-4491087D01*
X43894292Y-4482249D01*
X43077774Y-3665731D01*
X43043748Y-3603419D01*
X43048813Y-3532604D01*
X43091360Y-3475768D01*
X43157880Y-3450957D01*
X43166869Y-3450636D01*
X45563786Y-3450636D01*
X45572949Y-3451770D01*
X45573004Y-3451006D01*
X45584002Y-3451797D01*
X45594694Y-3454485D01*
X45605663Y-3453354D01*
X45616653Y-3454144D01*
X45616603Y-3454841D01*
X45628843Y-3455163D01*
X45668327Y-3461352D01*
X45774810Y-3478043D01*
X45795273Y-3483033D01*
X45957823Y-3537414D01*
X45977168Y-3545741D01*
X46128401Y-3626447D01*
X46146085Y-3637880D01*
X46164414Y-3652034D01*
X46281749Y-3742643D01*
X46297286Y-3756865D01*
X46413608Y-3882770D01*
X46426557Y-3899381D01*
X46444158Y-3926334D01*
X46520277Y-4042899D01*
X46530279Y-4061436D01*
X46598780Y-4218557D01*
X46605555Y-4238501D01*
X46644262Y-4394128D01*
X46646928Y-4404849D01*
X46650285Y-4425640D01*
X46654229Y-4477160D01*
X46654418Y-4479630D01*
X46639674Y-4549079D01*
X46589724Y-4599532D01*
X46520426Y-4614970D01*
X46490688Y-4609350D01*
X46372062Y-4571720D01*
X46360068Y-4569170D01*
X46215839Y-4552993D01*
X46208815Y-4552600D01*
X46127715Y-4552600D01*
X46112476Y-4557075D01*
X46111271Y-4558465D01*
X46109600Y-4566148D01*
X46109600Y-6550485D01*
X46114075Y-6565724D01*
X46115465Y-6566929D01*
X46123148Y-6568600D01*
X46202257Y-6568600D01*
X46208405Y-6568299D01*
X46346203Y-6554788D01*
X46358235Y-6552406D01*
X46501707Y-6509088D01*
X46572702Y-6508547D01*
X46632719Y-6546474D01*
X46662703Y-6610828D01*
X46664126Y-6629710D01*
X46664126Y-13132211D01*
X46644124Y-13200332D01*
X46590468Y-13246825D01*
X46520194Y-13256929D01*
X46500028Y-13252313D01*
X46372062Y-13211720D01*
X46360068Y-13209170D01*
X46215839Y-13192993D01*
X46208815Y-13192600D01*
X46127715Y-13192600D01*
X46112476Y-13197075D01*
X46111271Y-13198465D01*
X46109600Y-13206148D01*
X46109600Y-15190485D01*
X46114075Y-15205724D01*
X46115465Y-15206929D01*
X46123148Y-15208600D01*
X46202257Y-15208600D01*
X46208405Y-15208299D01*
X46346203Y-15194788D01*
X46358238Y-15192405D01*
X46488607Y-15153044D01*
X46559601Y-15152503D01*
X46619618Y-15190430D01*
X46649602Y-15254785D01*
X46650420Y-15285998D01*
X46648621Y-15304291D01*
X46647207Y-15318664D01*
X46643447Y-15339206D01*
X46618248Y-15432434D01*
X46600989Y-15496283D01*
X46593889Y-15515919D01*
X46532640Y-15649492D01*
X46526069Y-15663822D01*
X46515821Y-15682019D01*
X46424497Y-15816695D01*
X46411387Y-15832946D01*
X46299069Y-15950689D01*
X46283462Y-15964544D01*
X46196595Y-16029630D01*
X46153245Y-16062111D01*
X46135551Y-16073206D01*
X45991004Y-16147925D01*
X45971730Y-16155941D01*
X45852778Y-16194195D01*
X45816825Y-16205757D01*
X45796482Y-16210481D01*
X45724537Y-16221002D01*
X45659115Y-16230569D01*
X45646737Y-16230773D01*
X45646778Y-16231432D01*
X45635779Y-16232117D01*
X45624824Y-16230882D01*
X45614109Y-16233467D01*
X45603105Y-16234153D01*
X45603079Y-16233736D01*
X45593078Y-16234926D01*
X38488670Y-16234926D01*
X38420549Y-16214924D01*
X38374056Y-16161268D01*
X38363952Y-16090994D01*
X38393446Y-16026414D01*
X38399575Y-16019831D01*
X38494850Y-15924556D01*
X38580047Y-15783878D01*
X38585497Y-15766489D01*
X38613403Y-15677439D01*
X38629229Y-15626939D01*
X38635700Y-15556516D01*
X38635700Y-14466368D01*
X40153025Y-14466368D01*
X40184738Y-14574121D01*
X40189331Y-14585489D01*
X40275207Y-14749754D01*
X40281921Y-14760015D01*
X40398068Y-14904473D01*
X40406646Y-14913232D01*
X40548639Y-15032378D01*
X40558759Y-15039308D01*
X40721185Y-15128602D01*
X40732458Y-15133434D01*
X40909138Y-15189480D01*
X40921132Y-15192030D01*
X41065361Y-15208207D01*
X41072385Y-15208600D01*
X41403485Y-15208600D01*
X41418724Y-15204125D01*
X41419929Y-15202735D01*
X41421600Y-15195052D01*
X41421600Y-15190485D01*
X41929600Y-15190485D01*
X41934075Y-15205724D01*
X41935465Y-15206929D01*
X41943148Y-15208600D01*
X42272257Y-15208600D01*
X42278405Y-15208299D01*
X42416203Y-15194788D01*
X42428238Y-15192405D01*
X42605676Y-15138833D01*
X42617016Y-15134159D01*
X42780677Y-15047140D01*
X42790894Y-15040351D01*
X42934533Y-14923203D01*
X42943237Y-14914559D01*
X43061384Y-14771744D01*
X43068244Y-14761573D01*
X43156404Y-14598524D01*
X43161156Y-14587219D01*
X43196850Y-14471908D01*
X43196931Y-14466368D01*
X44583025Y-14466368D01*
X44614738Y-14574121D01*
X44619331Y-14585489D01*
X44705207Y-14749754D01*
X44711921Y-14760015D01*
X44828068Y-14904473D01*
X44836646Y-14913232D01*
X44978639Y-15032378D01*
X44988759Y-15039308D01*
X45151185Y-15128602D01*
X45162458Y-15133434D01*
X45339138Y-15189480D01*
X45351132Y-15192030D01*
X45495361Y-15208207D01*
X45502385Y-15208600D01*
X45583485Y-15208600D01*
X45598724Y-15204125D01*
X45599929Y-15202735D01*
X45601600Y-15195052D01*
X45601600Y-14472715D01*
X45597125Y-14457476D01*
X45595735Y-14456271D01*
X45588052Y-14454600D01*
X44597676Y-14454600D01*
X44584145Y-14458573D01*
X44583025Y-14466368D01*
X43196931Y-14466368D01*
X43197056Y-14457805D01*
X43190301Y-14454600D01*
X41947715Y-14454600D01*
X41932476Y-14459075D01*
X41931271Y-14460465D01*
X41929600Y-14468148D01*
X41929600Y-15190485D01*
X41421600Y-15190485D01*
X41421600Y-14472715D01*
X41417125Y-14457476D01*
X41415735Y-14456271D01*
X41408052Y-14454600D01*
X40167676Y-14454600D01*
X40154145Y-14458573D01*
X40153025Y-14466368D01*
X38635700Y-14466368D01*
X38635700Y-13943395D01*
X40154144Y-13943395D01*
X40160899Y-13946600D01*
X43183524Y-13946600D01*
X43194439Y-13943395D01*
X44584144Y-13943395D01*
X44590899Y-13946600D01*
X45583485Y-13946600D01*
X45598724Y-13942125D01*
X45599929Y-13940735D01*
X45601600Y-13933052D01*
X45601600Y-13210715D01*
X45597125Y-13195476D01*
X45595735Y-13194271D01*
X45588052Y-13192600D01*
X45508943Y-13192600D01*
X45502795Y-13192901D01*
X45364997Y-13206412D01*
X45352962Y-13208795D01*
X45175524Y-13262367D01*
X45164184Y-13267041D01*
X45000523Y-13354060D01*
X44990306Y-13360849D01*
X44846667Y-13477997D01*
X44837963Y-13486641D01*
X44719816Y-13629456D01*
X44712956Y-13639627D01*
X44624796Y-13802676D01*
X44620044Y-13813981D01*
X44584350Y-13929292D01*
X44584144Y-13943395D01*
X43194439Y-13943395D01*
X43197055Y-13942627D01*
X43198175Y-13934832D01*
X43166462Y-13827079D01*
X43161869Y-13815711D01*
X43075993Y-13651446D01*
X43069279Y-13641185D01*
X42953132Y-13496727D01*
X42944554Y-13487968D01*
X42802561Y-13368822D01*
X42792448Y-13361898D01*
X42702931Y-13312685D01*
X42652872Y-13262339D01*
X42637979Y-13192922D01*
X42663669Y-13125567D01*
X42706763Y-13069405D01*
X42706766Y-13069401D01*
X42711792Y-13062850D01*
X42770184Y-12921880D01*
X42790100Y-12770600D01*
X42777720Y-12676564D01*
X42771262Y-12627508D01*
X42770184Y-12619320D01*
X42711792Y-12478350D01*
X42618904Y-12357296D01*
X42497850Y-12264408D01*
X42377175Y-12214423D01*
X42364509Y-12209176D01*
X42356880Y-12206016D01*
X42315004Y-12200503D01*
X42247667Y-12191638D01*
X42247666Y-12191638D01*
X42243580Y-12191100D01*
X42167620Y-12191100D01*
X42163534Y-12191638D01*
X42163533Y-12191638D01*
X42096196Y-12200503D01*
X42054320Y-12206016D01*
X42046691Y-12209176D01*
X42034025Y-12214423D01*
X41913350Y-12264408D01*
X41792296Y-12357296D01*
X41699408Y-12478350D01*
X41641016Y-12619320D01*
X41639938Y-12627508D01*
X41633480Y-12676564D01*
X41621100Y-12770600D01*
X41641016Y-12921880D01*
X41680989Y-13018383D01*
X41688578Y-13088971D01*
X41656799Y-13152458D01*
X41595741Y-13188686D01*
X41564580Y-13192600D01*
X41078943Y-13192600D01*
X41072795Y-13192901D01*
X40934997Y-13206412D01*
X40922962Y-13208795D01*
X40745524Y-13262367D01*
X40734184Y-13267041D01*
X40570523Y-13354060D01*
X40560306Y-13360849D01*
X40416667Y-13477997D01*
X40407963Y-13486641D01*
X40289816Y-13629456D01*
X40282956Y-13639627D01*
X40194796Y-13802676D01*
X40190044Y-13813981D01*
X40154350Y-13929292D01*
X40154144Y-13943395D01*
X38635700Y-13943395D01*
X38635700Y-13297884D01*
X38629229Y-13227461D01*
X38580047Y-13070522D01*
X38494850Y-12929844D01*
X38378556Y-12813550D01*
X38237878Y-12728353D01*
X38230631Y-12726082D01*
X38230629Y-12726081D01*
X38167367Y-12706256D01*
X38080939Y-12679171D01*
X38063203Y-12677541D01*
X38052569Y-12676564D01*
X37986565Y-12650412D01*
X37945177Y-12592727D01*
X37938100Y-12551093D01*
X37938100Y-8510754D01*
X37931146Y-8489352D01*
X37926530Y-8470126D01*
X37924560Y-8457687D01*
X37923009Y-8447894D01*
X37912792Y-8427841D01*
X37905228Y-8409580D01*
X37901336Y-8397603D01*
X37901335Y-8397601D01*
X37898270Y-8388168D01*
X37885040Y-8369959D01*
X37874708Y-8353100D01*
X37868995Y-8341887D01*
X37864492Y-8333049D01*
X36005554Y-6474111D01*
X35989827Y-6454933D01*
X35985983Y-6449170D01*
X35982548Y-6444020D01*
X35976307Y-6437769D01*
X35956603Y-6418034D01*
X35956068Y-6417494D01*
X35928573Y-6389571D01*
X35927123Y-6388073D01*
X35906714Y-6366624D01*
X35904132Y-6363827D01*
X35890468Y-6348569D01*
X35886783Y-6344263D01*
X35879234Y-6335025D01*
X35874696Y-6329124D01*
X35871505Y-6324707D01*
X35866618Y-6317421D01*
X35865415Y-6315485D01*
X35860852Y-6307508D01*
X35859331Y-6304608D01*
X35855628Y-6296926D01*
X35852365Y-6289527D01*
X35849648Y-6282855D01*
X35845084Y-6270662D01*
X35845079Y-6270651D01*
X35843957Y-6267653D01*
X35820486Y-6220299D01*
X35818773Y-6217580D01*
X35817719Y-6215701D01*
X35812916Y-6206223D01*
X35793374Y-6163243D01*
X35703044Y-6058410D01*
X35586921Y-5983143D01*
X35578319Y-5980571D01*
X35578316Y-5980569D01*
X35462944Y-5946066D01*
X35462945Y-5946066D01*
X35454341Y-5943493D01*
X35445365Y-5943438D01*
X35445364Y-5943438D01*
X35386141Y-5943077D01*
X35315962Y-5942648D01*
X35307331Y-5945115D01*
X35307329Y-5945115D01*
X35191541Y-5978207D01*
X35191538Y-5978208D01*
X35182907Y-5980675D01*
X35065873Y-6054518D01*
X34974269Y-6158240D01*
X34970455Y-6166363D01*
X34970454Y-6166365D01*
X34966289Y-6175237D01*
X34915458Y-6283503D01*
X34914078Y-6292368D01*
X34914077Y-6292370D01*
X34895591Y-6411100D01*
X34894168Y-6420237D01*
X34895332Y-6429139D01*
X34895332Y-6429143D01*
X34905711Y-6508513D01*
X34906770Y-6523716D01*
X34906896Y-6537725D01*
X34908718Y-6546474D01*
X34911682Y-6560710D01*
X34912656Y-6565943D01*
X34915759Y-6584808D01*
X34916569Y-6590551D01*
X34918494Y-6606930D01*
X34919026Y-6612543D01*
X34920273Y-6629775D01*
X34920528Y-6634574D01*
X34920910Y-6645803D01*
X34921242Y-6655593D01*
X34921313Y-6659101D01*
X34921479Y-6686348D01*
X34921475Y-6688354D01*
X34921210Y-6714842D01*
X34921127Y-6723090D01*
X34921118Y-6723800D01*
X34920458Y-6765945D01*
X34920448Y-6766605D01*
X34919808Y-6815446D01*
X34919795Y-6816903D01*
X34919789Y-6817519D01*
X34919563Y-6861713D01*
X34920754Y-6867822D01*
X34920754Y-6867823D01*
X34922172Y-6875095D01*
X34924500Y-6899205D01*
X34924500Y-7605680D01*
X34904498Y-7673801D01*
X34887595Y-7694775D01*
X33501176Y-9081195D01*
X33438864Y-9115220D01*
X33412081Y-9118100D01*
X32623970Y-9118100D01*
X32555849Y-9098098D01*
X32509356Y-9044442D01*
X32499252Y-8974168D01*
X32528746Y-8909588D01*
X32534875Y-8903005D01*
X32810612Y-8627268D01*
X32833359Y-8609247D01*
X32835134Y-8608148D01*
X32835138Y-8608145D01*
X32840396Y-8604888D01*
X32857779Y-8588665D01*
X32865769Y-8581809D01*
X32866646Y-8581118D01*
X32910262Y-8558865D01*
X32911091Y-8558630D01*
X32916009Y-8557342D01*
X32939208Y-8551766D01*
X32939603Y-8551672D01*
X32942764Y-8550923D01*
X32973177Y-8543717D01*
X32976514Y-8542903D01*
X32976773Y-8542838D01*
X32980322Y-8541920D01*
X32998624Y-8537051D01*
X33017389Y-8532059D01*
X33017421Y-8532050D01*
X33017640Y-8531992D01*
X33023418Y-8530383D01*
X33023937Y-8530232D01*
X33027046Y-8529287D01*
X33029530Y-8528532D01*
X33029609Y-8528508D01*
X33029956Y-8528402D01*
X33030245Y-8528310D01*
X33030320Y-8528287D01*
X33054304Y-8520673D01*
X33063941Y-8517614D01*
X33079218Y-8510754D01*
X33081726Y-8509628D01*
X33100194Y-8503010D01*
X33103569Y-8502090D01*
X33103572Y-8502089D01*
X33112235Y-8499727D01*
X33230162Y-8427319D01*
X33323027Y-8324724D01*
X33365830Y-8236379D01*
X33379450Y-8208268D01*
X33379451Y-8208266D01*
X33383364Y-8200189D01*
X33406322Y-8063725D01*
X33406468Y-8051800D01*
X33402957Y-8027279D01*
X33388123Y-7923703D01*
X33388122Y-7923701D01*
X33386850Y-7914816D01*
X33329574Y-7788843D01*
X33239244Y-7684010D01*
X33123121Y-7608743D01*
X33114519Y-7606171D01*
X33114516Y-7606169D01*
X32999144Y-7571666D01*
X32999145Y-7571666D01*
X32990541Y-7569093D01*
X32981565Y-7569038D01*
X32981564Y-7569038D01*
X32970493Y-7568971D01*
X32942481Y-7568800D01*
X32874485Y-7548383D01*
X32828320Y-7494445D01*
X32818998Y-7421896D01*
X32821314Y-7408130D01*
X32821314Y-7408125D01*
X32822122Y-7403325D01*
X32822268Y-7391400D01*
X32821214Y-7384034D01*
X32803923Y-7263303D01*
X32803922Y-7263301D01*
X32802650Y-7254416D01*
X32745374Y-7128443D01*
X32655044Y-7023610D01*
X32538921Y-6948343D01*
X32530319Y-6945771D01*
X32530316Y-6945769D01*
X32434398Y-6917084D01*
X32406341Y-6908693D01*
X32397365Y-6908638D01*
X32397364Y-6908638D01*
X32338141Y-6908277D01*
X32267962Y-6907848D01*
X32259331Y-6910315D01*
X32259329Y-6910315D01*
X32143541Y-6943407D01*
X32143538Y-6943408D01*
X32134907Y-6945875D01*
X32017873Y-7019718D01*
X31994837Y-7045802D01*
X31994373Y-7046327D01*
X31934287Y-7084146D01*
X31863293Y-7083476D01*
X31803932Y-7044530D01*
X31785230Y-7015071D01*
X31755947Y-6950666D01*
X31732855Y-6899878D01*
X31642525Y-6795045D01*
X31526402Y-6719778D01*
X31517800Y-6717206D01*
X31517797Y-6717204D01*
X31414620Y-6686348D01*
X31393822Y-6680128D01*
X31384846Y-6680073D01*
X31384845Y-6680073D01*
X31325622Y-6679712D01*
X31255443Y-6679283D01*
X31246812Y-6681750D01*
X31246810Y-6681750D01*
X31131022Y-6714842D01*
X31131019Y-6714843D01*
X31122388Y-6717310D01*
X31005354Y-6791153D01*
X30913750Y-6894875D01*
X30854939Y-7020138D01*
X30853559Y-7029003D01*
X30853558Y-7029005D01*
X30835559Y-7144606D01*
X30833649Y-7156872D01*
X30834813Y-7165774D01*
X30834813Y-7165777D01*
X30850427Y-7285179D01*
X30851592Y-7294086D01*
X30855210Y-7302308D01*
X30856359Y-7306424D01*
X30855412Y-7377415D01*
X30824017Y-7429481D01*
X30823664Y-7429835D01*
X30823457Y-7430041D01*
X30761114Y-7464010D01*
X30690303Y-7458882D01*
X30638988Y-7423114D01*
X30623044Y-7404610D01*
X30506921Y-7329343D01*
X30498319Y-7326771D01*
X30498316Y-7326769D01*
X30406381Y-7299275D01*
X30374341Y-7289693D01*
X30365365Y-7289638D01*
X30365364Y-7289638D01*
X30340820Y-7289488D01*
X30309288Y-7289296D01*
X30241292Y-7268878D01*
X30195127Y-7214940D01*
X30185452Y-7144606D01*
X30196666Y-7108360D01*
X30229850Y-7039868D01*
X30229851Y-7039866D01*
X30233764Y-7031789D01*
X30256722Y-6895325D01*
X30256868Y-6883400D01*
X30254638Y-6867823D01*
X30238523Y-6755303D01*
X30238522Y-6755301D01*
X30237250Y-6746416D01*
X30179974Y-6620443D01*
X30089644Y-6515610D01*
X29973521Y-6440343D01*
X29964919Y-6437771D01*
X29964916Y-6437769D01*
X29849544Y-6403266D01*
X29849545Y-6403266D01*
X29840941Y-6400693D01*
X29831965Y-6400638D01*
X29831964Y-6400638D01*
X29772741Y-6400277D01*
X29702562Y-6399848D01*
X29693931Y-6402315D01*
X29693929Y-6402315D01*
X29578141Y-6435407D01*
X29578138Y-6435408D01*
X29569507Y-6437875D01*
X29452473Y-6511718D01*
X29424666Y-6543203D01*
X29364583Y-6581020D01*
X29293589Y-6580351D01*
X29261694Y-6565527D01*
X29257387Y-6562735D01*
X29186121Y-6516543D01*
X29177519Y-6513971D01*
X29177516Y-6513969D01*
X29078669Y-6484408D01*
X29053541Y-6476893D01*
X29044565Y-6476838D01*
X29044564Y-6476838D01*
X28985341Y-6476477D01*
X28915162Y-6476048D01*
X28906531Y-6478515D01*
X28906529Y-6478515D01*
X28790741Y-6511607D01*
X28790738Y-6511608D01*
X28782107Y-6514075D01*
X28665073Y-6587918D01*
X28659131Y-6594646D01*
X28640766Y-6615440D01*
X28573469Y-6691640D01*
X28569655Y-6699763D01*
X28569654Y-6699765D01*
X28520073Y-6805368D01*
X28519467Y-6806558D01*
X28518956Y-6807747D01*
X28518341Y-6809058D01*
X28515587Y-6814055D01*
X28514735Y-6816739D01*
X28514658Y-6816903D01*
X28514634Y-6817057D01*
X28513712Y-6819960D01*
X28513712Y-6819961D01*
X28507263Y-6840277D01*
X28504801Y-6848031D01*
X28502996Y-6853962D01*
X28502841Y-6854494D01*
X28501206Y-6860363D01*
X28491286Y-6897649D01*
X28490310Y-6901430D01*
X28490239Y-6901714D01*
X28489482Y-6904822D01*
X28481462Y-6938670D01*
X28479137Y-6948343D01*
X28475857Y-6961991D01*
X28474580Y-6966869D01*
X28474345Y-6967699D01*
X28452033Y-7011415D01*
X28451560Y-7012015D01*
X28451333Y-7012303D01*
X28444530Y-7020226D01*
X28428307Y-7037610D01*
X28423131Y-7045808D01*
X28405688Y-7067631D01*
X27717002Y-7756318D01*
X27052525Y-8420795D01*
X26990213Y-8454820D01*
X26963430Y-8457700D01*
X16332680Y-8457700D01*
X16264559Y-8437698D01*
X16218066Y-8384042D01*
X16210918Y-8364103D01*
X16202793Y-8333563D01*
X16201158Y-8327694D01*
X16201003Y-8327162D01*
X16199200Y-8321238D01*
X16188415Y-8287262D01*
X16186044Y-8281980D01*
X16171294Y-8249132D01*
X16164090Y-8233089D01*
X16161938Y-8229471D01*
X16161371Y-8228519D01*
X16161455Y-8228469D01*
X16160577Y-8226779D01*
X16160758Y-8226685D01*
X16154704Y-8215875D01*
X16137490Y-8178015D01*
X16137489Y-8178013D01*
X16133774Y-8169843D01*
X16043444Y-8065010D01*
X15927321Y-7989743D01*
X15918719Y-7987171D01*
X15918716Y-7987169D01*
X15827644Y-7959933D01*
X15794741Y-7950093D01*
X15785765Y-7950038D01*
X15785764Y-7950038D01*
X15726541Y-7949677D01*
X15656362Y-7949248D01*
X15647731Y-7951715D01*
X15647729Y-7951715D01*
X15531941Y-7984807D01*
X15531938Y-7984808D01*
X15523307Y-7987275D01*
X15406273Y-8061118D01*
X15314669Y-8164840D01*
X15310855Y-8172963D01*
X15310854Y-8172965D01*
X15293496Y-8209937D01*
X15255858Y-8290103D01*
X15254478Y-8298968D01*
X15254477Y-8298970D01*
X15238603Y-8400924D01*
X15234568Y-8426837D01*
X15235732Y-8435739D01*
X15235732Y-8435742D01*
X15251346Y-8555146D01*
X15251347Y-8555150D01*
X15252511Y-8564051D01*
X15308244Y-8690714D01*
X15397287Y-8796643D01*
X15512481Y-8873323D01*
X15543514Y-8883019D01*
X15566760Y-8892937D01*
X15577055Y-8898612D01*
X15611038Y-8909400D01*
X15617062Y-8911232D01*
X15617581Y-8911383D01*
X15623359Y-8912992D01*
X15623578Y-8913050D01*
X15623610Y-8913059D01*
X15660534Y-8922882D01*
X15660677Y-8922920D01*
X15664226Y-8923838D01*
X15664485Y-8923903D01*
X15667822Y-8924717D01*
X15701396Y-8932672D01*
X15701791Y-8932766D01*
X15724990Y-8938342D01*
X15729908Y-8939630D01*
X15730737Y-8939865D01*
X15774353Y-8962118D01*
X15775230Y-8962809D01*
X15783219Y-8969663D01*
X15800606Y-8985890D01*
X15805601Y-8989044D01*
X15805608Y-8989049D01*
X15808671Y-8990982D01*
X15837929Y-9016534D01*
X15862351Y-9045639D01*
X15871898Y-9051151D01*
X15895583Y-9064826D01*
X15904839Y-9070722D01*
X15936283Y-9092740D01*
X15946935Y-9095594D01*
X15950314Y-9097170D01*
X15953804Y-9098440D01*
X15963349Y-9103951D01*
X15974202Y-9105865D01*
X15974203Y-9105865D01*
X16001153Y-9110617D01*
X16011882Y-9112996D01*
X16020183Y-9115220D01*
X16048933Y-9122923D01*
X16059909Y-9121963D01*
X16059910Y-9121963D01*
X16087160Y-9119579D01*
X16098140Y-9119100D01*
X16235664Y-9119100D01*
X16303785Y-9139102D01*
X16350278Y-9192758D01*
X16360164Y-9264484D01*
X16352168Y-9315837D01*
X16353332Y-9324739D01*
X16353332Y-9324742D01*
X16368946Y-9444146D01*
X16368947Y-9444150D01*
X16370111Y-9453051D01*
X16425844Y-9579714D01*
X16514887Y-9685643D01*
X16630081Y-9762323D01*
X16723490Y-9791506D01*
X16753598Y-9800913D01*
X16753599Y-9800913D01*
X16762167Y-9803590D01*
X16827799Y-9804792D01*
X16891548Y-9805961D01*
X16891551Y-9805961D01*
X16900526Y-9806125D01*
X16909189Y-9803763D01*
X16909191Y-9803763D01*
X17025371Y-9772089D01*
X17034035Y-9769727D01*
X17151962Y-9697319D01*
X17244827Y-9594724D01*
X17293162Y-9494961D01*
X17340865Y-9442378D01*
X17406554Y-9423900D01*
X17783804Y-9423900D01*
X17851925Y-9443902D01*
X17898418Y-9497558D01*
X17908522Y-9567832D01*
X17897859Y-9603448D01*
X17846658Y-9712503D01*
X17845278Y-9721368D01*
X17845277Y-9721370D01*
X17832081Y-9806125D01*
X17825368Y-9849237D01*
X17826532Y-9858139D01*
X17826532Y-9858142D01*
X17840684Y-9966363D01*
X17829684Y-10036502D01*
X17782509Y-10089559D01*
X17715748Y-10108700D01*
X15697740Y-10108700D01*
X15668914Y-10105358D01*
X15660858Y-10103465D01*
X15654674Y-10103252D01*
X15654670Y-10103251D01*
X15637086Y-10102644D01*
X15626693Y-10101854D01*
X15626421Y-10101822D01*
X15625578Y-10101722D01*
X15578966Y-10086639D01*
X15578236Y-10086232D01*
X15573809Y-10083644D01*
X15552894Y-10070834D01*
X15523714Y-10052835D01*
X15520752Y-10051034D01*
X15520478Y-10050870D01*
X15517360Y-10049034D01*
X15517337Y-10049021D01*
X15517290Y-10048993D01*
X15484246Y-10029836D01*
X15483989Y-10029687D01*
X15478784Y-10026749D01*
X15478298Y-10026482D01*
X15478044Y-10026347D01*
X15478010Y-10026328D01*
X15473058Y-10023685D01*
X15472719Y-10023504D01*
X15472406Y-10023342D01*
X15472374Y-10023325D01*
X15444263Y-10008762D01*
X15441061Y-10007103D01*
X15436755Y-10005466D01*
X15428686Y-10002073D01*
X15426858Y-10001228D01*
X15419321Y-9996343D01*
X15388617Y-9987161D01*
X15388728Y-9986790D01*
X15387254Y-9986642D01*
X15385581Y-9986006D01*
X15382058Y-9985111D01*
X15381735Y-9985009D01*
X15377589Y-9983862D01*
X15319075Y-9966363D01*
X15286741Y-9956693D01*
X15277765Y-9956638D01*
X15277764Y-9956638D01*
X15218541Y-9956277D01*
X15148362Y-9955848D01*
X15139731Y-9958315D01*
X15139729Y-9958315D01*
X15023941Y-9991407D01*
X15023938Y-9991408D01*
X15015307Y-9993875D01*
X14898273Y-10067718D01*
X14806669Y-10171440D01*
X14747858Y-10296703D01*
X14726568Y-10433437D01*
X14727732Y-10442341D01*
X14727623Y-10451312D01*
X14725683Y-10451288D01*
X14716441Y-10510231D01*
X14669268Y-10563290D01*
X14600898Y-10582423D01*
X14533038Y-10561555D01*
X14513408Y-10545528D01*
X12450038Y-8482158D01*
X12416012Y-8419846D01*
X12421077Y-8349031D01*
X12450038Y-8303968D01*
X12510250Y-8243756D01*
X12595447Y-8103078D01*
X12599896Y-8088883D01*
X12625350Y-8007658D01*
X12644629Y-7946139D01*
X12651100Y-7875716D01*
X12651100Y-6917084D01*
X12644629Y-6846661D01*
X12606397Y-6724664D01*
X12597719Y-6696971D01*
X12597718Y-6696969D01*
X12595447Y-6689722D01*
X12510250Y-6549044D01*
X12393956Y-6432750D01*
X12301153Y-6376547D01*
X12253246Y-6324150D01*
X12241273Y-6254170D01*
X12269034Y-6188826D01*
X12309221Y-6156504D01*
X12476666Y-6071186D01*
X12487677Y-6064036D01*
X12629838Y-5948915D01*
X12639115Y-5939638D01*
X12754236Y-5797477D01*
X12761386Y-5786466D01*
X12844432Y-5623479D01*
X12849136Y-5611225D01*
X12896695Y-5433734D01*
X12898642Y-5422401D01*
X12904407Y-5349154D01*
X12904600Y-5344228D01*
X12904600Y-5128515D01*
X12900125Y-5113276D01*
X12898735Y-5112071D01*
X12891052Y-5110400D01*
X10768600Y-5110400D01*
X10700479Y-5090398D01*
X10653986Y-5036742D01*
X10642600Y-4984400D01*
X10642600Y-4728400D01*
X10662602Y-4660279D01*
X10716258Y-4613786D01*
X10768600Y-4602400D01*
X12886484Y-4602400D01*
X12901723Y-4597925D01*
X12902928Y-4596535D01*
X12904599Y-4588852D01*
X12904599Y-4368575D01*
X12904405Y-4363644D01*
X12898642Y-4290397D01*
X12896695Y-4279068D01*
X12849136Y-4101575D01*
X12844432Y-4089321D01*
X12761386Y-3926334D01*
X12754236Y-3915323D01*
X12639115Y-3773162D01*
X12629838Y-3763885D01*
X12519527Y-3674556D01*
X12479175Y-3616142D01*
X12476811Y-3545184D01*
X12513184Y-3484213D01*
X12576746Y-3452585D01*
X12598822Y-3450636D01*
X27470530Y-3450636D01*
X27538651Y-3470638D01*
G37*
G04 #@! TD.AperFunction*
G04 #@! TA.AperFunction,Conductor*
G36*
X27889988Y-10967902D02*
G01*
X27936481Y-11021558D01*
X27946585Y-11091832D01*
X27917091Y-11156412D01*
X27910962Y-11162995D01*
X25803308Y-13270649D01*
X25798805Y-13279487D01*
X25793092Y-13290700D01*
X25782760Y-13307559D01*
X25769530Y-13325768D01*
X25766465Y-13335201D01*
X25766464Y-13335203D01*
X25762572Y-13347180D01*
X25755008Y-13365441D01*
X25744791Y-13385494D01*
X25743240Y-13395287D01*
X25741270Y-13407726D01*
X25736654Y-13426952D01*
X25729700Y-13448354D01*
X25729700Y-14376609D01*
X25709698Y-14444730D01*
X25692795Y-14465704D01*
X25286104Y-14872395D01*
X25223792Y-14906421D01*
X25197009Y-14909300D01*
X20616856Y-14909300D01*
X20592172Y-14906858D01*
X20579322Y-14904291D01*
X20571889Y-14904285D01*
X20542657Y-14904261D01*
X20541787Y-14904257D01*
X20502809Y-14903956D01*
X20500655Y-14903921D01*
X20483176Y-14903487D01*
X20470862Y-14903181D01*
X20467109Y-14903031D01*
X20446708Y-14901906D01*
X20441065Y-14901467D01*
X20429190Y-14900272D01*
X20421796Y-14899307D01*
X20416429Y-14898442D01*
X20407812Y-14896744D01*
X20405590Y-14896225D01*
X20396737Y-14893814D01*
X20393617Y-14892841D01*
X20385554Y-14890024D01*
X20377984Y-14887087D01*
X20371369Y-14884301D01*
X20356595Y-14877575D01*
X20351475Y-14875848D01*
X20350485Y-14875454D01*
X20346921Y-14873143D01*
X20338319Y-14870571D01*
X20338318Y-14870570D01*
X20318532Y-14864653D01*
X20314356Y-14863325D01*
X20309645Y-14861736D01*
X20306598Y-14860708D01*
X20303457Y-14859994D01*
X20300388Y-14859130D01*
X20300392Y-14859116D01*
X20297318Y-14858308D01*
X20264620Y-14848530D01*
X20214341Y-14833493D01*
X20205365Y-14833438D01*
X20205364Y-14833438D01*
X20146141Y-14833077D01*
X20075962Y-14832648D01*
X20067331Y-14835115D01*
X20067329Y-14835115D01*
X19951541Y-14868207D01*
X19951538Y-14868208D01*
X19942907Y-14870675D01*
X19936111Y-14874964D01*
X19931949Y-14876601D01*
X19927810Y-14877573D01*
X19913052Y-14884291D01*
X19906424Y-14887083D01*
X19898846Y-14890023D01*
X19890798Y-14892836D01*
X19887676Y-14893810D01*
X19878809Y-14896225D01*
X19876587Y-14896744D01*
X19867970Y-14898442D01*
X19862603Y-14899307D01*
X19855204Y-14900273D01*
X19843341Y-14901466D01*
X19837691Y-14901906D01*
X19817289Y-14903032D01*
X19813544Y-14903181D01*
X19800670Y-14903501D01*
X19783855Y-14903919D01*
X19781703Y-14903954D01*
X19742667Y-14904257D01*
X19741792Y-14904261D01*
X19711261Y-14904286D01*
X19705078Y-14904291D01*
X19695918Y-14906119D01*
X19692189Y-14906863D01*
X19667530Y-14909300D01*
X14597133Y-14909300D01*
X14529012Y-14889298D01*
X14508038Y-14872395D01*
X12687674Y-13052031D01*
X12653648Y-12989719D01*
X12650932Y-12957539D01*
X12651100Y-12955716D01*
X12651100Y-12242300D01*
X12671102Y-12174179D01*
X12724758Y-12127686D01*
X12777100Y-12116300D01*
X19320282Y-12116300D01*
X19331263Y-12116779D01*
X19358522Y-12119164D01*
X19358523Y-12119164D01*
X19369498Y-12120124D01*
X19406570Y-12110191D01*
X19417284Y-12107816D01*
X19434932Y-12104704D01*
X19444228Y-12103065D01*
X19444229Y-12103065D01*
X19455082Y-12101151D01*
X19464627Y-12095640D01*
X19468120Y-12094369D01*
X19471498Y-12092794D01*
X19482147Y-12089940D01*
X19491178Y-12083616D01*
X19491181Y-12083615D01*
X19513586Y-12067927D01*
X19522855Y-12062022D01*
X19524248Y-12061218D01*
X19556080Y-12042839D01*
X19563164Y-12034396D01*
X19563167Y-12034394D01*
X19580753Y-12013436D01*
X19588179Y-12005332D01*
X20608706Y-10984805D01*
X20671018Y-10950779D01*
X20697801Y-10947900D01*
X27821867Y-10947900D01*
X27889988Y-10967902D01*
G37*
G04 #@! TD.AperFunction*
G04 #@! TD*
M02*
