G04 #@! TF.GenerationSoftware,KiCad,Pcbnew,(6.0.11-0)*
G04 #@! TF.CreationDate,2023-02-06T17:09:19+08:00*
G04 #@! TF.ProjectId,us3c,75733363-2e6b-4696-9361-645f70636258,rev?*
G04 #@! TF.SameCoordinates,Original*
G04 #@! TF.FileFunction,Legend,Bot*
G04 #@! TF.FilePolarity,Positive*
%FSLAX46Y46*%
G04 Gerber Fmt 4.6, Leading zero omitted, Abs format (unit mm)*
G04 Created by KiCad (PCBNEW (6.0.11-0)) date 2023-02-06 17:09:19*
%MOMM*%
%LPD*%
G01*
G04 APERTURE LIST*
G04 Aperture macros list*
%AMRoundRect*
0 Rectangle with rounded corners*
0 $1 Rounding radius*
0 $2 $3 $4 $5 $6 $7 $8 $9 X,Y pos of 4 corners*
0 Add a 4 corners polygon primitive as box body*
4,1,4,$2,$3,$4,$5,$6,$7,$8,$9,$2,$3,0*
0 Add four circle primitives for the rounded corners*
1,1,$1+$1,$2,$3*
1,1,$1+$1,$4,$5*
1,1,$1+$1,$6,$7*
1,1,$1+$1,$8,$9*
0 Add four rect primitives between the rounded corners*
20,1,$1+$1,$2,$3,$4,$5,0*
20,1,$1+$1,$4,$5,$6,$7,0*
20,1,$1+$1,$6,$7,$8,$9,0*
20,1,$1+$1,$8,$9,$2,$3,0*%
%AMRotRect*
0 Rectangle, with rotation*
0 The origin of the aperture is its center*
0 $1 length*
0 $2 width*
0 $3 Rotation angle, in degrees counterclockwise*
0 Add horizontal line*
21,1,$1,$2,0,0,$3*%
G04 Aperture macros list end*
%ADD10C,0.150000*%
%ADD11C,0.304800*%
%ADD12C,0.203200*%
%ADD13C,0.120000*%
%ADD14C,0.650000*%
%ADD15O,1.600000X1.000000*%
%ADD16O,2.100000X1.000000*%
%ADD17R,0.700000X1.400000*%
%ADD18R,0.700000X1.200000*%
%ADD19R,1.200000X0.800000*%
%ADD20R,1.200000X1.200000*%
%ADD21RotRect,0.200000X0.200000X135.000000*%
%ADD22R,1.500000X1.900000*%
%ADD23R,1.000000X1.400000*%
%ADD24R,0.500000X0.500000*%
%ADD25R,1.200000X3.200000*%
%ADD26RoundRect,0.425000X0.425000X-0.425000X0.425000X0.425000X-0.425000X0.425000X-0.425000X-0.425000X0*%
%ADD27RoundRect,0.155000X-0.155000X0.212500X-0.155000X-0.212500X0.155000X-0.212500X0.155000X0.212500X0*%
G04 APERTURE END LIST*
D10*
X33062097Y-22303971D02*
X32754202Y-22611866D01*
X33446965Y-22996734D02*
X32908149Y-22457919D01*
X32754202Y-23586865D02*
X32805518Y-23586865D01*
X32908149Y-23535549D01*
X32959465Y-23484234D01*
X33010781Y-23381602D01*
X33010781Y-23278971D01*
X32985123Y-23201997D01*
X32908149Y-23073708D01*
X32831176Y-22996734D01*
X32702886Y-22919760D01*
X32625913Y-22894102D01*
X32523281Y-22894102D01*
X32420650Y-22945418D01*
X32369334Y-22996734D01*
X32318018Y-23099365D01*
X32318018Y-23150681D01*
X32574597Y-23869102D02*
X32035782Y-23330286D01*
X32266702Y-24176996D02*
X32189729Y-23638181D01*
X31727887Y-23638181D02*
X32343676Y-23638181D01*
X40464778Y-22394290D02*
X40156884Y-22702184D01*
X40849646Y-23087052D02*
X40310831Y-22548237D01*
X40516094Y-23420605D02*
X39977279Y-22881789D01*
X39848989Y-23010079D01*
X39797674Y-23112710D01*
X39797674Y-23215342D01*
X39823331Y-23292315D01*
X39900305Y-23420605D01*
X39977279Y-23497578D01*
X40105568Y-23574552D01*
X40182542Y-23600210D01*
X40285173Y-23600210D01*
X40387805Y-23548894D01*
X40516094Y-23420605D01*
X39977279Y-23959420D02*
X39438463Y-23420605D01*
X30973946Y-22904353D02*
X30435131Y-22365537D01*
X30666051Y-23212247D01*
X30127236Y-22673432D01*
X30101578Y-23776720D02*
X30024605Y-23340537D01*
X30409473Y-23468826D02*
X29870657Y-22930011D01*
X29665394Y-23135274D01*
X29639737Y-23212247D01*
X29639737Y-23263563D01*
X29665394Y-23340537D01*
X29742368Y-23417510D01*
X29819342Y-23443168D01*
X29870657Y-23443168D01*
X29947631Y-23417510D01*
X30152894Y-23212247D01*
X29870657Y-23956325D02*
X29819342Y-24058957D01*
X29691052Y-24187246D01*
X29614079Y-24212904D01*
X29562763Y-24212904D01*
X29485789Y-24187246D01*
X29434474Y-24135931D01*
X29408816Y-24058957D01*
X29408816Y-24007641D01*
X29434474Y-23930668D01*
X29511447Y-23802378D01*
X29537105Y-23725405D01*
X29537105Y-23674089D01*
X29511447Y-23597115D01*
X29460131Y-23545799D01*
X29383158Y-23520142D01*
X29331842Y-23520142D01*
X29254868Y-23545800D01*
X29126579Y-23674089D01*
X29075263Y-23776720D01*
X28895658Y-23905010D02*
X28587764Y-24212904D01*
X29280526Y-24597772D02*
X28741711Y-24058957D01*
D11*
X82131746Y-21793200D02*
X82131746Y-22978533D01*
X82893746Y-21793200D02*
X82893746Y-22724533D01*
X82809080Y-22893866D01*
X82639746Y-22978533D01*
X82385746Y-22978533D01*
X82216413Y-22893866D01*
X82131746Y-22809200D01*
X81369746Y-22893866D02*
X81200413Y-22978533D01*
X80861746Y-22978533D01*
X80692413Y-22893866D01*
X80607746Y-22724533D01*
X80607746Y-22639866D01*
X80692413Y-22470533D01*
X80861746Y-22385866D01*
X81115746Y-22385866D01*
X81285080Y-22301200D01*
X81369746Y-22131866D01*
X81369746Y-22047200D01*
X81285080Y-21877866D01*
X81115746Y-21793200D01*
X80861746Y-21793200D01*
X80692413Y-21877866D01*
X80015080Y-21200533D02*
X78914413Y-21200533D01*
X79507080Y-21877866D01*
X79253080Y-21877866D01*
X79083746Y-21962533D01*
X78999080Y-22047200D01*
X78914413Y-22216533D01*
X78914413Y-22639866D01*
X78999080Y-22809200D01*
X79083746Y-22893866D01*
X79253080Y-22978533D01*
X79761080Y-22978533D01*
X79930413Y-22893866D01*
X80015080Y-22809200D01*
X77390413Y-22893866D02*
X77559746Y-22978533D01*
X77898413Y-22978533D01*
X78067746Y-22893866D01*
X78152413Y-22809200D01*
X78237080Y-22639866D01*
X78237080Y-22131866D01*
X78152413Y-21962533D01*
X78067746Y-21877866D01*
X77898413Y-21793200D01*
X77559746Y-21793200D01*
X77390413Y-21877866D01*
X74511746Y-21793200D02*
X74511746Y-22978533D01*
X75273746Y-21793200D02*
X75273746Y-22724533D01*
X75189080Y-22893866D01*
X75019746Y-22978533D01*
X74765746Y-22978533D01*
X74596413Y-22893866D01*
X74511746Y-22809200D01*
X73411080Y-22978533D02*
X73580413Y-22893866D01*
X73665080Y-22724533D01*
X73665080Y-21200533D01*
X72987746Y-21793200D02*
X72310413Y-21793200D01*
X72733746Y-21200533D02*
X72733746Y-22724533D01*
X72649080Y-22893866D01*
X72479746Y-22978533D01*
X72310413Y-22978533D01*
X71717746Y-22978533D02*
X71717746Y-21793200D01*
X71717746Y-22131866D02*
X71633080Y-21962533D01*
X71548413Y-21877866D01*
X71379080Y-21793200D01*
X71209746Y-21793200D01*
X69855080Y-22978533D02*
X69855080Y-22047200D01*
X69939746Y-21877866D01*
X70109080Y-21793200D01*
X70447746Y-21793200D01*
X70617080Y-21877866D01*
X69855080Y-22893866D02*
X70024413Y-22978533D01*
X70447746Y-22978533D01*
X70617080Y-22893866D01*
X70701746Y-22724533D01*
X70701746Y-22555200D01*
X70617080Y-22385866D01*
X70447746Y-22301200D01*
X70024413Y-22301200D01*
X69855080Y-22216533D01*
X66722413Y-22978533D02*
X67738413Y-22978533D01*
X67230413Y-22978533D02*
X67230413Y-21200533D01*
X67399746Y-21454533D01*
X67569080Y-21623866D01*
X67738413Y-21708533D01*
X65960413Y-22809200D02*
X65875746Y-22893866D01*
X65960413Y-22978533D01*
X66045080Y-22893866D01*
X65960413Y-22809200D01*
X65960413Y-22978533D01*
X64775080Y-21200533D02*
X64605746Y-21200533D01*
X64436413Y-21285200D01*
X64351746Y-21369866D01*
X64267080Y-21539200D01*
X64182413Y-21877866D01*
X64182413Y-22301200D01*
X64267080Y-22639866D01*
X64351746Y-22809200D01*
X64436413Y-22893866D01*
X64605746Y-22978533D01*
X64775080Y-22978533D01*
X64944413Y-22893866D01*
X65029080Y-22809200D01*
X65113746Y-22639866D01*
X65198413Y-22301200D01*
X65198413Y-21877866D01*
X65113746Y-21539200D01*
X65029080Y-21369866D01*
X64944413Y-21285200D01*
X64775080Y-21200533D01*
D10*
X38129525Y-22316542D02*
X37821631Y-22624437D01*
X38514394Y-23009305D02*
X37975578Y-22470490D01*
X38180841Y-23342857D02*
X37642026Y-22804042D01*
X37513737Y-22932331D01*
X37462421Y-23034963D01*
X37462421Y-23137594D01*
X37488079Y-23214568D01*
X37565052Y-23342857D01*
X37642026Y-23419831D01*
X37770315Y-23496805D01*
X37847289Y-23522462D01*
X37949920Y-23522462D01*
X38052552Y-23471147D01*
X38180841Y-23342857D01*
X37000579Y-23445489D02*
X36897948Y-23548120D01*
X36872290Y-23625094D01*
X36872290Y-23727725D01*
X36949263Y-23856015D01*
X37128868Y-24035620D01*
X37257158Y-24112594D01*
X37359789Y-24112594D01*
X37436763Y-24086936D01*
X37539394Y-23984304D01*
X37565052Y-23907331D01*
X37565052Y-23804699D01*
X37488079Y-23676410D01*
X37308474Y-23496805D01*
X37180184Y-23419831D01*
X37077553Y-23419831D01*
X37000579Y-23445489D01*
X42559118Y-22484866D02*
X42584776Y-22407892D01*
X42661749Y-22330919D01*
X42764381Y-22279603D01*
X42867012Y-22279603D01*
X42943986Y-22305261D01*
X43072275Y-22382234D01*
X43149249Y-22459208D01*
X43226223Y-22587497D01*
X43251880Y-22664471D01*
X43251880Y-22767102D01*
X43200565Y-22869734D01*
X43149249Y-22921050D01*
X43046617Y-22972365D01*
X42995302Y-22972365D01*
X42815697Y-22792760D01*
X42918328Y-22690129D01*
X42815697Y-23254602D02*
X42276881Y-22715787D01*
X42507802Y-23562497D01*
X41968987Y-23023681D01*
X42251223Y-23819075D02*
X41712408Y-23280260D01*
X41584119Y-23408549D01*
X41532803Y-23511181D01*
X41532803Y-23613812D01*
X41558461Y-23690786D01*
X41635434Y-23819075D01*
X41712408Y-23896049D01*
X41840697Y-23973023D01*
X41917671Y-23998680D01*
X42020302Y-23998680D01*
X42122934Y-23947365D01*
X42251223Y-23819075D01*
X35551554Y-22379913D02*
X35243660Y-22687808D01*
X35936423Y-23072676D02*
X35397607Y-22533861D01*
X35602870Y-23406228D02*
X35064055Y-22867413D01*
X35269318Y-23431886D01*
X34704845Y-23226623D01*
X35243660Y-23765439D01*
X34987081Y-23970702D02*
X34935765Y-24073333D01*
X34807476Y-24201623D01*
X34730502Y-24227280D01*
X34679187Y-24227280D01*
X34602213Y-24201623D01*
X34550897Y-24150307D01*
X34525239Y-24073333D01*
X34525239Y-24022017D01*
X34550897Y-23945044D01*
X34627871Y-23816754D01*
X34653529Y-23739781D01*
X34653529Y-23688465D01*
X34627871Y-23611491D01*
X34576555Y-23560176D01*
X34499582Y-23534518D01*
X34448266Y-23534518D01*
X34371292Y-23560176D01*
X34243003Y-23688465D01*
X34191687Y-23791097D01*
D12*
X83304500Y-26853666D02*
X83304500Y-25456666D01*
X82971881Y-25456666D01*
X82772310Y-25523190D01*
X82639262Y-25656237D01*
X82572739Y-25789285D01*
X82506215Y-26055380D01*
X82506215Y-26254951D01*
X82572739Y-26521047D01*
X82639262Y-26654094D01*
X82772310Y-26787142D01*
X82971881Y-26853666D01*
X83304500Y-26853666D01*
X81375310Y-26787142D02*
X81508358Y-26853666D01*
X81774453Y-26853666D01*
X81907500Y-26787142D01*
X81974024Y-26654094D01*
X81974024Y-26121904D01*
X81907500Y-25988856D01*
X81774453Y-25922332D01*
X81508358Y-25922332D01*
X81375310Y-25988856D01*
X81308786Y-26121904D01*
X81308786Y-26254951D01*
X81974024Y-26387999D01*
X80776596Y-26787142D02*
X80643548Y-26853666D01*
X80377453Y-26853666D01*
X80244405Y-26787142D01*
X80177881Y-26654094D01*
X80177881Y-26587570D01*
X80244405Y-26454523D01*
X80377453Y-26387999D01*
X80577024Y-26387999D01*
X80710072Y-26321475D01*
X80776596Y-26188428D01*
X80776596Y-26121904D01*
X80710072Y-25988856D01*
X80577024Y-25922332D01*
X80377453Y-25922332D01*
X80244405Y-25988856D01*
X79579167Y-26853666D02*
X79579167Y-25922332D01*
X79579167Y-25456666D02*
X79645691Y-25523190D01*
X79579167Y-25589713D01*
X79512643Y-25523190D01*
X79579167Y-25456666D01*
X79579167Y-25589713D01*
X78315215Y-25922332D02*
X78315215Y-27053237D01*
X78381739Y-27186285D01*
X78448262Y-27252809D01*
X78581310Y-27319332D01*
X78780881Y-27319332D01*
X78913929Y-27252809D01*
X78315215Y-26787142D02*
X78448262Y-26853666D01*
X78714358Y-26853666D01*
X78847405Y-26787142D01*
X78913929Y-26720618D01*
X78980453Y-26587570D01*
X78980453Y-26188428D01*
X78913929Y-26055380D01*
X78847405Y-25988856D01*
X78714358Y-25922332D01*
X78448262Y-25922332D01*
X78315215Y-25988856D01*
X77649977Y-25922332D02*
X77649977Y-26853666D01*
X77649977Y-26055380D02*
X77583453Y-25988856D01*
X77450405Y-25922332D01*
X77250834Y-25922332D01*
X77117786Y-25988856D01*
X77051262Y-26121904D01*
X77051262Y-26853666D01*
X75853834Y-26787142D02*
X75986881Y-26853666D01*
X76252977Y-26853666D01*
X76386024Y-26787142D01*
X76452548Y-26654094D01*
X76452548Y-26121904D01*
X76386024Y-25988856D01*
X76252977Y-25922332D01*
X75986881Y-25922332D01*
X75853834Y-25988856D01*
X75787310Y-26121904D01*
X75787310Y-26254951D01*
X76452548Y-26387999D01*
X74589881Y-26853666D02*
X74589881Y-25456666D01*
X74589881Y-26787142D02*
X74722929Y-26853666D01*
X74989024Y-26853666D01*
X75122072Y-26787142D01*
X75188596Y-26720618D01*
X75255120Y-26587570D01*
X75255120Y-26188428D01*
X75188596Y-26055380D01*
X75122072Y-25988856D01*
X74989024Y-25922332D01*
X74722929Y-25922332D01*
X74589881Y-25988856D01*
X72394596Y-26121904D02*
X72195024Y-26188428D01*
X72128500Y-26254951D01*
X72061977Y-26387999D01*
X72061977Y-26587570D01*
X72128500Y-26720618D01*
X72195024Y-26787142D01*
X72328072Y-26853666D01*
X72860262Y-26853666D01*
X72860262Y-25456666D01*
X72394596Y-25456666D01*
X72261548Y-25523190D01*
X72195024Y-25589713D01*
X72128500Y-25722761D01*
X72128500Y-25855809D01*
X72195024Y-25988856D01*
X72261548Y-26055380D01*
X72394596Y-26121904D01*
X72860262Y-26121904D01*
X71596310Y-25922332D02*
X71263691Y-26853666D01*
X70931072Y-25922332D02*
X71263691Y-26853666D01*
X71396739Y-27186285D01*
X71463262Y-27252809D01*
X71596310Y-27319332D01*
X69334500Y-25922332D02*
X69334500Y-27119761D01*
X69401024Y-27252809D01*
X69534072Y-27319332D01*
X69600596Y-27319332D01*
X69334500Y-25456666D02*
X69401024Y-25523190D01*
X69334500Y-25589713D01*
X69267977Y-25523190D01*
X69334500Y-25456666D01*
X69334500Y-25589713D01*
X68469691Y-26853666D02*
X68602739Y-26787142D01*
X68669262Y-26654094D01*
X68669262Y-25456666D01*
X68070548Y-25922332D02*
X67737929Y-26853666D01*
X67405310Y-25922332D02*
X67737929Y-26853666D01*
X67870977Y-27186285D01*
X67937500Y-27252809D01*
X68070548Y-27319332D01*
X67006167Y-25922332D02*
X66740072Y-26853666D01*
X66473977Y-26188428D01*
X66207881Y-26853666D01*
X65941786Y-25922332D01*
X65542643Y-26853666D02*
X64810881Y-25922332D01*
X65542643Y-25922332D02*
X64810881Y-26853666D01*
X64411739Y-25922332D02*
X64079120Y-26853666D01*
X63746500Y-25922332D02*
X64079120Y-26853666D01*
X64212167Y-27186285D01*
X64278691Y-27252809D01*
X64411739Y-27319332D01*
X62349500Y-26188428D02*
X62416024Y-26121904D01*
X62549072Y-26055380D01*
X62682120Y-26055380D01*
X62815167Y-26121904D01*
X62881691Y-26188428D01*
X62948215Y-26321475D01*
X62948215Y-26454523D01*
X62881691Y-26587570D01*
X62815167Y-26654094D01*
X62682120Y-26720618D01*
X62549072Y-26720618D01*
X62416024Y-26654094D01*
X62349500Y-26587570D01*
X62349500Y-26055380D02*
X62349500Y-26587570D01*
X62282977Y-26654094D01*
X62216453Y-26654094D01*
X62083405Y-26587570D01*
X62016881Y-26454523D01*
X62016881Y-26121904D01*
X62149929Y-25922332D01*
X62349500Y-25789285D01*
X62615596Y-25722761D01*
X62881691Y-25789285D01*
X63081262Y-25922332D01*
X63214310Y-26121904D01*
X63280834Y-26387999D01*
X63214310Y-26654094D01*
X63081262Y-26853666D01*
X62881691Y-26986713D01*
X62615596Y-27053237D01*
X62349500Y-26986713D01*
X62149929Y-26853666D01*
X61484691Y-25589713D02*
X61418167Y-25523190D01*
X61285120Y-25456666D01*
X60952500Y-25456666D01*
X60819453Y-25523190D01*
X60752929Y-25589713D01*
X60686405Y-25722761D01*
X60686405Y-25855809D01*
X60752929Y-26055380D01*
X61551215Y-26853666D01*
X60686405Y-26853666D01*
X59821596Y-25456666D02*
X59688548Y-25456666D01*
X59555500Y-25523190D01*
X59488977Y-25589713D01*
X59422453Y-25722761D01*
X59355929Y-25988856D01*
X59355929Y-26321475D01*
X59422453Y-26587570D01*
X59488977Y-26720618D01*
X59555500Y-26787142D01*
X59688548Y-26853666D01*
X59821596Y-26853666D01*
X59954643Y-26787142D01*
X60021167Y-26720618D01*
X60087691Y-26587570D01*
X60154215Y-26321475D01*
X60154215Y-25988856D01*
X60087691Y-25722761D01*
X60021167Y-25589713D01*
X59954643Y-25523190D01*
X59821596Y-25456666D01*
X58823739Y-25589713D02*
X58757215Y-25523190D01*
X58624167Y-25456666D01*
X58291548Y-25456666D01*
X58158500Y-25523190D01*
X58091977Y-25589713D01*
X58025453Y-25722761D01*
X58025453Y-25855809D01*
X58091977Y-26055380D01*
X58890262Y-26853666D01*
X58025453Y-26853666D01*
X57559786Y-25456666D02*
X56694977Y-25456666D01*
X57160643Y-25988856D01*
X56961072Y-25988856D01*
X56828024Y-26055380D01*
X56761500Y-26121904D01*
X56694977Y-26254951D01*
X56694977Y-26587570D01*
X56761500Y-26720618D01*
X56828024Y-26787142D01*
X56961072Y-26853666D01*
X57360215Y-26853666D01*
X57493262Y-26787142D01*
X57559786Y-26720618D01*
X56096262Y-26720618D02*
X56029739Y-26787142D01*
X56096262Y-26853666D01*
X56162786Y-26787142D01*
X56096262Y-26720618D01*
X56096262Y-26853666D01*
X55497548Y-25589713D02*
X55431024Y-25523190D01*
X55297977Y-25456666D01*
X54965358Y-25456666D01*
X54832310Y-25523190D01*
X54765786Y-25589713D01*
X54699262Y-25722761D01*
X54699262Y-25855809D01*
X54765786Y-26055380D01*
X55564072Y-26853666D01*
X54699262Y-26853666D01*
X54100548Y-26720618D02*
X54034024Y-26787142D01*
X54100548Y-26853666D01*
X54167072Y-26787142D01*
X54100548Y-26720618D01*
X54100548Y-26853666D01*
X52836596Y-25456666D02*
X53102691Y-25456666D01*
X53235739Y-25523190D01*
X53302262Y-25589713D01*
X53435310Y-25789285D01*
X53501834Y-26055380D01*
X53501834Y-26587570D01*
X53435310Y-26720618D01*
X53368786Y-26787142D01*
X53235739Y-26853666D01*
X52969643Y-26853666D01*
X52836596Y-26787142D01*
X52770072Y-26720618D01*
X52703548Y-26587570D01*
X52703548Y-26254951D01*
X52770072Y-26121904D01*
X52836596Y-26055380D01*
X52969643Y-25988856D01*
X53235739Y-25988856D01*
X53368786Y-26055380D01*
X53435310Y-26121904D01*
X53501834Y-26254951D01*
X82506215Y-28969788D02*
X82572739Y-29036312D01*
X82772310Y-29102836D01*
X82905358Y-29102836D01*
X83104929Y-29036312D01*
X83237977Y-28903264D01*
X83304500Y-28770217D01*
X83371024Y-28504121D01*
X83371024Y-28304550D01*
X83304500Y-28038455D01*
X83237977Y-27905407D01*
X83104929Y-27772360D01*
X82905358Y-27705836D01*
X82772310Y-27705836D01*
X82572739Y-27772360D01*
X82506215Y-27838883D01*
X81907500Y-29102836D02*
X81907500Y-27705836D01*
X81375310Y-27705836D01*
X81242262Y-27772360D01*
X81175739Y-27838883D01*
X81109215Y-27971931D01*
X81109215Y-28171502D01*
X81175739Y-28304550D01*
X81242262Y-28371074D01*
X81375310Y-28437598D01*
X81907500Y-28437598D01*
X80510500Y-27705836D02*
X80510500Y-28836740D01*
X80443977Y-28969788D01*
X80377453Y-29036312D01*
X80244405Y-29102836D01*
X79978310Y-29102836D01*
X79845262Y-29036312D01*
X79778739Y-28969788D01*
X79712215Y-28836740D01*
X79712215Y-27705836D01*
X79046977Y-28969788D02*
X78980453Y-29036312D01*
X79046977Y-29102836D01*
X79113500Y-29036312D01*
X79046977Y-28969788D01*
X79046977Y-29102836D01*
X79046977Y-28238026D02*
X78980453Y-28304550D01*
X79046977Y-28371074D01*
X79113500Y-28304550D01*
X79046977Y-28238026D01*
X79046977Y-28371074D01*
X77383881Y-29036312D02*
X77184310Y-29102836D01*
X76851691Y-29102836D01*
X76718643Y-29036312D01*
X76652120Y-28969788D01*
X76585596Y-28836740D01*
X76585596Y-28703693D01*
X76652120Y-28570645D01*
X76718643Y-28504121D01*
X76851691Y-28437598D01*
X77117786Y-28371074D01*
X77250834Y-28304550D01*
X77317358Y-28238026D01*
X77383881Y-28104979D01*
X77383881Y-27971931D01*
X77317358Y-27838883D01*
X77250834Y-27772360D01*
X77117786Y-27705836D01*
X76785167Y-27705836D01*
X76585596Y-27772360D01*
X76119929Y-27705836D02*
X75255120Y-27705836D01*
X75720786Y-28238026D01*
X75521215Y-28238026D01*
X75388167Y-28304550D01*
X75321643Y-28371074D01*
X75255120Y-28504121D01*
X75255120Y-28836740D01*
X75321643Y-28969788D01*
X75388167Y-29036312D01*
X75521215Y-29102836D01*
X75920358Y-29102836D01*
X76053405Y-29036312D01*
X76119929Y-28969788D01*
X73858120Y-28969788D02*
X73924643Y-29036312D01*
X74124215Y-29102836D01*
X74257262Y-29102836D01*
X74456834Y-29036312D01*
X74589881Y-28903264D01*
X74656405Y-28770217D01*
X74722929Y-28504121D01*
X74722929Y-28304550D01*
X74656405Y-28038455D01*
X74589881Y-27905407D01*
X74456834Y-27772360D01*
X74257262Y-27705836D01*
X74124215Y-27705836D01*
X73924643Y-27772360D01*
X73858120Y-27838883D01*
X73325929Y-27838883D02*
X73259405Y-27772360D01*
X73126358Y-27705836D01*
X72793739Y-27705836D01*
X72660691Y-27772360D01*
X72594167Y-27838883D01*
X72527643Y-27971931D01*
X72527643Y-28104979D01*
X72594167Y-28304550D01*
X73392453Y-29102836D01*
X72527643Y-29102836D01*
X71330215Y-28171502D02*
X71330215Y-29102836D01*
X71662834Y-27639312D02*
X71995453Y-28637169D01*
X71130643Y-28637169D01*
X69866691Y-29102836D02*
X70664977Y-29102836D01*
X70265834Y-29102836D02*
X70265834Y-27705836D01*
X70398881Y-27905407D01*
X70531929Y-28038455D01*
X70664977Y-28104979D01*
X69001881Y-27705836D02*
X68868834Y-27705836D01*
X68735786Y-27772360D01*
X68669262Y-27838883D01*
X68602739Y-27971931D01*
X68536215Y-28238026D01*
X68536215Y-28570645D01*
X68602739Y-28836740D01*
X68669262Y-28969788D01*
X68735786Y-29036312D01*
X68868834Y-29102836D01*
X69001881Y-29102836D01*
X69134929Y-29036312D01*
X69201453Y-28969788D01*
X69267977Y-28836740D01*
X69334500Y-28570645D01*
X69334500Y-28238026D01*
X69267977Y-27971931D01*
X69201453Y-27838883D01*
X69134929Y-27772360D01*
X69001881Y-27705836D01*
X68004024Y-28703693D02*
X67338786Y-28703693D01*
X68137072Y-29102836D02*
X67671405Y-27705836D01*
X67205739Y-29102836D01*
X66074834Y-29102836D02*
X66740072Y-29102836D01*
X66740072Y-27705836D01*
X65609167Y-28570645D02*
X64544786Y-28570645D01*
X63946072Y-27838883D02*
X63879548Y-27772360D01*
X63746500Y-27705836D01*
X63413881Y-27705836D01*
X63280834Y-27772360D01*
X63214310Y-27838883D01*
X63147786Y-27971931D01*
X63147786Y-28104979D01*
X63214310Y-28304550D01*
X64012596Y-29102836D01*
X63147786Y-29102836D01*
X62282977Y-27705836D02*
X62149929Y-27705836D01*
X62016881Y-27772360D01*
X61950358Y-27838883D01*
X61883834Y-27971931D01*
X61817310Y-28238026D01*
X61817310Y-28570645D01*
X61883834Y-28836740D01*
X61950358Y-28969788D01*
X62016881Y-29036312D01*
X62149929Y-29102836D01*
X62282977Y-29102836D01*
X62416024Y-29036312D01*
X62482548Y-28969788D01*
X62549072Y-28836740D01*
X62615596Y-28570645D01*
X62615596Y-28238026D01*
X62549072Y-27971931D01*
X62482548Y-27838883D01*
X62416024Y-27772360D01*
X62282977Y-27705836D01*
X60819453Y-29635026D02*
X60885977Y-29568502D01*
X61019024Y-29368931D01*
X61085548Y-29235883D01*
X61152072Y-29036312D01*
X61218596Y-28703693D01*
X61218596Y-28437598D01*
X61152072Y-28104979D01*
X61085548Y-27905407D01*
X61019024Y-27772360D01*
X60885977Y-27572788D01*
X60819453Y-27506264D01*
X60353786Y-27838883D02*
X60287262Y-27772360D01*
X60154215Y-27705836D01*
X59821596Y-27705836D01*
X59688548Y-27772360D01*
X59622024Y-27838883D01*
X59555500Y-27971931D01*
X59555500Y-28104979D01*
X59622024Y-28304550D01*
X60420310Y-29102836D01*
X59555500Y-29102836D01*
X58690691Y-27705836D02*
X58557643Y-27705836D01*
X58424596Y-27772360D01*
X58358072Y-27838883D01*
X58291548Y-27971931D01*
X58225024Y-28238026D01*
X58225024Y-28570645D01*
X58291548Y-28836740D01*
X58358072Y-28969788D01*
X58424596Y-29036312D01*
X58557643Y-29102836D01*
X58690691Y-29102836D01*
X58823739Y-29036312D01*
X58890262Y-28969788D01*
X58956786Y-28836740D01*
X59023310Y-28570645D01*
X59023310Y-28238026D01*
X58956786Y-27971931D01*
X58890262Y-27838883D01*
X58823739Y-27772360D01*
X58690691Y-27705836D01*
X57360215Y-27705836D02*
X57227167Y-27705836D01*
X57094120Y-27772360D01*
X57027596Y-27838883D01*
X56961072Y-27971931D01*
X56894548Y-28238026D01*
X56894548Y-28570645D01*
X56961072Y-28836740D01*
X57027596Y-28969788D01*
X57094120Y-29036312D01*
X57227167Y-29102836D01*
X57360215Y-29102836D01*
X57493262Y-29036312D01*
X57559786Y-28969788D01*
X57626310Y-28836740D01*
X57692834Y-28570645D01*
X57692834Y-28238026D01*
X57626310Y-27971931D01*
X57559786Y-27838883D01*
X57493262Y-27772360D01*
X57360215Y-27705836D01*
X56295834Y-29102836D02*
X56295834Y-27705836D01*
X55830167Y-28703693D01*
X55364500Y-27705836D01*
X55364500Y-29102836D01*
X54699262Y-29102836D02*
X54699262Y-27705836D01*
X54699262Y-28371074D02*
X53900977Y-28371074D01*
X53900977Y-29102836D02*
X53900977Y-27705836D01*
X53368786Y-28171502D02*
X52637024Y-28171502D01*
X53368786Y-29102836D01*
X52637024Y-29102836D01*
X51040453Y-29102836D02*
X51040453Y-27705836D01*
X50574786Y-28703693D01*
X50109120Y-27705836D01*
X50109120Y-29102836D01*
X49510405Y-28703693D02*
X48845167Y-28703693D01*
X49643453Y-29102836D02*
X49177786Y-27705836D01*
X48712120Y-29102836D01*
X48379500Y-27705836D02*
X47448167Y-29102836D01*
X47448167Y-27705836D02*
X48379500Y-29102836D01*
X47049024Y-29635026D02*
X46982500Y-29568502D01*
X46849453Y-29368931D01*
X46782929Y-29235883D01*
X46716405Y-29036312D01*
X46649881Y-28703693D01*
X46649881Y-28437598D01*
X46716405Y-28104979D01*
X46782929Y-27905407D01*
X46849453Y-27772360D01*
X46982500Y-27572788D01*
X47049024Y-27506264D01*
X83371024Y-31285482D02*
X83171453Y-31352006D01*
X82838834Y-31352006D01*
X82705786Y-31285482D01*
X82639262Y-31218958D01*
X82572739Y-31085910D01*
X82572739Y-30952863D01*
X82639262Y-30819815D01*
X82705786Y-30753291D01*
X82838834Y-30686768D01*
X83104929Y-30620244D01*
X83237977Y-30553720D01*
X83304500Y-30487196D01*
X83371024Y-30354149D01*
X83371024Y-30221101D01*
X83304500Y-30088053D01*
X83237977Y-30021530D01*
X83104929Y-29955006D01*
X82772310Y-29955006D01*
X82572739Y-30021530D01*
X81974024Y-31352006D02*
X81974024Y-29955006D01*
X81641405Y-29955006D01*
X81441834Y-30021530D01*
X81308786Y-30154577D01*
X81242262Y-30287625D01*
X81175739Y-30553720D01*
X81175739Y-30753291D01*
X81242262Y-31019387D01*
X81308786Y-31152434D01*
X81441834Y-31285482D01*
X81641405Y-31352006D01*
X81974024Y-31352006D01*
X79778739Y-31352006D02*
X80244405Y-30686768D01*
X80577024Y-31352006D02*
X80577024Y-29955006D01*
X80044834Y-29955006D01*
X79911786Y-30021530D01*
X79845262Y-30088053D01*
X79778739Y-30221101D01*
X79778739Y-30420672D01*
X79845262Y-30553720D01*
X79911786Y-30620244D01*
X80044834Y-30686768D01*
X80577024Y-30686768D01*
X79246548Y-30952863D02*
X78581310Y-30952863D01*
X79379596Y-31352006D02*
X78913929Y-29955006D01*
X78448262Y-31352006D01*
X77982596Y-31352006D02*
X77982596Y-29955006D01*
X77516929Y-30952863D01*
X77051262Y-29955006D01*
X77051262Y-31352006D01*
X76386024Y-31218958D02*
X76319500Y-31285482D01*
X76386024Y-31352006D01*
X76452548Y-31285482D01*
X76386024Y-31218958D01*
X76386024Y-31352006D01*
X76386024Y-30487196D02*
X76319500Y-30553720D01*
X76386024Y-30620244D01*
X76452548Y-30553720D01*
X76386024Y-30487196D01*
X76386024Y-30620244D01*
X74656405Y-31352006D02*
X74656405Y-29955006D01*
X74656405Y-30620244D02*
X73858120Y-30620244D01*
X73858120Y-31352006D02*
X73858120Y-29955006D01*
X72926786Y-30686768D02*
X72926786Y-31352006D01*
X73392453Y-29955006D02*
X72926786Y-30686768D01*
X72461120Y-29955006D01*
X71330215Y-29955006D02*
X71995453Y-29955006D01*
X72061977Y-30620244D01*
X71995453Y-30553720D01*
X71862405Y-30487196D01*
X71529786Y-30487196D01*
X71396739Y-30553720D01*
X71330215Y-30620244D01*
X71263691Y-30753291D01*
X71263691Y-31085910D01*
X71330215Y-31218958D01*
X71396739Y-31285482D01*
X71529786Y-31352006D01*
X71862405Y-31352006D01*
X71995453Y-31285482D01*
X72061977Y-31218958D01*
X70798024Y-29955006D02*
X69866691Y-29955006D01*
X70465405Y-31352006D01*
X69534072Y-29955006D02*
X69068405Y-31352006D01*
X68602739Y-29955006D01*
X67471834Y-29955006D02*
X68137072Y-29955006D01*
X68203596Y-30620244D01*
X68137072Y-30553720D01*
X68004024Y-30487196D01*
X67671405Y-30487196D01*
X67538358Y-30553720D01*
X67471834Y-30620244D01*
X67405310Y-30753291D01*
X67405310Y-31085910D01*
X67471834Y-31218958D01*
X67538358Y-31285482D01*
X67671405Y-31352006D01*
X68004024Y-31352006D01*
X68137072Y-31285482D01*
X68203596Y-31218958D01*
X66207881Y-29955006D02*
X66473977Y-29955006D01*
X66607024Y-30021530D01*
X66673548Y-30088053D01*
X66806596Y-30287625D01*
X66873120Y-30553720D01*
X66873120Y-31085910D01*
X66806596Y-31218958D01*
X66740072Y-31285482D01*
X66607024Y-31352006D01*
X66340929Y-31352006D01*
X66207881Y-31285482D01*
X66141358Y-31218958D01*
X66074834Y-31085910D01*
X66074834Y-30753291D01*
X66141358Y-30620244D01*
X66207881Y-30553720D01*
X66340929Y-30487196D01*
X66607024Y-30487196D01*
X66740072Y-30553720D01*
X66806596Y-30620244D01*
X66873120Y-30753291D01*
X64744358Y-31352006D02*
X65542643Y-31352006D01*
X65143500Y-31352006D02*
X65143500Y-29955006D01*
X65276548Y-30154577D01*
X65409596Y-30287625D01*
X65542643Y-30354149D01*
X63546929Y-29955006D02*
X63813024Y-29955006D01*
X63946072Y-30021530D01*
X64012596Y-30088053D01*
X64145643Y-30287625D01*
X64212167Y-30553720D01*
X64212167Y-31085910D01*
X64145643Y-31218958D01*
X64079120Y-31285482D01*
X63946072Y-31352006D01*
X63679977Y-31352006D01*
X63546929Y-31285482D01*
X63480405Y-31218958D01*
X63413881Y-31085910D01*
X63413881Y-30753291D01*
X63480405Y-30620244D01*
X63546929Y-30553720D01*
X63679977Y-30487196D01*
X63946072Y-30487196D01*
X64079120Y-30553720D01*
X64145643Y-30620244D01*
X64212167Y-30753291D01*
X62881691Y-30088053D02*
X62815167Y-30021530D01*
X62682120Y-29955006D01*
X62349500Y-29955006D01*
X62216453Y-30021530D01*
X62149929Y-30088053D01*
X62083405Y-30221101D01*
X62083405Y-30354149D01*
X62149929Y-30553720D01*
X62948215Y-31352006D01*
X62083405Y-31352006D01*
X61218596Y-29955006D02*
X61085548Y-29955006D01*
X60952500Y-30021530D01*
X60885977Y-30088053D01*
X60819453Y-30221101D01*
X60752929Y-30487196D01*
X60752929Y-30819815D01*
X60819453Y-31085910D01*
X60885977Y-31218958D01*
X60952500Y-31285482D01*
X61085548Y-31352006D01*
X61218596Y-31352006D01*
X61351643Y-31285482D01*
X61418167Y-31218958D01*
X61484691Y-31085910D01*
X61551215Y-30819815D01*
X61551215Y-30487196D01*
X61484691Y-30221101D01*
X61418167Y-30088053D01*
X61351643Y-30021530D01*
X61218596Y-29955006D01*
X59755072Y-31884196D02*
X59821596Y-31817672D01*
X59954643Y-31618101D01*
X60021167Y-31485053D01*
X60087691Y-31285482D01*
X60154215Y-30952863D01*
X60154215Y-30686768D01*
X60087691Y-30354149D01*
X60021167Y-30154577D01*
X59954643Y-30021530D01*
X59821596Y-29821958D01*
X59755072Y-29755434D01*
X59355929Y-29955006D02*
X58491120Y-29955006D01*
X58956786Y-30487196D01*
X58757215Y-30487196D01*
X58624167Y-30553720D01*
X58557643Y-30620244D01*
X58491120Y-30753291D01*
X58491120Y-31085910D01*
X58557643Y-31218958D01*
X58624167Y-31285482D01*
X58757215Y-31352006D01*
X59156358Y-31352006D01*
X59289405Y-31285482D01*
X59355929Y-31218958D01*
X57958929Y-30088053D02*
X57892405Y-30021530D01*
X57759358Y-29955006D01*
X57426739Y-29955006D01*
X57293691Y-30021530D01*
X57227167Y-30088053D01*
X57160643Y-30221101D01*
X57160643Y-30354149D01*
X57227167Y-30553720D01*
X58025453Y-31352006D01*
X57160643Y-31352006D01*
X56561929Y-31352006D02*
X56561929Y-29955006D01*
X56096262Y-30952863D01*
X55630596Y-29955006D01*
X55630596Y-31352006D01*
X54499691Y-30620244D02*
X54300120Y-30686768D01*
X54233596Y-30753291D01*
X54167072Y-30886339D01*
X54167072Y-31085910D01*
X54233596Y-31218958D01*
X54300120Y-31285482D01*
X54433167Y-31352006D01*
X54965358Y-31352006D01*
X54965358Y-29955006D01*
X54499691Y-29955006D01*
X54366643Y-30021530D01*
X54300120Y-30088053D01*
X54233596Y-30221101D01*
X54233596Y-30354149D01*
X54300120Y-30487196D01*
X54366643Y-30553720D01*
X54499691Y-30620244D01*
X54965358Y-30620244D01*
X53701405Y-31884196D02*
X53634881Y-31817672D01*
X53501834Y-31618101D01*
X53435310Y-31485053D01*
X53368786Y-31285482D01*
X53302262Y-30952863D01*
X53302262Y-30686768D01*
X53368786Y-30354149D01*
X53435310Y-30154577D01*
X53501834Y-30021530D01*
X53634881Y-29821958D01*
X53701405Y-29755434D01*
X83304500Y-33601176D02*
X83304500Y-32204176D01*
X82506215Y-33601176D01*
X82506215Y-32204176D01*
X81907500Y-33202033D02*
X81242262Y-33202033D01*
X82040548Y-33601176D02*
X81574881Y-32204176D01*
X81109215Y-33601176D01*
X80643548Y-33601176D02*
X80643548Y-32204176D01*
X79845262Y-33601176D01*
X79845262Y-32204176D01*
X79180024Y-33601176D02*
X79180024Y-32204176D01*
X78847405Y-32204176D01*
X78647834Y-32270700D01*
X78514786Y-32403747D01*
X78448262Y-32536795D01*
X78381739Y-32802890D01*
X78381739Y-33002461D01*
X78448262Y-33268557D01*
X78514786Y-33401604D01*
X78647834Y-33534652D01*
X78847405Y-33601176D01*
X79180024Y-33601176D01*
X77783024Y-33468128D02*
X77716500Y-33534652D01*
X77783024Y-33601176D01*
X77849548Y-33534652D01*
X77783024Y-33468128D01*
X77783024Y-33601176D01*
X77783024Y-32736366D02*
X77716500Y-32802890D01*
X77783024Y-32869414D01*
X77849548Y-32802890D01*
X77783024Y-32736366D01*
X77783024Y-32869414D01*
X76053405Y-33601176D02*
X76053405Y-32204176D01*
X75255120Y-33601176D02*
X75853834Y-32802890D01*
X75255120Y-32204176D02*
X76053405Y-33002461D01*
X74589881Y-33601176D02*
X74323786Y-33601176D01*
X74190739Y-33534652D01*
X74124215Y-33468128D01*
X73991167Y-33268557D01*
X73924643Y-33002461D01*
X73924643Y-32470271D01*
X73991167Y-32337223D01*
X74057691Y-32270700D01*
X74190739Y-32204176D01*
X74456834Y-32204176D01*
X74589881Y-32270700D01*
X74656405Y-32337223D01*
X74722929Y-32470271D01*
X74722929Y-32802890D01*
X74656405Y-32935938D01*
X74589881Y-33002461D01*
X74456834Y-33068985D01*
X74190739Y-33068985D01*
X74057691Y-33002461D01*
X73991167Y-32935938D01*
X73924643Y-32802890D01*
X72860262Y-32869414D02*
X73325929Y-32869414D01*
X73325929Y-33601176D02*
X73325929Y-32204176D01*
X72660691Y-32204176D01*
X71463262Y-32204176D02*
X72128500Y-32204176D01*
X72195024Y-32869414D01*
X72128500Y-32802890D01*
X71995453Y-32736366D01*
X71662834Y-32736366D01*
X71529786Y-32802890D01*
X71463262Y-32869414D01*
X71396739Y-33002461D01*
X71396739Y-33335080D01*
X71463262Y-33468128D01*
X71529786Y-33534652D01*
X71662834Y-33601176D01*
X71995453Y-33601176D01*
X72128500Y-33534652D01*
X72195024Y-33468128D01*
X70199310Y-32204176D02*
X70465405Y-32204176D01*
X70598453Y-32270700D01*
X70664977Y-32337223D01*
X70798024Y-32536795D01*
X70864548Y-32802890D01*
X70864548Y-33335080D01*
X70798024Y-33468128D01*
X70731500Y-33534652D01*
X70598453Y-33601176D01*
X70332358Y-33601176D01*
X70199310Y-33534652D01*
X70132786Y-33468128D01*
X70066262Y-33335080D01*
X70066262Y-33002461D01*
X70132786Y-32869414D01*
X70199310Y-32802890D01*
X70332358Y-32736366D01*
X70598453Y-32736366D01*
X70731500Y-32802890D01*
X70798024Y-32869414D01*
X70864548Y-33002461D01*
X69201453Y-32204176D02*
X69068405Y-32204176D01*
X68935358Y-32270700D01*
X68868834Y-32337223D01*
X68802310Y-32470271D01*
X68735786Y-32736366D01*
X68735786Y-33068985D01*
X68802310Y-33335080D01*
X68868834Y-33468128D01*
X68935358Y-33534652D01*
X69068405Y-33601176D01*
X69201453Y-33601176D01*
X69334500Y-33534652D01*
X69401024Y-33468128D01*
X69467548Y-33335080D01*
X69534072Y-33068985D01*
X69534072Y-32736366D01*
X69467548Y-32470271D01*
X69401024Y-32337223D01*
X69334500Y-32270700D01*
X69201453Y-32204176D01*
X67937500Y-32802890D02*
X68070548Y-32736366D01*
X68137072Y-32669842D01*
X68203596Y-32536795D01*
X68203596Y-32470271D01*
X68137072Y-32337223D01*
X68070548Y-32270700D01*
X67937500Y-32204176D01*
X67671405Y-32204176D01*
X67538358Y-32270700D01*
X67471834Y-32337223D01*
X67405310Y-32470271D01*
X67405310Y-32536795D01*
X67471834Y-32669842D01*
X67538358Y-32736366D01*
X67671405Y-32802890D01*
X67937500Y-32802890D01*
X68070548Y-32869414D01*
X68137072Y-32935938D01*
X68203596Y-33068985D01*
X68203596Y-33335080D01*
X68137072Y-33468128D01*
X68070548Y-33534652D01*
X67937500Y-33601176D01*
X67671405Y-33601176D01*
X67538358Y-33534652D01*
X67471834Y-33468128D01*
X67405310Y-33335080D01*
X67405310Y-33068985D01*
X67471834Y-32935938D01*
X67538358Y-32869414D01*
X67671405Y-32802890D01*
X66806596Y-32204176D02*
X66806596Y-33335080D01*
X66740072Y-33468128D01*
X66673548Y-33534652D01*
X66540500Y-33601176D01*
X66274405Y-33601176D01*
X66141358Y-33534652D01*
X66074834Y-33468128D01*
X66008310Y-33335080D01*
X66008310Y-32204176D01*
X65076977Y-32204176D02*
X64943929Y-32204176D01*
X64810881Y-32270700D01*
X64744358Y-32337223D01*
X64677834Y-32470271D01*
X64611310Y-32736366D01*
X64611310Y-33068985D01*
X64677834Y-33335080D01*
X64744358Y-33468128D01*
X64810881Y-33534652D01*
X64943929Y-33601176D01*
X65076977Y-33601176D01*
X65210024Y-33534652D01*
X65276548Y-33468128D01*
X65343072Y-33335080D01*
X65409596Y-33068985D01*
X65409596Y-32736366D01*
X65343072Y-32470271D01*
X65276548Y-32337223D01*
X65210024Y-32270700D01*
X65076977Y-32204176D01*
X63214310Y-33468128D02*
X63280834Y-33534652D01*
X63480405Y-33601176D01*
X63613453Y-33601176D01*
X63813024Y-33534652D01*
X63946072Y-33401604D01*
X64012596Y-33268557D01*
X64079120Y-33002461D01*
X64079120Y-32802890D01*
X64012596Y-32536795D01*
X63946072Y-32403747D01*
X63813024Y-32270700D01*
X63613453Y-32204176D01*
X63480405Y-32204176D01*
X63280834Y-32270700D01*
X63214310Y-32337223D01*
X62216453Y-34133366D02*
X62282977Y-34066842D01*
X62416024Y-33867271D01*
X62482548Y-33734223D01*
X62549072Y-33534652D01*
X62615596Y-33202033D01*
X62615596Y-32935938D01*
X62549072Y-32603319D01*
X62482548Y-32403747D01*
X62416024Y-32270700D01*
X62282977Y-32071128D01*
X62216453Y-32004604D01*
X61817310Y-32204176D02*
X60952500Y-32204176D01*
X61418167Y-32736366D01*
X61218596Y-32736366D01*
X61085548Y-32802890D01*
X61019024Y-32869414D01*
X60952500Y-33002461D01*
X60952500Y-33335080D01*
X61019024Y-33468128D01*
X61085548Y-33534652D01*
X61218596Y-33601176D01*
X61617739Y-33601176D01*
X61750786Y-33534652D01*
X61817310Y-33468128D01*
X60420310Y-32337223D02*
X60353786Y-32270700D01*
X60220739Y-32204176D01*
X59888120Y-32204176D01*
X59755072Y-32270700D01*
X59688548Y-32337223D01*
X59622024Y-32470271D01*
X59622024Y-32603319D01*
X59688548Y-32802890D01*
X60486834Y-33601176D01*
X59622024Y-33601176D01*
X59023310Y-33601176D02*
X59023310Y-32204176D01*
X58557643Y-33202033D01*
X58091977Y-32204176D01*
X58091977Y-33601176D01*
X56961072Y-32869414D02*
X56761500Y-32935938D01*
X56694977Y-33002461D01*
X56628453Y-33135509D01*
X56628453Y-33335080D01*
X56694977Y-33468128D01*
X56761500Y-33534652D01*
X56894548Y-33601176D01*
X57426739Y-33601176D01*
X57426739Y-32204176D01*
X56961072Y-32204176D01*
X56828024Y-32270700D01*
X56761500Y-32337223D01*
X56694977Y-32470271D01*
X56694977Y-32603319D01*
X56761500Y-32736366D01*
X56828024Y-32802890D01*
X56961072Y-32869414D01*
X57426739Y-32869414D01*
X56162786Y-34133366D02*
X56096262Y-34066842D01*
X55963215Y-33867271D01*
X55896691Y-33734223D01*
X55830167Y-33534652D01*
X55763643Y-33202033D01*
X55763643Y-32935938D01*
X55830167Y-32603319D01*
X55896691Y-32403747D01*
X55963215Y-32270700D01*
X56096262Y-32071128D01*
X56162786Y-32004604D01*
X83304500Y-35850346D02*
X83304500Y-34453346D01*
X82373167Y-34453346D02*
X82107072Y-34453346D01*
X81974024Y-34519870D01*
X81840977Y-34652917D01*
X81774453Y-34919012D01*
X81774453Y-35384679D01*
X81840977Y-35650774D01*
X81974024Y-35783822D01*
X82107072Y-35850346D01*
X82373167Y-35850346D01*
X82506215Y-35783822D01*
X82639262Y-35650774D01*
X82705786Y-35384679D01*
X82705786Y-34919012D01*
X82639262Y-34652917D01*
X82506215Y-34519870D01*
X82373167Y-34453346D01*
X81175739Y-35717298D02*
X81109215Y-35783822D01*
X81175739Y-35850346D01*
X81242262Y-35783822D01*
X81175739Y-35717298D01*
X81175739Y-35850346D01*
X81175739Y-34985536D02*
X81109215Y-35052060D01*
X81175739Y-35118584D01*
X81242262Y-35052060D01*
X81175739Y-34985536D01*
X81175739Y-35118584D01*
X79446120Y-34453346D02*
X79446120Y-35584250D01*
X79379596Y-35717298D01*
X79313072Y-35783822D01*
X79180024Y-35850346D01*
X78913929Y-35850346D01*
X78780881Y-35783822D01*
X78714358Y-35717298D01*
X78647834Y-35584250D01*
X78647834Y-34453346D01*
X78049120Y-35783822D02*
X77849548Y-35850346D01*
X77516929Y-35850346D01*
X77383881Y-35783822D01*
X77317358Y-35717298D01*
X77250834Y-35584250D01*
X77250834Y-35451203D01*
X77317358Y-35318155D01*
X77383881Y-35251631D01*
X77516929Y-35185108D01*
X77783024Y-35118584D01*
X77916072Y-35052060D01*
X77982596Y-34985536D01*
X78049120Y-34852489D01*
X78049120Y-34719441D01*
X77982596Y-34586393D01*
X77916072Y-34519870D01*
X77783024Y-34453346D01*
X77450405Y-34453346D01*
X77250834Y-34519870D01*
X76186453Y-35118584D02*
X75986881Y-35185108D01*
X75920358Y-35251631D01*
X75853834Y-35384679D01*
X75853834Y-35584250D01*
X75920358Y-35717298D01*
X75986881Y-35783822D01*
X76119929Y-35850346D01*
X76652120Y-35850346D01*
X76652120Y-34453346D01*
X76186453Y-34453346D01*
X76053405Y-34519870D01*
X75986881Y-34586393D01*
X75920358Y-34719441D01*
X75920358Y-34852489D01*
X75986881Y-34985536D01*
X76053405Y-35052060D01*
X76186453Y-35118584D01*
X76652120Y-35118584D01*
X75255120Y-35850346D02*
X75255120Y-34453346D01*
X74922500Y-34453346D01*
X74722929Y-34519870D01*
X74589881Y-34652917D01*
X74523358Y-34785965D01*
X74456834Y-35052060D01*
X74456834Y-35251631D01*
X74523358Y-35517727D01*
X74589881Y-35650774D01*
X74722929Y-35783822D01*
X74922500Y-35850346D01*
X75255120Y-35850346D01*
X73458977Y-36382536D02*
X73525500Y-36316012D01*
X73658548Y-36116441D01*
X73725072Y-35983393D01*
X73791596Y-35783822D01*
X73858120Y-35451203D01*
X73858120Y-35185108D01*
X73791596Y-34852489D01*
X73725072Y-34652917D01*
X73658548Y-34519870D01*
X73525500Y-34320298D01*
X73458977Y-34253774D01*
X72926786Y-35850346D02*
X72926786Y-34453346D01*
X72594167Y-34453346D01*
X72394596Y-34519870D01*
X72261548Y-34652917D01*
X72195024Y-34785965D01*
X72128500Y-35052060D01*
X72128500Y-35251631D01*
X72195024Y-35517727D01*
X72261548Y-35650774D01*
X72394596Y-35783822D01*
X72594167Y-35850346D01*
X72926786Y-35850346D01*
X71529786Y-35850346D02*
X71529786Y-34453346D01*
X70997596Y-34453346D01*
X70864548Y-34519870D01*
X70798024Y-34586393D01*
X70731500Y-34719441D01*
X70731500Y-34919012D01*
X70798024Y-35052060D01*
X70864548Y-35118584D01*
X70997596Y-35185108D01*
X71529786Y-35185108D01*
X69401024Y-35850346D02*
X70199310Y-35850346D01*
X69800167Y-35850346D02*
X69800167Y-34453346D01*
X69933215Y-34652917D01*
X70066262Y-34785965D01*
X70199310Y-34852489D01*
X67804453Y-34386822D02*
X69001881Y-36182965D01*
X67338786Y-35850346D02*
X67338786Y-34453346D01*
X67006167Y-34453346D01*
X66806596Y-34519870D01*
X66673548Y-34652917D01*
X66607024Y-34785965D01*
X66540500Y-35052060D01*
X66540500Y-35251631D01*
X66607024Y-35517727D01*
X66673548Y-35650774D01*
X66806596Y-35783822D01*
X67006167Y-35850346D01*
X67338786Y-35850346D01*
X65941786Y-35850346D02*
X65941786Y-34453346D01*
X65143500Y-35850346D01*
X65143500Y-34453346D01*
X63746500Y-35850346D02*
X64544786Y-35850346D01*
X64145643Y-35850346D02*
X64145643Y-34453346D01*
X64278691Y-34652917D01*
X64411739Y-34785965D01*
X64544786Y-34852489D01*
X63280834Y-36382536D02*
X63214310Y-36316012D01*
X63081262Y-36116441D01*
X63014739Y-35983393D01*
X62948215Y-35783822D01*
X62881691Y-35451203D01*
X62881691Y-35185108D01*
X62948215Y-34852489D01*
X63014739Y-34652917D01*
X63081262Y-34519870D01*
X63214310Y-34320298D01*
X63280834Y-34253774D01*
X62149929Y-35783822D02*
X62149929Y-35850346D01*
X62216453Y-35983393D01*
X62282977Y-36049917D01*
X60819453Y-34519870D02*
X60952500Y-34453346D01*
X61152072Y-34453346D01*
X61351643Y-34519870D01*
X61484691Y-34652917D01*
X61551215Y-34785965D01*
X61617739Y-35052060D01*
X61617739Y-35251631D01*
X61551215Y-35517727D01*
X61484691Y-35650774D01*
X61351643Y-35783822D01*
X61152072Y-35850346D01*
X61019024Y-35850346D01*
X60819453Y-35783822D01*
X60752929Y-35717298D01*
X60752929Y-35251631D01*
X61019024Y-35251631D01*
X60154215Y-35850346D02*
X60154215Y-34453346D01*
X59622024Y-34453346D01*
X59488977Y-34519870D01*
X59422453Y-34586393D01*
X59355929Y-34719441D01*
X59355929Y-34919012D01*
X59422453Y-35052060D01*
X59488977Y-35118584D01*
X59622024Y-35185108D01*
X60154215Y-35185108D01*
X58025453Y-34519870D02*
X58158500Y-34453346D01*
X58358072Y-34453346D01*
X58557643Y-34519870D01*
X58690691Y-34652917D01*
X58757215Y-34785965D01*
X58823739Y-35052060D01*
X58823739Y-35251631D01*
X58757215Y-35517727D01*
X58690691Y-35650774D01*
X58557643Y-35783822D01*
X58358072Y-35850346D01*
X58225024Y-35850346D01*
X58025453Y-35783822D01*
X57958929Y-35717298D01*
X57958929Y-35251631D01*
X58225024Y-35251631D01*
X57293691Y-35783822D02*
X57293691Y-35850346D01*
X57360215Y-35983393D01*
X57426739Y-36049917D01*
X55963215Y-34519870D02*
X56096262Y-34453346D01*
X56295834Y-34453346D01*
X56495405Y-34519870D01*
X56628453Y-34652917D01*
X56694977Y-34785965D01*
X56761500Y-35052060D01*
X56761500Y-35251631D01*
X56694977Y-35517727D01*
X56628453Y-35650774D01*
X56495405Y-35783822D01*
X56295834Y-35850346D01*
X56162786Y-35850346D01*
X55963215Y-35783822D01*
X55896691Y-35717298D01*
X55896691Y-35251631D01*
X56162786Y-35251631D01*
X55297977Y-35850346D02*
X55297977Y-34453346D01*
X54765786Y-34453346D01*
X54632739Y-34519870D01*
X54566215Y-34586393D01*
X54499691Y-34719441D01*
X54499691Y-34919012D01*
X54566215Y-35052060D01*
X54632739Y-35118584D01*
X54765786Y-35185108D01*
X55297977Y-35185108D01*
X53900977Y-35118584D02*
X53435310Y-35118584D01*
X53235739Y-35850346D02*
X53900977Y-35850346D01*
X53900977Y-34453346D01*
X53235739Y-34453346D01*
X52570500Y-35783822D02*
X52570500Y-35850346D01*
X52637024Y-35983393D01*
X52703548Y-36049917D01*
X51572643Y-34453346D02*
X51572643Y-35451203D01*
X51639167Y-35650774D01*
X51772215Y-35783822D01*
X51971786Y-35850346D01*
X52104834Y-35850346D01*
X51106977Y-34453346D02*
X50308691Y-34453346D01*
X50707834Y-35850346D02*
X50707834Y-34453346D01*
X49909548Y-35451203D02*
X49244310Y-35451203D01*
X50042596Y-35850346D02*
X49576929Y-34453346D01*
X49111262Y-35850346D01*
X47913834Y-34519870D02*
X48046881Y-34453346D01*
X48246453Y-34453346D01*
X48446024Y-34519870D01*
X48579072Y-34652917D01*
X48645596Y-34785965D01*
X48712120Y-35052060D01*
X48712120Y-35251631D01*
X48645596Y-35517727D01*
X48579072Y-35650774D01*
X48446024Y-35783822D01*
X48246453Y-35850346D01*
X48113405Y-35850346D01*
X47913834Y-35783822D01*
X47847310Y-35717298D01*
X47847310Y-35251631D01*
X48113405Y-35251631D01*
X47182072Y-35783822D02*
X47182072Y-35850346D01*
X47248596Y-35983393D01*
X47315120Y-36049917D01*
X46649881Y-35783822D02*
X46450310Y-35850346D01*
X46117691Y-35850346D01*
X45984643Y-35783822D01*
X45918120Y-35717298D01*
X45851596Y-35584250D01*
X45851596Y-35451203D01*
X45918120Y-35318155D01*
X45984643Y-35251631D01*
X46117691Y-35185108D01*
X46383786Y-35118584D01*
X46516834Y-35052060D01*
X46583358Y-34985536D01*
X46649881Y-34852489D01*
X46649881Y-34719441D01*
X46583358Y-34586393D01*
X46516834Y-34519870D01*
X46383786Y-34453346D01*
X46051167Y-34453346D01*
X45851596Y-34519870D01*
X45252881Y-35850346D02*
X45252881Y-34453346D01*
X44920262Y-34453346D01*
X44720691Y-34519870D01*
X44587643Y-34652917D01*
X44521120Y-34785965D01*
X44454596Y-35052060D01*
X44454596Y-35251631D01*
X44521120Y-35517727D01*
X44587643Y-35650774D01*
X44720691Y-35783822D01*
X44920262Y-35850346D01*
X45252881Y-35850346D01*
X43855881Y-35850346D02*
X43855881Y-34453346D01*
X42924548Y-34453346D02*
X42658453Y-34453346D01*
X42525405Y-34519870D01*
X42392358Y-34652917D01*
X42325834Y-34919012D01*
X42325834Y-35384679D01*
X42392358Y-35650774D01*
X42525405Y-35783822D01*
X42658453Y-35850346D01*
X42924548Y-35850346D01*
X43057596Y-35783822D01*
X43190643Y-35650774D01*
X43257167Y-35384679D01*
X43257167Y-34919012D01*
X43190643Y-34652917D01*
X43057596Y-34519870D01*
X42924548Y-34453346D01*
X79113500Y-38032992D02*
X78913929Y-38099516D01*
X78581310Y-38099516D01*
X78448262Y-38032992D01*
X78381739Y-37966468D01*
X78315215Y-37833420D01*
X78315215Y-37700373D01*
X78381739Y-37567325D01*
X78448262Y-37500801D01*
X78581310Y-37434278D01*
X78847405Y-37367754D01*
X78980453Y-37301230D01*
X79046977Y-37234706D01*
X79113500Y-37101659D01*
X79113500Y-36968611D01*
X79046977Y-36835563D01*
X78980453Y-36769040D01*
X78847405Y-36702516D01*
X78514786Y-36702516D01*
X78315215Y-36769040D01*
X77716500Y-38099516D02*
X77716500Y-36702516D01*
X77184310Y-36702516D01*
X77051262Y-36769040D01*
X76984739Y-36835563D01*
X76918215Y-36968611D01*
X76918215Y-37168182D01*
X76984739Y-37301230D01*
X77051262Y-37367754D01*
X77184310Y-37434278D01*
X77716500Y-37434278D01*
X76319500Y-38099516D02*
X76319500Y-36702516D01*
X75388167Y-36702516D02*
X75255120Y-36702516D01*
X75122072Y-36769040D01*
X75055548Y-36835563D01*
X74989024Y-36968611D01*
X74922500Y-37234706D01*
X74922500Y-37567325D01*
X74989024Y-37833420D01*
X75055548Y-37966468D01*
X75122072Y-38032992D01*
X75255120Y-38099516D01*
X75388167Y-38099516D01*
X75521215Y-38032992D01*
X75587739Y-37966468D01*
X75654262Y-37833420D01*
X75720786Y-37567325D01*
X75720786Y-37234706D01*
X75654262Y-36968611D01*
X75587739Y-36835563D01*
X75521215Y-36769040D01*
X75388167Y-36702516D01*
X73924643Y-38631706D02*
X73991167Y-38565182D01*
X74124215Y-38365611D01*
X74190739Y-38232563D01*
X74257262Y-38032992D01*
X74323786Y-37700373D01*
X74323786Y-37434278D01*
X74257262Y-37101659D01*
X74190739Y-36902087D01*
X74124215Y-36769040D01*
X73991167Y-36569468D01*
X73924643Y-36502944D01*
X73392453Y-38099516D02*
X73392453Y-36702516D01*
X72926786Y-37700373D01*
X72461120Y-36702516D01*
X72461120Y-38099516D01*
X71795881Y-38099516D02*
X71795881Y-36702516D01*
X71197167Y-38032992D02*
X70997596Y-38099516D01*
X70664977Y-38099516D01*
X70531929Y-38032992D01*
X70465405Y-37966468D01*
X70398881Y-37833420D01*
X70398881Y-37700373D01*
X70465405Y-37567325D01*
X70531929Y-37500801D01*
X70664977Y-37434278D01*
X70931072Y-37367754D01*
X71064120Y-37301230D01*
X71130643Y-37234706D01*
X71197167Y-37101659D01*
X71197167Y-36968611D01*
X71130643Y-36835563D01*
X71064120Y-36769040D01*
X70931072Y-36702516D01*
X70598453Y-36702516D01*
X70398881Y-36769040D01*
X69534072Y-36702516D02*
X69267977Y-36702516D01*
X69134929Y-36769040D01*
X69001881Y-36902087D01*
X68935358Y-37168182D01*
X68935358Y-37633849D01*
X69001881Y-37899944D01*
X69134929Y-38032992D01*
X69267977Y-38099516D01*
X69534072Y-38099516D01*
X69667120Y-38032992D01*
X69800167Y-37899944D01*
X69866691Y-37633849D01*
X69866691Y-37168182D01*
X69800167Y-36902087D01*
X69667120Y-36769040D01*
X69534072Y-36702516D01*
X68336643Y-37367754D02*
X67272262Y-37367754D01*
X67272262Y-37766897D02*
X68336643Y-37766897D01*
X66607024Y-37367754D02*
X66141358Y-37367754D01*
X65941786Y-38099516D02*
X66607024Y-38099516D01*
X66607024Y-36702516D01*
X65941786Y-36702516D01*
X64611310Y-38099516D02*
X65409596Y-38099516D01*
X65010453Y-38099516D02*
X65010453Y-36702516D01*
X65143500Y-36902087D01*
X65276548Y-37035135D01*
X65409596Y-37101659D01*
X63280834Y-38099516D02*
X64079119Y-38099516D01*
X63679977Y-38099516D02*
X63679977Y-36702516D01*
X63813024Y-36902087D01*
X63946072Y-37035135D01*
X64079119Y-37101659D01*
X62615596Y-38032992D02*
X62615596Y-38099516D01*
X62682119Y-38232563D01*
X62748643Y-38299087D01*
X62016881Y-38099516D02*
X62016881Y-36702516D01*
X61551215Y-37700373D01*
X61085548Y-36702516D01*
X61085548Y-38099516D01*
X60154215Y-36702516D02*
X59888120Y-36702516D01*
X59755072Y-36769040D01*
X59622024Y-36902087D01*
X59555500Y-37168182D01*
X59555500Y-37633849D01*
X59622024Y-37899944D01*
X59755072Y-38032992D01*
X59888120Y-38099516D01*
X60154215Y-38099516D01*
X60287262Y-38032992D01*
X60420310Y-37899944D01*
X60486834Y-37633849D01*
X60486834Y-37168182D01*
X60420310Y-36902087D01*
X60287262Y-36769040D01*
X60154215Y-36702516D01*
X59023310Y-38032992D02*
X58823739Y-38099516D01*
X58491120Y-38099516D01*
X58358072Y-38032992D01*
X58291548Y-37966468D01*
X58225024Y-37833420D01*
X58225024Y-37700373D01*
X58291548Y-37567325D01*
X58358072Y-37500801D01*
X58491120Y-37434278D01*
X58757215Y-37367754D01*
X58890262Y-37301230D01*
X58956786Y-37234706D01*
X59023310Y-37101659D01*
X59023310Y-36968611D01*
X58956786Y-36835563D01*
X58890262Y-36769040D01*
X58757215Y-36702516D01*
X58424596Y-36702516D01*
X58225024Y-36769040D01*
X57626310Y-38099516D02*
X57626310Y-36702516D01*
X56961072Y-37367754D02*
X55896691Y-37367754D01*
X55896691Y-37766897D02*
X56961072Y-37766897D01*
X55231453Y-37367754D02*
X54765786Y-37367754D01*
X54566215Y-38099516D02*
X55231453Y-38099516D01*
X55231453Y-36702516D01*
X54566215Y-36702516D01*
X53235739Y-38099516D02*
X54034024Y-38099516D01*
X53634881Y-38099516D02*
X53634881Y-36702516D01*
X53767929Y-36902087D01*
X53900977Y-37035135D01*
X54034024Y-37101659D01*
X52703548Y-36835563D02*
X52637024Y-36769040D01*
X52503977Y-36702516D01*
X52171358Y-36702516D01*
X52038310Y-36769040D01*
X51971786Y-36835563D01*
X51905262Y-36968611D01*
X51905262Y-37101659D01*
X51971786Y-37301230D01*
X52770072Y-38099516D01*
X51905262Y-38099516D01*
X51240024Y-38032992D02*
X51240024Y-38099516D01*
X51306548Y-38232563D01*
X51373072Y-38299087D01*
X49843024Y-37966468D02*
X49909548Y-38032992D01*
X50109120Y-38099516D01*
X50242167Y-38099516D01*
X50441739Y-38032992D01*
X50574786Y-37899944D01*
X50641310Y-37766897D01*
X50707834Y-37500801D01*
X50707834Y-37301230D01*
X50641310Y-37035135D01*
X50574786Y-36902087D01*
X50441739Y-36769040D01*
X50242167Y-36702516D01*
X50109120Y-36702516D01*
X49909548Y-36769040D01*
X49843024Y-36835563D01*
X48579072Y-38099516D02*
X49244310Y-38099516D01*
X49244310Y-36702516D01*
X48113405Y-38099516D02*
X48113405Y-36702516D01*
X47315120Y-38099516D02*
X47913834Y-37301230D01*
X47315120Y-36702516D02*
X48113405Y-37500801D01*
X46716405Y-37367754D02*
X45652024Y-37367754D01*
X45652024Y-37766897D02*
X46716405Y-37766897D01*
X44986786Y-37367754D02*
X44521120Y-37367754D01*
X44321548Y-38099516D02*
X44986786Y-38099516D01*
X44986786Y-36702516D01*
X44321548Y-36702516D01*
X42991072Y-38099516D02*
X43789358Y-38099516D01*
X43390215Y-38099516D02*
X43390215Y-36702516D01*
X43523262Y-36902087D01*
X43656310Y-37035135D01*
X43789358Y-37101659D01*
X42525405Y-36702516D02*
X41660596Y-36702516D01*
X42126262Y-37234706D01*
X41926691Y-37234706D01*
X41793643Y-37301230D01*
X41727120Y-37367754D01*
X41660596Y-37500801D01*
X41660596Y-37833420D01*
X41727120Y-37966468D01*
X41793643Y-38032992D01*
X41926691Y-38099516D01*
X42325834Y-38099516D01*
X42458881Y-38032992D01*
X42525405Y-37966468D01*
X41194929Y-38631706D02*
X41128405Y-38565182D01*
X40995358Y-38365611D01*
X40928834Y-38232563D01*
X40862310Y-38032992D01*
X40795786Y-37700373D01*
X40795786Y-37434278D01*
X40862310Y-37101659D01*
X40928834Y-36902087D01*
X40995358Y-36769040D01*
X41128405Y-36569468D01*
X41194929Y-36502944D01*
X82705786Y-39417352D02*
X82705786Y-40548257D01*
X82772310Y-40681305D01*
X82838834Y-40747829D01*
X82971881Y-40814352D01*
X83171453Y-40814352D01*
X83304500Y-40747829D01*
X82705786Y-40282162D02*
X82838834Y-40348686D01*
X83104929Y-40348686D01*
X83237977Y-40282162D01*
X83304500Y-40215638D01*
X83371024Y-40082590D01*
X83371024Y-39683448D01*
X83304500Y-39550400D01*
X83237977Y-39483876D01*
X83104929Y-39417352D01*
X82838834Y-39417352D01*
X82705786Y-39483876D01*
X82040548Y-40348686D02*
X82040548Y-39417352D01*
X82040548Y-38951686D02*
X82107072Y-39018210D01*
X82040548Y-39084733D01*
X81974024Y-39018210D01*
X82040548Y-38951686D01*
X82040548Y-39084733D01*
X81574881Y-39417352D02*
X81042691Y-39417352D01*
X81375310Y-38951686D02*
X81375310Y-40149114D01*
X81308786Y-40282162D01*
X81175739Y-40348686D01*
X81042691Y-40348686D01*
X80577024Y-40348686D02*
X80577024Y-38951686D01*
X79978310Y-40348686D02*
X79978310Y-39616924D01*
X80044834Y-39483876D01*
X80177881Y-39417352D01*
X80377453Y-39417352D01*
X80510500Y-39483876D01*
X80577024Y-39550400D01*
X78714358Y-39417352D02*
X78714358Y-40348686D01*
X79313072Y-39417352D02*
X79313072Y-40149114D01*
X79246548Y-40282162D01*
X79113500Y-40348686D01*
X78913929Y-40348686D01*
X78780881Y-40282162D01*
X78714358Y-40215638D01*
X78049120Y-40348686D02*
X78049120Y-38951686D01*
X78049120Y-39483876D02*
X77916072Y-39417352D01*
X77649977Y-39417352D01*
X77516929Y-39483876D01*
X77450405Y-39550400D01*
X77383881Y-39683448D01*
X77383881Y-40082590D01*
X77450405Y-40215638D01*
X77516929Y-40282162D01*
X77649977Y-40348686D01*
X77916072Y-40348686D01*
X78049120Y-40282162D01*
X76785167Y-40215638D02*
X76718643Y-40282162D01*
X76785167Y-40348686D01*
X76851691Y-40282162D01*
X76785167Y-40215638D01*
X76785167Y-40348686D01*
X75521215Y-40282162D02*
X75654262Y-40348686D01*
X75920358Y-40348686D01*
X76053405Y-40282162D01*
X76119929Y-40215638D01*
X76186453Y-40082590D01*
X76186453Y-39683448D01*
X76119929Y-39550400D01*
X76053405Y-39483876D01*
X75920358Y-39417352D01*
X75654262Y-39417352D01*
X75521215Y-39483876D01*
X74722929Y-40348686D02*
X74855977Y-40282162D01*
X74922500Y-40215638D01*
X74989024Y-40082590D01*
X74989024Y-39683448D01*
X74922500Y-39550400D01*
X74855977Y-39483876D01*
X74722929Y-39417352D01*
X74523358Y-39417352D01*
X74390310Y-39483876D01*
X74323786Y-39550400D01*
X74257262Y-39683448D01*
X74257262Y-40082590D01*
X74323786Y-40215638D01*
X74390310Y-40282162D01*
X74523358Y-40348686D01*
X74722929Y-40348686D01*
X73658548Y-40348686D02*
X73658548Y-39417352D01*
X73658548Y-39550400D02*
X73592024Y-39483876D01*
X73458977Y-39417352D01*
X73259405Y-39417352D01*
X73126358Y-39483876D01*
X73059834Y-39616924D01*
X73059834Y-40348686D01*
X73059834Y-39616924D02*
X72993310Y-39483876D01*
X72860262Y-39417352D01*
X72660691Y-39417352D01*
X72527643Y-39483876D01*
X72461120Y-39616924D01*
X72461120Y-40348686D01*
X70798024Y-38885162D02*
X71995453Y-40681305D01*
X70332358Y-39417352D02*
X70332358Y-40614781D01*
X70398881Y-40747829D01*
X70531929Y-40814352D01*
X70598453Y-40814352D01*
X70332358Y-38951686D02*
X70398881Y-39018210D01*
X70332358Y-39084733D01*
X70265834Y-39018210D01*
X70332358Y-38951686D01*
X70332358Y-39084733D01*
X69467548Y-40348686D02*
X69600596Y-40282162D01*
X69667120Y-40149114D01*
X69667120Y-38951686D01*
X69068405Y-39417352D02*
X68735786Y-40348686D01*
X68403167Y-39417352D02*
X68735786Y-40348686D01*
X68868834Y-40681305D01*
X68935358Y-40747829D01*
X69068405Y-40814352D01*
X68004024Y-39417352D02*
X67737929Y-40348686D01*
X67471834Y-39683448D01*
X67205739Y-40348686D01*
X66939643Y-39417352D01*
X66540500Y-40348686D02*
X65808739Y-39417352D01*
X66540500Y-39417352D02*
X65808739Y-40348686D01*
X65409596Y-39417352D02*
X65076977Y-40348686D01*
X64744358Y-39417352D02*
X65076977Y-40348686D01*
X65210024Y-40681305D01*
X65276548Y-40747829D01*
X65409596Y-40814352D01*
X63214310Y-38885162D02*
X64411739Y-40681305D01*
X62149929Y-39417352D02*
X62149929Y-40348686D01*
X62748643Y-39417352D02*
X62748643Y-40149114D01*
X62682120Y-40282162D01*
X62549072Y-40348686D01*
X62349500Y-40348686D01*
X62216453Y-40282162D01*
X62149929Y-40215638D01*
X61551215Y-40282162D02*
X61418167Y-40348686D01*
X61152072Y-40348686D01*
X61019024Y-40282162D01*
X60952500Y-40149114D01*
X60952500Y-40082590D01*
X61019024Y-39949543D01*
X61152072Y-39883019D01*
X61351643Y-39883019D01*
X61484691Y-39816495D01*
X61551215Y-39683448D01*
X61551215Y-39616924D01*
X61484691Y-39483876D01*
X61351643Y-39417352D01*
X61152072Y-39417352D01*
X61019024Y-39483876D01*
X60486834Y-38951686D02*
X59622024Y-38951686D01*
X60087691Y-39483876D01*
X59888120Y-39483876D01*
X59755072Y-39550400D01*
X59688548Y-39616924D01*
X59622024Y-39749971D01*
X59622024Y-40082590D01*
X59688548Y-40215638D01*
X59755072Y-40282162D01*
X59888120Y-40348686D01*
X60287262Y-40348686D01*
X60420310Y-40282162D01*
X60486834Y-40215638D01*
X58424596Y-40282162D02*
X58557643Y-40348686D01*
X58823739Y-40348686D01*
X58956786Y-40282162D01*
X59023310Y-40215638D01*
X59089834Y-40082590D01*
X59089834Y-39683448D01*
X59023310Y-39550400D01*
X58956786Y-39483876D01*
X58823739Y-39417352D01*
X58557643Y-39417352D01*
X58424596Y-39483876D01*
D13*
G04 #@! TO.C,J4*
X39243000Y-25490600D02*
X39243000Y-39550600D01*
X26393000Y-40710600D02*
X34423000Y-40710600D01*
X37333000Y-41660600D02*
X34933000Y-41660600D01*
X25273000Y-25490600D02*
X25273000Y-29100600D01*
X35633000Y-25490600D02*
X36183000Y-25490600D01*
X25273000Y-36800600D02*
X25273000Y-37900600D01*
X26393000Y-40710600D02*
X26393000Y-41160600D01*
X34923000Y-41650600D02*
X34423000Y-41160600D01*
X39243000Y-25490600D02*
X37683000Y-25490600D01*
X34423000Y-40710600D02*
X34423000Y-41160600D01*
X25273000Y-30800600D02*
X25273000Y-35500600D01*
X25783000Y-25490600D02*
X25273000Y-25490600D01*
G04 #@! TO.C,J2*
X41960800Y-19167800D02*
X29200800Y-19167800D01*
X29200800Y-21827800D02*
X29200800Y-19167800D01*
X41960800Y-21827800D02*
X29200800Y-21827800D01*
X41960800Y-21827800D02*
X41960800Y-19167800D01*
X44560800Y-21827800D02*
X44560800Y-20497800D01*
X43230800Y-21827800D02*
X44560800Y-21827800D01*
G04 #@! TO.C,C5*
X26953800Y-23226765D02*
X26953800Y-23458435D01*
X26233800Y-23226765D02*
X26233800Y-23458435D01*
G04 #@! TO.C,G\u002A\u002A\u002A*
G36*
X59541553Y-23405000D02*
G01*
X59570951Y-23409600D01*
X59594443Y-23422641D01*
X59622302Y-23448358D01*
X59666129Y-23492186D01*
X59666129Y-23415820D01*
X59779018Y-23415820D01*
X59779018Y-24172175D01*
X59668274Y-24172175D01*
X59663928Y-23915353D01*
X59663782Y-23906820D01*
X59661847Y-23816426D01*
X59659161Y-23745306D01*
X59655144Y-23690412D01*
X59649213Y-23648694D01*
X59640787Y-23617105D01*
X59629283Y-23592596D01*
X59614122Y-23572118D01*
X59594720Y-23552623D01*
X59594160Y-23552109D01*
X59572004Y-23535746D01*
X59547729Y-23529714D01*
X59511420Y-23531501D01*
X59495039Y-23533503D01*
X59460353Y-23539377D01*
X59437529Y-23545483D01*
X59428596Y-23547866D01*
X59421606Y-23542430D01*
X59418488Y-23523270D01*
X59417774Y-23485969D01*
X59418713Y-23449851D01*
X59424597Y-23424546D01*
X59439834Y-23410992D01*
X59468828Y-23405538D01*
X59515981Y-23404531D01*
X59541553Y-23405000D01*
G37*
G36*
X58068716Y-19540909D02*
G01*
X58076455Y-19568001D01*
X58089398Y-19613085D01*
X58099794Y-19649047D01*
X58112372Y-19692274D01*
X58151145Y-19584136D01*
X58189919Y-19475998D01*
X58274938Y-19475998D01*
X58312800Y-19583709D01*
X58321687Y-19608666D01*
X58336591Y-19647676D01*
X58346828Y-19668578D01*
X58353727Y-19673745D01*
X58358619Y-19665553D01*
X58358968Y-19664413D01*
X58366373Y-19639634D01*
X58377576Y-19601524D01*
X58390297Y-19557842D01*
X58414019Y-19475998D01*
X58660641Y-19475998D01*
X58702042Y-19608618D01*
X58743442Y-19741239D01*
X58784089Y-19608618D01*
X58824737Y-19475998D01*
X58953189Y-19475998D01*
X58885645Y-19670731D01*
X58864751Y-19729797D01*
X58844506Y-19784653D01*
X58827443Y-19828428D01*
X58814904Y-19857683D01*
X58808232Y-19868981D01*
X58807055Y-19874849D01*
X58811408Y-19898052D01*
X58821837Y-19934511D01*
X58837135Y-19979608D01*
X58848366Y-20010877D01*
X58862570Y-20051267D01*
X58872299Y-20080025D01*
X58875907Y-20092365D01*
X58869580Y-20094467D01*
X58846204Y-20095556D01*
X58811520Y-20094628D01*
X58747134Y-20091242D01*
X58645009Y-19795873D01*
X58641700Y-19786315D01*
X58615163Y-19710487D01*
X58590960Y-19642754D01*
X58570080Y-19585773D01*
X58553508Y-19542199D01*
X58542233Y-19514689D01*
X58537240Y-19505898D01*
X58534504Y-19511997D01*
X58525992Y-19536719D01*
X58513197Y-19576850D01*
X58497303Y-19628650D01*
X58479493Y-19688377D01*
X58427391Y-19865464D01*
X58305818Y-19865464D01*
X58272081Y-19766687D01*
X58263871Y-19743138D01*
X58249544Y-19704505D01*
X58238480Y-19677863D01*
X58232570Y-19667941D01*
X58230156Y-19670852D01*
X58221065Y-19690217D01*
X58207668Y-19723742D01*
X58191905Y-19766719D01*
X58157014Y-19865464D01*
X58037822Y-19865464D01*
X57983044Y-19684842D01*
X57969807Y-19640806D01*
X57953236Y-19584442D01*
X57940000Y-19537933D01*
X57931204Y-19505186D01*
X57927953Y-19490109D01*
X57929857Y-19485323D01*
X57948825Y-19478291D01*
X57988928Y-19475998D01*
X58050216Y-19475998D01*
X58068716Y-19540909D01*
G37*
G36*
X57300046Y-23899724D02*
G01*
X57284846Y-23956724D01*
X57262525Y-24005662D01*
X57229163Y-24056247D01*
X57193367Y-24096885D01*
X57126412Y-24146968D01*
X57049329Y-24179655D01*
X57006263Y-24187786D01*
X56936836Y-24189536D01*
X56867236Y-24180453D01*
X56807846Y-24161323D01*
X56807812Y-24161307D01*
X56736897Y-24119104D01*
X56682091Y-24065030D01*
X56638394Y-23994152D01*
X56632046Y-23981139D01*
X56617649Y-23949086D01*
X56608599Y-23920998D01*
X56603664Y-23890240D01*
X56601607Y-23850177D01*
X56601393Y-23820995D01*
X56710991Y-23820995D01*
X56723175Y-23895084D01*
X56752105Y-23963600D01*
X56797030Y-24016346D01*
X56857810Y-24053103D01*
X56885252Y-24062477D01*
X56953330Y-24070499D01*
X57021179Y-24059652D01*
X57083201Y-24031280D01*
X57133798Y-23986732D01*
X57142793Y-23975255D01*
X57172339Y-23923343D01*
X57188751Y-23862520D01*
X57193752Y-23787043D01*
X57192797Y-23761503D01*
X57178057Y-23686219D01*
X57147498Y-23622717D01*
X57103693Y-23572796D01*
X57049214Y-23538255D01*
X56986633Y-23520892D01*
X56918523Y-23522506D01*
X56847456Y-23544896D01*
X56823088Y-23558010D01*
X56770432Y-23603195D01*
X56733653Y-23663189D01*
X56713567Y-23736339D01*
X56710991Y-23820995D01*
X56601393Y-23820995D01*
X56601196Y-23794176D01*
X56601196Y-23792457D01*
X56601748Y-23735941D01*
X56604064Y-23695481D01*
X56609190Y-23664731D01*
X56618175Y-23637342D01*
X56632064Y-23606967D01*
X56665890Y-23550029D01*
X56727059Y-23482923D01*
X56802706Y-23432897D01*
X56814322Y-23427543D01*
X56881541Y-23408499D01*
X56956981Y-23402797D01*
X57032277Y-23410476D01*
X57099061Y-23431571D01*
X57157441Y-23466259D01*
X57219435Y-23524917D01*
X57266740Y-23597221D01*
X57297914Y-23680149D01*
X57311515Y-23770679D01*
X57310584Y-23787043D01*
X57306103Y-23865788D01*
X57300046Y-23899724D01*
G37*
G36*
X60281170Y-22458375D02*
G01*
X60250401Y-22551650D01*
X60202676Y-22630796D01*
X60139007Y-22694715D01*
X60060406Y-22742308D01*
X59967885Y-22772475D01*
X59947670Y-22775871D01*
X59884137Y-22779354D01*
X59812846Y-22775630D01*
X59743382Y-22765472D01*
X59685332Y-22749655D01*
X59640341Y-22728351D01*
X59576099Y-22683067D01*
X59520605Y-22626817D01*
X59480752Y-22565796D01*
X59465788Y-22530912D01*
X59441213Y-22436814D01*
X59436154Y-22355141D01*
X59695368Y-22355141D01*
X59696577Y-22386522D01*
X59709966Y-22453543D01*
X59737841Y-22504360D01*
X59779793Y-22538091D01*
X59830236Y-22554098D01*
X59890380Y-22555124D01*
X59946180Y-22538949D01*
X59965954Y-22526473D01*
X59999387Y-22488032D01*
X60021418Y-22437218D01*
X60031917Y-22378933D01*
X60030753Y-22318078D01*
X60017798Y-22259557D01*
X59992920Y-22208272D01*
X59955990Y-22169126D01*
X59949629Y-22164795D01*
X59913365Y-22150243D01*
X59863685Y-22145820D01*
X59810622Y-22152713D01*
X59761028Y-22177655D01*
X59724927Y-22220156D01*
X59702860Y-22279542D01*
X59695368Y-22355141D01*
X59436154Y-22355141D01*
X59435065Y-22337557D01*
X59447380Y-22238824D01*
X59478192Y-22146297D01*
X59483572Y-22135055D01*
X59531068Y-22063060D01*
X59592260Y-22005669D01*
X59664055Y-21962881D01*
X59743363Y-21934696D01*
X59827091Y-21921115D01*
X59912149Y-21922137D01*
X59995444Y-21937762D01*
X60073886Y-21967991D01*
X60144384Y-22012823D01*
X60203844Y-22072258D01*
X60249178Y-22146297D01*
X60275726Y-22219444D01*
X60292369Y-22321519D01*
X60289560Y-22378933D01*
X60287271Y-22425714D01*
X60281170Y-22458375D01*
G37*
G36*
X60928651Y-21879693D02*
G01*
X60950602Y-21956098D01*
X60974173Y-22037041D01*
X60995220Y-22108142D01*
X61013022Y-22167025D01*
X61026860Y-22211312D01*
X61036013Y-22238623D01*
X61039762Y-22246582D01*
X61042007Y-22239000D01*
X61049945Y-22211719D01*
X61062829Y-22167242D01*
X61079910Y-22108163D01*
X61100439Y-22037075D01*
X61123665Y-21956570D01*
X61148839Y-21869242D01*
X61254561Y-21502353D01*
X61499019Y-21502353D01*
X61631798Y-22111953D01*
X61647042Y-22182055D01*
X61671044Y-22292904D01*
X61693287Y-22396215D01*
X61713333Y-22489916D01*
X61730742Y-22571931D01*
X61745074Y-22640188D01*
X61755891Y-22692612D01*
X61762753Y-22727130D01*
X61765220Y-22741667D01*
X61765118Y-22745414D01*
X61761583Y-22752729D01*
X61750375Y-22757226D01*
X61727771Y-22759385D01*
X61690050Y-22759684D01*
X61633492Y-22758600D01*
X61501120Y-22755420D01*
X61460029Y-22540931D01*
X61450049Y-22488784D01*
X61433318Y-22401168D01*
X61416293Y-22311823D01*
X61400493Y-22228716D01*
X61387435Y-22159814D01*
X61381586Y-22129339D01*
X61370879Y-22076043D01*
X61361763Y-22033841D01*
X61355055Y-22006440D01*
X61351575Y-21997545D01*
X61349494Y-22003105D01*
X61341803Y-22027862D01*
X61329273Y-22070052D01*
X61312652Y-22127103D01*
X61292686Y-22196447D01*
X61270123Y-22275512D01*
X61245711Y-22361728D01*
X61229690Y-22418498D01*
X61206182Y-22501730D01*
X61184951Y-22576811D01*
X61166766Y-22641025D01*
X61152397Y-22691657D01*
X61142613Y-22725991D01*
X61138184Y-22741309D01*
X61137540Y-22743199D01*
X61130344Y-22752362D01*
X61114322Y-22757795D01*
X61084900Y-22760397D01*
X61037499Y-22761064D01*
X60942835Y-22761064D01*
X60932646Y-22724375D01*
X60929617Y-22713473D01*
X60898411Y-22602118D01*
X60867824Y-22494562D01*
X60838456Y-22392801D01*
X60810908Y-22298831D01*
X60785781Y-22214647D01*
X60763677Y-22142245D01*
X60745197Y-22083618D01*
X60730942Y-22040764D01*
X60721513Y-22015677D01*
X60717512Y-22010353D01*
X60716111Y-22017380D01*
X60710662Y-22045336D01*
X60701826Y-22090991D01*
X60690149Y-22151525D01*
X60676173Y-22224114D01*
X60660442Y-22305938D01*
X60643502Y-22394175D01*
X60574193Y-22755420D01*
X60441894Y-22758600D01*
X60417336Y-22759157D01*
X60368592Y-22759758D01*
X60337231Y-22758787D01*
X60319530Y-22755768D01*
X60311764Y-22750221D01*
X60310211Y-22741667D01*
X60311157Y-22735338D01*
X60316339Y-22708422D01*
X60325648Y-22662785D01*
X60338646Y-22600501D01*
X60354893Y-22523643D01*
X60373950Y-22434285D01*
X60395377Y-22334502D01*
X60418736Y-22226366D01*
X60443587Y-22111953D01*
X60576347Y-21502353D01*
X60820896Y-21502353D01*
X60928651Y-21879693D01*
G37*
G36*
X55788037Y-22297283D02*
G01*
X55788396Y-22354484D01*
X55788393Y-22361021D01*
X55787773Y-22417801D01*
X55785424Y-22458761D01*
X55780395Y-22490053D01*
X55771738Y-22517830D01*
X55758504Y-22548246D01*
X55717245Y-22617209D01*
X55653814Y-22683771D01*
X55575371Y-22734394D01*
X55483596Y-22767736D01*
X55397504Y-22781428D01*
X55302525Y-22779104D01*
X55212959Y-22758992D01*
X55132005Y-22722201D01*
X55062862Y-22669840D01*
X55008728Y-22603020D01*
X54991230Y-22572200D01*
X54972995Y-22533649D01*
X54963087Y-22504242D01*
X54955840Y-22467553D01*
X55084252Y-22467625D01*
X55212663Y-22467696D01*
X55231337Y-22500523D01*
X55247616Y-22523821D01*
X55288205Y-22556887D01*
X55336083Y-22573215D01*
X55386471Y-22573187D01*
X55434588Y-22557181D01*
X55475654Y-22525578D01*
X55504890Y-22478759D01*
X55509374Y-22467211D01*
X55519192Y-22438786D01*
X55523107Y-22422169D01*
X55521684Y-22420823D01*
X55502907Y-22417463D01*
X55463388Y-22414761D01*
X55404475Y-22412766D01*
X55327516Y-22411532D01*
X55233860Y-22411109D01*
X54944612Y-22411109D01*
X54949403Y-22310899D01*
X54952828Y-22260761D01*
X54954027Y-22253064D01*
X55216786Y-22253064D01*
X55522548Y-22253064D01*
X55511529Y-22224082D01*
X55495585Y-22188786D01*
X55463967Y-22147597D01*
X55422646Y-22124709D01*
X55368446Y-22117764D01*
X55343105Y-22119698D01*
X55290302Y-22138259D01*
X55249784Y-22174901D01*
X55224121Y-22227664D01*
X55216786Y-22253064D01*
X54954027Y-22253064D01*
X54959550Y-22217592D01*
X54971457Y-22179260D01*
X54990769Y-22136395D01*
X55000504Y-22117923D01*
X55053004Y-22046172D01*
X55119624Y-21989497D01*
X55197429Y-21948788D01*
X55283485Y-21924933D01*
X55374860Y-21918821D01*
X55468618Y-21931341D01*
X55561826Y-21963383D01*
X55635813Y-22007034D01*
X55700995Y-22069823D01*
X55751598Y-22149676D01*
X55760546Y-22168115D01*
X55773594Y-22198073D01*
X55781769Y-22225383D01*
X55785735Y-22253064D01*
X55786206Y-22256351D01*
X55788037Y-22297283D01*
G37*
G36*
X60778379Y-21125135D02*
G01*
X60757621Y-21206658D01*
X60719413Y-21275164D01*
X60664744Y-21329218D01*
X60594601Y-21367386D01*
X60593387Y-21367846D01*
X60536257Y-21379952D01*
X60470436Y-21379725D01*
X60405328Y-21368003D01*
X60350334Y-21345625D01*
X60314557Y-21320874D01*
X60264586Y-21269694D01*
X60231628Y-21211614D01*
X60219844Y-21180620D01*
X60275248Y-21180620D01*
X60277907Y-21180625D01*
X60311538Y-21182511D01*
X60329444Y-21189406D01*
X60337956Y-21203632D01*
X60341252Y-21210458D01*
X60360295Y-21232740D01*
X60388212Y-21255068D01*
X60396556Y-21260252D01*
X60452356Y-21281235D01*
X60511704Y-21284168D01*
X60569150Y-21270241D01*
X60619246Y-21240640D01*
X60656544Y-21196555D01*
X60665496Y-21180916D01*
X60677739Y-21157823D01*
X60683012Y-21140649D01*
X60679086Y-21128519D01*
X60663731Y-21120557D01*
X60634717Y-21115888D01*
X60589816Y-21113637D01*
X60526797Y-21112928D01*
X60443430Y-21112887D01*
X60204731Y-21112887D01*
X60211359Y-21042331D01*
X60212691Y-21029509D01*
X60216702Y-21009206D01*
X60309596Y-21009206D01*
X60314496Y-21013775D01*
X60334021Y-21017829D01*
X60370270Y-21020557D01*
X60425187Y-21022093D01*
X60500719Y-21022575D01*
X60691842Y-21022575D01*
X60681369Y-20985887D01*
X60658787Y-20935051D01*
X60620753Y-20891597D01*
X60573087Y-20862475D01*
X60519866Y-20848133D01*
X60465167Y-20849020D01*
X60413068Y-20865585D01*
X60367644Y-20898276D01*
X60332975Y-20947543D01*
X60325950Y-20962674D01*
X60314228Y-20991674D01*
X60309596Y-21009206D01*
X60216702Y-21009206D01*
X60227074Y-20956702D01*
X60253706Y-20896033D01*
X60295742Y-20839937D01*
X60339989Y-20800191D01*
X60406067Y-20765422D01*
X60478321Y-20750581D01*
X60553216Y-20756272D01*
X60627218Y-20783101D01*
X60662768Y-20804915D01*
X60718120Y-20858101D01*
X60756766Y-20925406D01*
X60778012Y-21005415D01*
X60778604Y-21022575D01*
X60781164Y-21096711D01*
X60778379Y-21125135D01*
G37*
G36*
X60633810Y-23842202D02*
G01*
X60617019Y-23936637D01*
X60582778Y-24018452D01*
X60531790Y-24086503D01*
X60464756Y-24139649D01*
X60382381Y-24176748D01*
X60371261Y-24180075D01*
X60289511Y-24191883D01*
X60207721Y-24183560D01*
X60129767Y-24156863D01*
X60059525Y-24113551D01*
X60000872Y-24055383D01*
X59957685Y-23984116D01*
X59948481Y-23961753D01*
X59924114Y-23871045D01*
X59919245Y-23791260D01*
X60037949Y-23791260D01*
X60044027Y-23862612D01*
X60064158Y-23929440D01*
X60098727Y-23986732D01*
X60106847Y-23995821D01*
X60142120Y-24026560D01*
X60178975Y-24049208D01*
X60192267Y-24054700D01*
X60257882Y-24068916D01*
X60325966Y-24065684D01*
X60389948Y-24045960D01*
X60443259Y-24010701D01*
X60478764Y-23964382D01*
X60505154Y-23903469D01*
X60520689Y-23834965D01*
X60523825Y-23765689D01*
X60513018Y-23702461D01*
X60488376Y-23645020D01*
X60445273Y-23587392D01*
X60391400Y-23546473D01*
X60329877Y-23523332D01*
X60263820Y-23519041D01*
X60196349Y-23534667D01*
X60130581Y-23571280D01*
X60100194Y-23600193D01*
X60066417Y-23655037D01*
X60045541Y-23720397D01*
X60037949Y-23791260D01*
X59919245Y-23791260D01*
X59918555Y-23779962D01*
X59930775Y-23691686D01*
X59959745Y-23609398D01*
X60004436Y-23536279D01*
X60063819Y-23475510D01*
X60136864Y-23430273D01*
X60147170Y-23425637D01*
X60179132Y-23413333D01*
X60209465Y-23406846D01*
X60246199Y-23404991D01*
X60297367Y-23406582D01*
X60297916Y-23406608D01*
X60373484Y-23415133D01*
X60434610Y-23434522D01*
X60488013Y-23467860D01*
X60540412Y-23518236D01*
X60572751Y-23558321D01*
X60605707Y-23617459D01*
X60625548Y-23684856D01*
X60634558Y-23765689D01*
X60634691Y-23766885D01*
X60633810Y-23842202D01*
G37*
G36*
X62488352Y-24601153D02*
G01*
X62364174Y-24601153D01*
X62364174Y-19983998D01*
X62488352Y-19983998D01*
X62488352Y-24601153D01*
G37*
G36*
X58526574Y-23407256D02*
G01*
X58557225Y-23414220D01*
X58588059Y-23427118D01*
X58608394Y-23438173D01*
X58659447Y-23481440D01*
X58692521Y-23537377D01*
X58706874Y-23604329D01*
X58701762Y-23680641D01*
X58693513Y-23709532D01*
X58672881Y-23744241D01*
X58639302Y-23774711D01*
X58590393Y-23802528D01*
X58523771Y-23829273D01*
X58437051Y-23856531D01*
X58380660Y-23876080D01*
X58334879Y-23901962D01*
X58308584Y-23932564D01*
X58300174Y-23969204D01*
X58300214Y-23972808D01*
X58310569Y-24020240D01*
X58339027Y-24054353D01*
X58385322Y-24074947D01*
X58449191Y-24081822D01*
X58478761Y-24079723D01*
X58533335Y-24063607D01*
X58576925Y-24034105D01*
X58605808Y-23994221D01*
X58616263Y-23946958D01*
X58616545Y-23941074D01*
X58622055Y-23929961D01*
X58638913Y-23924973D01*
X58672707Y-23923820D01*
X58698338Y-23924151D01*
X58719322Y-23927300D01*
X58727638Y-23936473D01*
X58729089Y-23954864D01*
X58725487Y-23996817D01*
X58703488Y-24062708D01*
X58663348Y-24117730D01*
X58607216Y-24159309D01*
X58537240Y-24184869D01*
X58529744Y-24186324D01*
X58478426Y-24190294D01*
X58418789Y-24187751D01*
X58361014Y-24179537D01*
X58315281Y-24166496D01*
X58262998Y-24137833D01*
X58218412Y-24092969D01*
X58191996Y-24035192D01*
X58182986Y-23963331D01*
X58186847Y-23909527D01*
X58202025Y-23861411D01*
X58230819Y-23821595D01*
X58275468Y-23787884D01*
X58338211Y-23758089D01*
X58421288Y-23730015D01*
X58431790Y-23726873D01*
X58492892Y-23707271D01*
X58535807Y-23690145D01*
X58563939Y-23673555D01*
X58580696Y-23655562D01*
X58589483Y-23634225D01*
X58589738Y-23633191D01*
X58590845Y-23591190D01*
X58574818Y-23557160D01*
X58545787Y-23531726D01*
X58507878Y-23515516D01*
X58465221Y-23509157D01*
X58421944Y-23513276D01*
X58382176Y-23528499D01*
X58350044Y-23555455D01*
X58329678Y-23594769D01*
X58325238Y-23608739D01*
X58315792Y-23623307D01*
X58297967Y-23629204D01*
X58264674Y-23630309D01*
X58242267Y-23630048D01*
X58220343Y-23627090D01*
X58211503Y-23618160D01*
X58209863Y-23600006D01*
X58213061Y-23574108D01*
X58231735Y-23525575D01*
X58263070Y-23479061D01*
X58302413Y-23442480D01*
X58304604Y-23440969D01*
X58331386Y-23424772D01*
X58358385Y-23414862D01*
X58393052Y-23409315D01*
X58442839Y-23406207D01*
X58488211Y-23405090D01*
X58526574Y-23407256D01*
G37*
G36*
X59316174Y-24172175D02*
G01*
X59203858Y-24172175D01*
X59197640Y-23820507D01*
X59057977Y-23991579D01*
X59053232Y-23997384D01*
X59009707Y-24050000D01*
X58970628Y-24096156D01*
X58938420Y-24133068D01*
X58915506Y-24157952D01*
X58904313Y-24168023D01*
X58893217Y-24169894D01*
X58863934Y-24170959D01*
X58826270Y-24169963D01*
X58762227Y-24166531D01*
X58915657Y-23985909D01*
X58929314Y-23969805D01*
X58974259Y-23916430D01*
X59013578Y-23869166D01*
X59045006Y-23830772D01*
X59066278Y-23804007D01*
X59075129Y-23791632D01*
X59075193Y-23790260D01*
X59067075Y-23774461D01*
X59046745Y-23744991D01*
X59016293Y-23704641D01*
X58977809Y-23656201D01*
X58933384Y-23602461D01*
X58922862Y-23589951D01*
X58879240Y-23537769D01*
X58841530Y-23492159D01*
X58811904Y-23455784D01*
X58792535Y-23431304D01*
X58785596Y-23421382D01*
X58794395Y-23418714D01*
X58820161Y-23416622D01*
X58856953Y-23415820D01*
X58928310Y-23415820D01*
X59197640Y-23746602D01*
X59200597Y-23315922D01*
X59203553Y-22885242D01*
X59316174Y-22885242D01*
X59316174Y-24172175D01*
G37*
G36*
X61234224Y-23408711D02*
G01*
X61244681Y-23426968D01*
X61259156Y-23457824D01*
X61278707Y-23503382D01*
X61304391Y-23565748D01*
X61337268Y-23647026D01*
X61362103Y-23708309D01*
X61389233Y-23774319D01*
X61412748Y-23830518D01*
X61431466Y-23874114D01*
X61444203Y-23902316D01*
X61449774Y-23912333D01*
X61452302Y-23908471D01*
X61462336Y-23886966D01*
X61478636Y-23849142D01*
X61499977Y-23797913D01*
X61525138Y-23736190D01*
X61552894Y-23666886D01*
X61650370Y-23421464D01*
X61713761Y-23418079D01*
X61740591Y-23417230D01*
X61766953Y-23418067D01*
X61777152Y-23420874D01*
X61776370Y-23423406D01*
X61768825Y-23442934D01*
X61754227Y-23479224D01*
X61733757Y-23529432D01*
X61708596Y-23590715D01*
X61679924Y-23660230D01*
X61648924Y-23735135D01*
X61616775Y-23812587D01*
X61584658Y-23889742D01*
X61553756Y-23963759D01*
X61525248Y-24031793D01*
X61500316Y-24091003D01*
X61480140Y-24138545D01*
X61465903Y-24171576D01*
X61458783Y-24187253D01*
X61451608Y-24198899D01*
X61444513Y-24204187D01*
X61440776Y-24195777D01*
X61429787Y-24168822D01*
X61412727Y-24126105D01*
X61390725Y-24070469D01*
X61364908Y-24004756D01*
X61336405Y-23931807D01*
X61311063Y-23867630D01*
X61284537Y-23802393D01*
X61261401Y-23747550D01*
X61242814Y-23705780D01*
X61229937Y-23679758D01*
X61223929Y-23672162D01*
X61220572Y-23678668D01*
X61209652Y-23703945D01*
X61192690Y-23745238D01*
X61170902Y-23799537D01*
X61145505Y-23863831D01*
X61117715Y-23935109D01*
X61098536Y-23984375D01*
X61072237Y-24051124D01*
X61049147Y-24108790D01*
X61030484Y-24154372D01*
X61017464Y-24184871D01*
X61011306Y-24197287D01*
X61007331Y-24191629D01*
X60995596Y-24167953D01*
X60977389Y-24128446D01*
X60953885Y-24075867D01*
X60926260Y-24012978D01*
X60895690Y-23942539D01*
X60863351Y-23867310D01*
X60830418Y-23790051D01*
X60798068Y-23713523D01*
X60767477Y-23640487D01*
X60739819Y-23573702D01*
X60716271Y-23515929D01*
X60698008Y-23469928D01*
X60686207Y-23438461D01*
X60682044Y-23424287D01*
X60687254Y-23420883D01*
X60709447Y-23417236D01*
X60743134Y-23415820D01*
X60804138Y-23415820D01*
X60903326Y-23664285D01*
X60922291Y-23711262D01*
X60948915Y-23775330D01*
X60972314Y-23829422D01*
X60991248Y-23870771D01*
X61004477Y-23896611D01*
X61010764Y-23904174D01*
X61012578Y-23901177D01*
X61022144Y-23880565D01*
X61038106Y-23843441D01*
X61059144Y-23792954D01*
X61083939Y-23732252D01*
X61111174Y-23664481D01*
X61121951Y-23637511D01*
X61149010Y-23570273D01*
X61173454Y-23510198D01*
X61193860Y-23460744D01*
X61208807Y-23425368D01*
X61216871Y-23407529D01*
X61221133Y-23401574D01*
X61226727Y-23400948D01*
X61234224Y-23408711D01*
G37*
G36*
X58464884Y-22509274D02*
G01*
X58431787Y-22596340D01*
X58382735Y-22668228D01*
X58318079Y-22724344D01*
X58238172Y-22764091D01*
X58176993Y-22778280D01*
X58103778Y-22779947D01*
X58031114Y-22767958D01*
X57965524Y-22743448D01*
X57913529Y-22707553D01*
X57882485Y-22677818D01*
X57882485Y-22761064D01*
X57622840Y-22761064D01*
X57622840Y-22367435D01*
X57884486Y-22367435D01*
X57887127Y-22397644D01*
X57899518Y-22450449D01*
X57923529Y-22490870D01*
X57962205Y-22525088D01*
X58005622Y-22545658D01*
X58060607Y-22551719D01*
X58114911Y-22539820D01*
X58161611Y-22510468D01*
X58197118Y-22467860D01*
X58218438Y-22415064D01*
X58225061Y-22349020D01*
X58222634Y-22307620D01*
X58206027Y-22244669D01*
X58174058Y-22197789D01*
X58127162Y-22167513D01*
X58065775Y-22154373D01*
X58050325Y-22153842D01*
X57989214Y-22162865D01*
X57941222Y-22189739D01*
X57907201Y-22233461D01*
X57888004Y-22293027D01*
X57884486Y-22367435D01*
X57622840Y-22367435D01*
X57622840Y-21936975D01*
X57882485Y-21936975D01*
X57882485Y-22017147D01*
X57919781Y-21988699D01*
X57959976Y-21962305D01*
X58036895Y-21931009D01*
X58117473Y-21919410D01*
X58198042Y-21926973D01*
X58274932Y-21953161D01*
X58344475Y-21997438D01*
X58403000Y-22059269D01*
X58428958Y-22099126D01*
X58460164Y-22170229D01*
X58478031Y-22251999D01*
X58483839Y-22349020D01*
X58481672Y-22407626D01*
X58464884Y-22509274D01*
G37*
G36*
X57509952Y-22150891D02*
G01*
X57334123Y-22154000D01*
X57158295Y-22157109D01*
X57325979Y-22416753D01*
X57370246Y-22485368D01*
X57413190Y-22552072D01*
X57451515Y-22611740D01*
X57483309Y-22661393D01*
X57506662Y-22698050D01*
X57519661Y-22718731D01*
X57545660Y-22761064D01*
X56753596Y-22761064D01*
X56753596Y-22535287D01*
X57113409Y-22535287D01*
X56939147Y-22242373D01*
X56922506Y-22214373D01*
X56880234Y-22142980D01*
X56842479Y-22078830D01*
X56810652Y-22024353D01*
X56786168Y-21981973D01*
X56770441Y-21954119D01*
X56764885Y-21943218D01*
X56769888Y-21942198D01*
X56794483Y-21940786D01*
X56837250Y-21939532D01*
X56895558Y-21938480D01*
X56966776Y-21937673D01*
X57048273Y-21937157D01*
X57137418Y-21936975D01*
X57509952Y-21936975D01*
X57509952Y-22150891D01*
G37*
G36*
X57245775Y-19608618D02*
G01*
X57287176Y-19741239D01*
X57327823Y-19608618D01*
X57368470Y-19475998D01*
X57504122Y-19476160D01*
X57639774Y-19476323D01*
X57671903Y-19534554D01*
X57704033Y-19592785D01*
X57737746Y-19534391D01*
X57771460Y-19475998D01*
X57917907Y-19475998D01*
X57855040Y-19565205D01*
X57839051Y-19588363D01*
X57814943Y-19625391D01*
X57798350Y-19653735D01*
X57792174Y-19668623D01*
X57793327Y-19672936D01*
X57804566Y-19693795D01*
X57825215Y-19725427D01*
X57852112Y-19762859D01*
X57866552Y-19782080D01*
X57896440Y-19822195D01*
X57913488Y-19848068D01*
X57917773Y-19862797D01*
X57909372Y-19869480D01*
X57888363Y-19871218D01*
X57854825Y-19871109D01*
X57780676Y-19871109D01*
X57745946Y-19814664D01*
X57729983Y-19789960D01*
X57713170Y-19767063D01*
X57703717Y-19758231D01*
X57697482Y-19763648D01*
X57682869Y-19784145D01*
X57664523Y-19814676D01*
X57632827Y-19871109D01*
X57560100Y-19871109D01*
X57524583Y-19870267D01*
X57497668Y-19867902D01*
X57487374Y-19864547D01*
X57490598Y-19858123D01*
X57504659Y-19836406D01*
X57527320Y-19803603D01*
X57555769Y-19763848D01*
X57624163Y-19669711D01*
X57564235Y-19578753D01*
X57548217Y-19554758D01*
X57524298Y-19520239D01*
X57506651Y-19496460D01*
X57498255Y-19487541D01*
X57493494Y-19496107D01*
X57482565Y-19522889D01*
X57466873Y-19564582D01*
X57447687Y-19617811D01*
X57426274Y-19679198D01*
X57406388Y-19735862D01*
X57386496Y-19789950D01*
X57369742Y-19832779D01*
X57357457Y-19860962D01*
X57350969Y-19871109D01*
X57349973Y-19876225D01*
X57354631Y-19898404D01*
X57365251Y-19934106D01*
X57380617Y-19978913D01*
X57392077Y-20010822D01*
X57406297Y-20051260D01*
X57416031Y-20080030D01*
X57419640Y-20092365D01*
X57413335Y-20094465D01*
X57389982Y-20095556D01*
X57355319Y-20094628D01*
X57290997Y-20091242D01*
X57186617Y-19792087D01*
X57182767Y-19781048D01*
X57155972Y-19703963D01*
X57131879Y-19634215D01*
X57111442Y-19574597D01*
X57095615Y-19527903D01*
X57085352Y-19496928D01*
X57081606Y-19484464D01*
X57086784Y-19480999D01*
X57108926Y-19477395D01*
X57142674Y-19475998D01*
X57204375Y-19475998D01*
X57245775Y-19608618D01*
G37*
G36*
X61641685Y-20762931D02*
G01*
X61777152Y-20762931D01*
X61777152Y-20853242D01*
X61641685Y-20853242D01*
X61641685Y-21372531D01*
X61551374Y-21372531D01*
X61551374Y-20853242D01*
X61415907Y-20853242D01*
X61415907Y-20762931D01*
X61551374Y-20762931D01*
X61551374Y-20525864D01*
X61641685Y-20525864D01*
X61641685Y-20762931D01*
G37*
G36*
X56663285Y-22761064D02*
G01*
X56403640Y-22761064D01*
X56403640Y-21936975D01*
X56663285Y-21936975D01*
X56663285Y-22761064D01*
G37*
G36*
X56335907Y-24601153D02*
G01*
X56335907Y-24058534D01*
X56296096Y-24098345D01*
X56280145Y-24113579D01*
X56221238Y-24156434D01*
X56157311Y-24180377D01*
X56081907Y-24188113D01*
X56053916Y-24187670D01*
X55998444Y-24180949D01*
X55951076Y-24164901D01*
X55890163Y-24127828D01*
X55832068Y-24069540D01*
X55787653Y-23997136D01*
X55758261Y-23913557D01*
X55745236Y-23821745D01*
X55746910Y-23787043D01*
X55861884Y-23787043D01*
X55863009Y-23820873D01*
X55867642Y-23866871D01*
X55874659Y-23902119D01*
X55875932Y-23906179D01*
X55903914Y-23961760D01*
X55946856Y-24011862D01*
X55997883Y-24048325D01*
X56040975Y-24064083D01*
X56105224Y-24069841D01*
X56169348Y-24058140D01*
X56227357Y-24030302D01*
X56273258Y-23987646D01*
X56304945Y-23935081D01*
X56327485Y-23866886D01*
X56334675Y-23795786D01*
X56327380Y-23725625D01*
X56306465Y-23660247D01*
X56272793Y-23603498D01*
X56227229Y-23559221D01*
X56170638Y-23531260D01*
X56118960Y-23520800D01*
X56049790Y-23523505D01*
X55988183Y-23545335D01*
X55936363Y-23584448D01*
X55896556Y-23638999D01*
X55870988Y-23707146D01*
X55861884Y-23787043D01*
X55746910Y-23787043D01*
X55749921Y-23724639D01*
X55769789Y-23638386D01*
X55806267Y-23557910D01*
X55856850Y-23492960D01*
X55920161Y-23444872D01*
X55994819Y-23414986D01*
X56079448Y-23404641D01*
X56126767Y-23406564D01*
X56183359Y-23418059D01*
X56233078Y-23442815D01*
X56284425Y-23484130D01*
X56335907Y-23531584D01*
X56335907Y-23415820D01*
X56448796Y-23415820D01*
X56448796Y-24601153D01*
X56335907Y-24601153D01*
G37*
G36*
X58029240Y-24172175D02*
G01*
X57916352Y-24172175D01*
X57916352Y-23989656D01*
X57916113Y-23943498D01*
X57913523Y-23849172D01*
X57907768Y-23773101D01*
X57898457Y-23712355D01*
X57885198Y-23664002D01*
X57867599Y-23625111D01*
X57857656Y-23608692D01*
X57821259Y-23566623D01*
X57775922Y-23541919D01*
X57716126Y-23531159D01*
X57703553Y-23530354D01*
X57667204Y-23530492D01*
X57641858Y-23537100D01*
X57618650Y-23552079D01*
X57613959Y-23555844D01*
X57595959Y-23572464D01*
X57582030Y-23591223D01*
X57571657Y-23615040D01*
X57564326Y-23646835D01*
X57559520Y-23689525D01*
X57556725Y-23746032D01*
X57555426Y-23819273D01*
X57555107Y-23912168D01*
X57555107Y-24172175D01*
X57442218Y-24172175D01*
X57442218Y-23903291D01*
X57442552Y-23811896D01*
X57443691Y-23737265D01*
X57445793Y-23679365D01*
X57449012Y-23635236D01*
X57453506Y-23601917D01*
X57459430Y-23576449D01*
X57468165Y-23550880D01*
X57503461Y-23487410D01*
X57552740Y-23441614D01*
X57615500Y-23413864D01*
X57691240Y-23404531D01*
X57716064Y-23405223D01*
X57778617Y-23416145D01*
X57830247Y-23442495D01*
X57877213Y-23487048D01*
X57916352Y-23532773D01*
X57916352Y-22885242D01*
X58029240Y-22885242D01*
X58029240Y-24172175D01*
G37*
G36*
X59301750Y-19258766D02*
G01*
X59326832Y-19282831D01*
X59340176Y-19316173D01*
X59339357Y-19352505D01*
X59321950Y-19385541D01*
X59292966Y-19404078D01*
X59256925Y-19406072D01*
X59223929Y-19389581D01*
X59218804Y-19384280D01*
X59204981Y-19353945D01*
X59205377Y-19318649D01*
X59217781Y-19285114D01*
X59239982Y-19260064D01*
X59269768Y-19250220D01*
X59301750Y-19258766D01*
G37*
G36*
X59765914Y-19789545D02*
G01*
X59736845Y-19831342D01*
X59698728Y-19862153D01*
X59654134Y-19879089D01*
X59605631Y-19879261D01*
X59555790Y-19859778D01*
X59536853Y-19848458D01*
X59517659Y-19839145D01*
X59509675Y-19841239D01*
X59508085Y-19854175D01*
X59500577Y-19866333D01*
X59473286Y-19871109D01*
X59438487Y-19871109D01*
X59442084Y-19683681D01*
X59537864Y-19683681D01*
X59538797Y-19722641D01*
X59561514Y-19761042D01*
X59562332Y-19761932D01*
X59591361Y-19778986D01*
X59624688Y-19778994D01*
X59656138Y-19764710D01*
X59679536Y-19738889D01*
X59688707Y-19704287D01*
X59688322Y-19695198D01*
X59676346Y-19657051D01*
X59651532Y-19631778D01*
X59619218Y-19621390D01*
X59584736Y-19627897D01*
X59553422Y-19653309D01*
X59537864Y-19683681D01*
X59442084Y-19683681D01*
X59442241Y-19675513D01*
X59442389Y-19667811D01*
X59443853Y-19598863D01*
X59445563Y-19548195D01*
X59448091Y-19511884D01*
X59452013Y-19486010D01*
X59457899Y-19466652D01*
X59466324Y-19449891D01*
X59477861Y-19431804D01*
X59506613Y-19396568D01*
X59555564Y-19362501D01*
X59617051Y-19344964D01*
X59693417Y-19342992D01*
X59728752Y-19346316D01*
X59788291Y-19359662D01*
X59837656Y-19384533D01*
X59884485Y-19424172D01*
X59885383Y-19425075D01*
X59931362Y-19486632D01*
X59963399Y-19561761D01*
X59980493Y-19645602D01*
X59981646Y-19733301D01*
X59965860Y-19820000D01*
X59962012Y-19831919D01*
X59930959Y-19892966D01*
X59885260Y-19948832D01*
X59830453Y-19993745D01*
X59772073Y-20021937D01*
X59771585Y-20022086D01*
X59725401Y-20031320D01*
X59660035Y-20037272D01*
X59578640Y-20039656D01*
X59440352Y-20040442D01*
X59440352Y-19952453D01*
X59578640Y-19948387D01*
X59589200Y-19948068D01*
X59646901Y-19945717D01*
X59688199Y-19942268D01*
X59718453Y-19936806D01*
X59743023Y-19928415D01*
X59767267Y-19916182D01*
X59771571Y-19913707D01*
X59822957Y-19871158D01*
X59860220Y-19815410D01*
X59882831Y-19750987D01*
X59890262Y-19682412D01*
X59881986Y-19614210D01*
X59857473Y-19550905D01*
X59816197Y-19497021D01*
X59779056Y-19467748D01*
X59725474Y-19442605D01*
X59671399Y-19433403D01*
X59620641Y-19439529D01*
X59577006Y-19460368D01*
X59544303Y-19495306D01*
X59526341Y-19543731D01*
X59525146Y-19551251D01*
X59523557Y-19568932D01*
X59526171Y-19568893D01*
X59533836Y-19558570D01*
X59560917Y-19540303D01*
X59597346Y-19526583D01*
X59634524Y-19521195D01*
X59644073Y-19521568D01*
X59694524Y-19536099D01*
X59737786Y-19569606D01*
X59769794Y-19619146D01*
X59773136Y-19627137D01*
X59786630Y-19684553D01*
X59785461Y-19704287D01*
X59783366Y-19739652D01*
X59765914Y-19789545D01*
G37*
G36*
X61348174Y-21372531D02*
G01*
X61260795Y-21372531D01*
X61255632Y-21189087D01*
X61254474Y-21151201D01*
X61251776Y-21087748D01*
X61248243Y-21040606D01*
X61243370Y-21005554D01*
X61236652Y-20978373D01*
X61227582Y-20954842D01*
X61209580Y-20919668D01*
X61181047Y-20884481D01*
X61144670Y-20864568D01*
X61094701Y-20855639D01*
X61073402Y-20854150D01*
X61044327Y-20855052D01*
X61024681Y-20862975D01*
X61005944Y-20880285D01*
X61002317Y-20884287D01*
X60989468Y-20901136D01*
X60979865Y-20920785D01*
X60973046Y-20946532D01*
X60968548Y-20981670D01*
X60965908Y-21029494D01*
X60964664Y-21093302D01*
X60964352Y-21176387D01*
X60964352Y-21372531D01*
X60874040Y-21372531D01*
X60874040Y-21160091D01*
X60874314Y-21100082D01*
X60875891Y-21024229D01*
X60879029Y-20966125D01*
X60883908Y-20922859D01*
X60890708Y-20891524D01*
X60910225Y-20845658D01*
X60948618Y-20797854D01*
X60997598Y-20765901D01*
X61053209Y-20750718D01*
X61111494Y-20753225D01*
X61168498Y-20774340D01*
X61220263Y-20814982D01*
X61257863Y-20854850D01*
X61257863Y-20345242D01*
X61348174Y-20345242D01*
X61348174Y-21372531D01*
G37*
G36*
X56106976Y-19713000D02*
G01*
X56129828Y-19729362D01*
X56163405Y-19758390D01*
X56210250Y-19801813D01*
X56232882Y-19823844D01*
X56262763Y-19855858D01*
X56281345Y-19879932D01*
X56285765Y-19892622D01*
X56283727Y-19895382D01*
X56274705Y-19899173D01*
X56260039Y-19893751D01*
X56237187Y-19877389D01*
X56203609Y-19848361D01*
X56156764Y-19804938D01*
X56134132Y-19782906D01*
X56104252Y-19750893D01*
X56085669Y-19726819D01*
X56081249Y-19714129D01*
X56083287Y-19711369D01*
X56092309Y-19707578D01*
X56106976Y-19713000D01*
G37*
G36*
X56131256Y-19572612D02*
G01*
X56143166Y-19579346D01*
X56161631Y-19593102D01*
X56188676Y-19615517D01*
X56226327Y-19648229D01*
X56276610Y-19692878D01*
X56341552Y-19751099D01*
X56375860Y-19782016D01*
X56424827Y-19826723D01*
X56459807Y-19859827D01*
X56482749Y-19883391D01*
X56495603Y-19899478D01*
X56500320Y-19910150D01*
X56498850Y-19917471D01*
X56497371Y-19919470D01*
X56491071Y-19922279D01*
X56480420Y-19919062D01*
X56463385Y-19908262D01*
X56437935Y-19888322D01*
X56402037Y-19857687D01*
X56353660Y-19814800D01*
X56290771Y-19758106D01*
X56272823Y-19741841D01*
X56215529Y-19689544D01*
X56172979Y-19649772D01*
X56143436Y-19620629D01*
X56125164Y-19600221D01*
X56116425Y-19586652D01*
X56115484Y-19578029D01*
X56120603Y-19572457D01*
X56123874Y-19571261D01*
X56131256Y-19572612D01*
G37*
G36*
X58886879Y-21922650D02*
G01*
X58939268Y-21932200D01*
X58988260Y-21953519D01*
X59042418Y-21989683D01*
X59079107Y-22017147D01*
X59079107Y-21936975D01*
X59338752Y-21936975D01*
X59338752Y-22761064D01*
X59079107Y-22761064D01*
X59079107Y-22517991D01*
X59078837Y-22439275D01*
X59077522Y-22365810D01*
X59074609Y-22309318D01*
X59069549Y-22266784D01*
X59061793Y-22235194D01*
X59050792Y-22211532D01*
X59035999Y-22192785D01*
X59016864Y-22175937D01*
X58989460Y-22160052D01*
X58944153Y-22150566D01*
X58899740Y-22157483D01*
X58863764Y-22180574D01*
X58859178Y-22185525D01*
X58851679Y-22195064D01*
X58845976Y-22206749D01*
X58841777Y-22223499D01*
X58838786Y-22248233D01*
X58836708Y-22283869D01*
X58835250Y-22333325D01*
X58834116Y-22399521D01*
X58833013Y-22485374D01*
X58829630Y-22761064D01*
X58571107Y-22761064D01*
X58571107Y-22481214D01*
X58571422Y-22390462D01*
X58572564Y-22311182D01*
X58574679Y-22248834D01*
X58577913Y-22200488D01*
X58582412Y-22163214D01*
X58588321Y-22134081D01*
X58611388Y-22068005D01*
X58651823Y-22003903D01*
X58705581Y-21957948D01*
X58772410Y-21930344D01*
X58852060Y-21921292D01*
X58886879Y-21922650D01*
G37*
G36*
X56990388Y-20822750D02*
G01*
X56995242Y-20893865D01*
X56998979Y-20966666D01*
X57001979Y-21045153D01*
X57003354Y-21090794D01*
X57004890Y-21163019D01*
X57005451Y-21226286D01*
X57005042Y-21277194D01*
X57004626Y-21287864D01*
X57003671Y-21312344D01*
X57001347Y-21328336D01*
X56992220Y-21339074D01*
X56968317Y-21362751D01*
X56932834Y-21396008D01*
X56888704Y-21436102D01*
X56838862Y-21480289D01*
X56802655Y-21512126D01*
X56757313Y-21552759D01*
X56725411Y-21583006D01*
X56704633Y-21605472D01*
X56692660Y-21622762D01*
X56687176Y-21637478D01*
X56685863Y-21652226D01*
X56682483Y-21683997D01*
X56663008Y-21732463D01*
X56629893Y-21771228D01*
X56587369Y-21797133D01*
X56539666Y-21807017D01*
X56491015Y-21797723D01*
X56483368Y-21794118D01*
X56452404Y-21773104D01*
X56422977Y-21745241D01*
X56400992Y-21716745D01*
X56392352Y-21693833D01*
X56390995Y-21689618D01*
X56374518Y-21676864D01*
X56344374Y-21665755D01*
X56336870Y-21663805D01*
X56294571Y-21652747D01*
X56256885Y-21642805D01*
X56252027Y-21641529D01*
X56224582Y-21634951D01*
X56208907Y-21632238D01*
X56208036Y-21633038D01*
X56205056Y-21648996D01*
X56202644Y-21682312D01*
X56201029Y-21728876D01*
X56200440Y-21784575D01*
X56200440Y-21936975D01*
X56335907Y-21936975D01*
X56335907Y-22162753D01*
X56200440Y-22162753D01*
X56200440Y-22761064D01*
X55940796Y-22761064D01*
X55940796Y-22162753D01*
X55805329Y-22162753D01*
X55805329Y-21936975D01*
X55940796Y-21936975D01*
X55940796Y-21621766D01*
X56138352Y-21615242D01*
X55867418Y-21548923D01*
X55812258Y-21535295D01*
X55740453Y-21517161D01*
X55677419Y-21500789D01*
X55626453Y-21487055D01*
X55590850Y-21476834D01*
X55573907Y-21471001D01*
X55568285Y-21467667D01*
X55543879Y-21448495D01*
X55517463Y-21422870D01*
X55511429Y-21416789D01*
X55487912Y-21394562D01*
X55470464Y-21378490D01*
X55681152Y-21378490D01*
X55684854Y-21381048D01*
X55707085Y-21389185D01*
X55747151Y-21401461D01*
X55802459Y-21417150D01*
X55870420Y-21435524D01*
X55948440Y-21455858D01*
X56033929Y-21477425D01*
X56084341Y-21489921D01*
X56166363Y-21510158D01*
X56239751Y-21528146D01*
X56301851Y-21543242D01*
X56350008Y-21554800D01*
X56381567Y-21562178D01*
X56393875Y-21564732D01*
X56403492Y-21557332D01*
X56418430Y-21537907D01*
X56427402Y-21526852D01*
X56460814Y-21501158D01*
X56502091Y-21481799D01*
X56540813Y-21474200D01*
X56567801Y-21478838D01*
X56599448Y-21491022D01*
X56606180Y-21494584D01*
X56618215Y-21500122D01*
X56629612Y-21501459D01*
X56643331Y-21496844D01*
X56662333Y-21484524D01*
X56689578Y-21462748D01*
X56728029Y-21429764D01*
X56780646Y-21383820D01*
X56890501Y-21287864D01*
X56882937Y-21090309D01*
X56880752Y-21034898D01*
X56878354Y-20977913D01*
X56876276Y-20932558D01*
X56874686Y-20902477D01*
X56873751Y-20891314D01*
X56873490Y-20891261D01*
X56859351Y-20890473D01*
X56825455Y-20889040D01*
X56774273Y-20887052D01*
X56708276Y-20884602D01*
X56629934Y-20881782D01*
X56541717Y-20878685D01*
X56446098Y-20875401D01*
X56020066Y-20860926D01*
X55950525Y-20908650D01*
X55925698Y-20925688D01*
X55831331Y-20990450D01*
X55756241Y-21178801D01*
X55734487Y-21233857D01*
X55713168Y-21288908D01*
X55696277Y-21333746D01*
X55685157Y-21364798D01*
X55681152Y-21378490D01*
X55470464Y-21378490D01*
X55450450Y-21360055D01*
X55400995Y-21315037D01*
X55341503Y-21261277D01*
X55273929Y-21200544D01*
X55200227Y-21134608D01*
X55122352Y-21065238D01*
X55078265Y-21026018D01*
X55003981Y-20959782D01*
X54935709Y-20898716D01*
X54875262Y-20844455D01*
X54824455Y-20798632D01*
X54785102Y-20762881D01*
X54759018Y-20738837D01*
X54748017Y-20728133D01*
X54746999Y-20726033D01*
X54741925Y-20705361D01*
X54734539Y-20665531D01*
X54725228Y-20609035D01*
X54714377Y-20538364D01*
X54702374Y-20456010D01*
X54689602Y-20364465D01*
X54676450Y-20266220D01*
X54664829Y-20176937D01*
X54651253Y-20069737D01*
X54640333Y-19978627D01*
X54631735Y-19899972D01*
X54628373Y-19864465D01*
X54748220Y-19864465D01*
X54749230Y-19875224D01*
X54752860Y-19905901D01*
X54758801Y-19953995D01*
X54766738Y-20017009D01*
X54776355Y-20092441D01*
X54787338Y-20177794D01*
X54799373Y-20270569D01*
X54852123Y-20675673D01*
X55204906Y-20990235D01*
X55243721Y-21024797D01*
X55316926Y-21089713D01*
X55384094Y-21148926D01*
X55443428Y-21200875D01*
X55493134Y-21243999D01*
X55531417Y-21276735D01*
X55556480Y-21297522D01*
X55566528Y-21304798D01*
X55574168Y-21295165D01*
X55587534Y-21268074D01*
X55605014Y-21227571D01*
X55625090Y-21177704D01*
X55646243Y-21122524D01*
X55666956Y-21066080D01*
X55685711Y-21012421D01*
X55700989Y-20965596D01*
X55711271Y-20929656D01*
X55715041Y-20908650D01*
X55714900Y-20902802D01*
X55711998Y-20869140D01*
X55706114Y-20823569D01*
X55698262Y-20774220D01*
X55695537Y-20758478D01*
X55686604Y-20705554D01*
X55675746Y-20639866D01*
X55664091Y-20568276D01*
X55652768Y-20497642D01*
X55649897Y-20479571D01*
X55637411Y-20400984D01*
X55624273Y-20318316D01*
X55611880Y-20240360D01*
X55601632Y-20175909D01*
X55601121Y-20172693D01*
X55587474Y-20086932D01*
X55576738Y-20020811D01*
X55568219Y-19971770D01*
X55561219Y-19937253D01*
X55555043Y-19914698D01*
X55548994Y-19901548D01*
X55542377Y-19895243D01*
X55534494Y-19893226D01*
X55524651Y-19892936D01*
X55515880Y-19892658D01*
X55485188Y-19891566D01*
X55463387Y-19890762D01*
X55679302Y-19890762D01*
X55679503Y-19892372D01*
X55683259Y-19918981D01*
X55690394Y-19966314D01*
X55700943Y-20034595D01*
X55714940Y-20124047D01*
X55732423Y-20234893D01*
X55753424Y-20367355D01*
X55777979Y-20521656D01*
X55806123Y-20698020D01*
X55809290Y-20717489D01*
X55818584Y-20770790D01*
X55826993Y-20813709D01*
X55833698Y-20842262D01*
X55837881Y-20852469D01*
X55838074Y-20852433D01*
X55850089Y-20845463D01*
X55872918Y-20829908D01*
X55899760Y-20810645D01*
X55923817Y-20792547D01*
X55938290Y-20780488D01*
X55938726Y-20776060D01*
X55936824Y-20753634D01*
X55932033Y-20716908D01*
X55924971Y-20670958D01*
X55918181Y-20629274D01*
X55907438Y-20562927D01*
X55895907Y-20491379D01*
X55885143Y-20424264D01*
X55883570Y-20414427D01*
X55872643Y-20346088D01*
X55859862Y-20266166D01*
X55846691Y-20183812D01*
X55834593Y-20108175D01*
X55830047Y-20079650D01*
X55819859Y-20014980D01*
X55810703Y-19955896D01*
X55803436Y-19907964D01*
X55798917Y-19876753D01*
X55793881Y-19842966D01*
X55786296Y-19813808D01*
X55774806Y-19802917D01*
X55755890Y-19807846D01*
X55726028Y-19826153D01*
X55717425Y-19831940D01*
X55691382Y-19852411D01*
X55680119Y-19870020D01*
X55679302Y-19890762D01*
X55463387Y-19890762D01*
X55436650Y-19889776D01*
X55373182Y-19887397D01*
X55297700Y-19884540D01*
X55213118Y-19881312D01*
X55122352Y-19877825D01*
X55061532Y-19875495D01*
X54977139Y-19872312D01*
X54902093Y-19869541D01*
X54839034Y-19867276D01*
X54790607Y-19865612D01*
X54759455Y-19864644D01*
X54748220Y-19864465D01*
X54628373Y-19864465D01*
X54625122Y-19830138D01*
X54620158Y-19765489D01*
X54616509Y-19702391D01*
X54613838Y-19637210D01*
X54611810Y-19566309D01*
X54606701Y-19355709D01*
X54727347Y-19355709D01*
X54731243Y-19548498D01*
X54732355Y-19599423D01*
X54733820Y-19656366D01*
X54735248Y-19701899D01*
X54736520Y-19732300D01*
X54737515Y-19743849D01*
X54747169Y-19744828D01*
X54776621Y-19746561D01*
X54822898Y-19748848D01*
X54883005Y-19751550D01*
X54953945Y-19754527D01*
X55032721Y-19757639D01*
X55085965Y-19759701D01*
X55175488Y-19763252D01*
X55262857Y-19766811D01*
X55342970Y-19770167D01*
X55410724Y-19773106D01*
X55461018Y-19775419D01*
X55596485Y-19781971D01*
X55685345Y-19720386D01*
X55895640Y-19720386D01*
X55896070Y-19726348D01*
X55899405Y-19752994D01*
X55905505Y-19795365D01*
X55913724Y-19849061D01*
X55923416Y-19909681D01*
X55938903Y-20004936D01*
X55957021Y-20117005D01*
X55975556Y-20232232D01*
X55993694Y-20345529D01*
X56010621Y-20451809D01*
X56025523Y-20545984D01*
X56037585Y-20622967D01*
X56057074Y-20748291D01*
X56278335Y-20755686D01*
X56332307Y-20757518D01*
X56424201Y-20760736D01*
X56518933Y-20764152D01*
X56608036Y-20767458D01*
X56683040Y-20770349D01*
X56725986Y-20771890D01*
X56781839Y-20773346D01*
X56826369Y-20773840D01*
X56855832Y-20773343D01*
X56866485Y-20771824D01*
X56865502Y-20763179D01*
X56861900Y-20734390D01*
X56855971Y-20687968D01*
X56848051Y-20626509D01*
X56838473Y-20552607D01*
X56827573Y-20468858D01*
X56815685Y-20377858D01*
X56805885Y-20302732D01*
X56794760Y-20216817D01*
X56784903Y-20139997D01*
X56776650Y-20074928D01*
X56770338Y-20024269D01*
X56766304Y-19990679D01*
X56764885Y-19976814D01*
X56758215Y-19967773D01*
X56736631Y-19945632D01*
X56702167Y-19912543D01*
X56656934Y-19870375D01*
X56603043Y-19820999D01*
X56542604Y-19766284D01*
X56477728Y-19708099D01*
X56410526Y-19648315D01*
X56343108Y-19588801D01*
X56277585Y-19531427D01*
X56216067Y-19478062D01*
X56160666Y-19430577D01*
X56113492Y-19390841D01*
X56076654Y-19360724D01*
X56052265Y-19342095D01*
X56042435Y-19336825D01*
X56037783Y-19344855D01*
X56025706Y-19371549D01*
X56008815Y-19412149D01*
X55988777Y-19462306D01*
X55967254Y-19517671D01*
X55945912Y-19573894D01*
X55926415Y-19626626D01*
X55910428Y-19671519D01*
X55899615Y-19704222D01*
X55895640Y-19720386D01*
X55685345Y-19720386D01*
X55782541Y-19653023D01*
X55860820Y-19454444D01*
X55939098Y-19255864D01*
X55525081Y-19151770D01*
X55514127Y-19149017D01*
X55421145Y-19125765D01*
X55334969Y-19104412D01*
X55258110Y-19085565D01*
X55193084Y-19069834D01*
X55142403Y-19057828D01*
X55108580Y-19050154D01*
X55094129Y-19047422D01*
X55092284Y-19047868D01*
X55075288Y-19058402D01*
X55045004Y-19081262D01*
X55004217Y-19114212D01*
X54955711Y-19155016D01*
X54902271Y-19201439D01*
X54727347Y-19355709D01*
X54606701Y-19355709D01*
X54605648Y-19312309D01*
X54733772Y-19199420D01*
X54783816Y-19155357D01*
X54854280Y-19093522D01*
X54910794Y-19044374D01*
X54955180Y-19006471D01*
X54989263Y-18978371D01*
X55014868Y-18958632D01*
X55033818Y-18945812D01*
X55047937Y-18938469D01*
X55059049Y-18935162D01*
X55068979Y-18934448D01*
X55076034Y-18935318D01*
X55104427Y-18940841D01*
X55150928Y-18950968D01*
X55213099Y-18965132D01*
X55288503Y-18982767D01*
X55374703Y-19003306D01*
X55469261Y-19026184D01*
X55569738Y-19050833D01*
X56039703Y-19166900D01*
X56139421Y-19255864D01*
X56438983Y-19523121D01*
X56516054Y-19591967D01*
X56592786Y-19660693D01*
X56663177Y-19723921D01*
X56725470Y-19780067D01*
X56777912Y-19827547D01*
X56818748Y-19864776D01*
X56846223Y-19890168D01*
X56858584Y-19902139D01*
X56859459Y-19903195D01*
X56865476Y-19914682D01*
X56871844Y-19935067D01*
X56878894Y-19966282D01*
X56886959Y-20010258D01*
X56896372Y-20068926D01*
X56907464Y-20144218D01*
X56920568Y-20238066D01*
X56936015Y-20352400D01*
X56936019Y-20352427D01*
X56952175Y-20475127D01*
X56965309Y-20579508D01*
X56975802Y-20669572D01*
X56984035Y-20749319D01*
X56985982Y-20771824D01*
X56986348Y-20776060D01*
X56990388Y-20822750D01*
G37*
G36*
X59341358Y-19727175D02*
G01*
X59344396Y-19978353D01*
X59375440Y-19981925D01*
X59382762Y-19982900D01*
X59398553Y-19988738D01*
X59405155Y-20003791D01*
X59406485Y-20034720D01*
X59405733Y-20056062D01*
X59399927Y-20079449D01*
X59386729Y-20089105D01*
X59366184Y-20092914D01*
X59314775Y-20089836D01*
X59269369Y-20070404D01*
X59236607Y-20036927D01*
X59232496Y-20029752D01*
X59226398Y-20015656D01*
X59221861Y-19997544D01*
X59218657Y-19972322D01*
X59216559Y-19936896D01*
X59215338Y-19888173D01*
X59214766Y-19823061D01*
X59214616Y-19738464D01*
X59214574Y-19475998D01*
X59338320Y-19475998D01*
X59341358Y-19727175D01*
G37*
G36*
X59112974Y-19871109D02*
G01*
X58988796Y-19871109D01*
X58988796Y-19193775D01*
X59112974Y-19193775D01*
X59112974Y-19871109D01*
G37*
G04 #@! TD*
%LPC*%
D14*
G04 #@! TO.C,J1*
X22459900Y-27437600D03*
X22459900Y-33217600D03*
D15*
X18809900Y-34647600D03*
D16*
X22989900Y-26007600D03*
X22989900Y-34647600D03*
D15*
X18809900Y-26007600D03*
G04 #@! TD*
D17*
G04 #@! TO.C,J4*
X35033000Y-25750600D03*
X33933000Y-25750600D03*
X32833000Y-25750600D03*
X31733000Y-25750600D03*
X30633000Y-25750600D03*
X29533000Y-25750600D03*
X28433000Y-25750600D03*
X27333000Y-25750600D03*
D18*
X26383000Y-25650600D03*
D19*
X25533000Y-36150600D03*
D20*
X25533000Y-29950600D03*
D21*
X38083000Y-41200600D03*
D22*
X38833000Y-40750600D03*
D23*
X36933000Y-25750600D03*
D24*
X37833000Y-41450600D03*
D25*
X25533000Y-39750600D03*
G04 #@! TD*
D26*
G04 #@! TO.C,J2*
X43230800Y-20497800D03*
X40690800Y-20497800D03*
X38150800Y-20497800D03*
X35610800Y-20497800D03*
X33070800Y-20497800D03*
X30530800Y-20497800D03*
G04 #@! TD*
D27*
G04 #@! TO.C,C5*
X26593800Y-22775100D03*
X26593800Y-23910100D03*
G04 #@! TD*
M02*
