G04 #@! TF.GenerationSoftware,KiCad,Pcbnew,(6.0.11-0)*
G04 #@! TF.CreationDate,2023-03-08T20:48:50+08:00*
G04 #@! TF.ProjectId,slimarm_classic_2410,736c696d-6172-46d5-9f63-6c6173736963,rev?*
G04 #@! TF.SameCoordinates,Original*
G04 #@! TF.FileFunction,Soldermask,Top*
G04 #@! TF.FilePolarity,Negative*
%FSLAX46Y46*%
G04 Gerber Fmt 4.6, Leading zero omitted, Abs format (unit mm)*
G04 Created by KiCad (PCBNEW (6.0.11-0)) date 2023-03-08 20:48:50*
%MOMM*%
%LPD*%
G01*
G04 APERTURE LIST*
G04 Aperture macros list*
%AMRoundRect*
0 Rectangle with rounded corners*
0 $1 Rounding radius*
0 $2 $3 $4 $5 $6 $7 $8 $9 X,Y pos of 4 corners*
0 Add a 4 corners polygon primitive as box body*
4,1,4,$2,$3,$4,$5,$6,$7,$8,$9,$2,$3,0*
0 Add four circle primitives for the rounded corners*
1,1,$1+$1,$2,$3*
1,1,$1+$1,$4,$5*
1,1,$1+$1,$6,$7*
1,1,$1+$1,$8,$9*
0 Add four rect primitives between the rounded corners*
20,1,$1+$1,$2,$3,$4,$5,0*
20,1,$1+$1,$4,$5,$6,$7,0*
20,1,$1+$1,$6,$7,$8,$9,0*
20,1,$1+$1,$8,$9,$2,$3,0*%
G04 Aperture macros list end*
%ADD10RoundRect,0.150000X-0.739000X-0.150000X0.739000X-0.150000X0.739000X0.150000X-0.739000X0.150000X0*%
%ADD11RoundRect,0.155000X-0.155000X0.212500X-0.155000X-0.212500X0.155000X-0.212500X0.155000X0.212500X0*%
%ADD12RoundRect,0.155000X0.155000X-0.212500X0.155000X0.212500X-0.155000X0.212500X-0.155000X-0.212500X0*%
%ADD13RoundRect,0.155000X-0.212500X-0.155000X0.212500X-0.155000X0.212500X0.155000X-0.212500X0.155000X0*%
%ADD14C,0.410000*%
%ADD15C,0.650000*%
%ADD16R,2.000000X0.600000*%
%ADD17R,2.000000X0.300000*%
%ADD18R,1.450000X0.600000*%
%ADD19O,1.600000X1.000000*%
%ADD20O,2.100000X1.000000*%
%ADD21RoundRect,0.237500X-0.237500X0.287500X-0.237500X-0.287500X0.237500X-0.287500X0.237500X0.287500X0*%
%ADD22RoundRect,0.237500X0.250000X0.237500X-0.250000X0.237500X-0.250000X-0.237500X0.250000X-0.237500X0*%
%ADD23RoundRect,0.237500X-0.250000X-0.237500X0.250000X-0.237500X0.250000X0.237500X-0.250000X0.237500X0*%
%ADD24RoundRect,0.237500X0.237500X-0.250000X0.237500X0.250000X-0.237500X0.250000X-0.237500X-0.250000X0*%
%ADD25R,1.693800X0.508000*%
%ADD26RoundRect,0.155000X0.212500X0.155000X-0.212500X0.155000X-0.212500X-0.155000X0.212500X-0.155000X0*%
%ADD27RoundRect,0.237500X-0.237500X0.250000X-0.237500X-0.250000X0.237500X-0.250000X0.237500X0.250000X0*%
%ADD28R,2.000000X2.400000*%
G04 APERTURE END LIST*
D10*
G04 #@! TO.C,U3*
X15482500Y-19152600D03*
X15482500Y-21052600D03*
X17357500Y-20102600D03*
G04 #@! TD*
D11*
G04 #@! TO.C,C45*
X13920000Y-16685100D03*
X13920000Y-17820100D03*
G04 #@! TD*
G04 #@! TO.C,C21*
X24720000Y-17785100D03*
X24720000Y-18920100D03*
G04 #@! TD*
G04 #@! TO.C,C40*
X30218000Y-17763100D03*
X30218000Y-18898100D03*
G04 #@! TD*
D12*
G04 #@! TO.C,C35*
X38150000Y-37167500D03*
X38150000Y-36032500D03*
G04 #@! TD*
D13*
G04 #@! TO.C,C43*
X22538500Y-31284600D03*
X23673500Y-31284600D03*
G04 #@! TD*
D14*
G04 #@! TO.C,IC1*
X38650000Y-21100000D03*
X38650000Y-21900000D03*
X38650000Y-22700000D03*
X38650000Y-23500000D03*
X38650000Y-24300000D03*
X38650000Y-25100000D03*
X38650000Y-25900000D03*
X38650000Y-26700000D03*
X38650000Y-27500000D03*
X38650000Y-28300000D03*
X38650000Y-29100000D03*
X38650000Y-29900000D03*
X38650000Y-30700000D03*
X38650000Y-31500000D03*
X38650000Y-32300000D03*
X38650000Y-33100000D03*
X38650000Y-33900000D03*
X37850000Y-21100000D03*
X37850000Y-21900000D03*
X37850000Y-22700000D03*
X37850000Y-23500000D03*
X37850000Y-24300000D03*
X37850000Y-25100000D03*
X37850000Y-25900000D03*
X37850000Y-26700000D03*
X37850000Y-27500000D03*
X37850000Y-28300000D03*
X37850000Y-29100000D03*
X37850000Y-29900000D03*
X37850000Y-30700000D03*
X37850000Y-31500000D03*
X37850000Y-32300000D03*
X37850000Y-33100000D03*
X37850000Y-33900000D03*
X37050000Y-21100000D03*
X37050000Y-21900000D03*
X37050000Y-22700000D03*
X37050000Y-23500000D03*
X37050000Y-24300000D03*
X37050000Y-25100000D03*
X37050000Y-25900000D03*
X37050000Y-26700000D03*
X37050000Y-27500000D03*
X37050000Y-28300000D03*
X37050000Y-29100000D03*
X37050000Y-29900000D03*
X37050000Y-30700000D03*
X37050000Y-31500000D03*
X37050000Y-32300000D03*
X37050000Y-33100000D03*
X37050000Y-33900000D03*
X36250000Y-21100000D03*
X36250000Y-21900000D03*
X36250000Y-22700000D03*
X36250000Y-23500000D03*
X36250000Y-24300000D03*
X36250000Y-25100000D03*
X36250000Y-25900000D03*
X36250000Y-26700000D03*
X36250000Y-27500000D03*
X36250000Y-28300000D03*
X36250000Y-29100000D03*
X36250000Y-29900000D03*
X36250000Y-30700000D03*
X36250000Y-31500000D03*
X36250000Y-32300000D03*
X36250000Y-33100000D03*
X36250000Y-33900000D03*
X35450000Y-21100000D03*
X35450000Y-21900000D03*
X35450000Y-22700000D03*
X35450000Y-23500000D03*
X35450000Y-24300000D03*
X35450000Y-25100000D03*
X35450000Y-25900000D03*
X35450000Y-26700000D03*
X35450000Y-27500000D03*
X35450000Y-28300000D03*
X35450000Y-29100000D03*
X35450000Y-29900000D03*
X35450000Y-30700000D03*
X35450000Y-31500000D03*
X35450000Y-32300000D03*
X35450000Y-33100000D03*
X35450000Y-33900000D03*
X34650000Y-21100000D03*
X34650000Y-21900000D03*
X34650000Y-22700000D03*
X34650000Y-23500000D03*
X34650000Y-24300000D03*
X34650000Y-25100000D03*
X34650000Y-25900000D03*
X34650000Y-26700000D03*
X34650000Y-27500000D03*
X34650000Y-28300000D03*
X34650000Y-29100000D03*
X34650000Y-29900000D03*
X34650000Y-30700000D03*
X34650000Y-31500000D03*
X34650000Y-32300000D03*
X34650000Y-33100000D03*
X34650000Y-33900000D03*
X33850000Y-21100000D03*
X33850000Y-21900000D03*
X33850000Y-22700000D03*
X33850000Y-23500000D03*
X33850000Y-24300000D03*
X33850000Y-25100000D03*
X33850000Y-25900000D03*
X33850000Y-27500000D03*
X33850000Y-29100000D03*
X33850000Y-29900000D03*
X33850000Y-30700000D03*
X33850000Y-31500000D03*
X33850000Y-32300000D03*
X33850000Y-33100000D03*
X33850000Y-33900000D03*
X33050000Y-21100000D03*
X33050000Y-21900000D03*
X33050000Y-22700000D03*
X33050000Y-23500000D03*
X33050000Y-24300000D03*
X33050000Y-25100000D03*
X33050000Y-29900000D03*
X33050000Y-30700000D03*
X33050000Y-31500000D03*
X33050000Y-32300000D03*
X33050000Y-33100000D03*
X33050000Y-33900000D03*
X32250000Y-21100000D03*
X32250000Y-21900000D03*
X32250000Y-22700000D03*
X32250000Y-23500000D03*
X32250000Y-24300000D03*
X32250000Y-25100000D03*
X32250000Y-25900000D03*
X32250000Y-29100000D03*
X32250000Y-29900000D03*
X32250000Y-30700000D03*
X32250000Y-31500000D03*
X32250000Y-32300000D03*
X32250000Y-33100000D03*
X32250000Y-33900000D03*
X31450000Y-21100000D03*
X31450000Y-21900000D03*
X31450000Y-22700000D03*
X31450000Y-23500000D03*
X31450000Y-24300000D03*
X31450000Y-25100000D03*
X31450000Y-29900000D03*
X31450000Y-30700000D03*
X31450000Y-31500000D03*
X31450000Y-32300000D03*
X31450000Y-33100000D03*
X31450000Y-33900000D03*
X30650000Y-21100000D03*
X30650000Y-21900000D03*
X30650000Y-22700000D03*
X30650000Y-23500000D03*
X30650000Y-24300000D03*
X30650000Y-25100000D03*
X30650000Y-25900000D03*
X30650000Y-27500000D03*
X30650000Y-29100000D03*
X30650000Y-29900000D03*
X30650000Y-30700000D03*
X30650000Y-31500000D03*
X30650000Y-32300000D03*
X30650000Y-33100000D03*
X30650000Y-33900000D03*
X29850000Y-21100000D03*
X29850000Y-21900000D03*
X29850000Y-22700000D03*
X29850000Y-23500000D03*
X29850000Y-24300000D03*
X29850000Y-25100000D03*
X29850000Y-25900000D03*
X29850000Y-26700000D03*
X29850000Y-27500000D03*
X29850000Y-28300000D03*
X29850000Y-29100000D03*
X29850000Y-29900000D03*
X29850000Y-30700000D03*
X29850000Y-31500000D03*
X29850000Y-32300000D03*
X29850000Y-33100000D03*
X29850000Y-33900000D03*
X29050000Y-21100000D03*
X29050000Y-21900000D03*
X29050000Y-22700000D03*
X29050000Y-23500000D03*
X29050000Y-24300000D03*
X29050000Y-25100000D03*
X29050000Y-25900000D03*
X29050000Y-26700000D03*
X29050000Y-27500000D03*
X29050000Y-28300000D03*
X29050000Y-29100000D03*
X29050000Y-29900000D03*
X29050000Y-30700000D03*
X29050000Y-31500000D03*
X29050000Y-32300000D03*
X29050000Y-33100000D03*
X29050000Y-33900000D03*
X28250000Y-21100000D03*
X28250000Y-21900000D03*
X28250000Y-22700000D03*
X28250000Y-23500000D03*
X28250000Y-24300000D03*
X28250000Y-25100000D03*
X28250000Y-25900000D03*
X28250000Y-26700000D03*
X28250000Y-27500000D03*
X28250000Y-28300000D03*
X28250000Y-29100000D03*
X28250000Y-29900000D03*
X28250000Y-30700000D03*
X28250000Y-31500000D03*
X28250000Y-32300000D03*
X28250000Y-33100000D03*
X28250000Y-33900000D03*
X27450000Y-21100000D03*
X27450000Y-21900000D03*
X27450000Y-22700000D03*
X27450000Y-23500000D03*
X27450000Y-24300000D03*
X27450000Y-25100000D03*
X27450000Y-25900000D03*
X27450000Y-26700000D03*
X27450000Y-27500000D03*
X27450000Y-28300000D03*
X27450000Y-29100000D03*
X27450000Y-29900000D03*
X27450000Y-30700000D03*
X27450000Y-31500000D03*
X27450000Y-32300000D03*
X27450000Y-33100000D03*
X27450000Y-33900000D03*
X26650000Y-21100000D03*
X26650000Y-21900000D03*
X26650000Y-22700000D03*
X26650000Y-23500000D03*
X26650000Y-24300000D03*
X26650000Y-25100000D03*
X26650000Y-25900000D03*
X26650000Y-26700000D03*
X26650000Y-27500000D03*
X26650000Y-28300000D03*
X26650000Y-29100000D03*
X26650000Y-29900000D03*
X26650000Y-30700000D03*
X26650000Y-31500000D03*
X26650000Y-32300000D03*
X26650000Y-33100000D03*
X26650000Y-33900000D03*
X25850000Y-21100000D03*
X25850000Y-21900000D03*
X25850000Y-22700000D03*
X25850000Y-23500000D03*
X25850000Y-24300000D03*
X25850000Y-25100000D03*
X25850000Y-25900000D03*
X25850000Y-26700000D03*
X25850000Y-27500000D03*
X25850000Y-28300000D03*
X25850000Y-29100000D03*
X25850000Y-29900000D03*
X25850000Y-30700000D03*
X25850000Y-31500000D03*
X25850000Y-32300000D03*
X25850000Y-33100000D03*
X25850000Y-33900000D03*
G04 #@! TD*
D15*
G04 #@! TO.C,J1*
X16907500Y-24612600D03*
X16907500Y-30392600D03*
D16*
X18707500Y-24252600D03*
X18707500Y-25052600D03*
D17*
X18707500Y-26252600D03*
X18707500Y-27252600D03*
X18707500Y-27752600D03*
X18707500Y-28752600D03*
D16*
X18707500Y-29952600D03*
X18707500Y-30752600D03*
X18707500Y-30752600D03*
D18*
X18707500Y-29952600D03*
D17*
X18707500Y-29252600D03*
X18707500Y-28252600D03*
X18707500Y-26752600D03*
X18707500Y-25752600D03*
D18*
X18707500Y-25052600D03*
X18807500Y-24252600D03*
D19*
X13257500Y-31822600D03*
D20*
X17437500Y-23182600D03*
X17437500Y-31822600D03*
D19*
X13257500Y-23182600D03*
G04 #@! TD*
D21*
G04 #@! TO.C,D2*
X21100000Y-36900000D03*
X21100000Y-38650000D03*
G04 #@! TD*
D11*
G04 #@! TO.C,C18*
X38346000Y-17763100D03*
X38346000Y-18898100D03*
G04 #@! TD*
G04 #@! TO.C,C28*
X28440000Y-17763100D03*
X28440000Y-18898100D03*
G04 #@! TD*
D13*
G04 #@! TO.C,C26*
X58682500Y-14950000D03*
X59817500Y-14950000D03*
G04 #@! TD*
D11*
G04 #@! TO.C,C30*
X27170000Y-17763100D03*
X27170000Y-18898100D03*
G04 #@! TD*
D12*
G04 #@! TO.C,C8*
X19043200Y-17808900D03*
X19043200Y-16673900D03*
G04 #@! TD*
D13*
G04 #@! TO.C,C25*
X52732500Y-14950000D03*
X53867500Y-14950000D03*
G04 #@! TD*
D22*
G04 #@! TO.C,R3*
X26062500Y-38700000D03*
X24237500Y-38700000D03*
G04 #@! TD*
D12*
G04 #@! TO.C,C15*
X45900000Y-24567500D03*
X45900000Y-23432500D03*
G04 #@! TD*
D13*
G04 #@! TO.C,C41*
X22538500Y-20108600D03*
X23673500Y-20108600D03*
G04 #@! TD*
D11*
G04 #@! TO.C,C24*
X39616000Y-17763100D03*
X39616000Y-18898100D03*
G04 #@! TD*
D22*
G04 #@! TO.C,R14*
X30832500Y-16252600D03*
X29007500Y-16252600D03*
G04 #@! TD*
D12*
G04 #@! TO.C,C12*
X36999998Y-37190832D03*
X36999998Y-36055832D03*
G04 #@! TD*
D22*
G04 #@! TO.C,R9*
X18732500Y-34002600D03*
X16907500Y-34002600D03*
G04 #@! TD*
D12*
G04 #@! TO.C,C7*
X19094000Y-21417600D03*
X19094000Y-20282600D03*
G04 #@! TD*
D13*
G04 #@! TO.C,C38*
X22538500Y-33824600D03*
X23673500Y-33824600D03*
G04 #@! TD*
D21*
G04 #@! TO.C,D3*
X14700000Y-36925000D03*
X14700000Y-38675000D03*
G04 #@! TD*
D11*
G04 #@! TO.C,C22*
X37076000Y-17763100D03*
X37076000Y-18898100D03*
G04 #@! TD*
D10*
G04 #@! TO.C,U2*
X15482500Y-15552600D03*
X15482500Y-17452600D03*
X17357500Y-16502600D03*
G04 #@! TD*
D11*
G04 #@! TO.C,C39*
X31488000Y-17763100D03*
X31488000Y-18898100D03*
G04 #@! TD*
D23*
G04 #@! TO.C,R8*
X13407500Y-34002600D03*
X15232500Y-34002600D03*
G04 #@! TD*
D22*
G04 #@! TO.C,R13*
X29412500Y-38700000D03*
X27587500Y-38700000D03*
G04 #@! TD*
D13*
G04 #@! TO.C,C3*
X46782500Y-14900000D03*
X47917500Y-14900000D03*
G04 #@! TD*
D24*
G04 #@! TO.C,R11*
X20894100Y-26212500D03*
X20894100Y-24387500D03*
G04 #@! TD*
D11*
G04 #@! TO.C,C32*
X45900000Y-26282500D03*
X45900000Y-27417500D03*
G04 #@! TD*
D25*
G04 #@! TO.C,U4*
X47609600Y-17098700D03*
X47609600Y-17898800D03*
X47609600Y-18698900D03*
X47609600Y-19499000D03*
X47609600Y-20299100D03*
X47609600Y-21099200D03*
X47609600Y-21899300D03*
X47609600Y-22699400D03*
X47609600Y-23499500D03*
X47609600Y-24299600D03*
X47609600Y-25099700D03*
X47609600Y-25899800D03*
X47609600Y-26699900D03*
X47609600Y-27500000D03*
X47609600Y-28300100D03*
X47609600Y-29100200D03*
X47609600Y-29900300D03*
X47609600Y-30700400D03*
X47609600Y-31500500D03*
X47609600Y-32300600D03*
X47609600Y-33100700D03*
X47609600Y-33900800D03*
X47609600Y-34700900D03*
X47609600Y-35501000D03*
X47609600Y-36301100D03*
X47609600Y-37101200D03*
X47609600Y-37901300D03*
X59090400Y-37901300D03*
X59090400Y-37101200D03*
X59090400Y-36301100D03*
X59090400Y-35501000D03*
X59090400Y-34700900D03*
X59090400Y-33900800D03*
X59090400Y-33100700D03*
X59090400Y-32300600D03*
X59090400Y-31500500D03*
X59090400Y-30700400D03*
X59090400Y-29900300D03*
X59090400Y-29100200D03*
X59090400Y-28300100D03*
X59090400Y-27500000D03*
X59090400Y-26699900D03*
X59090400Y-25899800D03*
X59090400Y-25099700D03*
X59090400Y-24299600D03*
X59090400Y-23499500D03*
X59090400Y-22699400D03*
X59090400Y-21899300D03*
X59090400Y-21099200D03*
X59090400Y-20299100D03*
X59090400Y-19499000D03*
X59090400Y-18698900D03*
X59090400Y-17898800D03*
X59090400Y-17098700D03*
G04 #@! TD*
D13*
G04 #@! TO.C,C37*
X22538500Y-32554600D03*
X23673500Y-32554600D03*
G04 #@! TD*
G04 #@! TO.C,C29*
X22538500Y-29506600D03*
X23673500Y-29506600D03*
G04 #@! TD*
D12*
G04 #@! TO.C,C42*
X24630000Y-37186100D03*
X24630000Y-36051100D03*
G04 #@! TD*
D26*
G04 #@! TO.C,C10*
X48397500Y-39890000D03*
X47262500Y-39890000D03*
G04 #@! TD*
D11*
G04 #@! TO.C,C46*
X34028000Y-17763100D03*
X34028000Y-18898100D03*
G04 #@! TD*
D23*
G04 #@! TO.C,R15*
X25015100Y-16252600D03*
X26840100Y-16252600D03*
G04 #@! TD*
D13*
G04 #@! TO.C,C31*
X22538500Y-28236600D03*
X23673500Y-28236600D03*
G04 #@! TD*
D11*
G04 #@! TO.C,C19*
X25900000Y-17763100D03*
X25900000Y-18898100D03*
G04 #@! TD*
G04 #@! TO.C,C2*
X27130000Y-36051100D03*
X27130000Y-37186100D03*
G04 #@! TD*
D13*
G04 #@! TO.C,C13*
X53032500Y-39900000D03*
X54167500Y-39900000D03*
G04 #@! TD*
D23*
G04 #@! TO.C,R2*
X37287500Y-38550000D03*
X39112500Y-38550000D03*
G04 #@! TD*
D13*
G04 #@! TO.C,C9*
X22538500Y-35094600D03*
X23673500Y-35094600D03*
G04 #@! TD*
G04 #@! TO.C,C33*
X22538500Y-22648600D03*
X23673500Y-22648600D03*
G04 #@! TD*
D21*
G04 #@! TO.C,D1*
X17900000Y-36925000D03*
X17900000Y-38675000D03*
G04 #@! TD*
D11*
G04 #@! TO.C,C14*
X13920000Y-20234300D03*
X13920000Y-21369300D03*
G04 #@! TD*
D27*
G04 #@! TO.C,R10*
X20900000Y-27739100D03*
X20900000Y-29564100D03*
G04 #@! TD*
D11*
G04 #@! TO.C,C47*
X32758000Y-17763100D03*
X32758000Y-18898100D03*
G04 #@! TD*
G04 #@! TO.C,C23*
X35806000Y-17763100D03*
X35806000Y-18898100D03*
G04 #@! TD*
G04 #@! TO.C,C1*
X28400000Y-36051100D03*
X28400000Y-37186100D03*
G04 #@! TD*
D28*
G04 #@! TO.C,Y1*
X31450000Y-37400000D03*
X35150000Y-37400000D03*
G04 #@! TD*
D13*
G04 #@! TO.C,C27*
X58600000Y-39800000D03*
X59735000Y-39800000D03*
G04 #@! TD*
D24*
G04 #@! TO.C,R1*
X22700000Y-38712500D03*
X22700000Y-36887500D03*
G04 #@! TD*
D12*
G04 #@! TO.C,C6*
X29633998Y-37190832D03*
X29633998Y-36055832D03*
G04 #@! TD*
D27*
G04 #@! TO.C,R5*
X19500000Y-36862500D03*
X19500000Y-38687500D03*
G04 #@! TD*
D13*
G04 #@! TO.C,C34*
X22538500Y-23918600D03*
X23673500Y-23918600D03*
G04 #@! TD*
D22*
G04 #@! TO.C,R17*
X39332500Y-16252600D03*
X37507500Y-16252600D03*
G04 #@! TD*
D27*
G04 #@! TO.C,R6*
X13100000Y-36887500D03*
X13100000Y-38712500D03*
G04 #@! TD*
D13*
G04 #@! TO.C,C20*
X22538500Y-26966600D03*
X23673500Y-26966600D03*
G04 #@! TD*
D12*
G04 #@! TO.C,C36*
X25900000Y-37186100D03*
X25900000Y-36051100D03*
G04 #@! TD*
D13*
G04 #@! TO.C,C4*
X22538500Y-25696600D03*
X23673500Y-25696600D03*
G04 #@! TD*
G04 #@! TO.C,C44*
X22538500Y-21378600D03*
X23673500Y-21378600D03*
G04 #@! TD*
D27*
G04 #@! TO.C,R4*
X16300000Y-36887500D03*
X16300000Y-38712500D03*
G04 #@! TD*
D22*
G04 #@! TO.C,R16*
X35170000Y-16252600D03*
X33345000Y-16252600D03*
G04 #@! TD*
M02*
