G04 #@! TF.GenerationSoftware,KiCad,Pcbnew,(6.0.11-0)*
G04 #@! TF.CreationDate,2023-03-08T20:48:50+08:00*
G04 #@! TF.ProjectId,slimarm_classic_2410,736c696d-6172-46d5-9f63-6c6173736963,rev?*
G04 #@! TF.SameCoordinates,Original*
G04 #@! TF.FileFunction,Legend,Bot*
G04 #@! TF.FilePolarity,Positive*
%FSLAX46Y46*%
G04 Gerber Fmt 4.6, Leading zero omitted, Abs format (unit mm)*
G04 Created by KiCad (PCBNEW (6.0.11-0)) date 2023-03-08 20:48:50*
%MOMM*%
%LPD*%
G01*
G04 APERTURE LIST*
%ADD10C,0.100000*%
%ADD11C,0.304800*%
%ADD12C,0.150000*%
%ADD13C,0.190000*%
%ADD14C,0.120000*%
%ADD15C,0.650000*%
%ADD16O,1.600000X1.000000*%
%ADD17O,2.100000X1.000000*%
%ADD18R,0.711200X3.000000*%
%ADD19R,1.600200X2.209800*%
%ADD20R,0.254000X2.182700*%
G04 APERTURE END LIST*
D10*
X16278571Y-33806428D02*
X16278571Y-34092142D01*
X15992857Y-34120714D01*
X16021428Y-34092142D01*
X16050000Y-34035000D01*
X16050000Y-33892142D01*
X16021428Y-33835000D01*
X15992857Y-33806428D01*
X15935714Y-33777857D01*
X15792857Y-33777857D01*
X15735714Y-33806428D01*
X15707142Y-33835000D01*
X15678571Y-33892142D01*
X15678571Y-34035000D01*
X15707142Y-34092142D01*
X15735714Y-34120714D01*
X16078571Y-33577857D02*
X15678571Y-33435000D01*
X16078571Y-33292142D01*
D11*
X46342046Y-21719666D02*
X46098630Y-21804333D01*
X45675296Y-21804333D01*
X45495380Y-21719666D01*
X45400130Y-21635000D01*
X45294296Y-21465666D01*
X45273130Y-21296333D01*
X45336630Y-21127000D01*
X45410713Y-21042333D01*
X45569463Y-20957666D01*
X45897546Y-20873000D01*
X46056296Y-20788333D01*
X46130380Y-20703666D01*
X46193880Y-20534333D01*
X46172713Y-20365000D01*
X46066880Y-20195666D01*
X45971630Y-20111000D01*
X45791713Y-20026333D01*
X45368380Y-20026333D01*
X45124963Y-20111000D01*
X44320630Y-21804333D02*
X44479380Y-21719666D01*
X44542880Y-21550333D01*
X44352380Y-20026333D01*
X43643296Y-21804333D02*
X43495130Y-20619000D01*
X43421046Y-20026333D02*
X43516296Y-20111000D01*
X43442213Y-20195666D01*
X43346963Y-20111000D01*
X43421046Y-20026333D01*
X43442213Y-20195666D01*
X42796630Y-21804333D02*
X42648463Y-20619000D01*
X42669630Y-20788333D02*
X42574380Y-20703666D01*
X42394463Y-20619000D01*
X42140463Y-20619000D01*
X41981713Y-20703666D01*
X41918213Y-20873000D01*
X42034630Y-21804333D01*
X41918213Y-20873000D02*
X41812380Y-20703666D01*
X41632463Y-20619000D01*
X41378463Y-20619000D01*
X41219713Y-20703666D01*
X41156213Y-20873000D01*
X41272630Y-21804333D01*
X40447130Y-21296333D02*
X39600463Y-21296333D01*
X40679963Y-21804333D02*
X39865046Y-20026333D01*
X39494630Y-21804333D01*
X37885963Y-21804333D02*
X38372796Y-20957666D01*
X38901963Y-21804333D02*
X38679713Y-20026333D01*
X38002380Y-20026333D01*
X37843630Y-20111000D01*
X37769546Y-20195666D01*
X37706046Y-20365000D01*
X37737796Y-20619000D01*
X37843630Y-20788333D01*
X37938880Y-20873000D01*
X38118796Y-20957666D01*
X38796130Y-20957666D01*
X37123963Y-21804333D02*
X36901713Y-20026333D01*
X36467796Y-21296333D01*
X35716380Y-20026333D01*
X35938630Y-21804333D01*
X32700130Y-21635000D02*
X32795380Y-21719666D01*
X33059963Y-21804333D01*
X33229296Y-21804333D01*
X33472713Y-21719666D01*
X33620880Y-21550333D01*
X33684380Y-21381000D01*
X33726713Y-21042333D01*
X33694963Y-20788333D01*
X33567963Y-20449666D01*
X33462130Y-20280333D01*
X33271630Y-20111000D01*
X33007046Y-20026333D01*
X32837713Y-20026333D01*
X32594296Y-20111000D01*
X32520213Y-20195666D01*
X31705296Y-21804333D02*
X31864046Y-21719666D01*
X31927546Y-21550333D01*
X31737046Y-20026333D01*
X30265963Y-21804333D02*
X30149546Y-20873000D01*
X30213046Y-20703666D01*
X30371796Y-20619000D01*
X30710463Y-20619000D01*
X30890380Y-20703666D01*
X30255380Y-21719666D02*
X30435296Y-21804333D01*
X30858630Y-21804333D01*
X31017380Y-21719666D01*
X31080880Y-21550333D01*
X31059713Y-21381000D01*
X30953880Y-21211666D01*
X30773963Y-21127000D01*
X30350630Y-21127000D01*
X30170713Y-21042333D01*
X29493380Y-21719666D02*
X29334630Y-21804333D01*
X28995963Y-21804333D01*
X28816046Y-21719666D01*
X28710213Y-21550333D01*
X28699630Y-21465666D01*
X28763130Y-21296333D01*
X28921880Y-21211666D01*
X29175880Y-21211666D01*
X29334630Y-21127000D01*
X29398130Y-20957666D01*
X29387546Y-20873000D01*
X29281713Y-20703666D01*
X29101796Y-20619000D01*
X28847796Y-20619000D01*
X28689046Y-20703666D01*
X28054046Y-21719666D02*
X27895296Y-21804333D01*
X27556630Y-21804333D01*
X27376713Y-21719666D01*
X27270880Y-21550333D01*
X27260296Y-21465666D01*
X27323796Y-21296333D01*
X27482546Y-21211666D01*
X27736546Y-21211666D01*
X27895296Y-21127000D01*
X27958796Y-20957666D01*
X27948213Y-20873000D01*
X27842380Y-20703666D01*
X27662463Y-20619000D01*
X27408463Y-20619000D01*
X27249713Y-20703666D01*
X26540630Y-21804333D02*
X26392463Y-20619000D01*
X26318380Y-20026333D02*
X26413630Y-20111000D01*
X26339546Y-20195666D01*
X26244296Y-20111000D01*
X26318380Y-20026333D01*
X26339546Y-20195666D01*
X24921380Y-21719666D02*
X25101296Y-21804333D01*
X25439963Y-21804333D01*
X25598713Y-21719666D01*
X25672796Y-21635000D01*
X25736296Y-21465666D01*
X25672796Y-20957666D01*
X25566963Y-20788333D01*
X25471713Y-20703666D01*
X25291796Y-20619000D01*
X24953130Y-20619000D01*
X24794380Y-20703666D01*
D10*
X17528571Y-34149285D02*
X17528571Y-33777857D01*
X17300000Y-33977857D01*
X17300000Y-33892142D01*
X17271428Y-33835000D01*
X17242857Y-33806428D01*
X17185714Y-33777857D01*
X17042857Y-33777857D01*
X16985714Y-33806428D01*
X16957142Y-33835000D01*
X16928571Y-33892142D01*
X16928571Y-34063571D01*
X16957142Y-34120714D01*
X16985714Y-34149285D01*
X17328571Y-33577857D02*
X16928571Y-33435000D01*
X17328571Y-33292142D01*
X17528571Y-33120714D02*
X17528571Y-32749285D01*
X17300000Y-32949285D01*
X17300000Y-32863571D01*
X17271428Y-32806428D01*
X17242857Y-32777857D01*
X17185714Y-32749285D01*
X17042857Y-32749285D01*
X16985714Y-32777857D01*
X16957142Y-32806428D01*
X16928571Y-32863571D01*
X16928571Y-33035000D01*
X16957142Y-33092142D01*
X16985714Y-33120714D01*
X21771428Y-20822142D02*
X21771428Y-21165000D01*
X22371428Y-20993571D02*
X21771428Y-20993571D01*
X22371428Y-21365000D02*
X21771428Y-21365000D01*
X22200000Y-21565000D01*
X21771428Y-21765000D01*
X22371428Y-21765000D01*
X22342857Y-22022142D02*
X22371428Y-22107857D01*
X22371428Y-22250714D01*
X22342857Y-22307857D01*
X22314285Y-22336428D01*
X22257142Y-22365000D01*
X22200000Y-22365000D01*
X22142857Y-22336428D01*
X22114285Y-22307857D01*
X22085714Y-22250714D01*
X22057142Y-22136428D01*
X22028571Y-22079285D01*
X22000000Y-22050714D01*
X21942857Y-22022142D01*
X21885714Y-22022142D01*
X21828571Y-22050714D01*
X21800000Y-22079285D01*
X21771428Y-22136428D01*
X21771428Y-22279285D01*
X21800000Y-22365000D01*
X19271428Y-20822142D02*
X19271428Y-21165000D01*
X19871428Y-20993571D02*
X19271428Y-20993571D01*
X19871428Y-21365000D02*
X19271428Y-21365000D01*
X19271428Y-21507857D01*
X19300000Y-21593571D01*
X19357142Y-21650714D01*
X19414285Y-21679285D01*
X19528571Y-21707857D01*
X19614285Y-21707857D01*
X19728571Y-21679285D01*
X19785714Y-21650714D01*
X19842857Y-21593571D01*
X19871428Y-21507857D01*
X19871428Y-21365000D01*
X19271428Y-22079285D02*
X19271428Y-22193571D01*
X19300000Y-22250714D01*
X19357142Y-22307857D01*
X19471428Y-22336428D01*
X19671428Y-22336428D01*
X19785714Y-22307857D01*
X19842857Y-22250714D01*
X19871428Y-22193571D01*
X19871428Y-22079285D01*
X19842857Y-22022142D01*
X19785714Y-21965000D01*
X19671428Y-21936428D01*
X19471428Y-21936428D01*
X19357142Y-21965000D01*
X19300000Y-22022142D01*
X19271428Y-22079285D01*
D12*
X22662023Y-30884761D02*
X22519166Y-30932380D01*
X22281071Y-30932380D01*
X22185833Y-30884761D01*
X22138214Y-30837142D01*
X22090595Y-30741904D01*
X22090595Y-30646666D01*
X22138214Y-30551428D01*
X22185833Y-30503809D01*
X22281071Y-30456190D01*
X22471547Y-30408571D01*
X22566785Y-30360952D01*
X22614404Y-30313333D01*
X22662023Y-30218095D01*
X22662023Y-30122857D01*
X22614404Y-30027619D01*
X22566785Y-29980000D01*
X22471547Y-29932380D01*
X22233452Y-29932380D01*
X22090595Y-29980000D01*
X21662023Y-30932380D02*
X21662023Y-29932380D01*
X21281071Y-29932380D01*
X21185833Y-29980000D01*
X21138214Y-30027619D01*
X21090595Y-30122857D01*
X21090595Y-30265714D01*
X21138214Y-30360952D01*
X21185833Y-30408571D01*
X21281071Y-30456190D01*
X21662023Y-30456190D01*
X20662023Y-30932380D02*
X20662023Y-29932380D01*
X19471547Y-29884761D02*
X20328690Y-31170476D01*
X19138214Y-30932380D02*
X19138214Y-29932380D01*
X18757261Y-29932380D01*
X18662023Y-29980000D01*
X18614404Y-30027619D01*
X18566785Y-30122857D01*
X18566785Y-30265714D01*
X18614404Y-30360952D01*
X18662023Y-30408571D01*
X18757261Y-30456190D01*
X19138214Y-30456190D01*
X18233452Y-29932380D02*
X17995357Y-30932380D01*
X17804880Y-30218095D01*
X17614404Y-30932380D01*
X17376309Y-29932380D01*
X16423928Y-30932380D02*
X16757261Y-30456190D01*
X16995357Y-30932380D02*
X16995357Y-29932380D01*
X16614404Y-29932380D01*
X16519166Y-29980000D01*
X16471547Y-30027619D01*
X16423928Y-30122857D01*
X16423928Y-30265714D01*
X16471547Y-30360952D01*
X16519166Y-30408571D01*
X16614404Y-30456190D01*
X16995357Y-30456190D01*
D10*
X15550000Y-21222142D02*
X15521428Y-21165000D01*
X15521428Y-21079285D01*
X15550000Y-20993571D01*
X15607142Y-20936428D01*
X15664285Y-20907857D01*
X15778571Y-20879285D01*
X15864285Y-20879285D01*
X15978571Y-20907857D01*
X16035714Y-20936428D01*
X16092857Y-20993571D01*
X16121428Y-21079285D01*
X16121428Y-21136428D01*
X16092857Y-21222142D01*
X16064285Y-21250714D01*
X15864285Y-21250714D01*
X15864285Y-21136428D01*
X16121428Y-21507857D02*
X15521428Y-21507857D01*
X16121428Y-21850714D01*
X15521428Y-21850714D01*
X16121428Y-22136428D02*
X15521428Y-22136428D01*
X15521428Y-22279285D01*
X15550000Y-22365000D01*
X15607142Y-22422142D01*
X15664285Y-22450714D01*
X15778571Y-22479285D01*
X15864285Y-22479285D01*
X15978571Y-22450714D01*
X16035714Y-22422142D01*
X16092857Y-22365000D01*
X16121428Y-22279285D01*
X16121428Y-22136428D01*
X16771428Y-20850714D02*
X16771428Y-21222142D01*
X17000000Y-21022142D01*
X17000000Y-21107857D01*
X17028571Y-21165000D01*
X17057142Y-21193571D01*
X17114285Y-21222142D01*
X17257142Y-21222142D01*
X17314285Y-21193571D01*
X17342857Y-21165000D01*
X17371428Y-21107857D01*
X17371428Y-20936428D01*
X17342857Y-20879285D01*
X17314285Y-20850714D01*
X16971428Y-21422142D02*
X17371428Y-21565000D01*
X16971428Y-21707857D01*
X16771428Y-21879285D02*
X16771428Y-22250714D01*
X17000000Y-22050714D01*
X17000000Y-22136428D01*
X17028571Y-22193571D01*
X17057142Y-22222142D01*
X17114285Y-22250714D01*
X17257142Y-22250714D01*
X17314285Y-22222142D01*
X17342857Y-22193571D01*
X17371428Y-22136428D01*
X17371428Y-21965000D01*
X17342857Y-21907857D01*
X17314285Y-21879285D01*
X23021428Y-20822142D02*
X23021428Y-21165000D01*
X23621428Y-20993571D02*
X23021428Y-20993571D01*
X23621428Y-21365000D02*
X23021428Y-21365000D01*
X23021428Y-21507857D01*
X23050000Y-21593571D01*
X23107142Y-21650714D01*
X23164285Y-21679285D01*
X23278571Y-21707857D01*
X23364285Y-21707857D01*
X23478571Y-21679285D01*
X23535714Y-21650714D01*
X23592857Y-21593571D01*
X23621428Y-21507857D01*
X23621428Y-21365000D01*
X23621428Y-21965000D02*
X23021428Y-21965000D01*
X19485714Y-33749285D02*
X19457142Y-33777857D01*
X19428571Y-33863571D01*
X19428571Y-33920714D01*
X19457142Y-34006428D01*
X19514285Y-34063571D01*
X19571428Y-34092142D01*
X19685714Y-34120714D01*
X19771428Y-34120714D01*
X19885714Y-34092142D01*
X19942857Y-34063571D01*
X20000000Y-34006428D01*
X20028571Y-33920714D01*
X20028571Y-33863571D01*
X20000000Y-33777857D01*
X19971428Y-33749285D01*
X19428571Y-33206428D02*
X19428571Y-33492142D01*
X20028571Y-33492142D01*
X19428571Y-33006428D02*
X20028571Y-33006428D01*
X19428571Y-32663571D02*
X19771428Y-32920714D01*
X20028571Y-32663571D02*
X19685714Y-33006428D01*
X18178571Y-33777857D02*
X18178571Y-34120714D01*
X18178571Y-33949285D02*
X18778571Y-33949285D01*
X18692857Y-34006428D01*
X18635714Y-34063571D01*
X18607142Y-34120714D01*
X18578571Y-33577857D02*
X18178571Y-33435000D01*
X18578571Y-33292142D01*
X18521428Y-32977857D02*
X18550000Y-33035000D01*
X18578571Y-33063571D01*
X18635714Y-33092142D01*
X18664285Y-33092142D01*
X18721428Y-33063571D01*
X18750000Y-33035000D01*
X18778571Y-32977857D01*
X18778571Y-32863571D01*
X18750000Y-32806428D01*
X18721428Y-32777857D01*
X18664285Y-32749285D01*
X18635714Y-32749285D01*
X18578571Y-32777857D01*
X18550000Y-32806428D01*
X18521428Y-32863571D01*
X18521428Y-32977857D01*
X18492857Y-33035000D01*
X18464285Y-33063571D01*
X18407142Y-33092142D01*
X18292857Y-33092142D01*
X18235714Y-33063571D01*
X18207142Y-33035000D01*
X18178571Y-32977857D01*
X18178571Y-32863571D01*
X18207142Y-32806428D01*
X18235714Y-32777857D01*
X18292857Y-32749285D01*
X18407142Y-32749285D01*
X18464285Y-32777857D01*
X18492857Y-32806428D01*
X18521428Y-32863571D01*
X20678571Y-34092142D02*
X21278571Y-34092142D01*
X20850000Y-33892142D01*
X21278571Y-33692142D01*
X20678571Y-33692142D01*
X20678571Y-33406428D02*
X21278571Y-33406428D01*
X20707142Y-33149285D02*
X20678571Y-33063571D01*
X20678571Y-32920714D01*
X20707142Y-32863571D01*
X20735714Y-32835000D01*
X20792857Y-32806428D01*
X20850000Y-32806428D01*
X20907142Y-32835000D01*
X20935714Y-32863571D01*
X20964285Y-32920714D01*
X20992857Y-33035000D01*
X21021428Y-33092142D01*
X21050000Y-33120714D01*
X21107142Y-33149285D01*
X21164285Y-33149285D01*
X21221428Y-33120714D01*
X21250000Y-33092142D01*
X21278571Y-33035000D01*
X21278571Y-32892142D01*
X21250000Y-32806428D01*
X21278571Y-32435000D02*
X21278571Y-32320714D01*
X21250000Y-32263571D01*
X21192857Y-32206428D01*
X21078571Y-32177857D01*
X20878571Y-32177857D01*
X20764285Y-32206428D01*
X20707142Y-32263571D01*
X20678571Y-32320714D01*
X20678571Y-32435000D01*
X20707142Y-32492142D01*
X20764285Y-32549285D01*
X20878571Y-32577857D01*
X21078571Y-32577857D01*
X21192857Y-32549285D01*
X21250000Y-32492142D01*
X21278571Y-32435000D01*
X23750000Y-33777857D02*
X23778571Y-33835000D01*
X23778571Y-33920714D01*
X23750000Y-34006428D01*
X23692857Y-34063571D01*
X23635714Y-34092142D01*
X23521428Y-34120714D01*
X23435714Y-34120714D01*
X23321428Y-34092142D01*
X23264285Y-34063571D01*
X23207142Y-34006428D01*
X23178571Y-33920714D01*
X23178571Y-33863571D01*
X23207142Y-33777857D01*
X23235714Y-33749285D01*
X23435714Y-33749285D01*
X23435714Y-33863571D01*
X23178571Y-33492142D02*
X23778571Y-33492142D01*
X23178571Y-33149285D01*
X23778571Y-33149285D01*
X23178571Y-32863571D02*
X23778571Y-32863571D01*
X23778571Y-32720714D01*
X23750000Y-32635000D01*
X23692857Y-32577857D01*
X23635714Y-32549285D01*
X23521428Y-32520714D01*
X23435714Y-32520714D01*
X23321428Y-32549285D01*
X23264285Y-32577857D01*
X23207142Y-32635000D01*
X23178571Y-32720714D01*
X23178571Y-32863571D01*
D12*
X18371309Y-25057619D02*
X18371309Y-24343333D01*
X18323690Y-24200476D01*
X18228452Y-24105238D01*
X18085595Y-24057619D01*
X17990357Y-24057619D01*
X18704642Y-25057619D02*
X19276071Y-25057619D01*
X18990357Y-24057619D02*
X18990357Y-25057619D01*
X19561785Y-24343333D02*
X20037976Y-24343333D01*
X19466547Y-24057619D02*
X19799880Y-25057619D01*
X20133214Y-24057619D01*
X20990357Y-25010000D02*
X20895119Y-25057619D01*
X20752261Y-25057619D01*
X20609404Y-25010000D01*
X20514166Y-24914761D01*
X20466547Y-24819523D01*
X20418928Y-24629047D01*
X20418928Y-24486190D01*
X20466547Y-24295714D01*
X20514166Y-24200476D01*
X20609404Y-24105238D01*
X20752261Y-24057619D01*
X20847500Y-24057619D01*
X20990357Y-24105238D01*
X21037976Y-24152857D01*
X21037976Y-24486190D01*
X20847500Y-24486190D01*
D10*
X21928571Y-34092142D02*
X22528571Y-34092142D01*
X22100000Y-33892142D01*
X22528571Y-33692142D01*
X21928571Y-33692142D01*
X22528571Y-33292142D02*
X22528571Y-33177857D01*
X22500000Y-33120714D01*
X22442857Y-33063571D01*
X22328571Y-33035000D01*
X22128571Y-33035000D01*
X22014285Y-33063571D01*
X21957142Y-33120714D01*
X21928571Y-33177857D01*
X21928571Y-33292142D01*
X21957142Y-33349285D01*
X22014285Y-33406428D01*
X22128571Y-33435000D01*
X22328571Y-33435000D01*
X22442857Y-33406428D01*
X22500000Y-33349285D01*
X22528571Y-33292142D01*
X21957142Y-32806428D02*
X21928571Y-32720714D01*
X21928571Y-32577857D01*
X21957142Y-32520714D01*
X21985714Y-32492142D01*
X22042857Y-32463571D01*
X22100000Y-32463571D01*
X22157142Y-32492142D01*
X22185714Y-32520714D01*
X22214285Y-32577857D01*
X22242857Y-32692142D01*
X22271428Y-32749285D01*
X22300000Y-32777857D01*
X22357142Y-32806428D01*
X22414285Y-32806428D01*
X22471428Y-32777857D01*
X22500000Y-32749285D01*
X22528571Y-32692142D01*
X22528571Y-32549285D01*
X22500000Y-32463571D01*
X21928571Y-32206428D02*
X22528571Y-32206428D01*
X18021428Y-20822142D02*
X18021428Y-21165000D01*
X18621428Y-20993571D02*
X18021428Y-20993571D01*
X18564285Y-21707857D02*
X18592857Y-21679285D01*
X18621428Y-21593571D01*
X18621428Y-21536428D01*
X18592857Y-21450714D01*
X18535714Y-21393571D01*
X18478571Y-21365000D01*
X18364285Y-21336428D01*
X18278571Y-21336428D01*
X18164285Y-21365000D01*
X18107142Y-21393571D01*
X18050000Y-21450714D01*
X18021428Y-21536428D01*
X18021428Y-21593571D01*
X18050000Y-21679285D01*
X18078571Y-21707857D01*
X18621428Y-21965000D02*
X18021428Y-21965000D01*
X18621428Y-22307857D02*
X18278571Y-22050714D01*
X18021428Y-22307857D02*
X18364285Y-21965000D01*
X21121428Y-20907857D02*
X20521428Y-20907857D01*
X21121428Y-21250714D01*
X20521428Y-21250714D01*
X21121428Y-21879285D02*
X20835714Y-21679285D01*
X21121428Y-21536428D02*
X20521428Y-21536428D01*
X20521428Y-21765000D01*
X20550000Y-21822142D01*
X20578571Y-21850714D01*
X20635714Y-21879285D01*
X20721428Y-21879285D01*
X20778571Y-21850714D01*
X20807142Y-21822142D01*
X20835714Y-21765000D01*
X20835714Y-21536428D01*
X21092857Y-22107857D02*
X21121428Y-22193571D01*
X21121428Y-22336428D01*
X21092857Y-22393571D01*
X21064285Y-22422142D01*
X21007142Y-22450714D01*
X20950000Y-22450714D01*
X20892857Y-22422142D01*
X20864285Y-22393571D01*
X20835714Y-22336428D01*
X20807142Y-22222142D01*
X20778571Y-22165000D01*
X20750000Y-22136428D01*
X20692857Y-22107857D01*
X20635714Y-22107857D01*
X20578571Y-22136428D01*
X20550000Y-22165000D01*
X20521428Y-22222142D01*
X20521428Y-22365000D01*
X20550000Y-22450714D01*
X20521428Y-22622142D02*
X20521428Y-22965000D01*
X21121428Y-22793571D02*
X20521428Y-22793571D01*
D13*
X46055547Y-23566723D02*
X45945071Y-23621961D01*
X45724119Y-23621961D01*
X45613642Y-23566723D01*
X45558404Y-23456247D01*
X45558404Y-23401009D01*
X45613642Y-23290533D01*
X45724119Y-23235295D01*
X45889833Y-23235295D01*
X46000309Y-23180057D01*
X46055547Y-23069580D01*
X46055547Y-23014342D01*
X46000309Y-22903866D01*
X45889833Y-22848628D01*
X45724119Y-22848628D01*
X45613642Y-22903866D01*
X44895547Y-23621961D02*
X45006023Y-23566723D01*
X45061261Y-23456247D01*
X45061261Y-22461961D01*
X43956500Y-23621961D02*
X43956500Y-23014342D01*
X44011738Y-22903866D01*
X44122214Y-22848628D01*
X44343166Y-22848628D01*
X44453642Y-22903866D01*
X43956500Y-23566723D02*
X44066976Y-23621961D01*
X44343166Y-23621961D01*
X44453642Y-23566723D01*
X44508880Y-23456247D01*
X44508880Y-23345771D01*
X44453642Y-23235295D01*
X44343166Y-23180057D01*
X44066976Y-23180057D01*
X43956500Y-23124819D01*
X43404119Y-23621961D02*
X43404119Y-22848628D01*
X43404119Y-23069580D02*
X43348880Y-22959104D01*
X43293642Y-22903866D01*
X43183166Y-22848628D01*
X43072690Y-22848628D01*
X42686023Y-23621961D02*
X42686023Y-22848628D01*
X42686023Y-22959104D02*
X42630785Y-22903866D01*
X42520309Y-22848628D01*
X42354595Y-22848628D01*
X42244119Y-22903866D01*
X42188880Y-23014342D01*
X42188880Y-23621961D01*
X42188880Y-23014342D02*
X42133642Y-22903866D01*
X42023166Y-22848628D01*
X41857452Y-22848628D01*
X41746976Y-22903866D01*
X41691738Y-23014342D01*
X41691738Y-23621961D01*
X41415547Y-23732438D02*
X40531738Y-23732438D01*
X39758404Y-23566723D02*
X39868880Y-23621961D01*
X40089833Y-23621961D01*
X40200309Y-23566723D01*
X40255547Y-23511485D01*
X40310785Y-23401009D01*
X40310785Y-23069580D01*
X40255547Y-22959104D01*
X40200309Y-22903866D01*
X40089833Y-22848628D01*
X39868880Y-22848628D01*
X39758404Y-22903866D01*
X39095547Y-23621961D02*
X39206023Y-23566723D01*
X39261261Y-23456247D01*
X39261261Y-22461961D01*
X38708880Y-23566723D02*
X38598404Y-23621961D01*
X38377452Y-23621961D01*
X38266976Y-23566723D01*
X38211738Y-23456247D01*
X38211738Y-23401009D01*
X38266976Y-23290533D01*
X38377452Y-23235295D01*
X38543166Y-23235295D01*
X38653642Y-23180057D01*
X38708880Y-23069580D01*
X38708880Y-23014342D01*
X38653642Y-22903866D01*
X38543166Y-22848628D01*
X38377452Y-22848628D01*
X38266976Y-22903866D01*
X37990785Y-23732438D02*
X37106976Y-23732438D01*
X36886023Y-22572438D02*
X36830785Y-22517200D01*
X36720309Y-22461961D01*
X36444119Y-22461961D01*
X36333642Y-22517200D01*
X36278404Y-22572438D01*
X36223166Y-22682914D01*
X36223166Y-22793390D01*
X36278404Y-22959104D01*
X36941261Y-23621961D01*
X36223166Y-23621961D01*
X35228880Y-22848628D02*
X35228880Y-23621961D01*
X35505071Y-22406723D02*
X35781261Y-23235295D01*
X35063166Y-23235295D01*
X34013642Y-23621961D02*
X34676500Y-23621961D01*
X34345071Y-23621961D02*
X34345071Y-22461961D01*
X34455547Y-22627676D01*
X34566023Y-22738152D01*
X34676500Y-22793390D01*
X33295547Y-22461961D02*
X33185071Y-22461961D01*
X33074595Y-22517200D01*
X33019357Y-22572438D01*
X32964119Y-22682914D01*
X32908880Y-22903866D01*
X32908880Y-23180057D01*
X32964119Y-23401009D01*
X33019357Y-23511485D01*
X33074595Y-23566723D01*
X33185071Y-23621961D01*
X33295547Y-23621961D01*
X33406023Y-23566723D01*
X33461261Y-23511485D01*
X33516500Y-23401009D01*
X33571738Y-23180057D01*
X33571738Y-22903866D01*
X33516500Y-22682914D01*
X33461261Y-22572438D01*
X33406023Y-22517200D01*
X33295547Y-22461961D01*
X32687928Y-23732438D02*
X31804119Y-23732438D01*
X31638404Y-22848628D02*
X31362214Y-23621961D01*
X31086023Y-22848628D01*
X30036499Y-23621961D02*
X30699357Y-23621961D01*
X30367928Y-23621961D02*
X30367928Y-22461961D01*
X30478404Y-22627676D01*
X30588880Y-22738152D01*
X30699357Y-22793390D01*
X29539357Y-23621961D02*
X29539357Y-22848628D01*
X29539357Y-23069580D02*
X29484119Y-22959104D01*
X29428880Y-22903866D01*
X29318404Y-22848628D01*
X29207928Y-22848628D01*
X28876499Y-22572438D02*
X28821261Y-22517200D01*
X28710785Y-22461961D01*
X28434595Y-22461961D01*
X28324119Y-22517200D01*
X28268880Y-22572438D01*
X28213642Y-22682914D01*
X28213642Y-22793390D01*
X28268880Y-22959104D01*
X28931738Y-23621961D01*
X28213642Y-23621961D01*
X46000309Y-24716228D02*
X46000309Y-25710514D01*
X46055547Y-25820990D01*
X46166023Y-25876228D01*
X46221261Y-25876228D01*
X46000309Y-24329561D02*
X46055547Y-24384800D01*
X46000309Y-24440038D01*
X45945071Y-24384800D01*
X46000309Y-24329561D01*
X46000309Y-24440038D01*
X45282214Y-25489561D02*
X45392690Y-25434323D01*
X45447928Y-25323847D01*
X45447928Y-24329561D01*
X44950785Y-24716228D02*
X44674595Y-25489561D01*
X44398404Y-24716228D02*
X44674595Y-25489561D01*
X44785071Y-25765752D01*
X44840309Y-25820990D01*
X44950785Y-25876228D01*
X44066976Y-24716228D02*
X43846023Y-25489561D01*
X43625071Y-24937180D01*
X43404119Y-25489561D01*
X43183166Y-24716228D01*
X42851738Y-25489561D02*
X42244119Y-24716228D01*
X42851738Y-24716228D02*
X42244119Y-25489561D01*
X41912690Y-24716228D02*
X41636500Y-25489561D01*
X41360309Y-24716228D02*
X41636500Y-25489561D01*
X41746976Y-25765752D01*
X41802214Y-25820990D01*
X41912690Y-25876228D01*
X40089833Y-24440038D02*
X40034595Y-24384800D01*
X39924119Y-24329561D01*
X39647928Y-24329561D01*
X39537452Y-24384800D01*
X39482214Y-24440038D01*
X39426976Y-24550514D01*
X39426976Y-24660990D01*
X39482214Y-24826704D01*
X40145071Y-25489561D01*
X39426976Y-25489561D01*
X38708880Y-24329561D02*
X38598404Y-24329561D01*
X38487928Y-24384800D01*
X38432690Y-24440038D01*
X38377452Y-24550514D01*
X38322214Y-24771466D01*
X38322214Y-25047657D01*
X38377452Y-25268609D01*
X38432690Y-25379085D01*
X38487928Y-25434323D01*
X38598404Y-25489561D01*
X38708880Y-25489561D01*
X38819357Y-25434323D01*
X38874595Y-25379085D01*
X38929833Y-25268609D01*
X38985071Y-25047657D01*
X38985071Y-24771466D01*
X38929833Y-24550514D01*
X38874595Y-24440038D01*
X38819357Y-24384800D01*
X38708880Y-24329561D01*
X37880309Y-24440038D02*
X37825071Y-24384800D01*
X37714595Y-24329561D01*
X37438404Y-24329561D01*
X37327928Y-24384800D01*
X37272690Y-24440038D01*
X37217452Y-24550514D01*
X37217452Y-24660990D01*
X37272690Y-24826704D01*
X37935547Y-25489561D01*
X37217452Y-25489561D01*
X36830785Y-24329561D02*
X36112690Y-24329561D01*
X36499357Y-24771466D01*
X36333642Y-24771466D01*
X36223166Y-24826704D01*
X36167928Y-24881942D01*
X36112690Y-24992419D01*
X36112690Y-25268609D01*
X36167928Y-25379085D01*
X36223166Y-25434323D01*
X36333642Y-25489561D01*
X36665071Y-25489561D01*
X36775547Y-25434323D01*
X36830785Y-25379085D01*
X35615547Y-25379085D02*
X35560309Y-25434323D01*
X35615547Y-25489561D01*
X35670785Y-25434323D01*
X35615547Y-25379085D01*
X35615547Y-25489561D01*
X35173642Y-24329561D02*
X34455547Y-24329561D01*
X34842214Y-24771466D01*
X34676500Y-24771466D01*
X34566023Y-24826704D01*
X34510785Y-24881942D01*
X34455547Y-24992419D01*
X34455547Y-25268609D01*
X34510785Y-25379085D01*
X34566023Y-25434323D01*
X34676500Y-25489561D01*
X35007928Y-25489561D01*
X35118404Y-25434323D01*
X35173642Y-25379085D01*
X33958404Y-25379085D02*
X33903166Y-25434323D01*
X33958404Y-25489561D01*
X34013642Y-25434323D01*
X33958404Y-25379085D01*
X33958404Y-25489561D01*
X33240309Y-24826704D02*
X33350785Y-24771466D01*
X33406023Y-24716228D01*
X33461261Y-24605752D01*
X33461261Y-24550514D01*
X33406023Y-24440038D01*
X33350785Y-24384800D01*
X33240309Y-24329561D01*
X33019357Y-24329561D01*
X32908880Y-24384800D01*
X32853642Y-24440038D01*
X32798404Y-24550514D01*
X32798404Y-24605752D01*
X32853642Y-24716228D01*
X32908880Y-24771466D01*
X33019357Y-24826704D01*
X33240309Y-24826704D01*
X33350785Y-24881942D01*
X33406023Y-24937180D01*
X33461261Y-25047657D01*
X33461261Y-25268609D01*
X33406023Y-25379085D01*
X33350785Y-25434323D01*
X33240309Y-25489561D01*
X33019357Y-25489561D01*
X32908880Y-25434323D01*
X32853642Y-25379085D01*
X32798404Y-25268609D01*
X32798404Y-25047657D01*
X32853642Y-24937180D01*
X32908880Y-24881942D01*
X33019357Y-24826704D01*
X45337452Y-27246685D02*
X45392690Y-27301923D01*
X45558404Y-27357161D01*
X45668880Y-27357161D01*
X45834595Y-27301923D01*
X45945071Y-27191447D01*
X46000309Y-27080971D01*
X46055547Y-26860019D01*
X46055547Y-26694304D01*
X46000309Y-26473352D01*
X45945071Y-26362876D01*
X45834595Y-26252400D01*
X45668880Y-26197161D01*
X45558404Y-26197161D01*
X45392690Y-26252400D01*
X45337452Y-26307638D01*
X44840309Y-27357161D02*
X44840309Y-26197161D01*
X44398404Y-26197161D01*
X44287928Y-26252400D01*
X44232690Y-26307638D01*
X44177452Y-26418114D01*
X44177452Y-26583828D01*
X44232690Y-26694304D01*
X44287928Y-26749542D01*
X44398404Y-26804780D01*
X44840309Y-26804780D01*
X43680309Y-26197161D02*
X43680309Y-27136209D01*
X43625071Y-27246685D01*
X43569833Y-27301923D01*
X43459357Y-27357161D01*
X43238404Y-27357161D01*
X43127928Y-27301923D01*
X43072690Y-27246685D01*
X43017452Y-27136209D01*
X43017452Y-26197161D01*
X42465071Y-27246685D02*
X42409833Y-27301923D01*
X42465071Y-27357161D01*
X42520309Y-27301923D01*
X42465071Y-27246685D01*
X42465071Y-27357161D01*
X42465071Y-26639066D02*
X42409833Y-26694304D01*
X42465071Y-26749542D01*
X42520309Y-26694304D01*
X42465071Y-26639066D01*
X42465071Y-26749542D01*
X41084119Y-27301923D02*
X40918404Y-27357161D01*
X40642214Y-27357161D01*
X40531738Y-27301923D01*
X40476500Y-27246685D01*
X40421261Y-27136209D01*
X40421261Y-27025733D01*
X40476500Y-26915257D01*
X40531738Y-26860019D01*
X40642214Y-26804780D01*
X40863166Y-26749542D01*
X40973642Y-26694304D01*
X41028880Y-26639066D01*
X41084119Y-26528590D01*
X41084119Y-26418114D01*
X41028880Y-26307638D01*
X40973642Y-26252400D01*
X40863166Y-26197161D01*
X40586976Y-26197161D01*
X40421261Y-26252400D01*
X40034595Y-26197161D02*
X39316500Y-26197161D01*
X39703166Y-26639066D01*
X39537452Y-26639066D01*
X39426976Y-26694304D01*
X39371738Y-26749542D01*
X39316500Y-26860019D01*
X39316500Y-27136209D01*
X39371738Y-27246685D01*
X39426976Y-27301923D01*
X39537452Y-27357161D01*
X39868880Y-27357161D01*
X39979357Y-27301923D01*
X40034595Y-27246685D01*
X38156500Y-27246685D02*
X38211738Y-27301923D01*
X38377452Y-27357161D01*
X38487928Y-27357161D01*
X38653642Y-27301923D01*
X38764119Y-27191447D01*
X38819357Y-27080971D01*
X38874595Y-26860019D01*
X38874595Y-26694304D01*
X38819357Y-26473352D01*
X38764119Y-26362876D01*
X38653642Y-26252400D01*
X38487928Y-26197161D01*
X38377452Y-26197161D01*
X38211738Y-26252400D01*
X38156500Y-26307638D01*
X37714595Y-26307638D02*
X37659357Y-26252400D01*
X37548880Y-26197161D01*
X37272690Y-26197161D01*
X37162214Y-26252400D01*
X37106976Y-26307638D01*
X37051738Y-26418114D01*
X37051738Y-26528590D01*
X37106976Y-26694304D01*
X37769833Y-27357161D01*
X37051738Y-27357161D01*
X36057452Y-26583828D02*
X36057452Y-27357161D01*
X36333642Y-26141923D02*
X36609833Y-26970495D01*
X35891738Y-26970495D01*
X34842214Y-27357161D02*
X35505071Y-27357161D01*
X35173642Y-27357161D02*
X35173642Y-26197161D01*
X35284119Y-26362876D01*
X35394595Y-26473352D01*
X35505071Y-26528590D01*
X34124119Y-26197161D02*
X34013642Y-26197161D01*
X33903166Y-26252400D01*
X33847928Y-26307638D01*
X33792690Y-26418114D01*
X33737452Y-26639066D01*
X33737452Y-26915257D01*
X33792690Y-27136209D01*
X33847928Y-27246685D01*
X33903166Y-27301923D01*
X34013642Y-27357161D01*
X34124119Y-27357161D01*
X34234595Y-27301923D01*
X34289833Y-27246685D01*
X34345071Y-27136209D01*
X34400309Y-26915257D01*
X34400309Y-26639066D01*
X34345071Y-26418114D01*
X34289833Y-26307638D01*
X34234595Y-26252400D01*
X34124119Y-26197161D01*
X33295547Y-27025733D02*
X32743166Y-27025733D01*
X33406023Y-27357161D02*
X33019357Y-26197161D01*
X32632690Y-27357161D01*
X31693642Y-27357161D02*
X32246023Y-27357161D01*
X32246023Y-26197161D01*
X30588880Y-26804780D02*
X30644119Y-26749542D01*
X30754595Y-26694304D01*
X30865071Y-26694304D01*
X30975547Y-26749542D01*
X31030785Y-26804780D01*
X31086023Y-26915257D01*
X31086023Y-27025733D01*
X31030785Y-27136209D01*
X30975547Y-27191447D01*
X30865071Y-27246685D01*
X30754595Y-27246685D01*
X30644119Y-27191447D01*
X30588880Y-27136209D01*
X30588880Y-26694304D02*
X30588880Y-27136209D01*
X30533642Y-27191447D01*
X30478404Y-27191447D01*
X30367928Y-27136209D01*
X30312690Y-27025733D01*
X30312690Y-26749542D01*
X30423166Y-26583828D01*
X30588880Y-26473352D01*
X30809833Y-26418114D01*
X31030785Y-26473352D01*
X31196500Y-26583828D01*
X31306976Y-26749542D01*
X31362214Y-26970495D01*
X31306976Y-27191447D01*
X31196500Y-27357161D01*
X31030785Y-27467638D01*
X30809833Y-27522876D01*
X30588880Y-27467638D01*
X30423166Y-27357161D01*
X29870785Y-26307638D02*
X29815547Y-26252400D01*
X29705071Y-26197161D01*
X29428880Y-26197161D01*
X29318404Y-26252400D01*
X29263166Y-26307638D01*
X29207928Y-26418114D01*
X29207928Y-26528590D01*
X29263166Y-26694304D01*
X29926023Y-27357161D01*
X29207928Y-27357161D01*
X28213642Y-26197161D02*
X28434595Y-26197161D01*
X28545071Y-26252400D01*
X28600309Y-26307638D01*
X28710785Y-26473352D01*
X28766023Y-26694304D01*
X28766023Y-27136209D01*
X28710785Y-27246685D01*
X28655547Y-27301923D01*
X28545071Y-27357161D01*
X28324119Y-27357161D01*
X28213642Y-27301923D01*
X28158404Y-27246685D01*
X28103166Y-27136209D01*
X28103166Y-26860019D01*
X28158404Y-26749542D01*
X28213642Y-26694304D01*
X28324119Y-26639066D01*
X28545071Y-26639066D01*
X28655547Y-26694304D01*
X28710785Y-26749542D01*
X28766023Y-26860019D01*
X27108880Y-26197161D02*
X27329833Y-26197161D01*
X27440309Y-26252400D01*
X27495547Y-26307638D01*
X27606023Y-26473352D01*
X27661261Y-26694304D01*
X27661261Y-27136209D01*
X27606023Y-27246685D01*
X27550785Y-27301923D01*
X27440309Y-27357161D01*
X27219357Y-27357161D01*
X27108880Y-27301923D01*
X27053642Y-27246685D01*
X26998404Y-27136209D01*
X26998404Y-26860019D01*
X27053642Y-26749542D01*
X27108880Y-26694304D01*
X27219357Y-26639066D01*
X27440309Y-26639066D01*
X27550785Y-26694304D01*
X27606023Y-26749542D01*
X27661261Y-26860019D01*
X26501261Y-27357161D02*
X26501261Y-26197161D01*
X26114595Y-27025733D01*
X25727928Y-26197161D01*
X25727928Y-27357161D01*
X25175547Y-27357161D02*
X25175547Y-26197161D01*
X25175547Y-26749542D02*
X24512690Y-26749542D01*
X24512690Y-27357161D02*
X24512690Y-26197161D01*
X24070785Y-26583828D02*
X23463166Y-26583828D01*
X24070785Y-27357161D01*
X23463166Y-27357161D01*
X46055547Y-29169523D02*
X45889833Y-29224761D01*
X45613642Y-29224761D01*
X45503166Y-29169523D01*
X45447928Y-29114285D01*
X45392690Y-29003809D01*
X45392690Y-28893333D01*
X45447928Y-28782857D01*
X45503166Y-28727619D01*
X45613642Y-28672380D01*
X45834595Y-28617142D01*
X45945071Y-28561904D01*
X46000309Y-28506666D01*
X46055547Y-28396190D01*
X46055547Y-28285714D01*
X46000309Y-28175238D01*
X45945071Y-28120000D01*
X45834595Y-28064761D01*
X45558404Y-28064761D01*
X45392690Y-28120000D01*
X44895547Y-29224761D02*
X44895547Y-28064761D01*
X44619357Y-28064761D01*
X44453642Y-28120000D01*
X44343166Y-28230476D01*
X44287928Y-28340952D01*
X44232690Y-28561904D01*
X44232690Y-28727619D01*
X44287928Y-28948571D01*
X44343166Y-29059047D01*
X44453642Y-29169523D01*
X44619357Y-29224761D01*
X44895547Y-29224761D01*
X43072690Y-29224761D02*
X43459357Y-28672380D01*
X43735547Y-29224761D02*
X43735547Y-28064761D01*
X43293642Y-28064761D01*
X43183166Y-28120000D01*
X43127928Y-28175238D01*
X43072690Y-28285714D01*
X43072690Y-28451428D01*
X43127928Y-28561904D01*
X43183166Y-28617142D01*
X43293642Y-28672380D01*
X43735547Y-28672380D01*
X42630785Y-28893333D02*
X42078404Y-28893333D01*
X42741261Y-29224761D02*
X42354595Y-28064761D01*
X41967928Y-29224761D01*
X41581261Y-29224761D02*
X41581261Y-28064761D01*
X41194595Y-28893333D01*
X40807928Y-28064761D01*
X40807928Y-29224761D01*
X39371738Y-28617142D02*
X38487928Y-28617142D01*
X38487928Y-28948571D02*
X39371738Y-28948571D01*
X37935547Y-28617142D02*
X37051738Y-28617142D01*
X37051738Y-28948571D02*
X37935547Y-28948571D01*
X36609833Y-28064761D02*
X35891738Y-28064761D01*
X36278404Y-28506666D01*
X36112690Y-28506666D01*
X36002214Y-28561904D01*
X35946976Y-28617142D01*
X35891738Y-28727619D01*
X35891738Y-29003809D01*
X35946976Y-29114285D01*
X36002214Y-29169523D01*
X36112690Y-29224761D01*
X36444119Y-29224761D01*
X36554595Y-29169523D01*
X36609833Y-29114285D01*
X35449833Y-28175238D02*
X35394595Y-28120000D01*
X35284119Y-28064761D01*
X35007928Y-28064761D01*
X34897452Y-28120000D01*
X34842214Y-28175238D01*
X34786976Y-28285714D01*
X34786976Y-28396190D01*
X34842214Y-28561904D01*
X35505071Y-29224761D01*
X34786976Y-29224761D01*
X34289833Y-29224761D02*
X34289833Y-28064761D01*
X33903166Y-28893333D01*
X33516500Y-28064761D01*
X33516500Y-29224761D01*
X32577452Y-28617142D02*
X32411738Y-28672380D01*
X32356500Y-28727619D01*
X32301261Y-28838095D01*
X32301261Y-29003809D01*
X32356500Y-29114285D01*
X32411738Y-29169523D01*
X32522214Y-29224761D01*
X32964119Y-29224761D01*
X32964119Y-28064761D01*
X32577452Y-28064761D01*
X32466976Y-28120000D01*
X32411738Y-28175238D01*
X32356500Y-28285714D01*
X32356500Y-28396190D01*
X32411738Y-28506666D01*
X32466976Y-28561904D01*
X32577452Y-28617142D01*
X32964119Y-28617142D01*
X46000309Y-31092361D02*
X46000309Y-29932361D01*
X45337452Y-31092361D01*
X45337452Y-29932361D01*
X44840309Y-30760933D02*
X44287928Y-30760933D01*
X44950785Y-31092361D02*
X44564119Y-29932361D01*
X44177452Y-31092361D01*
X43790785Y-31092361D02*
X43790785Y-29932361D01*
X43127928Y-31092361D01*
X43127928Y-29932361D01*
X42575547Y-31092361D02*
X42575547Y-29932361D01*
X42299357Y-29932361D01*
X42133642Y-29987600D01*
X42023166Y-30098076D01*
X41967928Y-30208552D01*
X41912690Y-30429504D01*
X41912690Y-30595219D01*
X41967928Y-30816171D01*
X42023166Y-30926647D01*
X42133642Y-31037123D01*
X42299357Y-31092361D01*
X42575547Y-31092361D01*
X39647928Y-30319028D02*
X40531738Y-30650457D01*
X39647928Y-30981885D01*
X39095547Y-30484742D02*
X38211738Y-30484742D01*
X38211738Y-30816171D02*
X39095547Y-30816171D01*
X37051738Y-31092361D02*
X37714595Y-31092361D01*
X37383166Y-31092361D02*
X37383166Y-29932361D01*
X37493642Y-30098076D01*
X37604119Y-30208552D01*
X37714595Y-30263790D01*
X36609833Y-30042838D02*
X36554595Y-29987600D01*
X36444119Y-29932361D01*
X36167928Y-29932361D01*
X36057452Y-29987600D01*
X36002214Y-30042838D01*
X35946976Y-30153314D01*
X35946976Y-30263790D01*
X36002214Y-30429504D01*
X36665071Y-31092361D01*
X35946976Y-31092361D01*
X35284119Y-30429504D02*
X35394595Y-30374266D01*
X35449833Y-30319028D01*
X35505071Y-30208552D01*
X35505071Y-30153314D01*
X35449833Y-30042838D01*
X35394595Y-29987600D01*
X35284119Y-29932361D01*
X35063166Y-29932361D01*
X34952690Y-29987600D01*
X34897452Y-30042838D01*
X34842214Y-30153314D01*
X34842214Y-30208552D01*
X34897452Y-30319028D01*
X34952690Y-30374266D01*
X35063166Y-30429504D01*
X35284119Y-30429504D01*
X35394595Y-30484742D01*
X35449833Y-30539980D01*
X35505071Y-30650457D01*
X35505071Y-30871409D01*
X35449833Y-30981885D01*
X35394595Y-31037123D01*
X35284119Y-31092361D01*
X35063166Y-31092361D01*
X34952690Y-31037123D01*
X34897452Y-30981885D01*
X34842214Y-30871409D01*
X34842214Y-30650457D01*
X34897452Y-30539980D01*
X34952690Y-30484742D01*
X35063166Y-30429504D01*
X34345071Y-31092361D02*
X34345071Y-29932361D01*
X33958404Y-30760933D01*
X33571738Y-29932361D01*
X33571738Y-31092361D01*
X32632690Y-30484742D02*
X32466976Y-30539980D01*
X32411738Y-30595219D01*
X32356500Y-30705695D01*
X32356500Y-30871409D01*
X32411738Y-30981885D01*
X32466976Y-31037123D01*
X32577452Y-31092361D01*
X33019357Y-31092361D01*
X33019357Y-29932361D01*
X32632690Y-29932361D01*
X32522214Y-29987600D01*
X32466976Y-30042838D01*
X32411738Y-30153314D01*
X32411738Y-30263790D01*
X32466976Y-30374266D01*
X32522214Y-30429504D01*
X32632690Y-30484742D01*
X33019357Y-30484742D01*
X46000309Y-32959961D02*
X46000309Y-32186628D01*
X46000309Y-32407580D02*
X45945071Y-32297104D01*
X45889833Y-32241866D01*
X45779357Y-32186628D01*
X45668880Y-32186628D01*
X44840309Y-32904723D02*
X44950785Y-32959961D01*
X45171738Y-32959961D01*
X45282214Y-32904723D01*
X45337452Y-32794247D01*
X45337452Y-32352342D01*
X45282214Y-32241866D01*
X45171738Y-32186628D01*
X44950785Y-32186628D01*
X44840309Y-32241866D01*
X44785071Y-32352342D01*
X44785071Y-32462819D01*
X45337452Y-32573295D01*
X44287928Y-32186628D02*
X44287928Y-33346628D01*
X44287928Y-32241866D02*
X44177452Y-32186628D01*
X43956500Y-32186628D01*
X43846023Y-32241866D01*
X43790785Y-32297104D01*
X43735547Y-32407580D01*
X43735547Y-32739009D01*
X43790785Y-32849485D01*
X43846023Y-32904723D01*
X43956500Y-32959961D01*
X44177452Y-32959961D01*
X44287928Y-32904723D01*
X43072690Y-32959961D02*
X43183166Y-32904723D01*
X43238404Y-32849485D01*
X43293642Y-32739009D01*
X43293642Y-32407580D01*
X43238404Y-32297104D01*
X43183166Y-32241866D01*
X43072690Y-32186628D01*
X42906976Y-32186628D01*
X42796500Y-32241866D01*
X42741261Y-32297104D01*
X42686023Y-32407580D01*
X42686023Y-32739009D01*
X42741261Y-32849485D01*
X42796500Y-32904723D01*
X42906976Y-32959961D01*
X43072690Y-32959961D01*
X42188880Y-32849485D02*
X42133642Y-32904723D01*
X42188880Y-32959961D01*
X42244119Y-32904723D01*
X42188880Y-32849485D01*
X42188880Y-32959961D01*
X42188880Y-32241866D02*
X42133642Y-32297104D01*
X42188880Y-32352342D01*
X42244119Y-32297104D01*
X42188880Y-32241866D01*
X42188880Y-32352342D01*
X40255547Y-32186628D02*
X40255547Y-33125676D01*
X40310785Y-33236152D01*
X40366023Y-33291390D01*
X40476500Y-33346628D01*
X40642214Y-33346628D01*
X40752690Y-33291390D01*
X40255547Y-32904723D02*
X40366023Y-32959961D01*
X40586976Y-32959961D01*
X40697452Y-32904723D01*
X40752690Y-32849485D01*
X40807928Y-32739009D01*
X40807928Y-32407580D01*
X40752690Y-32297104D01*
X40697452Y-32241866D01*
X40586976Y-32186628D01*
X40366023Y-32186628D01*
X40255547Y-32241866D01*
X39703166Y-32959961D02*
X39703166Y-32186628D01*
X39703166Y-31799961D02*
X39758404Y-31855200D01*
X39703166Y-31910438D01*
X39647928Y-31855200D01*
X39703166Y-31799961D01*
X39703166Y-31910438D01*
X39316500Y-32186628D02*
X38874595Y-32186628D01*
X39150785Y-31799961D02*
X39150785Y-32794247D01*
X39095547Y-32904723D01*
X38985071Y-32959961D01*
X38874595Y-32959961D01*
X38487928Y-32959961D02*
X38487928Y-31799961D01*
X37990785Y-32959961D02*
X37990785Y-32352342D01*
X38046023Y-32241866D01*
X38156500Y-32186628D01*
X38322214Y-32186628D01*
X38432690Y-32241866D01*
X38487928Y-32297104D01*
X36941261Y-32186628D02*
X36941261Y-32959961D01*
X37438404Y-32186628D02*
X37438404Y-32794247D01*
X37383166Y-32904723D01*
X37272690Y-32959961D01*
X37106976Y-32959961D01*
X36996500Y-32904723D01*
X36941261Y-32849485D01*
X36388880Y-32959961D02*
X36388880Y-31799961D01*
X36388880Y-32241866D02*
X36278404Y-32186628D01*
X36057452Y-32186628D01*
X35946976Y-32241866D01*
X35891738Y-32297104D01*
X35836500Y-32407580D01*
X35836500Y-32739009D01*
X35891738Y-32849485D01*
X35946976Y-32904723D01*
X36057452Y-32959961D01*
X36278404Y-32959961D01*
X36388880Y-32904723D01*
X35339357Y-32849485D02*
X35284119Y-32904723D01*
X35339357Y-32959961D01*
X35394595Y-32904723D01*
X35339357Y-32849485D01*
X35339357Y-32959961D01*
X34289833Y-32904723D02*
X34400309Y-32959961D01*
X34621261Y-32959961D01*
X34731738Y-32904723D01*
X34786976Y-32849485D01*
X34842214Y-32739009D01*
X34842214Y-32407580D01*
X34786976Y-32297104D01*
X34731738Y-32241866D01*
X34621261Y-32186628D01*
X34400309Y-32186628D01*
X34289833Y-32241866D01*
X33626976Y-32959961D02*
X33737452Y-32904723D01*
X33792690Y-32849485D01*
X33847928Y-32739009D01*
X33847928Y-32407580D01*
X33792690Y-32297104D01*
X33737452Y-32241866D01*
X33626976Y-32186628D01*
X33461261Y-32186628D01*
X33350785Y-32241866D01*
X33295547Y-32297104D01*
X33240309Y-32407580D01*
X33240309Y-32739009D01*
X33295547Y-32849485D01*
X33350785Y-32904723D01*
X33461261Y-32959961D01*
X33626976Y-32959961D01*
X32743166Y-32959961D02*
X32743166Y-32186628D01*
X32743166Y-32297104D02*
X32687928Y-32241866D01*
X32577452Y-32186628D01*
X32411738Y-32186628D01*
X32301261Y-32241866D01*
X32246023Y-32352342D01*
X32246023Y-32959961D01*
X32246023Y-32352342D02*
X32190785Y-32241866D01*
X32080309Y-32186628D01*
X31914595Y-32186628D01*
X31804119Y-32241866D01*
X31748880Y-32352342D01*
X31748880Y-32959961D01*
X30367928Y-31744723D02*
X31362214Y-33236152D01*
X46000309Y-34054228D02*
X46000309Y-35048514D01*
X46055547Y-35158990D01*
X46166023Y-35214228D01*
X46221261Y-35214228D01*
X46000309Y-33667561D02*
X46055547Y-33722800D01*
X46000309Y-33778038D01*
X45945071Y-33722800D01*
X46000309Y-33667561D01*
X46000309Y-33778038D01*
X45282214Y-34827561D02*
X45392690Y-34772323D01*
X45447928Y-34661847D01*
X45447928Y-33667561D01*
X44950785Y-34054228D02*
X44674595Y-34827561D01*
X44398404Y-34054228D02*
X44674595Y-34827561D01*
X44785071Y-35103752D01*
X44840309Y-35158990D01*
X44950785Y-35214228D01*
X44066976Y-34054228D02*
X43846023Y-34827561D01*
X43625071Y-34275180D01*
X43404119Y-34827561D01*
X43183166Y-34054228D01*
X42851738Y-34827561D02*
X42244119Y-34054228D01*
X42851738Y-34054228D02*
X42244119Y-34827561D01*
X41912690Y-34054228D02*
X41636500Y-34827561D01*
X41360309Y-34054228D02*
X41636500Y-34827561D01*
X41746976Y-35103752D01*
X41802214Y-35158990D01*
X41912690Y-35214228D01*
X40089833Y-33612323D02*
X41084119Y-35103752D01*
X39758404Y-34772323D02*
X39647928Y-34827561D01*
X39426976Y-34827561D01*
X39316500Y-34772323D01*
X39261261Y-34661847D01*
X39261261Y-34606609D01*
X39316500Y-34496133D01*
X39426976Y-34440895D01*
X39592690Y-34440895D01*
X39703166Y-34385657D01*
X39758404Y-34275180D01*
X39758404Y-34219942D01*
X39703166Y-34109466D01*
X39592690Y-34054228D01*
X39426976Y-34054228D01*
X39316500Y-34109466D01*
X38598404Y-34827561D02*
X38708880Y-34772323D01*
X38764119Y-34661847D01*
X38764119Y-33667561D01*
X38156500Y-34827561D02*
X38156500Y-34054228D01*
X38156500Y-33667561D02*
X38211738Y-33722800D01*
X38156500Y-33778038D01*
X38101261Y-33722800D01*
X38156500Y-33667561D01*
X38156500Y-33778038D01*
X37604119Y-34827561D02*
X37604119Y-34054228D01*
X37604119Y-34164704D02*
X37548880Y-34109466D01*
X37438404Y-34054228D01*
X37272690Y-34054228D01*
X37162214Y-34109466D01*
X37106976Y-34219942D01*
X37106976Y-34827561D01*
X37106976Y-34219942D02*
X37051738Y-34109466D01*
X36941261Y-34054228D01*
X36775547Y-34054228D01*
X36665071Y-34109466D01*
X36609833Y-34219942D01*
X36609833Y-34827561D01*
X35560309Y-34827561D02*
X35560309Y-34219942D01*
X35615547Y-34109466D01*
X35726023Y-34054228D01*
X35946976Y-34054228D01*
X36057452Y-34109466D01*
X35560309Y-34772323D02*
X35670785Y-34827561D01*
X35946976Y-34827561D01*
X36057452Y-34772323D01*
X36112690Y-34661847D01*
X36112690Y-34551371D01*
X36057452Y-34440895D01*
X35946976Y-34385657D01*
X35670785Y-34385657D01*
X35560309Y-34330419D01*
X35007928Y-34827561D02*
X35007928Y-34054228D01*
X35007928Y-34275180D02*
X34952690Y-34164704D01*
X34897452Y-34109466D01*
X34786976Y-34054228D01*
X34676500Y-34054228D01*
X34289833Y-34827561D02*
X34289833Y-34054228D01*
X34289833Y-34164704D02*
X34234595Y-34109466D01*
X34124119Y-34054228D01*
X33958404Y-34054228D01*
X33847928Y-34109466D01*
X33792690Y-34219942D01*
X33792690Y-34827561D01*
X33792690Y-34219942D02*
X33737452Y-34109466D01*
X33626976Y-34054228D01*
X33461261Y-34054228D01*
X33350785Y-34109466D01*
X33295547Y-34219942D01*
X33295547Y-34827561D01*
D12*
X55154404Y-20452380D02*
X55154404Y-19452380D01*
X54582976Y-20452380D01*
X54582976Y-19452380D01*
X54154404Y-20166666D02*
X53678214Y-20166666D01*
X54249642Y-20452380D02*
X53916309Y-19452380D01*
X53582976Y-20452380D01*
X53249642Y-20452380D02*
X53249642Y-19452380D01*
X52678214Y-20452380D01*
X52678214Y-19452380D01*
X52202023Y-20452380D02*
X52202023Y-19452380D01*
X51963928Y-19452380D01*
X51821071Y-19500000D01*
X51725833Y-19595238D01*
X51678214Y-19690476D01*
X51630595Y-19880952D01*
X51630595Y-20023809D01*
X51678214Y-20214285D01*
X51725833Y-20309523D01*
X51821071Y-20404761D01*
X51963928Y-20452380D01*
X52202023Y-20452380D01*
G04 #@! TO.C,J3*
X25559000Y-17652380D02*
X25559000Y-17890476D01*
X25797095Y-17795238D02*
X25559000Y-17890476D01*
X25320904Y-17795238D01*
X25701857Y-18080952D02*
X25559000Y-17890476D01*
X25416142Y-18080952D01*
G04 #@! TO.C,J2*
X14500000Y-34772880D02*
X14500000Y-35010976D01*
X14738095Y-34915738D02*
X14500000Y-35010976D01*
X14261904Y-34915738D01*
X14642857Y-35201452D02*
X14500000Y-35010976D01*
X14357142Y-35201452D01*
G04 #@! TO.C,U5*
X60131579Y-37539350D02*
X60369675Y-37539350D01*
X60274437Y-37301254D02*
X60369675Y-37539350D01*
X60274437Y-37777445D01*
X60560151Y-37396492D02*
X60369675Y-37539350D01*
X60560151Y-37682207D01*
X60131579Y-37539350D02*
X60369675Y-37539350D01*
X60274437Y-37301254D02*
X60369675Y-37539350D01*
X60274437Y-37777445D01*
X60560151Y-37396492D02*
X60369675Y-37539350D01*
X60560151Y-37682207D01*
D14*
G04 #@! TO.C,J3*
X24924000Y-17085640D02*
X24924000Y-19077000D01*
X24924000Y-19077000D02*
X24038340Y-19077000D01*
X24924000Y-13082600D02*
X24924000Y-14210360D01*
X14260000Y-14203880D02*
X14260000Y-13076120D01*
X14260000Y-19070520D02*
X14260000Y-17079160D01*
X15145660Y-19070520D02*
X14260000Y-19070520D01*
X14260000Y-13060000D02*
X24924000Y-13082600D01*
X25940000Y-18950000D02*
G75*
G03*
X25940000Y-18950000I-381000J0D01*
G01*
G04 #@! TO.C,J2*
X25090000Y-40816620D02*
X25090000Y-41944380D01*
X14426000Y-41937900D02*
X14426000Y-40810140D01*
X14426000Y-37934860D02*
X14426000Y-35943500D01*
X25090000Y-35949980D02*
X25090000Y-37941340D01*
X25090000Y-41960500D02*
X14426000Y-41937900D01*
X14426000Y-35943500D02*
X15311660Y-35943500D01*
X24204340Y-35949980D02*
X25090000Y-35949980D01*
X14172000Y-36070500D02*
G75*
G03*
X14172000Y-36070500I-381000J0D01*
G01*
G04 #@! TO.C,U5*
X47410799Y-36418201D02*
X47410799Y-18480196D01*
X59653599Y-18480199D02*
X59653599Y-36418204D01*
G36*
X54972699Y-38434700D02*
G01*
X54591699Y-38434700D01*
X54591699Y-38180700D01*
X54972699Y-38180700D01*
X54972699Y-38434700D01*
G37*
D10*
X54972699Y-38434700D02*
X54591699Y-38434700D01*
X54591699Y-38180700D01*
X54972699Y-38180700D01*
X54972699Y-38434700D01*
G36*
X55472701Y-16717700D02*
G01*
X55091701Y-16717700D01*
X55091701Y-16463700D01*
X55472701Y-16463700D01*
X55472701Y-16717700D01*
G37*
X55472701Y-16717700D02*
X55091701Y-16717700D01*
X55091701Y-16463700D01*
X55472701Y-16463700D01*
X55472701Y-16717700D01*
G36*
X50472698Y-16717700D02*
G01*
X50091698Y-16717700D01*
X50091698Y-16463700D01*
X50472698Y-16463700D01*
X50472698Y-16717700D01*
G37*
X50472698Y-16717700D02*
X50091698Y-16717700D01*
X50091698Y-16463700D01*
X50472698Y-16463700D01*
X50472698Y-16717700D01*
G36*
X49972699Y-38434700D02*
G01*
X49591699Y-38434700D01*
X49591699Y-38180700D01*
X49972699Y-38180700D01*
X49972699Y-38434700D01*
G37*
X49972699Y-38434700D02*
X49591699Y-38434700D01*
X49591699Y-38180700D01*
X49972699Y-38180700D01*
X49972699Y-38434700D01*
G04 #@! TO.C,G\u002A\u002A\u002A*
G36*
X42761911Y-18344458D02*
G01*
X42792562Y-18351422D01*
X42823396Y-18364320D01*
X42843731Y-18375375D01*
X42894784Y-18418642D01*
X42927858Y-18474579D01*
X42942211Y-18541531D01*
X42937099Y-18617843D01*
X42928850Y-18646734D01*
X42908218Y-18681443D01*
X42874639Y-18711913D01*
X42825730Y-18739730D01*
X42759108Y-18766475D01*
X42672388Y-18793733D01*
X42615997Y-18813282D01*
X42570216Y-18839164D01*
X42543921Y-18869766D01*
X42535511Y-18906406D01*
X42535551Y-18910010D01*
X42545906Y-18957442D01*
X42574364Y-18991555D01*
X42620659Y-19012149D01*
X42684528Y-19019024D01*
X42714098Y-19016925D01*
X42768672Y-19000809D01*
X42812262Y-18971307D01*
X42841145Y-18931423D01*
X42851600Y-18884160D01*
X42851882Y-18878276D01*
X42857392Y-18867163D01*
X42874250Y-18862175D01*
X42908044Y-18861022D01*
X42933675Y-18861353D01*
X42954659Y-18864502D01*
X42962975Y-18873675D01*
X42964426Y-18892066D01*
X42960824Y-18934019D01*
X42938825Y-18999910D01*
X42898685Y-19054932D01*
X42842553Y-19096511D01*
X42772577Y-19122071D01*
X42765081Y-19123526D01*
X42713763Y-19127496D01*
X42654126Y-19124953D01*
X42596351Y-19116739D01*
X42550618Y-19103698D01*
X42498335Y-19075035D01*
X42453749Y-19030171D01*
X42427333Y-18972394D01*
X42418323Y-18900533D01*
X42422184Y-18846729D01*
X42437362Y-18798613D01*
X42466156Y-18758797D01*
X42510805Y-18725086D01*
X42573548Y-18695291D01*
X42656625Y-18667217D01*
X42667127Y-18664075D01*
X42728229Y-18644473D01*
X42771144Y-18627347D01*
X42799276Y-18610757D01*
X42816033Y-18592764D01*
X42824820Y-18571427D01*
X42825075Y-18570393D01*
X42826182Y-18528392D01*
X42810155Y-18494362D01*
X42781124Y-18468928D01*
X42743215Y-18452718D01*
X42700558Y-18446359D01*
X42657281Y-18450478D01*
X42617513Y-18465701D01*
X42585381Y-18492657D01*
X42565015Y-18531971D01*
X42560575Y-18545941D01*
X42551129Y-18560509D01*
X42533304Y-18566406D01*
X42500011Y-18567511D01*
X42477604Y-18567250D01*
X42455680Y-18564292D01*
X42446840Y-18555362D01*
X42445200Y-18537208D01*
X42448398Y-18511310D01*
X42467072Y-18462777D01*
X42498407Y-18416263D01*
X42537750Y-18379682D01*
X42539941Y-18378171D01*
X42566723Y-18361974D01*
X42593722Y-18352064D01*
X42628389Y-18346517D01*
X42678176Y-18343409D01*
X42723548Y-18342292D01*
X42761911Y-18344458D01*
G37*
G36*
X43576695Y-14664377D02*
G01*
X43579733Y-14915555D01*
X43610777Y-14919127D01*
X43618099Y-14920102D01*
X43633890Y-14925940D01*
X43640492Y-14940993D01*
X43641822Y-14971922D01*
X43641070Y-14993264D01*
X43635264Y-15016651D01*
X43622066Y-15026307D01*
X43601521Y-15030116D01*
X43550112Y-15027038D01*
X43504706Y-15007606D01*
X43471944Y-14974129D01*
X43467833Y-14966954D01*
X43461735Y-14952858D01*
X43457198Y-14934746D01*
X43453994Y-14909524D01*
X43451896Y-14874098D01*
X43450675Y-14825375D01*
X43450103Y-14760263D01*
X43449953Y-14675666D01*
X43449911Y-14413200D01*
X43573657Y-14413200D01*
X43576695Y-14664377D01*
G37*
G36*
X45469561Y-18345913D02*
G01*
X45480018Y-18364170D01*
X45494493Y-18395026D01*
X45514044Y-18440584D01*
X45539728Y-18502950D01*
X45572605Y-18584228D01*
X45597440Y-18645511D01*
X45624570Y-18711521D01*
X45648085Y-18767720D01*
X45666803Y-18811316D01*
X45679540Y-18839518D01*
X45685111Y-18849535D01*
X45687639Y-18845673D01*
X45697673Y-18824168D01*
X45713973Y-18786344D01*
X45735314Y-18735115D01*
X45760475Y-18673392D01*
X45788231Y-18604088D01*
X45885707Y-18358666D01*
X45949098Y-18355281D01*
X45975928Y-18354432D01*
X46002290Y-18355269D01*
X46012489Y-18358076D01*
X46011707Y-18360608D01*
X46004162Y-18380136D01*
X45989564Y-18416426D01*
X45969094Y-18466634D01*
X45943933Y-18527917D01*
X45915261Y-18597432D01*
X45884261Y-18672337D01*
X45852112Y-18749789D01*
X45819995Y-18826944D01*
X45789093Y-18900961D01*
X45760585Y-18968995D01*
X45735653Y-19028205D01*
X45715477Y-19075747D01*
X45701240Y-19108778D01*
X45694120Y-19124455D01*
X45686945Y-19136101D01*
X45679850Y-19141389D01*
X45676113Y-19132979D01*
X45665124Y-19106024D01*
X45648064Y-19063307D01*
X45626062Y-19007671D01*
X45600245Y-18941958D01*
X45571742Y-18869009D01*
X45546400Y-18804832D01*
X45519874Y-18739595D01*
X45496738Y-18684752D01*
X45478151Y-18642982D01*
X45465274Y-18616960D01*
X45459266Y-18609364D01*
X45455909Y-18615870D01*
X45444989Y-18641147D01*
X45428027Y-18682440D01*
X45406239Y-18736739D01*
X45380842Y-18801033D01*
X45353052Y-18872311D01*
X45333873Y-18921577D01*
X45307574Y-18988326D01*
X45284484Y-19045992D01*
X45265821Y-19091574D01*
X45252801Y-19122073D01*
X45246643Y-19134489D01*
X45242668Y-19128831D01*
X45230933Y-19105155D01*
X45212726Y-19065648D01*
X45189222Y-19013069D01*
X45161597Y-18950180D01*
X45131027Y-18879741D01*
X45098688Y-18804512D01*
X45065755Y-18727253D01*
X45033405Y-18650725D01*
X45002814Y-18577689D01*
X44975156Y-18510904D01*
X44951608Y-18453131D01*
X44933345Y-18407130D01*
X44921544Y-18375663D01*
X44917381Y-18361489D01*
X44922591Y-18358085D01*
X44944784Y-18354438D01*
X44978471Y-18353022D01*
X45039475Y-18353022D01*
X45138663Y-18601487D01*
X45157628Y-18648464D01*
X45184252Y-18712532D01*
X45207651Y-18766624D01*
X45226585Y-18807973D01*
X45239814Y-18833813D01*
X45246101Y-18841376D01*
X45247915Y-18838379D01*
X45257481Y-18817767D01*
X45273443Y-18780643D01*
X45294481Y-18730156D01*
X45319276Y-18669454D01*
X45346511Y-18601683D01*
X45357288Y-18574713D01*
X45384347Y-18507475D01*
X45408791Y-18447400D01*
X45429197Y-18397946D01*
X45444144Y-18362570D01*
X45452208Y-18344731D01*
X45456470Y-18338776D01*
X45462064Y-18338150D01*
X45469561Y-18345913D01*
G37*
G36*
X41535383Y-18836926D02*
G01*
X41520183Y-18893926D01*
X41497862Y-18942864D01*
X41464500Y-18993449D01*
X41428704Y-19034087D01*
X41361749Y-19084170D01*
X41284666Y-19116857D01*
X41241600Y-19124988D01*
X41172173Y-19126738D01*
X41102573Y-19117655D01*
X41043183Y-19098525D01*
X41043149Y-19098509D01*
X40972234Y-19056306D01*
X40917428Y-19002232D01*
X40873731Y-18931354D01*
X40867383Y-18918341D01*
X40852986Y-18886288D01*
X40843936Y-18858200D01*
X40839001Y-18827442D01*
X40836944Y-18787379D01*
X40836730Y-18758197D01*
X40946328Y-18758197D01*
X40958512Y-18832286D01*
X40987442Y-18900802D01*
X41032367Y-18953548D01*
X41093147Y-18990305D01*
X41120589Y-18999679D01*
X41188667Y-19007701D01*
X41256516Y-18996854D01*
X41318538Y-18968482D01*
X41369135Y-18923934D01*
X41378130Y-18912457D01*
X41407676Y-18860545D01*
X41424088Y-18799722D01*
X41429089Y-18724245D01*
X41428134Y-18698705D01*
X41413394Y-18623421D01*
X41382835Y-18559919D01*
X41339030Y-18509998D01*
X41284551Y-18475457D01*
X41221970Y-18458094D01*
X41153860Y-18459708D01*
X41082793Y-18482098D01*
X41058425Y-18495212D01*
X41005769Y-18540397D01*
X40968990Y-18600391D01*
X40948904Y-18673541D01*
X40946328Y-18758197D01*
X40836730Y-18758197D01*
X40836533Y-18731378D01*
X40836533Y-18729659D01*
X40837085Y-18673143D01*
X40839401Y-18632683D01*
X40844527Y-18601933D01*
X40853512Y-18574544D01*
X40867401Y-18544169D01*
X40901227Y-18487231D01*
X40962396Y-18420125D01*
X41038043Y-18370099D01*
X41049659Y-18364745D01*
X41116878Y-18345701D01*
X41192318Y-18339999D01*
X41267614Y-18347678D01*
X41334398Y-18368773D01*
X41392778Y-18403461D01*
X41454772Y-18462119D01*
X41502077Y-18534423D01*
X41533251Y-18617351D01*
X41546852Y-18707881D01*
X41545921Y-18724245D01*
X41541440Y-18802990D01*
X41535383Y-18836926D01*
G37*
G36*
X40366593Y-14509814D02*
G01*
X40378503Y-14516548D01*
X40396968Y-14530304D01*
X40424013Y-14552719D01*
X40461664Y-14585431D01*
X40511947Y-14630080D01*
X40576889Y-14688301D01*
X40611197Y-14719218D01*
X40660164Y-14763925D01*
X40695144Y-14797029D01*
X40718086Y-14820593D01*
X40730940Y-14836680D01*
X40735657Y-14847352D01*
X40734187Y-14854673D01*
X40732708Y-14856672D01*
X40726408Y-14859481D01*
X40715757Y-14856264D01*
X40698722Y-14845464D01*
X40673272Y-14825524D01*
X40637374Y-14794889D01*
X40588997Y-14752002D01*
X40526108Y-14695308D01*
X40508160Y-14679043D01*
X40450866Y-14626746D01*
X40408316Y-14586974D01*
X40378773Y-14557831D01*
X40360501Y-14537423D01*
X40351762Y-14523854D01*
X40350821Y-14515231D01*
X40355940Y-14509659D01*
X40359211Y-14508463D01*
X40366593Y-14509814D01*
G37*
G36*
X40571244Y-19538355D02*
G01*
X40571244Y-18995736D01*
X40531433Y-19035547D01*
X40515482Y-19050781D01*
X40456575Y-19093636D01*
X40392648Y-19117579D01*
X40317244Y-19125315D01*
X40289253Y-19124872D01*
X40233781Y-19118151D01*
X40186413Y-19102103D01*
X40125500Y-19065030D01*
X40067405Y-19006742D01*
X40022990Y-18934338D01*
X39993598Y-18850759D01*
X39980573Y-18758947D01*
X39982247Y-18724245D01*
X40097221Y-18724245D01*
X40098346Y-18758075D01*
X40102979Y-18804073D01*
X40109996Y-18839321D01*
X40111269Y-18843381D01*
X40139251Y-18898962D01*
X40182193Y-18949064D01*
X40233220Y-18985527D01*
X40276312Y-19001285D01*
X40340561Y-19007043D01*
X40404685Y-18995342D01*
X40462694Y-18967504D01*
X40508595Y-18924848D01*
X40540282Y-18872283D01*
X40562822Y-18804088D01*
X40570012Y-18732988D01*
X40562717Y-18662827D01*
X40541802Y-18597449D01*
X40508130Y-18540700D01*
X40462566Y-18496423D01*
X40405975Y-18468462D01*
X40354297Y-18458002D01*
X40285127Y-18460707D01*
X40223520Y-18482537D01*
X40171700Y-18521650D01*
X40131893Y-18576201D01*
X40106325Y-18644348D01*
X40097221Y-18724245D01*
X39982247Y-18724245D01*
X39985258Y-18661841D01*
X40005126Y-18575588D01*
X40041604Y-18495112D01*
X40092187Y-18430162D01*
X40155498Y-18382074D01*
X40230156Y-18352188D01*
X40314785Y-18341843D01*
X40362104Y-18343766D01*
X40418696Y-18355261D01*
X40468415Y-18380017D01*
X40519762Y-18421332D01*
X40571244Y-18468786D01*
X40571244Y-18353022D01*
X40684133Y-18353022D01*
X40684133Y-19538355D01*
X40571244Y-19538355D01*
G37*
G36*
X45583511Y-16309733D02*
G01*
X45496132Y-16309733D01*
X45490969Y-16126289D01*
X45489811Y-16088403D01*
X45487113Y-16024950D01*
X45483580Y-15977808D01*
X45478707Y-15942756D01*
X45471989Y-15915575D01*
X45462919Y-15892044D01*
X45444917Y-15856870D01*
X45416384Y-15821683D01*
X45380007Y-15801770D01*
X45330038Y-15792841D01*
X45308739Y-15791352D01*
X45279664Y-15792254D01*
X45260018Y-15800177D01*
X45241281Y-15817487D01*
X45237654Y-15821489D01*
X45224805Y-15838338D01*
X45215202Y-15857987D01*
X45208383Y-15883734D01*
X45203885Y-15918872D01*
X45201245Y-15966696D01*
X45200001Y-16030504D01*
X45199689Y-16113589D01*
X45199689Y-16309733D01*
X45109377Y-16309733D01*
X45109377Y-16097293D01*
X45109651Y-16037284D01*
X45111228Y-15961431D01*
X45114366Y-15903327D01*
X45119245Y-15860061D01*
X45126045Y-15828726D01*
X45145562Y-15782860D01*
X45183955Y-15735056D01*
X45232935Y-15703103D01*
X45288546Y-15687920D01*
X45346831Y-15690427D01*
X45403835Y-15711542D01*
X45455600Y-15752184D01*
X45493200Y-15792052D01*
X45493200Y-15282444D01*
X45583511Y-15282444D01*
X45583511Y-16309733D01*
G37*
G36*
X45877022Y-15700133D02*
G01*
X46012489Y-15700133D01*
X46012489Y-15790444D01*
X45877022Y-15790444D01*
X45877022Y-16309733D01*
X45786711Y-16309733D01*
X45786711Y-15790444D01*
X45651244Y-15790444D01*
X45651244Y-15700133D01*
X45786711Y-15700133D01*
X45786711Y-15463066D01*
X45877022Y-15463066D01*
X45877022Y-15700133D01*
G37*
G36*
X43551511Y-19109377D02*
G01*
X43439195Y-19109377D01*
X43432977Y-18757709D01*
X43293314Y-18928781D01*
X43288569Y-18934586D01*
X43245044Y-18987202D01*
X43205965Y-19033358D01*
X43173757Y-19070270D01*
X43150843Y-19095154D01*
X43139650Y-19105225D01*
X43128554Y-19107096D01*
X43099271Y-19108161D01*
X43061607Y-19107165D01*
X42997564Y-19103733D01*
X43150994Y-18923111D01*
X43164651Y-18907007D01*
X43209596Y-18853632D01*
X43248915Y-18806368D01*
X43280343Y-18767974D01*
X43301615Y-18741209D01*
X43310466Y-18728834D01*
X43310530Y-18727462D01*
X43302412Y-18711663D01*
X43282082Y-18682193D01*
X43251630Y-18641843D01*
X43213146Y-18593403D01*
X43168721Y-18539663D01*
X43158199Y-18527153D01*
X43114577Y-18474971D01*
X43076867Y-18429361D01*
X43047241Y-18392986D01*
X43027872Y-18368506D01*
X43020933Y-18358584D01*
X43029732Y-18355916D01*
X43055498Y-18353824D01*
X43092290Y-18353022D01*
X43163647Y-18353022D01*
X43432977Y-18683804D01*
X43435934Y-18253124D01*
X43438890Y-17822444D01*
X43551511Y-17822444D01*
X43551511Y-19109377D01*
G37*
G36*
X40023374Y-17234485D02*
G01*
X40023733Y-17291686D01*
X40023730Y-17298223D01*
X40023110Y-17355003D01*
X40020761Y-17395963D01*
X40015732Y-17427255D01*
X40007075Y-17455032D01*
X39993841Y-17485448D01*
X39952582Y-17554411D01*
X39889151Y-17620973D01*
X39810708Y-17671596D01*
X39718933Y-17704938D01*
X39632841Y-17718630D01*
X39537862Y-17716306D01*
X39448296Y-17696194D01*
X39367342Y-17659403D01*
X39298199Y-17607042D01*
X39244065Y-17540222D01*
X39226567Y-17509402D01*
X39208332Y-17470851D01*
X39198424Y-17441444D01*
X39191177Y-17404755D01*
X39319589Y-17404827D01*
X39448000Y-17404898D01*
X39466674Y-17437725D01*
X39482953Y-17461023D01*
X39523542Y-17494089D01*
X39571420Y-17510417D01*
X39621808Y-17510389D01*
X39669925Y-17494383D01*
X39710991Y-17462780D01*
X39740227Y-17415961D01*
X39744711Y-17404413D01*
X39754529Y-17375988D01*
X39758444Y-17359371D01*
X39757021Y-17358025D01*
X39738244Y-17354665D01*
X39698725Y-17351963D01*
X39639812Y-17349968D01*
X39562853Y-17348734D01*
X39469197Y-17348311D01*
X39179949Y-17348311D01*
X39184740Y-17248101D01*
X39188165Y-17197963D01*
X39189364Y-17190266D01*
X39452123Y-17190266D01*
X39757885Y-17190266D01*
X39746866Y-17161284D01*
X39730922Y-17125988D01*
X39699304Y-17084799D01*
X39657983Y-17061911D01*
X39603783Y-17054966D01*
X39578442Y-17056900D01*
X39525639Y-17075461D01*
X39485121Y-17112103D01*
X39459458Y-17164866D01*
X39452123Y-17190266D01*
X39189364Y-17190266D01*
X39194887Y-17154794D01*
X39206794Y-17116462D01*
X39226106Y-17073597D01*
X39235841Y-17055125D01*
X39288341Y-16983374D01*
X39354961Y-16926699D01*
X39432766Y-16885990D01*
X39518822Y-16862135D01*
X39610197Y-16856023D01*
X39703955Y-16868543D01*
X39797163Y-16900585D01*
X39871150Y-16944236D01*
X39936332Y-17007025D01*
X39986935Y-17086878D01*
X39995883Y-17105317D01*
X40008931Y-17135275D01*
X40017106Y-17162585D01*
X40021072Y-17190266D01*
X40021543Y-17193553D01*
X40023374Y-17234485D01*
G37*
G36*
X41745289Y-17088093D02*
G01*
X41569460Y-17091202D01*
X41393632Y-17094311D01*
X41561316Y-17353955D01*
X41605583Y-17422570D01*
X41648527Y-17489274D01*
X41686852Y-17548942D01*
X41718646Y-17598595D01*
X41741999Y-17635252D01*
X41754998Y-17655933D01*
X41780997Y-17698266D01*
X40988933Y-17698266D01*
X40988933Y-17472489D01*
X41348746Y-17472489D01*
X41174484Y-17179575D01*
X41157843Y-17151575D01*
X41115571Y-17080182D01*
X41077816Y-17016032D01*
X41045989Y-16961555D01*
X41021505Y-16919175D01*
X41005778Y-16891321D01*
X41000222Y-16880420D01*
X41005225Y-16879400D01*
X41029820Y-16877988D01*
X41072587Y-16876734D01*
X41130895Y-16875682D01*
X41202113Y-16874875D01*
X41283610Y-16874359D01*
X41372755Y-16874177D01*
X41745289Y-16874177D01*
X41745289Y-17088093D01*
G37*
G36*
X45013716Y-16062337D02*
G01*
X44992958Y-16143860D01*
X44954750Y-16212366D01*
X44900081Y-16266420D01*
X44829938Y-16304588D01*
X44828724Y-16305048D01*
X44771594Y-16317154D01*
X44705773Y-16316927D01*
X44640665Y-16305205D01*
X44585671Y-16282827D01*
X44549894Y-16258076D01*
X44499923Y-16206896D01*
X44466965Y-16148816D01*
X44455181Y-16117822D01*
X44510585Y-16117822D01*
X44513244Y-16117827D01*
X44546875Y-16119713D01*
X44564781Y-16126608D01*
X44573293Y-16140834D01*
X44576589Y-16147660D01*
X44595632Y-16169942D01*
X44623549Y-16192270D01*
X44631893Y-16197454D01*
X44687693Y-16218437D01*
X44747041Y-16221370D01*
X44804487Y-16207443D01*
X44854583Y-16177842D01*
X44891881Y-16133757D01*
X44900833Y-16118118D01*
X44913076Y-16095025D01*
X44918349Y-16077851D01*
X44914423Y-16065721D01*
X44899068Y-16057759D01*
X44870054Y-16053090D01*
X44825153Y-16050839D01*
X44762134Y-16050130D01*
X44678767Y-16050089D01*
X44440068Y-16050089D01*
X44446696Y-15979533D01*
X44448028Y-15966711D01*
X44452039Y-15946408D01*
X44544933Y-15946408D01*
X44549833Y-15950977D01*
X44569358Y-15955031D01*
X44605607Y-15957759D01*
X44660524Y-15959295D01*
X44736056Y-15959777D01*
X44927179Y-15959777D01*
X44916706Y-15923089D01*
X44894124Y-15872253D01*
X44856090Y-15828799D01*
X44808424Y-15799677D01*
X44755203Y-15785335D01*
X44700504Y-15786222D01*
X44648405Y-15802787D01*
X44602981Y-15835478D01*
X44568312Y-15884745D01*
X44561287Y-15899876D01*
X44549565Y-15928876D01*
X44544933Y-15946408D01*
X44452039Y-15946408D01*
X44462411Y-15893904D01*
X44489043Y-15833235D01*
X44531079Y-15777139D01*
X44575326Y-15737393D01*
X44641404Y-15702624D01*
X44713658Y-15687783D01*
X44788553Y-15693474D01*
X44862555Y-15720303D01*
X44898105Y-15742117D01*
X44953457Y-15795303D01*
X44992103Y-15862608D01*
X45013349Y-15942617D01*
X45013941Y-15959777D01*
X45016501Y-16033913D01*
X45013716Y-16062337D01*
G37*
G36*
X43122216Y-16859852D02*
G01*
X43174605Y-16869402D01*
X43223597Y-16890721D01*
X43277755Y-16926885D01*
X43314444Y-16954349D01*
X43314444Y-16874177D01*
X43574089Y-16874177D01*
X43574089Y-17698266D01*
X43314444Y-17698266D01*
X43314444Y-17455193D01*
X43314174Y-17376477D01*
X43312859Y-17303012D01*
X43309946Y-17246520D01*
X43304886Y-17203986D01*
X43297130Y-17172396D01*
X43286129Y-17148734D01*
X43271336Y-17129987D01*
X43252201Y-17113139D01*
X43224797Y-17097254D01*
X43179490Y-17087768D01*
X43135077Y-17094685D01*
X43099101Y-17117776D01*
X43094515Y-17122727D01*
X43087016Y-17132266D01*
X43081313Y-17143951D01*
X43077114Y-17160701D01*
X43074123Y-17185435D01*
X43072045Y-17221071D01*
X43070587Y-17270527D01*
X43069453Y-17336723D01*
X43068350Y-17422576D01*
X43064967Y-17698266D01*
X42806444Y-17698266D01*
X42806444Y-17418416D01*
X42806759Y-17327664D01*
X42807901Y-17248384D01*
X42810016Y-17186036D01*
X42813250Y-17137690D01*
X42817749Y-17100416D01*
X42823658Y-17071283D01*
X42846725Y-17005207D01*
X42887160Y-16941105D01*
X42940918Y-16895150D01*
X43007747Y-16867546D01*
X43087397Y-16858494D01*
X43122216Y-16859852D01*
G37*
G36*
X41481112Y-14545820D02*
G01*
X41522513Y-14678441D01*
X41563160Y-14545820D01*
X41603807Y-14413200D01*
X41739459Y-14413362D01*
X41875111Y-14413525D01*
X41907240Y-14471756D01*
X41939370Y-14529987D01*
X41973083Y-14471593D01*
X42006797Y-14413200D01*
X42153244Y-14413200D01*
X42090377Y-14502407D01*
X42074388Y-14525565D01*
X42050280Y-14562593D01*
X42033687Y-14590937D01*
X42027511Y-14605825D01*
X42028664Y-14610138D01*
X42039903Y-14630997D01*
X42060552Y-14662629D01*
X42087449Y-14700061D01*
X42101889Y-14719282D01*
X42131777Y-14759397D01*
X42148825Y-14785270D01*
X42153110Y-14799999D01*
X42144709Y-14806682D01*
X42123700Y-14808420D01*
X42090162Y-14808311D01*
X42016013Y-14808311D01*
X41981283Y-14751866D01*
X41965320Y-14727162D01*
X41948507Y-14704265D01*
X41939054Y-14695433D01*
X41932819Y-14700850D01*
X41918206Y-14721347D01*
X41899860Y-14751878D01*
X41868164Y-14808311D01*
X41795437Y-14808311D01*
X41759920Y-14807469D01*
X41733005Y-14805104D01*
X41722711Y-14801749D01*
X41725935Y-14795325D01*
X41739996Y-14773608D01*
X41762657Y-14740805D01*
X41791106Y-14701050D01*
X41859500Y-14606913D01*
X41799572Y-14515955D01*
X41783554Y-14491960D01*
X41759635Y-14457441D01*
X41741988Y-14433662D01*
X41733592Y-14424743D01*
X41728831Y-14433309D01*
X41717902Y-14460091D01*
X41702210Y-14501784D01*
X41683024Y-14555013D01*
X41661611Y-14616400D01*
X41641725Y-14673064D01*
X41621833Y-14727152D01*
X41605079Y-14769981D01*
X41592794Y-14798164D01*
X41586306Y-14808311D01*
X41585310Y-14813427D01*
X41589968Y-14835606D01*
X41600588Y-14871308D01*
X41615954Y-14916115D01*
X41627414Y-14948024D01*
X41641634Y-14988462D01*
X41651368Y-15017232D01*
X41654977Y-15029567D01*
X41648672Y-15031667D01*
X41625319Y-15032758D01*
X41590656Y-15031830D01*
X41526334Y-15028444D01*
X41421954Y-14729289D01*
X41418104Y-14718250D01*
X41391309Y-14641165D01*
X41367216Y-14571417D01*
X41346779Y-14511799D01*
X41330952Y-14465105D01*
X41320689Y-14434130D01*
X41316943Y-14421666D01*
X41322121Y-14418201D01*
X41344263Y-14414597D01*
X41378011Y-14413200D01*
X41439712Y-14413200D01*
X41481112Y-14545820D01*
G37*
G36*
X43537087Y-14195968D02*
G01*
X43562169Y-14220033D01*
X43575513Y-14253375D01*
X43574694Y-14289707D01*
X43557287Y-14322743D01*
X43528303Y-14341280D01*
X43492262Y-14343274D01*
X43459266Y-14326783D01*
X43454141Y-14321482D01*
X43440318Y-14291147D01*
X43440714Y-14255851D01*
X43453118Y-14222316D01*
X43475319Y-14197266D01*
X43505105Y-14187422D01*
X43537087Y-14195968D01*
G37*
G36*
X42304053Y-14478111D02*
G01*
X42311792Y-14505203D01*
X42324735Y-14550287D01*
X42335131Y-14586249D01*
X42347709Y-14629476D01*
X42386482Y-14521338D01*
X42425256Y-14413200D01*
X42510275Y-14413200D01*
X42548137Y-14520911D01*
X42557024Y-14545868D01*
X42571928Y-14584878D01*
X42582165Y-14605780D01*
X42589064Y-14610947D01*
X42593956Y-14602755D01*
X42594305Y-14601615D01*
X42601710Y-14576836D01*
X42612913Y-14538726D01*
X42625634Y-14495044D01*
X42649356Y-14413200D01*
X42895978Y-14413200D01*
X42937379Y-14545820D01*
X42978779Y-14678441D01*
X43019426Y-14545820D01*
X43060074Y-14413200D01*
X43188526Y-14413200D01*
X43120982Y-14607933D01*
X43100088Y-14666999D01*
X43079843Y-14721855D01*
X43062780Y-14765630D01*
X43050241Y-14794885D01*
X43043569Y-14806183D01*
X43042392Y-14812051D01*
X43046745Y-14835254D01*
X43057174Y-14871713D01*
X43072472Y-14916810D01*
X43083703Y-14948079D01*
X43097907Y-14988469D01*
X43107636Y-15017227D01*
X43111244Y-15029567D01*
X43104917Y-15031669D01*
X43081541Y-15032758D01*
X43046857Y-15031830D01*
X42982471Y-15028444D01*
X42880346Y-14733075D01*
X42877037Y-14723517D01*
X42850500Y-14647689D01*
X42826297Y-14579956D01*
X42805417Y-14522975D01*
X42788845Y-14479401D01*
X42777570Y-14451891D01*
X42772577Y-14443100D01*
X42769841Y-14449199D01*
X42761329Y-14473921D01*
X42748534Y-14514052D01*
X42732640Y-14565852D01*
X42714830Y-14625579D01*
X42662728Y-14802666D01*
X42541155Y-14802666D01*
X42507418Y-14703889D01*
X42499208Y-14680340D01*
X42484881Y-14641707D01*
X42473817Y-14615065D01*
X42467907Y-14605143D01*
X42465493Y-14608054D01*
X42456402Y-14627419D01*
X42443005Y-14660944D01*
X42427242Y-14703921D01*
X42392351Y-14802666D01*
X42273159Y-14802666D01*
X42218381Y-14622044D01*
X42205144Y-14578008D01*
X42188573Y-14521644D01*
X42175337Y-14475135D01*
X42166541Y-14442388D01*
X42163290Y-14427311D01*
X42165194Y-14422525D01*
X42184162Y-14415493D01*
X42224265Y-14413200D01*
X42285553Y-14413200D01*
X42304053Y-14478111D01*
G37*
G36*
X45163988Y-16816895D02*
G01*
X45185939Y-16893300D01*
X45209510Y-16974243D01*
X45230557Y-17045344D01*
X45248359Y-17104227D01*
X45262197Y-17148514D01*
X45271350Y-17175825D01*
X45275099Y-17183784D01*
X45277344Y-17176202D01*
X45285282Y-17148921D01*
X45298166Y-17104444D01*
X45315247Y-17045365D01*
X45335776Y-16974277D01*
X45359002Y-16893772D01*
X45384176Y-16806444D01*
X45489898Y-16439555D01*
X45734356Y-16439555D01*
X45867135Y-17049155D01*
X45882379Y-17119257D01*
X45906381Y-17230106D01*
X45928624Y-17333417D01*
X45948670Y-17427118D01*
X45966079Y-17509133D01*
X45980411Y-17577390D01*
X45991228Y-17629814D01*
X45998090Y-17664332D01*
X46000557Y-17678869D01*
X46000455Y-17682616D01*
X45996920Y-17689931D01*
X45985712Y-17694428D01*
X45963108Y-17696587D01*
X45925387Y-17696886D01*
X45868829Y-17695802D01*
X45736457Y-17692622D01*
X45695366Y-17478133D01*
X45685386Y-17425986D01*
X45668655Y-17338370D01*
X45651630Y-17249025D01*
X45635830Y-17165918D01*
X45622772Y-17097016D01*
X45616923Y-17066541D01*
X45606216Y-17013245D01*
X45597100Y-16971043D01*
X45590392Y-16943642D01*
X45586912Y-16934747D01*
X45584831Y-16940307D01*
X45577140Y-16965064D01*
X45564610Y-17007254D01*
X45547989Y-17064305D01*
X45528023Y-17133649D01*
X45505460Y-17212714D01*
X45481048Y-17298930D01*
X45465027Y-17355700D01*
X45441519Y-17438932D01*
X45420288Y-17514013D01*
X45402103Y-17578227D01*
X45387734Y-17628859D01*
X45377950Y-17663193D01*
X45373521Y-17678511D01*
X45372877Y-17680401D01*
X45365681Y-17689564D01*
X45349659Y-17694997D01*
X45320237Y-17697599D01*
X45272836Y-17698266D01*
X45178172Y-17698266D01*
X45167983Y-17661577D01*
X45164954Y-17650675D01*
X45133748Y-17539320D01*
X45103161Y-17431764D01*
X45073793Y-17330003D01*
X45046245Y-17236033D01*
X45021118Y-17151849D01*
X44999014Y-17079447D01*
X44980534Y-17020820D01*
X44966279Y-16977966D01*
X44956850Y-16952879D01*
X44952849Y-16947555D01*
X44951448Y-16954582D01*
X44945999Y-16982538D01*
X44937163Y-17028193D01*
X44925486Y-17088727D01*
X44911510Y-17161316D01*
X44895779Y-17243140D01*
X44878839Y-17331377D01*
X44809530Y-17692622D01*
X44677231Y-17695802D01*
X44652673Y-17696359D01*
X44603929Y-17696960D01*
X44572568Y-17695989D01*
X44554867Y-17692970D01*
X44547101Y-17687423D01*
X44545548Y-17678869D01*
X44546494Y-17672540D01*
X44551676Y-17645624D01*
X44560985Y-17599987D01*
X44573983Y-17537703D01*
X44590230Y-17460845D01*
X44609287Y-17371487D01*
X44630714Y-17271704D01*
X44654073Y-17163568D01*
X44678924Y-17049155D01*
X44811684Y-16439555D01*
X45056233Y-16439555D01*
X45163988Y-16816895D01*
G37*
G36*
X40342313Y-14650202D02*
G01*
X40365165Y-14666564D01*
X40398742Y-14695592D01*
X40445587Y-14739015D01*
X40468219Y-14761046D01*
X40498100Y-14793060D01*
X40516682Y-14817134D01*
X40521102Y-14829824D01*
X40519064Y-14832584D01*
X40510042Y-14836375D01*
X40495376Y-14830953D01*
X40472524Y-14814591D01*
X40438946Y-14785563D01*
X40392101Y-14742140D01*
X40369469Y-14720108D01*
X40339589Y-14688095D01*
X40321006Y-14664021D01*
X40316586Y-14651331D01*
X40318624Y-14648571D01*
X40327646Y-14644780D01*
X40342313Y-14650202D01*
G37*
G36*
X44516507Y-17395577D02*
G01*
X44485738Y-17488852D01*
X44438013Y-17567998D01*
X44374344Y-17631917D01*
X44295743Y-17679510D01*
X44203222Y-17709677D01*
X44183007Y-17713073D01*
X44119474Y-17716556D01*
X44048183Y-17712832D01*
X43978719Y-17702674D01*
X43920669Y-17686857D01*
X43875678Y-17665553D01*
X43811436Y-17620269D01*
X43755942Y-17564019D01*
X43716089Y-17502998D01*
X43701125Y-17468114D01*
X43676550Y-17374016D01*
X43671491Y-17292343D01*
X43930705Y-17292343D01*
X43931914Y-17323724D01*
X43945303Y-17390745D01*
X43973178Y-17441562D01*
X44015130Y-17475293D01*
X44065573Y-17491300D01*
X44125717Y-17492326D01*
X44181517Y-17476151D01*
X44201291Y-17463675D01*
X44234724Y-17425234D01*
X44256755Y-17374420D01*
X44267254Y-17316135D01*
X44266090Y-17255280D01*
X44253135Y-17196759D01*
X44228257Y-17145474D01*
X44191327Y-17106328D01*
X44184966Y-17101997D01*
X44148702Y-17087445D01*
X44099022Y-17083022D01*
X44045959Y-17089915D01*
X43996365Y-17114857D01*
X43960264Y-17157358D01*
X43938197Y-17216744D01*
X43930705Y-17292343D01*
X43671491Y-17292343D01*
X43670402Y-17274759D01*
X43682717Y-17176026D01*
X43713529Y-17083499D01*
X43718909Y-17072257D01*
X43766405Y-17000262D01*
X43827597Y-16942871D01*
X43899392Y-16900083D01*
X43978700Y-16871898D01*
X44062428Y-16858317D01*
X44147486Y-16859339D01*
X44230781Y-16874964D01*
X44309223Y-16905193D01*
X44379721Y-16950025D01*
X44439181Y-17009460D01*
X44484515Y-17083499D01*
X44511063Y-17156646D01*
X44527706Y-17258721D01*
X44524897Y-17316135D01*
X44522608Y-17362916D01*
X44516507Y-17395577D01*
G37*
G36*
X41225725Y-15759952D02*
G01*
X41230579Y-15831067D01*
X41234316Y-15903868D01*
X41237316Y-15982355D01*
X41238691Y-16027996D01*
X41240227Y-16100221D01*
X41240788Y-16163488D01*
X41240379Y-16214396D01*
X41239963Y-16225066D01*
X41239008Y-16249546D01*
X41236684Y-16265538D01*
X41227557Y-16276276D01*
X41203654Y-16299953D01*
X41168171Y-16333210D01*
X41124041Y-16373304D01*
X41074199Y-16417491D01*
X41037992Y-16449328D01*
X40992650Y-16489961D01*
X40960748Y-16520208D01*
X40939970Y-16542674D01*
X40927997Y-16559964D01*
X40922513Y-16574680D01*
X40921200Y-16589428D01*
X40917820Y-16621199D01*
X40898345Y-16669665D01*
X40865230Y-16708430D01*
X40822706Y-16734335D01*
X40775003Y-16744219D01*
X40726352Y-16734925D01*
X40718705Y-16731320D01*
X40687741Y-16710306D01*
X40658314Y-16682443D01*
X40636329Y-16653947D01*
X40627689Y-16631035D01*
X40626332Y-16626820D01*
X40609855Y-16614066D01*
X40579711Y-16602957D01*
X40572207Y-16601007D01*
X40529908Y-16589949D01*
X40492222Y-16580007D01*
X40487364Y-16578731D01*
X40459919Y-16572153D01*
X40444244Y-16569440D01*
X40443373Y-16570240D01*
X40440393Y-16586198D01*
X40437981Y-16619514D01*
X40436366Y-16666078D01*
X40435777Y-16721777D01*
X40435777Y-16874177D01*
X40571244Y-16874177D01*
X40571244Y-17099955D01*
X40435777Y-17099955D01*
X40435777Y-17698266D01*
X40176133Y-17698266D01*
X40176133Y-17099955D01*
X40040666Y-17099955D01*
X40040666Y-16874177D01*
X40176133Y-16874177D01*
X40176133Y-16558968D01*
X40373689Y-16552444D01*
X40102755Y-16486125D01*
X40047595Y-16472497D01*
X39975790Y-16454363D01*
X39912756Y-16437991D01*
X39861790Y-16424257D01*
X39826187Y-16414036D01*
X39809244Y-16408203D01*
X39803622Y-16404869D01*
X39779216Y-16385697D01*
X39752800Y-16360072D01*
X39746766Y-16353991D01*
X39723249Y-16331764D01*
X39705801Y-16315692D01*
X39916489Y-16315692D01*
X39920191Y-16318250D01*
X39942422Y-16326387D01*
X39982488Y-16338663D01*
X40037796Y-16354352D01*
X40105757Y-16372726D01*
X40183777Y-16393060D01*
X40269266Y-16414627D01*
X40319678Y-16427123D01*
X40401700Y-16447360D01*
X40475088Y-16465348D01*
X40537188Y-16480444D01*
X40585345Y-16492002D01*
X40616904Y-16499380D01*
X40629212Y-16501934D01*
X40638829Y-16494534D01*
X40653767Y-16475109D01*
X40662739Y-16464054D01*
X40696151Y-16438360D01*
X40737428Y-16419001D01*
X40776150Y-16411402D01*
X40803138Y-16416040D01*
X40834785Y-16428224D01*
X40841517Y-16431786D01*
X40853552Y-16437324D01*
X40864949Y-16438661D01*
X40878668Y-16434046D01*
X40897670Y-16421726D01*
X40924915Y-16399950D01*
X40963366Y-16366966D01*
X41015983Y-16321022D01*
X41125838Y-16225066D01*
X41118274Y-16027511D01*
X41116089Y-15972100D01*
X41113691Y-15915115D01*
X41111613Y-15869760D01*
X41110023Y-15839679D01*
X41109088Y-15828516D01*
X41108827Y-15828463D01*
X41094688Y-15827675D01*
X41060792Y-15826242D01*
X41009610Y-15824254D01*
X40943613Y-15821804D01*
X40865271Y-15818984D01*
X40777054Y-15815887D01*
X40681435Y-15812603D01*
X40255403Y-15798128D01*
X40185862Y-15845852D01*
X40161035Y-15862890D01*
X40066668Y-15927652D01*
X39991578Y-16116003D01*
X39969824Y-16171059D01*
X39948505Y-16226110D01*
X39931614Y-16270948D01*
X39920494Y-16302000D01*
X39916489Y-16315692D01*
X39705801Y-16315692D01*
X39685787Y-16297257D01*
X39636332Y-16252239D01*
X39576840Y-16198479D01*
X39509266Y-16137746D01*
X39435564Y-16071810D01*
X39357689Y-16002440D01*
X39313602Y-15963220D01*
X39239318Y-15896984D01*
X39171046Y-15835918D01*
X39110599Y-15781657D01*
X39059792Y-15735834D01*
X39020439Y-15700083D01*
X38994355Y-15676039D01*
X38983354Y-15665335D01*
X38982336Y-15663235D01*
X38977262Y-15642563D01*
X38969876Y-15602733D01*
X38960565Y-15546237D01*
X38949714Y-15475566D01*
X38937711Y-15393212D01*
X38924939Y-15301667D01*
X38911787Y-15203422D01*
X38900166Y-15114139D01*
X38886590Y-15006939D01*
X38875670Y-14915829D01*
X38867072Y-14837174D01*
X38863710Y-14801667D01*
X38983557Y-14801667D01*
X38984567Y-14812426D01*
X38988197Y-14843103D01*
X38994138Y-14891197D01*
X39002075Y-14954211D01*
X39011692Y-15029643D01*
X39022675Y-15114996D01*
X39034710Y-15207771D01*
X39087460Y-15612875D01*
X39440243Y-15927437D01*
X39479058Y-15961999D01*
X39552263Y-16026915D01*
X39619431Y-16086128D01*
X39678765Y-16138077D01*
X39728471Y-16181201D01*
X39766754Y-16213937D01*
X39791817Y-16234724D01*
X39801865Y-16242000D01*
X39809505Y-16232367D01*
X39822871Y-16205276D01*
X39840351Y-16164773D01*
X39860427Y-16114906D01*
X39881580Y-16059726D01*
X39902293Y-16003282D01*
X39921048Y-15949623D01*
X39936326Y-15902798D01*
X39946608Y-15866858D01*
X39950378Y-15845852D01*
X39950237Y-15840004D01*
X39947335Y-15806342D01*
X39941451Y-15760771D01*
X39933599Y-15711422D01*
X39930874Y-15695680D01*
X39921941Y-15642756D01*
X39911083Y-15577068D01*
X39899428Y-15505478D01*
X39888105Y-15434844D01*
X39885234Y-15416773D01*
X39872748Y-15338186D01*
X39859610Y-15255518D01*
X39847217Y-15177562D01*
X39836969Y-15113111D01*
X39836458Y-15109895D01*
X39822811Y-15024134D01*
X39812075Y-14958013D01*
X39803556Y-14908972D01*
X39796556Y-14874455D01*
X39790380Y-14851900D01*
X39784331Y-14838750D01*
X39777714Y-14832445D01*
X39769831Y-14830428D01*
X39759988Y-14830138D01*
X39751217Y-14829860D01*
X39720525Y-14828768D01*
X39698724Y-14827964D01*
X39914639Y-14827964D01*
X39914840Y-14829574D01*
X39918596Y-14856183D01*
X39925731Y-14903516D01*
X39936280Y-14971797D01*
X39950277Y-15061249D01*
X39967760Y-15172095D01*
X39988761Y-15304557D01*
X40013316Y-15458858D01*
X40041460Y-15635222D01*
X40044627Y-15654691D01*
X40053921Y-15707992D01*
X40062330Y-15750911D01*
X40069035Y-15779464D01*
X40073218Y-15789671D01*
X40073411Y-15789635D01*
X40085426Y-15782665D01*
X40108255Y-15767110D01*
X40135097Y-15747847D01*
X40159154Y-15729749D01*
X40173627Y-15717690D01*
X40174063Y-15713262D01*
X40172161Y-15690836D01*
X40167370Y-15654110D01*
X40160308Y-15608160D01*
X40153518Y-15566476D01*
X40142775Y-15500129D01*
X40131244Y-15428581D01*
X40120480Y-15361466D01*
X40118907Y-15351629D01*
X40107980Y-15283290D01*
X40095199Y-15203368D01*
X40082028Y-15121014D01*
X40069930Y-15045377D01*
X40065384Y-15016852D01*
X40055196Y-14952182D01*
X40046040Y-14893098D01*
X40038773Y-14845166D01*
X40034254Y-14813955D01*
X40029218Y-14780168D01*
X40021633Y-14751010D01*
X40010143Y-14740119D01*
X39991227Y-14745048D01*
X39961365Y-14763355D01*
X39952762Y-14769142D01*
X39926719Y-14789613D01*
X39915456Y-14807222D01*
X39914639Y-14827964D01*
X39698724Y-14827964D01*
X39671987Y-14826978D01*
X39608519Y-14824599D01*
X39533037Y-14821742D01*
X39448455Y-14818514D01*
X39357689Y-14815027D01*
X39296869Y-14812697D01*
X39212476Y-14809514D01*
X39137430Y-14806743D01*
X39074371Y-14804478D01*
X39025944Y-14802814D01*
X38994792Y-14801846D01*
X38983557Y-14801667D01*
X38863710Y-14801667D01*
X38860459Y-14767340D01*
X38855495Y-14702691D01*
X38851846Y-14639593D01*
X38849175Y-14574412D01*
X38847147Y-14503511D01*
X38842038Y-14292911D01*
X38962684Y-14292911D01*
X38966580Y-14485700D01*
X38967692Y-14536625D01*
X38969157Y-14593568D01*
X38970585Y-14639101D01*
X38971857Y-14669502D01*
X38972852Y-14681051D01*
X38982506Y-14682030D01*
X39011958Y-14683763D01*
X39058235Y-14686050D01*
X39118342Y-14688752D01*
X39189282Y-14691729D01*
X39268058Y-14694841D01*
X39321302Y-14696903D01*
X39410825Y-14700454D01*
X39498194Y-14704013D01*
X39578307Y-14707369D01*
X39646061Y-14710308D01*
X39696355Y-14712621D01*
X39831822Y-14719173D01*
X39920682Y-14657588D01*
X40130977Y-14657588D01*
X40131407Y-14663550D01*
X40134742Y-14690196D01*
X40140842Y-14732567D01*
X40149061Y-14786263D01*
X40158753Y-14846883D01*
X40174240Y-14942138D01*
X40192358Y-15054207D01*
X40210893Y-15169434D01*
X40229031Y-15282731D01*
X40245958Y-15389011D01*
X40260860Y-15483186D01*
X40272922Y-15560169D01*
X40292411Y-15685493D01*
X40513672Y-15692888D01*
X40567644Y-15694720D01*
X40659538Y-15697938D01*
X40754270Y-15701354D01*
X40843373Y-15704660D01*
X40918377Y-15707551D01*
X40961323Y-15709092D01*
X41017176Y-15710548D01*
X41061706Y-15711042D01*
X41091169Y-15710545D01*
X41101822Y-15709026D01*
X41100839Y-15700381D01*
X41097237Y-15671592D01*
X41091308Y-15625170D01*
X41083388Y-15563711D01*
X41073810Y-15489809D01*
X41062910Y-15406060D01*
X41051022Y-15315060D01*
X41041222Y-15239934D01*
X41030097Y-15154019D01*
X41020240Y-15077199D01*
X41011987Y-15012130D01*
X41005675Y-14961471D01*
X41001641Y-14927881D01*
X41000222Y-14914016D01*
X40993552Y-14904975D01*
X40971968Y-14882834D01*
X40937504Y-14849745D01*
X40892271Y-14807577D01*
X40838380Y-14758201D01*
X40777941Y-14703486D01*
X40713065Y-14645301D01*
X40645863Y-14585517D01*
X40578445Y-14526003D01*
X40512922Y-14468629D01*
X40451404Y-14415264D01*
X40396003Y-14367779D01*
X40348829Y-14328043D01*
X40311991Y-14297926D01*
X40287602Y-14279297D01*
X40277772Y-14274027D01*
X40273120Y-14282057D01*
X40261043Y-14308751D01*
X40244152Y-14349351D01*
X40224114Y-14399508D01*
X40202591Y-14454873D01*
X40181249Y-14511096D01*
X40161752Y-14563828D01*
X40145765Y-14608721D01*
X40134952Y-14641424D01*
X40130977Y-14657588D01*
X39920682Y-14657588D01*
X40017878Y-14590225D01*
X40096157Y-14391646D01*
X40174435Y-14193066D01*
X39760418Y-14088972D01*
X39749464Y-14086219D01*
X39656482Y-14062967D01*
X39570306Y-14041614D01*
X39493447Y-14022767D01*
X39428421Y-14007036D01*
X39377740Y-13995030D01*
X39343917Y-13987356D01*
X39329466Y-13984624D01*
X39327621Y-13985070D01*
X39310625Y-13995604D01*
X39280341Y-14018464D01*
X39239554Y-14051414D01*
X39191048Y-14092218D01*
X39137608Y-14138641D01*
X38962684Y-14292911D01*
X38842038Y-14292911D01*
X38840985Y-14249511D01*
X38969109Y-14136622D01*
X39019153Y-14092559D01*
X39089617Y-14030724D01*
X39146131Y-13981576D01*
X39190517Y-13943673D01*
X39224600Y-13915573D01*
X39250205Y-13895834D01*
X39269155Y-13883014D01*
X39283274Y-13875671D01*
X39294386Y-13872364D01*
X39304316Y-13871650D01*
X39311371Y-13872520D01*
X39339764Y-13878043D01*
X39386265Y-13888170D01*
X39448436Y-13902334D01*
X39523840Y-13919969D01*
X39610040Y-13940508D01*
X39704598Y-13963386D01*
X39805075Y-13988035D01*
X40275040Y-14104102D01*
X40374758Y-14193066D01*
X40674320Y-14460323D01*
X40751391Y-14529169D01*
X40828123Y-14597895D01*
X40898514Y-14661123D01*
X40960807Y-14717269D01*
X41013249Y-14764749D01*
X41054085Y-14801978D01*
X41081560Y-14827370D01*
X41093921Y-14839341D01*
X41094796Y-14840397D01*
X41100813Y-14851884D01*
X41107181Y-14872269D01*
X41114231Y-14903484D01*
X41122296Y-14947460D01*
X41131709Y-15006128D01*
X41142801Y-15081420D01*
X41155905Y-15175268D01*
X41171352Y-15289602D01*
X41171356Y-15289629D01*
X41187512Y-15412329D01*
X41200646Y-15516710D01*
X41211139Y-15606774D01*
X41219372Y-15686521D01*
X41221319Y-15709026D01*
X41221685Y-15713262D01*
X41225725Y-15759952D01*
G37*
G36*
X42264577Y-19109377D02*
G01*
X42151689Y-19109377D01*
X42151689Y-18926858D01*
X42151450Y-18880700D01*
X42148860Y-18786374D01*
X42143105Y-18710303D01*
X42133794Y-18649557D01*
X42120535Y-18601204D01*
X42102936Y-18562313D01*
X42092993Y-18545894D01*
X42056596Y-18503825D01*
X42011259Y-18479121D01*
X41951463Y-18468361D01*
X41938890Y-18467556D01*
X41902541Y-18467694D01*
X41877195Y-18474302D01*
X41853987Y-18489281D01*
X41849296Y-18493046D01*
X41831296Y-18509666D01*
X41817367Y-18528425D01*
X41806994Y-18552242D01*
X41799663Y-18584037D01*
X41794857Y-18626727D01*
X41792062Y-18683234D01*
X41790763Y-18756475D01*
X41790444Y-18849370D01*
X41790444Y-19109377D01*
X41677555Y-19109377D01*
X41677555Y-18840493D01*
X41677889Y-18749098D01*
X41679028Y-18674467D01*
X41681130Y-18616567D01*
X41684349Y-18572438D01*
X41688843Y-18539119D01*
X41694767Y-18513651D01*
X41703502Y-18488082D01*
X41738798Y-18424612D01*
X41788077Y-18378816D01*
X41850837Y-18351066D01*
X41926577Y-18341733D01*
X41951401Y-18342425D01*
X42013954Y-18353347D01*
X42065584Y-18379697D01*
X42112550Y-18424250D01*
X42151689Y-18469975D01*
X42151689Y-17822444D01*
X42264577Y-17822444D01*
X42264577Y-19109377D01*
G37*
G36*
X43348311Y-14808311D02*
G01*
X43224133Y-14808311D01*
X43224133Y-14130977D01*
X43348311Y-14130977D01*
X43348311Y-14808311D01*
G37*
G36*
X40898622Y-17698266D02*
G01*
X40638977Y-17698266D01*
X40638977Y-16874177D01*
X40898622Y-16874177D01*
X40898622Y-17698266D01*
G37*
G36*
X44001251Y-14726747D02*
G01*
X43972182Y-14768544D01*
X43934065Y-14799355D01*
X43889471Y-14816291D01*
X43840968Y-14816463D01*
X43791127Y-14796980D01*
X43772190Y-14785660D01*
X43752996Y-14776347D01*
X43745012Y-14778441D01*
X43743422Y-14791377D01*
X43735914Y-14803535D01*
X43708623Y-14808311D01*
X43673824Y-14808311D01*
X43677421Y-14620883D01*
X43773201Y-14620883D01*
X43774134Y-14659843D01*
X43796851Y-14698244D01*
X43797669Y-14699134D01*
X43826698Y-14716188D01*
X43860025Y-14716196D01*
X43891475Y-14701912D01*
X43914873Y-14676091D01*
X43924044Y-14641489D01*
X43923659Y-14632400D01*
X43911683Y-14594253D01*
X43886869Y-14568980D01*
X43854555Y-14558592D01*
X43820073Y-14565099D01*
X43788759Y-14590511D01*
X43773201Y-14620883D01*
X43677421Y-14620883D01*
X43677578Y-14612715D01*
X43677726Y-14605013D01*
X43679190Y-14536065D01*
X43680900Y-14485397D01*
X43683428Y-14449086D01*
X43687350Y-14423212D01*
X43693236Y-14403854D01*
X43701661Y-14387093D01*
X43713198Y-14369006D01*
X43741950Y-14333770D01*
X43790901Y-14299703D01*
X43852388Y-14282166D01*
X43928754Y-14280194D01*
X43964089Y-14283518D01*
X44023628Y-14296864D01*
X44072993Y-14321735D01*
X44119822Y-14361374D01*
X44120720Y-14362277D01*
X44166699Y-14423834D01*
X44198736Y-14498963D01*
X44215830Y-14582804D01*
X44216983Y-14670503D01*
X44201197Y-14757202D01*
X44197349Y-14769121D01*
X44166296Y-14830168D01*
X44120597Y-14886034D01*
X44065790Y-14930947D01*
X44007410Y-14959139D01*
X44006922Y-14959288D01*
X43960738Y-14968522D01*
X43895372Y-14974474D01*
X43813977Y-14976858D01*
X43675689Y-14977644D01*
X43675689Y-14889655D01*
X43813977Y-14885589D01*
X43824537Y-14885270D01*
X43882238Y-14882919D01*
X43923536Y-14879470D01*
X43953790Y-14874008D01*
X43978360Y-14865617D01*
X44002604Y-14853384D01*
X44006908Y-14850909D01*
X44058294Y-14808360D01*
X44095557Y-14752612D01*
X44118168Y-14688189D01*
X44125599Y-14619614D01*
X44117323Y-14551412D01*
X44092810Y-14488107D01*
X44051534Y-14434223D01*
X44014393Y-14404950D01*
X43960811Y-14379807D01*
X43906736Y-14370605D01*
X43855978Y-14376731D01*
X43812343Y-14397570D01*
X43779640Y-14432508D01*
X43761678Y-14480933D01*
X43760483Y-14488453D01*
X43758894Y-14506134D01*
X43761508Y-14506095D01*
X43769173Y-14495772D01*
X43796254Y-14477505D01*
X43832683Y-14463785D01*
X43869861Y-14458397D01*
X43879410Y-14458770D01*
X43929861Y-14473301D01*
X43973123Y-14506808D01*
X44005131Y-14556348D01*
X44008473Y-14564339D01*
X44021967Y-14621755D01*
X44020798Y-14641489D01*
X44018703Y-14676854D01*
X44001251Y-14726747D01*
G37*
G36*
X42700221Y-17446476D02*
G01*
X42667124Y-17533542D01*
X42618072Y-17605430D01*
X42553416Y-17661546D01*
X42473509Y-17701293D01*
X42412330Y-17715482D01*
X42339115Y-17717149D01*
X42266451Y-17705160D01*
X42200861Y-17680650D01*
X42148866Y-17644755D01*
X42117822Y-17615020D01*
X42117822Y-17698266D01*
X41858177Y-17698266D01*
X41858177Y-17304637D01*
X42119823Y-17304637D01*
X42122464Y-17334846D01*
X42134855Y-17387651D01*
X42158866Y-17428072D01*
X42197542Y-17462290D01*
X42240959Y-17482860D01*
X42295944Y-17488921D01*
X42350248Y-17477022D01*
X42396948Y-17447670D01*
X42432455Y-17405062D01*
X42453775Y-17352266D01*
X42460398Y-17286222D01*
X42457971Y-17244822D01*
X42441364Y-17181871D01*
X42409395Y-17134991D01*
X42362499Y-17104715D01*
X42301112Y-17091575D01*
X42285662Y-17091044D01*
X42224551Y-17100067D01*
X42176559Y-17126941D01*
X42142538Y-17170663D01*
X42123341Y-17230229D01*
X42119823Y-17304637D01*
X41858177Y-17304637D01*
X41858177Y-16874177D01*
X42117822Y-16874177D01*
X42117822Y-16954349D01*
X42155118Y-16925901D01*
X42195313Y-16899507D01*
X42272232Y-16868211D01*
X42352810Y-16856612D01*
X42433379Y-16864175D01*
X42510269Y-16890363D01*
X42579812Y-16934640D01*
X42638337Y-16996471D01*
X42664295Y-17036328D01*
X42695501Y-17107431D01*
X42713368Y-17189201D01*
X42719176Y-17286222D01*
X42717009Y-17344828D01*
X42700221Y-17446476D01*
G37*
G36*
X46723689Y-19538355D02*
G01*
X46599511Y-19538355D01*
X46599511Y-14921200D01*
X46723689Y-14921200D01*
X46723689Y-19538355D01*
G37*
G36*
X43776890Y-18342202D02*
G01*
X43806288Y-18346802D01*
X43829780Y-18359843D01*
X43857639Y-18385560D01*
X43901466Y-18429388D01*
X43901466Y-18353022D01*
X44014355Y-18353022D01*
X44014355Y-19109377D01*
X43903611Y-19109377D01*
X43899265Y-18852555D01*
X43899119Y-18844022D01*
X43897184Y-18753628D01*
X43894498Y-18682508D01*
X43890481Y-18627614D01*
X43884550Y-18585896D01*
X43876124Y-18554307D01*
X43864620Y-18529798D01*
X43849459Y-18509320D01*
X43830057Y-18489825D01*
X43829497Y-18489311D01*
X43807341Y-18472948D01*
X43783066Y-18466916D01*
X43746757Y-18468703D01*
X43730376Y-18470705D01*
X43695690Y-18476579D01*
X43672866Y-18482685D01*
X43663933Y-18485068D01*
X43656943Y-18479632D01*
X43653825Y-18460472D01*
X43653111Y-18423171D01*
X43654050Y-18387053D01*
X43659934Y-18361748D01*
X43675171Y-18348194D01*
X43704165Y-18342740D01*
X43751318Y-18341733D01*
X43776890Y-18342202D01*
G37*
G36*
X44869147Y-18779404D02*
G01*
X44852356Y-18873839D01*
X44818115Y-18955654D01*
X44767127Y-19023705D01*
X44700093Y-19076851D01*
X44617718Y-19113950D01*
X44606598Y-19117277D01*
X44524848Y-19129085D01*
X44443058Y-19120762D01*
X44365104Y-19094065D01*
X44294862Y-19050753D01*
X44236209Y-18992585D01*
X44193022Y-18921318D01*
X44183818Y-18898955D01*
X44159451Y-18808247D01*
X44154582Y-18728462D01*
X44273286Y-18728462D01*
X44279364Y-18799814D01*
X44299495Y-18866642D01*
X44334064Y-18923934D01*
X44342184Y-18933023D01*
X44377457Y-18963762D01*
X44414312Y-18986410D01*
X44427604Y-18991902D01*
X44493219Y-19006118D01*
X44561303Y-19002886D01*
X44625285Y-18983162D01*
X44678596Y-18947903D01*
X44714101Y-18901584D01*
X44740491Y-18840671D01*
X44756026Y-18772167D01*
X44759162Y-18702891D01*
X44748355Y-18639663D01*
X44723713Y-18582222D01*
X44680610Y-18524594D01*
X44626737Y-18483675D01*
X44565214Y-18460534D01*
X44499157Y-18456243D01*
X44431686Y-18471869D01*
X44365918Y-18508482D01*
X44335531Y-18537395D01*
X44301754Y-18592239D01*
X44280878Y-18657599D01*
X44273286Y-18728462D01*
X44154582Y-18728462D01*
X44153892Y-18717164D01*
X44166112Y-18628888D01*
X44195082Y-18546600D01*
X44239773Y-18473481D01*
X44299156Y-18412712D01*
X44372201Y-18367475D01*
X44382507Y-18362839D01*
X44414469Y-18350535D01*
X44444802Y-18344048D01*
X44481536Y-18342193D01*
X44532704Y-18343784D01*
X44533253Y-18343810D01*
X44608821Y-18352335D01*
X44669947Y-18371724D01*
X44723350Y-18405062D01*
X44775749Y-18455438D01*
X44808088Y-18495523D01*
X44841044Y-18554661D01*
X44860885Y-18622058D01*
X44869895Y-18702891D01*
X44870028Y-18704087D01*
X44869147Y-18779404D01*
G37*
G04 #@! TD*
%LPC*%
D15*
G04 #@! TO.C,J1*
X16907500Y-24612600D03*
X16907500Y-30392600D03*
D16*
X13257500Y-31822600D03*
D17*
X17437500Y-23182600D03*
X17437500Y-31822600D03*
D16*
X13257500Y-23182600D03*
G04 #@! TD*
D18*
G04 #@! TO.C,J3*
X23350000Y-18950000D03*
X22100000Y-18950000D03*
X20850000Y-18950000D03*
X19600000Y-18950000D03*
X18350000Y-18950000D03*
X17100000Y-18950000D03*
X15850000Y-18950000D03*
D19*
X13602900Y-15648000D03*
X25597100Y-15648000D03*
G04 #@! TD*
D18*
G04 #@! TO.C,J2*
X16000000Y-36070500D03*
X17250000Y-36070500D03*
X18500000Y-36070500D03*
X19750000Y-36070500D03*
X21000000Y-36070500D03*
X22250000Y-36070500D03*
X23500000Y-36070500D03*
D19*
X25747100Y-39372500D03*
X13752900Y-39372500D03*
G04 #@! TD*
D20*
G04 #@! TO.C,U5*
X59282198Y-37285350D03*
X58782199Y-37285350D03*
X58282200Y-37285350D03*
X57782198Y-37285350D03*
X57282199Y-37285350D03*
X56782200Y-37285350D03*
X56282199Y-37285350D03*
X55782200Y-37285350D03*
X55282198Y-37285350D03*
X54782199Y-37285350D03*
X54282200Y-37285350D03*
X53782199Y-37285350D03*
X53282199Y-37285350D03*
X52782198Y-37285350D03*
X52282199Y-37285350D03*
X51782200Y-37285350D03*
X51282198Y-37285350D03*
X50782199Y-37285350D03*
X50282198Y-37285350D03*
X49782199Y-37285350D03*
X49282200Y-37285350D03*
X48782198Y-37285350D03*
X48282199Y-37285350D03*
X47782198Y-37285350D03*
X47782200Y-17613050D03*
X48282199Y-17613050D03*
X48782198Y-17613050D03*
X49282200Y-17613050D03*
X49782199Y-17613050D03*
X50282200Y-17613050D03*
X50782199Y-17613050D03*
X51282198Y-17613050D03*
X51782200Y-17613050D03*
X52282199Y-17613050D03*
X52782201Y-17613050D03*
X53282199Y-17613050D03*
X53782199Y-17613050D03*
X54282200Y-17613050D03*
X54782199Y-17613050D03*
X55282198Y-17613050D03*
X55782200Y-17613050D03*
X56282199Y-17613050D03*
X56782200Y-17613050D03*
X57282199Y-17613050D03*
X57782198Y-17613050D03*
X58282200Y-17613050D03*
X58782199Y-17613050D03*
X59282200Y-17613050D03*
G04 #@! TD*
M02*
