G04 #@! TF.GenerationSoftware,KiCad,Pcbnew,7.0.1-0*
G04 #@! TF.CreationDate,2023-05-01T16:00:43+08:00*
G04 #@! TF.ProjectId,slimarm_almond_mini,736c696d-6172-46d5-9f61-6c6d6f6e645f,rev?*
G04 #@! TF.SameCoordinates,Original*
G04 #@! TF.FileFunction,Copper,L3,Inr*
G04 #@! TF.FilePolarity,Positive*
%FSLAX46Y46*%
G04 Gerber Fmt 4.6, Leading zero omitted, Abs format (unit mm)*
G04 Created by KiCad (PCBNEW 7.0.1-0) date 2023-05-01 16:00:43*
%MOMM*%
%LPD*%
G01*
G04 APERTURE LIST*
G04 #@! TA.AperFunction,ComponentPad*
%ADD10O,1.000000X2.100000*%
G04 #@! TD*
G04 #@! TA.AperFunction,ComponentPad*
%ADD11O,1.000000X1.600000*%
G04 #@! TD*
G04 #@! TA.AperFunction,ViaPad*
%ADD12C,0.609600*%
G04 #@! TD*
G04 #@! TA.AperFunction,ViaPad*
%ADD13C,0.457200*%
G04 #@! TD*
G04 #@! TA.AperFunction,Conductor*
%ADD14C,0.101600*%
G04 #@! TD*
G04 APERTURE END LIST*
D10*
G04 #@! TO.N,GND*
G04 #@! TO.C,J4*
X35810000Y-41440000D03*
D11*
X35810000Y-45620000D03*
D10*
X44450000Y-41440000D03*
D11*
X44450000Y-45620000D03*
G04 #@! TD*
D12*
G04 #@! TO.N,GND*
X55640000Y-45030000D03*
X55640000Y-43970000D03*
D13*
X54696000Y-16680000D03*
X57330000Y-13850000D03*
X43680000Y-34330000D03*
X23070000Y-31480000D03*
X25830000Y-46360000D03*
X69530000Y-32550000D03*
X66730000Y-18730000D03*
X31376000Y-26430000D03*
X58639177Y-20492268D03*
X39820000Y-30140000D03*
X60026000Y-23980000D03*
X59406000Y-32350000D03*
X68615000Y-41615000D03*
X26380000Y-18380000D03*
X23060000Y-24660000D03*
X39510000Y-45940000D03*
X48857500Y-45120000D03*
X62070000Y-40030000D03*
X35055471Y-31902433D03*
X34230000Y-27850000D03*
X35330000Y-34880000D03*
X67250000Y-28500000D03*
X42100000Y-29060000D03*
X66800000Y-17280000D03*
X34258993Y-30298967D03*
X23070000Y-35720000D03*
X23060000Y-30160000D03*
X25461490Y-23103453D03*
X50776000Y-34510000D03*
X23070000Y-20470000D03*
X23070000Y-27420000D03*
X23070000Y-32870000D03*
X26250000Y-28707936D03*
X23070000Y-28760000D03*
X30241007Y-23901033D03*
X35880443Y-32679116D03*
X29449999Y-30292063D03*
X26570000Y-36720000D03*
X56780000Y-32060000D03*
X36208374Y-17620748D03*
X48537400Y-13905100D03*
X61500000Y-34730000D03*
X33390000Y-26680000D03*
X64480000Y-31680000D03*
X66770000Y-21540000D03*
X53600000Y-30440000D03*
X62640000Y-33290000D03*
X35032800Y-22317200D03*
X29442064Y-27899999D03*
X41216000Y-17220000D03*
X36650000Y-27892064D03*
X50730000Y-32115900D03*
X29490000Y-20610000D03*
X46444837Y-34479227D03*
X44450000Y-38380000D03*
X38500000Y-34720000D03*
X26260000Y-31090000D03*
X55460000Y-31950000D03*
X30650000Y-36070000D03*
X27690000Y-18350000D03*
X23070000Y-25970000D03*
X65220000Y-23880000D03*
X27042064Y-23899999D03*
X65220000Y-22110000D03*
X23070000Y-23290000D03*
X26240000Y-33510000D03*
X31857937Y-21499999D03*
X23070000Y-21900000D03*
X33200000Y-29220000D03*
X34250000Y-18320000D03*
X53338000Y-13840000D03*
X66640000Y-23640000D03*
D12*
X55630000Y-43050000D03*
D13*
X66130000Y-34390000D03*
X31850001Y-30307936D03*
X46140000Y-14935900D03*
X67670000Y-44590000D03*
X31066321Y-23925311D03*
X23070000Y-34270000D03*
X34242064Y-23899999D03*
D12*
X36600000Y-38160000D03*
D13*
G04 #@! TO.N,/NRESET*
X32646052Y-29496052D03*
X39770000Y-37730000D03*
G04 #@! TO.N,+3V3*
X39270000Y-32115900D03*
X32630000Y-28730000D03*
X23670000Y-18187500D03*
X42640000Y-38065000D03*
X23565000Y-37062500D03*
D12*
X52310000Y-40290000D03*
D13*
X69232779Y-38525127D03*
X28660000Y-33490000D03*
D12*
X51902000Y-42610000D03*
D13*
X66130000Y-36100000D03*
D12*
X50870000Y-40270000D03*
D13*
X49614100Y-34380000D03*
X40430775Y-34448200D03*
X50743750Y-13526250D03*
X46960000Y-44530000D03*
X30239203Y-24719262D03*
X53133000Y-29753000D03*
X56610000Y-31000000D03*
X23761250Y-15188750D03*
X36920000Y-16970000D03*
X24850000Y-19467500D03*
X66140000Y-31210000D03*
D12*
X50600000Y-42610000D03*
D13*
X68730000Y-13390000D03*
X34216999Y-28655283D03*
X25780000Y-45550000D03*
X26560000Y-35510000D03*
X30100000Y-20340000D03*
X24160000Y-28780000D03*
X35057936Y-23099999D03*
X67721975Y-27444475D03*
X28643426Y-27900001D03*
X26330000Y-19480000D03*
X55378750Y-13551250D03*
X44890000Y-30060000D03*
X34010000Y-26810000D03*
X24920000Y-31630000D03*
X38258993Y-25498967D03*
X33439203Y-31119262D03*
X49510000Y-29830000D03*
X34180000Y-19457500D03*
X69510000Y-43000000D03*
X45160000Y-38440000D03*
D12*
G04 #@! TO.N,+5V*
X58010000Y-40440000D03*
X59619580Y-40440000D03*
X60590000Y-41410420D03*
X42270000Y-42218435D03*
X38270000Y-41870000D03*
D13*
X46670000Y-46004226D03*
G04 #@! TO.N,+1V8*
X27857936Y-21500000D03*
X24190000Y-34290000D03*
X30262786Y-29478576D03*
X31875262Y-31135490D03*
X24227500Y-24790000D03*
X24227500Y-21870000D03*
X31824738Y-23064510D03*
X50410000Y-41420000D03*
X31520000Y-19457500D03*
X28650000Y-28707935D03*
X31020245Y-24679722D03*
X33470000Y-25550000D03*
X28632800Y-32717200D03*
X24920000Y-30230000D03*
X36642065Y-26300000D03*
D12*
X58950000Y-42670000D03*
D13*
X35880000Y-28730000D03*
D12*
X57227500Y-42670000D03*
D13*
X24227500Y-25990000D03*
X34440000Y-20570000D03*
X24227500Y-23390000D03*
X28642065Y-23900000D03*
X30293201Y-26357527D03*
X32360000Y-37410000D03*
X37620000Y-34680000D03*
X30330000Y-19457500D03*
G04 #@! TO.N,/BUS_DAT6*
X53776000Y-22590000D03*
X41840000Y-22690000D03*
G04 #@! TO.N,/BUS_DAT1*
X41320000Y-23870000D03*
X48580000Y-23390000D03*
G04 #@! TO.N,/DRAM_DQML*
X55580000Y-23620000D03*
X46050000Y-25720000D03*
G04 #@! TO.N,/BUS_DAT5*
X53090000Y-24070000D03*
X38253947Y-26296053D03*
G04 #@! TO.N,/BUS_DAT0*
X39070000Y-27090000D03*
X47014413Y-24945587D03*
G04 #@! TO.N,/BUS_ADR24*
X44990000Y-29140000D03*
X38243666Y-27885496D03*
X42096000Y-28250000D03*
X62360000Y-24980000D03*
G04 #@! TO.N,/BUS_ADR12*
X39710000Y-26490000D03*
X61490000Y-16500000D03*
G04 #@! TO.N,/BUS_ADR4*
X62340000Y-29610000D03*
X38257936Y-31099999D03*
G04 #@! TO.N,/DRAM_DQMU*
X58406000Y-16480000D03*
X54810000Y-21370000D03*
G04 #@! TO.N,/BUS_DAT12*
X50425000Y-16525000D03*
X36650000Y-22307935D03*
G04 #@! TO.N,/BUS_DAT7*
X37457936Y-25499999D03*
X54170000Y-23120000D03*
G04 #@! TO.N,/BUS_DAT4*
X52420000Y-24670000D03*
X37450000Y-26307935D03*
G04 #@! TO.N,/BUS_ADR7*
X37450001Y-29492064D03*
X64450000Y-16610000D03*
G04 #@! TO.N,/BUS_ADR3*
X63180000Y-28710000D03*
X37422425Y-31061794D03*
G04 #@! TO.N,/DRAM_NSCAS*
X37450000Y-31907935D03*
X59290000Y-31550000D03*
G04 #@! TO.N,/BUS_DAT14*
X48586000Y-16180000D03*
X35849999Y-23107936D03*
G04 #@! TO.N,/BUS_DAT10*
X53075000Y-16600000D03*
X35057935Y-24700000D03*
G04 #@! TO.N,/BUS_DAT2*
X50230000Y-21770000D03*
X35850001Y-25492064D03*
G04 #@! TO.N,/BUS_ADR10*
X61270000Y-17460000D03*
X36650000Y-28707935D03*
G04 #@! TO.N,/BUS_ADR5*
X36650000Y-31107935D03*
X66356000Y-16320000D03*
G04 #@! TO.N,/BUS_ADR1*
X35865816Y-31875249D03*
X64510000Y-27770000D03*
G04 #@! TO.N,/DRAM_SCKE*
X58000000Y-17780000D03*
X49156000Y-20810000D03*
G04 #@! TO.N,/BUS_DAT3*
X51576000Y-22020000D03*
X35830000Y-26280000D03*
G04 #@! TO.N,/BUS_ADR23*
X42100000Y-27470000D03*
X35849999Y-27907936D03*
X61240000Y-24880000D03*
X45000000Y-28400000D03*
G04 #@! TO.N,/BUS_ADR11*
X37450000Y-30307935D03*
X63018660Y-28008660D03*
G04 #@! TO.N,/BUS_NWE*
X58640000Y-32130000D03*
X35830369Y-31070978D03*
G04 #@! TO.N,/BUS_DAT8*
X34280000Y-25540000D03*
X57650000Y-16260000D03*
G04 #@! TO.N,/DRAM_SCLK*
X35020000Y-30340000D03*
X57300000Y-17140000D03*
G04 #@! TO.N,/DRAM_CS*
X35057936Y-32700000D03*
X61550000Y-33080000D03*
G04 #@! TO.N,/BUS_ADR9*
X35857935Y-29500000D03*
X61000000Y-18230000D03*
G04 #@! TO.N,/BUS_NWAIT*
X44240000Y-34854100D03*
X34248967Y-31091007D03*
G04 #@! TO.N,/JTAG_NTRST*
X23650000Y-17590000D03*
X33398331Y-23968776D03*
X30500000Y-15580000D03*
G04 #@! TO.N,/JTAG_TCK*
X33390000Y-24770000D03*
X29990000Y-14930000D03*
X24900000Y-17630000D03*
G04 #@! TO.N,/JTAG_TDI*
X32344100Y-20630000D03*
X29050000Y-15630000D03*
G04 #@! TO.N,/JTAG_TMS*
X28290000Y-15010000D03*
X31842065Y-22300000D03*
G04 #@! TO.N,/JTAG_TDO*
X31650000Y-15580000D03*
X33442064Y-23100001D03*
G04 #@! TO.N,/USB_DP*
X30234640Y-28692855D03*
G04 #@! TO.N,/USB_DN*
X29457936Y-28700000D03*
G04 #@! TO.N,/GPIO_G0*
X53730107Y-40290107D03*
X27050000Y-27907936D03*
G04 #@! TO.N,/GPIO_G2*
X54490000Y-40040000D03*
X26250000Y-27107936D03*
G04 #@! TO.N,/GPIO_G1*
X25432965Y-27126106D03*
X57920000Y-38980000D03*
G04 #@! TO.N,/NAND_ALE*
X33450000Y-31907936D03*
X54145000Y-36095000D03*
G04 #@! TO.N,/NAND_NFWE*
X54980000Y-35640000D03*
X34243666Y-31914504D03*
G04 #@! TO.N,/NAND_NFRE*
X64980000Y-37060000D03*
X34253948Y-33496052D03*
G04 #@! TO.N,/NAND_NFCE*
X36720000Y-34670000D03*
X64910000Y-35990000D03*
G04 #@! TO.N,/NAND_CLE*
X53351858Y-36572728D03*
X33439203Y-30280738D03*
G04 #@! TO.N,/SPI0_CLK*
X28643926Y-27085770D03*
G04 #@! TO.N,/NAND_RNB*
X53500000Y-37350000D03*
X30257935Y-31100000D03*
G04 #@! TO.N,/SPI0_MISO*
X25457935Y-26300000D03*
G04 #@! TO.N,/SPI0_MOSI*
X25460000Y-25520000D03*
G04 #@! TO.N,/CH_DP*
X40540000Y-45550000D03*
X38460062Y-45573615D03*
G04 #@! TO.N,/CH_DN*
X38450000Y-44990000D03*
X40530000Y-44950000D03*
G04 #@! TO.N,Net-(J4-CC2)*
X33015000Y-42005000D03*
X41500000Y-41680000D03*
G04 #@! TO.N,/OM0*
X27994842Y-37450000D03*
X26990000Y-40610000D03*
X27846052Y-31903948D03*
X29920000Y-46030000D03*
G04 #@! TO.N,/UART_TX*
X32838892Y-40049105D03*
X31050001Y-33492063D03*
G04 #@! TO.N,/UART_RX*
X31070000Y-34370000D03*
X31888776Y-39876154D03*
G04 #@! TO.N,/GPIO_G5*
X25401230Y-27914793D03*
G04 #@! TO.N,/SD_DAT2*
X45720000Y-40990000D03*
X59665000Y-37865000D03*
X61190000Y-39260000D03*
X28657935Y-26300000D03*
G04 #@! TO.N,/SD_DAT3*
X27059263Y-26298703D03*
X45840000Y-42280000D03*
G04 #@! TO.N,/SD_CMD*
X69117824Y-37439474D03*
X28630000Y-24720000D03*
X63910000Y-40140000D03*
X64490000Y-38900000D03*
G04 #@! TO.N,/SD_CLK*
X61450000Y-43060000D03*
X63380000Y-44830000D03*
X26250000Y-25507936D03*
G04 #@! TO.N,/SD_DAT0*
X45830000Y-41580000D03*
X27050001Y-25507936D03*
X65020000Y-44670000D03*
X63420000Y-40660000D03*
G04 #@! TO.N,/SD_DAT1*
X66830000Y-44650000D03*
X29457935Y-25500000D03*
X66820000Y-42470000D03*
G04 #@! TO.N,/SD_DET*
X49430000Y-40350000D03*
X55570000Y-35090000D03*
X27042064Y-29500000D03*
G04 #@! TO.N,Net-(J1-DET_B)*
X56270000Y-38992700D03*
G04 #@! TD*
D14*
G04 #@! TO.N,GND*
X34258993Y-30342993D02*
X34846000Y-30930000D01*
X34258993Y-30298967D02*
X34258993Y-30342993D01*
X35404790Y-30781210D02*
X36138746Y-30047254D01*
X36497956Y-29898464D02*
X39368044Y-29898464D01*
X39727254Y-30047254D02*
X39820000Y-30140000D01*
X34846000Y-30930000D02*
X35045580Y-30930000D01*
X35045580Y-30929985D02*
G75*
G03*
X35404790Y-30781210I20J507985D01*
G01*
X39727240Y-30047268D02*
G75*
G03*
X39368044Y-29898464I-359240J-359232D01*
G01*
X36497956Y-29898444D02*
G75*
G03*
X36138746Y-30047254I44J-508056D01*
G01*
G04 #@! TD*
G04 #@! TA.AperFunction,Conductor*
G04 #@! TO.N,GND*
G36*
X68593874Y-12600871D02*
G01*
X68804595Y-12617794D01*
X68823773Y-12620861D01*
X69024617Y-12669385D01*
X69043082Y-12675412D01*
X69229196Y-12752780D01*
X69233880Y-12754727D01*
X69251189Y-12763573D01*
X69427228Y-12871719D01*
X69442942Y-12883160D01*
X69595235Y-13013481D01*
X69599924Y-13017493D01*
X69613656Y-13031249D01*
X69747721Y-13188468D01*
X69759136Y-13204203D01*
X69866979Y-13380435D01*
X69875794Y-13397758D01*
X69954774Y-13588682D01*
X69960773Y-13607170D01*
X70008945Y-13808081D01*
X70011982Y-13827282D01*
X70028601Y-14038833D01*
X70028982Y-14048548D01*
X70028980Y-14110681D01*
X70028983Y-14110700D01*
X70028993Y-42606354D01*
X70014662Y-42664221D01*
X69974983Y-42708713D01*
X69919126Y-42729546D01*
X69860003Y-42721904D01*
X69811280Y-42687556D01*
X69796007Y-42669930D01*
X69691430Y-42602723D01*
X69572155Y-42567700D01*
X69447845Y-42567700D01*
X69361530Y-42593045D01*
X69328570Y-42602723D01*
X69223990Y-42669931D01*
X69142587Y-42763876D01*
X69090945Y-42876954D01*
X69073255Y-42999999D01*
X69090945Y-43123045D01*
X69142587Y-43236123D01*
X69223990Y-43330068D01*
X69223992Y-43330069D01*
X69223993Y-43330070D01*
X69328570Y-43397277D01*
X69447845Y-43432300D01*
X69572154Y-43432300D01*
X69572155Y-43432300D01*
X69691430Y-43397277D01*
X69796007Y-43330070D01*
X69811279Y-43312444D01*
X69860004Y-43278095D01*
X69919128Y-43270453D01*
X69974984Y-43291286D01*
X70014663Y-43335778D01*
X70028994Y-43393645D01*
X70028994Y-45195768D01*
X70028596Y-45205696D01*
X70011697Y-45416085D01*
X70008627Y-45435278D01*
X69960181Y-45635797D01*
X69954149Y-45654275D01*
X69874963Y-45844757D01*
X69866119Y-45862063D01*
X69854375Y-45881181D01*
X69758139Y-46037832D01*
X69746698Y-46053544D01*
X69612577Y-46210280D01*
X69598821Y-46224013D01*
X69441850Y-46357868D01*
X69426118Y-46369282D01*
X69250167Y-46476958D01*
X69232843Y-46485773D01*
X69042225Y-46564630D01*
X69023737Y-46570630D01*
X68823136Y-46618732D01*
X68803938Y-46621769D01*
X68593044Y-46638344D01*
X68583328Y-46638725D01*
X68520857Y-46638725D01*
X68520851Y-46638726D01*
X46904608Y-46638726D01*
X46843633Y-46622698D01*
X46798420Y-46578759D01*
X46780659Y-46518266D01*
X46794939Y-46456858D01*
X46837570Y-46410410D01*
X46909488Y-46364192D01*
X46956007Y-46334296D01*
X47037413Y-46240348D01*
X47089054Y-46127271D01*
X47106745Y-46004226D01*
X47089054Y-45881181D01*
X47080324Y-45862066D01*
X47037412Y-45768102D01*
X46956009Y-45674157D01*
X46905915Y-45641964D01*
X46851430Y-45606949D01*
X46732155Y-45571926D01*
X46607845Y-45571926D01*
X46526471Y-45595820D01*
X46488570Y-45606949D01*
X46383990Y-45674157D01*
X46302587Y-45768102D01*
X46250945Y-45881180D01*
X46233255Y-46004226D01*
X46250945Y-46127271D01*
X46302587Y-46240349D01*
X46383992Y-46334296D01*
X46502430Y-46410410D01*
X46545061Y-46456858D01*
X46559341Y-46518266D01*
X46541580Y-46578759D01*
X46496367Y-46622698D01*
X46435392Y-46638726D01*
X45405516Y-46638726D01*
X45341263Y-46620780D01*
X45295607Y-46572138D01*
X45281765Y-46506878D01*
X45303741Y-46443889D01*
X45328855Y-46407805D01*
X45409059Y-46220907D01*
X45450000Y-46021689D01*
X45450000Y-45870000D01*
X43450000Y-45870000D01*
X43450000Y-45970710D01*
X43465419Y-46122339D01*
X43526302Y-46316387D01*
X43602988Y-46454548D01*
X43618559Y-46516297D01*
X43601429Y-46577631D01*
X43556115Y-46622374D01*
X43494569Y-46638726D01*
X36765516Y-46638726D01*
X36701263Y-46620780D01*
X36655607Y-46572138D01*
X36641765Y-46506878D01*
X36663741Y-46443889D01*
X36688855Y-46407805D01*
X36769059Y-46220907D01*
X36810000Y-46021689D01*
X36810000Y-45870000D01*
X34810000Y-45870000D01*
X34810000Y-45970710D01*
X34825419Y-46122339D01*
X34886302Y-46316387D01*
X34962988Y-46454548D01*
X34978559Y-46516297D01*
X34961429Y-46577631D01*
X34916115Y-46622374D01*
X34854569Y-46638726D01*
X30194714Y-46638726D01*
X30133739Y-46622698D01*
X30088526Y-46578759D01*
X30070765Y-46518266D01*
X30085045Y-46456858D01*
X30127673Y-46410411D01*
X30206007Y-46360070D01*
X30287413Y-46266122D01*
X30339054Y-46153045D01*
X30356745Y-46030000D01*
X30339054Y-45906955D01*
X30327283Y-45881181D01*
X30287412Y-45793876D01*
X30206009Y-45699931D01*
X30165903Y-45674157D01*
X30101430Y-45632723D01*
X29982155Y-45597700D01*
X29857845Y-45597700D01*
X29739391Y-45632482D01*
X29738570Y-45632723D01*
X29633990Y-45699931D01*
X29552587Y-45793876D01*
X29500945Y-45906954D01*
X29483255Y-46030000D01*
X29500945Y-46153045D01*
X29552587Y-46266123D01*
X29633990Y-46360068D01*
X29633992Y-46360069D01*
X29633993Y-46360070D01*
X29712326Y-46410411D01*
X29754955Y-46456858D01*
X29769235Y-46518266D01*
X29751474Y-46578759D01*
X29706261Y-46622698D01*
X29645286Y-46638726D01*
X23844851Y-46638726D01*
X23834925Y-46638328D01*
X23624309Y-46621414D01*
X23605118Y-46618344D01*
X23404383Y-46569849D01*
X23385905Y-46563818D01*
X23195206Y-46484545D01*
X23177898Y-46475700D01*
X23147226Y-46456858D01*
X23001937Y-46367605D01*
X22986223Y-46356164D01*
X22880998Y-46266123D01*
X22829308Y-46221892D01*
X22815583Y-46208143D01*
X22681581Y-46051002D01*
X22670172Y-46035277D01*
X22562366Y-45859117D01*
X22553559Y-45841810D01*
X22474607Y-45650968D01*
X22468608Y-45632482D01*
X22462485Y-45606949D01*
X22448829Y-45549999D01*
X25343255Y-45549999D01*
X25360945Y-45673045D01*
X25412587Y-45786123D01*
X25493990Y-45880068D01*
X25493992Y-45880069D01*
X25493993Y-45880070D01*
X25598570Y-45947277D01*
X25717845Y-45982300D01*
X25842154Y-45982300D01*
X25842155Y-45982300D01*
X25961430Y-45947277D01*
X26066007Y-45880070D01*
X26081608Y-45862066D01*
X26147412Y-45786123D01*
X26147411Y-45786123D01*
X26147413Y-45786122D01*
X26199054Y-45673045D01*
X26216745Y-45550000D01*
X26199054Y-45426955D01*
X26198527Y-45425802D01*
X26173043Y-45370000D01*
X34810000Y-45370000D01*
X35560000Y-45370000D01*
X35560000Y-44351753D01*
X36060000Y-44351753D01*
X36060000Y-45370000D01*
X36810000Y-45370000D01*
X36810000Y-45269290D01*
X36794580Y-45117660D01*
X36754526Y-44990000D01*
X38013255Y-44990000D01*
X38030945Y-45113045D01*
X38089524Y-45241312D01*
X38100730Y-45292824D01*
X38089524Y-45344336D01*
X38041007Y-45450569D01*
X38023317Y-45573614D01*
X38041007Y-45696660D01*
X38092649Y-45809738D01*
X38174052Y-45903683D01*
X38174054Y-45903684D01*
X38174055Y-45903685D01*
X38278632Y-45970892D01*
X38397907Y-46005915D01*
X38522216Y-46005915D01*
X38522217Y-46005915D01*
X38641492Y-45970892D01*
X38746069Y-45903685D01*
X38766532Y-45880070D01*
X38827474Y-45809738D01*
X38827473Y-45809738D01*
X38827475Y-45809737D01*
X38879116Y-45696660D01*
X38896807Y-45573615D01*
X38879116Y-45450570D01*
X38872132Y-45435278D01*
X38820538Y-45322303D01*
X38809332Y-45270791D01*
X38820538Y-45219279D01*
X38828189Y-45202527D01*
X38869054Y-45113045D01*
X38886745Y-44990000D01*
X38880994Y-44950000D01*
X40093255Y-44950000D01*
X40110945Y-45073045D01*
X40169993Y-45202339D01*
X40169579Y-45202527D01*
X40178624Y-45218194D01*
X40185304Y-45264650D01*
X40174238Y-45310262D01*
X40120945Y-45426954D01*
X40103255Y-45549999D01*
X40120945Y-45673045D01*
X40172587Y-45786123D01*
X40253990Y-45880068D01*
X40253992Y-45880069D01*
X40253993Y-45880070D01*
X40358570Y-45947277D01*
X40477845Y-45982300D01*
X40602154Y-45982300D01*
X40602155Y-45982300D01*
X40721430Y-45947277D01*
X40826007Y-45880070D01*
X40841608Y-45862066D01*
X40907412Y-45786123D01*
X40907411Y-45786123D01*
X40907413Y-45786122D01*
X40959054Y-45673045D01*
X40976745Y-45550000D01*
X40959054Y-45426955D01*
X40958527Y-45425802D01*
X40933043Y-45370000D01*
X43450000Y-45370000D01*
X44200000Y-45370000D01*
X44200000Y-44351753D01*
X44700000Y-44351753D01*
X44700000Y-45370000D01*
X45450000Y-45370000D01*
X45450000Y-45269290D01*
X45434580Y-45117660D01*
X45373696Y-44923610D01*
X45274996Y-44745785D01*
X45142520Y-44591468D01*
X45063109Y-44529999D01*
X46523255Y-44529999D01*
X46540945Y-44653045D01*
X46592587Y-44766123D01*
X46673990Y-44860068D01*
X46673992Y-44860069D01*
X46673993Y-44860070D01*
X46778570Y-44927277D01*
X46897845Y-44962300D01*
X47022154Y-44962300D01*
X47022155Y-44962300D01*
X47141430Y-44927277D01*
X47246007Y-44860070D01*
X47272063Y-44830000D01*
X62943255Y-44830000D01*
X62960945Y-44953045D01*
X63012587Y-45066123D01*
X63093990Y-45160068D01*
X63093992Y-45160069D01*
X63093993Y-45160070D01*
X63198570Y-45227277D01*
X63317845Y-45262300D01*
X63442154Y-45262300D01*
X63442155Y-45262300D01*
X63561430Y-45227277D01*
X63666007Y-45160070D01*
X63671119Y-45154171D01*
X63747412Y-45066123D01*
X63747411Y-45066123D01*
X63747413Y-45066122D01*
X63799054Y-44953045D01*
X63816745Y-44830000D01*
X63799054Y-44706955D01*
X63782177Y-44670000D01*
X64583255Y-44670000D01*
X64600945Y-44793045D01*
X64652587Y-44906123D01*
X64733990Y-45000068D01*
X64733992Y-45000069D01*
X64733993Y-45000070D01*
X64838570Y-45067277D01*
X64957845Y-45102300D01*
X65082154Y-45102300D01*
X65082155Y-45102300D01*
X65201430Y-45067277D01*
X65306007Y-45000070D01*
X65387413Y-44906122D01*
X65439054Y-44793045D01*
X65456745Y-44670000D01*
X65453869Y-44650000D01*
X66393255Y-44650000D01*
X66410945Y-44773045D01*
X66462587Y-44886123D01*
X66543990Y-44980068D01*
X66543992Y-44980069D01*
X66543993Y-44980070D01*
X66648570Y-45047277D01*
X66767845Y-45082300D01*
X66892154Y-45082300D01*
X66892155Y-45082300D01*
X67011430Y-45047277D01*
X67116007Y-44980070D01*
X67197413Y-44886122D01*
X67249054Y-44773045D01*
X67266745Y-44650000D01*
X67249054Y-44526955D01*
X67248227Y-44525145D01*
X67197412Y-44413876D01*
X67116009Y-44319931D01*
X67075466Y-44293876D01*
X67011430Y-44252723D01*
X66892155Y-44217700D01*
X66767845Y-44217700D01*
X66699733Y-44237700D01*
X66648570Y-44252723D01*
X66543990Y-44319931D01*
X66462587Y-44413876D01*
X66410945Y-44526954D01*
X66393255Y-44650000D01*
X65453869Y-44650000D01*
X65439054Y-44546955D01*
X65431310Y-44529999D01*
X65387412Y-44433876D01*
X65306009Y-44339931D01*
X65234348Y-44293878D01*
X65201430Y-44272723D01*
X65082155Y-44237700D01*
X64957845Y-44237700D01*
X64838569Y-44272723D01*
X64838570Y-44272723D01*
X64733990Y-44339931D01*
X64652587Y-44433876D01*
X64600945Y-44546954D01*
X64583255Y-44670000D01*
X63782177Y-44670000D01*
X63747413Y-44593878D01*
X63747412Y-44593877D01*
X63747412Y-44593876D01*
X63666009Y-44499931D01*
X63614732Y-44466978D01*
X63561430Y-44432723D01*
X63442155Y-44397700D01*
X63317845Y-44397700D01*
X63262756Y-44413876D01*
X63198570Y-44432723D01*
X63093990Y-44499931D01*
X63012587Y-44593876D01*
X62960945Y-44706954D01*
X62943255Y-44830000D01*
X47272063Y-44830000D01*
X47327413Y-44766122D01*
X47379054Y-44653045D01*
X47396745Y-44530000D01*
X47379054Y-44406955D01*
X47374827Y-44397700D01*
X47327412Y-44293876D01*
X47246009Y-44199931D01*
X47213854Y-44179267D01*
X47141430Y-44132723D01*
X47022155Y-44097700D01*
X46897845Y-44097700D01*
X46778570Y-44132722D01*
X46778570Y-44132723D01*
X46673990Y-44199931D01*
X46592587Y-44293876D01*
X46540945Y-44406954D01*
X46523255Y-44529999D01*
X45063109Y-44529999D01*
X44981692Y-44466978D01*
X44799094Y-44377410D01*
X44700000Y-44351753D01*
X44200000Y-44351753D01*
X44200000Y-44346634D01*
X44198051Y-44346932D01*
X44007336Y-44417564D01*
X43834736Y-44525145D01*
X43687330Y-44665266D01*
X43571144Y-44832194D01*
X43490940Y-45019092D01*
X43450000Y-45218311D01*
X43450000Y-45370000D01*
X40933043Y-45370000D01*
X40900007Y-45297661D01*
X40900420Y-45297472D01*
X40891376Y-45281806D01*
X40884696Y-45235350D01*
X40895762Y-45189738D01*
X40949054Y-45073045D01*
X40959546Y-45000068D01*
X40966745Y-44950000D01*
X40949054Y-44826955D01*
X40897413Y-44713878D01*
X40897412Y-44713877D01*
X40897412Y-44713876D01*
X40816009Y-44619931D01*
X40719174Y-44557700D01*
X40711430Y-44552723D01*
X40592155Y-44517700D01*
X40467845Y-44517700D01*
X40368217Y-44546954D01*
X40348570Y-44552723D01*
X40243990Y-44619931D01*
X40162587Y-44713876D01*
X40110945Y-44826954D01*
X40093255Y-44950000D01*
X38880994Y-44950000D01*
X38869054Y-44866955D01*
X38850786Y-44826955D01*
X38817412Y-44753876D01*
X38736009Y-44659931D01*
X38703854Y-44639267D01*
X38631430Y-44592723D01*
X38512155Y-44557700D01*
X38387845Y-44557700D01*
X38272844Y-44591468D01*
X38268570Y-44592723D01*
X38163990Y-44659931D01*
X38082587Y-44753876D01*
X38030945Y-44866954D01*
X38013255Y-44990000D01*
X36754526Y-44990000D01*
X36733696Y-44923610D01*
X36634996Y-44745785D01*
X36502520Y-44591468D01*
X36341692Y-44466978D01*
X36159094Y-44377410D01*
X36060000Y-44351753D01*
X35560000Y-44351753D01*
X35560000Y-44346634D01*
X35558051Y-44346932D01*
X35367336Y-44417564D01*
X35194736Y-44525145D01*
X35047330Y-44665266D01*
X34931144Y-44832194D01*
X34850940Y-45019092D01*
X34810000Y-45218311D01*
X34810000Y-45370000D01*
X26173043Y-45370000D01*
X26147412Y-45313876D01*
X26066009Y-45219931D01*
X26013400Y-45186122D01*
X25961430Y-45152723D01*
X25842155Y-45117700D01*
X25717845Y-45117700D01*
X25610316Y-45149274D01*
X25598570Y-45152723D01*
X25493990Y-45219931D01*
X25412587Y-45313876D01*
X25360945Y-45426954D01*
X25343255Y-45549999D01*
X22448829Y-45549999D01*
X22420453Y-45431660D01*
X22417417Y-45412465D01*
X22414079Y-45370000D01*
X22400854Y-45201739D01*
X22400474Y-45192022D01*
X22400474Y-45186122D01*
X22400475Y-45149277D01*
X22400474Y-45149274D01*
X22400474Y-42963366D01*
X36060000Y-42963366D01*
X36061948Y-42963067D01*
X36252663Y-42892435D01*
X36425263Y-42784854D01*
X36572669Y-42644733D01*
X36688856Y-42477804D01*
X36751197Y-42332530D01*
X36782967Y-42288572D01*
X36830460Y-42262380D01*
X36884590Y-42258963D01*
X36934999Y-42278975D01*
X36989199Y-42315928D01*
X37052595Y-42359150D01*
X37175625Y-42397100D01*
X37272005Y-42397100D01*
X37367312Y-42382735D01*
X37483311Y-42326872D01*
X37577692Y-42239300D01*
X37626367Y-42154992D01*
X37666713Y-42112678D01*
X37721966Y-42093555D01*
X37779839Y-42101875D01*
X37827466Y-42135790D01*
X37918737Y-42241122D01*
X37933579Y-42258250D01*
X38056589Y-42337304D01*
X38126738Y-42357901D01*
X38196888Y-42378500D01*
X38196889Y-42378500D01*
X38343111Y-42378500D01*
X38343112Y-42378500D01*
X38395323Y-42363169D01*
X38483411Y-42337304D01*
X38606421Y-42258250D01*
X38702176Y-42147743D01*
X38762919Y-42014734D01*
X38783729Y-41870000D01*
X38762919Y-41725266D01*
X38759643Y-41718093D01*
X38742247Y-41680000D01*
X41063255Y-41680000D01*
X41064429Y-41688162D01*
X41080945Y-41803045D01*
X41132587Y-41916123D01*
X41213990Y-42010068D01*
X41213992Y-42010069D01*
X41213993Y-42010070D01*
X41318570Y-42077277D01*
X41437845Y-42112300D01*
X41562154Y-42112300D01*
X41562155Y-42112300D01*
X41596460Y-42102226D01*
X41649040Y-42098466D01*
X41698433Y-42116888D01*
X41735709Y-42154164D01*
X41754132Y-42203557D01*
X41756271Y-42218434D01*
X41756271Y-42218435D01*
X41756748Y-42221750D01*
X41777080Y-42363169D01*
X41837823Y-42496177D01*
X41933578Y-42606685D01*
X41992783Y-42644733D01*
X42056589Y-42685739D01*
X42126007Y-42706122D01*
X42196888Y-42726935D01*
X42196889Y-42726935D01*
X42343111Y-42726935D01*
X42343112Y-42726935D01*
X42405169Y-42708713D01*
X42483411Y-42685739D01*
X42606421Y-42606685D01*
X42702176Y-42496178D01*
X42727880Y-42439892D01*
X42764463Y-42393590D01*
X42818311Y-42369440D01*
X42877222Y-42372915D01*
X42955625Y-42397100D01*
X43052005Y-42397100D01*
X43147312Y-42382735D01*
X43263311Y-42326872D01*
X43308650Y-42284803D01*
X43362996Y-42255385D01*
X43424794Y-42255851D01*
X43478692Y-42286086D01*
X43511303Y-42338581D01*
X43526303Y-42386390D01*
X43625003Y-42564214D01*
X43757479Y-42718531D01*
X43918307Y-42843021D01*
X44100905Y-42932589D01*
X44199999Y-42958246D01*
X44200000Y-42958247D01*
X44200000Y-41690000D01*
X43402704Y-41690000D01*
X43348903Y-41677720D01*
X43330054Y-41662689D01*
X43329225Y-41663906D01*
X43313784Y-41653378D01*
X43313783Y-41653377D01*
X43207405Y-41580850D01*
X43207404Y-41580849D01*
X43207403Y-41580849D01*
X43084375Y-41542900D01*
X42987995Y-41542900D01*
X42892687Y-41557265D01*
X42776688Y-41613127D01*
X42682306Y-41700701D01*
X42672265Y-41718093D01*
X42625166Y-41764448D01*
X42560945Y-41780027D01*
X42497842Y-41760405D01*
X42483411Y-41751131D01*
X42483410Y-41751130D01*
X42483409Y-41751130D01*
X42343112Y-41709935D01*
X42343111Y-41709935D01*
X42196889Y-41709935D01*
X42196888Y-41709935D01*
X42088719Y-41741696D01*
X42036136Y-41745457D01*
X41986744Y-41727034D01*
X41949468Y-41689758D01*
X41931046Y-41640365D01*
X41919054Y-41556954D01*
X41867412Y-41443876D01*
X41786009Y-41349931D01*
X41753854Y-41329267D01*
X41681430Y-41282723D01*
X41562155Y-41247700D01*
X41437845Y-41247700D01*
X41376595Y-41265685D01*
X41318570Y-41282723D01*
X41213990Y-41349931D01*
X41132587Y-41443876D01*
X41080945Y-41556954D01*
X41065744Y-41662689D01*
X41063255Y-41680000D01*
X38742247Y-41680000D01*
X38702176Y-41592257D01*
X38606421Y-41481749D01*
X38510336Y-41420000D01*
X38483411Y-41402696D01*
X38483410Y-41402695D01*
X38483409Y-41402695D01*
X38343112Y-41361500D01*
X38343111Y-41361500D01*
X38196889Y-41361500D01*
X38196888Y-41361500D01*
X38056590Y-41402695D01*
X37933578Y-41481749D01*
X37837823Y-41592257D01*
X37793229Y-41689905D01*
X37753729Y-41738413D01*
X37695574Y-41761465D01*
X37633567Y-41753194D01*
X37583488Y-41715705D01*
X37533785Y-41653379D01*
X37533784Y-41653378D01*
X37533783Y-41653377D01*
X37427405Y-41580850D01*
X37427404Y-41580849D01*
X37427403Y-41580849D01*
X37304375Y-41542900D01*
X37207995Y-41542900D01*
X37112687Y-41557265D01*
X36996688Y-41613127D01*
X36947537Y-41658733D01*
X36892293Y-41688372D01*
X36861362Y-41687793D01*
X36861362Y-41690000D01*
X36060000Y-41690000D01*
X36060000Y-42963366D01*
X22400474Y-42963366D01*
X22400474Y-42004999D01*
X32578255Y-42004999D01*
X32595945Y-42128045D01*
X32647587Y-42241123D01*
X32728990Y-42335068D01*
X32728992Y-42335069D01*
X32728993Y-42335070D01*
X32833570Y-42402277D01*
X32952845Y-42437300D01*
X33077154Y-42437300D01*
X33077155Y-42437300D01*
X33196430Y-42402277D01*
X33301007Y-42335070D01*
X33303445Y-42332257D01*
X33382412Y-42241123D01*
X33382411Y-42241123D01*
X33382413Y-42241122D01*
X33434054Y-42128045D01*
X33451745Y-42005000D01*
X33434054Y-41881955D01*
X33428594Y-41870000D01*
X33382412Y-41768876D01*
X33314066Y-41690000D01*
X34810000Y-41690000D01*
X34810000Y-42040710D01*
X34825419Y-42192339D01*
X34886303Y-42386389D01*
X34985003Y-42564214D01*
X35117479Y-42718531D01*
X35278307Y-42843021D01*
X35460905Y-42932589D01*
X35559999Y-42958246D01*
X35560000Y-42958247D01*
X35560000Y-41690000D01*
X34810000Y-41690000D01*
X33314066Y-41690000D01*
X33301009Y-41674931D01*
X33204840Y-41613128D01*
X33196430Y-41607723D01*
X33077155Y-41572700D01*
X32952845Y-41572700D01*
X32833569Y-41607723D01*
X32833570Y-41607723D01*
X32728990Y-41674931D01*
X32647587Y-41768876D01*
X32595945Y-41881954D01*
X32578255Y-42004999D01*
X22400474Y-42004999D01*
X22400474Y-41190000D01*
X34810000Y-41190000D01*
X35560000Y-41190000D01*
X35560000Y-39921753D01*
X36060000Y-39921753D01*
X36060000Y-41190000D01*
X36810000Y-41190000D01*
X43450000Y-41190000D01*
X44200000Y-41190000D01*
X44200000Y-39921753D01*
X44700000Y-39921753D01*
X44700000Y-42963366D01*
X44701948Y-42963067D01*
X44892663Y-42892435D01*
X45065263Y-42784854D01*
X45212669Y-42644733D01*
X45287010Y-42537926D01*
X45328483Y-42500413D01*
X45382220Y-42484937D01*
X45437291Y-42494644D01*
X45482498Y-42527561D01*
X45553990Y-42610068D01*
X45553992Y-42610069D01*
X45553993Y-42610070D01*
X45658570Y-42677277D01*
X45777845Y-42712300D01*
X45902154Y-42712300D01*
X45902155Y-42712300D01*
X46021430Y-42677277D01*
X46126007Y-42610070D01*
X46126068Y-42610000D01*
X50086271Y-42610000D01*
X50107080Y-42754734D01*
X50167823Y-42887742D01*
X50263578Y-42998250D01*
X50325083Y-43037776D01*
X50386589Y-43077304D01*
X50456739Y-43097902D01*
X50526888Y-43118500D01*
X50526889Y-43118500D01*
X50673111Y-43118500D01*
X50673112Y-43118500D01*
X50719877Y-43104768D01*
X50813411Y-43077304D01*
X50936421Y-42998250D01*
X51032176Y-42887743D01*
X51092919Y-42754734D01*
X51113729Y-42610000D01*
X51388271Y-42610000D01*
X51409080Y-42754734D01*
X51469823Y-42887742D01*
X51565578Y-42998250D01*
X51627083Y-43037776D01*
X51688589Y-43077304D01*
X51758739Y-43097902D01*
X51828888Y-43118500D01*
X51828889Y-43118500D01*
X51975111Y-43118500D01*
X51975112Y-43118500D01*
X52021877Y-43104768D01*
X52115411Y-43077304D01*
X52238421Y-42998250D01*
X52334176Y-42887743D01*
X52394919Y-42754734D01*
X52407102Y-42669999D01*
X56713771Y-42669999D01*
X56734580Y-42814734D01*
X56795323Y-42947742D01*
X56891078Y-43058250D01*
X56952584Y-43097777D01*
X57014089Y-43137304D01*
X57084239Y-43157902D01*
X57154388Y-43178500D01*
X57154389Y-43178500D01*
X57300611Y-43178500D01*
X57300612Y-43178500D01*
X57347377Y-43164768D01*
X57440911Y-43137304D01*
X57563921Y-43058250D01*
X57659676Y-42947743D01*
X57720419Y-42814734D01*
X57741229Y-42670000D01*
X57741229Y-42669999D01*
X58436271Y-42669999D01*
X58457080Y-42814734D01*
X58517823Y-42947742D01*
X58613578Y-43058250D01*
X58675084Y-43097777D01*
X58736589Y-43137304D01*
X58806739Y-43157902D01*
X58876888Y-43178500D01*
X58876889Y-43178500D01*
X59023111Y-43178500D01*
X59023112Y-43178500D01*
X59069877Y-43164768D01*
X59163411Y-43137304D01*
X59283700Y-43059999D01*
X61013255Y-43059999D01*
X61030945Y-43183045D01*
X61082587Y-43296123D01*
X61163990Y-43390068D01*
X61163992Y-43390069D01*
X61163993Y-43390070D01*
X61268570Y-43457277D01*
X61387845Y-43492300D01*
X61512154Y-43492300D01*
X61512155Y-43492300D01*
X61631430Y-43457277D01*
X61736007Y-43390070D01*
X61817413Y-43296122D01*
X61869054Y-43183045D01*
X61886745Y-43060000D01*
X61869054Y-42936955D01*
X61867060Y-42932589D01*
X61817412Y-42823876D01*
X61736009Y-42729931D01*
X61698961Y-42706122D01*
X61631430Y-42662723D01*
X61512155Y-42627700D01*
X61387845Y-42627700D01*
X61268569Y-42662723D01*
X61268570Y-42662723D01*
X61163990Y-42729931D01*
X61082587Y-42823876D01*
X61030945Y-42936954D01*
X61013255Y-43059999D01*
X59283700Y-43059999D01*
X59286421Y-43058250D01*
X59382176Y-42947743D01*
X59442919Y-42814734D01*
X59463729Y-42670000D01*
X59442919Y-42525266D01*
X59438743Y-42516122D01*
X59417680Y-42470000D01*
X66383255Y-42470000D01*
X66400945Y-42593045D01*
X66452587Y-42706123D01*
X66533990Y-42800068D01*
X66533992Y-42800069D01*
X66533993Y-42800070D01*
X66638570Y-42867277D01*
X66757845Y-42902300D01*
X66882154Y-42902300D01*
X66882155Y-42902300D01*
X67001430Y-42867277D01*
X67106007Y-42800070D01*
X67137368Y-42763878D01*
X67167116Y-42729546D01*
X67187413Y-42706122D01*
X67239054Y-42593045D01*
X67256745Y-42470000D01*
X67239054Y-42346955D01*
X67234646Y-42337304D01*
X67187412Y-42233876D01*
X67106009Y-42139931D01*
X67063602Y-42112678D01*
X67001430Y-42072723D01*
X66882155Y-42037700D01*
X66757845Y-42037700D01*
X66661085Y-42066112D01*
X66638570Y-42072723D01*
X66533990Y-42139931D01*
X66452587Y-42233876D01*
X66400945Y-42346954D01*
X66383255Y-42470000D01*
X59417680Y-42470000D01*
X59382176Y-42392257D01*
X59286421Y-42281749D01*
X59187901Y-42218435D01*
X59163411Y-42202696D01*
X59163410Y-42202695D01*
X59163409Y-42202695D01*
X59023112Y-42161500D01*
X59023111Y-42161500D01*
X58876889Y-42161500D01*
X58876888Y-42161500D01*
X58736590Y-42202695D01*
X58613578Y-42281749D01*
X58517823Y-42392257D01*
X58457080Y-42525265D01*
X58436271Y-42669999D01*
X57741229Y-42669999D01*
X57720419Y-42525266D01*
X57716243Y-42516122D01*
X57659676Y-42392257D01*
X57563921Y-42281749D01*
X57465401Y-42218435D01*
X57440911Y-42202696D01*
X57440910Y-42202695D01*
X57440909Y-42202695D01*
X57300612Y-42161500D01*
X57300611Y-42161500D01*
X57154389Y-42161500D01*
X57154388Y-42161500D01*
X57014090Y-42202695D01*
X56891078Y-42281749D01*
X56795323Y-42392257D01*
X56734580Y-42525265D01*
X56713771Y-42669999D01*
X52407102Y-42669999D01*
X52415729Y-42610000D01*
X52394919Y-42465266D01*
X52382147Y-42437300D01*
X52334176Y-42332257D01*
X52238421Y-42221749D01*
X52123264Y-42147743D01*
X52115411Y-42142696D01*
X52115410Y-42142695D01*
X52115409Y-42142695D01*
X51975112Y-42101500D01*
X51975111Y-42101500D01*
X51828889Y-42101500D01*
X51828888Y-42101500D01*
X51688590Y-42142695D01*
X51565578Y-42221749D01*
X51469823Y-42332257D01*
X51409080Y-42465265D01*
X51388271Y-42610000D01*
X51113729Y-42610000D01*
X51092919Y-42465266D01*
X51080147Y-42437300D01*
X51032176Y-42332257D01*
X50936421Y-42221749D01*
X50821264Y-42147743D01*
X50813411Y-42142696D01*
X50813410Y-42142695D01*
X50813409Y-42142695D01*
X50673112Y-42101500D01*
X50673111Y-42101500D01*
X50526889Y-42101500D01*
X50526888Y-42101500D01*
X50386590Y-42142695D01*
X50263578Y-42221749D01*
X50167823Y-42332257D01*
X50107080Y-42465265D01*
X50086271Y-42610000D01*
X46126068Y-42610000D01*
X46207413Y-42516122D01*
X46259054Y-42403045D01*
X46276745Y-42280000D01*
X46261277Y-42172421D01*
X46259054Y-42156954D01*
X46207413Y-42043879D01*
X46207413Y-42043878D01*
X46174098Y-42005430D01*
X46147307Y-41953462D01*
X46147308Y-41894993D01*
X46174100Y-41843026D01*
X46197413Y-41816122D01*
X46249054Y-41703045D01*
X46266745Y-41580000D01*
X46249054Y-41456955D01*
X46232177Y-41420000D01*
X49973255Y-41420000D01*
X49990945Y-41543045D01*
X50042587Y-41656123D01*
X50123990Y-41750068D01*
X50123992Y-41750069D01*
X50123993Y-41750070D01*
X50228570Y-41817277D01*
X50347845Y-41852300D01*
X50472154Y-41852300D01*
X50472155Y-41852300D01*
X50591430Y-41817277D01*
X50696007Y-41750070D01*
X50777413Y-41656122D01*
X50829054Y-41543045D01*
X50846745Y-41420000D01*
X50845367Y-41410419D01*
X60076271Y-41410419D01*
X60097080Y-41555154D01*
X60157823Y-41688162D01*
X60253578Y-41798670D01*
X60302617Y-41830185D01*
X60376589Y-41877724D01*
X60435402Y-41894993D01*
X60516888Y-41918920D01*
X60516889Y-41918920D01*
X60663111Y-41918920D01*
X60663112Y-41918920D01*
X60744598Y-41894993D01*
X60803411Y-41877724D01*
X60926421Y-41798670D01*
X61022176Y-41688163D01*
X61082919Y-41555154D01*
X61103729Y-41410420D01*
X61082919Y-41265686D01*
X61075723Y-41249930D01*
X61022176Y-41132677D01*
X60926421Y-41022169D01*
X60830716Y-40960664D01*
X60803411Y-40943116D01*
X60803410Y-40943115D01*
X60803409Y-40943115D01*
X60663112Y-40901920D01*
X60663111Y-40901920D01*
X60516889Y-40901920D01*
X60516888Y-40901920D01*
X60376590Y-40943115D01*
X60253578Y-41022169D01*
X60157823Y-41132677D01*
X60097080Y-41265685D01*
X60076271Y-41410419D01*
X50845367Y-41410419D01*
X50829054Y-41296955D01*
X50822554Y-41282723D01*
X50777412Y-41183876D01*
X50696009Y-41089931D01*
X50663854Y-41069267D01*
X50591430Y-41022723D01*
X50472155Y-40987700D01*
X50347845Y-40987700D01*
X50230457Y-41022169D01*
X50228570Y-41022723D01*
X50123990Y-41089931D01*
X50042587Y-41183876D01*
X49990945Y-41296954D01*
X49973255Y-41420000D01*
X46232177Y-41420000D01*
X46197413Y-41343878D01*
X46142345Y-41280326D01*
X46118880Y-41239682D01*
X46112201Y-41193224D01*
X46123266Y-41147614D01*
X46139054Y-41113045D01*
X46156745Y-40990000D01*
X46139054Y-40866955D01*
X46129540Y-40846123D01*
X46087412Y-40753876D01*
X46006009Y-40659931D01*
X45973854Y-40639267D01*
X45901430Y-40592723D01*
X45782155Y-40557700D01*
X45657845Y-40557700D01*
X45657844Y-40557700D01*
X45532883Y-40594392D01*
X45469454Y-40596097D01*
X45413486Y-40566201D01*
X45379634Y-40512533D01*
X45373697Y-40493611D01*
X45293986Y-40349999D01*
X48993255Y-40349999D01*
X49010945Y-40473045D01*
X49062587Y-40586123D01*
X49143990Y-40680068D01*
X49143992Y-40680069D01*
X49143993Y-40680070D01*
X49248570Y-40747277D01*
X49367845Y-40782300D01*
X49492154Y-40782300D01*
X49492155Y-40782300D01*
X49611430Y-40747277D01*
X49716007Y-40680070D01*
X49733458Y-40659931D01*
X49797412Y-40586123D01*
X49797411Y-40586123D01*
X49797413Y-40586122D01*
X49849054Y-40473045D01*
X49866745Y-40350000D01*
X49855243Y-40270000D01*
X50356271Y-40270000D01*
X50358886Y-40288193D01*
X50377080Y-40414734D01*
X50437823Y-40547742D01*
X50533578Y-40658250D01*
X50595084Y-40697777D01*
X50656589Y-40737304D01*
X50690554Y-40747277D01*
X50796888Y-40778500D01*
X50796889Y-40778500D01*
X50943111Y-40778500D01*
X50943112Y-40778500D01*
X50989877Y-40764768D01*
X51083411Y-40737304D01*
X51206421Y-40658250D01*
X51302176Y-40547743D01*
X51362919Y-40414734D01*
X51380853Y-40290000D01*
X51796271Y-40290000D01*
X51817080Y-40434734D01*
X51877823Y-40567742D01*
X51973578Y-40678250D01*
X52035030Y-40717742D01*
X52096589Y-40757304D01*
X52166739Y-40777902D01*
X52236888Y-40798500D01*
X52236889Y-40798500D01*
X52383111Y-40798500D01*
X52383112Y-40798500D01*
X52451224Y-40778500D01*
X52523411Y-40757304D01*
X52646421Y-40678250D01*
X52742176Y-40567743D01*
X52802919Y-40434734D01*
X52823714Y-40290107D01*
X53293362Y-40290107D01*
X53311052Y-40413152D01*
X53362694Y-40526230D01*
X53444097Y-40620175D01*
X53444099Y-40620176D01*
X53444100Y-40620177D01*
X53548677Y-40687384D01*
X53667952Y-40722407D01*
X53792261Y-40722407D01*
X53792262Y-40722407D01*
X53911537Y-40687384D01*
X54016114Y-40620177D01*
X54016116Y-40620175D01*
X54097518Y-40526232D01*
X54097518Y-40526230D01*
X54097520Y-40526229D01*
X54117367Y-40482770D01*
X54148957Y-40440571D01*
X54195226Y-40415307D01*
X54247809Y-40411546D01*
X54297198Y-40429969D01*
X54308570Y-40437277D01*
X54427845Y-40472300D01*
X54552154Y-40472300D01*
X54552155Y-40472300D01*
X54662156Y-40440000D01*
X57496271Y-40440000D01*
X57497189Y-40446382D01*
X57517080Y-40584734D01*
X57577823Y-40717742D01*
X57673578Y-40828250D01*
X57733803Y-40866954D01*
X57796589Y-40907304D01*
X57866738Y-40927901D01*
X57936888Y-40948500D01*
X57936889Y-40948500D01*
X58083111Y-40948500D01*
X58083112Y-40948500D01*
X58129877Y-40934767D01*
X58223411Y-40907304D01*
X58346421Y-40828250D01*
X58442176Y-40717743D01*
X58502919Y-40584734D01*
X58523729Y-40440000D01*
X59105851Y-40440000D01*
X59106769Y-40446382D01*
X59126660Y-40584734D01*
X59187403Y-40717742D01*
X59283158Y-40828250D01*
X59343383Y-40866954D01*
X59406169Y-40907304D01*
X59476318Y-40927901D01*
X59546468Y-40948500D01*
X59546469Y-40948500D01*
X59692691Y-40948500D01*
X59692692Y-40948500D01*
X59739457Y-40934767D01*
X59832991Y-40907304D01*
X59956001Y-40828250D01*
X60051756Y-40717743D01*
X60078126Y-40660000D01*
X62983255Y-40660000D01*
X63000945Y-40783045D01*
X63052587Y-40896123D01*
X63133990Y-40990068D01*
X63133992Y-40990069D01*
X63133993Y-40990070D01*
X63238570Y-41057277D01*
X63357845Y-41092300D01*
X63482154Y-41092300D01*
X63482155Y-41092300D01*
X63601430Y-41057277D01*
X63706007Y-40990070D01*
X63742028Y-40948500D01*
X63787412Y-40896123D01*
X63787411Y-40896123D01*
X63787413Y-40896122D01*
X63839054Y-40783045D01*
X63854062Y-40678654D01*
X63875793Y-40624373D01*
X63919981Y-40586084D01*
X63955117Y-40577560D01*
X63955048Y-40577323D01*
X63972154Y-40572300D01*
X63972155Y-40572300D01*
X64091430Y-40537277D01*
X64196007Y-40470070D01*
X64245327Y-40413152D01*
X64254822Y-40402194D01*
X64277413Y-40376122D01*
X64329054Y-40263045D01*
X64346745Y-40140000D01*
X64329054Y-40016955D01*
X64326908Y-40012257D01*
X64283375Y-39916932D01*
X64277413Y-39903878D01*
X64277412Y-39903877D01*
X64277412Y-39903876D01*
X64196009Y-39809931D01*
X64134146Y-39770175D01*
X64091430Y-39742723D01*
X63972155Y-39707700D01*
X63847845Y-39707700D01*
X63736195Y-39740484D01*
X63728570Y-39742723D01*
X63623990Y-39809931D01*
X63542587Y-39903876D01*
X63490945Y-40016954D01*
X63475937Y-40121346D01*
X63454207Y-40175627D01*
X63410019Y-40213916D01*
X63374882Y-40222439D01*
X63374952Y-40222677D01*
X63357846Y-40227700D01*
X63357845Y-40227700D01*
X63353973Y-40228837D01*
X63238570Y-40262723D01*
X63133990Y-40329931D01*
X63052587Y-40423876D01*
X63000945Y-40536954D01*
X62983255Y-40660000D01*
X60078126Y-40660000D01*
X60112499Y-40584734D01*
X60133309Y-40440000D01*
X60112499Y-40295266D01*
X60110094Y-40290000D01*
X60051756Y-40162257D01*
X59956001Y-40051749D01*
X59832989Y-39972695D01*
X59692692Y-39931500D01*
X59692691Y-39931500D01*
X59546469Y-39931500D01*
X59546468Y-39931500D01*
X59406170Y-39972695D01*
X59283158Y-40051749D01*
X59187403Y-40162257D01*
X59126660Y-40295265D01*
X59105851Y-40439999D01*
X59105851Y-40440000D01*
X58523729Y-40440000D01*
X58502919Y-40295266D01*
X58500514Y-40290000D01*
X58442176Y-40162257D01*
X58346421Y-40051749D01*
X58223409Y-39972695D01*
X58083112Y-39931500D01*
X58083111Y-39931500D01*
X57936889Y-39931500D01*
X57936888Y-39931500D01*
X57796590Y-39972695D01*
X57673578Y-40051749D01*
X57577823Y-40162257D01*
X57517080Y-40295265D01*
X57496271Y-40439999D01*
X57496271Y-40440000D01*
X54662156Y-40440000D01*
X54671430Y-40437277D01*
X54776007Y-40370070D01*
X54810788Y-40329931D01*
X54849523Y-40285228D01*
X54857413Y-40276122D01*
X54909054Y-40163045D01*
X54926745Y-40040000D01*
X54909054Y-39916955D01*
X54909043Y-39916932D01*
X54857412Y-39803876D01*
X54776009Y-39709931D01*
X54743854Y-39689267D01*
X54671430Y-39642723D01*
X54552155Y-39607700D01*
X54427845Y-39607700D01*
X54317741Y-39640030D01*
X54308570Y-39642723D01*
X54203990Y-39709931D01*
X54122587Y-39803876D01*
X54102741Y-39847334D01*
X54056987Y-39900137D01*
X53989948Y-39919822D01*
X53922909Y-39900138D01*
X53911537Y-39892830D01*
X53792262Y-39857807D01*
X53667952Y-39857807D01*
X53548677Y-39892829D01*
X53548677Y-39892830D01*
X53444097Y-39960038D01*
X53362694Y-40053983D01*
X53311052Y-40167061D01*
X53293362Y-40290107D01*
X52823714Y-40290107D01*
X52823729Y-40290000D01*
X52802919Y-40145266D01*
X52800514Y-40140000D01*
X52742176Y-40012257D01*
X52646421Y-39901749D01*
X52523409Y-39822695D01*
X52383112Y-39781500D01*
X52383111Y-39781500D01*
X52236889Y-39781500D01*
X52236888Y-39781500D01*
X52096590Y-39822695D01*
X51973578Y-39901749D01*
X51877823Y-40012257D01*
X51817080Y-40145265D01*
X51796271Y-40290000D01*
X51380853Y-40290000D01*
X51383729Y-40270000D01*
X51365794Y-40145265D01*
X51362919Y-40125265D01*
X51302176Y-39992257D01*
X51206421Y-39881749D01*
X51094667Y-39809930D01*
X51083411Y-39802696D01*
X51083410Y-39802695D01*
X51083409Y-39802695D01*
X50943112Y-39761500D01*
X50943111Y-39761500D01*
X50796889Y-39761500D01*
X50796888Y-39761500D01*
X50656590Y-39802695D01*
X50533578Y-39881749D01*
X50437823Y-39992257D01*
X50377080Y-40125265D01*
X50363109Y-40222439D01*
X50356271Y-40270000D01*
X49855243Y-40270000D01*
X49849054Y-40226955D01*
X49847100Y-40222677D01*
X49797412Y-40113876D01*
X49716009Y-40019931D01*
X49683749Y-39999199D01*
X49611430Y-39952723D01*
X49492155Y-39917700D01*
X49367845Y-39917700D01*
X49266664Y-39947410D01*
X49248570Y-39952723D01*
X49143990Y-40019931D01*
X49062587Y-40113876D01*
X49010945Y-40226954D01*
X48993255Y-40349999D01*
X45293986Y-40349999D01*
X45274995Y-40315783D01*
X45142520Y-40161468D01*
X44981692Y-40036978D01*
X44799094Y-39947410D01*
X44700000Y-39921753D01*
X44200000Y-39921753D01*
X44200000Y-39916634D01*
X44198051Y-39916932D01*
X44007336Y-39987564D01*
X43834736Y-40095145D01*
X43687330Y-40235266D01*
X43571144Y-40402194D01*
X43490940Y-40589092D01*
X43450000Y-40788311D01*
X43450000Y-41190000D01*
X36810000Y-41190000D01*
X36810000Y-40839290D01*
X36794580Y-40687660D01*
X36733696Y-40493610D01*
X36634996Y-40315785D01*
X36502520Y-40161468D01*
X36341692Y-40036978D01*
X36159094Y-39947410D01*
X36060000Y-39921753D01*
X35560000Y-39921753D01*
X35560000Y-39916634D01*
X35558051Y-39916932D01*
X35367336Y-39987564D01*
X35194736Y-40095145D01*
X35047330Y-40235266D01*
X34931144Y-40402194D01*
X34850940Y-40589092D01*
X34810000Y-40788311D01*
X34810000Y-41190000D01*
X22400474Y-41190000D01*
X22400474Y-40610000D01*
X26553255Y-40610000D01*
X26570945Y-40733045D01*
X26622587Y-40846123D01*
X26703990Y-40940068D01*
X26703992Y-40940069D01*
X26703993Y-40940070D01*
X26808570Y-41007277D01*
X26927845Y-41042300D01*
X27052154Y-41042300D01*
X27052155Y-41042300D01*
X27171430Y-41007277D01*
X27276007Y-40940070D01*
X27357413Y-40846122D01*
X27409054Y-40733045D01*
X27426745Y-40610000D01*
X27409054Y-40486955D01*
X27407144Y-40482773D01*
X27357412Y-40373876D01*
X27276009Y-40279931D01*
X27243854Y-40259267D01*
X27171430Y-40212723D01*
X27052155Y-40177700D01*
X26927845Y-40177700D01*
X26903754Y-40184774D01*
X26808570Y-40212723D01*
X26703990Y-40279931D01*
X26622587Y-40373876D01*
X26570945Y-40486954D01*
X26553255Y-40610000D01*
X22400474Y-40610000D01*
X22400474Y-39876154D01*
X31452031Y-39876154D01*
X31452836Y-39881750D01*
X31469721Y-39999199D01*
X31521363Y-40112277D01*
X31602766Y-40206222D01*
X31602768Y-40206223D01*
X31602769Y-40206224D01*
X31707346Y-40273431D01*
X31826621Y-40308454D01*
X31950930Y-40308454D01*
X31950931Y-40308454D01*
X32070206Y-40273431D01*
X32174783Y-40206224D01*
X32219097Y-40155082D01*
X32269474Y-40120105D01*
X32330455Y-40113548D01*
X32387119Y-40137018D01*
X32425603Y-40184774D01*
X32471479Y-40285228D01*
X32552882Y-40379173D01*
X32552884Y-40379174D01*
X32552885Y-40379175D01*
X32657462Y-40446382D01*
X32776737Y-40481405D01*
X32901046Y-40481405D01*
X32901047Y-40481405D01*
X33020322Y-40446382D01*
X33124899Y-40379175D01*
X33127545Y-40376122D01*
X33206304Y-40285228D01*
X33206303Y-40285228D01*
X33206305Y-40285227D01*
X33257946Y-40172150D01*
X33275637Y-40049105D01*
X33257946Y-39926060D01*
X33255097Y-39919822D01*
X33206304Y-39812981D01*
X33124901Y-39719036D01*
X33083298Y-39692300D01*
X33020322Y-39651828D01*
X32901047Y-39616805D01*
X32776737Y-39616805D01*
X32697635Y-39640032D01*
X32657462Y-39651828D01*
X32552882Y-39719036D01*
X32508570Y-39770175D01*
X32458191Y-39805154D01*
X32397211Y-39811710D01*
X32340547Y-39788239D01*
X32302064Y-39740484D01*
X32288110Y-39709930D01*
X32256189Y-39640032D01*
X32256188Y-39640031D01*
X32256188Y-39640030D01*
X32174785Y-39546085D01*
X32142630Y-39525421D01*
X32070206Y-39478877D01*
X31950931Y-39443854D01*
X31826621Y-39443854D01*
X31707346Y-39478876D01*
X31707346Y-39478877D01*
X31602766Y-39546085D01*
X31521363Y-39640030D01*
X31469721Y-39753108D01*
X31454669Y-39857807D01*
X31452031Y-39876154D01*
X22400474Y-39876154D01*
X22400474Y-38992699D01*
X55833255Y-38992699D01*
X55850945Y-39115745D01*
X55902587Y-39228823D01*
X55983990Y-39322768D01*
X55983992Y-39322769D01*
X55983993Y-39322770D01*
X56088570Y-39389977D01*
X56207845Y-39425000D01*
X56332154Y-39425000D01*
X56332155Y-39425000D01*
X56451430Y-39389977D01*
X56556007Y-39322770D01*
X56567014Y-39310068D01*
X56610398Y-39259999D01*
X56637413Y-39228822D01*
X56689054Y-39115745D01*
X56706745Y-38992700D01*
X56704919Y-38980000D01*
X57483255Y-38980000D01*
X57500945Y-39103045D01*
X57552587Y-39216123D01*
X57633990Y-39310068D01*
X57633992Y-39310069D01*
X57633993Y-39310070D01*
X57738570Y-39377277D01*
X57857845Y-39412300D01*
X57982154Y-39412300D01*
X57982155Y-39412300D01*
X58101430Y-39377277D01*
X58206007Y-39310070D01*
X58249394Y-39259999D01*
X60753255Y-39259999D01*
X60770945Y-39383045D01*
X60822587Y-39496123D01*
X60903990Y-39590068D01*
X60903992Y-39590069D01*
X60903993Y-39590070D01*
X61008570Y-39657277D01*
X61127845Y-39692300D01*
X61252154Y-39692300D01*
X61252155Y-39692300D01*
X61371430Y-39657277D01*
X61476007Y-39590070D01*
X61557413Y-39496122D01*
X61609054Y-39383045D01*
X61626745Y-39260000D01*
X61609054Y-39136955D01*
X61557413Y-39023878D01*
X61557412Y-39023877D01*
X61557412Y-39023876D01*
X61476009Y-38929931D01*
X61443854Y-38909267D01*
X61429433Y-38899999D01*
X64053255Y-38899999D01*
X64070945Y-39023045D01*
X64122587Y-39136123D01*
X64203990Y-39230068D01*
X64203992Y-39230069D01*
X64203993Y-39230070D01*
X64308570Y-39297277D01*
X64427845Y-39332300D01*
X64552154Y-39332300D01*
X64552155Y-39332300D01*
X64671430Y-39297277D01*
X64776007Y-39230070D01*
X64777089Y-39228822D01*
X64857412Y-39136123D01*
X64857411Y-39136123D01*
X64857413Y-39136122D01*
X64909054Y-39023045D01*
X64926745Y-38900000D01*
X64909054Y-38776955D01*
X64901881Y-38761249D01*
X64857412Y-38663876D01*
X64776009Y-38569931D01*
X64741416Y-38547700D01*
X64706290Y-38525126D01*
X68796034Y-38525126D01*
X68813724Y-38648172D01*
X68865366Y-38761250D01*
X68946769Y-38855195D01*
X68946771Y-38855196D01*
X68946772Y-38855197D01*
X69051349Y-38922404D01*
X69170624Y-38957427D01*
X69294933Y-38957427D01*
X69294934Y-38957427D01*
X69414209Y-38922404D01*
X69518786Y-38855197D01*
X69600192Y-38761249D01*
X69651833Y-38648172D01*
X69669524Y-38525127D01*
X69651833Y-38402082D01*
X69600192Y-38289005D01*
X69600191Y-38289004D01*
X69600191Y-38289003D01*
X69518788Y-38195058D01*
X69486633Y-38174394D01*
X69414209Y-38127850D01*
X69294934Y-38092827D01*
X69289579Y-38092827D01*
X69222540Y-38073143D01*
X69179284Y-38023223D01*
X69154737Y-38076976D01*
X69095960Y-38114750D01*
X69053304Y-38127276D01*
X69051349Y-38127850D01*
X68946769Y-38195058D01*
X68865366Y-38289003D01*
X68813724Y-38402081D01*
X68796034Y-38525126D01*
X64706290Y-38525126D01*
X64671430Y-38502723D01*
X64552155Y-38467700D01*
X64427845Y-38467700D01*
X64327039Y-38497300D01*
X64308570Y-38502723D01*
X64203990Y-38569931D01*
X64122587Y-38663876D01*
X64070945Y-38776954D01*
X64053255Y-38899999D01*
X61429433Y-38899999D01*
X61371430Y-38862723D01*
X61252155Y-38827700D01*
X61127845Y-38827700D01*
X61034208Y-38855195D01*
X61008570Y-38862723D01*
X60903990Y-38929931D01*
X60822587Y-39023876D01*
X60770945Y-39136954D01*
X60753255Y-39259999D01*
X58249394Y-39259999D01*
X58287413Y-39216122D01*
X58339054Y-39103045D01*
X58356745Y-38980000D01*
X58339054Y-38856955D01*
X58338251Y-38855197D01*
X58287412Y-38743876D01*
X58206009Y-38649931D01*
X58173854Y-38629267D01*
X58101430Y-38582723D01*
X57982155Y-38547700D01*
X57857845Y-38547700D01*
X57814594Y-38560400D01*
X57738570Y-38582723D01*
X57633990Y-38649931D01*
X57552587Y-38743876D01*
X57500945Y-38856954D01*
X57483255Y-38980000D01*
X56704919Y-38980000D01*
X56689054Y-38869655D01*
X56685888Y-38862723D01*
X56637412Y-38756576D01*
X56556009Y-38662631D01*
X56523854Y-38641967D01*
X56451430Y-38595423D01*
X56332155Y-38560400D01*
X56207845Y-38560400D01*
X56088569Y-38595423D01*
X56088570Y-38595423D01*
X55983990Y-38662631D01*
X55902587Y-38756576D01*
X55850945Y-38869654D01*
X55833255Y-38992699D01*
X22400474Y-38992699D01*
X22400474Y-37062500D01*
X23128255Y-37062500D01*
X23145945Y-37185545D01*
X23197587Y-37298623D01*
X23278990Y-37392568D01*
X23278992Y-37392569D01*
X23278993Y-37392570D01*
X23383570Y-37459777D01*
X23502845Y-37494800D01*
X23627154Y-37494800D01*
X23627155Y-37494800D01*
X23746430Y-37459777D01*
X23761643Y-37450000D01*
X27558097Y-37450000D01*
X27575787Y-37573045D01*
X27627429Y-37686123D01*
X27708832Y-37780068D01*
X27708834Y-37780069D01*
X27708835Y-37780070D01*
X27813412Y-37847277D01*
X27932687Y-37882300D01*
X28056996Y-37882300D01*
X28056997Y-37882300D01*
X28176272Y-37847277D01*
X28280849Y-37780070D01*
X28362255Y-37686122D01*
X28413896Y-37573045D01*
X28431587Y-37450000D01*
X28425836Y-37409999D01*
X31923255Y-37409999D01*
X31940945Y-37533045D01*
X31992587Y-37646123D01*
X32073990Y-37740068D01*
X32073992Y-37740069D01*
X32073993Y-37740070D01*
X32178570Y-37807277D01*
X32297845Y-37842300D01*
X32422154Y-37842300D01*
X32422155Y-37842300D01*
X32541430Y-37807277D01*
X32646007Y-37740070D01*
X32654733Y-37730000D01*
X39333255Y-37730000D01*
X39350945Y-37853045D01*
X39402587Y-37966123D01*
X39483990Y-38060068D01*
X39483992Y-38060069D01*
X39483993Y-38060070D01*
X39588570Y-38127277D01*
X39707845Y-38162300D01*
X39832154Y-38162300D01*
X39832155Y-38162300D01*
X39951430Y-38127277D01*
X40048336Y-38065000D01*
X42203255Y-38065000D01*
X42220945Y-38188045D01*
X42272587Y-38301123D01*
X42353990Y-38395068D01*
X42353992Y-38395069D01*
X42353993Y-38395070D01*
X42458570Y-38462277D01*
X42577845Y-38497300D01*
X42702154Y-38497300D01*
X42702155Y-38497300D01*
X42821430Y-38462277D01*
X42856094Y-38440000D01*
X44723255Y-38440000D01*
X44740945Y-38563045D01*
X44792587Y-38676123D01*
X44873990Y-38770068D01*
X44873992Y-38770069D01*
X44873993Y-38770070D01*
X44978570Y-38837277D01*
X45097845Y-38872300D01*
X45222154Y-38872300D01*
X45222155Y-38872300D01*
X45341430Y-38837277D01*
X45446007Y-38770070D01*
X45453651Y-38761249D01*
X45527412Y-38676123D01*
X45527411Y-38676123D01*
X45527413Y-38676122D01*
X45579054Y-38563045D01*
X45596745Y-38440000D01*
X45579054Y-38316955D01*
X45571823Y-38301122D01*
X45527412Y-38203876D01*
X45446009Y-38109931D01*
X45394729Y-38076976D01*
X45341430Y-38042723D01*
X45222155Y-38007700D01*
X45097845Y-38007700D01*
X45044980Y-38023223D01*
X44978570Y-38042723D01*
X44873990Y-38109931D01*
X44792587Y-38203876D01*
X44740945Y-38316954D01*
X44723255Y-38440000D01*
X42856094Y-38440000D01*
X42926007Y-38395070D01*
X43007413Y-38301122D01*
X43059054Y-38188045D01*
X43076745Y-38065000D01*
X43059054Y-37941955D01*
X43023909Y-37864999D01*
X59228255Y-37864999D01*
X59245945Y-37988045D01*
X59297587Y-38101123D01*
X59378990Y-38195068D01*
X59378992Y-38195069D01*
X59378993Y-38195070D01*
X59483570Y-38262277D01*
X59602845Y-38297300D01*
X59727154Y-38297300D01*
X59727155Y-38297300D01*
X59846430Y-38262277D01*
X59951007Y-38195070D01*
X59951018Y-38195058D01*
X60032412Y-38101123D01*
X60032411Y-38101123D01*
X60032413Y-38101122D01*
X60084054Y-37988045D01*
X60101745Y-37865000D01*
X60084054Y-37741955D01*
X60083193Y-37740070D01*
X60032412Y-37628876D01*
X59951009Y-37534931D01*
X59887125Y-37493876D01*
X59846430Y-37467723D01*
X59727155Y-37432700D01*
X59602845Y-37432700D01*
X59510631Y-37459777D01*
X59483570Y-37467723D01*
X59378990Y-37534931D01*
X59297587Y-37628876D01*
X59245945Y-37741954D01*
X59228255Y-37864999D01*
X43023909Y-37864999D01*
X43007413Y-37828878D01*
X43007412Y-37828877D01*
X43007412Y-37828876D01*
X42926009Y-37734931D01*
X42850061Y-37686123D01*
X42821430Y-37667723D01*
X42702155Y-37632700D01*
X42577845Y-37632700D01*
X42458569Y-37667723D01*
X42458570Y-37667723D01*
X42353990Y-37734931D01*
X42272587Y-37828876D01*
X42220945Y-37941954D01*
X42203255Y-38065000D01*
X40048336Y-38065000D01*
X40056007Y-38060070D01*
X40137413Y-37966122D01*
X40189054Y-37853045D01*
X40206745Y-37730000D01*
X40189054Y-37606955D01*
X40179540Y-37586123D01*
X40137412Y-37493876D01*
X40056009Y-37399931D01*
X40023854Y-37379267D01*
X39951430Y-37332723D01*
X39832155Y-37297700D01*
X39707845Y-37297700D01*
X39608217Y-37326954D01*
X39588570Y-37332723D01*
X39483990Y-37399931D01*
X39402587Y-37493876D01*
X39350945Y-37606954D01*
X39333255Y-37730000D01*
X32654733Y-37730000D01*
X32727413Y-37646122D01*
X32779054Y-37533045D01*
X32796745Y-37410000D01*
X32779054Y-37286955D01*
X32740873Y-37203352D01*
X32727412Y-37173876D01*
X32646009Y-37079931D01*
X32600113Y-37050436D01*
X32541430Y-37012723D01*
X32422155Y-36977700D01*
X32297845Y-36977700D01*
X32197468Y-37007174D01*
X32178570Y-37012723D01*
X32073990Y-37079931D01*
X31992587Y-37173876D01*
X31940945Y-37286954D01*
X31923255Y-37409999D01*
X28425836Y-37409999D01*
X28413896Y-37326955D01*
X28409088Y-37316428D01*
X28362254Y-37213876D01*
X28280851Y-37119931D01*
X28246168Y-37097642D01*
X28176272Y-37052723D01*
X28056997Y-37017700D01*
X27932687Y-37017700D01*
X27849260Y-37042197D01*
X27813412Y-37052723D01*
X27708832Y-37119931D01*
X27627429Y-37213876D01*
X27575787Y-37326954D01*
X27558097Y-37450000D01*
X23761643Y-37450000D01*
X23851007Y-37392570D01*
X23853174Y-37390070D01*
X23932412Y-37298623D01*
X23932411Y-37298623D01*
X23932413Y-37298622D01*
X23984054Y-37185545D01*
X24001745Y-37062500D01*
X23984054Y-36939455D01*
X23982912Y-36936955D01*
X23932412Y-36826376D01*
X23851009Y-36732431D01*
X23793967Y-36695773D01*
X23746430Y-36665223D01*
X23627155Y-36630200D01*
X23502845Y-36630200D01*
X23392084Y-36662723D01*
X23383570Y-36665223D01*
X23278990Y-36732431D01*
X23197587Y-36826376D01*
X23145945Y-36939454D01*
X23128255Y-37062500D01*
X22400474Y-37062500D01*
X22400474Y-36572728D01*
X52915113Y-36572728D01*
X52932803Y-36695773D01*
X52984445Y-36808851D01*
X53065847Y-36902795D01*
X53065850Y-36902797D01*
X53065851Y-36902798D01*
X53105811Y-36928478D01*
X53151564Y-36981279D01*
X53161509Y-37050436D01*
X53139953Y-37097642D01*
X53139993Y-37097661D01*
X53080945Y-37226954D01*
X53063255Y-37350000D01*
X53080945Y-37473045D01*
X53132587Y-37586123D01*
X53213990Y-37680068D01*
X53213992Y-37680069D01*
X53213993Y-37680070D01*
X53318570Y-37747277D01*
X53437845Y-37782300D01*
X53562154Y-37782300D01*
X53562155Y-37782300D01*
X53681430Y-37747277D01*
X53786007Y-37680070D01*
X53867413Y-37586122D01*
X53919054Y-37473045D01*
X53936745Y-37350000D01*
X53919054Y-37226955D01*
X53894814Y-37173878D01*
X53867412Y-37113876D01*
X53786008Y-37019930D01*
X53746048Y-36994250D01*
X53708771Y-36956974D01*
X53690348Y-36907580D01*
X53694110Y-36854996D01*
X53719075Y-36809277D01*
X53719270Y-36808851D01*
X53719271Y-36808850D01*
X53770912Y-36695773D01*
X53786532Y-36587129D01*
X53809999Y-36530473D01*
X53857750Y-36491988D01*
X53918103Y-36481094D01*
X53945588Y-36490238D01*
X53946465Y-36487254D01*
X53963568Y-36492276D01*
X53963570Y-36492277D01*
X54082845Y-36527300D01*
X54207154Y-36527300D01*
X54207155Y-36527300D01*
X54326430Y-36492277D01*
X54431007Y-36425070D01*
X54512413Y-36331122D01*
X54564054Y-36218045D01*
X54580223Y-36105582D01*
X54603692Y-36048923D01*
X54651447Y-36010438D01*
X54711804Y-35999548D01*
X54769997Y-36018914D01*
X54798570Y-36037277D01*
X54917845Y-36072300D01*
X55042154Y-36072300D01*
X55042155Y-36072300D01*
X55161430Y-36037277D01*
X55234997Y-35989999D01*
X64473255Y-35989999D01*
X64490945Y-36113045D01*
X64542587Y-36226123D01*
X64623990Y-36320068D01*
X64623992Y-36320069D01*
X64623993Y-36320070D01*
X64728570Y-36387277D01*
X64827412Y-36416300D01*
X64881401Y-36448857D01*
X64912402Y-36503754D01*
X64912402Y-36566799D01*
X64881401Y-36621696D01*
X64827413Y-36654253D01*
X64814493Y-36658047D01*
X64798569Y-36662723D01*
X64693990Y-36729931D01*
X64612587Y-36823876D01*
X64560945Y-36936954D01*
X64543255Y-37060000D01*
X64560945Y-37183045D01*
X64612587Y-37296123D01*
X64693990Y-37390068D01*
X64693992Y-37390069D01*
X64693993Y-37390070D01*
X64798570Y-37457277D01*
X64917845Y-37492300D01*
X65042154Y-37492300D01*
X65042155Y-37492300D01*
X65161430Y-37457277D01*
X65189132Y-37439474D01*
X68681079Y-37439474D01*
X68698769Y-37562519D01*
X68750411Y-37675597D01*
X68831814Y-37769542D01*
X68831816Y-37769543D01*
X68831817Y-37769544D01*
X68936394Y-37836751D01*
X69055669Y-37871774D01*
X69055670Y-37871774D01*
X69061024Y-37871774D01*
X69128063Y-37891458D01*
X69171318Y-37941377D01*
X69195866Y-37887625D01*
X69254642Y-37849850D01*
X69299254Y-37836751D01*
X69403831Y-37769544D01*
X69423126Y-37747277D01*
X69485236Y-37675597D01*
X69485235Y-37675597D01*
X69485237Y-37675596D01*
X69536878Y-37562519D01*
X69554569Y-37439474D01*
X69536878Y-37316429D01*
X69528746Y-37298623D01*
X69485236Y-37203350D01*
X69403833Y-37109405D01*
X69326956Y-37060000D01*
X69299254Y-37042197D01*
X69179979Y-37007174D01*
X69055669Y-37007174D01*
X68936393Y-37042197D01*
X68936394Y-37042197D01*
X68831814Y-37109405D01*
X68750411Y-37203350D01*
X68698769Y-37316428D01*
X68681079Y-37439474D01*
X65189132Y-37439474D01*
X65266007Y-37390070D01*
X65347413Y-37296122D01*
X65399054Y-37183045D01*
X65416745Y-37060000D01*
X65401277Y-36952421D01*
X65399054Y-36936954D01*
X65347412Y-36823876D01*
X65266009Y-36729931D01*
X65212857Y-36695773D01*
X65161430Y-36662723D01*
X65124693Y-36651935D01*
X65062587Y-36633699D01*
X65008598Y-36601141D01*
X64977596Y-36546244D01*
X64977597Y-36483198D01*
X65008600Y-36428301D01*
X65062583Y-36395747D01*
X65091430Y-36387277D01*
X65196007Y-36320070D01*
X65277413Y-36226122D01*
X65329054Y-36113045D01*
X65330930Y-36099999D01*
X65693255Y-36099999D01*
X65710945Y-36223045D01*
X65762587Y-36336123D01*
X65843990Y-36430068D01*
X65843992Y-36430069D01*
X65843993Y-36430070D01*
X65948570Y-36497277D01*
X66067845Y-36532300D01*
X66192154Y-36532300D01*
X66192155Y-36532300D01*
X66311430Y-36497277D01*
X66416007Y-36430070D01*
X66497413Y-36336122D01*
X66549054Y-36223045D01*
X66566745Y-36100000D01*
X66549054Y-35976955D01*
X66546770Y-35971954D01*
X66497412Y-35863876D01*
X66416009Y-35769931D01*
X66362356Y-35735451D01*
X66311430Y-35702723D01*
X66192155Y-35667700D01*
X66067845Y-35667700D01*
X66005260Y-35686077D01*
X65948570Y-35702723D01*
X65843990Y-35769931D01*
X65762587Y-35863876D01*
X65710945Y-35976954D01*
X65693255Y-36099999D01*
X65330930Y-36099999D01*
X65346745Y-35990000D01*
X65329054Y-35866955D01*
X65325365Y-35858878D01*
X65277412Y-35753876D01*
X65196009Y-35659931D01*
X65147340Y-35628654D01*
X65091430Y-35592723D01*
X64972155Y-35557700D01*
X64847845Y-35557700D01*
X64728569Y-35592723D01*
X64728570Y-35592723D01*
X64623990Y-35659931D01*
X64542587Y-35753876D01*
X64490945Y-35866954D01*
X64473255Y-35989999D01*
X55234997Y-35989999D01*
X55266007Y-35970070D01*
X55347413Y-35876122D01*
X55399054Y-35763045D01*
X55416745Y-35640000D01*
X55416744Y-35639999D01*
X55418376Y-35628654D01*
X55440106Y-35574373D01*
X55484294Y-35536085D01*
X55541114Y-35522300D01*
X55632154Y-35522300D01*
X55632155Y-35522300D01*
X55751430Y-35487277D01*
X55856007Y-35420070D01*
X55870038Y-35403878D01*
X55937412Y-35326123D01*
X55937411Y-35326123D01*
X55937413Y-35326122D01*
X55989054Y-35213045D01*
X56006745Y-35090000D01*
X55989054Y-34966955D01*
X55937413Y-34853878D01*
X55937412Y-34853877D01*
X55937412Y-34853876D01*
X55856009Y-34759931D01*
X55797453Y-34722300D01*
X55751430Y-34692723D01*
X55632155Y-34657700D01*
X55507845Y-34657700D01*
X55407117Y-34687277D01*
X55388570Y-34692723D01*
X55283990Y-34759931D01*
X55202587Y-34853876D01*
X55150945Y-34966954D01*
X55131624Y-35101346D01*
X55109894Y-35155627D01*
X55065706Y-35193915D01*
X55008886Y-35207700D01*
X54917845Y-35207700D01*
X54798570Y-35242722D01*
X54798570Y-35242723D01*
X54693990Y-35309931D01*
X54612587Y-35403876D01*
X54560945Y-35516954D01*
X54544777Y-35629414D01*
X54521307Y-35686077D01*
X54473552Y-35724561D01*
X54413195Y-35735451D01*
X54355002Y-35716084D01*
X54326431Y-35697723D01*
X54266792Y-35680211D01*
X54207155Y-35662700D01*
X54082845Y-35662700D01*
X54003232Y-35686077D01*
X53963570Y-35697723D01*
X53858990Y-35764931D01*
X53777587Y-35858876D01*
X53725945Y-35971954D01*
X53710326Y-36080595D01*
X53686860Y-36137252D01*
X53639113Y-36175736D01*
X53578764Y-36186634D01*
X53551269Y-36177489D01*
X53550393Y-36180474D01*
X53533289Y-36175451D01*
X53533288Y-36175451D01*
X53414013Y-36140428D01*
X53289703Y-36140428D01*
X53170427Y-36175451D01*
X53170428Y-36175451D01*
X53065848Y-36242659D01*
X52984445Y-36336604D01*
X52932803Y-36449682D01*
X52915113Y-36572728D01*
X22400474Y-36572728D01*
X22400474Y-35510000D01*
X26123255Y-35510000D01*
X26140945Y-35633045D01*
X26192587Y-35746123D01*
X26273990Y-35840068D01*
X26273992Y-35840069D01*
X26273993Y-35840070D01*
X26378570Y-35907277D01*
X26497845Y-35942300D01*
X26622154Y-35942300D01*
X26622155Y-35942300D01*
X26741430Y-35907277D01*
X26846007Y-35840070D01*
X26927413Y-35746122D01*
X26979054Y-35633045D01*
X26996745Y-35510000D01*
X26979054Y-35386955D01*
X26927413Y-35273878D01*
X26927412Y-35273877D01*
X26927412Y-35273876D01*
X26846009Y-35179931D01*
X26808190Y-35155627D01*
X26741430Y-35112723D01*
X26622155Y-35077700D01*
X26497845Y-35077700D01*
X26417316Y-35101346D01*
X26378570Y-35112723D01*
X26273990Y-35179931D01*
X26192587Y-35273876D01*
X26140945Y-35386954D01*
X26123255Y-35510000D01*
X22400474Y-35510000D01*
X22400474Y-34290000D01*
X23753255Y-34290000D01*
X23770945Y-34413045D01*
X23822587Y-34526123D01*
X23903990Y-34620068D01*
X23903992Y-34620069D01*
X23903993Y-34620070D01*
X24008570Y-34687277D01*
X24127845Y-34722300D01*
X24252154Y-34722300D01*
X24252155Y-34722300D01*
X24371430Y-34687277D01*
X24476007Y-34620070D01*
X24477822Y-34617976D01*
X24557412Y-34526123D01*
X24557411Y-34526123D01*
X24557413Y-34526122D01*
X24609054Y-34413045D01*
X24626745Y-34290000D01*
X24609054Y-34166955D01*
X24557413Y-34053878D01*
X24557412Y-34053877D01*
X24557412Y-34053876D01*
X24476009Y-33959931D01*
X24426870Y-33928352D01*
X24371430Y-33892723D01*
X24252155Y-33857700D01*
X24127845Y-33857700D01*
X24027117Y-33887277D01*
X24008570Y-33892723D01*
X23903990Y-33959931D01*
X23822587Y-34053876D01*
X23770945Y-34166954D01*
X23753255Y-34290000D01*
X22400474Y-34290000D01*
X22400474Y-32717199D01*
X28196055Y-32717199D01*
X28213745Y-32840245D01*
X28265387Y-32953323D01*
X28338840Y-33038093D01*
X28365632Y-33090061D01*
X28365632Y-33148528D01*
X28338841Y-33200497D01*
X28292586Y-33253878D01*
X28240945Y-33366954D01*
X28223255Y-33489999D01*
X28240945Y-33613045D01*
X28292587Y-33726123D01*
X28373990Y-33820068D01*
X28373992Y-33820069D01*
X28373993Y-33820070D01*
X28478570Y-33887277D01*
X28597845Y-33922300D01*
X28722154Y-33922300D01*
X28722155Y-33922300D01*
X28841430Y-33887277D01*
X28946007Y-33820070D01*
X29027413Y-33726122D01*
X29079054Y-33613045D01*
X29096448Y-33492063D01*
X30613256Y-33492063D01*
X30630946Y-33615108D01*
X30682588Y-33728186D01*
X30763991Y-33822131D01*
X30781123Y-33833141D01*
X30822915Y-33878028D01*
X30838084Y-33937452D01*
X30822919Y-33996878D01*
X30795511Y-34026319D01*
X30795668Y-34026455D01*
X30702587Y-34133876D01*
X30650945Y-34246954D01*
X30633255Y-34369999D01*
X30650945Y-34493045D01*
X30702587Y-34606123D01*
X30783990Y-34700068D01*
X30783992Y-34700069D01*
X30783993Y-34700070D01*
X30888570Y-34767277D01*
X31007845Y-34802300D01*
X31132154Y-34802300D01*
X31132155Y-34802300D01*
X31251430Y-34767277D01*
X31356007Y-34700070D01*
X31382064Y-34669999D01*
X36283255Y-34669999D01*
X36300945Y-34793045D01*
X36352587Y-34906123D01*
X36433990Y-35000068D01*
X36433992Y-35000069D01*
X36433993Y-35000070D01*
X36538570Y-35067277D01*
X36657845Y-35102300D01*
X36782154Y-35102300D01*
X36782155Y-35102300D01*
X36901430Y-35067277D01*
X37006007Y-35000070D01*
X37071955Y-34923961D01*
X37114155Y-34892371D01*
X37165667Y-34881165D01*
X37217178Y-34892371D01*
X37259381Y-34923962D01*
X37333993Y-35010070D01*
X37438570Y-35077277D01*
X37557845Y-35112300D01*
X37682154Y-35112300D01*
X37682155Y-35112300D01*
X37801430Y-35077277D01*
X37906007Y-35010070D01*
X37987413Y-34916122D01*
X38039054Y-34803045D01*
X38056745Y-34680000D01*
X38039054Y-34556955D01*
X38034487Y-34546955D01*
X37989387Y-34448200D01*
X39994030Y-34448200D01*
X40011720Y-34571245D01*
X40063362Y-34684323D01*
X40144765Y-34778268D01*
X40144767Y-34778269D01*
X40144768Y-34778270D01*
X40249345Y-34845477D01*
X40368620Y-34880500D01*
X40492929Y-34880500D01*
X40492930Y-34880500D01*
X40582838Y-34854100D01*
X43803255Y-34854100D01*
X43820945Y-34977145D01*
X43872587Y-35090223D01*
X43953990Y-35184168D01*
X43953992Y-35184169D01*
X43953993Y-35184170D01*
X44058570Y-35251377D01*
X44177845Y-35286400D01*
X44302154Y-35286400D01*
X44302155Y-35286400D01*
X44421430Y-35251377D01*
X44526007Y-35184170D01*
X44607413Y-35090222D01*
X44659054Y-34977145D01*
X44676745Y-34854100D01*
X44659054Y-34731055D01*
X44649470Y-34710070D01*
X44607412Y-34617976D01*
X44526009Y-34524031D01*
X44477793Y-34493045D01*
X44421430Y-34456823D01*
X44302155Y-34421800D01*
X44177845Y-34421800D01*
X44102663Y-34443876D01*
X44058570Y-34456823D01*
X43953990Y-34524031D01*
X43872587Y-34617976D01*
X43820945Y-34731054D01*
X43803255Y-34854100D01*
X40582838Y-34854100D01*
X40612205Y-34845477D01*
X40716782Y-34778270D01*
X40717643Y-34777277D01*
X40784544Y-34700068D01*
X40798188Y-34684322D01*
X40849829Y-34571245D01*
X40867520Y-34448200D01*
X40857714Y-34379999D01*
X49177355Y-34379999D01*
X49195045Y-34503045D01*
X49246687Y-34616123D01*
X49328090Y-34710068D01*
X49328092Y-34710069D01*
X49328093Y-34710070D01*
X49432670Y-34777277D01*
X49551945Y-34812300D01*
X49676254Y-34812300D01*
X49676255Y-34812300D01*
X49795530Y-34777277D01*
X49900107Y-34710070D01*
X49981513Y-34616122D01*
X50033154Y-34503045D01*
X50050845Y-34380000D01*
X50033154Y-34256955D01*
X50028927Y-34247700D01*
X49981512Y-34143876D01*
X49900109Y-34049931D01*
X49847155Y-34015900D01*
X49795530Y-33982723D01*
X49676255Y-33947700D01*
X49551945Y-33947700D01*
X49466726Y-33972723D01*
X49432670Y-33982723D01*
X49328090Y-34049931D01*
X49246687Y-34143876D01*
X49195045Y-34256954D01*
X49177355Y-34379999D01*
X40857714Y-34379999D01*
X40849829Y-34325155D01*
X40814115Y-34246954D01*
X40798187Y-34212076D01*
X40716784Y-34118131D01*
X40684629Y-34097467D01*
X40612205Y-34050923D01*
X40492930Y-34015900D01*
X40368620Y-34015900D01*
X40286783Y-34039930D01*
X40249345Y-34050923D01*
X40144765Y-34118131D01*
X40063362Y-34212076D01*
X40011720Y-34325154D01*
X39994030Y-34448200D01*
X37989387Y-34448200D01*
X37987412Y-34443876D01*
X37906009Y-34349931D01*
X37867454Y-34325154D01*
X37801430Y-34282723D01*
X37682155Y-34247700D01*
X37557845Y-34247700D01*
X37472626Y-34272723D01*
X37438570Y-34282723D01*
X37333992Y-34349930D01*
X37268045Y-34426037D01*
X37209266Y-34463811D01*
X37139397Y-34463811D01*
X37080619Y-34426037D01*
X37006007Y-34339930D01*
X36983015Y-34325154D01*
X36901430Y-34272723D01*
X36782155Y-34237700D01*
X36657845Y-34237700D01*
X36592270Y-34256955D01*
X36538570Y-34272723D01*
X36433990Y-34339931D01*
X36352587Y-34433876D01*
X36300945Y-34546954D01*
X36283255Y-34669999D01*
X31382064Y-34669999D01*
X31437413Y-34606122D01*
X31489054Y-34493045D01*
X31506745Y-34370000D01*
X31489054Y-34246955D01*
X31484827Y-34237700D01*
X31437412Y-34133876D01*
X31356008Y-34039930D01*
X31338877Y-34028921D01*
X31297083Y-33984031D01*
X31281916Y-33924603D01*
X31297085Y-33865176D01*
X31324489Y-33835743D01*
X31324333Y-33835608D01*
X31413957Y-33732175D01*
X31417414Y-33728185D01*
X31469055Y-33615108D01*
X31486172Y-33496052D01*
X33817203Y-33496052D01*
X33834893Y-33619097D01*
X33886535Y-33732175D01*
X33967938Y-33826120D01*
X33967940Y-33826121D01*
X33967941Y-33826122D01*
X34072518Y-33893329D01*
X34191793Y-33928352D01*
X34316102Y-33928352D01*
X34316103Y-33928352D01*
X34435378Y-33893329D01*
X34539955Y-33826122D01*
X34543412Y-33822133D01*
X34621360Y-33732175D01*
X34621359Y-33732175D01*
X34621361Y-33732174D01*
X34673002Y-33619097D01*
X34690693Y-33496052D01*
X34673002Y-33373007D01*
X34671180Y-33369018D01*
X34621360Y-33259928D01*
X34539957Y-33165983D01*
X34487544Y-33132300D01*
X34435378Y-33098775D01*
X34316103Y-33063752D01*
X34191793Y-33063752D01*
X34077623Y-33097276D01*
X34072518Y-33098775D01*
X33967938Y-33165983D01*
X33886535Y-33259928D01*
X33834893Y-33373006D01*
X33817203Y-33496052D01*
X31486172Y-33496052D01*
X31486746Y-33492063D01*
X31469055Y-33369018D01*
X31468112Y-33366954D01*
X31417413Y-33255939D01*
X31336010Y-33161994D01*
X31289804Y-33132300D01*
X31231431Y-33094786D01*
X31112156Y-33059763D01*
X30987846Y-33059763D01*
X30884663Y-33090061D01*
X30868571Y-33094786D01*
X30763991Y-33161994D01*
X30682588Y-33255939D01*
X30630946Y-33369017D01*
X30613256Y-33492063D01*
X29096448Y-33492063D01*
X29096745Y-33490000D01*
X29079351Y-33369018D01*
X29079054Y-33366954D01*
X29053233Y-33310416D01*
X29027413Y-33253878D01*
X28953956Y-33169104D01*
X28927166Y-33117138D01*
X28927167Y-33058669D01*
X28953956Y-33006705D01*
X29000213Y-32953322D01*
X29051854Y-32840245D01*
X29069545Y-32717200D01*
X29067072Y-32700000D01*
X34621191Y-32700000D01*
X34638881Y-32823045D01*
X34690523Y-32936123D01*
X34771926Y-33030068D01*
X34771928Y-33030069D01*
X34771929Y-33030070D01*
X34876506Y-33097277D01*
X34995781Y-33132300D01*
X35120090Y-33132300D01*
X35120091Y-33132300D01*
X35239366Y-33097277D01*
X35266250Y-33080000D01*
X61113255Y-33080000D01*
X61130945Y-33203045D01*
X61182587Y-33316123D01*
X61263990Y-33410068D01*
X61263992Y-33410069D01*
X61263993Y-33410070D01*
X61368570Y-33477277D01*
X61487845Y-33512300D01*
X61612154Y-33512300D01*
X61612155Y-33512300D01*
X61731430Y-33477277D01*
X61836007Y-33410070D01*
X61871580Y-33369017D01*
X61917412Y-33316123D01*
X61917411Y-33316123D01*
X61917413Y-33316122D01*
X61969054Y-33203045D01*
X61986745Y-33080000D01*
X61969054Y-32956955D01*
X61967395Y-32953323D01*
X61917412Y-32843876D01*
X61836009Y-32749931D01*
X61803854Y-32729267D01*
X61731430Y-32682723D01*
X61612155Y-32647700D01*
X61487845Y-32647700D01*
X61368569Y-32682723D01*
X61368570Y-32682723D01*
X61263990Y-32749931D01*
X61182587Y-32843876D01*
X61130945Y-32956954D01*
X61113255Y-33080000D01*
X35266250Y-33080000D01*
X35343943Y-33030070D01*
X35425349Y-32936122D01*
X35476990Y-32823045D01*
X35494681Y-32700000D01*
X35476990Y-32576955D01*
X35470297Y-32562300D01*
X35425348Y-32463876D01*
X35343945Y-32369931D01*
X35291532Y-32336248D01*
X35239366Y-32302723D01*
X35120091Y-32267700D01*
X34995781Y-32267700D01*
X34881611Y-32301224D01*
X34876506Y-32302723D01*
X34771926Y-32369931D01*
X34690523Y-32463876D01*
X34638881Y-32576954D01*
X34621191Y-32700000D01*
X29067072Y-32700000D01*
X29051854Y-32594155D01*
X29043998Y-32576954D01*
X29000212Y-32481076D01*
X28918809Y-32387131D01*
X28856058Y-32346804D01*
X28814230Y-32319923D01*
X28694955Y-32284900D01*
X28570645Y-32284900D01*
X28501470Y-32305212D01*
X28451370Y-32319923D01*
X28346790Y-32387131D01*
X28265387Y-32481076D01*
X28213745Y-32594154D01*
X28196055Y-32717199D01*
X22400474Y-32717199D01*
X22400474Y-31630000D01*
X24483255Y-31630000D01*
X24500945Y-31753045D01*
X24552587Y-31866123D01*
X24633990Y-31960068D01*
X24633992Y-31960069D01*
X24633993Y-31960070D01*
X24738570Y-32027277D01*
X24857845Y-32062300D01*
X24982154Y-32062300D01*
X24982155Y-32062300D01*
X25101430Y-32027277D01*
X25206007Y-31960070D01*
X25254638Y-31903947D01*
X27409307Y-31903947D01*
X27426997Y-32026993D01*
X27478639Y-32140071D01*
X27560042Y-32234016D01*
X27560044Y-32234017D01*
X27560045Y-32234018D01*
X27664622Y-32301225D01*
X27783897Y-32336248D01*
X27908206Y-32336248D01*
X27908207Y-32336248D01*
X28027482Y-32301225D01*
X28132059Y-32234018D01*
X28142870Y-32221542D01*
X28204318Y-32150626D01*
X28213465Y-32140070D01*
X28265106Y-32026993D01*
X28282797Y-31903948D01*
X28265106Y-31780903D01*
X28251999Y-31752204D01*
X28213464Y-31667824D01*
X28132061Y-31573879D01*
X28079449Y-31540068D01*
X28027482Y-31506671D01*
X27908207Y-31471648D01*
X27783897Y-31471648D01*
X27680608Y-31501977D01*
X27664622Y-31506671D01*
X27560042Y-31573879D01*
X27478639Y-31667824D01*
X27426997Y-31780902D01*
X27409307Y-31903947D01*
X25254638Y-31903947D01*
X25287413Y-31866122D01*
X25339054Y-31753045D01*
X25356745Y-31630000D01*
X25339587Y-31510659D01*
X25339054Y-31506954D01*
X25287412Y-31393876D01*
X25206009Y-31299931D01*
X25142646Y-31259211D01*
X25101430Y-31232723D01*
X24982155Y-31197700D01*
X24857845Y-31197700D01*
X24782138Y-31219930D01*
X24738570Y-31232723D01*
X24633990Y-31299931D01*
X24552587Y-31393876D01*
X24500945Y-31506954D01*
X24483255Y-31630000D01*
X22400474Y-31630000D01*
X22400474Y-31099999D01*
X29821190Y-31099999D01*
X29838880Y-31223045D01*
X29890522Y-31336123D01*
X29971925Y-31430068D01*
X29971927Y-31430069D01*
X29971928Y-31430070D01*
X30076505Y-31497277D01*
X30195780Y-31532300D01*
X30320089Y-31532300D01*
X30320090Y-31532300D01*
X30439365Y-31497277D01*
X30543942Y-31430070D01*
X30551735Y-31421077D01*
X30625347Y-31336123D01*
X30625346Y-31336123D01*
X30625348Y-31336122D01*
X30676989Y-31223045D01*
X30689578Y-31135489D01*
X31438517Y-31135489D01*
X31456207Y-31258535D01*
X31507849Y-31371613D01*
X31589252Y-31465558D01*
X31589254Y-31465559D01*
X31589255Y-31465560D01*
X31693832Y-31532767D01*
X31813107Y-31567790D01*
X31937416Y-31567790D01*
X31937417Y-31567790D01*
X32056692Y-31532767D01*
X32161269Y-31465560D01*
X32162332Y-31464334D01*
X32242674Y-31371613D01*
X32242673Y-31371613D01*
X32242675Y-31371612D01*
X32294316Y-31258535D01*
X32312007Y-31135490D01*
X32309674Y-31119262D01*
X33002458Y-31119262D01*
X33020148Y-31242307D01*
X33071790Y-31355385D01*
X33143919Y-31438627D01*
X33170711Y-31490595D01*
X33170711Y-31549063D01*
X33143920Y-31601031D01*
X33082586Y-31671814D01*
X33030945Y-31784890D01*
X33013255Y-31907935D01*
X33030945Y-32030981D01*
X33082587Y-32144059D01*
X33163990Y-32238004D01*
X33163992Y-32238005D01*
X33163993Y-32238006D01*
X33268570Y-32305213D01*
X33387845Y-32340236D01*
X33512154Y-32340236D01*
X33512155Y-32340236D01*
X33631430Y-32305213D01*
X33736007Y-32238006D01*
X33750275Y-32221539D01*
X33792474Y-32189949D01*
X33843986Y-32178743D01*
X33895498Y-32189949D01*
X33937700Y-32221541D01*
X33957656Y-32244572D01*
X33957658Y-32244573D01*
X33957659Y-32244574D01*
X34062236Y-32311781D01*
X34181511Y-32346804D01*
X34305820Y-32346804D01*
X34305821Y-32346804D01*
X34425096Y-32311781D01*
X34529673Y-32244574D01*
X34563688Y-32205319D01*
X34611078Y-32150627D01*
X34611077Y-32150627D01*
X34611079Y-32150626D01*
X34662720Y-32037549D01*
X34680411Y-31914504D01*
X34662720Y-31791459D01*
X34660283Y-31786123D01*
X34611078Y-31678380D01*
X34531911Y-31587016D01*
X34505119Y-31535048D01*
X34505119Y-31476580D01*
X34531911Y-31424611D01*
X34534972Y-31421078D01*
X34534974Y-31421077D01*
X34616380Y-31327129D01*
X34668021Y-31214052D01*
X34685712Y-31091007D01*
X34682832Y-31070978D01*
X35393624Y-31070978D01*
X35411314Y-31194023D01*
X35462955Y-31307099D01*
X35554168Y-31412366D01*
X35580959Y-31464334D01*
X35580959Y-31522802D01*
X35554168Y-31574770D01*
X35498402Y-31639127D01*
X35446761Y-31752203D01*
X35429071Y-31875248D01*
X35446761Y-31998294D01*
X35498403Y-32111372D01*
X35579806Y-32205317D01*
X35579808Y-32205318D01*
X35579809Y-32205319D01*
X35684386Y-32272526D01*
X35803661Y-32307549D01*
X35927970Y-32307549D01*
X35927971Y-32307549D01*
X36047246Y-32272526D01*
X36151823Y-32205319D01*
X36233229Y-32111371D01*
X36284870Y-31998294D01*
X36302561Y-31875249D01*
X36284870Y-31752204D01*
X36279076Y-31739518D01*
X36225823Y-31622910D01*
X36228630Y-31621628D01*
X36211377Y-31583845D01*
X36221322Y-31514688D01*
X36267077Y-31461886D01*
X36334116Y-31442202D01*
X36401151Y-31461885D01*
X36468570Y-31505212D01*
X36587845Y-31540235D01*
X36712154Y-31540235D01*
X36712155Y-31540235D01*
X36831430Y-31505212D01*
X36936007Y-31438005D01*
X36963007Y-31406844D01*
X37010633Y-31372929D01*
X37068505Y-31364607D01*
X37123758Y-31383729D01*
X37137262Y-31392407D01*
X37174539Y-31429682D01*
X37192963Y-31479075D01*
X37189203Y-31531657D01*
X37163939Y-31577926D01*
X37082586Y-31671813D01*
X37030945Y-31784889D01*
X37017261Y-31880070D01*
X37013255Y-31907935D01*
X37015478Y-31923401D01*
X37030945Y-32030980D01*
X37082587Y-32144058D01*
X37163990Y-32238003D01*
X37163992Y-32238004D01*
X37163993Y-32238005D01*
X37268570Y-32305212D01*
X37387845Y-32340235D01*
X37512154Y-32340235D01*
X37512155Y-32340235D01*
X37631430Y-32305212D01*
X37736007Y-32238005D01*
X37739464Y-32234016D01*
X37817412Y-32144058D01*
X37817411Y-32144058D01*
X37817413Y-32144057D01*
X37830272Y-32115899D01*
X38833255Y-32115899D01*
X38850945Y-32238945D01*
X38902587Y-32352023D01*
X38983990Y-32445968D01*
X38983992Y-32445969D01*
X38983993Y-32445970D01*
X39088570Y-32513177D01*
X39207845Y-32548200D01*
X39332154Y-32548200D01*
X39332155Y-32548200D01*
X39451430Y-32513177D01*
X39556007Y-32445970D01*
X39637413Y-32352022D01*
X39689054Y-32238945D01*
X39704718Y-32130000D01*
X58203255Y-32130000D01*
X58220945Y-32253045D01*
X58272587Y-32366123D01*
X58353990Y-32460068D01*
X58353992Y-32460069D01*
X58353993Y-32460070D01*
X58458570Y-32527277D01*
X58577845Y-32562300D01*
X58702154Y-32562300D01*
X58702155Y-32562300D01*
X58821430Y-32527277D01*
X58926007Y-32460070D01*
X58938227Y-32445968D01*
X59007412Y-32366123D01*
X59007411Y-32366123D01*
X59007413Y-32366122D01*
X59059054Y-32253045D01*
X59076745Y-32130000D01*
X59075372Y-32120451D01*
X59081927Y-32059470D01*
X59116908Y-32009089D01*
X59171756Y-31981636D01*
X59210016Y-31983004D01*
X59210016Y-31982300D01*
X59352154Y-31982300D01*
X59352155Y-31982300D01*
X59471430Y-31947277D01*
X59576007Y-31880070D01*
X59580185Y-31875249D01*
X59657412Y-31786123D01*
X59657411Y-31786123D01*
X59657413Y-31786122D01*
X59709054Y-31673045D01*
X59726745Y-31550000D01*
X59710643Y-31438004D01*
X59709054Y-31426954D01*
X59657412Y-31313876D01*
X59576009Y-31219931D01*
X59560554Y-31209999D01*
X65703255Y-31209999D01*
X65720945Y-31333045D01*
X65772587Y-31446123D01*
X65853990Y-31540068D01*
X65853992Y-31540069D01*
X65853993Y-31540070D01*
X65958570Y-31607277D01*
X66077845Y-31642300D01*
X66202154Y-31642300D01*
X66202155Y-31642300D01*
X66321430Y-31607277D01*
X66426007Y-31540070D01*
X66439486Y-31524515D01*
X66499411Y-31455357D01*
X66507413Y-31446122D01*
X66559054Y-31333045D01*
X66576745Y-31210000D01*
X66559637Y-31091007D01*
X66559054Y-31086954D01*
X66507412Y-30973876D01*
X66426009Y-30879931D01*
X66368528Y-30842991D01*
X66321430Y-30812723D01*
X66202155Y-30777700D01*
X66077845Y-30777700D01*
X65984456Y-30805122D01*
X65958570Y-30812723D01*
X65853990Y-30879931D01*
X65772587Y-30973876D01*
X65720945Y-31086954D01*
X65703255Y-31209999D01*
X59560554Y-31209999D01*
X59541416Y-31197700D01*
X59471430Y-31152723D01*
X59352155Y-31117700D01*
X59227845Y-31117700D01*
X59108570Y-31152722D01*
X59108570Y-31152723D01*
X59003990Y-31219931D01*
X58922587Y-31313876D01*
X58870945Y-31426954D01*
X58853255Y-31550000D01*
X58854628Y-31559550D01*
X58848071Y-31620530D01*
X58813092Y-31670909D01*
X58758247Y-31698362D01*
X58719984Y-31696995D01*
X58719984Y-31697700D01*
X58702155Y-31697700D01*
X58577845Y-31697700D01*
X58458570Y-31732722D01*
X58458570Y-31732723D01*
X58353990Y-31799931D01*
X58272587Y-31893876D01*
X58220945Y-32006954D01*
X58203255Y-32130000D01*
X39704718Y-32130000D01*
X39706745Y-32115900D01*
X39689054Y-31992855D01*
X39684555Y-31983004D01*
X39637412Y-31879776D01*
X39556009Y-31785831D01*
X39503682Y-31752203D01*
X39451430Y-31718623D01*
X39332155Y-31683600D01*
X39207845Y-31683600D01*
X39088569Y-31718623D01*
X39088570Y-31718623D01*
X38983990Y-31785831D01*
X38902587Y-31879776D01*
X38850945Y-31992854D01*
X38833255Y-32115899D01*
X37830272Y-32115899D01*
X37869054Y-32030980D01*
X37886745Y-31907935D01*
X37871216Y-31799930D01*
X37869054Y-31784889D01*
X37817412Y-31671811D01*
X37736006Y-31577863D01*
X37735158Y-31577318D01*
X37689404Y-31524515D01*
X37679461Y-31455357D01*
X37708484Y-31391803D01*
X37729917Y-31367068D01*
X37772116Y-31335479D01*
X37823628Y-31324273D01*
X37875140Y-31335479D01*
X37917339Y-31367069D01*
X37971929Y-31430069D01*
X38076506Y-31497276D01*
X38195781Y-31532299D01*
X38320090Y-31532299D01*
X38320091Y-31532299D01*
X38439366Y-31497276D01*
X38543943Y-31430069D01*
X38544279Y-31429682D01*
X38625348Y-31336122D01*
X38625347Y-31336122D01*
X38625349Y-31336121D01*
X38676990Y-31223044D01*
X38694681Y-31099999D01*
X38680303Y-31000000D01*
X56173255Y-31000000D01*
X56190945Y-31123045D01*
X56242587Y-31236123D01*
X56323990Y-31330068D01*
X56323992Y-31330069D01*
X56323993Y-31330070D01*
X56428570Y-31397277D01*
X56547845Y-31432300D01*
X56672154Y-31432300D01*
X56672155Y-31432300D01*
X56791430Y-31397277D01*
X56896007Y-31330070D01*
X56898556Y-31327129D01*
X56977412Y-31236123D01*
X56977411Y-31236123D01*
X56977413Y-31236122D01*
X57029054Y-31123045D01*
X57046745Y-31000000D01*
X57029054Y-30876955D01*
X57026084Y-30870452D01*
X56977412Y-30763876D01*
X56896009Y-30669931D01*
X56848999Y-30639720D01*
X56791430Y-30602723D01*
X56672155Y-30567700D01*
X56547845Y-30567700D01*
X56479559Y-30587751D01*
X56428570Y-30602723D01*
X56323990Y-30669931D01*
X56242587Y-30763876D01*
X56190945Y-30876954D01*
X56173255Y-31000000D01*
X38680303Y-31000000D01*
X38676990Y-30976954D01*
X38675585Y-30973878D01*
X38625348Y-30863875D01*
X38543945Y-30769930D01*
X38498785Y-30740908D01*
X38439366Y-30702722D01*
X38320091Y-30667699D01*
X38195781Y-30667699D01*
X38102321Y-30695142D01*
X38076506Y-30702722D01*
X37971925Y-30769930D01*
X37950444Y-30794722D01*
X37908242Y-30826314D01*
X37856729Y-30837519D01*
X37805217Y-30826312D01*
X37763016Y-30794718D01*
X37751975Y-30781975D01*
X37725186Y-30730007D01*
X37725187Y-30671540D01*
X37751978Y-30619573D01*
X37817413Y-30544057D01*
X37869054Y-30430980D01*
X37886745Y-30307935D01*
X37869054Y-30184890D01*
X37868211Y-30183045D01*
X37817413Y-30071813D01*
X37807176Y-30059999D01*
X44453255Y-30059999D01*
X44470945Y-30183045D01*
X44522587Y-30296123D01*
X44603990Y-30390068D01*
X44603992Y-30390069D01*
X44603993Y-30390070D01*
X44708570Y-30457277D01*
X44827845Y-30492300D01*
X44952154Y-30492300D01*
X44952155Y-30492300D01*
X45071430Y-30457277D01*
X45176007Y-30390070D01*
X45257413Y-30296122D01*
X45309054Y-30183045D01*
X45326745Y-30060000D01*
X45309054Y-29936955D01*
X45306928Y-29932300D01*
X45260208Y-29829999D01*
X49073255Y-29829999D01*
X49090945Y-29953045D01*
X49142587Y-30066123D01*
X49223990Y-30160068D01*
X49223992Y-30160069D01*
X49223993Y-30160070D01*
X49328570Y-30227277D01*
X49447845Y-30262300D01*
X49572154Y-30262300D01*
X49572155Y-30262300D01*
X49691430Y-30227277D01*
X49796007Y-30160070D01*
X49877413Y-30066122D01*
X49929054Y-29953045D01*
X49946745Y-29830000D01*
X49935674Y-29753000D01*
X52696255Y-29753000D01*
X52713945Y-29876045D01*
X52765587Y-29989123D01*
X52846990Y-30083068D01*
X52846992Y-30083069D01*
X52846993Y-30083070D01*
X52951570Y-30150277D01*
X53070845Y-30185300D01*
X53195154Y-30185300D01*
X53195155Y-30185300D01*
X53314430Y-30150277D01*
X53419007Y-30083070D01*
X53433693Y-30066122D01*
X53484682Y-30007277D01*
X53500413Y-29989122D01*
X53552054Y-29876045D01*
X53569745Y-29753000D01*
X53552054Y-29629955D01*
X53551024Y-29627700D01*
X53542941Y-29610000D01*
X61903255Y-29610000D01*
X61920945Y-29733045D01*
X61972587Y-29846123D01*
X62053990Y-29940068D01*
X62053992Y-29940069D01*
X62053993Y-29940070D01*
X62158570Y-30007277D01*
X62277845Y-30042300D01*
X62402154Y-30042300D01*
X62402155Y-30042300D01*
X62521430Y-30007277D01*
X62626007Y-29940070D01*
X62635397Y-29929234D01*
X62707412Y-29846123D01*
X62707411Y-29846123D01*
X62707413Y-29846122D01*
X62759054Y-29733045D01*
X62776745Y-29610000D01*
X62759054Y-29486955D01*
X62758198Y-29485081D01*
X62707412Y-29373876D01*
X62626009Y-29279931D01*
X62588681Y-29255942D01*
X62521430Y-29212723D01*
X62402155Y-29177700D01*
X62277845Y-29177700D01*
X62190014Y-29203490D01*
X62158570Y-29212723D01*
X62053990Y-29279931D01*
X61972587Y-29373876D01*
X61920945Y-29486954D01*
X61903255Y-29610000D01*
X53542941Y-29610000D01*
X53500412Y-29516876D01*
X53419009Y-29422931D01*
X53379748Y-29397700D01*
X53314430Y-29355723D01*
X53195155Y-29320700D01*
X53070845Y-29320700D01*
X52952227Y-29355530D01*
X52951570Y-29355723D01*
X52846990Y-29422931D01*
X52765587Y-29516876D01*
X52713945Y-29629954D01*
X52696255Y-29753000D01*
X49935674Y-29753000D01*
X49929054Y-29706955D01*
X49922021Y-29691556D01*
X49877412Y-29593876D01*
X49796009Y-29499931D01*
X49762778Y-29478575D01*
X49691430Y-29432723D01*
X49572155Y-29397700D01*
X49447845Y-29397700D01*
X49361918Y-29422931D01*
X49328570Y-29432723D01*
X49223990Y-29499931D01*
X49142587Y-29593876D01*
X49090945Y-29706954D01*
X49073255Y-29829999D01*
X45260208Y-29829999D01*
X45257412Y-29823876D01*
X45164332Y-29716455D01*
X45166105Y-29714918D01*
X45144355Y-29691556D01*
X45129189Y-29632129D01*
X45144358Y-29572703D01*
X45186149Y-29527817D01*
X45276007Y-29470070D01*
X45357413Y-29376122D01*
X45409054Y-29263045D01*
X45426745Y-29140000D01*
X45410940Y-29030070D01*
X45409054Y-29016954D01*
X45357412Y-28903876D01*
X45316770Y-28856972D01*
X45289978Y-28805004D01*
X45289978Y-28746536D01*
X45316770Y-28694567D01*
X45367413Y-28636122D01*
X45419054Y-28523045D01*
X45436745Y-28400000D01*
X45421597Y-28294644D01*
X45419054Y-28276954D01*
X45367412Y-28163876D01*
X45286009Y-28069931D01*
X45236070Y-28037838D01*
X45190667Y-28008659D01*
X62581915Y-28008659D01*
X62599605Y-28131705D01*
X62651247Y-28244783D01*
X62732650Y-28338728D01*
X62751775Y-28351019D01*
X62792123Y-28393335D01*
X62808596Y-28449435D01*
X62797530Y-28506847D01*
X62760945Y-28586954D01*
X62743255Y-28709999D01*
X62760945Y-28833045D01*
X62812587Y-28946123D01*
X62893990Y-29040068D01*
X62893992Y-29040069D01*
X62893993Y-29040070D01*
X62998570Y-29107277D01*
X63117845Y-29142300D01*
X63242154Y-29142300D01*
X63242155Y-29142300D01*
X63361430Y-29107277D01*
X63466007Y-29040070D01*
X63467796Y-29038006D01*
X63520277Y-28977437D01*
X63547413Y-28946122D01*
X63599054Y-28833045D01*
X63616745Y-28710000D01*
X63599054Y-28586955D01*
X63598110Y-28584889D01*
X63547412Y-28473876D01*
X63466010Y-28379932D01*
X63462795Y-28377866D01*
X63446882Y-28367639D01*
X63406536Y-28325326D01*
X63390063Y-28269225D01*
X63401128Y-28211815D01*
X63437714Y-28131705D01*
X63455405Y-28008660D01*
X63438566Y-27891542D01*
X63437714Y-27885614D01*
X63387878Y-27776490D01*
X63386073Y-27772538D01*
X63386072Y-27772537D01*
X63386072Y-27772536D01*
X63383875Y-27770000D01*
X64073255Y-27770000D01*
X64090945Y-27893045D01*
X64142587Y-28006123D01*
X64223990Y-28100068D01*
X64223992Y-28100069D01*
X64223993Y-28100070D01*
X64328570Y-28167277D01*
X64447845Y-28202300D01*
X64572154Y-28202300D01*
X64572155Y-28202300D01*
X64691430Y-28167277D01*
X64796007Y-28100070D01*
X64822123Y-28069931D01*
X64877412Y-28006123D01*
X64877411Y-28006123D01*
X64877413Y-28006122D01*
X64929054Y-27893045D01*
X64946745Y-27770000D01*
X64929054Y-27646955D01*
X64895908Y-27574377D01*
X64877412Y-27533876D01*
X64799945Y-27444474D01*
X67285230Y-27444474D01*
X67302920Y-27567520D01*
X67354562Y-27680598D01*
X67435965Y-27774543D01*
X67435967Y-27774544D01*
X67435968Y-27774545D01*
X67540545Y-27841752D01*
X67659820Y-27876775D01*
X67784129Y-27876775D01*
X67784130Y-27876775D01*
X67903405Y-27841752D01*
X68007982Y-27774545D01*
X68018462Y-27762451D01*
X68089387Y-27680598D01*
X68089386Y-27680598D01*
X68089388Y-27680597D01*
X68141029Y-27567520D01*
X68158720Y-27444475D01*
X68141704Y-27326122D01*
X68141029Y-27321429D01*
X68089387Y-27208351D01*
X68007984Y-27114406D01*
X67927427Y-27062636D01*
X67903405Y-27047198D01*
X67784130Y-27012175D01*
X67659820Y-27012175D01*
X67572892Y-27037700D01*
X67540545Y-27047198D01*
X67435965Y-27114406D01*
X67354562Y-27208351D01*
X67302920Y-27321429D01*
X67285230Y-27444474D01*
X64799945Y-27444474D01*
X64796009Y-27439931D01*
X64755436Y-27413857D01*
X64691430Y-27372723D01*
X64572155Y-27337700D01*
X64447845Y-27337700D01*
X64364319Y-27362226D01*
X64328570Y-27372723D01*
X64223990Y-27439931D01*
X64142587Y-27533876D01*
X64090945Y-27646954D01*
X64073255Y-27770000D01*
X63383875Y-27770000D01*
X63304669Y-27678591D01*
X63272514Y-27657927D01*
X63200090Y-27611383D01*
X63080815Y-27576360D01*
X62956505Y-27576360D01*
X62837230Y-27611382D01*
X62837230Y-27611383D01*
X62732650Y-27678591D01*
X62651247Y-27772536D01*
X62599605Y-27885614D01*
X62581915Y-28008659D01*
X45190667Y-28008659D01*
X45181430Y-28002723D01*
X45062155Y-27967700D01*
X44937845Y-27967700D01*
X44818570Y-28002722D01*
X44818570Y-28002723D01*
X44713990Y-28069931D01*
X44632587Y-28163876D01*
X44580945Y-28276954D01*
X44565739Y-28382723D01*
X44563255Y-28400000D01*
X44564109Y-28405937D01*
X44580945Y-28523045D01*
X44632586Y-28636120D01*
X44632587Y-28636122D01*
X44673230Y-28683027D01*
X44700022Y-28734994D01*
X44700022Y-28793462D01*
X44673231Y-28845431D01*
X44622586Y-28903878D01*
X44570945Y-29016954D01*
X44553255Y-29140000D01*
X44570945Y-29263045D01*
X44622587Y-29376123D01*
X44715668Y-29483545D01*
X44713894Y-29485081D01*
X44735641Y-29508439D01*
X44750810Y-29567866D01*
X44735642Y-29627294D01*
X44693849Y-29672183D01*
X44603991Y-29729930D01*
X44522587Y-29823876D01*
X44470945Y-29936954D01*
X44453255Y-30059999D01*
X37807176Y-30059999D01*
X37763791Y-30009930D01*
X37738897Y-29981200D01*
X37712107Y-29929234D01*
X37712107Y-29870766D01*
X37738898Y-29818798D01*
X37817414Y-29728186D01*
X37869055Y-29615109D01*
X37886746Y-29492064D01*
X37869055Y-29369019D01*
X37862895Y-29355531D01*
X37817413Y-29255940D01*
X37736010Y-29161995D01*
X37688083Y-29131195D01*
X37631431Y-29094787D01*
X37512156Y-29059764D01*
X37387846Y-29059764D01*
X37324393Y-29078396D01*
X37268571Y-29094787D01*
X37163991Y-29161995D01*
X37082588Y-29255940D01*
X37030946Y-29369018D01*
X37013256Y-29492064D01*
X37030946Y-29615109D01*
X37082587Y-29728185D01*
X37161101Y-29818795D01*
X37187893Y-29870764D01*
X37187893Y-29929231D01*
X37161102Y-29981200D01*
X37082586Y-30071813D01*
X37030945Y-30184889D01*
X37013255Y-30307935D01*
X37030945Y-30430980D01*
X37082587Y-30544058D01*
X37120447Y-30587751D01*
X37147239Y-30639720D01*
X37147238Y-30698189D01*
X37120446Y-30750157D01*
X37109415Y-30762887D01*
X37061788Y-30796801D01*
X37003916Y-30805122D01*
X36948664Y-30785999D01*
X36923658Y-30769929D01*
X36831430Y-30710658D01*
X36712155Y-30675635D01*
X36587845Y-30675635D01*
X36521412Y-30695142D01*
X36468570Y-30710658D01*
X36363989Y-30777866D01*
X36349908Y-30794118D01*
X36291130Y-30831892D01*
X36221261Y-30831892D01*
X36162483Y-30794118D01*
X36116376Y-30740908D01*
X36102085Y-30731724D01*
X36011799Y-30673701D01*
X35892524Y-30638678D01*
X35768214Y-30638678D01*
X35728455Y-30650352D01*
X35648937Y-30673701D01*
X35570961Y-30723813D01*
X35511001Y-30743295D01*
X35452342Y-30731408D01*
X35469990Y-30780868D01*
X35459240Y-30842991D01*
X35411314Y-30947934D01*
X35393624Y-31070978D01*
X34682832Y-31070978D01*
X34668021Y-30967962D01*
X34658874Y-30947934D01*
X34626459Y-30876955D01*
X34623488Y-30870451D01*
X34612738Y-30808330D01*
X34633924Y-30748950D01*
X34681571Y-30707663D01*
X34743362Y-30695142D01*
X34803319Y-30714623D01*
X34838570Y-30737277D01*
X34957845Y-30772300D01*
X35082154Y-30772300D01*
X35082155Y-30772300D01*
X35201430Y-30737277D01*
X35279407Y-30687164D01*
X35339366Y-30667682D01*
X35398024Y-30679567D01*
X35380378Y-30630107D01*
X35391129Y-30567985D01*
X35439054Y-30463045D01*
X35454869Y-30353045D01*
X35456745Y-30340000D01*
X35439054Y-30216955D01*
X35424410Y-30184890D01*
X35387412Y-30103876D01*
X35306009Y-30009931D01*
X35273629Y-29989122D01*
X35201430Y-29942723D01*
X35082155Y-29907700D01*
X34957845Y-29907700D01*
X34874067Y-29932300D01*
X34838570Y-29942723D01*
X34733990Y-30009931D01*
X34652587Y-30103876D01*
X34600945Y-30216954D01*
X34583255Y-30340000D01*
X34600945Y-30463045D01*
X34645477Y-30560554D01*
X34656228Y-30622677D01*
X34635042Y-30682056D01*
X34587395Y-30723343D01*
X34525605Y-30735864D01*
X34465644Y-30716382D01*
X34430397Y-30693730D01*
X34311122Y-30658707D01*
X34186812Y-30658707D01*
X34089895Y-30687165D01*
X34067537Y-30693730D01*
X33962959Y-30760937D01*
X33925556Y-30804103D01*
X33883354Y-30835695D01*
X33831842Y-30846900D01*
X33780330Y-30835694D01*
X33738129Y-30804102D01*
X33725210Y-30789192D01*
X33725209Y-30789191D01*
X33718285Y-30781200D01*
X33691495Y-30729231D01*
X33691496Y-30670764D01*
X33718287Y-30618796D01*
X33725206Y-30610810D01*
X33725210Y-30610808D01*
X33806616Y-30516860D01*
X33858257Y-30403783D01*
X33875948Y-30280738D01*
X33858599Y-30160070D01*
X33858257Y-30157692D01*
X33806615Y-30044614D01*
X33725212Y-29950669D01*
X33663292Y-29910876D01*
X33620633Y-29883461D01*
X33501358Y-29848438D01*
X33377048Y-29848438D01*
X33283683Y-29875853D01*
X33257773Y-29883461D01*
X33153193Y-29950669D01*
X33071790Y-30044614D01*
X33020148Y-30157692D01*
X33002458Y-30280737D01*
X33020148Y-30403783D01*
X33071789Y-30516859D01*
X33071790Y-30516860D01*
X33146190Y-30602723D01*
X33160118Y-30618796D01*
X33186910Y-30670765D01*
X33186910Y-30729232D01*
X33160119Y-30781201D01*
X33071789Y-30883140D01*
X33020148Y-30996216D01*
X33002458Y-31119262D01*
X32309674Y-31119262D01*
X32294316Y-31012445D01*
X32286904Y-30996216D01*
X32242674Y-30899366D01*
X32161271Y-30805421D01*
X32109733Y-30772300D01*
X32056692Y-30738213D01*
X31937417Y-30703190D01*
X31813107Y-30703190D01*
X31724418Y-30729232D01*
X31693832Y-30738213D01*
X31589252Y-30805421D01*
X31507849Y-30899366D01*
X31456207Y-31012444D01*
X31438517Y-31135489D01*
X30689578Y-31135489D01*
X30694680Y-31100000D01*
X30676989Y-30976955D01*
X30676988Y-30976953D01*
X30625347Y-30863876D01*
X30543944Y-30769931D01*
X30502497Y-30743295D01*
X30439365Y-30702723D01*
X30320090Y-30667700D01*
X30195780Y-30667700D01*
X30129490Y-30687165D01*
X30076505Y-30702723D01*
X29971925Y-30769931D01*
X29890522Y-30863876D01*
X29838880Y-30976954D01*
X29821190Y-31099999D01*
X22400474Y-31099999D01*
X22400474Y-30230000D01*
X24483255Y-30230000D01*
X24500945Y-30353045D01*
X24552587Y-30466123D01*
X24633990Y-30560068D01*
X24633992Y-30560069D01*
X24633993Y-30560070D01*
X24738570Y-30627277D01*
X24857845Y-30662300D01*
X24982154Y-30662300D01*
X24982155Y-30662300D01*
X25101430Y-30627277D01*
X25206007Y-30560070D01*
X25219882Y-30544058D01*
X25287412Y-30466123D01*
X25287411Y-30466123D01*
X25287413Y-30466122D01*
X25339054Y-30353045D01*
X25356745Y-30230000D01*
X25339054Y-30106955D01*
X25320406Y-30066123D01*
X25287412Y-29993876D01*
X25206009Y-29899931D01*
X25168541Y-29875852D01*
X25101430Y-29832723D01*
X24982155Y-29797700D01*
X24857845Y-29797700D01*
X24747847Y-29829999D01*
X24738570Y-29832723D01*
X24633990Y-29899931D01*
X24552587Y-29993876D01*
X24500945Y-30106954D01*
X24483255Y-30230000D01*
X22400474Y-30230000D01*
X22400474Y-29500000D01*
X26605319Y-29500000D01*
X26623009Y-29623045D01*
X26674651Y-29736123D01*
X26756054Y-29830068D01*
X26756056Y-29830069D01*
X26756057Y-29830070D01*
X26860634Y-29897277D01*
X26979909Y-29932300D01*
X27104218Y-29932300D01*
X27104219Y-29932300D01*
X27223494Y-29897277D01*
X27328071Y-29830070D01*
X27333437Y-29823878D01*
X27409476Y-29736123D01*
X27409475Y-29736123D01*
X27409477Y-29736122D01*
X27461118Y-29623045D01*
X27478809Y-29500000D01*
X27461118Y-29376955D01*
X27457493Y-29369018D01*
X27409476Y-29263876D01*
X27328073Y-29169931D01*
X27294734Y-29148506D01*
X27223494Y-29102723D01*
X27104219Y-29067700D01*
X26979909Y-29067700D01*
X26879181Y-29097277D01*
X26860634Y-29102723D01*
X26756054Y-29169931D01*
X26674651Y-29263876D01*
X26623009Y-29376954D01*
X26605319Y-29500000D01*
X22400474Y-29500000D01*
X22400474Y-28779999D01*
X23723255Y-28779999D01*
X23740945Y-28903045D01*
X23792587Y-29016123D01*
X23873990Y-29110068D01*
X23873992Y-29110069D01*
X23873993Y-29110070D01*
X23978570Y-29177277D01*
X24097845Y-29212300D01*
X24222154Y-29212300D01*
X24222155Y-29212300D01*
X24341430Y-29177277D01*
X24446007Y-29110070D01*
X24450217Y-29105212D01*
X24506664Y-29040068D01*
X24527413Y-29016122D01*
X24579054Y-28903045D01*
X24596745Y-28780000D01*
X24579054Y-28656955D01*
X24578290Y-28655283D01*
X24527412Y-28543876D01*
X24446009Y-28449931D01*
X24390017Y-28413948D01*
X24341430Y-28382723D01*
X24222155Y-28347700D01*
X24097845Y-28347700D01*
X23995111Y-28377866D01*
X23978570Y-28382723D01*
X23873990Y-28449931D01*
X23792587Y-28543876D01*
X23740945Y-28656954D01*
X23723255Y-28779999D01*
X22400474Y-28779999D01*
X22400474Y-27914792D01*
X24964485Y-27914792D01*
X24982175Y-28037838D01*
X25033817Y-28150916D01*
X25115220Y-28244861D01*
X25115222Y-28244862D01*
X25115223Y-28244863D01*
X25219800Y-28312070D01*
X25339075Y-28347093D01*
X25463384Y-28347093D01*
X25463385Y-28347093D01*
X25582660Y-28312070D01*
X25687237Y-28244863D01*
X25687307Y-28244783D01*
X25754466Y-28167276D01*
X25768643Y-28150915D01*
X25820284Y-28037838D01*
X25837975Y-27914793D01*
X25836989Y-27907935D01*
X26613255Y-27907935D01*
X26630945Y-28030981D01*
X26682587Y-28144059D01*
X26763990Y-28238004D01*
X26763992Y-28238005D01*
X26763993Y-28238006D01*
X26868570Y-28305213D01*
X26987845Y-28340236D01*
X27112154Y-28340236D01*
X27112155Y-28340236D01*
X27231430Y-28305213D01*
X27336007Y-28238006D01*
X27349025Y-28222983D01*
X27400241Y-28163876D01*
X27417413Y-28144058D01*
X27469054Y-28030981D01*
X27486745Y-27907936D01*
X27485604Y-27900000D01*
X28206681Y-27900000D01*
X28224371Y-28023046D01*
X28276013Y-28136124D01*
X28354375Y-28226559D01*
X28381167Y-28278527D01*
X28381167Y-28336995D01*
X28354376Y-28388963D01*
X28282586Y-28471813D01*
X28230945Y-28584889D01*
X28213255Y-28707934D01*
X28230945Y-28830980D01*
X28282587Y-28944058D01*
X28363990Y-29038003D01*
X28363992Y-29038004D01*
X28363993Y-29038005D01*
X28468570Y-29105212D01*
X28587845Y-29140235D01*
X28712154Y-29140235D01*
X28712155Y-29140235D01*
X28831430Y-29105212D01*
X28936007Y-29038005D01*
X28963694Y-29006051D01*
X29005892Y-28974463D01*
X29057404Y-28963256D01*
X29108916Y-28974461D01*
X29151118Y-29006053D01*
X29165738Y-29022925D01*
X29171929Y-29030070D01*
X29276506Y-29097277D01*
X29395781Y-29132300D01*
X29520090Y-29132300D01*
X29520091Y-29132300D01*
X29639366Y-29097277D01*
X29743943Y-29030070D01*
X29755669Y-29016536D01*
X29797872Y-28984943D01*
X29849388Y-28973738D01*
X29900903Y-28984947D01*
X29943105Y-29016545D01*
X29946760Y-29020764D01*
X29973545Y-29072731D01*
X29973542Y-29131195D01*
X29946751Y-29183159D01*
X29895373Y-29242452D01*
X29843731Y-29355530D01*
X29827264Y-29470069D01*
X29826041Y-29478576D01*
X29826976Y-29485081D01*
X29843731Y-29601621D01*
X29895373Y-29714699D01*
X29976776Y-29808644D01*
X29976778Y-29808645D01*
X29976779Y-29808646D01*
X30081356Y-29875853D01*
X30200631Y-29910876D01*
X30324940Y-29910876D01*
X30324941Y-29910876D01*
X30444216Y-29875853D01*
X30548793Y-29808646D01*
X30630199Y-29714698D01*
X30681840Y-29601621D01*
X30699531Y-29478576D01*
X30681840Y-29355531D01*
X30630199Y-29242454D01*
X30630198Y-29242453D01*
X30630198Y-29242452D01*
X30550674Y-29150676D01*
X30523882Y-29098708D01*
X30523882Y-29040240D01*
X30550672Y-28988273D01*
X30602053Y-28928977D01*
X30653694Y-28815900D01*
X30666045Y-28729999D01*
X32193255Y-28729999D01*
X32210945Y-28853045D01*
X32261278Y-28963256D01*
X32262587Y-28966122D01*
X32327543Y-29041086D01*
X32354335Y-29093054D01*
X32354335Y-29151522D01*
X32327544Y-29203490D01*
X32278638Y-29259930D01*
X32226997Y-29373006D01*
X32209307Y-29496052D01*
X32226997Y-29619097D01*
X32278639Y-29732175D01*
X32360042Y-29826120D01*
X32360044Y-29826121D01*
X32360045Y-29826122D01*
X32464622Y-29893329D01*
X32583897Y-29928352D01*
X32708206Y-29928352D01*
X32708207Y-29928352D01*
X32827482Y-29893329D01*
X32932059Y-29826122D01*
X32934004Y-29823878D01*
X33013464Y-29732175D01*
X33013463Y-29732175D01*
X33013465Y-29732174D01*
X33065106Y-29619097D01*
X33082797Y-29496052D01*
X33065674Y-29376955D01*
X33065106Y-29373006D01*
X33013464Y-29259928D01*
X32948509Y-29184965D01*
X32921717Y-29132997D01*
X32921717Y-29074529D01*
X32948509Y-29022560D01*
X32949804Y-29021066D01*
X32997413Y-28966122D01*
X33049054Y-28853045D01*
X33066745Y-28730000D01*
X33056002Y-28655283D01*
X33780254Y-28655283D01*
X33797944Y-28778328D01*
X33849586Y-28891406D01*
X33930989Y-28985351D01*
X33930991Y-28985352D01*
X33930992Y-28985353D01*
X34035569Y-29052560D01*
X34154844Y-29087583D01*
X34279153Y-29087583D01*
X34279154Y-29087583D01*
X34398429Y-29052560D01*
X34503006Y-28985353D01*
X34503362Y-28984943D01*
X34584411Y-28891406D01*
X34584410Y-28891406D01*
X34584412Y-28891405D01*
X34636053Y-28778328D01*
X34653744Y-28655283D01*
X34636053Y-28532238D01*
X34624457Y-28506847D01*
X34584411Y-28419159D01*
X34503008Y-28325214D01*
X34468011Y-28302723D01*
X34398429Y-28258006D01*
X34279154Y-28222983D01*
X34154844Y-28222983D01*
X34057791Y-28251481D01*
X34035569Y-28258006D01*
X33930989Y-28325214D01*
X33849586Y-28419159D01*
X33797944Y-28532237D01*
X33780254Y-28655283D01*
X33056002Y-28655283D01*
X33049054Y-28606955D01*
X33039920Y-28586955D01*
X32997412Y-28493876D01*
X32916009Y-28399931D01*
X32858209Y-28362786D01*
X32811430Y-28332723D01*
X32692155Y-28297700D01*
X32567845Y-28297700D01*
X32459860Y-28329408D01*
X32448570Y-28332723D01*
X32343990Y-28399931D01*
X32262587Y-28493876D01*
X32210945Y-28606954D01*
X32193255Y-28729999D01*
X30666045Y-28729999D01*
X30671385Y-28692855D01*
X30653694Y-28569810D01*
X30641850Y-28543876D01*
X30602052Y-28456731D01*
X30520649Y-28362786D01*
X30462183Y-28325213D01*
X30416070Y-28295578D01*
X30296795Y-28260555D01*
X30172485Y-28260555D01*
X30096819Y-28282773D01*
X30053210Y-28295578D01*
X29948631Y-28362785D01*
X29936904Y-28376320D01*
X29894702Y-28407911D01*
X29843191Y-28419116D01*
X29791679Y-28407910D01*
X29749478Y-28376318D01*
X29743942Y-28369929D01*
X29674537Y-28325326D01*
X29639366Y-28302723D01*
X29520091Y-28267700D01*
X29395781Y-28267700D01*
X29276506Y-28302722D01*
X29276506Y-28302723D01*
X29171928Y-28369930D01*
X29144243Y-28401881D01*
X29085465Y-28439655D01*
X29015596Y-28439655D01*
X28956817Y-28401881D01*
X28939050Y-28381377D01*
X28912258Y-28329408D01*
X28912258Y-28270940D01*
X28939048Y-28218974D01*
X29010839Y-28136123D01*
X29062480Y-28023046D01*
X29079030Y-27907936D01*
X35413254Y-27907936D01*
X35430944Y-28030981D01*
X35482586Y-28144059D01*
X35575667Y-28251481D01*
X35574526Y-28252469D01*
X35590267Y-28268207D01*
X35608694Y-28317601D01*
X35604935Y-28370186D01*
X35579671Y-28416456D01*
X35512587Y-28493876D01*
X35460945Y-28606954D01*
X35443255Y-28729999D01*
X35460945Y-28853045D01*
X35512587Y-28966123D01*
X35560195Y-29021066D01*
X35586987Y-29073034D01*
X35586987Y-29131502D01*
X35560195Y-29183471D01*
X35490521Y-29263878D01*
X35438880Y-29376954D01*
X35421190Y-29500000D01*
X35438880Y-29623045D01*
X35490522Y-29736123D01*
X35571925Y-29830068D01*
X35571927Y-29830069D01*
X35571928Y-29830070D01*
X35676505Y-29897277D01*
X35795780Y-29932300D01*
X35920089Y-29932300D01*
X35920090Y-29932300D01*
X36039365Y-29897277D01*
X36143942Y-29830070D01*
X36149308Y-29823878D01*
X36225347Y-29736123D01*
X36225346Y-29736123D01*
X36225348Y-29736122D01*
X36276989Y-29623045D01*
X36294680Y-29500000D01*
X36276989Y-29376955D01*
X36273364Y-29369018D01*
X36225347Y-29263876D01*
X36177740Y-29208934D01*
X36150949Y-29156968D01*
X36150947Y-29098503D01*
X36177735Y-29046536D01*
X36180841Y-29042951D01*
X36223041Y-29011356D01*
X36274553Y-29000147D01*
X36326066Y-29011351D01*
X36348930Y-29028465D01*
X36348994Y-29028366D01*
X36367203Y-29040068D01*
X36468570Y-29105212D01*
X36587845Y-29140235D01*
X36712154Y-29140235D01*
X36712155Y-29140235D01*
X36831430Y-29105212D01*
X36936007Y-29038005D01*
X36944274Y-29028465D01*
X37017412Y-28944058D01*
X37017411Y-28944058D01*
X37017413Y-28944057D01*
X37069054Y-28830980D01*
X37086745Y-28707935D01*
X37069054Y-28584890D01*
X37062167Y-28569810D01*
X37017412Y-28471811D01*
X36936009Y-28377866D01*
X36888124Y-28347093D01*
X36831430Y-28310658D01*
X36712155Y-28275635D01*
X36587845Y-28275635D01*
X36488823Y-28304711D01*
X36468570Y-28310658D01*
X36363991Y-28377865D01*
X36349152Y-28394991D01*
X36290374Y-28432764D01*
X36220506Y-28432764D01*
X36182004Y-28408021D01*
X36181009Y-28409571D01*
X36177005Y-28406998D01*
X36170877Y-28400870D01*
X36161728Y-28394991D01*
X36154333Y-28386457D01*
X36155474Y-28385468D01*
X36139727Y-28369722D01*
X36121303Y-28320329D01*
X36125064Y-28267746D01*
X36150328Y-28221477D01*
X36217412Y-28144058D01*
X36269053Y-28030981D01*
X36286744Y-27907936D01*
X36283518Y-27885496D01*
X37806921Y-27885496D01*
X37824611Y-28008541D01*
X37876253Y-28121619D01*
X37957656Y-28215564D01*
X37957658Y-28215565D01*
X37957659Y-28215566D01*
X38062236Y-28282773D01*
X38181511Y-28317796D01*
X38305820Y-28317796D01*
X38305821Y-28317796D01*
X38425096Y-28282773D01*
X38476092Y-28250000D01*
X41659255Y-28250000D01*
X41676945Y-28373045D01*
X41728587Y-28486123D01*
X41809990Y-28580068D01*
X41809992Y-28580069D01*
X41809993Y-28580070D01*
X41914570Y-28647277D01*
X42033845Y-28682300D01*
X42158154Y-28682300D01*
X42158155Y-28682300D01*
X42277430Y-28647277D01*
X42382007Y-28580070D01*
X42390898Y-28569810D01*
X42463412Y-28486123D01*
X42463411Y-28486123D01*
X42463413Y-28486122D01*
X42515054Y-28373045D01*
X42532745Y-28250000D01*
X42515054Y-28126955D01*
X42512617Y-28121619D01*
X42463412Y-28013876D01*
X42402440Y-27943510D01*
X42375648Y-27891542D01*
X42375648Y-27833074D01*
X42402440Y-27781106D01*
X42467412Y-27706123D01*
X42467411Y-27706123D01*
X42467413Y-27706122D01*
X42519054Y-27593045D01*
X42536745Y-27470000D01*
X42519054Y-27346955D01*
X42517731Y-27344059D01*
X42467412Y-27233876D01*
X42386009Y-27139931D01*
X42353854Y-27119267D01*
X42281430Y-27072723D01*
X42162155Y-27037700D01*
X42037845Y-27037700D01*
X41918569Y-27072723D01*
X41918570Y-27072723D01*
X41813990Y-27139931D01*
X41732587Y-27233876D01*
X41680945Y-27346954D01*
X41663255Y-27470000D01*
X41680945Y-27593045D01*
X41732587Y-27706123D01*
X41793560Y-27776490D01*
X41820352Y-27828458D01*
X41820352Y-27886926D01*
X41793560Y-27938894D01*
X41728587Y-28013876D01*
X41676945Y-28126954D01*
X41659255Y-28250000D01*
X38476092Y-28250000D01*
X38529673Y-28215566D01*
X38571516Y-28167277D01*
X38591636Y-28144057D01*
X38611079Y-28121618D01*
X38662720Y-28008541D01*
X38680411Y-27885496D01*
X38662720Y-27762451D01*
X38611079Y-27649374D01*
X38611078Y-27649373D01*
X38611078Y-27649372D01*
X38529675Y-27555427D01*
X38486902Y-27527939D01*
X38425096Y-27488219D01*
X38305821Y-27453196D01*
X38181511Y-27453196D01*
X38065444Y-27487277D01*
X38062236Y-27488219D01*
X37957656Y-27555427D01*
X37876253Y-27649372D01*
X37824611Y-27762450D01*
X37806921Y-27885496D01*
X36283518Y-27885496D01*
X36269053Y-27784891D01*
X36267324Y-27781106D01*
X36221423Y-27680597D01*
X36217412Y-27671814D01*
X36217411Y-27671813D01*
X36217411Y-27671812D01*
X36136008Y-27577867D01*
X36077452Y-27540236D01*
X36031429Y-27510659D01*
X35912154Y-27475636D01*
X35787844Y-27475636D01*
X35687116Y-27505213D01*
X35668569Y-27510659D01*
X35563989Y-27577867D01*
X35482586Y-27671812D01*
X35430944Y-27784890D01*
X35413254Y-27907936D01*
X29079030Y-27907936D01*
X29080171Y-27900001D01*
X29062480Y-27776956D01*
X29062267Y-27776490D01*
X29017594Y-27678671D01*
X29010839Y-27663879D01*
X28933284Y-27574375D01*
X28906493Y-27522408D01*
X28906493Y-27463940D01*
X28933285Y-27411971D01*
X28933786Y-27411393D01*
X29011339Y-27321892D01*
X29062980Y-27208815D01*
X29080671Y-27085770D01*
X29062980Y-26962725D01*
X29049425Y-26933045D01*
X29017428Y-26862982D01*
X29011339Y-26849648D01*
X28976984Y-26810000D01*
X33573255Y-26810000D01*
X33590945Y-26933045D01*
X33642587Y-27046123D01*
X33723990Y-27140068D01*
X33723992Y-27140069D01*
X33723993Y-27140070D01*
X33828570Y-27207277D01*
X33947845Y-27242300D01*
X34072154Y-27242300D01*
X34072155Y-27242300D01*
X34191430Y-27207277D01*
X34296007Y-27140070D01*
X34296128Y-27139931D01*
X34339393Y-27090000D01*
X38633255Y-27090000D01*
X38650945Y-27213045D01*
X38702587Y-27326123D01*
X38783990Y-27420068D01*
X38783992Y-27420069D01*
X38783993Y-27420070D01*
X38888570Y-27487277D01*
X39007845Y-27522300D01*
X39132154Y-27522300D01*
X39132155Y-27522300D01*
X39251430Y-27487277D01*
X39356007Y-27420070D01*
X39359673Y-27415840D01*
X39437412Y-27326123D01*
X39437411Y-27326123D01*
X39437413Y-27326122D01*
X39489054Y-27213045D01*
X39506745Y-27090000D01*
X39502810Y-27062633D01*
X39509366Y-27001654D01*
X39544346Y-26951275D01*
X39599191Y-26923822D01*
X39630016Y-26924923D01*
X39630016Y-26922300D01*
X39772154Y-26922300D01*
X39772155Y-26922300D01*
X39891430Y-26887277D01*
X39996007Y-26820070D01*
X40016833Y-26796036D01*
X40052561Y-26754803D01*
X40077413Y-26726122D01*
X40129054Y-26613045D01*
X40146745Y-26490000D01*
X40129054Y-26366955D01*
X40124748Y-26357527D01*
X40077412Y-26253876D01*
X39996009Y-26159931D01*
X39929637Y-26117277D01*
X39891430Y-26092723D01*
X39772155Y-26057700D01*
X39647845Y-26057700D01*
X39528570Y-26092722D01*
X39528570Y-26092723D01*
X39423990Y-26159931D01*
X39342587Y-26253876D01*
X39290945Y-26366954D01*
X39273255Y-26490000D01*
X39277189Y-26517366D01*
X39270634Y-26578342D01*
X39235659Y-26628719D01*
X39180820Y-26656175D01*
X39149984Y-26655077D01*
X39149984Y-26657700D01*
X39132155Y-26657700D01*
X39007845Y-26657700D01*
X38908217Y-26686954D01*
X38888570Y-26692723D01*
X38783990Y-26759931D01*
X38702587Y-26853876D01*
X38650945Y-26966954D01*
X38633255Y-27090000D01*
X34339393Y-27090000D01*
X34377412Y-27046123D01*
X34377411Y-27046123D01*
X34377413Y-27046122D01*
X34429054Y-26933045D01*
X34446745Y-26810000D01*
X34430352Y-26695980D01*
X34429054Y-26686954D01*
X34379452Y-26578342D01*
X34377413Y-26573878D01*
X34377412Y-26573877D01*
X34377412Y-26573876D01*
X34296009Y-26479931D01*
X34207491Y-26423045D01*
X34191430Y-26412723D01*
X34072155Y-26377700D01*
X33947845Y-26377700D01*
X33861530Y-26403045D01*
X33828570Y-26412723D01*
X33723990Y-26479931D01*
X33642587Y-26573876D01*
X33590945Y-26686954D01*
X33573255Y-26810000D01*
X28976984Y-26810000D01*
X28952868Y-26782169D01*
X28926078Y-26730203D01*
X28926078Y-26671735D01*
X28952870Y-26619766D01*
X28961271Y-26610071D01*
X29025348Y-26536122D01*
X29076989Y-26423045D01*
X29086409Y-26357527D01*
X29856456Y-26357527D01*
X29874146Y-26480572D01*
X29925788Y-26593650D01*
X30007191Y-26687595D01*
X30007193Y-26687596D01*
X30007194Y-26687597D01*
X30111771Y-26754804D01*
X30231046Y-26789827D01*
X30355355Y-26789827D01*
X30355356Y-26789827D01*
X30474631Y-26754804D01*
X30579208Y-26687597D01*
X30579765Y-26686955D01*
X30660613Y-26593650D01*
X30660612Y-26593650D01*
X30660614Y-26593649D01*
X30712255Y-26480572D01*
X30729946Y-26357527D01*
X30718799Y-26279999D01*
X35393255Y-26279999D01*
X35410945Y-26403045D01*
X35462587Y-26516123D01*
X35543990Y-26610068D01*
X35543992Y-26610069D01*
X35543993Y-26610070D01*
X35648570Y-26677277D01*
X35767845Y-26712300D01*
X35892154Y-26712300D01*
X35892155Y-26712300D01*
X36011430Y-26677277D01*
X36116007Y-26610070D01*
X36133655Y-26589702D01*
X36175854Y-26558112D01*
X36227366Y-26546906D01*
X36278878Y-26558112D01*
X36321080Y-26589704D01*
X36356055Y-26630068D01*
X36356057Y-26630069D01*
X36356058Y-26630070D01*
X36460635Y-26697277D01*
X36579910Y-26732300D01*
X36704219Y-26732300D01*
X36704220Y-26732300D01*
X36823495Y-26697277D01*
X36928072Y-26630070D01*
X36948882Y-26606053D01*
X36991081Y-26574463D01*
X37042593Y-26563257D01*
X37094105Y-26574462D01*
X37136307Y-26606054D01*
X37157117Y-26630070D01*
X37163993Y-26638005D01*
X37268570Y-26705212D01*
X37387845Y-26740235D01*
X37512154Y-26740235D01*
X37512155Y-26740235D01*
X37631430Y-26705212D01*
X37736007Y-26638005D01*
X37763410Y-26606379D01*
X37805608Y-26574790D01*
X37857121Y-26563584D01*
X37908633Y-26574790D01*
X37950835Y-26606383D01*
X37967938Y-26626122D01*
X37986427Y-26638004D01*
X38072517Y-26693330D01*
X38191792Y-26728353D01*
X38316101Y-26728353D01*
X38316102Y-26728353D01*
X38435377Y-26693330D01*
X38539954Y-26626123D01*
X38545463Y-26619766D01*
X38621359Y-26532176D01*
X38621358Y-26532176D01*
X38621360Y-26532175D01*
X38673001Y-26419098D01*
X38690692Y-26296053D01*
X38675224Y-26188474D01*
X38673001Y-26173007D01*
X38626786Y-26071813D01*
X38621360Y-26059931D01*
X38621359Y-26059930D01*
X38621359Y-26059929D01*
X38553507Y-25981623D01*
X38526715Y-25929655D01*
X38526715Y-25871186D01*
X38553505Y-25819221D01*
X38626406Y-25735089D01*
X38633297Y-25720000D01*
X45613255Y-25720000D01*
X45630945Y-25843045D01*
X45682587Y-25956123D01*
X45763990Y-26050068D01*
X45763992Y-26050069D01*
X45763993Y-26050070D01*
X45868570Y-26117277D01*
X45987845Y-26152300D01*
X46112154Y-26152300D01*
X46112155Y-26152300D01*
X46231430Y-26117277D01*
X46336007Y-26050070D01*
X46341373Y-26043878D01*
X46417412Y-25956123D01*
X46417411Y-25956123D01*
X46417413Y-25956122D01*
X46469054Y-25843045D01*
X46486745Y-25720000D01*
X46469054Y-25596955D01*
X46467121Y-25592723D01*
X46417412Y-25483876D01*
X46336009Y-25389931D01*
X46262770Y-25342864D01*
X46231430Y-25322723D01*
X46112155Y-25287700D01*
X45987845Y-25287700D01*
X45904067Y-25312300D01*
X45868570Y-25322723D01*
X45763990Y-25389931D01*
X45682587Y-25483876D01*
X45630945Y-25596954D01*
X45613255Y-25720000D01*
X38633297Y-25720000D01*
X38678047Y-25622012D01*
X38695738Y-25498967D01*
X38678196Y-25376955D01*
X38678047Y-25375921D01*
X38626405Y-25262843D01*
X38545002Y-25168898D01*
X38501845Y-25141163D01*
X38440423Y-25101690D01*
X38321148Y-25066667D01*
X38196838Y-25066667D01*
X38092592Y-25097277D01*
X38077563Y-25101690D01*
X37972985Y-25168897D01*
X37951730Y-25193427D01*
X37909528Y-25225019D01*
X37858016Y-25236224D01*
X37806505Y-25225018D01*
X37764304Y-25193426D01*
X37743945Y-25169930D01*
X37689175Y-25134732D01*
X37639366Y-25102722D01*
X37520091Y-25067699D01*
X37395781Y-25067699D01*
X37303530Y-25094787D01*
X37276506Y-25102722D01*
X37171926Y-25169930D01*
X37090523Y-25263875D01*
X37038881Y-25376953D01*
X37021191Y-25499998D01*
X37038881Y-25623044D01*
X37090522Y-25736120D01*
X37090523Y-25736121D01*
X37160406Y-25816771D01*
X37161631Y-25818184D01*
X37188423Y-25870153D01*
X37188423Y-25928621D01*
X37161631Y-25980590D01*
X37143183Y-26001880D01*
X37084405Y-26039654D01*
X37014535Y-26039654D01*
X36955757Y-26001880D01*
X36928072Y-25969930D01*
X36921930Y-25965983D01*
X36823495Y-25902723D01*
X36704220Y-25867700D01*
X36579910Y-25867700D01*
X36479182Y-25897277D01*
X36460635Y-25902723D01*
X36356054Y-25969931D01*
X36338409Y-25990296D01*
X36279631Y-26028070D01*
X36209761Y-26028070D01*
X36150984Y-25990295D01*
X36141002Y-25978775D01*
X36114210Y-25926807D01*
X36114210Y-25868339D01*
X36141001Y-25816371D01*
X36217414Y-25728186D01*
X36269055Y-25615109D01*
X36286746Y-25492064D01*
X36270196Y-25376953D01*
X36269055Y-25369018D01*
X36221037Y-25263875D01*
X36217414Y-25255942D01*
X36217413Y-25255941D01*
X36217413Y-25255940D01*
X36136010Y-25161995D01*
X36089803Y-25132300D01*
X36031431Y-25094787D01*
X35912156Y-25059764D01*
X35787846Y-25059764D01*
X35711608Y-25082150D01*
X35668571Y-25094787D01*
X35563991Y-25161995D01*
X35482588Y-25255940D01*
X35430946Y-25369018D01*
X35414433Y-25483876D01*
X35413256Y-25492064D01*
X35414397Y-25499998D01*
X35430946Y-25615109D01*
X35482588Y-25728187D01*
X35538998Y-25793288D01*
X35565790Y-25845256D01*
X35565790Y-25903723D01*
X35538999Y-25955692D01*
X35462586Y-26043878D01*
X35410945Y-26156954D01*
X35393255Y-26279999D01*
X30718799Y-26279999D01*
X30712255Y-26234482D01*
X30660614Y-26121405D01*
X30660613Y-26121404D01*
X30660613Y-26121403D01*
X30579210Y-26027458D01*
X30521382Y-25990295D01*
X30474631Y-25960250D01*
X30355356Y-25925227D01*
X30231046Y-25925227D01*
X30125826Y-25956123D01*
X30111771Y-25960250D01*
X30007191Y-26027458D01*
X29925788Y-26121403D01*
X29874146Y-26234481D01*
X29856456Y-26357527D01*
X29086409Y-26357527D01*
X29094680Y-26300000D01*
X29076989Y-26176955D01*
X29076396Y-26175657D01*
X29025347Y-26063876D01*
X28943944Y-25969931D01*
X28908691Y-25947276D01*
X28839365Y-25902723D01*
X28720090Y-25867700D01*
X28595780Y-25867700D01*
X28495052Y-25897277D01*
X28476505Y-25902723D01*
X28371925Y-25969931D01*
X28290522Y-26063876D01*
X28238880Y-26176954D01*
X28221190Y-26299999D01*
X28238880Y-26423045D01*
X28290522Y-26536123D01*
X28348990Y-26603599D01*
X28375782Y-26655567D01*
X28375782Y-26714035D01*
X28348991Y-26766003D01*
X28276512Y-26849648D01*
X28224871Y-26962724D01*
X28207181Y-27085770D01*
X28224871Y-27208815D01*
X28276512Y-27321891D01*
X28276513Y-27321892D01*
X28311462Y-27362226D01*
X28354066Y-27411393D01*
X28380858Y-27463362D01*
X28380858Y-27521829D01*
X28354067Y-27573798D01*
X28276012Y-27663879D01*
X28224371Y-27776955D01*
X28206681Y-27900000D01*
X27485604Y-27900000D01*
X27469054Y-27784891D01*
X27467325Y-27781106D01*
X27421424Y-27680597D01*
X27417413Y-27671814D01*
X27417412Y-27671813D01*
X27417412Y-27671812D01*
X27336009Y-27577867D01*
X27277453Y-27540236D01*
X27231430Y-27510659D01*
X27112155Y-27475636D01*
X26987845Y-27475636D01*
X26887117Y-27505213D01*
X26868570Y-27510659D01*
X26763990Y-27577867D01*
X26682587Y-27671812D01*
X26630945Y-27784890D01*
X26613255Y-27907935D01*
X25836989Y-27907935D01*
X25820284Y-27791748D01*
X25817152Y-27784891D01*
X25768643Y-27678671D01*
X25717773Y-27619963D01*
X25690982Y-27567995D01*
X25690982Y-27509528D01*
X25717773Y-27457559D01*
X25718970Y-27456176D01*
X25718972Y-27456176D01*
X25755644Y-27413853D01*
X25797842Y-27382265D01*
X25849354Y-27371059D01*
X25900866Y-27382265D01*
X25943067Y-27413857D01*
X25963990Y-27438004D01*
X25963992Y-27438005D01*
X25963993Y-27438006D01*
X26068570Y-27505213D01*
X26187845Y-27540236D01*
X26312154Y-27540236D01*
X26312155Y-27540236D01*
X26431430Y-27505213D01*
X26536007Y-27438006D01*
X26617413Y-27344058D01*
X26669054Y-27230981D01*
X26686745Y-27107936D01*
X26669054Y-26984891D01*
X26662666Y-26970904D01*
X26617412Y-26871812D01*
X26536009Y-26777867D01*
X26501516Y-26755700D01*
X26431430Y-26710659D01*
X26312155Y-26675636D01*
X26187845Y-26675636D01*
X26074142Y-26709023D01*
X26068570Y-26710659D01*
X25963992Y-26777866D01*
X25927323Y-26820185D01*
X25885120Y-26851777D01*
X25833608Y-26862982D01*
X25782095Y-26851775D01*
X25739894Y-26820181D01*
X25729242Y-26807887D01*
X25703978Y-26761612D01*
X25700223Y-26709023D01*
X25718656Y-26659627D01*
X25733594Y-26644695D01*
X25732267Y-26643545D01*
X25825347Y-26536123D01*
X25825346Y-26536123D01*
X25825348Y-26536122D01*
X25876989Y-26423045D01*
X25894680Y-26300000D01*
X25876989Y-26176955D01*
X25876396Y-26175657D01*
X25825347Y-26063876D01*
X25763407Y-25992393D01*
X25736616Y-25940428D01*
X25736614Y-25881962D01*
X25763402Y-25829995D01*
X25766508Y-25826410D01*
X25808709Y-25794814D01*
X25860222Y-25783606D01*
X25911736Y-25794811D01*
X25953939Y-25826403D01*
X25963993Y-25838006D01*
X26068570Y-25905213D01*
X26187845Y-25940236D01*
X26312154Y-25940236D01*
X26312155Y-25940236D01*
X26431430Y-25905213D01*
X26536007Y-25838006D01*
X26556287Y-25814600D01*
X26598488Y-25783010D01*
X26650000Y-25771804D01*
X26701512Y-25783010D01*
X26743714Y-25814602D01*
X26754857Y-25827462D01*
X26781648Y-25879430D01*
X26781648Y-25937898D01*
X26754857Y-25989866D01*
X26691849Y-26062581D01*
X26640208Y-26175657D01*
X26625207Y-26279999D01*
X26622518Y-26298703D01*
X26624741Y-26314169D01*
X26640208Y-26421748D01*
X26691850Y-26534826D01*
X26773253Y-26628771D01*
X26773255Y-26628772D01*
X26773256Y-26628773D01*
X26877833Y-26695980D01*
X26997108Y-26731003D01*
X27121417Y-26731003D01*
X27121418Y-26731003D01*
X27240693Y-26695980D01*
X27345270Y-26628773D01*
X27358899Y-26613045D01*
X27426675Y-26534826D01*
X27426674Y-26534826D01*
X27426676Y-26534825D01*
X27478317Y-26421748D01*
X27496008Y-26298703D01*
X27480860Y-26193348D01*
X27478317Y-26175657D01*
X27426676Y-26062581D01*
X27354406Y-25979176D01*
X27327615Y-25927207D01*
X27327616Y-25868739D01*
X27354405Y-25816774D01*
X27417414Y-25744058D01*
X27469055Y-25630981D01*
X27486746Y-25507936D01*
X27485605Y-25499999D01*
X29021190Y-25499999D01*
X29038880Y-25623045D01*
X29090522Y-25736123D01*
X29171925Y-25830068D01*
X29171927Y-25830069D01*
X29171928Y-25830070D01*
X29276505Y-25897277D01*
X29395780Y-25932300D01*
X29520089Y-25932300D01*
X29520090Y-25932300D01*
X29639365Y-25897277D01*
X29743942Y-25830070D01*
X29747114Y-25826410D01*
X29825347Y-25736123D01*
X29825346Y-25736123D01*
X29825348Y-25736122D01*
X29876989Y-25623045D01*
X29894680Y-25500000D01*
X29876989Y-25376955D01*
X29876988Y-25376953D01*
X29825348Y-25263878D01*
X29809937Y-25246093D01*
X29780912Y-25182537D01*
X29781996Y-25174996D01*
X29726449Y-25158687D01*
X29639366Y-25102723D01*
X29569301Y-25082150D01*
X29520090Y-25067700D01*
X29395780Y-25067700D01*
X29295052Y-25097277D01*
X29276505Y-25102723D01*
X29171925Y-25169931D01*
X29090522Y-25263876D01*
X29038880Y-25376954D01*
X29021190Y-25499999D01*
X27485605Y-25499999D01*
X27469780Y-25389931D01*
X27469055Y-25384890D01*
X27417413Y-25271812D01*
X27336010Y-25177867D01*
X27281324Y-25142723D01*
X27231431Y-25110659D01*
X27112156Y-25075636D01*
X26987846Y-25075636D01*
X26883770Y-25106196D01*
X26868571Y-25110659D01*
X26763992Y-25177866D01*
X26743712Y-25201271D01*
X26684934Y-25239044D01*
X26615065Y-25239044D01*
X26556287Y-25201270D01*
X26536007Y-25177866D01*
X26511309Y-25161994D01*
X26431430Y-25110659D01*
X26312155Y-25075636D01*
X26187845Y-25075636D01*
X26083769Y-25106196D01*
X26068570Y-25110659D01*
X25963992Y-25177866D01*
X25943486Y-25201532D01*
X25901284Y-25233124D01*
X25849772Y-25244329D01*
X25798261Y-25233123D01*
X25756059Y-25201531D01*
X25746006Y-25189929D01*
X25702537Y-25161994D01*
X25641430Y-25122723D01*
X25522155Y-25087700D01*
X25397845Y-25087700D01*
X25297117Y-25117277D01*
X25278570Y-25122723D01*
X25173990Y-25189931D01*
X25092587Y-25283876D01*
X25040945Y-25396954D01*
X25023255Y-25520000D01*
X25040945Y-25643045D01*
X25092587Y-25756123D01*
X25154527Y-25827606D01*
X25181319Y-25879574D01*
X25181319Y-25938042D01*
X25154528Y-25990010D01*
X25090521Y-26063878D01*
X25038880Y-26176954D01*
X25021190Y-26299999D01*
X25038880Y-26423045D01*
X25090521Y-26536121D01*
X25161655Y-26618215D01*
X25190678Y-26681766D01*
X25180739Y-26750920D01*
X25155602Y-26779934D01*
X25158633Y-26782561D01*
X25065552Y-26889982D01*
X25013910Y-27003060D01*
X24996220Y-27126106D01*
X25013910Y-27249151D01*
X25058577Y-27346955D01*
X25065552Y-27362228D01*
X25116422Y-27420936D01*
X25143212Y-27472901D01*
X25143213Y-27531369D01*
X25116422Y-27583338D01*
X25033816Y-27678671D01*
X24982175Y-27791747D01*
X24964485Y-27914792D01*
X22400474Y-27914792D01*
X22400474Y-25990000D01*
X23790755Y-25990000D01*
X23808445Y-26113045D01*
X23860087Y-26226123D01*
X23941490Y-26320068D01*
X23941492Y-26320069D01*
X23941493Y-26320070D01*
X24046070Y-26387277D01*
X24165345Y-26422300D01*
X24289654Y-26422300D01*
X24289655Y-26422300D01*
X24408930Y-26387277D01*
X24513507Y-26320070D01*
X24532023Y-26298702D01*
X24594912Y-26226123D01*
X24594911Y-26226123D01*
X24594913Y-26226122D01*
X24646554Y-26113045D01*
X24664245Y-25990000D01*
X24647002Y-25870068D01*
X24646554Y-25866954D01*
X24594912Y-25753876D01*
X24513509Y-25659931D01*
X24456112Y-25623045D01*
X24408930Y-25592723D01*
X24289655Y-25557700D01*
X24165345Y-25557700D01*
X24046069Y-25592723D01*
X24046070Y-25592723D01*
X23941490Y-25659931D01*
X23860087Y-25753876D01*
X23808445Y-25866954D01*
X23790755Y-25990000D01*
X22400474Y-25990000D01*
X22400474Y-24790000D01*
X23790755Y-24790000D01*
X23808445Y-24913045D01*
X23860087Y-25026123D01*
X23941490Y-25120068D01*
X23941492Y-25120069D01*
X23941493Y-25120070D01*
X24046070Y-25187277D01*
X24165345Y-25222300D01*
X24289654Y-25222300D01*
X24289655Y-25222300D01*
X24408930Y-25187277D01*
X24513507Y-25120070D01*
X24516568Y-25116538D01*
X24574164Y-25050068D01*
X24594913Y-25026122D01*
X24646554Y-24913045D01*
X24664245Y-24790000D01*
X24654180Y-24719999D01*
X28193255Y-24719999D01*
X28210945Y-24843045D01*
X28262587Y-24956123D01*
X28343990Y-25050068D01*
X28343992Y-25050069D01*
X28343993Y-25050070D01*
X28448570Y-25117277D01*
X28567845Y-25152300D01*
X28692154Y-25152300D01*
X28692155Y-25152300D01*
X28811430Y-25117277D01*
X28916007Y-25050070D01*
X28916647Y-25049332D01*
X28997412Y-24956123D01*
X28997411Y-24956123D01*
X28997413Y-24956122D01*
X29049054Y-24843045D01*
X29066745Y-24720000D01*
X29066639Y-24719261D01*
X29802458Y-24719261D01*
X29820148Y-24842307D01*
X29871790Y-24955385D01*
X29887200Y-24973169D01*
X29916225Y-25036724D01*
X29915140Y-25044264D01*
X29970689Y-25060574D01*
X30057773Y-25116539D01*
X30177048Y-25151562D01*
X30301357Y-25151562D01*
X30301358Y-25151562D01*
X30420633Y-25116539D01*
X30525210Y-25049332D01*
X30529602Y-25044264D01*
X30553140Y-25017099D01*
X30611916Y-24979324D01*
X30681784Y-24979322D01*
X30717766Y-25002444D01*
X30719239Y-25000153D01*
X30734238Y-25009792D01*
X30838815Y-25076999D01*
X30958090Y-25112022D01*
X31082399Y-25112022D01*
X31082400Y-25112022D01*
X31201675Y-25076999D01*
X31306252Y-25009792D01*
X31312099Y-25003045D01*
X31387657Y-24915845D01*
X31387656Y-24915845D01*
X31387658Y-24915844D01*
X31439299Y-24802767D01*
X31444010Y-24769999D01*
X32953255Y-24769999D01*
X32970945Y-24893045D01*
X33022587Y-25006123D01*
X33109300Y-25106196D01*
X33138976Y-25135872D01*
X33157400Y-25185264D01*
X33153640Y-25237846D01*
X33128376Y-25284114D01*
X33102587Y-25313876D01*
X33050945Y-25426954D01*
X33033255Y-25549999D01*
X33050945Y-25673045D01*
X33102587Y-25786123D01*
X33183990Y-25880068D01*
X33183992Y-25880069D01*
X33183993Y-25880070D01*
X33288570Y-25947277D01*
X33407845Y-25982300D01*
X33532154Y-25982300D01*
X33532155Y-25982300D01*
X33651430Y-25947277D01*
X33756007Y-25880070D01*
X33785620Y-25845894D01*
X33827819Y-25814304D01*
X33879331Y-25803098D01*
X33930843Y-25814303D01*
X33973045Y-25845895D01*
X33993993Y-25870070D01*
X34098570Y-25937277D01*
X34217845Y-25972300D01*
X34342154Y-25972300D01*
X34342155Y-25972300D01*
X34461430Y-25937277D01*
X34566007Y-25870070D01*
X34567161Y-25868739D01*
X34640928Y-25783606D01*
X34647413Y-25776122D01*
X34699054Y-25663045D01*
X34716745Y-25540000D01*
X34699054Y-25416955D01*
X34696928Y-25412300D01*
X34647412Y-25303876D01*
X34566009Y-25209931D01*
X34517623Y-25178836D01*
X34461430Y-25142723D01*
X34342155Y-25107700D01*
X34217845Y-25107700D01*
X34121902Y-25135872D01*
X34098570Y-25142723D01*
X33993991Y-25209930D01*
X33964379Y-25244105D01*
X33905601Y-25281878D01*
X33835732Y-25281878D01*
X33776954Y-25244103D01*
X33750699Y-25213803D01*
X33721021Y-25184125D01*
X33702599Y-25134732D01*
X33706360Y-25082150D01*
X33731623Y-25035884D01*
X33757413Y-25006122D01*
X33809054Y-24893045D01*
X33826745Y-24770000D01*
X33816681Y-24700000D01*
X34621190Y-24700000D01*
X34638880Y-24823045D01*
X34690522Y-24936123D01*
X34771925Y-25030068D01*
X34771927Y-25030069D01*
X34771928Y-25030070D01*
X34876505Y-25097277D01*
X34995780Y-25132300D01*
X35120089Y-25132300D01*
X35120090Y-25132300D01*
X35239365Y-25097277D01*
X35343942Y-25030070D01*
X35355182Y-25017099D01*
X35408657Y-24955384D01*
X35417147Y-24945586D01*
X46577668Y-24945586D01*
X46595358Y-25068632D01*
X46647000Y-25181710D01*
X46728403Y-25275655D01*
X46728405Y-25275656D01*
X46728406Y-25275657D01*
X46832983Y-25342864D01*
X46952258Y-25377887D01*
X47076567Y-25377887D01*
X47076568Y-25377887D01*
X47195843Y-25342864D01*
X47300420Y-25275657D01*
X47310628Y-25263877D01*
X47364650Y-25201531D01*
X47381826Y-25181709D01*
X47433467Y-25068632D01*
X47451158Y-24945587D01*
X47433467Y-24822542D01*
X47418605Y-24790000D01*
X47381825Y-24709463D01*
X47347630Y-24670000D01*
X51983255Y-24670000D01*
X52000945Y-24793045D01*
X52052587Y-24906123D01*
X52133990Y-25000068D01*
X52133992Y-25000069D01*
X52133993Y-25000070D01*
X52238570Y-25067277D01*
X52357845Y-25102300D01*
X52482154Y-25102300D01*
X52482155Y-25102300D01*
X52601430Y-25067277D01*
X52706007Y-25000070D01*
X52723984Y-24979324D01*
X52787412Y-24906123D01*
X52787411Y-24906123D01*
X52787413Y-24906122D01*
X52799343Y-24879999D01*
X60803255Y-24879999D01*
X60820945Y-25003045D01*
X60872587Y-25116123D01*
X60953990Y-25210068D01*
X60953992Y-25210069D01*
X60953993Y-25210070D01*
X61058570Y-25277277D01*
X61177845Y-25312300D01*
X61302154Y-25312300D01*
X61302155Y-25312300D01*
X61421430Y-25277277D01*
X61526007Y-25210070D01*
X61526128Y-25209931D01*
X61607052Y-25116539D01*
X61607413Y-25116122D01*
X61659054Y-25003045D01*
X61662367Y-24980000D01*
X61923255Y-24980000D01*
X61940945Y-25103045D01*
X61992587Y-25216123D01*
X62073990Y-25310068D01*
X62073992Y-25310069D01*
X62073993Y-25310070D01*
X62178570Y-25377277D01*
X62297845Y-25412300D01*
X62422154Y-25412300D01*
X62422155Y-25412300D01*
X62541430Y-25377277D01*
X62646007Y-25310070D01*
X62651373Y-25303878D01*
X62727412Y-25216123D01*
X62727411Y-25216123D01*
X62727413Y-25216122D01*
X62779054Y-25103045D01*
X62796745Y-24980000D01*
X62779054Y-24856955D01*
X62772701Y-24843045D01*
X62727412Y-24743876D01*
X62646009Y-24649931D01*
X62592459Y-24615517D01*
X62541430Y-24582723D01*
X62422155Y-24547700D01*
X62297845Y-24547700D01*
X62213539Y-24572455D01*
X62178570Y-24582723D01*
X62073990Y-24649931D01*
X61992587Y-24743876D01*
X61940945Y-24856954D01*
X61923255Y-24980000D01*
X61662367Y-24980000D01*
X61676745Y-24880000D01*
X61659054Y-24756955D01*
X61607413Y-24643878D01*
X61607412Y-24643877D01*
X61607412Y-24643876D01*
X61526009Y-24549931D01*
X61468989Y-24513287D01*
X61421430Y-24482723D01*
X61302155Y-24447700D01*
X61177845Y-24447700D01*
X61058569Y-24482723D01*
X61058570Y-24482723D01*
X60953990Y-24549931D01*
X60872587Y-24643876D01*
X60820945Y-24756954D01*
X60803255Y-24879999D01*
X52799343Y-24879999D01*
X52839054Y-24793045D01*
X52856745Y-24670000D01*
X52851488Y-24633436D01*
X52858045Y-24572455D01*
X52893025Y-24522076D01*
X52947871Y-24494623D01*
X53009161Y-24496813D01*
X53027845Y-24502300D01*
X53152154Y-24502300D01*
X53152155Y-24502300D01*
X53271430Y-24467277D01*
X53376007Y-24400070D01*
X53377660Y-24398163D01*
X53457412Y-24306123D01*
X53457411Y-24306123D01*
X53457413Y-24306122D01*
X53509054Y-24193045D01*
X53526745Y-24070000D01*
X53509054Y-23946955D01*
X53457413Y-23833878D01*
X53457412Y-23833877D01*
X53457412Y-23833876D01*
X53376009Y-23739931D01*
X53343854Y-23719267D01*
X53271430Y-23672723D01*
X53152155Y-23637700D01*
X53027845Y-23637700D01*
X52938700Y-23663876D01*
X52908570Y-23672723D01*
X52803990Y-23739931D01*
X52722587Y-23833876D01*
X52670945Y-23946954D01*
X52653255Y-24070000D01*
X52658511Y-24106564D01*
X52651954Y-24167545D01*
X52616974Y-24217923D01*
X52562130Y-24245376D01*
X52500838Y-24243186D01*
X52482155Y-24237700D01*
X52357845Y-24237700D01*
X52238570Y-24272722D01*
X52238570Y-24272723D01*
X52133990Y-24339931D01*
X52052587Y-24433876D01*
X52000945Y-24546954D01*
X51983255Y-24670000D01*
X47347630Y-24670000D01*
X47300422Y-24615518D01*
X47249391Y-24582723D01*
X47195843Y-24548310D01*
X47076568Y-24513287D01*
X46952258Y-24513287D01*
X46882140Y-24533876D01*
X46832983Y-24548310D01*
X46728403Y-24615518D01*
X46647000Y-24709463D01*
X46595358Y-24822541D01*
X46577668Y-24945586D01*
X35417147Y-24945586D01*
X35425348Y-24936122D01*
X35476989Y-24823045D01*
X35494680Y-24700000D01*
X35476989Y-24576955D01*
X35467728Y-24556677D01*
X35425347Y-24463876D01*
X35343944Y-24369931D01*
X35290128Y-24335346D01*
X35239365Y-24302723D01*
X35120090Y-24267700D01*
X34995780Y-24267700D01*
X34942387Y-24283378D01*
X34876505Y-24302723D01*
X34771925Y-24369931D01*
X34690522Y-24463876D01*
X34638880Y-24576954D01*
X34621190Y-24700000D01*
X33816681Y-24700000D01*
X33809054Y-24646955D01*
X33802880Y-24633437D01*
X33757412Y-24533876D01*
X33689410Y-24455397D01*
X33662618Y-24403429D01*
X33662618Y-24344961D01*
X33689410Y-24292992D01*
X33694635Y-24286962D01*
X33765744Y-24204898D01*
X33817385Y-24091821D01*
X33835076Y-23968776D01*
X33820874Y-23870000D01*
X40883255Y-23870000D01*
X40900945Y-23993045D01*
X40952587Y-24106123D01*
X41033990Y-24200068D01*
X41033992Y-24200069D01*
X41033993Y-24200070D01*
X41138570Y-24267277D01*
X41257845Y-24302300D01*
X41382154Y-24302300D01*
X41382155Y-24302300D01*
X41501430Y-24267277D01*
X41606007Y-24200070D01*
X41687413Y-24106122D01*
X41739054Y-23993045D01*
X41756745Y-23870000D01*
X41739054Y-23746955D01*
X41737268Y-23743045D01*
X41687412Y-23633876D01*
X41606009Y-23539931D01*
X41546104Y-23501433D01*
X41501430Y-23472723D01*
X41382155Y-23437700D01*
X41257845Y-23437700D01*
X41138569Y-23472723D01*
X41138570Y-23472723D01*
X41033990Y-23539931D01*
X40952587Y-23633876D01*
X40900945Y-23746954D01*
X40883255Y-23870000D01*
X33820874Y-23870000D01*
X33817385Y-23845731D01*
X33806684Y-23822300D01*
X33765744Y-23732654D01*
X33677573Y-23630898D01*
X33652309Y-23584629D01*
X33648549Y-23532047D01*
X33666973Y-23482654D01*
X33704248Y-23445380D01*
X33728071Y-23430071D01*
X33728075Y-23430067D01*
X33809476Y-23336124D01*
X33809475Y-23336124D01*
X33809477Y-23336123D01*
X33861118Y-23223046D01*
X33878809Y-23100001D01*
X33878809Y-23099998D01*
X34621191Y-23099998D01*
X34638881Y-23223044D01*
X34690523Y-23336122D01*
X34771926Y-23430067D01*
X34771928Y-23430068D01*
X34771929Y-23430069D01*
X34876506Y-23497276D01*
X34995781Y-23532299D01*
X35120090Y-23532299D01*
X35120091Y-23532299D01*
X35239366Y-23497276D01*
X35343943Y-23430069D01*
X35356815Y-23415212D01*
X35399014Y-23383623D01*
X35450526Y-23372416D01*
X35502038Y-23383621D01*
X35544240Y-23415213D01*
X35563988Y-23438004D01*
X35582761Y-23450068D01*
X35668569Y-23505213D01*
X35787844Y-23540236D01*
X35912153Y-23540236D01*
X35912154Y-23540236D01*
X36031429Y-23505213D01*
X36136006Y-23438006D01*
X36142884Y-23430069D01*
X36177604Y-23390000D01*
X48143255Y-23390000D01*
X48145478Y-23405466D01*
X48160945Y-23513045D01*
X48212587Y-23626123D01*
X48293990Y-23720068D01*
X48293992Y-23720069D01*
X48293993Y-23720070D01*
X48398570Y-23787277D01*
X48517845Y-23822300D01*
X48642154Y-23822300D01*
X48642155Y-23822300D01*
X48761430Y-23787277D01*
X48866007Y-23720070D01*
X48947413Y-23626122D01*
X48950209Y-23620000D01*
X55143255Y-23620000D01*
X55160945Y-23743045D01*
X55212587Y-23856123D01*
X55293990Y-23950068D01*
X55293992Y-23950069D01*
X55293993Y-23950070D01*
X55398570Y-24017277D01*
X55517845Y-24052300D01*
X55642154Y-24052300D01*
X55642155Y-24052300D01*
X55761430Y-24017277D01*
X55866007Y-23950070D01*
X55947413Y-23856122D01*
X55999054Y-23743045D01*
X56016745Y-23620000D01*
X55999698Y-23501433D01*
X55999054Y-23496954D01*
X55947412Y-23383876D01*
X55866009Y-23289931D01*
X55830255Y-23266954D01*
X55761430Y-23222723D01*
X55642155Y-23187700D01*
X55517845Y-23187700D01*
X55398570Y-23222722D01*
X55398570Y-23222723D01*
X55293990Y-23289931D01*
X55212587Y-23383876D01*
X55160945Y-23496954D01*
X55143255Y-23620000D01*
X48950209Y-23620000D01*
X48999054Y-23513045D01*
X49016745Y-23390000D01*
X48999054Y-23266955D01*
X48979000Y-23223044D01*
X48947412Y-23153876D01*
X48866009Y-23059931D01*
X48803980Y-23020068D01*
X48761430Y-22992723D01*
X48642155Y-22957700D01*
X48517845Y-22957700D01*
X48425246Y-22984890D01*
X48398570Y-22992723D01*
X48293990Y-23059931D01*
X48212587Y-23153876D01*
X48160945Y-23266954D01*
X48145783Y-23372416D01*
X48143255Y-23390000D01*
X36177604Y-23390000D01*
X36206958Y-23356123D01*
X36217412Y-23344058D01*
X36269053Y-23230981D01*
X36286744Y-23107936D01*
X36269053Y-22984891D01*
X36265429Y-22976956D01*
X36217411Y-22871812D01*
X36136008Y-22777867D01*
X36098028Y-22753459D01*
X36031429Y-22710659D01*
X35912154Y-22675636D01*
X35787844Y-22675636D01*
X35675898Y-22708507D01*
X35668569Y-22710659D01*
X35563990Y-22777866D01*
X35551118Y-22792722D01*
X35492340Y-22830495D01*
X35422471Y-22830495D01*
X35363693Y-22792721D01*
X35343943Y-22769929D01*
X35318315Y-22753459D01*
X35239366Y-22702722D01*
X35120091Y-22667699D01*
X34995781Y-22667699D01*
X34880698Y-22701491D01*
X34876506Y-22702722D01*
X34771926Y-22769930D01*
X34690523Y-22863875D01*
X34638881Y-22976953D01*
X34621191Y-23099998D01*
X33878809Y-23099998D01*
X33876979Y-23087276D01*
X33861118Y-22976955D01*
X33809476Y-22863877D01*
X33728073Y-22769932D01*
X33654613Y-22722723D01*
X33623494Y-22702724D01*
X33504219Y-22667701D01*
X33379909Y-22667701D01*
X33311800Y-22687700D01*
X33260634Y-22702724D01*
X33156054Y-22769932D01*
X33074651Y-22863877D01*
X33023009Y-22976955D01*
X33005319Y-23099999D01*
X33023009Y-23223046D01*
X33074650Y-23336122D01*
X33162821Y-23437878D01*
X33191845Y-23501433D01*
X33181901Y-23570591D01*
X33136147Y-23623395D01*
X33112323Y-23638705D01*
X33030918Y-23732652D01*
X32979276Y-23845730D01*
X32961586Y-23968776D01*
X32979276Y-24091821D01*
X33030918Y-24204899D01*
X33098920Y-24283378D01*
X33125712Y-24335346D01*
X33125712Y-24393813D01*
X33098921Y-24445782D01*
X33022586Y-24533878D01*
X32970945Y-24646954D01*
X32953255Y-24769999D01*
X31444010Y-24769999D01*
X31456990Y-24679722D01*
X31439299Y-24556677D01*
X31436218Y-24549931D01*
X31387657Y-24443598D01*
X31306254Y-24349653D01*
X31263201Y-24321985D01*
X31201675Y-24282445D01*
X31082400Y-24247422D01*
X30958090Y-24247422D01*
X30868243Y-24273804D01*
X30838815Y-24282445D01*
X30734236Y-24349652D01*
X30706305Y-24381887D01*
X30647529Y-24419660D01*
X30577661Y-24419661D01*
X30541681Y-24396539D01*
X30540209Y-24398831D01*
X30512690Y-24381146D01*
X30420633Y-24321985D01*
X30301358Y-24286962D01*
X30177048Y-24286962D01*
X30111793Y-24306123D01*
X30057773Y-24321985D01*
X29953193Y-24389193D01*
X29871790Y-24483138D01*
X29820148Y-24596216D01*
X29802458Y-24719261D01*
X29066639Y-24719261D01*
X29049054Y-24596955D01*
X29042554Y-24582723D01*
X28997412Y-24483876D01*
X28923142Y-24398163D01*
X28896350Y-24346195D01*
X28896350Y-24287726D01*
X28923142Y-24235758D01*
X28928068Y-24230071D01*
X28928072Y-24230070D01*
X29009478Y-24136122D01*
X29061119Y-24023045D01*
X29078810Y-23900000D01*
X29061119Y-23776955D01*
X29047418Y-23746955D01*
X29009477Y-23663876D01*
X28928074Y-23569931D01*
X28876016Y-23536476D01*
X28823495Y-23502723D01*
X28704220Y-23467700D01*
X28579910Y-23467700D01*
X28479179Y-23497278D01*
X28460635Y-23502723D01*
X28356055Y-23569931D01*
X28274652Y-23663876D01*
X28223010Y-23776954D01*
X28205320Y-23900000D01*
X28223010Y-24023045D01*
X28274652Y-24136123D01*
X28348922Y-24221836D01*
X28375714Y-24273804D01*
X28375714Y-24332272D01*
X28348922Y-24384240D01*
X28262587Y-24483876D01*
X28210945Y-24596954D01*
X28193255Y-24719999D01*
X24654180Y-24719999D01*
X24646554Y-24666955D01*
X24638779Y-24649931D01*
X24594912Y-24553876D01*
X24513509Y-24459931D01*
X24472966Y-24433876D01*
X24408930Y-24392723D01*
X24289655Y-24357700D01*
X24165345Y-24357700D01*
X24074960Y-24384240D01*
X24046070Y-24392723D01*
X23941490Y-24459931D01*
X23860087Y-24553876D01*
X23808445Y-24666954D01*
X23790755Y-24790000D01*
X22400474Y-24790000D01*
X22400474Y-23390000D01*
X23790755Y-23390000D01*
X23808445Y-23513045D01*
X23860087Y-23626123D01*
X23941490Y-23720068D01*
X23941492Y-23720069D01*
X23941493Y-23720070D01*
X24046070Y-23787277D01*
X24165345Y-23822300D01*
X24289654Y-23822300D01*
X24289655Y-23822300D01*
X24408930Y-23787277D01*
X24513507Y-23720070D01*
X24594913Y-23626122D01*
X24646554Y-23513045D01*
X24664245Y-23390000D01*
X24646554Y-23266955D01*
X24626500Y-23223044D01*
X24594912Y-23153876D01*
X24517476Y-23064509D01*
X31387993Y-23064509D01*
X31405683Y-23187555D01*
X31457325Y-23300633D01*
X31538728Y-23394578D01*
X31538730Y-23394579D01*
X31538731Y-23394580D01*
X31643308Y-23461787D01*
X31762583Y-23496810D01*
X31886892Y-23496810D01*
X31886893Y-23496810D01*
X32006168Y-23461787D01*
X32110745Y-23394580D01*
X32114715Y-23389999D01*
X32192150Y-23300633D01*
X32192149Y-23300633D01*
X32192151Y-23300632D01*
X32243792Y-23187555D01*
X32261483Y-23064510D01*
X32243792Y-22941465D01*
X32236785Y-22926123D01*
X32192151Y-22828388D01*
X32144551Y-22773454D01*
X32117760Y-22721485D01*
X32117761Y-22663017D01*
X32144551Y-22611051D01*
X32209478Y-22536122D01*
X32261119Y-22423045D01*
X32277669Y-22307935D01*
X36213255Y-22307935D01*
X36230945Y-22430980D01*
X36282587Y-22544058D01*
X36363990Y-22638003D01*
X36363992Y-22638004D01*
X36363993Y-22638005D01*
X36468570Y-22705212D01*
X36587845Y-22740235D01*
X36712154Y-22740235D01*
X36712155Y-22740235D01*
X36831430Y-22705212D01*
X36855102Y-22689999D01*
X41403255Y-22689999D01*
X41420945Y-22813045D01*
X41472587Y-22926123D01*
X41553990Y-23020068D01*
X41553992Y-23020069D01*
X41553993Y-23020070D01*
X41658570Y-23087277D01*
X41777845Y-23122300D01*
X41902154Y-23122300D01*
X41902155Y-23122300D01*
X42021430Y-23087277D01*
X42126007Y-23020070D01*
X42156491Y-22984890D01*
X42207412Y-22926123D01*
X42207411Y-22926123D01*
X42207413Y-22926122D01*
X42259054Y-22813045D01*
X42276745Y-22690000D01*
X42262367Y-22590000D01*
X53339255Y-22590000D01*
X53356945Y-22713045D01*
X53408587Y-22826123D01*
X53489990Y-22920068D01*
X53489992Y-22920069D01*
X53489993Y-22920070D01*
X53594570Y-22987277D01*
X53642982Y-23001492D01*
X53701760Y-23039266D01*
X53730785Y-23102822D01*
X53750945Y-23243045D01*
X53802587Y-23356123D01*
X53883990Y-23450068D01*
X53883992Y-23450069D01*
X53883993Y-23450070D01*
X53988570Y-23517277D01*
X54107845Y-23552300D01*
X54232154Y-23552300D01*
X54232155Y-23552300D01*
X54351430Y-23517277D01*
X54456007Y-23450070D01*
X54466461Y-23438006D01*
X54537412Y-23356123D01*
X54537411Y-23356123D01*
X54537413Y-23356122D01*
X54589054Y-23243045D01*
X54606745Y-23120000D01*
X54589054Y-22996955D01*
X54587121Y-22992723D01*
X54537412Y-22883876D01*
X54456009Y-22789931D01*
X54423854Y-22769267D01*
X54351430Y-22722723D01*
X54303016Y-22708507D01*
X54244238Y-22670732D01*
X54215214Y-22607176D01*
X54209431Y-22566955D01*
X54195054Y-22466955D01*
X54188361Y-22452300D01*
X54143412Y-22353876D01*
X54062009Y-22259931D01*
X54029854Y-22239267D01*
X53957430Y-22192723D01*
X53838155Y-22157700D01*
X53713845Y-22157700D01*
X53648270Y-22176955D01*
X53594570Y-22192723D01*
X53489990Y-22259931D01*
X53408587Y-22353876D01*
X53356945Y-22466954D01*
X53339255Y-22590000D01*
X42262367Y-22590000D01*
X42259054Y-22566955D01*
X42248597Y-22544058D01*
X42207412Y-22453876D01*
X42126009Y-22359931D01*
X42093854Y-22339267D01*
X42021430Y-22292723D01*
X41902155Y-22257700D01*
X41777845Y-22257700D01*
X41658569Y-22292723D01*
X41658570Y-22292723D01*
X41553990Y-22359931D01*
X41472587Y-22453876D01*
X41420945Y-22566954D01*
X41403255Y-22689999D01*
X36855102Y-22689999D01*
X36936007Y-22638005D01*
X36959365Y-22611049D01*
X37017412Y-22544058D01*
X37017411Y-22544058D01*
X37017413Y-22544057D01*
X37069054Y-22430980D01*
X37086745Y-22307935D01*
X37069054Y-22184890D01*
X37065430Y-22176955D01*
X37017412Y-22071811D01*
X36936009Y-21977866D01*
X36903854Y-21957202D01*
X36831430Y-21910658D01*
X36712155Y-21875635D01*
X36587845Y-21875635D01*
X36514144Y-21897276D01*
X36468570Y-21910658D01*
X36363990Y-21977866D01*
X36282587Y-22071811D01*
X36230945Y-22184889D01*
X36213255Y-22307935D01*
X32277669Y-22307935D01*
X32278810Y-22300000D01*
X32261119Y-22176955D01*
X32256699Y-22167277D01*
X32209477Y-22063876D01*
X32128074Y-21969931D01*
X32069518Y-21932300D01*
X32023495Y-21902723D01*
X31904220Y-21867700D01*
X31779910Y-21867700D01*
X31679182Y-21897277D01*
X31660635Y-21902723D01*
X31556055Y-21969931D01*
X31474652Y-22063876D01*
X31423010Y-22176954D01*
X31405320Y-22300000D01*
X31423010Y-22423045D01*
X31474651Y-22536121D01*
X31522251Y-22591055D01*
X31549042Y-22643023D01*
X31549042Y-22701491D01*
X31522250Y-22753459D01*
X31457325Y-22828386D01*
X31405683Y-22941464D01*
X31387993Y-23064509D01*
X24517476Y-23064509D01*
X24513509Y-23059931D01*
X24451480Y-23020068D01*
X24408930Y-22992723D01*
X24289655Y-22957700D01*
X24165345Y-22957700D01*
X24072746Y-22984890D01*
X24046070Y-22992723D01*
X23941490Y-23059931D01*
X23860087Y-23153876D01*
X23808445Y-23266954D01*
X23790755Y-23390000D01*
X22400474Y-23390000D01*
X22400474Y-21870000D01*
X23790755Y-21870000D01*
X23808445Y-21993045D01*
X23860087Y-22106123D01*
X23941490Y-22200068D01*
X23941492Y-22200069D01*
X23941493Y-22200070D01*
X24046070Y-22267277D01*
X24165345Y-22302300D01*
X24289654Y-22302300D01*
X24289655Y-22302300D01*
X24408930Y-22267277D01*
X24513507Y-22200070D01*
X24526661Y-22184890D01*
X24594912Y-22106123D01*
X24594911Y-22106123D01*
X24594913Y-22106122D01*
X24646554Y-21993045D01*
X24664245Y-21870000D01*
X24646554Y-21746955D01*
X24641607Y-21736123D01*
X24594912Y-21633876D01*
X24513509Y-21539931D01*
X24451374Y-21500000D01*
X27421191Y-21500000D01*
X27438881Y-21623045D01*
X27490523Y-21736123D01*
X27571926Y-21830068D01*
X27571928Y-21830069D01*
X27571929Y-21830070D01*
X27676506Y-21897277D01*
X27795781Y-21932300D01*
X27920090Y-21932300D01*
X27920091Y-21932300D01*
X28039366Y-21897277D01*
X28143943Y-21830070D01*
X28195994Y-21770000D01*
X49793255Y-21770000D01*
X49810945Y-21893045D01*
X49862587Y-22006123D01*
X49943990Y-22100068D01*
X49943992Y-22100069D01*
X49943993Y-22100070D01*
X50048570Y-22167277D01*
X50167845Y-22202300D01*
X50292154Y-22202300D01*
X50292155Y-22202300D01*
X50411430Y-22167277D01*
X50516007Y-22100070D01*
X50540494Y-22071811D01*
X50585388Y-22020000D01*
X50585389Y-22019999D01*
X51139255Y-22019999D01*
X51156945Y-22143045D01*
X51208587Y-22256123D01*
X51289990Y-22350068D01*
X51289992Y-22350069D01*
X51289993Y-22350070D01*
X51394570Y-22417277D01*
X51513845Y-22452300D01*
X51638154Y-22452300D01*
X51638155Y-22452300D01*
X51757430Y-22417277D01*
X51862007Y-22350070D01*
X51943413Y-22256122D01*
X51995054Y-22143045D01*
X52012745Y-22020000D01*
X51995054Y-21896955D01*
X51993268Y-21893045D01*
X51943412Y-21783876D01*
X51862009Y-21689931D01*
X51795134Y-21646954D01*
X51757430Y-21622723D01*
X51638155Y-21587700D01*
X51513845Y-21587700D01*
X51394570Y-21622722D01*
X51394570Y-21622723D01*
X51289990Y-21689931D01*
X51208587Y-21783876D01*
X51156945Y-21896954D01*
X51139255Y-22019999D01*
X50585389Y-22019999D01*
X50597413Y-22006122D01*
X50649054Y-21893045D01*
X50666745Y-21770000D01*
X50649054Y-21646955D01*
X50630406Y-21606123D01*
X50597412Y-21533876D01*
X50516009Y-21439931D01*
X50483854Y-21419267D01*
X50411430Y-21372723D01*
X50402153Y-21369999D01*
X54373255Y-21369999D01*
X54390945Y-21493045D01*
X54442587Y-21606123D01*
X54523990Y-21700068D01*
X54523992Y-21700069D01*
X54523993Y-21700070D01*
X54628570Y-21767277D01*
X54747845Y-21802300D01*
X54872154Y-21802300D01*
X54872155Y-21802300D01*
X54991430Y-21767277D01*
X55096007Y-21700070D01*
X55104793Y-21689931D01*
X55177412Y-21606123D01*
X55177411Y-21606123D01*
X55177413Y-21606122D01*
X55229054Y-21493045D01*
X55246745Y-21370000D01*
X55229054Y-21246955D01*
X55226928Y-21242300D01*
X55177412Y-21133876D01*
X55096009Y-21039931D01*
X55037453Y-21002300D01*
X54991430Y-20972723D01*
X54872155Y-20937700D01*
X54747845Y-20937700D01*
X54647117Y-20967277D01*
X54628570Y-20972723D01*
X54523990Y-21039931D01*
X54442587Y-21133876D01*
X54390945Y-21246954D01*
X54373255Y-21369999D01*
X50402153Y-21369999D01*
X50292155Y-21337700D01*
X50167845Y-21337700D01*
X50057847Y-21369999D01*
X50048570Y-21372723D01*
X49943990Y-21439931D01*
X49862587Y-21533876D01*
X49810945Y-21646954D01*
X49793255Y-21770000D01*
X28195994Y-21770000D01*
X28225349Y-21736122D01*
X28276990Y-21623045D01*
X28294681Y-21500000D01*
X28276990Y-21376955D01*
X28275057Y-21372723D01*
X28225348Y-21263876D01*
X28143945Y-21169931D01*
X28111790Y-21149267D01*
X28039366Y-21102723D01*
X27920091Y-21067700D01*
X27795781Y-21067700D01*
X27676506Y-21102722D01*
X27676506Y-21102723D01*
X27571926Y-21169931D01*
X27490523Y-21263876D01*
X27438881Y-21376954D01*
X27421191Y-21500000D01*
X24451374Y-21500000D01*
X24408930Y-21472723D01*
X24289655Y-21437700D01*
X24165345Y-21437700D01*
X24046070Y-21472722D01*
X24046070Y-21472723D01*
X23941490Y-21539931D01*
X23860087Y-21633876D01*
X23808445Y-21746954D01*
X23790755Y-21870000D01*
X22400474Y-21870000D01*
X22400474Y-20339999D01*
X29663255Y-20339999D01*
X29680945Y-20463045D01*
X29732587Y-20576123D01*
X29813990Y-20670068D01*
X29813992Y-20670069D01*
X29813993Y-20670070D01*
X29918570Y-20737277D01*
X30037845Y-20772300D01*
X30162154Y-20772300D01*
X30162155Y-20772300D01*
X30281430Y-20737277D01*
X30386007Y-20670070D01*
X30420729Y-20629999D01*
X31907355Y-20629999D01*
X31925045Y-20753045D01*
X31976687Y-20866123D01*
X32058090Y-20960068D01*
X32058092Y-20960069D01*
X32058093Y-20960070D01*
X32162670Y-21027277D01*
X32281945Y-21062300D01*
X32406254Y-21062300D01*
X32406255Y-21062300D01*
X32525530Y-21027277D01*
X32630107Y-20960070D01*
X32711513Y-20866122D01*
X32763154Y-20753045D01*
X32780845Y-20630000D01*
X32772218Y-20569999D01*
X34003255Y-20569999D01*
X34020945Y-20693045D01*
X34072587Y-20806123D01*
X34153990Y-20900068D01*
X34153992Y-20900069D01*
X34153993Y-20900070D01*
X34258570Y-20967277D01*
X34377845Y-21002300D01*
X34502154Y-21002300D01*
X34502155Y-21002300D01*
X34621430Y-20967277D01*
X34726007Y-20900070D01*
X34804053Y-20810000D01*
X48719255Y-20810000D01*
X48736945Y-20933045D01*
X48788587Y-21046123D01*
X48869990Y-21140068D01*
X48869992Y-21140069D01*
X48869993Y-21140070D01*
X48974570Y-21207277D01*
X49093845Y-21242300D01*
X49218154Y-21242300D01*
X49218155Y-21242300D01*
X49337430Y-21207277D01*
X49442007Y-21140070D01*
X49447373Y-21133878D01*
X49523412Y-21046123D01*
X49523411Y-21046123D01*
X49523413Y-21046122D01*
X49575054Y-20933045D01*
X49592745Y-20810000D01*
X49575054Y-20686955D01*
X49523413Y-20573878D01*
X49523412Y-20573877D01*
X49523412Y-20573876D01*
X49442009Y-20479931D01*
X49390695Y-20446954D01*
X49337430Y-20412723D01*
X49218155Y-20377700D01*
X49093845Y-20377700D01*
X49038756Y-20393876D01*
X48974570Y-20412723D01*
X48869990Y-20479931D01*
X48788587Y-20573876D01*
X48736945Y-20686954D01*
X48719255Y-20810000D01*
X34804053Y-20810000D01*
X34807413Y-20806122D01*
X34859054Y-20693045D01*
X34876745Y-20570000D01*
X34859054Y-20446955D01*
X34834814Y-20393878D01*
X34807412Y-20333876D01*
X34726009Y-20239931D01*
X34660295Y-20197700D01*
X34621430Y-20172723D01*
X34502155Y-20137700D01*
X34377845Y-20137700D01*
X34258569Y-20172723D01*
X34258570Y-20172723D01*
X34153990Y-20239931D01*
X34072587Y-20333876D01*
X34020945Y-20446954D01*
X34003255Y-20569999D01*
X32772218Y-20569999D01*
X32763154Y-20506955D01*
X32750812Y-20479931D01*
X32711512Y-20393876D01*
X32630109Y-20299931D01*
X32597954Y-20279267D01*
X32525530Y-20232723D01*
X32406255Y-20197700D01*
X32281945Y-20197700D01*
X32216370Y-20216955D01*
X32162670Y-20232723D01*
X32058090Y-20299931D01*
X31976687Y-20393876D01*
X31925045Y-20506954D01*
X31907355Y-20629999D01*
X30420729Y-20629999D01*
X30467413Y-20576122D01*
X30519054Y-20463045D01*
X30536745Y-20340000D01*
X30519054Y-20216955D01*
X30510260Y-20197700D01*
X30467413Y-20103879D01*
X30467413Y-20103878D01*
X30430625Y-20061422D01*
X30403173Y-20006579D01*
X30405362Y-19945286D01*
X30436658Y-19892539D01*
X30489404Y-19861244D01*
X30511430Y-19854777D01*
X30616007Y-19787570D01*
X30697413Y-19693622D01*
X30749054Y-19580545D01*
X30766745Y-19457500D01*
X31083255Y-19457500D01*
X31100945Y-19580545D01*
X31152587Y-19693623D01*
X31233990Y-19787568D01*
X31233992Y-19787569D01*
X31233993Y-19787570D01*
X31338570Y-19854777D01*
X31457845Y-19889800D01*
X31582154Y-19889800D01*
X31582155Y-19889800D01*
X31701430Y-19854777D01*
X31806007Y-19787570D01*
X31887413Y-19693622D01*
X31939054Y-19580545D01*
X31956745Y-19457500D01*
X33743255Y-19457500D01*
X33760945Y-19580545D01*
X33812587Y-19693623D01*
X33893990Y-19787568D01*
X33893992Y-19787569D01*
X33893993Y-19787570D01*
X33998570Y-19854777D01*
X34117845Y-19889800D01*
X34242154Y-19889800D01*
X34242155Y-19889800D01*
X34361430Y-19854777D01*
X34466007Y-19787570D01*
X34547413Y-19693622D01*
X34599054Y-19580545D01*
X34616745Y-19457500D01*
X34599054Y-19334455D01*
X34557688Y-19243878D01*
X34547412Y-19221376D01*
X34466009Y-19127431D01*
X34433854Y-19106767D01*
X34361430Y-19060223D01*
X34242155Y-19025200D01*
X34117845Y-19025200D01*
X34041219Y-19047700D01*
X33998570Y-19060223D01*
X33893990Y-19127431D01*
X33812587Y-19221376D01*
X33760945Y-19334454D01*
X33743255Y-19457500D01*
X31956745Y-19457500D01*
X31939054Y-19334455D01*
X31897688Y-19243878D01*
X31887412Y-19221376D01*
X31806009Y-19127431D01*
X31773854Y-19106767D01*
X31701430Y-19060223D01*
X31582155Y-19025200D01*
X31457845Y-19025200D01*
X31381219Y-19047700D01*
X31338570Y-19060223D01*
X31233990Y-19127431D01*
X31152587Y-19221376D01*
X31100945Y-19334454D01*
X31083255Y-19457500D01*
X30766745Y-19457500D01*
X30749054Y-19334455D01*
X30707688Y-19243878D01*
X30697412Y-19221376D01*
X30616009Y-19127431D01*
X30583854Y-19106767D01*
X30511430Y-19060223D01*
X30392155Y-19025200D01*
X30267845Y-19025200D01*
X30191219Y-19047700D01*
X30148570Y-19060223D01*
X30043990Y-19127431D01*
X29962587Y-19221376D01*
X29910945Y-19334454D01*
X29893255Y-19457499D01*
X29910945Y-19580545D01*
X29921221Y-19603045D01*
X29962587Y-19693622D01*
X29999373Y-19736075D01*
X30026826Y-19790919D01*
X30024638Y-19852211D01*
X29993343Y-19904958D01*
X29940598Y-19936254D01*
X29918572Y-19942721D01*
X29813990Y-20009931D01*
X29732587Y-20103876D01*
X29680945Y-20216954D01*
X29663255Y-20339999D01*
X22400474Y-20339999D01*
X22400474Y-19467499D01*
X24413255Y-19467499D01*
X24430945Y-19590545D01*
X24482587Y-19703623D01*
X24563990Y-19797568D01*
X24563992Y-19797569D01*
X24563993Y-19797570D01*
X24668570Y-19864777D01*
X24787845Y-19899800D01*
X24912154Y-19899800D01*
X24912155Y-19899800D01*
X25031430Y-19864777D01*
X25136007Y-19797570D01*
X25217413Y-19703622D01*
X25269054Y-19590545D01*
X25284948Y-19480000D01*
X25893255Y-19480000D01*
X25910945Y-19603045D01*
X25962587Y-19716123D01*
X26043990Y-19810068D01*
X26043992Y-19810069D01*
X26043993Y-19810070D01*
X26148570Y-19877277D01*
X26267845Y-19912300D01*
X26392154Y-19912300D01*
X26392155Y-19912300D01*
X26511430Y-19877277D01*
X26616007Y-19810070D01*
X26632602Y-19790919D01*
X26697412Y-19716123D01*
X26697411Y-19716123D01*
X26697413Y-19716122D01*
X26749054Y-19603045D01*
X26766745Y-19480000D01*
X26749054Y-19356955D01*
X26743345Y-19344455D01*
X26697412Y-19243876D01*
X26616009Y-19149931D01*
X26580996Y-19127430D01*
X26511430Y-19082723D01*
X26392155Y-19047700D01*
X26267845Y-19047700D01*
X26148569Y-19082723D01*
X26148570Y-19082723D01*
X26043990Y-19149931D01*
X25962587Y-19243876D01*
X25910945Y-19356954D01*
X25893255Y-19480000D01*
X25284948Y-19480000D01*
X25286745Y-19467500D01*
X25269054Y-19344455D01*
X25264487Y-19334455D01*
X25217412Y-19231376D01*
X25136009Y-19137431D01*
X25103854Y-19116767D01*
X25031430Y-19070223D01*
X24912155Y-19035200D01*
X24787845Y-19035200D01*
X24745275Y-19047700D01*
X24668570Y-19070223D01*
X24563990Y-19137431D01*
X24482587Y-19231376D01*
X24430945Y-19344454D01*
X24413255Y-19467499D01*
X22400474Y-19467499D01*
X22400474Y-17590000D01*
X23213255Y-17590000D01*
X23230945Y-17713045D01*
X23289993Y-17842339D01*
X23289355Y-17842630D01*
X23309983Y-17887799D01*
X23300039Y-17956957D01*
X23250945Y-18064454D01*
X23233255Y-18187499D01*
X23250945Y-18310545D01*
X23302587Y-18423623D01*
X23383990Y-18517568D01*
X23383992Y-18517569D01*
X23383993Y-18517570D01*
X23488570Y-18584777D01*
X23607845Y-18619800D01*
X23732154Y-18619800D01*
X23732155Y-18619800D01*
X23851430Y-18584777D01*
X23956007Y-18517570D01*
X24037413Y-18423622D01*
X24089054Y-18310545D01*
X24100635Y-18229999D01*
X60563255Y-18229999D01*
X60580945Y-18353045D01*
X60632587Y-18466123D01*
X60713990Y-18560068D01*
X60713992Y-18560069D01*
X60713993Y-18560070D01*
X60818570Y-18627277D01*
X60937845Y-18662300D01*
X61062154Y-18662300D01*
X61062155Y-18662300D01*
X61181430Y-18627277D01*
X61286007Y-18560070D01*
X61367413Y-18466122D01*
X61419054Y-18353045D01*
X61436745Y-18230000D01*
X61419054Y-18106955D01*
X61381786Y-18025350D01*
X61370581Y-17973841D01*
X61381787Y-17922328D01*
X61413381Y-17880126D01*
X61436729Y-17867377D01*
X61436432Y-17866915D01*
X61451428Y-17857277D01*
X61451430Y-17857277D01*
X61556007Y-17790070D01*
X61637413Y-17696122D01*
X61689054Y-17583045D01*
X61706745Y-17460000D01*
X61689054Y-17336955D01*
X61637413Y-17223878D01*
X61637412Y-17223877D01*
X61637412Y-17223876D01*
X61545065Y-17117301D01*
X61517612Y-17062457D01*
X61519801Y-17001164D01*
X61551097Y-16948418D01*
X61603840Y-16917123D01*
X61671430Y-16897277D01*
X61776007Y-16830070D01*
X61793458Y-16809931D01*
X61857412Y-16736123D01*
X61857411Y-16736123D01*
X61857413Y-16736122D01*
X61909054Y-16623045D01*
X61910930Y-16610000D01*
X64013255Y-16610000D01*
X64030945Y-16733045D01*
X64082587Y-16846123D01*
X64163990Y-16940068D01*
X64163992Y-16940069D01*
X64163993Y-16940070D01*
X64268570Y-17007277D01*
X64387845Y-17042300D01*
X64512154Y-17042300D01*
X64512155Y-17042300D01*
X64631430Y-17007277D01*
X64736007Y-16940070D01*
X64755892Y-16917122D01*
X64790418Y-16877276D01*
X64817413Y-16846122D01*
X64869054Y-16733045D01*
X64886745Y-16610000D01*
X64869054Y-16486955D01*
X64865877Y-16479999D01*
X64817412Y-16373876D01*
X64770728Y-16319999D01*
X65919255Y-16319999D01*
X65936945Y-16443045D01*
X65988587Y-16556123D01*
X66069990Y-16650068D01*
X66069992Y-16650069D01*
X66069993Y-16650070D01*
X66174570Y-16717277D01*
X66293845Y-16752300D01*
X66418154Y-16752300D01*
X66418155Y-16752300D01*
X66537430Y-16717277D01*
X66642007Y-16650070D01*
X66650793Y-16639931D01*
X66723412Y-16556123D01*
X66723411Y-16556123D01*
X66723413Y-16556122D01*
X66775054Y-16443045D01*
X66792745Y-16320000D01*
X66775054Y-16196955D01*
X66774129Y-16194930D01*
X66723412Y-16083876D01*
X66642009Y-15989931D01*
X66609854Y-15969267D01*
X66537430Y-15922723D01*
X66418155Y-15887700D01*
X66293845Y-15887700D01*
X66174569Y-15922723D01*
X66174570Y-15922723D01*
X66069990Y-15989931D01*
X65988587Y-16083876D01*
X65936945Y-16196954D01*
X65919255Y-16319999D01*
X64770728Y-16319999D01*
X64736009Y-16279931D01*
X64703854Y-16259267D01*
X64631430Y-16212723D01*
X64512155Y-16177700D01*
X64387845Y-16177700D01*
X64302626Y-16202723D01*
X64268570Y-16212723D01*
X64163990Y-16279931D01*
X64082587Y-16373876D01*
X64030945Y-16486954D01*
X64013255Y-16610000D01*
X61910930Y-16610000D01*
X61926745Y-16500000D01*
X61909054Y-16376955D01*
X61899920Y-16356955D01*
X61857412Y-16263876D01*
X61776009Y-16169931D01*
X61710331Y-16127723D01*
X61671430Y-16102723D01*
X61552155Y-16067700D01*
X61427845Y-16067700D01*
X61372756Y-16083876D01*
X61308570Y-16102723D01*
X61203990Y-16169931D01*
X61122587Y-16263876D01*
X61070945Y-16376954D01*
X61053255Y-16500000D01*
X61070945Y-16623045D01*
X61122587Y-16736123D01*
X61214934Y-16842698D01*
X61242387Y-16897542D01*
X61240198Y-16958834D01*
X61208903Y-17011581D01*
X61156157Y-17042877D01*
X61088570Y-17062723D01*
X60983990Y-17129931D01*
X60902587Y-17223876D01*
X60850945Y-17336954D01*
X60833255Y-17459999D01*
X60850945Y-17583045D01*
X60888212Y-17664646D01*
X60898156Y-17733801D01*
X60869136Y-17797354D01*
X60832263Y-17821055D01*
X60833568Y-17823085D01*
X60818571Y-17832722D01*
X60818570Y-17832723D01*
X60789096Y-17851664D01*
X60713990Y-17899931D01*
X60632587Y-17993876D01*
X60580945Y-18106954D01*
X60563255Y-18229999D01*
X24100635Y-18229999D01*
X24106745Y-18187500D01*
X24089054Y-18064455D01*
X24072075Y-18027277D01*
X24030007Y-17935161D01*
X24030644Y-17934869D01*
X24010017Y-17889701D01*
X24019961Y-17820543D01*
X24069054Y-17713045D01*
X24072011Y-17692476D01*
X24080994Y-17630000D01*
X24463255Y-17630000D01*
X24480945Y-17753045D01*
X24532587Y-17866123D01*
X24613990Y-17960068D01*
X24613992Y-17960069D01*
X24613993Y-17960070D01*
X24718570Y-18027277D01*
X24837845Y-18062300D01*
X24962154Y-18062300D01*
X24962155Y-18062300D01*
X25081430Y-18027277D01*
X25186007Y-17960070D01*
X25188705Y-17956957D01*
X25248630Y-17887799D01*
X25267413Y-17866122D01*
X25319054Y-17753045D01*
X25336745Y-17630000D01*
X25319054Y-17506955D01*
X25300786Y-17466955D01*
X25267412Y-17393876D01*
X25186009Y-17299931D01*
X25128612Y-17263045D01*
X25081430Y-17232723D01*
X24962155Y-17197700D01*
X24837845Y-17197700D01*
X24748700Y-17223876D01*
X24718570Y-17232723D01*
X24613990Y-17299931D01*
X24532587Y-17393876D01*
X24480945Y-17506954D01*
X24463255Y-17630000D01*
X24080994Y-17630000D01*
X24086745Y-17590000D01*
X24069054Y-17466955D01*
X24065877Y-17459999D01*
X24017412Y-17353876D01*
X23936009Y-17259931D01*
X23893672Y-17232723D01*
X23831430Y-17192723D01*
X23712155Y-17157700D01*
X23587845Y-17157700D01*
X23468569Y-17192723D01*
X23468570Y-17192723D01*
X23363990Y-17259931D01*
X23282587Y-17353876D01*
X23230945Y-17466954D01*
X23213255Y-17590000D01*
X22400474Y-17590000D01*
X22400474Y-16970000D01*
X36483255Y-16970000D01*
X36500945Y-17093045D01*
X36552587Y-17206123D01*
X36633990Y-17300068D01*
X36633992Y-17300069D01*
X36633993Y-17300070D01*
X36738570Y-17367277D01*
X36857845Y-17402300D01*
X36982154Y-17402300D01*
X36982155Y-17402300D01*
X37101430Y-17367277D01*
X37206007Y-17300070D01*
X37206128Y-17299931D01*
X37287412Y-17206123D01*
X37287411Y-17206123D01*
X37287413Y-17206122D01*
X37317611Y-17139999D01*
X56863255Y-17139999D01*
X56880945Y-17263045D01*
X56932587Y-17376123D01*
X57013990Y-17470068D01*
X57013992Y-17470069D01*
X57013993Y-17470070D01*
X57118570Y-17537277D01*
X57237845Y-17572300D01*
X57362153Y-17572300D01*
X57362155Y-17572300D01*
X57418167Y-17555852D01*
X57479456Y-17553663D01*
X57534302Y-17581116D01*
X57569281Y-17631495D01*
X57575838Y-17692476D01*
X57563254Y-17779999D01*
X57580945Y-17903045D01*
X57632587Y-18016123D01*
X57713990Y-18110068D01*
X57713992Y-18110069D01*
X57713993Y-18110070D01*
X57818570Y-18177277D01*
X57937845Y-18212300D01*
X58062154Y-18212300D01*
X58062155Y-18212300D01*
X58181430Y-18177277D01*
X58286007Y-18110070D01*
X58288706Y-18106956D01*
X58367412Y-18016123D01*
X58367411Y-18016123D01*
X58367413Y-18016122D01*
X58419054Y-17903045D01*
X58436745Y-17780000D01*
X58419054Y-17656955D01*
X58388476Y-17590000D01*
X58367412Y-17543876D01*
X58286009Y-17449931D01*
X58253854Y-17429267D01*
X58181430Y-17382723D01*
X58062155Y-17347700D01*
X57937845Y-17347700D01*
X57937844Y-17347700D01*
X57881834Y-17364146D01*
X57820541Y-17366335D01*
X57765696Y-17338882D01*
X57730717Y-17288503D01*
X57724161Y-17227522D01*
X57724685Y-17223878D01*
X57736745Y-17140000D01*
X57719054Y-17016955D01*
X57714634Y-17007277D01*
X57683941Y-16940070D01*
X57667413Y-16903878D01*
X57656693Y-16891506D01*
X57629239Y-16836662D01*
X57631428Y-16775369D01*
X57662723Y-16722622D01*
X57715467Y-16691327D01*
X57831430Y-16657277D01*
X57850424Y-16645069D01*
X57899812Y-16626649D01*
X57952394Y-16630410D01*
X57998663Y-16655674D01*
X58030253Y-16697873D01*
X58034741Y-16707700D01*
X58038588Y-16716125D01*
X58119990Y-16810068D01*
X58119992Y-16810069D01*
X58119993Y-16810070D01*
X58224570Y-16877277D01*
X58343845Y-16912300D01*
X58468154Y-16912300D01*
X58468155Y-16912300D01*
X58587430Y-16877277D01*
X58692007Y-16810070D01*
X58692128Y-16809931D01*
X58773412Y-16716123D01*
X58773411Y-16716123D01*
X58773413Y-16716122D01*
X58825054Y-16603045D01*
X58842745Y-16480000D01*
X58825054Y-16356955D01*
X58773413Y-16243878D01*
X58773412Y-16243877D01*
X58773412Y-16243876D01*
X58692009Y-16149931D01*
X58657452Y-16127723D01*
X58587430Y-16082723D01*
X58468155Y-16047700D01*
X58343845Y-16047700D01*
X58224570Y-16082723D01*
X58205578Y-16094928D01*
X58138540Y-16114612D01*
X58071501Y-16094928D01*
X58025746Y-16042124D01*
X58017412Y-16023876D01*
X57936009Y-15929931D01*
X57870295Y-15887700D01*
X57831430Y-15862723D01*
X57712155Y-15827700D01*
X57587845Y-15827700D01*
X57512138Y-15849930D01*
X57468570Y-15862723D01*
X57363990Y-15929931D01*
X57282587Y-16023876D01*
X57230945Y-16136954D01*
X57213255Y-16260000D01*
X57230945Y-16383045D01*
X57282586Y-16496120D01*
X57282587Y-16496122D01*
X57293307Y-16508494D01*
X57320760Y-16563337D01*
X57318571Y-16624630D01*
X57287276Y-16677376D01*
X57234530Y-16708673D01*
X57118570Y-16742723D01*
X57013990Y-16809931D01*
X56932587Y-16903876D01*
X56880945Y-17016954D01*
X56863255Y-17139999D01*
X37317611Y-17139999D01*
X37339054Y-17093045D01*
X37356745Y-16970000D01*
X37340221Y-16855070D01*
X37339054Y-16846954D01*
X37287412Y-16733876D01*
X37206009Y-16639931D01*
X37173854Y-16619267D01*
X37101430Y-16572723D01*
X36982155Y-16537700D01*
X36857845Y-16537700D01*
X36770535Y-16563337D01*
X36738570Y-16572723D01*
X36633990Y-16639931D01*
X36552587Y-16733876D01*
X36500945Y-16846954D01*
X36483255Y-16970000D01*
X22400474Y-16970000D01*
X22400474Y-16180000D01*
X48149255Y-16180000D01*
X48166945Y-16303045D01*
X48218587Y-16416123D01*
X48299990Y-16510068D01*
X48299992Y-16510069D01*
X48299993Y-16510070D01*
X48404570Y-16577277D01*
X48523845Y-16612300D01*
X48648154Y-16612300D01*
X48648155Y-16612300D01*
X48767430Y-16577277D01*
X48848775Y-16525000D01*
X49988255Y-16525000D01*
X50005945Y-16648045D01*
X50057587Y-16761123D01*
X50138990Y-16855068D01*
X50138992Y-16855069D01*
X50138993Y-16855070D01*
X50243570Y-16922277D01*
X50362845Y-16957300D01*
X50487154Y-16957300D01*
X50487155Y-16957300D01*
X50606430Y-16922277D01*
X50711007Y-16855070D01*
X50718761Y-16846122D01*
X50792412Y-16761123D01*
X50792411Y-16761123D01*
X50792413Y-16761122D01*
X50844054Y-16648045D01*
X50850962Y-16600000D01*
X52638255Y-16600000D01*
X52655945Y-16723045D01*
X52707587Y-16836123D01*
X52788990Y-16930068D01*
X52788992Y-16930069D01*
X52788993Y-16930070D01*
X52893570Y-16997277D01*
X53012845Y-17032300D01*
X53137154Y-17032300D01*
X53137155Y-17032300D01*
X53256430Y-16997277D01*
X53361007Y-16930070D01*
X53372227Y-16917122D01*
X53415277Y-16867438D01*
X53442413Y-16836122D01*
X53494054Y-16723045D01*
X53511745Y-16600000D01*
X53494054Y-16476955D01*
X53442413Y-16363878D01*
X53442412Y-16363877D01*
X53442412Y-16363876D01*
X53361009Y-16269931D01*
X53271990Y-16212723D01*
X53256430Y-16202723D01*
X53137155Y-16167700D01*
X53012845Y-16167700D01*
X52920110Y-16194930D01*
X52893570Y-16202723D01*
X52788990Y-16269931D01*
X52707587Y-16363876D01*
X52655945Y-16476954D01*
X52638255Y-16600000D01*
X50850962Y-16600000D01*
X50861745Y-16525000D01*
X50844054Y-16401955D01*
X50832636Y-16376954D01*
X50792412Y-16288876D01*
X50711009Y-16194931D01*
X50668636Y-16167700D01*
X50606430Y-16127723D01*
X50487155Y-16092700D01*
X50362845Y-16092700D01*
X50288221Y-16114612D01*
X50243570Y-16127723D01*
X50138990Y-16194931D01*
X50057587Y-16288876D01*
X50005945Y-16401954D01*
X49988255Y-16525000D01*
X48848775Y-16525000D01*
X48872007Y-16510070D01*
X48873374Y-16508493D01*
X48953412Y-16416123D01*
X48953411Y-16416123D01*
X48953413Y-16416122D01*
X49005054Y-16303045D01*
X49022745Y-16180000D01*
X49006599Y-16067700D01*
X49005054Y-16056954D01*
X48953412Y-15943876D01*
X48872009Y-15849931D01*
X48819400Y-15816122D01*
X48767430Y-15782723D01*
X48648155Y-15747700D01*
X48523845Y-15747700D01*
X48404570Y-15782722D01*
X48404570Y-15782723D01*
X48299990Y-15849931D01*
X48218587Y-15943876D01*
X48166945Y-16056954D01*
X48149255Y-16180000D01*
X22400474Y-16180000D01*
X22400474Y-15188750D01*
X23324505Y-15188750D01*
X23342195Y-15311795D01*
X23393837Y-15424873D01*
X23475240Y-15518818D01*
X23475242Y-15518819D01*
X23475243Y-15518820D01*
X23579820Y-15586027D01*
X23699095Y-15621050D01*
X23823404Y-15621050D01*
X23823405Y-15621050D01*
X23942680Y-15586027D01*
X24047257Y-15518820D01*
X24060145Y-15503947D01*
X24120070Y-15434789D01*
X24128663Y-15424872D01*
X24180304Y-15311795D01*
X24197995Y-15188750D01*
X24180304Y-15065705D01*
X24174522Y-15053045D01*
X24154863Y-15009999D01*
X27853255Y-15009999D01*
X27870945Y-15133045D01*
X27922587Y-15246123D01*
X28003990Y-15340068D01*
X28003992Y-15340069D01*
X28003993Y-15340070D01*
X28108570Y-15407277D01*
X28227845Y-15442300D01*
X28352154Y-15442300D01*
X28352155Y-15442300D01*
X28467810Y-15408339D01*
X28529100Y-15406151D01*
X28583945Y-15433603D01*
X28618924Y-15483983D01*
X28625481Y-15544963D01*
X28613255Y-15629999D01*
X28630945Y-15753045D01*
X28682587Y-15866123D01*
X28763990Y-15960068D01*
X28763992Y-15960069D01*
X28763993Y-15960070D01*
X28868570Y-16027277D01*
X28987845Y-16062300D01*
X29112154Y-16062300D01*
X29112155Y-16062300D01*
X29231430Y-16027277D01*
X29336007Y-15960070D01*
X29350038Y-15943878D01*
X29417412Y-15866123D01*
X29417411Y-15866123D01*
X29417413Y-15866122D01*
X29469054Y-15753045D01*
X29486745Y-15630000D01*
X29469054Y-15506955D01*
X29467680Y-15503947D01*
X29417412Y-15393876D01*
X29336009Y-15299931D01*
X29258206Y-15249931D01*
X29231430Y-15232723D01*
X29112155Y-15197700D01*
X28987845Y-15197700D01*
X28987844Y-15197700D01*
X28872191Y-15231659D01*
X28810898Y-15233848D01*
X28756053Y-15206395D01*
X28721074Y-15156015D01*
X28714518Y-15095038D01*
X28726745Y-15010000D01*
X28715243Y-14930000D01*
X29553255Y-14930000D01*
X29570945Y-15053045D01*
X29622587Y-15166123D01*
X29703990Y-15260068D01*
X29703992Y-15260069D01*
X29703993Y-15260070D01*
X29808570Y-15327277D01*
X29927845Y-15362300D01*
X29927846Y-15362300D01*
X29951452Y-15362300D01*
X30018491Y-15381985D01*
X30064246Y-15434789D01*
X30074189Y-15503945D01*
X30068293Y-15544963D01*
X30063255Y-15580000D01*
X30080945Y-15703045D01*
X30132587Y-15816123D01*
X30213990Y-15910068D01*
X30213992Y-15910069D01*
X30213993Y-15910070D01*
X30318570Y-15977277D01*
X30437845Y-16012300D01*
X30562154Y-16012300D01*
X30562155Y-16012300D01*
X30681430Y-15977277D01*
X30786007Y-15910070D01*
X30867413Y-15816122D01*
X30919054Y-15703045D01*
X30936745Y-15580000D01*
X30936745Y-15579999D01*
X31213255Y-15579999D01*
X31230945Y-15703045D01*
X31282587Y-15816123D01*
X31363990Y-15910068D01*
X31363992Y-15910069D01*
X31363993Y-15910070D01*
X31468570Y-15977277D01*
X31587845Y-16012300D01*
X31712154Y-16012300D01*
X31712155Y-16012300D01*
X31831430Y-15977277D01*
X31936007Y-15910070D01*
X32017413Y-15816122D01*
X32069054Y-15703045D01*
X32086745Y-15580000D01*
X32069054Y-15456955D01*
X32062361Y-15442300D01*
X32017412Y-15343876D01*
X31936009Y-15249931D01*
X31903854Y-15229267D01*
X31831430Y-15182723D01*
X31712155Y-15147700D01*
X31587845Y-15147700D01*
X31468569Y-15182723D01*
X31468570Y-15182723D01*
X31363990Y-15249931D01*
X31282587Y-15343876D01*
X31230945Y-15456954D01*
X31213255Y-15579999D01*
X30936745Y-15579999D01*
X30919054Y-15456955D01*
X30912361Y-15442300D01*
X30867412Y-15343876D01*
X30786009Y-15249931D01*
X30753854Y-15229267D01*
X30681430Y-15182723D01*
X30562155Y-15147700D01*
X30538548Y-15147700D01*
X30471509Y-15128015D01*
X30425754Y-15075211D01*
X30415810Y-15006053D01*
X30426745Y-14930000D01*
X30409054Y-14806955D01*
X30357413Y-14693878D01*
X30357412Y-14693877D01*
X30357412Y-14693876D01*
X30276009Y-14599931D01*
X30241416Y-14577700D01*
X30171430Y-14532723D01*
X30052155Y-14497700D01*
X29927845Y-14497700D01*
X29808569Y-14532723D01*
X29808570Y-14532723D01*
X29703990Y-14599931D01*
X29622587Y-14693876D01*
X29570945Y-14806954D01*
X29553255Y-14930000D01*
X28715243Y-14930000D01*
X28709054Y-14886955D01*
X28672518Y-14806954D01*
X28657412Y-14773876D01*
X28576009Y-14679931D01*
X28543854Y-14659267D01*
X28471430Y-14612723D01*
X28352155Y-14577700D01*
X28227845Y-14577700D01*
X28152138Y-14599930D01*
X28108570Y-14612723D01*
X28003990Y-14679931D01*
X27922587Y-14773876D01*
X27870945Y-14886954D01*
X27853255Y-15009999D01*
X24154863Y-15009999D01*
X24128662Y-14952626D01*
X24047259Y-14858681D01*
X24015104Y-14838017D01*
X23942680Y-14791473D01*
X23823405Y-14756450D01*
X23699095Y-14756450D01*
X23639749Y-14773876D01*
X23579820Y-14791473D01*
X23475240Y-14858681D01*
X23393837Y-14952626D01*
X23342195Y-15065704D01*
X23324505Y-15188750D01*
X22400474Y-15188750D01*
X22400474Y-14037631D01*
X22400872Y-14027702D01*
X22411262Y-13898360D01*
X22417699Y-13818215D01*
X22420769Y-13799029D01*
X22423585Y-13787373D01*
X22469004Y-13599385D01*
X22475031Y-13580922D01*
X22497759Y-13526249D01*
X50307005Y-13526249D01*
X50324695Y-13649295D01*
X50376337Y-13762373D01*
X50457740Y-13856318D01*
X50457742Y-13856319D01*
X50457743Y-13856320D01*
X50562320Y-13923527D01*
X50681595Y-13958550D01*
X50805904Y-13958550D01*
X50805905Y-13958550D01*
X50925180Y-13923527D01*
X51029757Y-13856320D01*
X51054919Y-13827282D01*
X51111162Y-13762373D01*
X51111161Y-13762373D01*
X51111163Y-13762372D01*
X51162804Y-13649295D01*
X51176901Y-13551249D01*
X54942005Y-13551249D01*
X54959695Y-13674295D01*
X55011337Y-13787373D01*
X55092740Y-13881318D01*
X55092742Y-13881319D01*
X55092743Y-13881320D01*
X55197320Y-13948527D01*
X55316595Y-13983550D01*
X55440904Y-13983550D01*
X55440905Y-13983550D01*
X55560180Y-13948527D01*
X55664757Y-13881320D01*
X55746163Y-13787372D01*
X55797804Y-13674295D01*
X55815495Y-13551250D01*
X55797804Y-13428205D01*
X55786386Y-13403204D01*
X55780355Y-13389999D01*
X68293255Y-13389999D01*
X68310945Y-13513045D01*
X68362587Y-13626123D01*
X68443990Y-13720068D01*
X68443992Y-13720069D01*
X68443993Y-13720070D01*
X68548570Y-13787277D01*
X68667845Y-13822300D01*
X68792154Y-13822300D01*
X68792155Y-13822300D01*
X68911430Y-13787277D01*
X69016007Y-13720070D01*
X69097413Y-13626122D01*
X69149054Y-13513045D01*
X69166745Y-13390000D01*
X69149054Y-13266955D01*
X69097413Y-13153878D01*
X69097412Y-13153877D01*
X69097412Y-13153876D01*
X69016009Y-13059931D01*
X68943730Y-13013481D01*
X68911430Y-12992723D01*
X68792155Y-12957700D01*
X68667845Y-12957700D01*
X68548570Y-12992722D01*
X68548570Y-12992723D01*
X68443990Y-13059931D01*
X68362587Y-13153876D01*
X68310945Y-13266954D01*
X68293255Y-13389999D01*
X55780355Y-13389999D01*
X55746162Y-13315126D01*
X55664759Y-13221181D01*
X55617274Y-13190665D01*
X55560180Y-13153973D01*
X55440905Y-13118950D01*
X55316595Y-13118950D01*
X55276736Y-13130654D01*
X55197320Y-13153973D01*
X55092740Y-13221181D01*
X55011337Y-13315126D01*
X54959695Y-13428204D01*
X54942005Y-13551249D01*
X51176901Y-13551249D01*
X51180495Y-13526250D01*
X51162804Y-13403205D01*
X51160316Y-13397758D01*
X51111162Y-13290126D01*
X51029759Y-13196181D01*
X50939492Y-13138171D01*
X50925180Y-13128973D01*
X50805905Y-13093950D01*
X50681595Y-13093950D01*
X50596455Y-13118950D01*
X50562320Y-13128973D01*
X50457740Y-13196181D01*
X50376337Y-13290126D01*
X50324695Y-13403204D01*
X50307005Y-13526249D01*
X22497759Y-13526249D01*
X22553874Y-13391265D01*
X22562706Y-13373980D01*
X22670222Y-13198964D01*
X22681658Y-13183259D01*
X22706718Y-13153973D01*
X22815191Y-13027207D01*
X22828934Y-13013487D01*
X22985226Y-12880206D01*
X23000939Y-12868807D01*
X23176134Y-12761589D01*
X23193433Y-12752786D01*
X23383227Y-12674264D01*
X23401705Y-12668267D01*
X23570791Y-12627717D01*
X23601423Y-12620372D01*
X23620619Y-12617334D01*
X23830217Y-12600854D01*
X23839936Y-12600474D01*
X68583949Y-12600474D01*
X68593874Y-12600871D01*
G37*
G04 #@! TD.AperFunction*
G04 #@! TD*
M02*
