G04 #@! TF.GenerationSoftware,KiCad,Pcbnew,7.0.1-0*
G04 #@! TF.CreationDate,2023-04-12T11:12:59+08:00*
G04 #@! TF.ProjectId,slimarm_classic_2410,736c696d-6172-46d5-9f63-6c6173736963,rev?*
G04 #@! TF.SameCoordinates,Original*
G04 #@! TF.FileFunction,Legend,Top*
G04 #@! TF.FilePolarity,Positive*
%FSLAX46Y46*%
G04 Gerber Fmt 4.6, Leading zero omitted, Abs format (unit mm)*
G04 Created by KiCad (PCBNEW 7.0.1-0) date 2023-04-12 11:12:59*
%MOMM*%
%LPD*%
G01*
G04 APERTURE LIST*
G04 Aperture macros list*
%AMRoundRect*
0 Rectangle with rounded corners*
0 $1 Rounding radius*
0 $2 $3 $4 $5 $6 $7 $8 $9 X,Y pos of 4 corners*
0 Add a 4 corners polygon primitive as box body*
4,1,4,$2,$3,$4,$5,$6,$7,$8,$9,$2,$3,0*
0 Add four circle primitives for the rounded corners*
1,1,$1+$1,$2,$3*
1,1,$1+$1,$4,$5*
1,1,$1+$1,$6,$7*
1,1,$1+$1,$8,$9*
0 Add four rect primitives between the rounded corners*
20,1,$1+$1,$2,$3,$4,$5,0*
20,1,$1+$1,$4,$5,$6,$7,0*
20,1,$1+$1,$6,$7,$8,$9,0*
20,1,$1+$1,$8,$9,$2,$3,0*%
G04 Aperture macros list end*
%ADD10C,0.127000*%
%ADD11C,0.150000*%
%ADD12C,0.101600*%
%ADD13C,0.120000*%
%ADD14C,0.200000*%
%ADD15C,0.100000*%
%ADD16RoundRect,0.237500X-0.250000X-0.237500X0.250000X-0.237500X0.250000X0.237500X-0.250000X0.237500X0*%
%ADD17RoundRect,0.150000X0.150000X-0.739000X0.150000X0.739000X-0.150000X0.739000X-0.150000X-0.739000X0*%
%ADD18RoundRect,0.155000X-0.212500X-0.155000X0.212500X-0.155000X0.212500X0.155000X-0.212500X0.155000X0*%
%ADD19RoundRect,0.155000X-0.155000X0.212500X-0.155000X-0.212500X0.155000X-0.212500X0.155000X0.212500X0*%
%ADD20C,0.410000*%
%ADD21RoundRect,0.160000X-0.160000X0.197500X-0.160000X-0.197500X0.160000X-0.197500X0.160000X0.197500X0*%
%ADD22RoundRect,0.160000X0.197500X0.160000X-0.197500X0.160000X-0.197500X-0.160000X0.197500X-0.160000X0*%
%ADD23C,0.650000*%
%ADD24R,0.600000X2.000000*%
%ADD25R,0.300000X2.000000*%
%ADD26R,0.600000X1.450000*%
%ADD27O,1.000000X2.100000*%
%ADD28O,1.000000X1.600000*%
%ADD29RoundRect,0.237500X0.287500X0.237500X-0.287500X0.237500X-0.287500X-0.237500X0.287500X-0.237500X0*%
%ADD30RoundRect,0.155000X0.212500X0.155000X-0.212500X0.155000X-0.212500X-0.155000X0.212500X-0.155000X0*%
%ADD31R,0.711200X1.600000*%
%ADD32R,1.600200X2.209800*%
%ADD33RoundRect,0.237500X0.237500X-0.250000X0.237500X0.250000X-0.237500X0.250000X-0.237500X-0.250000X0*%
%ADD34RoundRect,0.160000X0.160000X-0.197500X0.160000X0.197500X-0.160000X0.197500X-0.160000X-0.197500X0*%
%ADD35RoundRect,0.237500X-0.237500X0.250000X-0.237500X-0.250000X0.237500X-0.250000X0.237500X0.250000X0*%
%ADD36RoundRect,0.155000X0.155000X-0.212500X0.155000X0.212500X-0.155000X0.212500X-0.155000X-0.212500X0*%
%ADD37RoundRect,0.237500X0.250000X0.237500X-0.250000X0.237500X-0.250000X-0.237500X0.250000X-0.237500X0*%
%ADD38RoundRect,0.160000X-0.197500X-0.160000X0.197500X-0.160000X0.197500X0.160000X-0.197500X0.160000X0*%
%ADD39R,0.508000X1.693800*%
%ADD40R,2.182700X0.254000*%
%ADD41RoundRect,0.150000X0.150000X-0.825000X0.150000X0.825000X-0.150000X0.825000X-0.150000X-0.825000X0*%
%ADD42R,2.000000X2.400000*%
G04 APERTURE END LIST*
D10*
X25881714Y-9499105D02*
X25881714Y-10115962D01*
X25881714Y-10115962D02*
X25918000Y-10188534D01*
X25918000Y-10188534D02*
X25954286Y-10224820D01*
X25954286Y-10224820D02*
X26026857Y-10261105D01*
X26026857Y-10261105D02*
X26172000Y-10261105D01*
X26172000Y-10261105D02*
X26244571Y-10224820D01*
X26244571Y-10224820D02*
X26280857Y-10188534D01*
X26280857Y-10188534D02*
X26317143Y-10115962D01*
X26317143Y-10115962D02*
X26317143Y-9499105D01*
X26643714Y-10224820D02*
X26752572Y-10261105D01*
X26752572Y-10261105D02*
X26934000Y-10261105D01*
X26934000Y-10261105D02*
X27006572Y-10224820D01*
X27006572Y-10224820D02*
X27042857Y-10188534D01*
X27042857Y-10188534D02*
X27079143Y-10115962D01*
X27079143Y-10115962D02*
X27079143Y-10043391D01*
X27079143Y-10043391D02*
X27042857Y-9970820D01*
X27042857Y-9970820D02*
X27006572Y-9934534D01*
X27006572Y-9934534D02*
X26934000Y-9898248D01*
X26934000Y-9898248D02*
X26788857Y-9861962D01*
X26788857Y-9861962D02*
X26716286Y-9825677D01*
X26716286Y-9825677D02*
X26680000Y-9789391D01*
X26680000Y-9789391D02*
X26643714Y-9716820D01*
X26643714Y-9716820D02*
X26643714Y-9644248D01*
X26643714Y-9644248D02*
X26680000Y-9571677D01*
X26680000Y-9571677D02*
X26716286Y-9535391D01*
X26716286Y-9535391D02*
X26788857Y-9499105D01*
X26788857Y-9499105D02*
X26970286Y-9499105D01*
X26970286Y-9499105D02*
X27079143Y-9535391D01*
X27659714Y-9861962D02*
X27768571Y-9898248D01*
X27768571Y-9898248D02*
X27804857Y-9934534D01*
X27804857Y-9934534D02*
X27841143Y-10007105D01*
X27841143Y-10007105D02*
X27841143Y-10115962D01*
X27841143Y-10115962D02*
X27804857Y-10188534D01*
X27804857Y-10188534D02*
X27768571Y-10224820D01*
X27768571Y-10224820D02*
X27696000Y-10261105D01*
X27696000Y-10261105D02*
X27405714Y-10261105D01*
X27405714Y-10261105D02*
X27405714Y-9499105D01*
X27405714Y-9499105D02*
X27659714Y-9499105D01*
X27659714Y-9499105D02*
X27732286Y-9535391D01*
X27732286Y-9535391D02*
X27768571Y-9571677D01*
X27768571Y-9571677D02*
X27804857Y-9644248D01*
X27804857Y-9644248D02*
X27804857Y-9716820D01*
X27804857Y-9716820D02*
X27768571Y-9789391D01*
X27768571Y-9789391D02*
X27732286Y-9825677D01*
X27732286Y-9825677D02*
X27659714Y-9861962D01*
X27659714Y-9861962D02*
X27405714Y-9861962D01*
X28167714Y-10261105D02*
X28167714Y-9499105D01*
X28167714Y-9499105D02*
X28349143Y-9499105D01*
X28349143Y-9499105D02*
X28458000Y-9535391D01*
X28458000Y-9535391D02*
X28530571Y-9607962D01*
X28530571Y-9607962D02*
X28566857Y-9680534D01*
X28566857Y-9680534D02*
X28603143Y-9825677D01*
X28603143Y-9825677D02*
X28603143Y-9934534D01*
X28603143Y-9934534D02*
X28566857Y-10079677D01*
X28566857Y-10079677D02*
X28530571Y-10152248D01*
X28530571Y-10152248D02*
X28458000Y-10224820D01*
X28458000Y-10224820D02*
X28349143Y-10261105D01*
X28349143Y-10261105D02*
X28167714Y-10261105D01*
X28929714Y-10188534D02*
X28966000Y-10224820D01*
X28966000Y-10224820D02*
X28929714Y-10261105D01*
X28929714Y-10261105D02*
X28893428Y-10224820D01*
X28893428Y-10224820D02*
X28929714Y-10188534D01*
X28929714Y-10188534D02*
X28929714Y-10261105D01*
X28929714Y-9789391D02*
X28966000Y-9825677D01*
X28966000Y-9825677D02*
X28929714Y-9861962D01*
X28929714Y-9861962D02*
X28893428Y-9825677D01*
X28893428Y-9825677D02*
X28929714Y-9789391D01*
X28929714Y-9789391D02*
X28929714Y-9861962D01*
X23613858Y-11495545D02*
X23359858Y-11132688D01*
X23178429Y-11495545D02*
X23178429Y-10733545D01*
X23178429Y-10733545D02*
X23468715Y-10733545D01*
X23468715Y-10733545D02*
X23541286Y-10769831D01*
X23541286Y-10769831D02*
X23577572Y-10806117D01*
X23577572Y-10806117D02*
X23613858Y-10878688D01*
X23613858Y-10878688D02*
X23613858Y-10987545D01*
X23613858Y-10987545D02*
X23577572Y-11060117D01*
X23577572Y-11060117D02*
X23541286Y-11096402D01*
X23541286Y-11096402D02*
X23468715Y-11132688D01*
X23468715Y-11132688D02*
X23178429Y-11132688D01*
X24339572Y-11495545D02*
X23904143Y-11495545D01*
X24121858Y-11495545D02*
X24121858Y-10733545D01*
X24121858Y-10733545D02*
X24049286Y-10842402D01*
X24049286Y-10842402D02*
X23976715Y-10914974D01*
X23976715Y-10914974D02*
X23904143Y-10951260D01*
X24811286Y-10733545D02*
X24883857Y-10733545D01*
X24883857Y-10733545D02*
X24956429Y-10769831D01*
X24956429Y-10769831D02*
X24992715Y-10806117D01*
X24992715Y-10806117D02*
X25029000Y-10878688D01*
X25029000Y-10878688D02*
X25065286Y-11023831D01*
X25065286Y-11023831D02*
X25065286Y-11205260D01*
X25065286Y-11205260D02*
X25029000Y-11350402D01*
X25029000Y-11350402D02*
X24992715Y-11422974D01*
X24992715Y-11422974D02*
X24956429Y-11459260D01*
X24956429Y-11459260D02*
X24883857Y-11495545D01*
X24883857Y-11495545D02*
X24811286Y-11495545D01*
X24811286Y-11495545D02*
X24738715Y-11459260D01*
X24738715Y-11459260D02*
X24702429Y-11422974D01*
X24702429Y-11422974D02*
X24666143Y-11350402D01*
X24666143Y-11350402D02*
X24629857Y-11205260D01*
X24629857Y-11205260D02*
X24629857Y-11023831D01*
X24629857Y-11023831D02*
X24666143Y-10878688D01*
X24666143Y-10878688D02*
X24702429Y-10806117D01*
X24702429Y-10806117D02*
X24738715Y-10769831D01*
X24738715Y-10769831D02*
X24811286Y-10733545D01*
X25609571Y-11785831D02*
X25573286Y-11749545D01*
X25573286Y-11749545D02*
X25500714Y-11640688D01*
X25500714Y-11640688D02*
X25464429Y-11568117D01*
X25464429Y-11568117D02*
X25428143Y-11459260D01*
X25428143Y-11459260D02*
X25391857Y-11277831D01*
X25391857Y-11277831D02*
X25391857Y-11132688D01*
X25391857Y-11132688D02*
X25428143Y-10951260D01*
X25428143Y-10951260D02*
X25464429Y-10842402D01*
X25464429Y-10842402D02*
X25500714Y-10769831D01*
X25500714Y-10769831D02*
X25573286Y-10660974D01*
X25573286Y-10660974D02*
X25609571Y-10624688D01*
X26299000Y-10769831D02*
X26226429Y-10733545D01*
X26226429Y-10733545D02*
X26117571Y-10733545D01*
X26117571Y-10733545D02*
X26008714Y-10769831D01*
X26008714Y-10769831D02*
X25936143Y-10842402D01*
X25936143Y-10842402D02*
X25899857Y-10914974D01*
X25899857Y-10914974D02*
X25863571Y-11060117D01*
X25863571Y-11060117D02*
X25863571Y-11168974D01*
X25863571Y-11168974D02*
X25899857Y-11314117D01*
X25899857Y-11314117D02*
X25936143Y-11386688D01*
X25936143Y-11386688D02*
X26008714Y-11459260D01*
X26008714Y-11459260D02*
X26117571Y-11495545D01*
X26117571Y-11495545D02*
X26190143Y-11495545D01*
X26190143Y-11495545D02*
X26299000Y-11459260D01*
X26299000Y-11459260D02*
X26335286Y-11422974D01*
X26335286Y-11422974D02*
X26335286Y-11168974D01*
X26335286Y-11168974D02*
X26190143Y-11168974D01*
X26661857Y-11495545D02*
X26661857Y-10733545D01*
X26661857Y-10733545D02*
X26952143Y-10733545D01*
X26952143Y-10733545D02*
X27024714Y-10769831D01*
X27024714Y-10769831D02*
X27061000Y-10806117D01*
X27061000Y-10806117D02*
X27097286Y-10878688D01*
X27097286Y-10878688D02*
X27097286Y-10987545D01*
X27097286Y-10987545D02*
X27061000Y-11060117D01*
X27061000Y-11060117D02*
X27024714Y-11096402D01*
X27024714Y-11096402D02*
X26952143Y-11132688D01*
X26952143Y-11132688D02*
X26661857Y-11132688D01*
X27823000Y-10769831D02*
X27750429Y-10733545D01*
X27750429Y-10733545D02*
X27641571Y-10733545D01*
X27641571Y-10733545D02*
X27532714Y-10769831D01*
X27532714Y-10769831D02*
X27460143Y-10842402D01*
X27460143Y-10842402D02*
X27423857Y-10914974D01*
X27423857Y-10914974D02*
X27387571Y-11060117D01*
X27387571Y-11060117D02*
X27387571Y-11168974D01*
X27387571Y-11168974D02*
X27423857Y-11314117D01*
X27423857Y-11314117D02*
X27460143Y-11386688D01*
X27460143Y-11386688D02*
X27532714Y-11459260D01*
X27532714Y-11459260D02*
X27641571Y-11495545D01*
X27641571Y-11495545D02*
X27714143Y-11495545D01*
X27714143Y-11495545D02*
X27823000Y-11459260D01*
X27823000Y-11459260D02*
X27859286Y-11422974D01*
X27859286Y-11422974D02*
X27859286Y-11168974D01*
X27859286Y-11168974D02*
X27714143Y-11168974D01*
X28548714Y-10733545D02*
X28185857Y-10733545D01*
X28185857Y-10733545D02*
X28149571Y-11096402D01*
X28149571Y-11096402D02*
X28185857Y-11060117D01*
X28185857Y-11060117D02*
X28258429Y-11023831D01*
X28258429Y-11023831D02*
X28439857Y-11023831D01*
X28439857Y-11023831D02*
X28512429Y-11060117D01*
X28512429Y-11060117D02*
X28548714Y-11096402D01*
X28548714Y-11096402D02*
X28585000Y-11168974D01*
X28585000Y-11168974D02*
X28585000Y-11350402D01*
X28585000Y-11350402D02*
X28548714Y-11422974D01*
X28548714Y-11422974D02*
X28512429Y-11459260D01*
X28512429Y-11459260D02*
X28439857Y-11495545D01*
X28439857Y-11495545D02*
X28258429Y-11495545D01*
X28258429Y-11495545D02*
X28185857Y-11459260D01*
X28185857Y-11459260D02*
X28149571Y-11422974D01*
X28839000Y-11785831D02*
X28875285Y-11749545D01*
X28875285Y-11749545D02*
X28947857Y-11640688D01*
X28947857Y-11640688D02*
X28984143Y-11568117D01*
X28984143Y-11568117D02*
X29020428Y-11459260D01*
X29020428Y-11459260D02*
X29056714Y-11277831D01*
X29056714Y-11277831D02*
X29056714Y-11132688D01*
X29056714Y-11132688D02*
X29020428Y-10951260D01*
X29020428Y-10951260D02*
X28984143Y-10842402D01*
X28984143Y-10842402D02*
X28947857Y-10769831D01*
X28947857Y-10769831D02*
X28875285Y-10660974D01*
X28875285Y-10660974D02*
X28839000Y-10624688D01*
X29419571Y-11205260D02*
X30000143Y-11205260D01*
X29709857Y-11495545D02*
X29709857Y-10914974D01*
X30798429Y-11495545D02*
X30544429Y-11132688D01*
X30363000Y-11495545D02*
X30363000Y-10733545D01*
X30363000Y-10733545D02*
X30653286Y-10733545D01*
X30653286Y-10733545D02*
X30725857Y-10769831D01*
X30725857Y-10769831D02*
X30762143Y-10806117D01*
X30762143Y-10806117D02*
X30798429Y-10878688D01*
X30798429Y-10878688D02*
X30798429Y-10987545D01*
X30798429Y-10987545D02*
X30762143Y-11060117D01*
X30762143Y-11060117D02*
X30725857Y-11096402D01*
X30725857Y-11096402D02*
X30653286Y-11132688D01*
X30653286Y-11132688D02*
X30363000Y-11132688D01*
X31524143Y-11495545D02*
X31088714Y-11495545D01*
X31306429Y-11495545D02*
X31306429Y-10733545D01*
X31306429Y-10733545D02*
X31233857Y-10842402D01*
X31233857Y-10842402D02*
X31161286Y-10914974D01*
X31161286Y-10914974D02*
X31088714Y-10951260D01*
X32249857Y-11495545D02*
X31814428Y-11495545D01*
X32032143Y-11495545D02*
X32032143Y-10733545D01*
X32032143Y-10733545D02*
X31959571Y-10842402D01*
X31959571Y-10842402D02*
X31887000Y-10914974D01*
X31887000Y-10914974D02*
X31814428Y-10951260D01*
X25863571Y-11967985D02*
X25863571Y-12584842D01*
X25863571Y-12584842D02*
X25899857Y-12657414D01*
X25899857Y-12657414D02*
X25936143Y-12693700D01*
X25936143Y-12693700D02*
X26008714Y-12729985D01*
X26008714Y-12729985D02*
X26153857Y-12729985D01*
X26153857Y-12729985D02*
X26226428Y-12693700D01*
X26226428Y-12693700D02*
X26262714Y-12657414D01*
X26262714Y-12657414D02*
X26299000Y-12584842D01*
X26299000Y-12584842D02*
X26299000Y-11967985D01*
X26625571Y-12693700D02*
X26734429Y-12729985D01*
X26734429Y-12729985D02*
X26915857Y-12729985D01*
X26915857Y-12729985D02*
X26988429Y-12693700D01*
X26988429Y-12693700D02*
X27024714Y-12657414D01*
X27024714Y-12657414D02*
X27061000Y-12584842D01*
X27061000Y-12584842D02*
X27061000Y-12512271D01*
X27061000Y-12512271D02*
X27024714Y-12439700D01*
X27024714Y-12439700D02*
X26988429Y-12403414D01*
X26988429Y-12403414D02*
X26915857Y-12367128D01*
X26915857Y-12367128D02*
X26770714Y-12330842D01*
X26770714Y-12330842D02*
X26698143Y-12294557D01*
X26698143Y-12294557D02*
X26661857Y-12258271D01*
X26661857Y-12258271D02*
X26625571Y-12185700D01*
X26625571Y-12185700D02*
X26625571Y-12113128D01*
X26625571Y-12113128D02*
X26661857Y-12040557D01*
X26661857Y-12040557D02*
X26698143Y-12004271D01*
X26698143Y-12004271D02*
X26770714Y-11967985D01*
X26770714Y-11967985D02*
X26952143Y-11967985D01*
X26952143Y-11967985D02*
X27061000Y-12004271D01*
X27641571Y-12330842D02*
X27750428Y-12367128D01*
X27750428Y-12367128D02*
X27786714Y-12403414D01*
X27786714Y-12403414D02*
X27823000Y-12475985D01*
X27823000Y-12475985D02*
X27823000Y-12584842D01*
X27823000Y-12584842D02*
X27786714Y-12657414D01*
X27786714Y-12657414D02*
X27750428Y-12693700D01*
X27750428Y-12693700D02*
X27677857Y-12729985D01*
X27677857Y-12729985D02*
X27387571Y-12729985D01*
X27387571Y-12729985D02*
X27387571Y-11967985D01*
X27387571Y-11967985D02*
X27641571Y-11967985D01*
X27641571Y-11967985D02*
X27714143Y-12004271D01*
X27714143Y-12004271D02*
X27750428Y-12040557D01*
X27750428Y-12040557D02*
X27786714Y-12113128D01*
X27786714Y-12113128D02*
X27786714Y-12185700D01*
X27786714Y-12185700D02*
X27750428Y-12258271D01*
X27750428Y-12258271D02*
X27714143Y-12294557D01*
X27714143Y-12294557D02*
X27641571Y-12330842D01*
X27641571Y-12330842D02*
X27387571Y-12330842D01*
X28149571Y-12729985D02*
X28149571Y-11967985D01*
X28149571Y-12330842D02*
X28585000Y-12330842D01*
X28585000Y-12729985D02*
X28585000Y-11967985D01*
X28947857Y-12657414D02*
X28984143Y-12693700D01*
X28984143Y-12693700D02*
X28947857Y-12729985D01*
X28947857Y-12729985D02*
X28911571Y-12693700D01*
X28911571Y-12693700D02*
X28947857Y-12657414D01*
X28947857Y-12657414D02*
X28947857Y-12729985D01*
X28947857Y-12258271D02*
X28984143Y-12294557D01*
X28984143Y-12294557D02*
X28947857Y-12330842D01*
X28947857Y-12330842D02*
X28911571Y-12294557D01*
X28911571Y-12294557D02*
X28947857Y-12258271D01*
X28947857Y-12258271D02*
X28947857Y-12330842D01*
X25627715Y-13964425D02*
X25373715Y-13601568D01*
X25192286Y-13964425D02*
X25192286Y-13202425D01*
X25192286Y-13202425D02*
X25482572Y-13202425D01*
X25482572Y-13202425D02*
X25555143Y-13238711D01*
X25555143Y-13238711D02*
X25591429Y-13274997D01*
X25591429Y-13274997D02*
X25627715Y-13347568D01*
X25627715Y-13347568D02*
X25627715Y-13456425D01*
X25627715Y-13456425D02*
X25591429Y-13528997D01*
X25591429Y-13528997D02*
X25555143Y-13565282D01*
X25555143Y-13565282D02*
X25482572Y-13601568D01*
X25482572Y-13601568D02*
X25192286Y-13601568D01*
X26353429Y-13964425D02*
X25918000Y-13964425D01*
X26135715Y-13964425D02*
X26135715Y-13202425D01*
X26135715Y-13202425D02*
X26063143Y-13311282D01*
X26063143Y-13311282D02*
X25990572Y-13383854D01*
X25990572Y-13383854D02*
X25918000Y-13420140D01*
X26788857Y-13528997D02*
X26716286Y-13492711D01*
X26716286Y-13492711D02*
X26680000Y-13456425D01*
X26680000Y-13456425D02*
X26643714Y-13383854D01*
X26643714Y-13383854D02*
X26643714Y-13347568D01*
X26643714Y-13347568D02*
X26680000Y-13274997D01*
X26680000Y-13274997D02*
X26716286Y-13238711D01*
X26716286Y-13238711D02*
X26788857Y-13202425D01*
X26788857Y-13202425D02*
X26934000Y-13202425D01*
X26934000Y-13202425D02*
X27006572Y-13238711D01*
X27006572Y-13238711D02*
X27042857Y-13274997D01*
X27042857Y-13274997D02*
X27079143Y-13347568D01*
X27079143Y-13347568D02*
X27079143Y-13383854D01*
X27079143Y-13383854D02*
X27042857Y-13456425D01*
X27042857Y-13456425D02*
X27006572Y-13492711D01*
X27006572Y-13492711D02*
X26934000Y-13528997D01*
X26934000Y-13528997D02*
X26788857Y-13528997D01*
X26788857Y-13528997D02*
X26716286Y-13565282D01*
X26716286Y-13565282D02*
X26680000Y-13601568D01*
X26680000Y-13601568D02*
X26643714Y-13674140D01*
X26643714Y-13674140D02*
X26643714Y-13819282D01*
X26643714Y-13819282D02*
X26680000Y-13891854D01*
X26680000Y-13891854D02*
X26716286Y-13928140D01*
X26716286Y-13928140D02*
X26788857Y-13964425D01*
X26788857Y-13964425D02*
X26934000Y-13964425D01*
X26934000Y-13964425D02*
X27006572Y-13928140D01*
X27006572Y-13928140D02*
X27042857Y-13891854D01*
X27042857Y-13891854D02*
X27079143Y-13819282D01*
X27079143Y-13819282D02*
X27079143Y-13674140D01*
X27079143Y-13674140D02*
X27042857Y-13601568D01*
X27042857Y-13601568D02*
X27006572Y-13565282D01*
X27006572Y-13565282D02*
X26934000Y-13528997D01*
X27405714Y-13674140D02*
X27986286Y-13674140D01*
X27696000Y-13964425D02*
X27696000Y-13383854D01*
X28784572Y-13964425D02*
X28530572Y-13601568D01*
X28349143Y-13964425D02*
X28349143Y-13202425D01*
X28349143Y-13202425D02*
X28639429Y-13202425D01*
X28639429Y-13202425D02*
X28712000Y-13238711D01*
X28712000Y-13238711D02*
X28748286Y-13274997D01*
X28748286Y-13274997D02*
X28784572Y-13347568D01*
X28784572Y-13347568D02*
X28784572Y-13456425D01*
X28784572Y-13456425D02*
X28748286Y-13528997D01*
X28748286Y-13528997D02*
X28712000Y-13565282D01*
X28712000Y-13565282D02*
X28639429Y-13601568D01*
X28639429Y-13601568D02*
X28349143Y-13601568D01*
X29510286Y-13964425D02*
X29074857Y-13964425D01*
X29292572Y-13964425D02*
X29292572Y-13202425D01*
X29292572Y-13202425D02*
X29220000Y-13311282D01*
X29220000Y-13311282D02*
X29147429Y-13383854D01*
X29147429Y-13383854D02*
X29074857Y-13420140D01*
X29873143Y-13964425D02*
X30018286Y-13964425D01*
X30018286Y-13964425D02*
X30090857Y-13928140D01*
X30090857Y-13928140D02*
X30127143Y-13891854D01*
X30127143Y-13891854D02*
X30199714Y-13782997D01*
X30199714Y-13782997D02*
X30236000Y-13637854D01*
X30236000Y-13637854D02*
X30236000Y-13347568D01*
X30236000Y-13347568D02*
X30199714Y-13274997D01*
X30199714Y-13274997D02*
X30163429Y-13238711D01*
X30163429Y-13238711D02*
X30090857Y-13202425D01*
X30090857Y-13202425D02*
X29945714Y-13202425D01*
X29945714Y-13202425D02*
X29873143Y-13238711D01*
X29873143Y-13238711D02*
X29836857Y-13274997D01*
X29836857Y-13274997D02*
X29800571Y-13347568D01*
X29800571Y-13347568D02*
X29800571Y-13528997D01*
X29800571Y-13528997D02*
X29836857Y-13601568D01*
X29836857Y-13601568D02*
X29873143Y-13637854D01*
X29873143Y-13637854D02*
X29945714Y-13674140D01*
X29945714Y-13674140D02*
X30090857Y-13674140D01*
X30090857Y-13674140D02*
X30163429Y-13637854D01*
X30163429Y-13637854D02*
X30199714Y-13601568D01*
X30199714Y-13601568D02*
X30236000Y-13528997D01*
X24795714Y-44140765D02*
X24795714Y-44757622D01*
X24795714Y-44757622D02*
X24832000Y-44830194D01*
X24832000Y-44830194D02*
X24868286Y-44866480D01*
X24868286Y-44866480D02*
X24940857Y-44902765D01*
X24940857Y-44902765D02*
X25086000Y-44902765D01*
X25086000Y-44902765D02*
X25158571Y-44866480D01*
X25158571Y-44866480D02*
X25194857Y-44830194D01*
X25194857Y-44830194D02*
X25231143Y-44757622D01*
X25231143Y-44757622D02*
X25231143Y-44140765D01*
X25557714Y-44866480D02*
X25666572Y-44902765D01*
X25666572Y-44902765D02*
X25848000Y-44902765D01*
X25848000Y-44902765D02*
X25920572Y-44866480D01*
X25920572Y-44866480D02*
X25956857Y-44830194D01*
X25956857Y-44830194D02*
X25993143Y-44757622D01*
X25993143Y-44757622D02*
X25993143Y-44685051D01*
X25993143Y-44685051D02*
X25956857Y-44612480D01*
X25956857Y-44612480D02*
X25920572Y-44576194D01*
X25920572Y-44576194D02*
X25848000Y-44539908D01*
X25848000Y-44539908D02*
X25702857Y-44503622D01*
X25702857Y-44503622D02*
X25630286Y-44467337D01*
X25630286Y-44467337D02*
X25594000Y-44431051D01*
X25594000Y-44431051D02*
X25557714Y-44358480D01*
X25557714Y-44358480D02*
X25557714Y-44285908D01*
X25557714Y-44285908D02*
X25594000Y-44213337D01*
X25594000Y-44213337D02*
X25630286Y-44177051D01*
X25630286Y-44177051D02*
X25702857Y-44140765D01*
X25702857Y-44140765D02*
X25884286Y-44140765D01*
X25884286Y-44140765D02*
X25993143Y-44177051D01*
X26573714Y-44503622D02*
X26682571Y-44539908D01*
X26682571Y-44539908D02*
X26718857Y-44576194D01*
X26718857Y-44576194D02*
X26755143Y-44648765D01*
X26755143Y-44648765D02*
X26755143Y-44757622D01*
X26755143Y-44757622D02*
X26718857Y-44830194D01*
X26718857Y-44830194D02*
X26682571Y-44866480D01*
X26682571Y-44866480D02*
X26610000Y-44902765D01*
X26610000Y-44902765D02*
X26319714Y-44902765D01*
X26319714Y-44902765D02*
X26319714Y-44140765D01*
X26319714Y-44140765D02*
X26573714Y-44140765D01*
X26573714Y-44140765D02*
X26646286Y-44177051D01*
X26646286Y-44177051D02*
X26682571Y-44213337D01*
X26682571Y-44213337D02*
X26718857Y-44285908D01*
X26718857Y-44285908D02*
X26718857Y-44358480D01*
X26718857Y-44358480D02*
X26682571Y-44431051D01*
X26682571Y-44431051D02*
X26646286Y-44467337D01*
X26646286Y-44467337D02*
X26573714Y-44503622D01*
X26573714Y-44503622D02*
X26319714Y-44503622D01*
X27081714Y-44612480D02*
X27662286Y-44612480D01*
X28025143Y-44140765D02*
X28025143Y-44757622D01*
X28025143Y-44757622D02*
X28061429Y-44830194D01*
X28061429Y-44830194D02*
X28097715Y-44866480D01*
X28097715Y-44866480D02*
X28170286Y-44902765D01*
X28170286Y-44902765D02*
X28315429Y-44902765D01*
X28315429Y-44902765D02*
X28388000Y-44866480D01*
X28388000Y-44866480D02*
X28424286Y-44830194D01*
X28424286Y-44830194D02*
X28460572Y-44757622D01*
X28460572Y-44757622D02*
X28460572Y-44140765D01*
X28787143Y-44685051D02*
X29150001Y-44685051D01*
X28714572Y-44902765D02*
X28968572Y-44140765D01*
X28968572Y-44140765D02*
X29222572Y-44902765D01*
X29912001Y-44902765D02*
X29658001Y-44539908D01*
X29476572Y-44902765D02*
X29476572Y-44140765D01*
X29476572Y-44140765D02*
X29766858Y-44140765D01*
X29766858Y-44140765D02*
X29839429Y-44177051D01*
X29839429Y-44177051D02*
X29875715Y-44213337D01*
X29875715Y-44213337D02*
X29912001Y-44285908D01*
X29912001Y-44285908D02*
X29912001Y-44394765D01*
X29912001Y-44394765D02*
X29875715Y-44467337D01*
X29875715Y-44467337D02*
X29839429Y-44503622D01*
X29839429Y-44503622D02*
X29766858Y-44539908D01*
X29766858Y-44539908D02*
X29476572Y-44539908D01*
X30129715Y-44140765D02*
X30565144Y-44140765D01*
X30347429Y-44902765D02*
X30347429Y-44140765D01*
X61927000Y-8743545D02*
X61927000Y-9287831D01*
X61927000Y-9287831D02*
X61890715Y-9396688D01*
X61890715Y-9396688D02*
X61818143Y-9469260D01*
X61818143Y-9469260D02*
X61709286Y-9505545D01*
X61709286Y-9505545D02*
X61636715Y-9505545D01*
X62181000Y-8743545D02*
X62616429Y-8743545D01*
X62398714Y-9505545D02*
X62398714Y-8743545D01*
X62834142Y-9287831D02*
X63197000Y-9287831D01*
X62761571Y-9505545D02*
X63015571Y-8743545D01*
X63015571Y-8743545D02*
X63269571Y-9505545D01*
X63922714Y-8779831D02*
X63850143Y-8743545D01*
X63850143Y-8743545D02*
X63741285Y-8743545D01*
X63741285Y-8743545D02*
X63632428Y-8779831D01*
X63632428Y-8779831D02*
X63559857Y-8852402D01*
X63559857Y-8852402D02*
X63523571Y-8924974D01*
X63523571Y-8924974D02*
X63487285Y-9070117D01*
X63487285Y-9070117D02*
X63487285Y-9178974D01*
X63487285Y-9178974D02*
X63523571Y-9324117D01*
X63523571Y-9324117D02*
X63559857Y-9396688D01*
X63559857Y-9396688D02*
X63632428Y-9469260D01*
X63632428Y-9469260D02*
X63741285Y-9505545D01*
X63741285Y-9505545D02*
X63813857Y-9505545D01*
X63813857Y-9505545D02*
X63922714Y-9469260D01*
X63922714Y-9469260D02*
X63959000Y-9432974D01*
X63959000Y-9432974D02*
X63959000Y-9178974D01*
X63959000Y-9178974D02*
X63813857Y-9178974D01*
X58733858Y-10739985D02*
X58733858Y-9977985D01*
X59677286Y-10739985D02*
X59677286Y-9977985D01*
X59677286Y-9977985D02*
X59931286Y-10522271D01*
X59931286Y-10522271D02*
X60185286Y-9977985D01*
X60185286Y-9977985D02*
X60185286Y-10739985D01*
X61564143Y-10739985D02*
X61310143Y-10377128D01*
X61128714Y-10739985D02*
X61128714Y-9977985D01*
X61128714Y-9977985D02*
X61419000Y-9977985D01*
X61419000Y-9977985D02*
X61491571Y-10014271D01*
X61491571Y-10014271D02*
X61527857Y-10050557D01*
X61527857Y-10050557D02*
X61564143Y-10123128D01*
X61564143Y-10123128D02*
X61564143Y-10231985D01*
X61564143Y-10231985D02*
X61527857Y-10304557D01*
X61527857Y-10304557D02*
X61491571Y-10340842D01*
X61491571Y-10340842D02*
X61419000Y-10377128D01*
X61419000Y-10377128D02*
X61128714Y-10377128D01*
X62616428Y-9977985D02*
X62761571Y-9977985D01*
X62761571Y-9977985D02*
X62834142Y-10014271D01*
X62834142Y-10014271D02*
X62906714Y-10086842D01*
X62906714Y-10086842D02*
X62942999Y-10231985D01*
X62942999Y-10231985D02*
X62942999Y-10485985D01*
X62942999Y-10485985D02*
X62906714Y-10631128D01*
X62906714Y-10631128D02*
X62834142Y-10703700D01*
X62834142Y-10703700D02*
X62761571Y-10739985D01*
X62761571Y-10739985D02*
X62616428Y-10739985D01*
X62616428Y-10739985D02*
X62543857Y-10703700D01*
X62543857Y-10703700D02*
X62471285Y-10631128D01*
X62471285Y-10631128D02*
X62434999Y-10485985D01*
X62434999Y-10485985D02*
X62434999Y-10231985D01*
X62434999Y-10231985D02*
X62471285Y-10086842D01*
X62471285Y-10086842D02*
X62543857Y-10014271D01*
X62543857Y-10014271D02*
X62616428Y-9977985D01*
X64285571Y-10667414D02*
X64249285Y-10703700D01*
X64249285Y-10703700D02*
X64140428Y-10739985D01*
X64140428Y-10739985D02*
X64067856Y-10739985D01*
X64067856Y-10739985D02*
X63958999Y-10703700D01*
X63958999Y-10703700D02*
X63886428Y-10631128D01*
X63886428Y-10631128D02*
X63850142Y-10558557D01*
X63850142Y-10558557D02*
X63813856Y-10413414D01*
X63813856Y-10413414D02*
X63813856Y-10304557D01*
X63813856Y-10304557D02*
X63850142Y-10159414D01*
X63850142Y-10159414D02*
X63886428Y-10086842D01*
X63886428Y-10086842D02*
X63958999Y-10014271D01*
X63958999Y-10014271D02*
X64067856Y-9977985D01*
X64067856Y-9977985D02*
X64140428Y-9977985D01*
X64140428Y-9977985D02*
X64249285Y-10014271D01*
X64249285Y-10014271D02*
X64285571Y-10050557D01*
X65120142Y-9977985D02*
X65591856Y-9977985D01*
X65591856Y-9977985D02*
X65337856Y-10268271D01*
X65337856Y-10268271D02*
X65446713Y-10268271D01*
X65446713Y-10268271D02*
X65519285Y-10304557D01*
X65519285Y-10304557D02*
X65555570Y-10340842D01*
X65555570Y-10340842D02*
X65591856Y-10413414D01*
X65591856Y-10413414D02*
X65591856Y-10594842D01*
X65591856Y-10594842D02*
X65555570Y-10667414D01*
X65555570Y-10667414D02*
X65519285Y-10703700D01*
X65519285Y-10703700D02*
X65446713Y-10739985D01*
X65446713Y-10739985D02*
X65228999Y-10739985D01*
X65228999Y-10739985D02*
X65156427Y-10703700D01*
X65156427Y-10703700D02*
X65120142Y-10667414D01*
X66898141Y-10014271D02*
X66825570Y-9977985D01*
X66825570Y-9977985D02*
X66716712Y-9977985D01*
X66716712Y-9977985D02*
X66607855Y-10014271D01*
X66607855Y-10014271D02*
X66535284Y-10086842D01*
X66535284Y-10086842D02*
X66498998Y-10159414D01*
X66498998Y-10159414D02*
X66462712Y-10304557D01*
X66462712Y-10304557D02*
X66462712Y-10413414D01*
X66462712Y-10413414D02*
X66498998Y-10558557D01*
X66498998Y-10558557D02*
X66535284Y-10631128D01*
X66535284Y-10631128D02*
X66607855Y-10703700D01*
X66607855Y-10703700D02*
X66716712Y-10739985D01*
X66716712Y-10739985D02*
X66789284Y-10739985D01*
X66789284Y-10739985D02*
X66898141Y-10703700D01*
X66898141Y-10703700D02*
X66934427Y-10667414D01*
X66934427Y-10667414D02*
X66934427Y-10413414D01*
X66934427Y-10413414D02*
X66789284Y-10413414D01*
X59359484Y-43533857D02*
X59359484Y-44005571D01*
X59359484Y-44005571D02*
X59069198Y-43751571D01*
X59069198Y-43751571D02*
X59069198Y-43860428D01*
X59069198Y-43860428D02*
X59032912Y-43933000D01*
X59032912Y-43933000D02*
X58996627Y-43969285D01*
X58996627Y-43969285D02*
X58924055Y-44005571D01*
X58924055Y-44005571D02*
X58742627Y-44005571D01*
X58742627Y-44005571D02*
X58670055Y-43969285D01*
X58670055Y-43969285D02*
X58633770Y-43933000D01*
X58633770Y-43933000D02*
X58597484Y-43860428D01*
X58597484Y-43860428D02*
X58597484Y-43642714D01*
X58597484Y-43642714D02*
X58633770Y-43570142D01*
X58633770Y-43570142D02*
X58670055Y-43533857D01*
X59105484Y-44259571D02*
X58597484Y-44440999D01*
X58597484Y-44440999D02*
X59105484Y-44622428D01*
X59359484Y-44840142D02*
X59359484Y-45311856D01*
X59359484Y-45311856D02*
X59069198Y-45057856D01*
X59069198Y-45057856D02*
X59069198Y-45166713D01*
X59069198Y-45166713D02*
X59032912Y-45239285D01*
X59032912Y-45239285D02*
X58996627Y-45275570D01*
X58996627Y-45275570D02*
X58924055Y-45311856D01*
X58924055Y-45311856D02*
X58742627Y-45311856D01*
X58742627Y-45311856D02*
X58670055Y-45275570D01*
X58670055Y-45275570D02*
X58633770Y-45239285D01*
X58633770Y-45239285D02*
X58597484Y-45166713D01*
X58597484Y-45166713D02*
X58597484Y-44948999D01*
X58597484Y-44948999D02*
X58633770Y-44876427D01*
X58633770Y-44876427D02*
X58670055Y-44840142D01*
X63099427Y-36348457D02*
X63026856Y-36312171D01*
X63026856Y-36312171D02*
X62990570Y-36275885D01*
X62990570Y-36275885D02*
X62954284Y-36203314D01*
X62954284Y-36203314D02*
X62954284Y-36167028D01*
X62954284Y-36167028D02*
X62990570Y-36094457D01*
X62990570Y-36094457D02*
X63026856Y-36058171D01*
X63026856Y-36058171D02*
X63099427Y-36021885D01*
X63099427Y-36021885D02*
X63244570Y-36021885D01*
X63244570Y-36021885D02*
X63317142Y-36058171D01*
X63317142Y-36058171D02*
X63353427Y-36094457D01*
X63353427Y-36094457D02*
X63389713Y-36167028D01*
X63389713Y-36167028D02*
X63389713Y-36203314D01*
X63389713Y-36203314D02*
X63353427Y-36275885D01*
X63353427Y-36275885D02*
X63317142Y-36312171D01*
X63317142Y-36312171D02*
X63244570Y-36348457D01*
X63244570Y-36348457D02*
X63099427Y-36348457D01*
X63099427Y-36348457D02*
X63026856Y-36384742D01*
X63026856Y-36384742D02*
X62990570Y-36421028D01*
X62990570Y-36421028D02*
X62954284Y-36493600D01*
X62954284Y-36493600D02*
X62954284Y-36638742D01*
X62954284Y-36638742D02*
X62990570Y-36711314D01*
X62990570Y-36711314D02*
X63026856Y-36747600D01*
X63026856Y-36747600D02*
X63099427Y-36783885D01*
X63099427Y-36783885D02*
X63244570Y-36783885D01*
X63244570Y-36783885D02*
X63317142Y-36747600D01*
X63317142Y-36747600D02*
X63353427Y-36711314D01*
X63353427Y-36711314D02*
X63389713Y-36638742D01*
X63389713Y-36638742D02*
X63389713Y-36493600D01*
X63389713Y-36493600D02*
X63353427Y-36421028D01*
X63353427Y-36421028D02*
X63317142Y-36384742D01*
X63317142Y-36384742D02*
X63244570Y-36348457D01*
X63716284Y-36493600D02*
X64296856Y-36493600D01*
X64659713Y-36783885D02*
X64659713Y-36021885D01*
X64659713Y-36312171D02*
X64732285Y-36275885D01*
X64732285Y-36275885D02*
X64877427Y-36275885D01*
X64877427Y-36275885D02*
X64949999Y-36312171D01*
X64949999Y-36312171D02*
X64986285Y-36348457D01*
X64986285Y-36348457D02*
X65022570Y-36421028D01*
X65022570Y-36421028D02*
X65022570Y-36638742D01*
X65022570Y-36638742D02*
X64986285Y-36711314D01*
X64986285Y-36711314D02*
X64949999Y-36747600D01*
X64949999Y-36747600D02*
X64877427Y-36783885D01*
X64877427Y-36783885D02*
X64732285Y-36783885D01*
X64732285Y-36783885D02*
X64659713Y-36747600D01*
X65349142Y-36783885D02*
X65349142Y-36275885D01*
X65349142Y-36021885D02*
X65312856Y-36058171D01*
X65312856Y-36058171D02*
X65349142Y-36094457D01*
X65349142Y-36094457D02*
X65385428Y-36058171D01*
X65385428Y-36058171D02*
X65349142Y-36021885D01*
X65349142Y-36021885D02*
X65349142Y-36094457D01*
X65603142Y-36275885D02*
X65893428Y-36275885D01*
X65711999Y-36021885D02*
X65711999Y-36675028D01*
X65711999Y-36675028D02*
X65748285Y-36747600D01*
X65748285Y-36747600D02*
X65820856Y-36783885D01*
X65820856Y-36783885D02*
X65893428Y-36783885D01*
X61031143Y-37510325D02*
X60450571Y-37728040D01*
X60450571Y-37728040D02*
X61031143Y-37945754D01*
X61394000Y-37619182D02*
X61974572Y-37619182D01*
X61974572Y-37836897D02*
X61394000Y-37836897D01*
X62736572Y-38018325D02*
X62301143Y-38018325D01*
X62518858Y-38018325D02*
X62518858Y-37256325D01*
X62518858Y-37256325D02*
X62446286Y-37365182D01*
X62446286Y-37365182D02*
X62373715Y-37437754D01*
X62373715Y-37437754D02*
X62301143Y-37474040D01*
X63026857Y-37328897D02*
X63063143Y-37292611D01*
X63063143Y-37292611D02*
X63135715Y-37256325D01*
X63135715Y-37256325D02*
X63317143Y-37256325D01*
X63317143Y-37256325D02*
X63389715Y-37292611D01*
X63389715Y-37292611D02*
X63426000Y-37328897D01*
X63426000Y-37328897D02*
X63462286Y-37401468D01*
X63462286Y-37401468D02*
X63462286Y-37474040D01*
X63462286Y-37474040D02*
X63426000Y-37582897D01*
X63426000Y-37582897D02*
X62990572Y-38018325D01*
X62990572Y-38018325D02*
X63462286Y-38018325D01*
X63897714Y-37582897D02*
X63825143Y-37546611D01*
X63825143Y-37546611D02*
X63788857Y-37510325D01*
X63788857Y-37510325D02*
X63752571Y-37437754D01*
X63752571Y-37437754D02*
X63752571Y-37401468D01*
X63752571Y-37401468D02*
X63788857Y-37328897D01*
X63788857Y-37328897D02*
X63825143Y-37292611D01*
X63825143Y-37292611D02*
X63897714Y-37256325D01*
X63897714Y-37256325D02*
X64042857Y-37256325D01*
X64042857Y-37256325D02*
X64115429Y-37292611D01*
X64115429Y-37292611D02*
X64151714Y-37328897D01*
X64151714Y-37328897D02*
X64188000Y-37401468D01*
X64188000Y-37401468D02*
X64188000Y-37437754D01*
X64188000Y-37437754D02*
X64151714Y-37510325D01*
X64151714Y-37510325D02*
X64115429Y-37546611D01*
X64115429Y-37546611D02*
X64042857Y-37582897D01*
X64042857Y-37582897D02*
X63897714Y-37582897D01*
X63897714Y-37582897D02*
X63825143Y-37619182D01*
X63825143Y-37619182D02*
X63788857Y-37655468D01*
X63788857Y-37655468D02*
X63752571Y-37728040D01*
X63752571Y-37728040D02*
X63752571Y-37873182D01*
X63752571Y-37873182D02*
X63788857Y-37945754D01*
X63788857Y-37945754D02*
X63825143Y-37982040D01*
X63825143Y-37982040D02*
X63897714Y-38018325D01*
X63897714Y-38018325D02*
X64042857Y-38018325D01*
X64042857Y-38018325D02*
X64115429Y-37982040D01*
X64115429Y-37982040D02*
X64151714Y-37945754D01*
X64151714Y-37945754D02*
X64188000Y-37873182D01*
X64188000Y-37873182D02*
X64188000Y-37728040D01*
X64188000Y-37728040D02*
X64151714Y-37655468D01*
X64151714Y-37655468D02*
X64115429Y-37619182D01*
X64115429Y-37619182D02*
X64042857Y-37582897D01*
X64514571Y-38018325D02*
X64514571Y-37256325D01*
X64514571Y-37256325D02*
X64768571Y-37800611D01*
X64768571Y-37800611D02*
X65022571Y-37256325D01*
X65022571Y-37256325D02*
X65022571Y-38018325D01*
X65639428Y-37619182D02*
X65748285Y-37655468D01*
X65748285Y-37655468D02*
X65784571Y-37691754D01*
X65784571Y-37691754D02*
X65820857Y-37764325D01*
X65820857Y-37764325D02*
X65820857Y-37873182D01*
X65820857Y-37873182D02*
X65784571Y-37945754D01*
X65784571Y-37945754D02*
X65748285Y-37982040D01*
X65748285Y-37982040D02*
X65675714Y-38018325D01*
X65675714Y-38018325D02*
X65385428Y-38018325D01*
X65385428Y-38018325D02*
X65385428Y-37256325D01*
X65385428Y-37256325D02*
X65639428Y-37256325D01*
X65639428Y-37256325D02*
X65712000Y-37292611D01*
X65712000Y-37292611D02*
X65748285Y-37328897D01*
X65748285Y-37328897D02*
X65784571Y-37401468D01*
X65784571Y-37401468D02*
X65784571Y-37474040D01*
X65784571Y-37474040D02*
X65748285Y-37546611D01*
X65748285Y-37546611D02*
X65712000Y-37582897D01*
X65712000Y-37582897D02*
X65639428Y-37619182D01*
X65639428Y-37619182D02*
X65385428Y-37619182D01*
X58527428Y-39252765D02*
X58527428Y-38490765D01*
X58527428Y-38490765D02*
X58962857Y-39252765D01*
X58962857Y-39252765D02*
X58962857Y-38490765D01*
X59470857Y-38490765D02*
X59616000Y-38490765D01*
X59616000Y-38490765D02*
X59688571Y-38527051D01*
X59688571Y-38527051D02*
X59761143Y-38599622D01*
X59761143Y-38599622D02*
X59797428Y-38744765D01*
X59797428Y-38744765D02*
X59797428Y-38998765D01*
X59797428Y-38998765D02*
X59761143Y-39143908D01*
X59761143Y-39143908D02*
X59688571Y-39216480D01*
X59688571Y-39216480D02*
X59616000Y-39252765D01*
X59616000Y-39252765D02*
X59470857Y-39252765D01*
X59470857Y-39252765D02*
X59398286Y-39216480D01*
X59398286Y-39216480D02*
X59325714Y-39143908D01*
X59325714Y-39143908D02*
X59289428Y-38998765D01*
X59289428Y-38998765D02*
X59289428Y-38744765D01*
X59289428Y-38744765D02*
X59325714Y-38599622D01*
X59325714Y-38599622D02*
X59398286Y-38527051D01*
X59398286Y-38527051D02*
X59470857Y-38490765D01*
X60704571Y-39252765D02*
X60704571Y-38490765D01*
X60704571Y-38490765D02*
X61140000Y-39252765D01*
X61140000Y-39252765D02*
X61140000Y-38490765D01*
X61466571Y-39035051D02*
X61829429Y-39035051D01*
X61394000Y-39252765D02*
X61648000Y-38490765D01*
X61648000Y-38490765D02*
X61902000Y-39252765D01*
X62156000Y-39252765D02*
X62156000Y-38490765D01*
X62156000Y-38490765D02*
X62591429Y-39252765D01*
X62591429Y-39252765D02*
X62591429Y-38490765D01*
X62954286Y-39252765D02*
X62954286Y-38490765D01*
X62954286Y-38490765D02*
X63135715Y-38490765D01*
X63135715Y-38490765D02*
X63244572Y-38527051D01*
X63244572Y-38527051D02*
X63317143Y-38599622D01*
X63317143Y-38599622D02*
X63353429Y-38672194D01*
X63353429Y-38672194D02*
X63389715Y-38817337D01*
X63389715Y-38817337D02*
X63389715Y-38926194D01*
X63389715Y-38926194D02*
X63353429Y-39071337D01*
X63353429Y-39071337D02*
X63317143Y-39143908D01*
X63317143Y-39143908D02*
X63244572Y-39216480D01*
X63244572Y-39216480D02*
X63135715Y-39252765D01*
X63135715Y-39252765D02*
X62954286Y-39252765D01*
X63716286Y-39180194D02*
X63752572Y-39216480D01*
X63752572Y-39216480D02*
X63716286Y-39252765D01*
X63716286Y-39252765D02*
X63680000Y-39216480D01*
X63680000Y-39216480D02*
X63716286Y-39180194D01*
X63716286Y-39180194D02*
X63716286Y-39252765D01*
X63716286Y-38781051D02*
X63752572Y-38817337D01*
X63752572Y-38817337D02*
X63716286Y-38853622D01*
X63716286Y-38853622D02*
X63680000Y-38817337D01*
X63680000Y-38817337D02*
X63716286Y-38781051D01*
X63716286Y-38781051D02*
X63716286Y-38853622D01*
X65095143Y-39252765D02*
X64841143Y-38889908D01*
X64659714Y-39252765D02*
X64659714Y-38490765D01*
X64659714Y-38490765D02*
X64950000Y-38490765D01*
X64950000Y-38490765D02*
X65022571Y-38527051D01*
X65022571Y-38527051D02*
X65058857Y-38563337D01*
X65058857Y-38563337D02*
X65095143Y-38635908D01*
X65095143Y-38635908D02*
X65095143Y-38744765D01*
X65095143Y-38744765D02*
X65058857Y-38817337D01*
X65058857Y-38817337D02*
X65022571Y-38853622D01*
X65022571Y-38853622D02*
X64950000Y-38889908D01*
X64950000Y-38889908D02*
X64659714Y-38889908D01*
X65349143Y-38490765D02*
X65820857Y-38490765D01*
X65820857Y-38490765D02*
X65566857Y-38781051D01*
X65566857Y-38781051D02*
X65675714Y-38781051D01*
X65675714Y-38781051D02*
X65748286Y-38817337D01*
X65748286Y-38817337D02*
X65784571Y-38853622D01*
X65784571Y-38853622D02*
X65820857Y-38926194D01*
X65820857Y-38926194D02*
X65820857Y-39107622D01*
X65820857Y-39107622D02*
X65784571Y-39180194D01*
X65784571Y-39180194D02*
X65748286Y-39216480D01*
X65748286Y-39216480D02*
X65675714Y-39252765D01*
X65675714Y-39252765D02*
X65458000Y-39252765D01*
X65458000Y-39252765D02*
X65385428Y-39216480D01*
X65385428Y-39216480D02*
X65349143Y-39180194D01*
X59978857Y-40487205D02*
X59978857Y-39725205D01*
X59978857Y-39725205D02*
X60414286Y-40487205D01*
X60414286Y-40487205D02*
X60414286Y-39725205D01*
X60740857Y-40269491D02*
X61103715Y-40269491D01*
X60668286Y-40487205D02*
X60922286Y-39725205D01*
X60922286Y-39725205D02*
X61176286Y-40487205D01*
X61430286Y-40487205D02*
X61430286Y-39725205D01*
X61430286Y-39725205D02*
X61865715Y-40487205D01*
X61865715Y-40487205D02*
X61865715Y-39725205D01*
X62228572Y-40487205D02*
X62228572Y-39725205D01*
X62228572Y-39725205D02*
X62410001Y-39725205D01*
X62410001Y-39725205D02*
X62518858Y-39761491D01*
X62518858Y-39761491D02*
X62591429Y-39834062D01*
X62591429Y-39834062D02*
X62627715Y-39906634D01*
X62627715Y-39906634D02*
X62664001Y-40051777D01*
X62664001Y-40051777D02*
X62664001Y-40160634D01*
X62664001Y-40160634D02*
X62627715Y-40305777D01*
X62627715Y-40305777D02*
X62591429Y-40378348D01*
X62591429Y-40378348D02*
X62518858Y-40450920D01*
X62518858Y-40450920D02*
X62410001Y-40487205D01*
X62410001Y-40487205D02*
X62228572Y-40487205D01*
X62990572Y-40414634D02*
X63026858Y-40450920D01*
X63026858Y-40450920D02*
X62990572Y-40487205D01*
X62990572Y-40487205D02*
X62954286Y-40450920D01*
X62954286Y-40450920D02*
X62990572Y-40414634D01*
X62990572Y-40414634D02*
X62990572Y-40487205D01*
X62990572Y-40015491D02*
X63026858Y-40051777D01*
X63026858Y-40051777D02*
X62990572Y-40088062D01*
X62990572Y-40088062D02*
X62954286Y-40051777D01*
X62954286Y-40051777D02*
X62990572Y-40015491D01*
X62990572Y-40015491D02*
X62990572Y-40088062D01*
X64369429Y-40487205D02*
X64115429Y-40124348D01*
X63934000Y-40487205D02*
X63934000Y-39725205D01*
X63934000Y-39725205D02*
X64224286Y-39725205D01*
X64224286Y-39725205D02*
X64296857Y-39761491D01*
X64296857Y-39761491D02*
X64333143Y-39797777D01*
X64333143Y-39797777D02*
X64369429Y-39870348D01*
X64369429Y-39870348D02*
X64369429Y-39979205D01*
X64369429Y-39979205D02*
X64333143Y-40051777D01*
X64333143Y-40051777D02*
X64296857Y-40088062D01*
X64296857Y-40088062D02*
X64224286Y-40124348D01*
X64224286Y-40124348D02*
X63934000Y-40124348D01*
X65095143Y-40487205D02*
X64659714Y-40487205D01*
X64877429Y-40487205D02*
X64877429Y-39725205D01*
X64877429Y-39725205D02*
X64804857Y-39834062D01*
X64804857Y-39834062D02*
X64732286Y-39906634D01*
X64732286Y-39906634D02*
X64659714Y-39942920D01*
X65349143Y-39725205D02*
X65820857Y-39725205D01*
X65820857Y-39725205D02*
X65566857Y-40015491D01*
X65566857Y-40015491D02*
X65675714Y-40015491D01*
X65675714Y-40015491D02*
X65748286Y-40051777D01*
X65748286Y-40051777D02*
X65784571Y-40088062D01*
X65784571Y-40088062D02*
X65820857Y-40160634D01*
X65820857Y-40160634D02*
X65820857Y-40342062D01*
X65820857Y-40342062D02*
X65784571Y-40414634D01*
X65784571Y-40414634D02*
X65748286Y-40450920D01*
X65748286Y-40450920D02*
X65675714Y-40487205D01*
X65675714Y-40487205D02*
X65458000Y-40487205D01*
X65458000Y-40487205D02*
X65385428Y-40450920D01*
X65385428Y-40450920D02*
X65349143Y-40414634D01*
X53972484Y-44155571D02*
X53972484Y-43720142D01*
X53972484Y-43937857D02*
X54734484Y-43937857D01*
X54734484Y-43937857D02*
X54625627Y-43865285D01*
X54625627Y-43865285D02*
X54553055Y-43792714D01*
X54553055Y-43792714D02*
X54516770Y-43720142D01*
X54480484Y-44409571D02*
X53972484Y-44590999D01*
X53972484Y-44590999D02*
X54480484Y-44772428D01*
X54407912Y-45171570D02*
X54444198Y-45098999D01*
X54444198Y-45098999D02*
X54480484Y-45062713D01*
X54480484Y-45062713D02*
X54553055Y-45026427D01*
X54553055Y-45026427D02*
X54589341Y-45026427D01*
X54589341Y-45026427D02*
X54661912Y-45062713D01*
X54661912Y-45062713D02*
X54698198Y-45098999D01*
X54698198Y-45098999D02*
X54734484Y-45171570D01*
X54734484Y-45171570D02*
X54734484Y-45316713D01*
X54734484Y-45316713D02*
X54698198Y-45389285D01*
X54698198Y-45389285D02*
X54661912Y-45425570D01*
X54661912Y-45425570D02*
X54589341Y-45461856D01*
X54589341Y-45461856D02*
X54553055Y-45461856D01*
X54553055Y-45461856D02*
X54480484Y-45425570D01*
X54480484Y-45425570D02*
X54444198Y-45389285D01*
X54444198Y-45389285D02*
X54407912Y-45316713D01*
X54407912Y-45316713D02*
X54407912Y-45171570D01*
X54407912Y-45171570D02*
X54371627Y-45098999D01*
X54371627Y-45098999D02*
X54335341Y-45062713D01*
X54335341Y-45062713D02*
X54262770Y-45026427D01*
X54262770Y-45026427D02*
X54117627Y-45026427D01*
X54117627Y-45026427D02*
X54045055Y-45062713D01*
X54045055Y-45062713D02*
X54008770Y-45098999D01*
X54008770Y-45098999D02*
X53972484Y-45171570D01*
X53972484Y-45171570D02*
X53972484Y-45316713D01*
X53972484Y-45316713D02*
X54008770Y-45389285D01*
X54008770Y-45389285D02*
X54045055Y-45425570D01*
X54045055Y-45425570D02*
X54117627Y-45461856D01*
X54117627Y-45461856D02*
X54262770Y-45461856D01*
X54262770Y-45461856D02*
X54335341Y-45425570D01*
X54335341Y-45425570D02*
X54371627Y-45389285D01*
X54371627Y-45389285D02*
X54407912Y-45316713D01*
X65891428Y-22282040D02*
X66000286Y-22318325D01*
X66000286Y-22318325D02*
X66181714Y-22318325D01*
X66181714Y-22318325D02*
X66254286Y-22282040D01*
X66254286Y-22282040D02*
X66290571Y-22245754D01*
X66290571Y-22245754D02*
X66326857Y-22173182D01*
X66326857Y-22173182D02*
X66326857Y-22100611D01*
X66326857Y-22100611D02*
X66290571Y-22028040D01*
X66290571Y-22028040D02*
X66254286Y-21991754D01*
X66254286Y-21991754D02*
X66181714Y-21955468D01*
X66181714Y-21955468D02*
X66036571Y-21919182D01*
X66036571Y-21919182D02*
X65964000Y-21882897D01*
X65964000Y-21882897D02*
X65927714Y-21846611D01*
X65927714Y-21846611D02*
X65891428Y-21774040D01*
X65891428Y-21774040D02*
X65891428Y-21701468D01*
X65891428Y-21701468D02*
X65927714Y-21628897D01*
X65927714Y-21628897D02*
X65964000Y-21592611D01*
X65964000Y-21592611D02*
X66036571Y-21556325D01*
X66036571Y-21556325D02*
X66218000Y-21556325D01*
X66218000Y-21556325D02*
X66326857Y-21592611D01*
X66653428Y-22318325D02*
X66653428Y-21556325D01*
X66653428Y-21556325D02*
X66834857Y-21556325D01*
X66834857Y-21556325D02*
X66943714Y-21592611D01*
X66943714Y-21592611D02*
X67016285Y-21665182D01*
X67016285Y-21665182D02*
X67052571Y-21737754D01*
X67052571Y-21737754D02*
X67088857Y-21882897D01*
X67088857Y-21882897D02*
X67088857Y-21991754D01*
X67088857Y-21991754D02*
X67052571Y-22136897D01*
X67052571Y-22136897D02*
X67016285Y-22209468D01*
X67016285Y-22209468D02*
X66943714Y-22282040D01*
X66943714Y-22282040D02*
X66834857Y-22318325D01*
X66834857Y-22318325D02*
X66653428Y-22318325D01*
X67850857Y-22318325D02*
X67596857Y-21955468D01*
X67415428Y-22318325D02*
X67415428Y-21556325D01*
X67415428Y-21556325D02*
X67705714Y-21556325D01*
X67705714Y-21556325D02*
X67778285Y-21592611D01*
X67778285Y-21592611D02*
X67814571Y-21628897D01*
X67814571Y-21628897D02*
X67850857Y-21701468D01*
X67850857Y-21701468D02*
X67850857Y-21810325D01*
X67850857Y-21810325D02*
X67814571Y-21882897D01*
X67814571Y-21882897D02*
X67778285Y-21919182D01*
X67778285Y-21919182D02*
X67705714Y-21955468D01*
X67705714Y-21955468D02*
X67415428Y-21955468D01*
X57037716Y-22790765D02*
X57509430Y-22790765D01*
X57509430Y-22790765D02*
X57255430Y-23081051D01*
X57255430Y-23081051D02*
X57364287Y-23081051D01*
X57364287Y-23081051D02*
X57436859Y-23117337D01*
X57436859Y-23117337D02*
X57473144Y-23153622D01*
X57473144Y-23153622D02*
X57509430Y-23226194D01*
X57509430Y-23226194D02*
X57509430Y-23407622D01*
X57509430Y-23407622D02*
X57473144Y-23480194D01*
X57473144Y-23480194D02*
X57436859Y-23516480D01*
X57436859Y-23516480D02*
X57364287Y-23552765D01*
X57364287Y-23552765D02*
X57146573Y-23552765D01*
X57146573Y-23552765D02*
X57074001Y-23516480D01*
X57074001Y-23516480D02*
X57037716Y-23480194D01*
X57799715Y-22863337D02*
X57836001Y-22827051D01*
X57836001Y-22827051D02*
X57908573Y-22790765D01*
X57908573Y-22790765D02*
X58090001Y-22790765D01*
X58090001Y-22790765D02*
X58162573Y-22827051D01*
X58162573Y-22827051D02*
X58198858Y-22863337D01*
X58198858Y-22863337D02*
X58235144Y-22935908D01*
X58235144Y-22935908D02*
X58235144Y-23008480D01*
X58235144Y-23008480D02*
X58198858Y-23117337D01*
X58198858Y-23117337D02*
X57763430Y-23552765D01*
X57763430Y-23552765D02*
X58235144Y-23552765D01*
X58561715Y-23552765D02*
X58561715Y-22790765D01*
X58561715Y-22790765D02*
X58815715Y-23335051D01*
X58815715Y-23335051D02*
X59069715Y-22790765D01*
X59069715Y-22790765D02*
X59069715Y-23552765D01*
X59686572Y-23153622D02*
X59795429Y-23189908D01*
X59795429Y-23189908D02*
X59831715Y-23226194D01*
X59831715Y-23226194D02*
X59868001Y-23298765D01*
X59868001Y-23298765D02*
X59868001Y-23407622D01*
X59868001Y-23407622D02*
X59831715Y-23480194D01*
X59831715Y-23480194D02*
X59795429Y-23516480D01*
X59795429Y-23516480D02*
X59722858Y-23552765D01*
X59722858Y-23552765D02*
X59432572Y-23552765D01*
X59432572Y-23552765D02*
X59432572Y-22790765D01*
X59432572Y-22790765D02*
X59686572Y-22790765D01*
X59686572Y-22790765D02*
X59759144Y-22827051D01*
X59759144Y-22827051D02*
X59795429Y-22863337D01*
X59795429Y-22863337D02*
X59831715Y-22935908D01*
X59831715Y-22935908D02*
X59831715Y-23008480D01*
X59831715Y-23008480D02*
X59795429Y-23081051D01*
X59795429Y-23081051D02*
X59759144Y-23117337D01*
X59759144Y-23117337D02*
X59686572Y-23153622D01*
X59686572Y-23153622D02*
X59432572Y-23153622D01*
X60122001Y-23044765D02*
X60303429Y-23552765D01*
X60484858Y-23044765D02*
X60303429Y-23552765D01*
X60303429Y-23552765D02*
X60230858Y-23734194D01*
X60230858Y-23734194D02*
X60194572Y-23770480D01*
X60194572Y-23770480D02*
X60122001Y-23806765D01*
X60666286Y-23044765D02*
X60956572Y-23044765D01*
X60775143Y-22790765D02*
X60775143Y-23443908D01*
X60775143Y-23443908D02*
X60811429Y-23516480D01*
X60811429Y-23516480D02*
X60884000Y-23552765D01*
X60884000Y-23552765D02*
X60956572Y-23552765D01*
X61500858Y-23516480D02*
X61428286Y-23552765D01*
X61428286Y-23552765D02*
X61283144Y-23552765D01*
X61283144Y-23552765D02*
X61210572Y-23516480D01*
X61210572Y-23516480D02*
X61174286Y-23443908D01*
X61174286Y-23443908D02*
X61174286Y-23153622D01*
X61174286Y-23153622D02*
X61210572Y-23081051D01*
X61210572Y-23081051D02*
X61283144Y-23044765D01*
X61283144Y-23044765D02*
X61428286Y-23044765D01*
X61428286Y-23044765D02*
X61500858Y-23081051D01*
X61500858Y-23081051D02*
X61537144Y-23153622D01*
X61537144Y-23153622D02*
X61537144Y-23226194D01*
X61537144Y-23226194D02*
X61174286Y-23298765D01*
X61863715Y-23480194D02*
X61900001Y-23516480D01*
X61900001Y-23516480D02*
X61863715Y-23552765D01*
X61863715Y-23552765D02*
X61827429Y-23516480D01*
X61827429Y-23516480D02*
X61863715Y-23480194D01*
X61863715Y-23480194D02*
X61863715Y-23552765D01*
X61863715Y-23081051D02*
X61900001Y-23117337D01*
X61900001Y-23117337D02*
X61863715Y-23153622D01*
X61863715Y-23153622D02*
X61827429Y-23117337D01*
X61827429Y-23117337D02*
X61863715Y-23081051D01*
X61863715Y-23081051D02*
X61863715Y-23153622D01*
X63242572Y-23552765D02*
X62988572Y-23189908D01*
X62807143Y-23552765D02*
X62807143Y-22790765D01*
X62807143Y-22790765D02*
X63097429Y-22790765D01*
X63097429Y-22790765D02*
X63170000Y-22827051D01*
X63170000Y-22827051D02*
X63206286Y-22863337D01*
X63206286Y-22863337D02*
X63242572Y-22935908D01*
X63242572Y-22935908D02*
X63242572Y-23044765D01*
X63242572Y-23044765D02*
X63206286Y-23117337D01*
X63206286Y-23117337D02*
X63170000Y-23153622D01*
X63170000Y-23153622D02*
X63097429Y-23189908D01*
X63097429Y-23189908D02*
X62807143Y-23189908D01*
X63532857Y-22863337D02*
X63569143Y-22827051D01*
X63569143Y-22827051D02*
X63641715Y-22790765D01*
X63641715Y-22790765D02*
X63823143Y-22790765D01*
X63823143Y-22790765D02*
X63895715Y-22827051D01*
X63895715Y-22827051D02*
X63932000Y-22863337D01*
X63932000Y-22863337D02*
X63968286Y-22935908D01*
X63968286Y-22935908D02*
X63968286Y-23008480D01*
X63968286Y-23008480D02*
X63932000Y-23117337D01*
X63932000Y-23117337D02*
X63496572Y-23552765D01*
X63496572Y-23552765D02*
X63968286Y-23552765D01*
X64440000Y-22790765D02*
X64512571Y-22790765D01*
X64512571Y-22790765D02*
X64585143Y-22827051D01*
X64585143Y-22827051D02*
X64621429Y-22863337D01*
X64621429Y-22863337D02*
X64657714Y-22935908D01*
X64657714Y-22935908D02*
X64694000Y-23081051D01*
X64694000Y-23081051D02*
X64694000Y-23262480D01*
X64694000Y-23262480D02*
X64657714Y-23407622D01*
X64657714Y-23407622D02*
X64621429Y-23480194D01*
X64621429Y-23480194D02*
X64585143Y-23516480D01*
X64585143Y-23516480D02*
X64512571Y-23552765D01*
X64512571Y-23552765D02*
X64440000Y-23552765D01*
X64440000Y-23552765D02*
X64367429Y-23516480D01*
X64367429Y-23516480D02*
X64331143Y-23480194D01*
X64331143Y-23480194D02*
X64294857Y-23407622D01*
X64294857Y-23407622D02*
X64258571Y-23262480D01*
X64258571Y-23262480D02*
X64258571Y-23081051D01*
X64258571Y-23081051D02*
X64294857Y-22935908D01*
X64294857Y-22935908D02*
X64331143Y-22863337D01*
X64331143Y-22863337D02*
X64367429Y-22827051D01*
X64367429Y-22827051D02*
X64440000Y-22790765D01*
X65020571Y-23262480D02*
X65601143Y-23262480D01*
X65310857Y-23552765D02*
X65310857Y-22972194D01*
X66399429Y-23552765D02*
X66145429Y-23189908D01*
X65964000Y-23552765D02*
X65964000Y-22790765D01*
X65964000Y-22790765D02*
X66254286Y-22790765D01*
X66254286Y-22790765D02*
X66326857Y-22827051D01*
X66326857Y-22827051D02*
X66363143Y-22863337D01*
X66363143Y-22863337D02*
X66399429Y-22935908D01*
X66399429Y-22935908D02*
X66399429Y-23044765D01*
X66399429Y-23044765D02*
X66363143Y-23117337D01*
X66363143Y-23117337D02*
X66326857Y-23153622D01*
X66326857Y-23153622D02*
X66254286Y-23189908D01*
X66254286Y-23189908D02*
X65964000Y-23189908D01*
X66689714Y-22863337D02*
X66726000Y-22827051D01*
X66726000Y-22827051D02*
X66798572Y-22790765D01*
X66798572Y-22790765D02*
X66980000Y-22790765D01*
X66980000Y-22790765D02*
X67052572Y-22827051D01*
X67052572Y-22827051D02*
X67088857Y-22863337D01*
X67088857Y-22863337D02*
X67125143Y-22935908D01*
X67125143Y-22935908D02*
X67125143Y-23008480D01*
X67125143Y-23008480D02*
X67088857Y-23117337D01*
X67088857Y-23117337D02*
X66653429Y-23552765D01*
X66653429Y-23552765D02*
X67125143Y-23552765D01*
X67850857Y-23552765D02*
X67415428Y-23552765D01*
X67633143Y-23552765D02*
X67633143Y-22790765D01*
X67633143Y-22790765D02*
X67560571Y-22899622D01*
X67560571Y-22899622D02*
X67488000Y-22972194D01*
X67488000Y-22972194D02*
X67415428Y-23008480D01*
X57436859Y-24025205D02*
X57291716Y-24025205D01*
X57291716Y-24025205D02*
X57219144Y-24061491D01*
X57219144Y-24061491D02*
X57182859Y-24097777D01*
X57182859Y-24097777D02*
X57110287Y-24206634D01*
X57110287Y-24206634D02*
X57074001Y-24351777D01*
X57074001Y-24351777D02*
X57074001Y-24642062D01*
X57074001Y-24642062D02*
X57110287Y-24714634D01*
X57110287Y-24714634D02*
X57146573Y-24750920D01*
X57146573Y-24750920D02*
X57219144Y-24787205D01*
X57219144Y-24787205D02*
X57364287Y-24787205D01*
X57364287Y-24787205D02*
X57436859Y-24750920D01*
X57436859Y-24750920D02*
X57473144Y-24714634D01*
X57473144Y-24714634D02*
X57509430Y-24642062D01*
X57509430Y-24642062D02*
X57509430Y-24460634D01*
X57509430Y-24460634D02*
X57473144Y-24388062D01*
X57473144Y-24388062D02*
X57436859Y-24351777D01*
X57436859Y-24351777D02*
X57364287Y-24315491D01*
X57364287Y-24315491D02*
X57219144Y-24315491D01*
X57219144Y-24315491D02*
X57146573Y-24351777D01*
X57146573Y-24351777D02*
X57110287Y-24388062D01*
X57110287Y-24388062D02*
X57074001Y-24460634D01*
X58162573Y-24279205D02*
X58162573Y-24787205D01*
X57981144Y-23988920D02*
X57799715Y-24533205D01*
X57799715Y-24533205D02*
X58271430Y-24533205D01*
X58561715Y-24787205D02*
X58561715Y-24025205D01*
X58561715Y-24025205D02*
X58815715Y-24569491D01*
X58815715Y-24569491D02*
X59069715Y-24025205D01*
X59069715Y-24025205D02*
X59069715Y-24787205D01*
X59686572Y-24388062D02*
X59795429Y-24424348D01*
X59795429Y-24424348D02*
X59831715Y-24460634D01*
X59831715Y-24460634D02*
X59868001Y-24533205D01*
X59868001Y-24533205D02*
X59868001Y-24642062D01*
X59868001Y-24642062D02*
X59831715Y-24714634D01*
X59831715Y-24714634D02*
X59795429Y-24750920D01*
X59795429Y-24750920D02*
X59722858Y-24787205D01*
X59722858Y-24787205D02*
X59432572Y-24787205D01*
X59432572Y-24787205D02*
X59432572Y-24025205D01*
X59432572Y-24025205D02*
X59686572Y-24025205D01*
X59686572Y-24025205D02*
X59759144Y-24061491D01*
X59759144Y-24061491D02*
X59795429Y-24097777D01*
X59795429Y-24097777D02*
X59831715Y-24170348D01*
X59831715Y-24170348D02*
X59831715Y-24242920D01*
X59831715Y-24242920D02*
X59795429Y-24315491D01*
X59795429Y-24315491D02*
X59759144Y-24351777D01*
X59759144Y-24351777D02*
X59686572Y-24388062D01*
X59686572Y-24388062D02*
X59432572Y-24388062D01*
X60122001Y-24279205D02*
X60303429Y-24787205D01*
X60484858Y-24279205D02*
X60303429Y-24787205D01*
X60303429Y-24787205D02*
X60230858Y-24968634D01*
X60230858Y-24968634D02*
X60194572Y-25004920D01*
X60194572Y-25004920D02*
X60122001Y-25041205D01*
X60666286Y-24279205D02*
X60956572Y-24279205D01*
X60775143Y-24025205D02*
X60775143Y-24678348D01*
X60775143Y-24678348D02*
X60811429Y-24750920D01*
X60811429Y-24750920D02*
X60884000Y-24787205D01*
X60884000Y-24787205D02*
X60956572Y-24787205D01*
X61500858Y-24750920D02*
X61428286Y-24787205D01*
X61428286Y-24787205D02*
X61283144Y-24787205D01*
X61283144Y-24787205D02*
X61210572Y-24750920D01*
X61210572Y-24750920D02*
X61174286Y-24678348D01*
X61174286Y-24678348D02*
X61174286Y-24388062D01*
X61174286Y-24388062D02*
X61210572Y-24315491D01*
X61210572Y-24315491D02*
X61283144Y-24279205D01*
X61283144Y-24279205D02*
X61428286Y-24279205D01*
X61428286Y-24279205D02*
X61500858Y-24315491D01*
X61500858Y-24315491D02*
X61537144Y-24388062D01*
X61537144Y-24388062D02*
X61537144Y-24460634D01*
X61537144Y-24460634D02*
X61174286Y-24533205D01*
X61863715Y-24714634D02*
X61900001Y-24750920D01*
X61900001Y-24750920D02*
X61863715Y-24787205D01*
X61863715Y-24787205D02*
X61827429Y-24750920D01*
X61827429Y-24750920D02*
X61863715Y-24714634D01*
X61863715Y-24714634D02*
X61863715Y-24787205D01*
X61863715Y-24315491D02*
X61900001Y-24351777D01*
X61900001Y-24351777D02*
X61863715Y-24388062D01*
X61863715Y-24388062D02*
X61827429Y-24351777D01*
X61827429Y-24351777D02*
X61863715Y-24315491D01*
X61863715Y-24315491D02*
X61863715Y-24388062D01*
X63242572Y-24787205D02*
X62988572Y-24424348D01*
X62807143Y-24787205D02*
X62807143Y-24025205D01*
X62807143Y-24025205D02*
X63097429Y-24025205D01*
X63097429Y-24025205D02*
X63170000Y-24061491D01*
X63170000Y-24061491D02*
X63206286Y-24097777D01*
X63206286Y-24097777D02*
X63242572Y-24170348D01*
X63242572Y-24170348D02*
X63242572Y-24279205D01*
X63242572Y-24279205D02*
X63206286Y-24351777D01*
X63206286Y-24351777D02*
X63170000Y-24388062D01*
X63170000Y-24388062D02*
X63097429Y-24424348D01*
X63097429Y-24424348D02*
X62807143Y-24424348D01*
X63532857Y-24097777D02*
X63569143Y-24061491D01*
X63569143Y-24061491D02*
X63641715Y-24025205D01*
X63641715Y-24025205D02*
X63823143Y-24025205D01*
X63823143Y-24025205D02*
X63895715Y-24061491D01*
X63895715Y-24061491D02*
X63932000Y-24097777D01*
X63932000Y-24097777D02*
X63968286Y-24170348D01*
X63968286Y-24170348D02*
X63968286Y-24242920D01*
X63968286Y-24242920D02*
X63932000Y-24351777D01*
X63932000Y-24351777D02*
X63496572Y-24787205D01*
X63496572Y-24787205D02*
X63968286Y-24787205D01*
X64258571Y-24097777D02*
X64294857Y-24061491D01*
X64294857Y-24061491D02*
X64367429Y-24025205D01*
X64367429Y-24025205D02*
X64548857Y-24025205D01*
X64548857Y-24025205D02*
X64621429Y-24061491D01*
X64621429Y-24061491D02*
X64657714Y-24097777D01*
X64657714Y-24097777D02*
X64694000Y-24170348D01*
X64694000Y-24170348D02*
X64694000Y-24242920D01*
X64694000Y-24242920D02*
X64657714Y-24351777D01*
X64657714Y-24351777D02*
X64222286Y-24787205D01*
X64222286Y-24787205D02*
X64694000Y-24787205D01*
X65020571Y-24496920D02*
X65601143Y-24496920D01*
X65310857Y-24787205D02*
X65310857Y-24206634D01*
X66399429Y-24787205D02*
X66145429Y-24424348D01*
X65964000Y-24787205D02*
X65964000Y-24025205D01*
X65964000Y-24025205D02*
X66254286Y-24025205D01*
X66254286Y-24025205D02*
X66326857Y-24061491D01*
X66326857Y-24061491D02*
X66363143Y-24097777D01*
X66363143Y-24097777D02*
X66399429Y-24170348D01*
X66399429Y-24170348D02*
X66399429Y-24279205D01*
X66399429Y-24279205D02*
X66363143Y-24351777D01*
X66363143Y-24351777D02*
X66326857Y-24388062D01*
X66326857Y-24388062D02*
X66254286Y-24424348D01*
X66254286Y-24424348D02*
X65964000Y-24424348D01*
X66689714Y-24097777D02*
X66726000Y-24061491D01*
X66726000Y-24061491D02*
X66798572Y-24025205D01*
X66798572Y-24025205D02*
X66980000Y-24025205D01*
X66980000Y-24025205D02*
X67052572Y-24061491D01*
X67052572Y-24061491D02*
X67088857Y-24097777D01*
X67088857Y-24097777D02*
X67125143Y-24170348D01*
X67125143Y-24170348D02*
X67125143Y-24242920D01*
X67125143Y-24242920D02*
X67088857Y-24351777D01*
X67088857Y-24351777D02*
X66653429Y-24787205D01*
X66653429Y-24787205D02*
X67125143Y-24787205D01*
X67379143Y-24025205D02*
X67850857Y-24025205D01*
X67850857Y-24025205D02*
X67596857Y-24315491D01*
X67596857Y-24315491D02*
X67705714Y-24315491D01*
X67705714Y-24315491D02*
X67778286Y-24351777D01*
X67778286Y-24351777D02*
X67814571Y-24388062D01*
X67814571Y-24388062D02*
X67850857Y-24460634D01*
X67850857Y-24460634D02*
X67850857Y-24642062D01*
X67850857Y-24642062D02*
X67814571Y-24714634D01*
X67814571Y-24714634D02*
X67778286Y-24750920D01*
X67778286Y-24750920D02*
X67705714Y-24787205D01*
X67705714Y-24787205D02*
X67488000Y-24787205D01*
X67488000Y-24787205D02*
X67415428Y-24750920D01*
X67415428Y-24750920D02*
X67379143Y-24714634D01*
X39399285Y-9579260D02*
X39508143Y-9615545D01*
X39508143Y-9615545D02*
X39689571Y-9615545D01*
X39689571Y-9615545D02*
X39762143Y-9579260D01*
X39762143Y-9579260D02*
X39798428Y-9542974D01*
X39798428Y-9542974D02*
X39834714Y-9470402D01*
X39834714Y-9470402D02*
X39834714Y-9397831D01*
X39834714Y-9397831D02*
X39798428Y-9325260D01*
X39798428Y-9325260D02*
X39762143Y-9288974D01*
X39762143Y-9288974D02*
X39689571Y-9252688D01*
X39689571Y-9252688D02*
X39544428Y-9216402D01*
X39544428Y-9216402D02*
X39471857Y-9180117D01*
X39471857Y-9180117D02*
X39435571Y-9143831D01*
X39435571Y-9143831D02*
X39399285Y-9071260D01*
X39399285Y-9071260D02*
X39399285Y-8998688D01*
X39399285Y-8998688D02*
X39435571Y-8926117D01*
X39435571Y-8926117D02*
X39471857Y-8889831D01*
X39471857Y-8889831D02*
X39544428Y-8853545D01*
X39544428Y-8853545D02*
X39725857Y-8853545D01*
X39725857Y-8853545D02*
X39834714Y-8889831D01*
X40161285Y-9615545D02*
X40161285Y-8853545D01*
X40161285Y-8853545D02*
X40451571Y-8853545D01*
X40451571Y-8853545D02*
X40524142Y-8889831D01*
X40524142Y-8889831D02*
X40560428Y-8926117D01*
X40560428Y-8926117D02*
X40596714Y-8998688D01*
X40596714Y-8998688D02*
X40596714Y-9107545D01*
X40596714Y-9107545D02*
X40560428Y-9180117D01*
X40560428Y-9180117D02*
X40524142Y-9216402D01*
X40524142Y-9216402D02*
X40451571Y-9252688D01*
X40451571Y-9252688D02*
X40161285Y-9252688D01*
X40923285Y-9615545D02*
X40923285Y-8853545D01*
X41830428Y-8817260D02*
X41177285Y-9796974D01*
X42084428Y-9615545D02*
X42084428Y-8853545D01*
X42084428Y-8853545D02*
X42374714Y-8853545D01*
X42374714Y-8853545D02*
X42447285Y-8889831D01*
X42447285Y-8889831D02*
X42483571Y-8926117D01*
X42483571Y-8926117D02*
X42519857Y-8998688D01*
X42519857Y-8998688D02*
X42519857Y-9107545D01*
X42519857Y-9107545D02*
X42483571Y-9180117D01*
X42483571Y-9180117D02*
X42447285Y-9216402D01*
X42447285Y-9216402D02*
X42374714Y-9252688D01*
X42374714Y-9252688D02*
X42084428Y-9252688D01*
X42773857Y-8853545D02*
X42955285Y-9615545D01*
X42955285Y-9615545D02*
X43100428Y-9071260D01*
X43100428Y-9071260D02*
X43245571Y-9615545D01*
X43245571Y-9615545D02*
X43427000Y-8853545D01*
X44152714Y-9615545D02*
X43898714Y-9252688D01*
X43717285Y-9615545D02*
X43717285Y-8853545D01*
X43717285Y-8853545D02*
X44007571Y-8853545D01*
X44007571Y-8853545D02*
X44080142Y-8889831D01*
X44080142Y-8889831D02*
X44116428Y-8926117D01*
X44116428Y-8926117D02*
X44152714Y-8998688D01*
X44152714Y-8998688D02*
X44152714Y-9107545D01*
X44152714Y-9107545D02*
X44116428Y-9180117D01*
X44116428Y-9180117D02*
X44080142Y-9216402D01*
X44080142Y-9216402D02*
X44007571Y-9252688D01*
X44007571Y-9252688D02*
X43717285Y-9252688D01*
X37784573Y-10849985D02*
X37784573Y-10087985D01*
X38873144Y-10087985D02*
X39018287Y-10087985D01*
X39018287Y-10087985D02*
X39090858Y-10124271D01*
X39090858Y-10124271D02*
X39163430Y-10196842D01*
X39163430Y-10196842D02*
X39199715Y-10341985D01*
X39199715Y-10341985D02*
X39199715Y-10595985D01*
X39199715Y-10595985D02*
X39163430Y-10741128D01*
X39163430Y-10741128D02*
X39090858Y-10813700D01*
X39090858Y-10813700D02*
X39018287Y-10849985D01*
X39018287Y-10849985D02*
X38873144Y-10849985D01*
X38873144Y-10849985D02*
X38800573Y-10813700D01*
X38800573Y-10813700D02*
X38728001Y-10741128D01*
X38728001Y-10741128D02*
X38691715Y-10595985D01*
X38691715Y-10595985D02*
X38691715Y-10341985D01*
X38691715Y-10341985D02*
X38728001Y-10196842D01*
X38728001Y-10196842D02*
X38800573Y-10124271D01*
X38800573Y-10124271D02*
X38873144Y-10087985D01*
X40542287Y-10777414D02*
X40506001Y-10813700D01*
X40506001Y-10813700D02*
X40397144Y-10849985D01*
X40397144Y-10849985D02*
X40324572Y-10849985D01*
X40324572Y-10849985D02*
X40215715Y-10813700D01*
X40215715Y-10813700D02*
X40143144Y-10741128D01*
X40143144Y-10741128D02*
X40106858Y-10668557D01*
X40106858Y-10668557D02*
X40070572Y-10523414D01*
X40070572Y-10523414D02*
X40070572Y-10414557D01*
X40070572Y-10414557D02*
X40106858Y-10269414D01*
X40106858Y-10269414D02*
X40143144Y-10196842D01*
X40143144Y-10196842D02*
X40215715Y-10124271D01*
X40215715Y-10124271D02*
X40324572Y-10087985D01*
X40324572Y-10087985D02*
X40397144Y-10087985D01*
X40397144Y-10087985D02*
X40506001Y-10124271D01*
X40506001Y-10124271D02*
X40542287Y-10160557D01*
X41848572Y-10849985D02*
X41413143Y-10849985D01*
X41630858Y-10849985D02*
X41630858Y-10087985D01*
X41630858Y-10087985D02*
X41558286Y-10196842D01*
X41558286Y-10196842D02*
X41485715Y-10269414D01*
X41485715Y-10269414D02*
X41413143Y-10305700D01*
X42683143Y-10087985D02*
X43154857Y-10087985D01*
X43154857Y-10087985D02*
X42900857Y-10378271D01*
X42900857Y-10378271D02*
X43009714Y-10378271D01*
X43009714Y-10378271D02*
X43082286Y-10414557D01*
X43082286Y-10414557D02*
X43118571Y-10450842D01*
X43118571Y-10450842D02*
X43154857Y-10523414D01*
X43154857Y-10523414D02*
X43154857Y-10704842D01*
X43154857Y-10704842D02*
X43118571Y-10777414D01*
X43118571Y-10777414D02*
X43082286Y-10813700D01*
X43082286Y-10813700D02*
X43009714Y-10849985D01*
X43009714Y-10849985D02*
X42792000Y-10849985D01*
X42792000Y-10849985D02*
X42719428Y-10813700D01*
X42719428Y-10813700D02*
X42683143Y-10777414D01*
X44424856Y-10087985D02*
X44061999Y-10087985D01*
X44061999Y-10087985D02*
X44025713Y-10450842D01*
X44025713Y-10450842D02*
X44061999Y-10414557D01*
X44061999Y-10414557D02*
X44134571Y-10378271D01*
X44134571Y-10378271D02*
X44315999Y-10378271D01*
X44315999Y-10378271D02*
X44388571Y-10414557D01*
X44388571Y-10414557D02*
X44424856Y-10450842D01*
X44424856Y-10450842D02*
X44461142Y-10523414D01*
X44461142Y-10523414D02*
X44461142Y-10704842D01*
X44461142Y-10704842D02*
X44424856Y-10777414D01*
X44424856Y-10777414D02*
X44388571Y-10813700D01*
X44388571Y-10813700D02*
X44315999Y-10849985D01*
X44315999Y-10849985D02*
X44134571Y-10849985D01*
X44134571Y-10849985D02*
X44061999Y-10813700D01*
X44061999Y-10813700D02*
X44025713Y-10777414D01*
X45767427Y-10124271D02*
X45694856Y-10087985D01*
X45694856Y-10087985D02*
X45585998Y-10087985D01*
X45585998Y-10087985D02*
X45477141Y-10124271D01*
X45477141Y-10124271D02*
X45404570Y-10196842D01*
X45404570Y-10196842D02*
X45368284Y-10269414D01*
X45368284Y-10269414D02*
X45331998Y-10414557D01*
X45331998Y-10414557D02*
X45331998Y-10523414D01*
X45331998Y-10523414D02*
X45368284Y-10668557D01*
X45368284Y-10668557D02*
X45404570Y-10741128D01*
X45404570Y-10741128D02*
X45477141Y-10813700D01*
X45477141Y-10813700D02*
X45585998Y-10849985D01*
X45585998Y-10849985D02*
X45658570Y-10849985D01*
X45658570Y-10849985D02*
X45767427Y-10813700D01*
X45767427Y-10813700D02*
X45803713Y-10777414D01*
X45803713Y-10777414D02*
X45803713Y-10523414D01*
X45803713Y-10523414D02*
X45658570Y-10523414D01*
G04 #@! TO.C,R21*
X42571010Y-30166821D02*
X42329105Y-30336155D01*
X42571010Y-30457107D02*
X42063010Y-30457107D01*
X42063010Y-30457107D02*
X42063010Y-30263583D01*
X42063010Y-30263583D02*
X42087200Y-30215202D01*
X42087200Y-30215202D02*
X42111391Y-30191012D01*
X42111391Y-30191012D02*
X42159772Y-30166821D01*
X42159772Y-30166821D02*
X42232343Y-30166821D01*
X42232343Y-30166821D02*
X42280724Y-30191012D01*
X42280724Y-30191012D02*
X42304915Y-30215202D01*
X42304915Y-30215202D02*
X42329105Y-30263583D01*
X42329105Y-30263583D02*
X42329105Y-30457107D01*
X42111391Y-29973298D02*
X42087200Y-29949107D01*
X42087200Y-29949107D02*
X42063010Y-29900726D01*
X42063010Y-29900726D02*
X42063010Y-29779774D01*
X42063010Y-29779774D02*
X42087200Y-29731393D01*
X42087200Y-29731393D02*
X42111391Y-29707202D01*
X42111391Y-29707202D02*
X42159772Y-29683012D01*
X42159772Y-29683012D02*
X42208153Y-29683012D01*
X42208153Y-29683012D02*
X42280724Y-29707202D01*
X42280724Y-29707202D02*
X42571010Y-29997488D01*
X42571010Y-29997488D02*
X42571010Y-29683012D01*
X42571010Y-29199202D02*
X42571010Y-29489488D01*
X42571010Y-29344345D02*
X42063010Y-29344345D01*
X42063010Y-29344345D02*
X42135581Y-29392726D01*
X42135581Y-29392726D02*
X42183962Y-29441107D01*
X42183962Y-29441107D02*
X42208153Y-29489488D01*
G04 #@! TO.C,R25*
X46661010Y-41046571D02*
X46419105Y-41215905D01*
X46661010Y-41336857D02*
X46153010Y-41336857D01*
X46153010Y-41336857D02*
X46153010Y-41143333D01*
X46153010Y-41143333D02*
X46177200Y-41094952D01*
X46177200Y-41094952D02*
X46201391Y-41070762D01*
X46201391Y-41070762D02*
X46249772Y-41046571D01*
X46249772Y-41046571D02*
X46322343Y-41046571D01*
X46322343Y-41046571D02*
X46370724Y-41070762D01*
X46370724Y-41070762D02*
X46394915Y-41094952D01*
X46394915Y-41094952D02*
X46419105Y-41143333D01*
X46419105Y-41143333D02*
X46419105Y-41336857D01*
X46201391Y-40853048D02*
X46177200Y-40828857D01*
X46177200Y-40828857D02*
X46153010Y-40780476D01*
X46153010Y-40780476D02*
X46153010Y-40659524D01*
X46153010Y-40659524D02*
X46177200Y-40611143D01*
X46177200Y-40611143D02*
X46201391Y-40586952D01*
X46201391Y-40586952D02*
X46249772Y-40562762D01*
X46249772Y-40562762D02*
X46298153Y-40562762D01*
X46298153Y-40562762D02*
X46370724Y-40586952D01*
X46370724Y-40586952D02*
X46661010Y-40877238D01*
X46661010Y-40877238D02*
X46661010Y-40562762D01*
X46153010Y-40103142D02*
X46153010Y-40345047D01*
X46153010Y-40345047D02*
X46394915Y-40369238D01*
X46394915Y-40369238D02*
X46370724Y-40345047D01*
X46370724Y-40345047D02*
X46346534Y-40296666D01*
X46346534Y-40296666D02*
X46346534Y-40175714D01*
X46346534Y-40175714D02*
X46370724Y-40127333D01*
X46370724Y-40127333D02*
X46394915Y-40103142D01*
X46394915Y-40103142D02*
X46443296Y-40078952D01*
X46443296Y-40078952D02*
X46564248Y-40078952D01*
X46564248Y-40078952D02*
X46612629Y-40103142D01*
X46612629Y-40103142D02*
X46636820Y-40127333D01*
X46636820Y-40127333D02*
X46661010Y-40175714D01*
X46661010Y-40175714D02*
X46661010Y-40296666D01*
X46661010Y-40296666D02*
X46636820Y-40345047D01*
X46636820Y-40345047D02*
X46612629Y-40369238D01*
D11*
G04 #@! TO.C,J2*
X36646000Y-13302869D02*
X36646000Y-13540964D01*
X36407905Y-13445726D02*
X36646000Y-13540964D01*
X36646000Y-13540964D02*
X36884095Y-13445726D01*
X36503143Y-13731440D02*
X36646000Y-13540964D01*
X36646000Y-13540964D02*
X36788857Y-13731440D01*
D10*
G04 #@! TO.C,R3*
X68591010Y-43074916D02*
X68349105Y-43244250D01*
X68591010Y-43365202D02*
X68083010Y-43365202D01*
X68083010Y-43365202D02*
X68083010Y-43171678D01*
X68083010Y-43171678D02*
X68107200Y-43123297D01*
X68107200Y-43123297D02*
X68131391Y-43099107D01*
X68131391Y-43099107D02*
X68179772Y-43074916D01*
X68179772Y-43074916D02*
X68252343Y-43074916D01*
X68252343Y-43074916D02*
X68300724Y-43099107D01*
X68300724Y-43099107D02*
X68324915Y-43123297D01*
X68324915Y-43123297D02*
X68349105Y-43171678D01*
X68349105Y-43171678D02*
X68349105Y-43365202D01*
X68083010Y-42905583D02*
X68083010Y-42591107D01*
X68083010Y-42591107D02*
X68276534Y-42760440D01*
X68276534Y-42760440D02*
X68276534Y-42687869D01*
X68276534Y-42687869D02*
X68300724Y-42639488D01*
X68300724Y-42639488D02*
X68324915Y-42615297D01*
X68324915Y-42615297D02*
X68373296Y-42591107D01*
X68373296Y-42591107D02*
X68494248Y-42591107D01*
X68494248Y-42591107D02*
X68542629Y-42615297D01*
X68542629Y-42615297D02*
X68566820Y-42639488D01*
X68566820Y-42639488D02*
X68591010Y-42687869D01*
X68591010Y-42687869D02*
X68591010Y-42833012D01*
X68591010Y-42833012D02*
X68566820Y-42881393D01*
X68566820Y-42881393D02*
X68542629Y-42905583D01*
D12*
G04 #@! TO.C,R20*
X45301010Y-27916821D02*
X45059105Y-28086155D01*
X45301010Y-28207107D02*
X44793010Y-28207107D01*
X44793010Y-28207107D02*
X44793010Y-28013583D01*
X44793010Y-28013583D02*
X44817200Y-27965202D01*
X44817200Y-27965202D02*
X44841391Y-27941012D01*
X44841391Y-27941012D02*
X44889772Y-27916821D01*
X44889772Y-27916821D02*
X44962343Y-27916821D01*
X44962343Y-27916821D02*
X45010724Y-27941012D01*
X45010724Y-27941012D02*
X45034915Y-27965202D01*
X45034915Y-27965202D02*
X45059105Y-28013583D01*
X45059105Y-28013583D02*
X45059105Y-28207107D01*
X44841391Y-27723298D02*
X44817200Y-27699107D01*
X44817200Y-27699107D02*
X44793010Y-27650726D01*
X44793010Y-27650726D02*
X44793010Y-27529774D01*
X44793010Y-27529774D02*
X44817200Y-27481393D01*
X44817200Y-27481393D02*
X44841391Y-27457202D01*
X44841391Y-27457202D02*
X44889772Y-27433012D01*
X44889772Y-27433012D02*
X44938153Y-27433012D01*
X44938153Y-27433012D02*
X45010724Y-27457202D01*
X45010724Y-27457202D02*
X45301010Y-27747488D01*
X45301010Y-27747488D02*
X45301010Y-27433012D01*
X44793010Y-27118535D02*
X44793010Y-27070154D01*
X44793010Y-27070154D02*
X44817200Y-27021773D01*
X44817200Y-27021773D02*
X44841391Y-26997583D01*
X44841391Y-26997583D02*
X44889772Y-26973392D01*
X44889772Y-26973392D02*
X44986534Y-26949202D01*
X44986534Y-26949202D02*
X45107486Y-26949202D01*
X45107486Y-26949202D02*
X45204248Y-26973392D01*
X45204248Y-26973392D02*
X45252629Y-26997583D01*
X45252629Y-26997583D02*
X45276820Y-27021773D01*
X45276820Y-27021773D02*
X45301010Y-27070154D01*
X45301010Y-27070154D02*
X45301010Y-27118535D01*
X45301010Y-27118535D02*
X45276820Y-27166916D01*
X45276820Y-27166916D02*
X45252629Y-27191107D01*
X45252629Y-27191107D02*
X45204248Y-27215297D01*
X45204248Y-27215297D02*
X45107486Y-27239488D01*
X45107486Y-27239488D02*
X44986534Y-27239488D01*
X44986534Y-27239488D02*
X44889772Y-27215297D01*
X44889772Y-27215297D02*
X44841391Y-27191107D01*
X44841391Y-27191107D02*
X44817200Y-27166916D01*
X44817200Y-27166916D02*
X44793010Y-27118535D01*
D10*
G04 #@! TO.C,R23*
X45291010Y-30366821D02*
X45049105Y-30536155D01*
X45291010Y-30657107D02*
X44783010Y-30657107D01*
X44783010Y-30657107D02*
X44783010Y-30463583D01*
X44783010Y-30463583D02*
X44807200Y-30415202D01*
X44807200Y-30415202D02*
X44831391Y-30391012D01*
X44831391Y-30391012D02*
X44879772Y-30366821D01*
X44879772Y-30366821D02*
X44952343Y-30366821D01*
X44952343Y-30366821D02*
X45000724Y-30391012D01*
X45000724Y-30391012D02*
X45024915Y-30415202D01*
X45024915Y-30415202D02*
X45049105Y-30463583D01*
X45049105Y-30463583D02*
X45049105Y-30657107D01*
X44831391Y-30173298D02*
X44807200Y-30149107D01*
X44807200Y-30149107D02*
X44783010Y-30100726D01*
X44783010Y-30100726D02*
X44783010Y-29979774D01*
X44783010Y-29979774D02*
X44807200Y-29931393D01*
X44807200Y-29931393D02*
X44831391Y-29907202D01*
X44831391Y-29907202D02*
X44879772Y-29883012D01*
X44879772Y-29883012D02*
X44928153Y-29883012D01*
X44928153Y-29883012D02*
X45000724Y-29907202D01*
X45000724Y-29907202D02*
X45291010Y-30197488D01*
X45291010Y-30197488D02*
X45291010Y-29883012D01*
X44783010Y-29713678D02*
X44783010Y-29399202D01*
X44783010Y-29399202D02*
X44976534Y-29568535D01*
X44976534Y-29568535D02*
X44976534Y-29495964D01*
X44976534Y-29495964D02*
X45000724Y-29447583D01*
X45000724Y-29447583D02*
X45024915Y-29423392D01*
X45024915Y-29423392D02*
X45073296Y-29399202D01*
X45073296Y-29399202D02*
X45194248Y-29399202D01*
X45194248Y-29399202D02*
X45242629Y-29423392D01*
X45242629Y-29423392D02*
X45266820Y-29447583D01*
X45266820Y-29447583D02*
X45291010Y-29495964D01*
X45291010Y-29495964D02*
X45291010Y-29641107D01*
X45291010Y-29641107D02*
X45266820Y-29689488D01*
X45266820Y-29689488D02*
X45242629Y-29713678D01*
G04 #@! TO.C,R18*
X24889428Y-19145260D02*
X24720094Y-18903355D01*
X24599142Y-19145260D02*
X24599142Y-18637260D01*
X24599142Y-18637260D02*
X24792666Y-18637260D01*
X24792666Y-18637260D02*
X24841047Y-18661450D01*
X24841047Y-18661450D02*
X24865237Y-18685641D01*
X24865237Y-18685641D02*
X24889428Y-18734022D01*
X24889428Y-18734022D02*
X24889428Y-18806593D01*
X24889428Y-18806593D02*
X24865237Y-18854974D01*
X24865237Y-18854974D02*
X24841047Y-18879165D01*
X24841047Y-18879165D02*
X24792666Y-18903355D01*
X24792666Y-18903355D02*
X24599142Y-18903355D01*
X25373237Y-19145260D02*
X25082951Y-19145260D01*
X25228094Y-19145260D02*
X25228094Y-18637260D01*
X25228094Y-18637260D02*
X25179713Y-18709831D01*
X25179713Y-18709831D02*
X25131332Y-18758212D01*
X25131332Y-18758212D02*
X25082951Y-18782403D01*
X25663523Y-18854974D02*
X25615142Y-18830784D01*
X25615142Y-18830784D02*
X25590952Y-18806593D01*
X25590952Y-18806593D02*
X25566761Y-18758212D01*
X25566761Y-18758212D02*
X25566761Y-18734022D01*
X25566761Y-18734022D02*
X25590952Y-18685641D01*
X25590952Y-18685641D02*
X25615142Y-18661450D01*
X25615142Y-18661450D02*
X25663523Y-18637260D01*
X25663523Y-18637260D02*
X25760285Y-18637260D01*
X25760285Y-18637260D02*
X25808666Y-18661450D01*
X25808666Y-18661450D02*
X25832857Y-18685641D01*
X25832857Y-18685641D02*
X25857047Y-18734022D01*
X25857047Y-18734022D02*
X25857047Y-18758212D01*
X25857047Y-18758212D02*
X25832857Y-18806593D01*
X25832857Y-18806593D02*
X25808666Y-18830784D01*
X25808666Y-18830784D02*
X25760285Y-18854974D01*
X25760285Y-18854974D02*
X25663523Y-18854974D01*
X25663523Y-18854974D02*
X25615142Y-18879165D01*
X25615142Y-18879165D02*
X25590952Y-18903355D01*
X25590952Y-18903355D02*
X25566761Y-18951736D01*
X25566761Y-18951736D02*
X25566761Y-19048498D01*
X25566761Y-19048498D02*
X25590952Y-19096879D01*
X25590952Y-19096879D02*
X25615142Y-19121070D01*
X25615142Y-19121070D02*
X25663523Y-19145260D01*
X25663523Y-19145260D02*
X25760285Y-19145260D01*
X25760285Y-19145260D02*
X25808666Y-19121070D01*
X25808666Y-19121070D02*
X25832857Y-19096879D01*
X25832857Y-19096879D02*
X25857047Y-19048498D01*
X25857047Y-19048498D02*
X25857047Y-18951736D01*
X25857047Y-18951736D02*
X25832857Y-18903355D01*
X25832857Y-18903355D02*
X25808666Y-18879165D01*
X25808666Y-18879165D02*
X25760285Y-18854974D01*
D11*
G04 #@! TO.C,J3*
X57896000Y-13122869D02*
X57896000Y-13360964D01*
X57657905Y-13265726D02*
X57896000Y-13360964D01*
X57896000Y-13360964D02*
X58134095Y-13265726D01*
X57753143Y-13551440D02*
X57896000Y-13360964D01*
X57896000Y-13360964D02*
X58038857Y-13551440D01*
D10*
G04 #@! TO.C,R13*
X67829428Y-46775260D02*
X67660094Y-46533355D01*
X67539142Y-46775260D02*
X67539142Y-46267260D01*
X67539142Y-46267260D02*
X67732666Y-46267260D01*
X67732666Y-46267260D02*
X67781047Y-46291450D01*
X67781047Y-46291450D02*
X67805237Y-46315641D01*
X67805237Y-46315641D02*
X67829428Y-46364022D01*
X67829428Y-46364022D02*
X67829428Y-46436593D01*
X67829428Y-46436593D02*
X67805237Y-46484974D01*
X67805237Y-46484974D02*
X67781047Y-46509165D01*
X67781047Y-46509165D02*
X67732666Y-46533355D01*
X67732666Y-46533355D02*
X67539142Y-46533355D01*
X68313237Y-46775260D02*
X68022951Y-46775260D01*
X68168094Y-46775260D02*
X68168094Y-46267260D01*
X68168094Y-46267260D02*
X68119713Y-46339831D01*
X68119713Y-46339831D02*
X68071332Y-46388212D01*
X68071332Y-46388212D02*
X68022951Y-46412403D01*
X68482571Y-46267260D02*
X68797047Y-46267260D01*
X68797047Y-46267260D02*
X68627714Y-46460784D01*
X68627714Y-46460784D02*
X68700285Y-46460784D01*
X68700285Y-46460784D02*
X68748666Y-46484974D01*
X68748666Y-46484974D02*
X68772857Y-46509165D01*
X68772857Y-46509165D02*
X68797047Y-46557546D01*
X68797047Y-46557546D02*
X68797047Y-46678498D01*
X68797047Y-46678498D02*
X68772857Y-46726879D01*
X68772857Y-46726879D02*
X68748666Y-46751070D01*
X68748666Y-46751070D02*
X68700285Y-46775260D01*
X68700285Y-46775260D02*
X68555142Y-46775260D01*
X68555142Y-46775260D02*
X68506761Y-46751070D01*
X68506761Y-46751070D02*
X68482571Y-46726879D01*
G04 #@! TO.C,R11*
X28889428Y-17165260D02*
X28720094Y-16923355D01*
X28599142Y-17165260D02*
X28599142Y-16657260D01*
X28599142Y-16657260D02*
X28792666Y-16657260D01*
X28792666Y-16657260D02*
X28841047Y-16681450D01*
X28841047Y-16681450D02*
X28865237Y-16705641D01*
X28865237Y-16705641D02*
X28889428Y-16754022D01*
X28889428Y-16754022D02*
X28889428Y-16826593D01*
X28889428Y-16826593D02*
X28865237Y-16874974D01*
X28865237Y-16874974D02*
X28841047Y-16899165D01*
X28841047Y-16899165D02*
X28792666Y-16923355D01*
X28792666Y-16923355D02*
X28599142Y-16923355D01*
X29373237Y-17165260D02*
X29082951Y-17165260D01*
X29228094Y-17165260D02*
X29228094Y-16657260D01*
X29228094Y-16657260D02*
X29179713Y-16729831D01*
X29179713Y-16729831D02*
X29131332Y-16778212D01*
X29131332Y-16778212D02*
X29082951Y-16802403D01*
X29857047Y-17165260D02*
X29566761Y-17165260D01*
X29711904Y-17165260D02*
X29711904Y-16657260D01*
X29711904Y-16657260D02*
X29663523Y-16729831D01*
X29663523Y-16729831D02*
X29615142Y-16778212D01*
X29615142Y-16778212D02*
X29566761Y-16802403D01*
D11*
G04 #@! TO.C,U4*
X66494095Y-16332869D02*
X66494095Y-17142392D01*
X66494095Y-17142392D02*
X66541714Y-17237630D01*
X66541714Y-17237630D02*
X66589333Y-17285250D01*
X66589333Y-17285250D02*
X66684571Y-17332869D01*
X66684571Y-17332869D02*
X66875047Y-17332869D01*
X66875047Y-17332869D02*
X66970285Y-17285250D01*
X66970285Y-17285250D02*
X67017904Y-17237630D01*
X67017904Y-17237630D02*
X67065523Y-17142392D01*
X67065523Y-17142392D02*
X67065523Y-16332869D01*
X67970285Y-16666202D02*
X67970285Y-17332869D01*
X67732190Y-16285250D02*
X67494095Y-16999535D01*
X67494095Y-16999535D02*
X68113142Y-16999535D01*
X44918619Y-25750249D02*
X45156714Y-25750249D01*
X45061476Y-25988344D02*
X45156714Y-25750249D01*
X45156714Y-25750249D02*
X45061476Y-25512154D01*
X45347190Y-25893106D02*
X45156714Y-25750249D01*
X45156714Y-25750249D02*
X45347190Y-25607392D01*
X70749294Y-14558949D02*
X70987389Y-14558949D01*
X70892151Y-14797044D02*
X70987389Y-14558949D01*
X70987389Y-14558949D02*
X70892151Y-14320854D01*
X71177865Y-14701806D02*
X70987389Y-14558949D01*
X70987389Y-14558949D02*
X71177865Y-14416092D01*
G04 #@! TO.C,U5*
X64594095Y-29172619D02*
X64594095Y-29982142D01*
X64594095Y-29982142D02*
X64641714Y-30077380D01*
X64641714Y-30077380D02*
X64689333Y-30125000D01*
X64689333Y-30125000D02*
X64784571Y-30172619D01*
X64784571Y-30172619D02*
X64975047Y-30172619D01*
X64975047Y-30172619D02*
X65070285Y-30125000D01*
X65070285Y-30125000D02*
X65117904Y-30077380D01*
X65117904Y-30077380D02*
X65165523Y-29982142D01*
X65165523Y-29982142D02*
X65165523Y-29172619D01*
X66117904Y-29172619D02*
X65641714Y-29172619D01*
X65641714Y-29172619D02*
X65594095Y-29648809D01*
X65594095Y-29648809D02*
X65641714Y-29601190D01*
X65641714Y-29601190D02*
X65736952Y-29553571D01*
X65736952Y-29553571D02*
X65975047Y-29553571D01*
X65975047Y-29553571D02*
X66070285Y-29601190D01*
X66070285Y-29601190D02*
X66117904Y-29648809D01*
X66117904Y-29648809D02*
X66165523Y-29744047D01*
X66165523Y-29744047D02*
X66165523Y-29982142D01*
X66165523Y-29982142D02*
X66117904Y-30077380D01*
X66117904Y-30077380D02*
X66070285Y-30125000D01*
X66070285Y-30125000D02*
X65975047Y-30172619D01*
X65975047Y-30172619D02*
X65736952Y-30172619D01*
X65736952Y-30172619D02*
X65641714Y-30125000D01*
X65641714Y-30125000D02*
X65594095Y-30077380D01*
X68906000Y-41012869D02*
X68906000Y-41250964D01*
X68667905Y-41155726D02*
X68906000Y-41250964D01*
X68906000Y-41250964D02*
X69144095Y-41155726D01*
X68763143Y-41441440D02*
X68906000Y-41250964D01*
X68906000Y-41250964D02*
X69048857Y-41441440D01*
X67986000Y-40992869D02*
X67986000Y-41230964D01*
X67747905Y-41135726D02*
X67986000Y-41230964D01*
X67986000Y-41230964D02*
X68224095Y-41135726D01*
X67843143Y-41421440D02*
X67986000Y-41230964D01*
X67986000Y-41230964D02*
X68128857Y-41421440D01*
G04 #@! TO.C,U1*
X34038619Y-43251904D02*
X34848142Y-43251904D01*
X34848142Y-43251904D02*
X34943380Y-43204285D01*
X34943380Y-43204285D02*
X34991000Y-43156666D01*
X34991000Y-43156666D02*
X35038619Y-43061428D01*
X35038619Y-43061428D02*
X35038619Y-42870952D01*
X35038619Y-42870952D02*
X34991000Y-42775714D01*
X34991000Y-42775714D02*
X34943380Y-42728095D01*
X34943380Y-42728095D02*
X34848142Y-42680476D01*
X34848142Y-42680476D02*
X34038619Y-42680476D01*
X35038619Y-41680476D02*
X35038619Y-42251904D01*
X35038619Y-41966190D02*
X34038619Y-41966190D01*
X34038619Y-41966190D02*
X34181476Y-42061428D01*
X34181476Y-42061428D02*
X34276714Y-42156666D01*
X34276714Y-42156666D02*
X34324333Y-42251904D01*
X32818619Y-46810249D02*
X33056714Y-46810249D01*
X32961476Y-47048344D02*
X33056714Y-46810249D01*
X33056714Y-46810249D02*
X32961476Y-46572154D01*
X33247190Y-46953106D02*
X33056714Y-46810249D01*
X33056714Y-46810249D02*
X33247190Y-46667392D01*
D10*
G04 #@! TO.C,R22*
X42581010Y-27986821D02*
X42339105Y-28156155D01*
X42581010Y-28277107D02*
X42073010Y-28277107D01*
X42073010Y-28277107D02*
X42073010Y-28083583D01*
X42073010Y-28083583D02*
X42097200Y-28035202D01*
X42097200Y-28035202D02*
X42121391Y-28011012D01*
X42121391Y-28011012D02*
X42169772Y-27986821D01*
X42169772Y-27986821D02*
X42242343Y-27986821D01*
X42242343Y-27986821D02*
X42290724Y-28011012D01*
X42290724Y-28011012D02*
X42314915Y-28035202D01*
X42314915Y-28035202D02*
X42339105Y-28083583D01*
X42339105Y-28083583D02*
X42339105Y-28277107D01*
X42121391Y-27793298D02*
X42097200Y-27769107D01*
X42097200Y-27769107D02*
X42073010Y-27720726D01*
X42073010Y-27720726D02*
X42073010Y-27599774D01*
X42073010Y-27599774D02*
X42097200Y-27551393D01*
X42097200Y-27551393D02*
X42121391Y-27527202D01*
X42121391Y-27527202D02*
X42169772Y-27503012D01*
X42169772Y-27503012D02*
X42218153Y-27503012D01*
X42218153Y-27503012D02*
X42290724Y-27527202D01*
X42290724Y-27527202D02*
X42581010Y-27817488D01*
X42581010Y-27817488D02*
X42581010Y-27503012D01*
X42121391Y-27309488D02*
X42097200Y-27285297D01*
X42097200Y-27285297D02*
X42073010Y-27236916D01*
X42073010Y-27236916D02*
X42073010Y-27115964D01*
X42073010Y-27115964D02*
X42097200Y-27067583D01*
X42097200Y-27067583D02*
X42121391Y-27043392D01*
X42121391Y-27043392D02*
X42169772Y-27019202D01*
X42169772Y-27019202D02*
X42218153Y-27019202D01*
X42218153Y-27019202D02*
X42290724Y-27043392D01*
X42290724Y-27043392D02*
X42581010Y-27333678D01*
X42581010Y-27333678D02*
X42581010Y-27019202D01*
G04 #@! TO.C,R10*
X24939428Y-17925260D02*
X24770094Y-17683355D01*
X24649142Y-17925260D02*
X24649142Y-17417260D01*
X24649142Y-17417260D02*
X24842666Y-17417260D01*
X24842666Y-17417260D02*
X24891047Y-17441450D01*
X24891047Y-17441450D02*
X24915237Y-17465641D01*
X24915237Y-17465641D02*
X24939428Y-17514022D01*
X24939428Y-17514022D02*
X24939428Y-17586593D01*
X24939428Y-17586593D02*
X24915237Y-17634974D01*
X24915237Y-17634974D02*
X24891047Y-17659165D01*
X24891047Y-17659165D02*
X24842666Y-17683355D01*
X24842666Y-17683355D02*
X24649142Y-17683355D01*
X25423237Y-17925260D02*
X25132951Y-17925260D01*
X25278094Y-17925260D02*
X25278094Y-17417260D01*
X25278094Y-17417260D02*
X25229713Y-17489831D01*
X25229713Y-17489831D02*
X25181332Y-17538212D01*
X25181332Y-17538212D02*
X25132951Y-17562403D01*
X25737714Y-17417260D02*
X25786095Y-17417260D01*
X25786095Y-17417260D02*
X25834476Y-17441450D01*
X25834476Y-17441450D02*
X25858666Y-17465641D01*
X25858666Y-17465641D02*
X25882857Y-17514022D01*
X25882857Y-17514022D02*
X25907047Y-17610784D01*
X25907047Y-17610784D02*
X25907047Y-17731736D01*
X25907047Y-17731736D02*
X25882857Y-17828498D01*
X25882857Y-17828498D02*
X25858666Y-17876879D01*
X25858666Y-17876879D02*
X25834476Y-17901070D01*
X25834476Y-17901070D02*
X25786095Y-17925260D01*
X25786095Y-17925260D02*
X25737714Y-17925260D01*
X25737714Y-17925260D02*
X25689333Y-17901070D01*
X25689333Y-17901070D02*
X25665142Y-17876879D01*
X25665142Y-17876879D02*
X25640952Y-17828498D01*
X25640952Y-17828498D02*
X25616761Y-17731736D01*
X25616761Y-17731736D02*
X25616761Y-17610784D01*
X25616761Y-17610784D02*
X25640952Y-17514022D01*
X25640952Y-17514022D02*
X25665142Y-17465641D01*
X25665142Y-17465641D02*
X25689333Y-17441450D01*
X25689333Y-17441450D02*
X25737714Y-17417260D01*
D11*
G04 #@! TO.C,Y1*
X36112428Y-37376190D02*
X36588619Y-37376190D01*
X35588619Y-37709523D02*
X36112428Y-37376190D01*
X36112428Y-37376190D02*
X35588619Y-37042857D01*
X36588619Y-36185714D02*
X36588619Y-36757142D01*
X36588619Y-36471428D02*
X35588619Y-36471428D01*
X35588619Y-36471428D02*
X35731476Y-36566666D01*
X35731476Y-36566666D02*
X35826714Y-36661904D01*
X35826714Y-36661904D02*
X35874333Y-36757142D01*
D10*
G04 #@! TO.C,R19*
X29089428Y-19965260D02*
X28920094Y-19723355D01*
X28799142Y-19965260D02*
X28799142Y-19457260D01*
X28799142Y-19457260D02*
X28992666Y-19457260D01*
X28992666Y-19457260D02*
X29041047Y-19481450D01*
X29041047Y-19481450D02*
X29065237Y-19505641D01*
X29065237Y-19505641D02*
X29089428Y-19554022D01*
X29089428Y-19554022D02*
X29089428Y-19626593D01*
X29089428Y-19626593D02*
X29065237Y-19674974D01*
X29065237Y-19674974D02*
X29041047Y-19699165D01*
X29041047Y-19699165D02*
X28992666Y-19723355D01*
X28992666Y-19723355D02*
X28799142Y-19723355D01*
X29573237Y-19965260D02*
X29282951Y-19965260D01*
X29428094Y-19965260D02*
X29428094Y-19457260D01*
X29428094Y-19457260D02*
X29379713Y-19529831D01*
X29379713Y-19529831D02*
X29331332Y-19578212D01*
X29331332Y-19578212D02*
X29282951Y-19602403D01*
X29815142Y-19965260D02*
X29911904Y-19965260D01*
X29911904Y-19965260D02*
X29960285Y-19941070D01*
X29960285Y-19941070D02*
X29984476Y-19916879D01*
X29984476Y-19916879D02*
X30032857Y-19844308D01*
X30032857Y-19844308D02*
X30057047Y-19747546D01*
X30057047Y-19747546D02*
X30057047Y-19554022D01*
X30057047Y-19554022D02*
X30032857Y-19505641D01*
X30032857Y-19505641D02*
X30008666Y-19481450D01*
X30008666Y-19481450D02*
X29960285Y-19457260D01*
X29960285Y-19457260D02*
X29863523Y-19457260D01*
X29863523Y-19457260D02*
X29815142Y-19481450D01*
X29815142Y-19481450D02*
X29790952Y-19505641D01*
X29790952Y-19505641D02*
X29766761Y-19554022D01*
X29766761Y-19554022D02*
X29766761Y-19674974D01*
X29766761Y-19674974D02*
X29790952Y-19723355D01*
X29790952Y-19723355D02*
X29815142Y-19747546D01*
X29815142Y-19747546D02*
X29863523Y-19771736D01*
X29863523Y-19771736D02*
X29960285Y-19771736D01*
X29960285Y-19771736D02*
X30008666Y-19747546D01*
X30008666Y-19747546D02*
X30032857Y-19723355D01*
X30032857Y-19723355D02*
X30057047Y-19674974D01*
D11*
G04 #@! TO.C,Y2*
X46882428Y-43796190D02*
X47358619Y-43796190D01*
X46358619Y-44129523D02*
X46882428Y-43796190D01*
X46882428Y-43796190D02*
X46358619Y-43462857D01*
X46453857Y-43177142D02*
X46406238Y-43129523D01*
X46406238Y-43129523D02*
X46358619Y-43034285D01*
X46358619Y-43034285D02*
X46358619Y-42796190D01*
X46358619Y-42796190D02*
X46406238Y-42700952D01*
X46406238Y-42700952D02*
X46453857Y-42653333D01*
X46453857Y-42653333D02*
X46549095Y-42605714D01*
X46549095Y-42605714D02*
X46644333Y-42605714D01*
X46644333Y-42605714D02*
X46787190Y-42653333D01*
X46787190Y-42653333D02*
X47358619Y-43224761D01*
X47358619Y-43224761D02*
X47358619Y-42605714D01*
D10*
G04 #@! TO.C,R24*
X46671010Y-39466571D02*
X46429105Y-39635905D01*
X46671010Y-39756857D02*
X46163010Y-39756857D01*
X46163010Y-39756857D02*
X46163010Y-39563333D01*
X46163010Y-39563333D02*
X46187200Y-39514952D01*
X46187200Y-39514952D02*
X46211391Y-39490762D01*
X46211391Y-39490762D02*
X46259772Y-39466571D01*
X46259772Y-39466571D02*
X46332343Y-39466571D01*
X46332343Y-39466571D02*
X46380724Y-39490762D01*
X46380724Y-39490762D02*
X46404915Y-39514952D01*
X46404915Y-39514952D02*
X46429105Y-39563333D01*
X46429105Y-39563333D02*
X46429105Y-39756857D01*
X46211391Y-39273048D02*
X46187200Y-39248857D01*
X46187200Y-39248857D02*
X46163010Y-39200476D01*
X46163010Y-39200476D02*
X46163010Y-39079524D01*
X46163010Y-39079524D02*
X46187200Y-39031143D01*
X46187200Y-39031143D02*
X46211391Y-39006952D01*
X46211391Y-39006952D02*
X46259772Y-38982762D01*
X46259772Y-38982762D02*
X46308153Y-38982762D01*
X46308153Y-38982762D02*
X46380724Y-39006952D01*
X46380724Y-39006952D02*
X46671010Y-39297238D01*
X46671010Y-39297238D02*
X46671010Y-38982762D01*
X46332343Y-38547333D02*
X46671010Y-38547333D01*
X46138820Y-38668285D02*
X46501677Y-38789238D01*
X46501677Y-38789238D02*
X46501677Y-38474761D01*
D13*
G04 #@! TO.C,R7*
X26415276Y-36307500D02*
X26924724Y-36307500D01*
X26415276Y-37352500D02*
X26924724Y-37352500D01*
G04 #@! TO.C,U3*
X55040000Y-44275000D02*
X55040000Y-45950000D01*
X55040000Y-44275000D02*
X55040000Y-43625000D01*
X58160000Y-44275000D02*
X58160000Y-44925000D01*
X58160000Y-44275000D02*
X58160000Y-43625000D01*
G04 #@! TO.C,C45*
X51927665Y-46559000D02*
X52159335Y-46559000D01*
X51927665Y-47279000D02*
X52159335Y-47279000D01*
G04 #@! TO.C,C21*
X35724000Y-14694165D02*
X35724000Y-14925835D01*
X35004000Y-14694165D02*
X35004000Y-14925835D01*
G04 #@! TO.C,C40*
X34396000Y-18784165D02*
X34396000Y-19015835D01*
X33676000Y-18784165D02*
X33676000Y-19015835D01*
G04 #@! TO.C,C35*
X25792165Y-35200000D02*
X26023835Y-35200000D01*
X25792165Y-35920000D02*
X26023835Y-35920000D01*
G04 #@! TO.C,C43*
X23506165Y-29358000D02*
X23737835Y-29358000D01*
X23506165Y-30078000D02*
X23737835Y-30078000D01*
G04 #@! TO.C,C11*
X44762165Y-45490000D02*
X44993835Y-45490000D01*
X44762165Y-46210000D02*
X44993835Y-46210000D01*
D14*
G04 #@! TO.C,IC1*
X38650000Y-20500000D02*
X39250000Y-21100000D01*
X25250000Y-20500000D02*
X38650000Y-20500000D01*
X39250000Y-21100000D02*
X39250000Y-34500000D01*
X39250000Y-34500000D02*
X25250000Y-34500000D01*
X25250000Y-34500000D02*
X25250000Y-20500000D01*
X39350000Y-20500000D02*
G75*
G03*
X39350000Y-20500000I-100000J0D01*
G01*
D13*
G04 #@! TO.C,R21*
X43560000Y-29729879D02*
X43560000Y-30065121D01*
X42800000Y-29729879D02*
X42800000Y-30065121D01*
G04 #@! TO.C,R25*
X45027621Y-41150000D02*
X44692379Y-41150000D01*
X45027621Y-40390000D02*
X44692379Y-40390000D01*
G04 #@! TO.C,J1*
X32386000Y-12717500D02*
X32386000Y-10717500D01*
X32386000Y-8817500D02*
X32386000Y-6917500D01*
X32386000Y-6917500D02*
X22986000Y-6917500D01*
X22986000Y-12717500D02*
X22986000Y-10717500D01*
X22986000Y-8817500D02*
X22986000Y-6917500D01*
G04 #@! TO.C,D2*
X66327500Y-42679000D02*
X66327500Y-41209000D01*
X66327500Y-41209000D02*
X63867500Y-41209000D01*
X63867500Y-42679000D02*
X66327500Y-42679000D01*
G04 #@! TO.C,C18*
X38460000Y-18784165D02*
X38460000Y-19015835D01*
X37740000Y-18784165D02*
X37740000Y-19015835D01*
G04 #@! TO.C,C28*
X23506165Y-35462000D02*
X23737835Y-35462000D01*
X23506165Y-36182000D02*
X23737835Y-36182000D01*
G04 #@! TO.C,C26*
X57465835Y-28260000D02*
X57234165Y-28260000D01*
X57465835Y-27540000D02*
X57234165Y-27540000D01*
G04 #@! TO.C,J2*
X47015000Y-12870520D02*
X47015000Y-10879160D01*
X47015000Y-8003880D02*
X47015000Y-6876120D01*
X47015000Y-6860000D02*
X36351000Y-6882600D01*
X46129340Y-12870520D02*
X47015000Y-12870520D01*
X36351000Y-12877000D02*
X37236660Y-12877000D01*
X36351000Y-10885640D02*
X36351000Y-12877000D01*
X36351000Y-6882600D02*
X36351000Y-8010360D01*
X36097000Y-12750000D02*
G75*
G03*
X36097000Y-12750000I-381000J0D01*
G01*
G04 #@! TO.C,C30*
X23506165Y-36470000D02*
X23737835Y-36470000D01*
X23506165Y-37190000D02*
X23737835Y-37190000D01*
G04 #@! TO.C,C8*
X51444165Y-41540000D02*
X51675835Y-41540000D01*
X51444165Y-42260000D02*
X51675835Y-42260000D01*
G04 #@! TO.C,C25*
X69870000Y-34644165D02*
X69870000Y-34875835D01*
X69150000Y-34644165D02*
X69150000Y-34875835D01*
G04 #@! TO.C,R3*
X66677500Y-43194724D02*
X66677500Y-42685276D01*
X67722500Y-43194724D02*
X67722500Y-42685276D01*
G04 #@! TO.C,R20*
X43816000Y-27779121D02*
X43816000Y-27443879D01*
X44576000Y-27779121D02*
X44576000Y-27443879D01*
G04 #@! TO.C,R23*
X44576000Y-29729879D02*
X44576000Y-30065121D01*
X43816000Y-29729879D02*
X43816000Y-30065121D01*
G04 #@! TO.C,C15*
X56085000Y-12059165D02*
X56085000Y-12290835D01*
X55365000Y-12059165D02*
X55365000Y-12290835D01*
G04 #@! TO.C,C41*
X23506165Y-20214000D02*
X23737835Y-20214000D01*
X23506165Y-20934000D02*
X23737835Y-20934000D01*
G04 #@! TO.C,C24*
X39476000Y-18784165D02*
X39476000Y-19015835D01*
X38756000Y-18784165D02*
X38756000Y-19015835D01*
G04 #@! TO.C,C5*
X49117335Y-46210000D02*
X48885665Y-46210000D01*
X49117335Y-45490000D02*
X48885665Y-45490000D01*
G04 #@! TO.C,R14*
X53172500Y-8657776D02*
X53172500Y-9167224D01*
X52127500Y-8657776D02*
X52127500Y-9167224D01*
G04 #@! TO.C,R18*
X27252621Y-19250000D02*
X26917379Y-19250000D01*
X27252621Y-18490000D02*
X26917379Y-18490000D01*
G04 #@! TO.C,C12*
X39518000Y-36243335D02*
X39518000Y-36011665D01*
X40238000Y-36243335D02*
X40238000Y-36011665D01*
G04 #@! TO.C,R9*
X34558500Y-10413276D02*
X34558500Y-10922724D01*
X33513500Y-10413276D02*
X33513500Y-10922724D01*
G04 #@! TO.C,C7*
X56264165Y-41410000D02*
X56495835Y-41410000D01*
X56264165Y-42130000D02*
X56495835Y-42130000D01*
G04 #@! TO.C,C38*
X23506165Y-31390000D02*
X23737835Y-31390000D01*
X23506165Y-32110000D02*
X23737835Y-32110000D01*
G04 #@! TO.C,D3*
X66352500Y-46235000D02*
X66352500Y-44765000D01*
X66352500Y-44765000D02*
X63892500Y-44765000D01*
X63892500Y-46235000D02*
X66352500Y-46235000D01*
G04 #@! TO.C,C22*
X37436000Y-18784165D02*
X37436000Y-19015835D01*
X36716000Y-18784165D02*
X36716000Y-19015835D01*
G04 #@! TO.C,J3*
X68090000Y-12770520D02*
X68090000Y-10779160D01*
X68090000Y-7903880D02*
X68090000Y-6776120D01*
X68090000Y-6760000D02*
X57426000Y-6782600D01*
X67204340Y-12770520D02*
X68090000Y-12770520D01*
X57426000Y-12777000D02*
X58311660Y-12777000D01*
X57426000Y-10785640D02*
X57426000Y-12777000D01*
X57426000Y-6782600D02*
X57426000Y-7910360D01*
X57172000Y-12650000D02*
G75*
G03*
X57172000Y-12650000I-381000J0D01*
G01*
G04 #@! TO.C,U2*
X50417500Y-44379000D02*
X50417500Y-46054000D01*
X50417500Y-44379000D02*
X50417500Y-43729000D01*
X53537500Y-44379000D02*
X53537500Y-45029000D01*
X53537500Y-44379000D02*
X53537500Y-43729000D01*
G04 #@! TO.C,C39*
X35412000Y-18784165D02*
X35412000Y-19015835D01*
X34692000Y-18784165D02*
X34692000Y-19015835D01*
G04 #@! TO.C,R8*
X33513500Y-14478724D02*
X33513500Y-13969276D01*
X34558500Y-14478724D02*
X34558500Y-13969276D01*
G04 #@! TO.C,R13*
X68384724Y-46012500D02*
X67875276Y-46012500D01*
X68384724Y-44967500D02*
X67875276Y-44967500D01*
G04 #@! TO.C,C3*
X69840000Y-27164165D02*
X69840000Y-27395835D01*
X69120000Y-27164165D02*
X69120000Y-27395835D01*
G04 #@! TO.C,R11*
X29137379Y-17380000D02*
X29472621Y-17380000D01*
X29137379Y-18140000D02*
X29472621Y-18140000D01*
G04 #@! TO.C,C32*
X51360000Y-12084165D02*
X51360000Y-12315835D01*
X50640000Y-12084165D02*
X50640000Y-12315835D01*
G04 #@! TO.C,U4*
X46017675Y-25893450D02*
X46332635Y-25893450D01*
X68308715Y-25893450D02*
X68623675Y-25893450D01*
X68623675Y-25893450D02*
X68623675Y-15352450D01*
X46017675Y-15352450D02*
X46017675Y-25893450D01*
X46332635Y-15352450D02*
X46017675Y-15352450D01*
X68623675Y-15352450D02*
X68308715Y-15352450D01*
D15*
X54310775Y-27468250D02*
X53929775Y-27468250D01*
X53929775Y-27214250D01*
X54310775Y-27214250D01*
X54310775Y-27468250D01*
G36*
X54310775Y-27468250D02*
G01*
X53929775Y-27468250D01*
X53929775Y-27214250D01*
X54310775Y-27214250D01*
X54310775Y-27468250D01*
G37*
X62311775Y-27468250D02*
X61930775Y-27468250D01*
X61930775Y-27214250D01*
X62311775Y-27214250D01*
X62311775Y-27468250D01*
G36*
X62311775Y-27468250D02*
G01*
X61930775Y-27468250D01*
X61930775Y-27214250D01*
X62311775Y-27214250D01*
X62311775Y-27468250D01*
G37*
X50310275Y-14031650D02*
X49929275Y-14031650D01*
X49929275Y-13777650D01*
X50310275Y-13777650D01*
X50310275Y-14031650D01*
G36*
X50310275Y-14031650D02*
G01*
X49929275Y-14031650D01*
X49929275Y-13777650D01*
X50310275Y-13777650D01*
X50310275Y-14031650D01*
G37*
X58311275Y-14031650D02*
X57930275Y-14031650D01*
X57930275Y-13777650D01*
X58311275Y-13777650D01*
X58311275Y-14031650D01*
G36*
X58311275Y-14031650D02*
G01*
X57930275Y-14031650D01*
X57930275Y-13777650D01*
X58311275Y-13777650D01*
X58311275Y-14031650D01*
G37*
X66312275Y-14031650D02*
X65931275Y-14031650D01*
X65931275Y-13777650D01*
X66312275Y-13777650D01*
X66312275Y-14031650D01*
G36*
X66312275Y-14031650D02*
G01*
X65931275Y-14031650D01*
X65931275Y-13777650D01*
X66312275Y-13777650D01*
X66312275Y-14031650D01*
G37*
D13*
G04 #@! TO.C,C37*
X23506165Y-30374000D02*
X23737835Y-30374000D01*
X23506165Y-31094000D02*
X23737835Y-31094000D01*
G04 #@! TO.C,C29*
X23506165Y-27834000D02*
X23737835Y-27834000D01*
X23506165Y-28554000D02*
X23737835Y-28554000D01*
G04 #@! TO.C,U5*
X66868326Y-28666100D02*
X48930321Y-28666100D01*
X48930324Y-40908900D02*
X66868329Y-40908900D01*
D15*
X68884825Y-36228000D02*
X68630825Y-36228000D01*
X68630825Y-35847000D01*
X68884825Y-35847000D01*
X68884825Y-36228000D01*
G36*
X68884825Y-36228000D02*
G01*
X68630825Y-36228000D01*
X68630825Y-35847000D01*
X68884825Y-35847000D01*
X68884825Y-36228000D01*
G37*
X68884825Y-31228000D02*
X68630825Y-31228000D01*
X68630825Y-30847000D01*
X68884825Y-30847000D01*
X68884825Y-31228000D01*
G36*
X68884825Y-31228000D02*
G01*
X68630825Y-31228000D01*
X68630825Y-30847000D01*
X68884825Y-30847000D01*
X68884825Y-31228000D01*
G37*
X47167825Y-36728002D02*
X46913825Y-36728002D01*
X46913825Y-36347002D01*
X47167825Y-36347002D01*
X47167825Y-36728002D01*
G36*
X47167825Y-36728002D02*
G01*
X46913825Y-36728002D01*
X46913825Y-36347002D01*
X47167825Y-36347002D01*
X47167825Y-36728002D01*
G37*
X47167825Y-31727999D02*
X46913825Y-31727999D01*
X46913825Y-31346999D01*
X47167825Y-31346999D01*
X47167825Y-31727999D01*
G36*
X47167825Y-31727999D02*
G01*
X46913825Y-31727999D01*
X46913825Y-31346999D01*
X47167825Y-31346999D01*
X47167825Y-31727999D01*
G37*
D13*
G04 #@! TO.C,U1*
X33350000Y-42630000D02*
X33350000Y-46080000D01*
X33350000Y-42630000D02*
X33350000Y-40680000D01*
X43470000Y-42630000D02*
X43470000Y-44580000D01*
X43470000Y-42630000D02*
X43470000Y-40680000D01*
G04 #@! TO.C,C42*
X23506165Y-33422000D02*
X23737835Y-33422000D01*
X23506165Y-34142000D02*
X23737835Y-34142000D01*
G04 #@! TO.C,C10*
X53405835Y-28270000D02*
X53174165Y-28270000D01*
X53405835Y-27550000D02*
X53174165Y-27550000D01*
G04 #@! TO.C,C46*
X33380000Y-18784165D02*
X33380000Y-19015835D01*
X32660000Y-18784165D02*
X32660000Y-19015835D01*
G04 #@! TO.C,R15*
X54702500Y-8665276D02*
X54702500Y-9174724D01*
X53657500Y-8665276D02*
X53657500Y-9174724D01*
G04 #@! TO.C,C31*
X23506165Y-26818000D02*
X23737835Y-26818000D01*
X23506165Y-27538000D02*
X23737835Y-27538000D01*
G04 #@! TO.C,C19*
X36740000Y-14694165D02*
X36740000Y-14925835D01*
X36020000Y-14694165D02*
X36020000Y-14925835D01*
G04 #@! TO.C,C2*
X28078165Y-35200000D02*
X28309835Y-35200000D01*
X28078165Y-35920000D02*
X28309835Y-35920000D01*
G04 #@! TO.C,C13*
X46280000Y-34674165D02*
X46280000Y-34905835D01*
X45560000Y-34674165D02*
X45560000Y-34905835D01*
G04 #@! TO.C,R22*
X42800000Y-27779121D02*
X42800000Y-27443879D01*
X43560000Y-27779121D02*
X43560000Y-27443879D01*
G04 #@! TO.C,R2*
X43416500Y-36907776D02*
X43416500Y-37417224D01*
X42371500Y-36907776D02*
X42371500Y-37417224D01*
G04 #@! TO.C,C9*
X23506165Y-32406000D02*
X23737835Y-32406000D01*
X23506165Y-33126000D02*
X23737835Y-33126000D01*
G04 #@! TO.C,C33*
X23506165Y-22246000D02*
X23737835Y-22246000D01*
X23506165Y-22966000D02*
X23737835Y-22966000D01*
G04 #@! TO.C,D1*
X66352500Y-44457000D02*
X66352500Y-42987000D01*
X66352500Y-42987000D02*
X63892500Y-42987000D01*
X63892500Y-44457000D02*
X66352500Y-44457000D01*
G04 #@! TO.C,C14*
X56484165Y-46455000D02*
X56715835Y-46455000D01*
X56484165Y-47175000D02*
X56715835Y-47175000D01*
G04 #@! TO.C,R10*
X27267621Y-18130000D02*
X26932379Y-18130000D01*
X27267621Y-17370000D02*
X26932379Y-17370000D01*
G04 #@! TO.C,C47*
X32364000Y-18784165D02*
X32364000Y-19015835D01*
X31644000Y-18784165D02*
X31644000Y-19015835D01*
G04 #@! TO.C,C23*
X36428000Y-18784165D02*
X36428000Y-19015835D01*
X35708000Y-18784165D02*
X35708000Y-19015835D01*
G04 #@! TO.C,C1*
X30364165Y-35200000D02*
X30595835Y-35200000D01*
X30364165Y-35920000D02*
X30595835Y-35920000D01*
G04 #@! TO.C,Y1*
X33018000Y-35100000D02*
X33018000Y-38700000D01*
X33018000Y-38700000D02*
X38768000Y-38700000D01*
X38768000Y-35100000D02*
X33018000Y-35100000D01*
G04 #@! TO.C,C27*
X67544165Y-27590000D02*
X67775835Y-27590000D01*
X67544165Y-28310000D02*
X67775835Y-28310000D01*
G04 #@! TO.C,R19*
X29122379Y-18500000D02*
X29457621Y-18500000D01*
X29122379Y-19260000D02*
X29457621Y-19260000D01*
G04 #@! TO.C,R1*
X40847500Y-37417224D02*
X40847500Y-36907776D01*
X41892500Y-37417224D02*
X41892500Y-36907776D01*
G04 #@! TO.C,Y2*
X49960000Y-45110000D02*
X49960000Y-41510000D01*
X49960000Y-41510000D02*
X44210000Y-41510000D01*
X44210000Y-45110000D02*
X49960000Y-45110000D01*
G04 #@! TO.C,C6*
X31898000Y-36243335D02*
X31898000Y-36011665D01*
X32618000Y-36243335D02*
X32618000Y-36011665D01*
G04 #@! TO.C,J4*
X22986000Y-42120250D02*
X22986000Y-44120250D01*
X22986000Y-46020250D02*
X22986000Y-47920250D01*
X22986000Y-47920250D02*
X32386000Y-47920250D01*
X32386000Y-42120250D02*
X32386000Y-44120250D01*
X32386000Y-46020250D02*
X32386000Y-47920250D01*
G04 #@! TO.C,R5*
X60962776Y-41471500D02*
X61472224Y-41471500D01*
X60962776Y-42516500D02*
X61472224Y-42516500D01*
G04 #@! TO.C,C16*
X37004165Y-46550000D02*
X37235835Y-46550000D01*
X37004165Y-47270000D02*
X37235835Y-47270000D01*
G04 #@! TO.C,C34*
X23506165Y-23262000D02*
X23737835Y-23262000D01*
X23506165Y-23982000D02*
X23737835Y-23982000D01*
G04 #@! TO.C,R17*
X50072500Y-8645276D02*
X50072500Y-9154724D01*
X49027500Y-8645276D02*
X49027500Y-9154724D01*
G04 #@! TO.C,R6*
X60962776Y-44971500D02*
X61472224Y-44971500D01*
X60962776Y-46016500D02*
X61472224Y-46016500D01*
G04 #@! TO.C,C20*
X23506165Y-25802000D02*
X23737835Y-25802000D01*
X23506165Y-26522000D02*
X23737835Y-26522000D01*
G04 #@! TO.C,C36*
X23506165Y-34438000D02*
X23737835Y-34438000D01*
X23506165Y-35158000D02*
X23737835Y-35158000D01*
G04 #@! TO.C,R24*
X45027621Y-39810000D02*
X44692379Y-39810000D01*
X45027621Y-39050000D02*
X44692379Y-39050000D01*
G04 #@! TO.C,C4*
X23506165Y-24786000D02*
X23737835Y-24786000D01*
X23506165Y-25506000D02*
X23737835Y-25506000D01*
G04 #@! TO.C,C44*
X23506165Y-21230000D02*
X23737835Y-21230000D01*
X23506165Y-21950000D02*
X23737835Y-21950000D01*
G04 #@! TO.C,R4*
X60969776Y-43199500D02*
X61479224Y-43199500D01*
X60969776Y-44244500D02*
X61479224Y-44244500D01*
G04 #@! TO.C,R16*
X51642500Y-8645276D02*
X51642500Y-9154724D01*
X50597500Y-8645276D02*
X50597500Y-9154724D01*
G04 #@! TO.C,R12*
X30226724Y-37352500D02*
X29717276Y-37352500D01*
X30226724Y-36307500D02*
X29717276Y-36307500D01*
G04 #@! TD*
%LPC*%
D16*
G04 #@! TO.C,R7*
X25757500Y-36830000D03*
X27582500Y-36830000D03*
G04 #@! TD*
D17*
G04 #@! TO.C,U3*
X55650000Y-45212500D03*
X57550000Y-45212500D03*
X56600000Y-43337500D03*
G04 #@! TD*
D18*
G04 #@! TO.C,C45*
X51476000Y-46919000D03*
X52611000Y-46919000D03*
G04 #@! TD*
D19*
G04 #@! TO.C,C21*
X35364000Y-14242500D03*
X35364000Y-15377500D03*
G04 #@! TD*
G04 #@! TO.C,C40*
X34036000Y-18332500D03*
X34036000Y-19467500D03*
G04 #@! TD*
D18*
G04 #@! TO.C,C35*
X25340500Y-35560000D03*
X26475500Y-35560000D03*
G04 #@! TD*
G04 #@! TO.C,C43*
X23054500Y-29718000D03*
X24189500Y-29718000D03*
G04 #@! TD*
G04 #@! TO.C,C11*
X44310500Y-45850000D03*
X45445500Y-45850000D03*
G04 #@! TD*
D20*
G04 #@! TO.C,IC1*
X38650000Y-21100000D03*
X38650000Y-21900000D03*
X38650000Y-22700000D03*
X38650000Y-23500000D03*
X38650000Y-24300000D03*
X38650000Y-25100000D03*
X38650000Y-25900000D03*
X38650000Y-26700000D03*
X38650000Y-27500000D03*
X38650000Y-28300000D03*
X38650000Y-29100000D03*
X38650000Y-29900000D03*
X38650000Y-30700000D03*
X38650000Y-31500000D03*
X38650000Y-32300000D03*
X38650000Y-33100000D03*
X38650000Y-33900000D03*
X37850000Y-21100000D03*
X37850000Y-21900000D03*
X37850000Y-22700000D03*
X37850000Y-23500000D03*
X37850000Y-24300000D03*
X37850000Y-25100000D03*
X37850000Y-25900000D03*
X37850000Y-26700000D03*
X37850000Y-27500000D03*
X37850000Y-28300000D03*
X37850000Y-29100000D03*
X37850000Y-29900000D03*
X37850000Y-30700000D03*
X37850000Y-31500000D03*
X37850000Y-32300000D03*
X37850000Y-33100000D03*
X37850000Y-33900000D03*
X37050000Y-21100000D03*
X37050000Y-21900000D03*
X37050000Y-22700000D03*
X37050000Y-23500000D03*
X37050000Y-24300000D03*
X37050000Y-25100000D03*
X37050000Y-25900000D03*
X37050000Y-26700000D03*
X37050000Y-27500000D03*
X37050000Y-28300000D03*
X37050000Y-29100000D03*
X37050000Y-29900000D03*
X37050000Y-30700000D03*
X37050000Y-31500000D03*
X37050000Y-32300000D03*
X37050000Y-33100000D03*
X37050000Y-33900000D03*
X36250000Y-21100000D03*
X36250000Y-21900000D03*
X36250000Y-22700000D03*
X36250000Y-23500000D03*
X36250000Y-24300000D03*
X36250000Y-25100000D03*
X36250000Y-25900000D03*
X36250000Y-26700000D03*
X36250000Y-27500000D03*
X36250000Y-28300000D03*
X36250000Y-29100000D03*
X36250000Y-29900000D03*
X36250000Y-30700000D03*
X36250000Y-31500000D03*
X36250000Y-32300000D03*
X36250000Y-33100000D03*
X36250000Y-33900000D03*
X35450000Y-21100000D03*
X35450000Y-21900000D03*
X35450000Y-22700000D03*
X35450000Y-23500000D03*
X35450000Y-24300000D03*
X35450000Y-25100000D03*
X35450000Y-25900000D03*
X35450000Y-26700000D03*
X35450000Y-27500000D03*
X35450000Y-28300000D03*
X35450000Y-29100000D03*
X35450000Y-29900000D03*
X35450000Y-30700000D03*
X35450000Y-31500000D03*
X35450000Y-32300000D03*
X35450000Y-33100000D03*
X35450000Y-33900000D03*
X34650000Y-21100000D03*
X34650000Y-21900000D03*
X34650000Y-22700000D03*
X34650000Y-23500000D03*
X34650000Y-24300000D03*
X34650000Y-25100000D03*
X34650000Y-25900000D03*
X34650000Y-26700000D03*
X34650000Y-27500000D03*
X34650000Y-28300000D03*
X34650000Y-29100000D03*
X34650000Y-29900000D03*
X34650000Y-30700000D03*
X34650000Y-31500000D03*
X34650000Y-32300000D03*
X34650000Y-33100000D03*
X34650000Y-33900000D03*
X33850000Y-21100000D03*
X33850000Y-21900000D03*
X33850000Y-22700000D03*
X33850000Y-23500000D03*
X33850000Y-24300000D03*
X33850000Y-25100000D03*
X33850000Y-25900000D03*
X33850000Y-27500000D03*
X33850000Y-29100000D03*
X33850000Y-29900000D03*
X33850000Y-30700000D03*
X33850000Y-31500000D03*
X33850000Y-32300000D03*
X33850000Y-33100000D03*
X33850000Y-33900000D03*
X33050000Y-21100000D03*
X33050000Y-21900000D03*
X33050000Y-22700000D03*
X33050000Y-23500000D03*
X33050000Y-24300000D03*
X33050000Y-25100000D03*
X33050000Y-29900000D03*
X33050000Y-30700000D03*
X33050000Y-31500000D03*
X33050000Y-32300000D03*
X33050000Y-33100000D03*
X33050000Y-33900000D03*
X32250000Y-21100000D03*
X32250000Y-21900000D03*
X32250000Y-22700000D03*
X32250000Y-23500000D03*
X32250000Y-24300000D03*
X32250000Y-25100000D03*
X32250000Y-25900000D03*
X32250000Y-29100000D03*
X32250000Y-29900000D03*
X32250000Y-30700000D03*
X32250000Y-31500000D03*
X32250000Y-32300000D03*
X32250000Y-33100000D03*
X32250000Y-33900000D03*
X31450000Y-21100000D03*
X31450000Y-21900000D03*
X31450000Y-22700000D03*
X31450000Y-23500000D03*
X31450000Y-24300000D03*
X31450000Y-25100000D03*
X31450000Y-29900000D03*
X31450000Y-30700000D03*
X31450000Y-31500000D03*
X31450000Y-32300000D03*
X31450000Y-33100000D03*
X31450000Y-33900000D03*
X30650000Y-21100000D03*
X30650000Y-21900000D03*
X30650000Y-22700000D03*
X30650000Y-23500000D03*
X30650000Y-24300000D03*
X30650000Y-25100000D03*
X30650000Y-25900000D03*
X30650000Y-27500000D03*
X30650000Y-29100000D03*
X30650000Y-29900000D03*
X30650000Y-30700000D03*
X30650000Y-31500000D03*
X30650000Y-32300000D03*
X30650000Y-33100000D03*
X30650000Y-33900000D03*
X29850000Y-21100000D03*
X29850000Y-21900000D03*
X29850000Y-22700000D03*
X29850000Y-23500000D03*
X29850000Y-24300000D03*
X29850000Y-25100000D03*
X29850000Y-25900000D03*
X29850000Y-26700000D03*
X29850000Y-27500000D03*
X29850000Y-28300000D03*
X29850000Y-29100000D03*
X29850000Y-29900000D03*
X29850000Y-30700000D03*
X29850000Y-31500000D03*
X29850000Y-32300000D03*
X29850000Y-33100000D03*
X29850000Y-33900000D03*
X29050000Y-21100000D03*
X29050000Y-21900000D03*
X29050000Y-22700000D03*
X29050000Y-23500000D03*
X29050000Y-24300000D03*
X29050000Y-25100000D03*
X29050000Y-25900000D03*
X29050000Y-26700000D03*
X29050000Y-27500000D03*
X29050000Y-28300000D03*
X29050000Y-29100000D03*
X29050000Y-29900000D03*
X29050000Y-30700000D03*
X29050000Y-31500000D03*
X29050000Y-32300000D03*
X29050000Y-33100000D03*
X29050000Y-33900000D03*
X28250000Y-21100000D03*
X28250000Y-21900000D03*
X28250000Y-22700000D03*
X28250000Y-23500000D03*
X28250000Y-24300000D03*
X28250000Y-25100000D03*
X28250000Y-25900000D03*
X28250000Y-26700000D03*
X28250000Y-27500000D03*
X28250000Y-28300000D03*
X28250000Y-29100000D03*
X28250000Y-29900000D03*
X28250000Y-30700000D03*
X28250000Y-31500000D03*
X28250000Y-32300000D03*
X28250000Y-33100000D03*
X28250000Y-33900000D03*
X27450000Y-21100000D03*
X27450000Y-21900000D03*
X27450000Y-22700000D03*
X27450000Y-23500000D03*
X27450000Y-24300000D03*
X27450000Y-25100000D03*
X27450000Y-25900000D03*
X27450000Y-26700000D03*
X27450000Y-27500000D03*
X27450000Y-28300000D03*
X27450000Y-29100000D03*
X27450000Y-29900000D03*
X27450000Y-30700000D03*
X27450000Y-31500000D03*
X27450000Y-32300000D03*
X27450000Y-33100000D03*
X27450000Y-33900000D03*
X26650000Y-21100000D03*
X26650000Y-21900000D03*
X26650000Y-22700000D03*
X26650000Y-23500000D03*
X26650000Y-24300000D03*
X26650000Y-25100000D03*
X26650000Y-25900000D03*
X26650000Y-26700000D03*
X26650000Y-27500000D03*
X26650000Y-28300000D03*
X26650000Y-29100000D03*
X26650000Y-29900000D03*
X26650000Y-30700000D03*
X26650000Y-31500000D03*
X26650000Y-32300000D03*
X26650000Y-33100000D03*
X26650000Y-33900000D03*
X25850000Y-21100000D03*
X25850000Y-21900000D03*
X25850000Y-22700000D03*
X25850000Y-23500000D03*
X25850000Y-24300000D03*
X25850000Y-25100000D03*
X25850000Y-25900000D03*
X25850000Y-26700000D03*
X25850000Y-27500000D03*
X25850000Y-28300000D03*
X25850000Y-29100000D03*
X25850000Y-29900000D03*
X25850000Y-30700000D03*
X25850000Y-31500000D03*
X25850000Y-32300000D03*
X25850000Y-33100000D03*
X25850000Y-33900000D03*
G04 #@! TD*
D21*
G04 #@! TO.C,R21*
X43180000Y-29300000D03*
X43180000Y-30495000D03*
G04 #@! TD*
D22*
G04 #@! TO.C,R25*
X45457500Y-40770000D03*
X44262500Y-40770000D03*
G04 #@! TD*
D23*
G04 #@! TO.C,J1*
X30576000Y-13417500D03*
X24796000Y-13417500D03*
D24*
X30936000Y-15217500D03*
X30136000Y-15217500D03*
D25*
X28936000Y-15217500D03*
X27936000Y-15217500D03*
X27436000Y-15217500D03*
X26436000Y-15217500D03*
D24*
X25236000Y-15217500D03*
X24436000Y-15217500D03*
X24436000Y-15217500D03*
D26*
X25236000Y-15217500D03*
D25*
X25936000Y-15217500D03*
X26936000Y-15217500D03*
X28436000Y-15217500D03*
X29436000Y-15217500D03*
D26*
X30136000Y-15217500D03*
X30936000Y-15317500D03*
D27*
X32006000Y-13947500D03*
D28*
X32006000Y-9767500D03*
D27*
X23366000Y-13947500D03*
D28*
X23366000Y-9767500D03*
G04 #@! TD*
D29*
G04 #@! TO.C,D2*
X65542500Y-41944000D03*
X63792500Y-41944000D03*
G04 #@! TD*
D19*
G04 #@! TO.C,C18*
X38100000Y-18332500D03*
X38100000Y-19467500D03*
G04 #@! TD*
D18*
G04 #@! TO.C,C28*
X23054500Y-35822000D03*
X24189500Y-35822000D03*
G04 #@! TD*
D30*
G04 #@! TO.C,C26*
X57917500Y-27900000D03*
X56782500Y-27900000D03*
G04 #@! TD*
D31*
G04 #@! TO.C,J2*
X37925000Y-12750000D03*
X39175000Y-12750000D03*
X40425000Y-12750000D03*
X41675000Y-12750000D03*
X42925000Y-12750000D03*
X44175000Y-12750000D03*
X45425000Y-12750000D03*
D32*
X47672100Y-9448000D03*
X35677900Y-9448000D03*
G04 #@! TD*
D18*
G04 #@! TO.C,C30*
X23054500Y-36830000D03*
X24189500Y-36830000D03*
G04 #@! TD*
G04 #@! TO.C,C8*
X50992500Y-41900000D03*
X52127500Y-41900000D03*
G04 #@! TD*
D19*
G04 #@! TO.C,C25*
X69510000Y-34192500D03*
X69510000Y-35327500D03*
G04 #@! TD*
D33*
G04 #@! TO.C,R3*
X67200000Y-43852500D03*
X67200000Y-42027500D03*
G04 #@! TD*
D34*
G04 #@! TO.C,R20*
X44196000Y-28209000D03*
X44196000Y-27014000D03*
G04 #@! TD*
D21*
G04 #@! TO.C,R23*
X44196000Y-29300000D03*
X44196000Y-30495000D03*
G04 #@! TD*
D19*
G04 #@! TO.C,C15*
X55725000Y-11607500D03*
X55725000Y-12742500D03*
G04 #@! TD*
D18*
G04 #@! TO.C,C41*
X23054500Y-20574000D03*
X24189500Y-20574000D03*
G04 #@! TD*
D19*
G04 #@! TO.C,C24*
X39116000Y-18332500D03*
X39116000Y-19467500D03*
G04 #@! TD*
D30*
G04 #@! TO.C,C5*
X49569000Y-45850000D03*
X48434000Y-45850000D03*
G04 #@! TD*
D35*
G04 #@! TO.C,R14*
X52650000Y-8000000D03*
X52650000Y-9825000D03*
G04 #@! TD*
D22*
G04 #@! TO.C,R18*
X27682500Y-18870000D03*
X26487500Y-18870000D03*
G04 #@! TD*
D36*
G04 #@! TO.C,C12*
X39878000Y-36695000D03*
X39878000Y-35560000D03*
G04 #@! TD*
D35*
G04 #@! TO.C,R9*
X34036000Y-9755500D03*
X34036000Y-11580500D03*
G04 #@! TD*
D18*
G04 #@! TO.C,C7*
X55812500Y-41770000D03*
X56947500Y-41770000D03*
G04 #@! TD*
G04 #@! TO.C,C38*
X23054500Y-31750000D03*
X24189500Y-31750000D03*
G04 #@! TD*
D29*
G04 #@! TO.C,D3*
X65567500Y-45500000D03*
X63817500Y-45500000D03*
G04 #@! TD*
D19*
G04 #@! TO.C,C22*
X37076000Y-18332500D03*
X37076000Y-19467500D03*
G04 #@! TD*
D31*
G04 #@! TO.C,J3*
X59000000Y-12650000D03*
X60250000Y-12650000D03*
X61500000Y-12650000D03*
X62750000Y-12650000D03*
X64000000Y-12650000D03*
X65250000Y-12650000D03*
X66500000Y-12650000D03*
D32*
X68747100Y-9348000D03*
X56752900Y-9348000D03*
G04 #@! TD*
D17*
G04 #@! TO.C,U2*
X51027500Y-45316500D03*
X52927500Y-45316500D03*
X51977500Y-43441500D03*
G04 #@! TD*
D19*
G04 #@! TO.C,C39*
X35052000Y-18332500D03*
X35052000Y-19467500D03*
G04 #@! TD*
D33*
G04 #@! TO.C,R8*
X34036000Y-15136500D03*
X34036000Y-13311500D03*
G04 #@! TD*
D37*
G04 #@! TO.C,R13*
X69042500Y-45490000D03*
X67217500Y-45490000D03*
G04 #@! TD*
D19*
G04 #@! TO.C,C3*
X69480000Y-26712500D03*
X69480000Y-27847500D03*
G04 #@! TD*
D38*
G04 #@! TO.C,R11*
X28707500Y-17760000D03*
X29902500Y-17760000D03*
G04 #@! TD*
D19*
G04 #@! TO.C,C32*
X51000000Y-11632500D03*
X51000000Y-12767500D03*
G04 #@! TD*
D39*
G04 #@! TO.C,U4*
X46919375Y-26363350D03*
X47719475Y-26363350D03*
X48519575Y-26363350D03*
X49319675Y-26363350D03*
X50119775Y-26363350D03*
X50919875Y-26363350D03*
X51719975Y-26363350D03*
X52520075Y-26363350D03*
X53320175Y-26363350D03*
X54120275Y-26363350D03*
X54920375Y-26363350D03*
X55720475Y-26363350D03*
X56520575Y-26363350D03*
X57320675Y-26363350D03*
X58120775Y-26363350D03*
X58920875Y-26363350D03*
X59720975Y-26363350D03*
X60521075Y-26363350D03*
X61321175Y-26363350D03*
X62121275Y-26363350D03*
X62921375Y-26363350D03*
X63721475Y-26363350D03*
X64521575Y-26363350D03*
X65321675Y-26363350D03*
X66121775Y-26363350D03*
X66921875Y-26363350D03*
X67721975Y-26363350D03*
X67721975Y-14882550D03*
X66921875Y-14882550D03*
X66121775Y-14882550D03*
X65321675Y-14882550D03*
X64521575Y-14882550D03*
X63721475Y-14882550D03*
X62921375Y-14882550D03*
X62121275Y-14882550D03*
X61321175Y-14882550D03*
X60521075Y-14882550D03*
X59720975Y-14882550D03*
X58920875Y-14882550D03*
X58120775Y-14882550D03*
X57320675Y-14882550D03*
X56520575Y-14882550D03*
X55720475Y-14882550D03*
X54920375Y-14882550D03*
X54120275Y-14882550D03*
X53320175Y-14882550D03*
X52520075Y-14882550D03*
X51719975Y-14882550D03*
X50919875Y-14882550D03*
X50119775Y-14882550D03*
X49319675Y-14882550D03*
X48519575Y-14882550D03*
X47719475Y-14882550D03*
X46919375Y-14882550D03*
G04 #@! TD*
D18*
G04 #@! TO.C,C37*
X23054500Y-30734000D03*
X24189500Y-30734000D03*
G04 #@! TD*
G04 #@! TO.C,C29*
X23054500Y-28194000D03*
X24189500Y-28194000D03*
G04 #@! TD*
D40*
G04 #@! TO.C,U5*
X67735475Y-40537499D03*
X67735475Y-40037500D03*
X67735475Y-39537501D03*
X67735475Y-39037499D03*
X67735475Y-38537500D03*
X67735475Y-38037501D03*
X67735475Y-37537500D03*
X67735475Y-37037501D03*
X67735475Y-36537499D03*
X67735475Y-36037500D03*
X67735475Y-35537501D03*
X67735475Y-35037500D03*
X67735475Y-34537500D03*
X67735475Y-34037499D03*
X67735475Y-33537500D03*
X67735475Y-33037501D03*
X67735475Y-32537499D03*
X67735475Y-32037500D03*
X67735475Y-31537499D03*
X67735475Y-31037500D03*
X67735475Y-30537501D03*
X67735475Y-30037499D03*
X67735475Y-29537500D03*
X67735475Y-29037499D03*
X48063175Y-29037501D03*
X48063175Y-29537500D03*
X48063175Y-30037499D03*
X48063175Y-30537501D03*
X48063175Y-31037500D03*
X48063175Y-31537501D03*
X48063175Y-32037500D03*
X48063175Y-32537499D03*
X48063175Y-33037501D03*
X48063175Y-33537500D03*
X48063175Y-34037502D03*
X48063175Y-34537500D03*
X48063175Y-35037500D03*
X48063175Y-35537501D03*
X48063175Y-36037500D03*
X48063175Y-36537499D03*
X48063175Y-37037501D03*
X48063175Y-37537500D03*
X48063175Y-38037501D03*
X48063175Y-38537500D03*
X48063175Y-39037499D03*
X48063175Y-39537501D03*
X48063175Y-40037500D03*
X48063175Y-40537501D03*
G04 #@! TD*
D41*
G04 #@! TO.C,U1*
X33965000Y-45105000D03*
X35235000Y-45105000D03*
X36505000Y-45105000D03*
X37775000Y-45105000D03*
X39045000Y-45105000D03*
X40315000Y-45105000D03*
X41585000Y-45105000D03*
X42855000Y-45105000D03*
X42855000Y-40155000D03*
X41585000Y-40155000D03*
X40315000Y-40155000D03*
X39045000Y-40155000D03*
X37775000Y-40155000D03*
X36505000Y-40155000D03*
X35235000Y-40155000D03*
X33965000Y-40155000D03*
G04 #@! TD*
D18*
G04 #@! TO.C,C42*
X23054500Y-33782000D03*
X24189500Y-33782000D03*
G04 #@! TD*
D30*
G04 #@! TO.C,C10*
X53857500Y-27910000D03*
X52722500Y-27910000D03*
G04 #@! TD*
D19*
G04 #@! TO.C,C46*
X33020000Y-18332500D03*
X33020000Y-19467500D03*
G04 #@! TD*
D35*
G04 #@! TO.C,R15*
X54180000Y-8007500D03*
X54180000Y-9832500D03*
G04 #@! TD*
D18*
G04 #@! TO.C,C31*
X23054500Y-27178000D03*
X24189500Y-27178000D03*
G04 #@! TD*
D19*
G04 #@! TO.C,C19*
X36380000Y-14242500D03*
X36380000Y-15377500D03*
G04 #@! TD*
D18*
G04 #@! TO.C,C2*
X27626500Y-35560000D03*
X28761500Y-35560000D03*
G04 #@! TD*
D19*
G04 #@! TO.C,C13*
X45920000Y-34222500D03*
X45920000Y-35357500D03*
G04 #@! TD*
D34*
G04 #@! TO.C,R22*
X43180000Y-28209000D03*
X43180000Y-27014000D03*
G04 #@! TD*
D35*
G04 #@! TO.C,R2*
X42894000Y-36250000D03*
X42894000Y-38075000D03*
G04 #@! TD*
D18*
G04 #@! TO.C,C9*
X23054500Y-32766000D03*
X24189500Y-32766000D03*
G04 #@! TD*
G04 #@! TO.C,C33*
X23054500Y-22606000D03*
X24189500Y-22606000D03*
G04 #@! TD*
D29*
G04 #@! TO.C,D1*
X65567500Y-43722000D03*
X63817500Y-43722000D03*
G04 #@! TD*
D18*
G04 #@! TO.C,C14*
X56032500Y-46815000D03*
X57167500Y-46815000D03*
G04 #@! TD*
D22*
G04 #@! TO.C,R10*
X27697500Y-17750000D03*
X26502500Y-17750000D03*
G04 #@! TD*
D19*
G04 #@! TO.C,C47*
X32004000Y-18332500D03*
X32004000Y-19467500D03*
G04 #@! TD*
G04 #@! TO.C,C23*
X36068000Y-18332500D03*
X36068000Y-19467500D03*
G04 #@! TD*
D18*
G04 #@! TO.C,C1*
X29912500Y-35560000D03*
X31047500Y-35560000D03*
G04 #@! TD*
D42*
G04 #@! TO.C,Y1*
X34218000Y-36900000D03*
X37918000Y-36900000D03*
G04 #@! TD*
D18*
G04 #@! TO.C,C27*
X67092500Y-27950000D03*
X68227500Y-27950000D03*
G04 #@! TD*
D38*
G04 #@! TO.C,R19*
X28692500Y-18880000D03*
X29887500Y-18880000D03*
G04 #@! TD*
D33*
G04 #@! TO.C,R1*
X41370000Y-38075000D03*
X41370000Y-36250000D03*
G04 #@! TD*
D42*
G04 #@! TO.C,Y2*
X48760000Y-43310000D03*
X45060000Y-43310000D03*
G04 #@! TD*
D36*
G04 #@! TO.C,C6*
X32258000Y-36695000D03*
X32258000Y-35560000D03*
G04 #@! TD*
D23*
G04 #@! TO.C,J4*
X24796000Y-41420250D03*
X30576000Y-41420250D03*
D26*
X24436000Y-39975250D03*
X25236000Y-39975250D03*
D25*
X26436000Y-39672750D03*
X27436000Y-39672750D03*
X27936000Y-39672750D03*
X28936000Y-39672750D03*
D26*
X30136000Y-39975250D03*
X30936000Y-39975250D03*
D24*
X30936000Y-39672750D03*
X30136000Y-39672750D03*
D25*
X29436000Y-39672750D03*
X28436000Y-39672750D03*
X26936000Y-39672750D03*
X25936000Y-39672750D03*
D24*
X25236000Y-39672750D03*
X24436000Y-39672750D03*
D27*
X23366000Y-40890250D03*
D28*
X23366000Y-45070250D03*
D27*
X32006000Y-40890250D03*
D28*
X32006000Y-45070250D03*
G04 #@! TD*
D16*
G04 #@! TO.C,R5*
X60305000Y-41994000D03*
X62130000Y-41994000D03*
G04 #@! TD*
D18*
G04 #@! TO.C,C16*
X36552500Y-46910000D03*
X37687500Y-46910000D03*
G04 #@! TD*
G04 #@! TO.C,C34*
X23054500Y-23622000D03*
X24189500Y-23622000D03*
G04 #@! TD*
D35*
G04 #@! TO.C,R17*
X49550000Y-7987500D03*
X49550000Y-9812500D03*
G04 #@! TD*
D16*
G04 #@! TO.C,R6*
X60305000Y-45494000D03*
X62130000Y-45494000D03*
G04 #@! TD*
D18*
G04 #@! TO.C,C20*
X23054500Y-26162000D03*
X24189500Y-26162000D03*
G04 #@! TD*
G04 #@! TO.C,C36*
X23054500Y-34798000D03*
X24189500Y-34798000D03*
G04 #@! TD*
D22*
G04 #@! TO.C,R24*
X45457500Y-39430000D03*
X44262500Y-39430000D03*
G04 #@! TD*
D18*
G04 #@! TO.C,C4*
X23054500Y-25146000D03*
X24189500Y-25146000D03*
G04 #@! TD*
G04 #@! TO.C,C44*
X23054500Y-21590000D03*
X24189500Y-21590000D03*
G04 #@! TD*
D16*
G04 #@! TO.C,R4*
X60312000Y-43722000D03*
X62137000Y-43722000D03*
G04 #@! TD*
D35*
G04 #@! TO.C,R16*
X51120000Y-7987500D03*
X51120000Y-9812500D03*
G04 #@! TD*
D37*
G04 #@! TO.C,R12*
X30884500Y-36830000D03*
X29059500Y-36830000D03*
G04 #@! TD*
M02*
