G04 #@! TF.GenerationSoftware,KiCad,Pcbnew,(6.0.11-0)*
G04 #@! TF.CreationDate,2023-02-20T23:18:05+08:00*
G04 #@! TF.ProjectId,ublaster_jtag,75626c61-7374-4657-925f-6a7461672e6b,rev?*
G04 #@! TF.SameCoordinates,Original*
G04 #@! TF.FileFunction,Legend,Top*
G04 #@! TF.FilePolarity,Positive*
%FSLAX46Y46*%
G04 Gerber Fmt 4.6, Leading zero omitted, Abs format (unit mm)*
G04 Created by KiCad (PCBNEW (6.0.11-0)) date 2023-02-20 23:18:05*
%MOMM*%
%LPD*%
G01*
G04 APERTURE LIST*
G04 Aperture macros list*
%AMRoundRect*
0 Rectangle with rounded corners*
0 $1 Rounding radius*
0 $2 $3 $4 $5 $6 $7 $8 $9 X,Y pos of 4 corners*
0 Add a 4 corners polygon primitive as box body*
4,1,4,$2,$3,$4,$5,$6,$7,$8,$9,$2,$3,0*
0 Add four circle primitives for the rounded corners*
1,1,$1+$1,$2,$3*
1,1,$1+$1,$4,$5*
1,1,$1+$1,$6,$7*
1,1,$1+$1,$8,$9*
0 Add four rect primitives between the rounded corners*
20,1,$1+$1,$2,$3,$4,$5,0*
20,1,$1+$1,$4,$5,$6,$7,0*
20,1,$1+$1,$6,$7,$8,$9,0*
20,1,$1+$1,$8,$9,$2,$3,0*%
G04 Aperture macros list end*
%ADD10C,0.150000*%
%ADD11C,0.120000*%
%ADD12RoundRect,0.155000X-0.212500X-0.155000X0.212500X-0.155000X0.212500X0.155000X-0.212500X0.155000X0*%
%ADD13RoundRect,0.155000X0.212500X0.155000X-0.212500X0.155000X-0.212500X-0.155000X0.212500X-0.155000X0*%
%ADD14RoundRect,0.237500X-0.250000X-0.237500X0.250000X-0.237500X0.250000X0.237500X-0.250000X0.237500X0*%
%ADD15RoundRect,0.155000X-0.155000X0.212500X-0.155000X-0.212500X0.155000X-0.212500X0.155000X0.212500X0*%
%ADD16C,0.650000*%
%ADD17R,1.450000X0.600000*%
%ADD18R,2.000000X0.300000*%
%ADD19R,2.000000X0.600000*%
%ADD20O,2.100000X1.000000*%
%ADD21O,1.600000X1.000000*%
%ADD22R,2.400000X2.000000*%
%ADD23RoundRect,0.155000X0.155000X-0.212500X0.155000X0.212500X-0.155000X0.212500X-0.155000X-0.212500X0*%
%ADD24RoundRect,0.075000X-0.075000X-0.662500X0.075000X-0.662500X0.075000X0.662500X-0.075000X0.662500X0*%
%ADD25RoundRect,0.075000X-0.662500X-0.075000X0.662500X-0.075000X0.662500X0.075000X-0.662500X0.075000X0*%
%ADD26RoundRect,0.237500X0.237500X-0.250000X0.237500X0.250000X-0.237500X0.250000X-0.237500X-0.250000X0*%
%ADD27RoundRect,0.237500X0.250000X0.237500X-0.250000X0.237500X-0.250000X-0.237500X0.250000X-0.237500X0*%
%ADD28RoundRect,0.425000X-1.075000X-0.425000X1.075000X-0.425000X1.075000X0.425000X-1.075000X0.425000X0*%
%ADD29RoundRect,0.237500X-0.237500X0.250000X-0.237500X-0.250000X0.237500X-0.250000X0.237500X0.250000X0*%
%ADD30RoundRect,0.150000X-0.587500X-0.150000X0.587500X-0.150000X0.587500X0.150000X-0.587500X0.150000X0*%
%ADD31R,1.000000X2.750000*%
G04 APERTURE END LIST*
D10*
X12433433Y-4493704D02*
X12839833Y-4493704D01*
X12636633Y-5293704D02*
X12636633Y-4493704D01*
X13483300Y-5217514D02*
X13449433Y-5255609D01*
X13347833Y-5293704D01*
X13280100Y-5293704D01*
X13178500Y-5255609D01*
X13110766Y-5179419D01*
X13076900Y-5103228D01*
X13043033Y-4950847D01*
X13043033Y-4836561D01*
X13076900Y-4684180D01*
X13110766Y-4607990D01*
X13178500Y-4531800D01*
X13280100Y-4493704D01*
X13347833Y-4493704D01*
X13449433Y-4531800D01*
X13483300Y-4569895D01*
X13788100Y-5293704D02*
X13788100Y-4493704D01*
X14194500Y-5293704D02*
X13889700Y-4836561D01*
X14194500Y-4493704D02*
X13788100Y-4950847D01*
X12433433Y-7069704D02*
X12839833Y-7069704D01*
X12636633Y-7869704D02*
X12636633Y-7069704D01*
X13076900Y-7869704D02*
X13076900Y-7069704D01*
X13246233Y-7069704D01*
X13347833Y-7107800D01*
X13415566Y-7183990D01*
X13449433Y-7260180D01*
X13483300Y-7412561D01*
X13483300Y-7526847D01*
X13449433Y-7679228D01*
X13415566Y-7755419D01*
X13347833Y-7831609D01*
X13246233Y-7869704D01*
X13076900Y-7869704D01*
X13923566Y-7069704D02*
X14059033Y-7069704D01*
X14126766Y-7107800D01*
X14194500Y-7183990D01*
X14228366Y-7336371D01*
X14228366Y-7603038D01*
X14194500Y-7755419D01*
X14126766Y-7831609D01*
X14059033Y-7869704D01*
X13923566Y-7869704D01*
X13855833Y-7831609D01*
X13788100Y-7755419D01*
X13754233Y-7603038D01*
X13754233Y-7336371D01*
X13788100Y-7183990D01*
X13855833Y-7107800D01*
X13923566Y-7069704D01*
X12433433Y-9645704D02*
X12839833Y-9645704D01*
X12636633Y-10445704D02*
X12636633Y-9645704D01*
X13076900Y-10445704D02*
X13076900Y-9645704D01*
X13313966Y-10217133D01*
X13551033Y-9645704D01*
X13551033Y-10445704D01*
X13855833Y-10407609D02*
X13957433Y-10445704D01*
X14126766Y-10445704D01*
X14194500Y-10407609D01*
X14228366Y-10369514D01*
X14262233Y-10293323D01*
X14262233Y-10217133D01*
X14228366Y-10140942D01*
X14194500Y-10102847D01*
X14126766Y-10064752D01*
X13991300Y-10026657D01*
X13923566Y-9988561D01*
X13889700Y-9950466D01*
X13855833Y-9874276D01*
X13855833Y-9798085D01*
X13889700Y-9721895D01*
X13923566Y-9683800D01*
X13991300Y-9645704D01*
X14160633Y-9645704D01*
X14262233Y-9683800D01*
X12501166Y-12793133D02*
X12839833Y-12793133D01*
X12433433Y-13021704D02*
X12670500Y-12221704D01*
X12907566Y-13021704D01*
X13110766Y-12983609D02*
X13212366Y-13021704D01*
X13381700Y-13021704D01*
X13449433Y-12983609D01*
X13483300Y-12945514D01*
X13517166Y-12869323D01*
X13517166Y-12793133D01*
X13483300Y-12716942D01*
X13449433Y-12678847D01*
X13381700Y-12640752D01*
X13246233Y-12602657D01*
X13178500Y-12564561D01*
X13144633Y-12526466D01*
X13110766Y-12450276D01*
X13110766Y-12374085D01*
X13144633Y-12297895D01*
X13178500Y-12259800D01*
X13246233Y-12221704D01*
X13415566Y-12221704D01*
X13517166Y-12259800D01*
X12433433Y-14797704D02*
X12839833Y-14797704D01*
X12636633Y-15597704D02*
X12636633Y-14797704D01*
X13076900Y-15597704D02*
X13076900Y-14797704D01*
X13246233Y-14797704D01*
X13347833Y-14835800D01*
X13415566Y-14911990D01*
X13449433Y-14988180D01*
X13483300Y-15140561D01*
X13483300Y-15254847D01*
X13449433Y-15407228D01*
X13415566Y-15483419D01*
X13347833Y-15559609D01*
X13246233Y-15597704D01*
X13076900Y-15597704D01*
X13788100Y-15597704D02*
X13788100Y-14797704D01*
D11*
G04 #@! TO.C,C11*
X25360365Y-6684600D02*
X25592035Y-6684600D01*
X25360365Y-5964600D02*
X25592035Y-5964600D01*
G04 #@! TO.C,C51*
X33415235Y-15337200D02*
X33183565Y-15337200D01*
X33415235Y-16057200D02*
X33183565Y-16057200D01*
G04 #@! TO.C,R22*
X36702276Y-13828500D02*
X37211724Y-13828500D01*
X36702276Y-14873500D02*
X37211724Y-14873500D01*
G04 #@! TO.C,C49*
X25607600Y-10577565D02*
X25607600Y-10809235D01*
X24887600Y-10577565D02*
X24887600Y-10809235D01*
G04 #@! TO.C,J4*
X48705600Y-14580600D02*
X48705600Y-5180600D01*
X42905600Y-14580600D02*
X44905600Y-14580600D01*
X46805600Y-5180600D02*
X48705600Y-5180600D01*
X46805600Y-14580600D02*
X48705600Y-14580600D01*
X42905600Y-5180600D02*
X44905600Y-5180600D01*
G04 #@! TO.C,Y2*
X24431400Y-12682200D02*
X24431400Y-6932200D01*
X20831400Y-6932200D02*
X20831400Y-12682200D01*
X24431400Y-6932200D02*
X20831400Y-6932200D01*
G04 #@! TO.C,C17*
X25607600Y-13146035D02*
X25607600Y-12914365D01*
X24887600Y-13146035D02*
X24887600Y-12914365D01*
G04 #@! TO.C,U1*
X27555800Y-6796800D02*
X26265800Y-6796800D01*
X27555800Y-13566800D02*
X27555800Y-13116800D01*
X28005800Y-13566800D02*
X27555800Y-13566800D01*
X34775800Y-13566800D02*
X34775800Y-13116800D01*
X27555800Y-6346800D02*
X27555800Y-6796800D01*
X28005800Y-6346800D02*
X27555800Y-6346800D01*
X34775800Y-6346800D02*
X34775800Y-6796800D01*
X34325800Y-13566800D02*
X34775800Y-13566800D01*
X34325800Y-6346800D02*
X34775800Y-6346800D01*
G04 #@! TO.C,R19*
X38393900Y-12091124D02*
X38393900Y-11581676D01*
X37348900Y-12091124D02*
X37348900Y-11581676D01*
G04 #@! TO.C,C48*
X33132765Y-4551000D02*
X33364435Y-4551000D01*
X33132765Y-3831000D02*
X33364435Y-3831000D01*
G04 #@! TO.C,R23*
X26238924Y-4532100D02*
X25729476Y-4532100D01*
X26238924Y-5577100D02*
X25729476Y-5577100D01*
G04 #@! TO.C,J3*
X12226600Y-6101000D02*
X12226600Y-16321000D01*
X9566600Y-6101000D02*
X9566600Y-16321000D01*
X9566600Y-3501000D02*
X10896600Y-3501000D01*
X9566600Y-6101000D02*
X12226600Y-6101000D01*
X9566600Y-16321000D02*
X12226600Y-16321000D01*
X9566600Y-4831000D02*
X9566600Y-3501000D01*
G04 #@! TO.C,C50*
X28967165Y-16057200D02*
X29198835Y-16057200D01*
X28967165Y-15337200D02*
X29198835Y-15337200D01*
G04 #@! TO.C,C16*
X24887600Y-7808965D02*
X24887600Y-8040635D01*
X25607600Y-7808965D02*
X25607600Y-8040635D01*
G04 #@! TO.C,R24*
X37323500Y-7289076D02*
X37323500Y-7798524D01*
X38368500Y-7289076D02*
X38368500Y-7798524D01*
G04 #@! TO.C,C5*
X25541235Y-3475400D02*
X25309565Y-3475400D01*
X25541235Y-4195400D02*
X25309565Y-4195400D01*
G04 #@! TO.C,C52*
X29224235Y-4525600D02*
X28992565Y-4525600D01*
X29224235Y-3805600D02*
X28992565Y-3805600D01*
G04 #@! TO.C,U6*
X22377400Y-6665400D02*
X23027400Y-6665400D01*
X22377400Y-3545400D02*
X23027400Y-3545400D01*
X22377400Y-3545400D02*
X20702400Y-3545400D01*
X22377400Y-6665400D02*
X21727400Y-6665400D01*
G04 #@! TO.C,R20*
X36702276Y-4201900D02*
X37211724Y-4201900D01*
X36702276Y-5246900D02*
X37211724Y-5246900D01*
G04 #@! TO.C,J8*
X19849400Y-7820600D02*
X19849400Y-11940600D01*
X19849400Y-7820600D02*
X19549400Y-7820600D01*
X19549400Y-11940600D02*
X19549400Y-14320600D01*
X16029400Y-11940600D02*
X15549400Y-11940600D01*
X19849400Y-11940600D02*
X19549400Y-11940600D01*
X13729400Y-7820600D02*
X13729400Y-11940600D01*
X16029400Y-7820600D02*
X15549400Y-7820600D01*
X14029400Y-7820600D02*
X13729400Y-7820600D01*
X18029400Y-7820600D02*
X17549400Y-7820600D01*
X14029400Y-11940600D02*
X13729400Y-11940600D01*
X18029400Y-11940600D02*
X17549400Y-11940600D01*
G04 #@! TD*
%LPC*%
D12*
G04 #@! TO.C,C11*
X24908700Y-6324600D03*
X26043700Y-6324600D03*
G04 #@! TD*
D13*
G04 #@! TO.C,C51*
X32731900Y-15697200D03*
X33866900Y-15697200D03*
G04 #@! TD*
D14*
G04 #@! TO.C,R22*
X36044500Y-14351000D03*
X37869500Y-14351000D03*
G04 #@! TD*
D15*
G04 #@! TO.C,C49*
X25247600Y-10125900D03*
X25247600Y-11260900D03*
G04 #@! TD*
D16*
G04 #@! TO.C,J4*
X42205600Y-6990600D03*
X42205600Y-12770600D03*
D17*
X40760600Y-13130600D03*
X40760600Y-12330600D03*
D18*
X40760600Y-11130600D03*
X40760600Y-10130600D03*
X40760600Y-9630600D03*
X40760600Y-8630600D03*
D17*
X40760600Y-7430600D03*
D19*
X40760600Y-6630600D03*
X40760600Y-6630600D03*
X40760600Y-7430600D03*
D18*
X40760600Y-8130600D03*
X40760600Y-9130600D03*
X40760600Y-10630600D03*
X40760600Y-11630600D03*
D19*
X40760600Y-12330600D03*
X40760600Y-13130600D03*
D20*
X41675600Y-14200600D03*
D21*
X45855600Y-14200600D03*
D20*
X41675600Y-5560600D03*
D21*
X45855600Y-5560600D03*
G04 #@! TD*
D22*
G04 #@! TO.C,Y2*
X22631400Y-8132200D03*
X22631400Y-11832200D03*
G04 #@! TD*
D23*
G04 #@! TO.C,C17*
X25247600Y-13597700D03*
X25247600Y-12462700D03*
G04 #@! TD*
D24*
G04 #@! TO.C,U1*
X28415800Y-5794300D03*
X28915800Y-5794300D03*
X29415800Y-5794300D03*
X29915800Y-5794300D03*
X30415800Y-5794300D03*
X30915800Y-5794300D03*
X31415800Y-5794300D03*
X31915800Y-5794300D03*
X32415800Y-5794300D03*
X32915800Y-5794300D03*
X33415800Y-5794300D03*
X33915800Y-5794300D03*
D25*
X35328300Y-7206800D03*
X35328300Y-7706800D03*
X35328300Y-8206800D03*
X35328300Y-8706800D03*
X35328300Y-9206800D03*
X35328300Y-9706800D03*
X35328300Y-10206800D03*
X35328300Y-10706800D03*
X35328300Y-11206800D03*
X35328300Y-11706800D03*
X35328300Y-12206800D03*
X35328300Y-12706800D03*
D24*
X33915800Y-14119300D03*
X33415800Y-14119300D03*
X32915800Y-14119300D03*
X32415800Y-14119300D03*
X31915800Y-14119300D03*
X31415800Y-14119300D03*
X30915800Y-14119300D03*
X30415800Y-14119300D03*
X29915800Y-14119300D03*
X29415800Y-14119300D03*
X28915800Y-14119300D03*
X28415800Y-14119300D03*
D25*
X27003300Y-12706800D03*
X27003300Y-12206800D03*
X27003300Y-11706800D03*
X27003300Y-11206800D03*
X27003300Y-10706800D03*
X27003300Y-10206800D03*
X27003300Y-9706800D03*
X27003300Y-9206800D03*
X27003300Y-8706800D03*
X27003300Y-8206800D03*
X27003300Y-7706800D03*
X27003300Y-7206800D03*
G04 #@! TD*
D26*
G04 #@! TO.C,R19*
X37871400Y-12748900D03*
X37871400Y-10923900D03*
G04 #@! TD*
D12*
G04 #@! TO.C,C48*
X32681100Y-4191000D03*
X33816100Y-4191000D03*
G04 #@! TD*
D27*
G04 #@! TO.C,R23*
X26896700Y-5054600D03*
X25071700Y-5054600D03*
G04 #@! TD*
D28*
G04 #@! TO.C,J3*
X10896600Y-4831000D03*
X10896600Y-7371000D03*
X10896600Y-9911000D03*
X10896600Y-12451000D03*
X10896600Y-14991000D03*
G04 #@! TD*
D12*
G04 #@! TO.C,C50*
X28515500Y-15697200D03*
X29650500Y-15697200D03*
G04 #@! TD*
D15*
G04 #@! TO.C,C16*
X25247600Y-7357300D03*
X25247600Y-8492300D03*
G04 #@! TD*
D29*
G04 #@! TO.C,R24*
X37846000Y-6631300D03*
X37846000Y-8456300D03*
G04 #@! TD*
D13*
G04 #@! TO.C,C5*
X25992900Y-3835400D03*
X24857900Y-3835400D03*
G04 #@! TD*
G04 #@! TO.C,C52*
X29675900Y-4165600D03*
X28540900Y-4165600D03*
G04 #@! TD*
D30*
G04 #@! TO.C,U6*
X21439900Y-4155400D03*
X21439900Y-6055400D03*
X23314900Y-5105400D03*
G04 #@! TD*
D14*
G04 #@! TO.C,R20*
X36044500Y-4724400D03*
X37869500Y-4724400D03*
G04 #@! TD*
D31*
G04 #@! TO.C,J8*
X18789400Y-13005600D03*
X18789400Y-6755600D03*
X16789400Y-13005600D03*
X16789400Y-6755600D03*
X14789400Y-13005600D03*
X14789400Y-6755600D03*
G04 #@! TD*
M02*
