M48
; DRILL file {KiCad (6.0.11-0)} date 
; FORMAT={-:-/ absolute / metric / decimal}
; #@! TF.CreationDate,2023-03-08T20:48:52+08:00
; #@! TF.GenerationSoftware,Kicad,Pcbnew,(6.0.11-0)
; #@! TF.FileFunction,Plated,1,4,PTH
FMAT,2
METRIC
; #@! TA.AperFunction,Plated,PTH,ViaDrill
T1C0.254
; #@! TA.AperFunction,Plated,PTH,ViaDrill
T2C0.305
; #@! TA.AperFunction,Plated,PTH,ComponentDrill
T3C0.600
%
G90
G05
T1
X13.4Y-35.0
X15.481Y-37.886
X16.1Y-40.3
X18.65Y-37.926
X18.8Y-33.1
X19.05Y-32.45
X20.85Y-31.55
X21.3Y-32.2
X21.65Y-40.25
X21.72Y-27.42
X21.73Y-26.54
X21.75Y-32.9
X21.827Y-37.919
X23.438Y-38.712
X23.5Y-38.002
X24.45Y-24.9
X24.65Y-25.9
X24.65Y-26.65
X24.65Y-27.4
X24.65Y-28.1
X25.25Y-37.2
X25.45Y-31.1
X26.219Y-23.122
X26.225Y-31.875
X26.225Y-33.475
X26.25Y-29.5
X26.9Y-15.25
X27.046Y-27.104
X27.05Y-27.9
X27.05Y-30.3
X27.75Y-37.2
X27.825Y-32.725
X27.85Y-23.892
X27.85Y-21.5
X27.85Y-26.3
X27.85Y-34.45
X27.854Y-31.104
X28.3Y-14.4
X28.4Y-20.2
X28.628Y-31.131
X28.65Y-27.892
X28.65Y-26.3
X28.65Y-30.3
X28.65Y-32.7
X28.672Y-23.931
X29.0Y-37.2
X29.442Y-21.5
X29.45Y-24.692
X29.45Y-23.9
X29.45Y-27.1
X29.45Y-31.892
X29.458Y-28.7
X29.475Y-27.935
X29.75Y-20.2
X30.0Y-35.1
X30.225Y-29.525
X30.25Y-22.3
X30.25Y-25.492
X30.25Y-30.3
X30.3Y-23.95
X30.85Y-34.9
X31.05Y-23.1
X31.081Y-24.678
X31.1Y-14.5
X31.35Y-28.3
X31.45Y-20.45
X31.65Y-40.4
X31.85Y-23.9
X31.85Y-31.1
X31.85Y-31.9
X31.85Y-32.7
X31.85Y-33.5
X31.96Y-26.87
X32.2Y-20.15
X32.625Y-40.075
X32.646Y-24.704
X32.65Y-23.9
X32.65Y-28.7
X32.65Y-30.3
X32.7Y-20.65
X32.75Y-35.05
X33.25Y-26.4
X33.25Y-35.65
X33.4Y-34.95
X33.446Y-25.496
X33.45Y-20.7
X33.45Y-23.9
X33.45Y-30.3
X33.45Y-31.9
X33.45Y-32.7
X33.5Y-29.55
X33.5Y-31.05
X33.65Y-36.45
X33.7Y-26.85
X34.218Y-27.868
X34.25Y-22.292
X34.252Y-28.695
X35.0Y-25.55
X35.028Y-29.469
X35.05Y-32.692
X35.05Y-21.5
X35.05Y-24.7
X35.05Y-30.3
X35.05Y-31.1
X35.819Y-26.278
X35.85Y-27.9
X35.85Y-28.7
X35.85Y-29.5
X36.35Y-20.2
X36.6Y-32.75
X36.65Y-28.708
X36.65Y-23.9
X36.65Y-24.7
X36.65Y-26.3
X36.65Y-27.9
X36.65Y-30.3
X36.65Y-31.1
X36.65Y-40.9
X36.658Y-31.9
X36.85Y-14.1
X37.35Y-14.95
X37.4Y-23.95
X37.4Y-25.45
X37.419Y-27.922
X37.45Y-26.3
X37.45Y-29.5
X37.45Y-31.892
X37.458Y-30.3
X38.15Y-20.15
X38.2Y-24.75
X38.225Y-33.465
X38.25Y-23.1
X38.25Y-29.5
X38.25Y-32.7
X39.17Y-21.308
X39.25Y-36.05
X39.6Y-31.499
X39.6Y-34.5
X39.65Y-28.0
X39.808Y-23.708
X39.9Y-23.05
X40.025Y-30.3
X40.45Y-27.95
X40.7Y-23.5
X40.85Y-30.3
X41.25Y-36.3
X41.45Y-33.25
X41.55Y-30.55
X41.8Y-23.8
X42.25Y-33.2
X42.3Y-30.65
X42.35Y-27.626
X42.35Y-35.824
X42.55Y-40.9
X42.95Y-26.25
X43.708Y-36.061
X43.75Y-32.55
X43.814Y-36.84
X44.3Y-34.75
X44.509Y-27.65
X44.6Y-30.6
X44.6Y-35.35
X44.7Y-37.2
X44.75Y-14.05
X44.774Y-36.324
X45.15Y-20.6
X45.69Y-20.15
X45.989Y-35.239
X46.208Y-32.208
X46.25Y-32.9
X47.65Y-40.9
X48.45Y-15.8
X48.85Y-34.7
X49.1Y-35.75
X49.45Y-19.9
X49.7Y-35.4
X49.8Y-32.85
X50.05Y-15.8
X50.05Y-31.85
X50.2Y-39.5
X50.4Y-26.75
X50.8Y-15.8
X50.9Y-25.15
X50.95Y-20.8
X51.0Y-39.5
X51.05Y-31.9
X51.15Y-23.3
X51.2Y-35.85
X51.6Y-15.8
X51.6Y-31.4
X51.8Y-35.85
X51.8Y-39.5
X52.1Y-23.75
X52.15Y-30.95
X52.25Y-27.65
X52.7Y-26.65
X53.0Y-31.15
X53.05Y-40.85
X53.475Y-30.625
X53.95Y-30.2
X54.2Y-26.7
X54.25Y-27.6
X54.55Y-14.1
X55.15Y-30.1
X55.3Y-15.75
X55.8Y-29.0
X56.1Y-15.75
X56.25Y-20.45
X56.4Y-19.4
X56.4Y-29.75
X56.55Y-22.3
X56.55Y-23.3
X56.6Y-24.3
X56.75Y-21.05
X56.75Y-25.4
X56.8Y-15.75
X56.95Y-26.65
X57.25Y-28.5
X57.5Y-15.75
X57.6Y-29.95
X58.75Y-40.9
X59.05Y-16.0
X61.2Y-17.55
X61.2Y-28.8
X61.2Y-33.45
X61.2Y-37.7
X61.25Y-23.7
T2
X13.753Y-19.153
X14.95Y-22.4
X15.0Y-16.65
X16.85Y-15.0
X17.1Y-25.5
X17.1Y-29.5
X17.204Y-37.901
X17.4Y-21.45
X17.85Y-33.3
X19.7Y-22.55
X20.2Y-16.9
X20.3Y-28.65
X20.35Y-23.4
X22.0Y-24.8
X22.35Y-23.3
X22.5Y-31.95
X22.5Y-33.2
X23.1Y-30.4
X23.65Y-31.9
X23.7Y-23.3
X23.7Y-33.2
X24.61Y-30.1
X25.25Y-35.0
X25.3Y-17.8
X25.3Y-18.9
X26.55Y-17.8
X27.85Y-17.8
X30.85Y-17.75
X30.85Y-18.9
X32.1Y-18.9
X32.15Y-17.8
X33.4Y-17.75
X33.4Y-18.9
X36.45Y-17.75
X36.45Y-18.9
X37.75Y-17.75
X37.75Y-18.9
X39.0Y-17.75
X44.95Y-26.65
X45.258Y-27.626
X46.1Y-15.25
X46.6Y-38.5
X47.6Y-15.85
X49.0Y-15.25
X52.7Y-15.65
X53.3Y-39.05
X53.9Y-15.65
X54.15Y-39.05
X57.4Y-19.3
X57.55Y-14.95
X57.55Y-23.55
X58.0Y-38.9
X60.45Y-19.1
X60.45Y-22.0
X60.45Y-34.2
X60.5Y-16.35
X60.5Y-25.1
X60.5Y-29.0
X60.5Y-31.3
X60.5Y-37.0
T3
G00X13.557Y-23.183
M15
G01X12.957Y-23.183
M16
G05
G00X13.557Y-31.823
M15
G01X12.957Y-31.823
M16
G05
G00X17.988Y-23.183
M15
G01X16.887Y-23.183
M16
G05
G00X17.988Y-31.823
M15
G01X16.887Y-31.823
M16
G05
T0
M30
