M48
; DRILL file {KiCad 7.0.1-0} date 2023 May 01, Monday 15:59:01
; FORMAT={-:-/ absolute / inch / decimal}
; #@! TF.CreationDate,2023-05-01T15:59:01+08:00
; #@! TF.GenerationSoftware,Kicad,Pcbnew,7.0.1-0
; #@! TF.FileFunction,Plated,1,4,PTH
FMAT,2
INCH
; #@! TA.AperFunction,Plated,PTH,ViaDrill
T1C0.0120
; #@! TA.AperFunction,Plated,PTH,ViaDrill
T2C0.0150
; #@! TA.AperFunction,Plated,PTH,ComponentDrill
T3C0.0236
%
G90
G05
T1
X0.9079Y-0.9709
X0.9079Y-1.1874
X0.9083Y-0.8059
X0.9083Y-0.8622
X0.9083Y-0.9169
X0.9083Y-1.0224
X0.9083Y-1.0795
X0.9083Y-1.1323
X0.9083Y-1.2394
X0.9083Y-1.2941
X0.9083Y-1.3492
X0.9083Y-1.4063
X0.9278Y-1.4592
X0.9311Y-0.6925
X0.9319Y-0.716
X0.9355Y-0.598
X0.9512Y-1.1331
X0.9524Y-1.35
X0.9538Y-0.861
X0.9538Y-0.9209
X0.9538Y-0.976
X0.9538Y-1.0232
X0.9783Y-0.7664
X0.9803Y-0.6941
X0.9811Y-1.1902
X0.9811Y-1.2453
X1.0Y-1.099
X1.0013Y-1.068
X1.0023Y-1.0354
X1.0024Y-1.0047
X1.0024Y-0.9096
X1.015Y-1.7933
X1.0169Y-1.8252
X1.0331Y-1.3193
X1.0335Y-1.0042
X1.0335Y-1.0672
X1.0335Y-1.1302
X1.0339Y-1.224
X1.0366Y-0.7669
X1.0386Y-0.7236
X1.0457Y-1.398
X1.0461Y-1.4457
X1.0626Y-1.5988
X1.0646Y-0.9409
X1.0646Y-1.1614
X1.065Y-1.0987
X1.065Y-1.0042
X1.0653Y-1.0354
X1.0902Y-0.7224
X1.0963Y-1.2561
X1.0968Y-0.8465
X1.1022Y-1.4744
X1.1138Y-0.5909
X1.1272Y-0.9732
X1.1273Y-1.2881
X1.1276Y-0.9409
X1.1277Y-1.0984
X1.1277Y-1.0664
X1.128Y-1.1302
X1.1283Y-1.0354
X1.1283Y-1.3185
X1.1437Y-0.6154
X1.1591Y-1.0984
X1.1594Y-1.1926
X1.1598Y-1.0039
X1.1598Y-1.1299
X1.161Y-0.8114
X1.178Y-1.8122
X1.1807Y-0.5878
X1.185Y-0.8008
X1.1903Y-1.1296
X1.1905Y-0.9732
X1.1906Y-0.941
X1.1913Y-1.2244
X1.1914Y-1.1606
X1.1926Y-1.0377
X1.1941Y-0.766
X1.2008Y-0.6134
X1.2067Y-1.4201
X1.2213Y-0.9716
X1.2224Y-1.3186
X1.2231Y-0.9419
X1.2232Y-1.3531
X1.2353Y-1.0406
X1.2409Y-0.766
X1.2461Y-0.6134
X1.2529Y-0.9081
X1.2536Y-0.878
X1.2539Y-1.1932
X1.2542Y-0.8465
X1.2549Y-1.2258
X1.2555Y-1.5699
X1.2734Y-0.8122
X1.274Y-1.4728
X1.2846Y-1.1311
X1.2853Y-1.1613
X1.2929Y-1.5767
X1.2998Y-1.6537
X1.3071Y-1.1504
X1.3146Y-0.9752
X1.3146Y-1.0504
X1.3149Y-0.9437
X1.3165Y-1.1922
X1.3165Y-1.2252
X1.3166Y-0.9094
X1.3169Y-1.2562
X1.3177Y-1.0059
X1.339Y-1.0555
X1.3457Y-0.766
X1.3471Y-1.1282
X1.3476Y-1.0965
X1.3481Y-0.9409
X1.3482Y-1.2565
X1.3484Y-1.2241
X1.3484Y-0.7213
X1.3486Y-1.3187
X1.3488Y-1.1929
X1.3496Y-1.0055
X1.3559Y-0.8098
X1.3787Y-1.1945
X1.3792Y-0.8786
X1.3801Y-1.256
X1.3802Y-0.9724
X1.3802Y-0.9094
X1.3802Y-1.2874
X1.3909Y-1.3732
X1.4106Y-1.0346
X1.4106Y-1.2233
X1.4114Y-0.9098
X1.4114Y-1.0987
X1.4114Y-1.0036
X1.4117Y-1.1614
X1.412Y-1.2549
X1.4126Y-1.1311
X1.4126Y-1.2866
X1.4255Y-0.6937
X1.4426Y-1.0354
X1.4429Y-0.8783
X1.4429Y-1.0981
X1.4429Y-1.1302
X1.4429Y-1.2247
X1.4457Y-1.365
X1.4535Y-0.6681
X1.4733Y-1.2229
X1.4744Y-1.0357
X1.4744Y-1.1932
X1.4744Y-1.2562
X1.4744Y-1.1611
X1.4747Y-1.0039
X1.4811Y-1.3654
X1.5057Y-1.0979
X1.5061Y-1.0353
X1.5062Y-1.2244
X1.5063Y-1.0039
X1.5138Y-1.7713
X1.5142Y-1.7942
X1.5157Y-1.3669
X1.5382Y-1.0665
X1.5461Y-1.2644
X1.5555Y-1.8087
X1.5634Y-1.0429
X1.5657Y-1.4854
X1.5677Y-1.1866
X1.5918Y-1.3562
X1.5957Y-1.7697
X1.5961Y-1.7933
X1.6227Y-0.678
X1.6268Y-0.9398
X1.6339Y-1.6409
X1.6472Y-0.8933
X1.6573Y-1.1122
X1.6575Y-1.0815
X1.6575Y-1.1441
X1.6787Y-1.4986
X1.7197Y-1.3516
X1.7417Y-1.3722
X1.75Y-1.511
X1.7673Y-1.1835
X1.7713Y-1.1472
X1.7717Y-1.1181
X1.778Y-1.5134
X1.8Y-1.6138
X1.8043Y-1.637
X1.8047Y-1.6646
X1.813Y-1.0126
X1.8165Y-0.588
X1.8285Y-1.3574
X1.8374Y-1.8112
X1.8488Y-1.7531
X1.851Y-0.9821
X1.9109Y-0.5474
X1.9126Y-0.9209
X1.9128Y-0.637
X1.9235Y-1.7764
X1.9353Y-0.8193
X1.9461Y-1.5886
X1.9492Y-1.1744
X1.9533Y-1.3535
X1.9776Y-0.8571
X1.9846Y-1.6307
X1.9852Y-0.6506
X1.9972Y-1.2644
X1.9978Y-0.5325
X1.9991Y-1.3587
X2.0306Y-0.8669
X2.0638Y-0.9713
X2.0896Y-0.6535
X2.0902Y-0.9476
X2.0919Y-1.1714
X2.0999Y-0.5449
X2.1005Y-1.4399
X2.1063Y-1.4705
X2.1102Y-1.1984
X2.1154Y-1.5862
X2.1172Y-0.8894
X2.1317Y-1.4211
X2.1327Y-0.9102
X2.1453Y-1.5764
X2.1534Y-0.6567
X2.1579Y-0.8413
X2.1646Y-1.4031
X2.1803Y-0.5335
X2.1835Y-1.2579
X2.1878Y-1.3815
X2.1882Y-0.9299
X2.2154Y-1.5351
X2.2287Y-1.2205
X2.2354Y-1.2622
X2.2559Y-0.6748
X2.2571Y-0.5453
X2.2697Y-0.6402
X2.2803Y-1.5346
X2.2835Y-0.7
X2.2994Y-0.6488
X2.3086Y-0.8068
X2.3087Y-1.265
X2.3343Y-1.2421
X2.3388Y-1.2736
X2.349Y-1.4907
X2.3632Y-0.9441
X2.4016Y-0.7177
X2.4091Y-1.5457
X2.411Y-0.9795
X2.4122Y-0.6874
X2.4193Y-1.6953
X2.4209Y-0.6496
X2.4213Y-1.3673
X2.4232Y-1.3024
X2.4437Y-1.576
X2.4543Y-1.1657
X2.4551Y-0.9835
X2.4661Y-1.3106
X2.481Y-1.1027
X2.4874Y-1.1303
X2.4953Y-1.765
X2.4969Y-1.6008
X2.5161Y-1.5803
X2.5374Y-0.6539
X2.5386Y-1.2472
X2.539Y-1.5315
X2.5398Y-1.0933
X2.5555Y-1.4169
X2.5583Y-1.4591
X2.5598Y-1.7587
X2.5677Y-0.8705
X2.5677Y-0.9402
X2.6035Y-1.3539
X2.6035Y-1.4213
X2.6039Y-1.2287
X2.6124Y-0.6425
X2.6236Y-0.9307
X2.6272Y-0.7374
X2.6287Y-0.848
X2.6299Y-0.6803
X2.6307Y-1.672
X2.6311Y-1.7579
X2.6476Y-1.122
X2.6642Y-1.7555
X2.6662Y-1.0805
X2.7014Y-1.6384
X2.7059Y-0.5272
X2.7212Y-1.474
X2.7257Y-1.5167
X2.7366Y-1.6929
X2.7374Y-1.2815
T2
X1.4409Y-1.5024
X1.5067Y-1.6484
X1.6642Y-1.6621
X1.9921Y-1.6776
X2.0028Y-1.5854
X2.0434Y-1.6776
X2.0594Y-1.5862
X2.1902Y-1.6949
X2.1906Y-1.7311
X2.1906Y-1.7728
X2.2531Y-1.6799
X2.2839Y-1.5921
X2.3209Y-1.6799
X2.3472Y-1.5921
X2.3854Y-1.6303
T3
G00X1.4098Y-1.6098
M15
G01X1.4098Y-1.6531
M16
G05
G00X1.4098Y-1.7843
M15
G01X1.4098Y-1.8079
M16
G05
G00X1.75Y-1.6098
M15
G01X1.75Y-1.6531
M16
G05
G00X1.75Y-1.7843
M15
G01X1.75Y-1.8079
M16
G05
T0
M30
