G04 #@! TF.GenerationSoftware,KiCad,Pcbnew,7.0.1-0*
G04 #@! TF.CreationDate,2023-05-01T16:00:43+08:00*
G04 #@! TF.ProjectId,slimarm_almond_mini,736c696d-6172-46d5-9f61-6c6d6f6e645f,rev?*
G04 #@! TF.SameCoordinates,Original*
G04 #@! TF.FileFunction,Legend,Bot*
G04 #@! TF.FilePolarity,Positive*
%FSLAX46Y46*%
G04 Gerber Fmt 4.6, Leading zero omitted, Abs format (unit mm)*
G04 Created by KiCad (PCBNEW 7.0.1-0) date 2023-05-01 16:00:43*
%MOMM*%
%LPD*%
G01*
G04 APERTURE LIST*
%ADD10C,0.127000*%
%ADD11C,0.381000*%
%ADD12C,0.200000*%
%ADD13C,0.330200*%
%ADD14C,0.150000*%
%ADD15C,0.120000*%
%ADD16C,0.650000*%
%ADD17O,1.000000X2.100000*%
%ADD18O,1.000000X1.600000*%
%ADD19R,1.170000X1.800000*%
%ADD20R,1.900000X1.350000*%
%ADD21R,1.550000X1.350000*%
%ADD22R,1.200000X1.000000*%
%ADD23R,0.750000X1.100000*%
%ADD24R,0.850000X1.100000*%
%ADD25R,1.850000X0.500000*%
G04 APERTURE END LIST*
D10*
X68184857Y-41591790D02*
X68076000Y-41628075D01*
X68076000Y-41628075D02*
X67894571Y-41628075D01*
X67894571Y-41628075D02*
X67822000Y-41591790D01*
X67822000Y-41591790D02*
X67785714Y-41555504D01*
X67785714Y-41555504D02*
X67749428Y-41482932D01*
X67749428Y-41482932D02*
X67749428Y-41410361D01*
X67749428Y-41410361D02*
X67785714Y-41337790D01*
X67785714Y-41337790D02*
X67822000Y-41301504D01*
X67822000Y-41301504D02*
X67894571Y-41265218D01*
X67894571Y-41265218D02*
X68039714Y-41228932D01*
X68039714Y-41228932D02*
X68112285Y-41192647D01*
X68112285Y-41192647D02*
X68148571Y-41156361D01*
X68148571Y-41156361D02*
X68184857Y-41083790D01*
X68184857Y-41083790D02*
X68184857Y-41011218D01*
X68184857Y-41011218D02*
X68148571Y-40938647D01*
X68148571Y-40938647D02*
X68112285Y-40902361D01*
X68112285Y-40902361D02*
X68039714Y-40866075D01*
X68039714Y-40866075D02*
X67858285Y-40866075D01*
X67858285Y-40866075D02*
X67749428Y-40902361D01*
X67422857Y-41628075D02*
X67422857Y-40866075D01*
X67422857Y-40866075D02*
X67241428Y-40866075D01*
X67241428Y-40866075D02*
X67132571Y-40902361D01*
X67132571Y-40902361D02*
X67060000Y-40974932D01*
X67060000Y-40974932D02*
X67023714Y-41047504D01*
X67023714Y-41047504D02*
X66987428Y-41192647D01*
X66987428Y-41192647D02*
X66987428Y-41301504D01*
X66987428Y-41301504D02*
X67023714Y-41446647D01*
X67023714Y-41446647D02*
X67060000Y-41519218D01*
X67060000Y-41519218D02*
X67132571Y-41591790D01*
X67132571Y-41591790D02*
X67241428Y-41628075D01*
X67241428Y-41628075D02*
X67422857Y-41628075D01*
X66660857Y-41628075D02*
X66660857Y-40866075D01*
X66152857Y-40866075D02*
X66007714Y-40866075D01*
X66007714Y-40866075D02*
X65935143Y-40902361D01*
X65935143Y-40902361D02*
X65862571Y-40974932D01*
X65862571Y-40974932D02*
X65826286Y-41120075D01*
X65826286Y-41120075D02*
X65826286Y-41374075D01*
X65826286Y-41374075D02*
X65862571Y-41519218D01*
X65862571Y-41519218D02*
X65935143Y-41591790D01*
X65935143Y-41591790D02*
X66007714Y-41628075D01*
X66007714Y-41628075D02*
X66152857Y-41628075D01*
X66152857Y-41628075D02*
X66225429Y-41591790D01*
X66225429Y-41591790D02*
X66298000Y-41519218D01*
X66298000Y-41519218D02*
X66334286Y-41374075D01*
X66334286Y-41374075D02*
X66334286Y-41120075D01*
X66334286Y-41120075D02*
X66298000Y-40974932D01*
X66298000Y-40974932D02*
X66225429Y-40902361D01*
X66225429Y-40902361D02*
X66152857Y-40866075D01*
X68148571Y-42862515D02*
X68148571Y-42100515D01*
X68148571Y-42100515D02*
X67894571Y-42644801D01*
X67894571Y-42644801D02*
X67640571Y-42100515D01*
X67640571Y-42100515D02*
X67640571Y-42862515D01*
X67168857Y-42862515D02*
X67241428Y-42826230D01*
X67241428Y-42826230D02*
X67277714Y-42789944D01*
X67277714Y-42789944D02*
X67314000Y-42717372D01*
X67314000Y-42717372D02*
X67314000Y-42499658D01*
X67314000Y-42499658D02*
X67277714Y-42427087D01*
X67277714Y-42427087D02*
X67241428Y-42390801D01*
X67241428Y-42390801D02*
X67168857Y-42354515D01*
X67168857Y-42354515D02*
X67060000Y-42354515D01*
X67060000Y-42354515D02*
X66987428Y-42390801D01*
X66987428Y-42390801D02*
X66951143Y-42427087D01*
X66951143Y-42427087D02*
X66914857Y-42499658D01*
X66914857Y-42499658D02*
X66914857Y-42717372D01*
X66914857Y-42717372D02*
X66951143Y-42789944D01*
X66951143Y-42789944D02*
X66987428Y-42826230D01*
X66987428Y-42826230D02*
X67060000Y-42862515D01*
X67060000Y-42862515D02*
X67168857Y-42862515D01*
X66479428Y-42862515D02*
X66551999Y-42826230D01*
X66551999Y-42826230D02*
X66588285Y-42753658D01*
X66588285Y-42753658D02*
X66588285Y-42100515D01*
X65898856Y-42826230D02*
X65971428Y-42862515D01*
X65971428Y-42862515D02*
X66116571Y-42862515D01*
X66116571Y-42862515D02*
X66189142Y-42826230D01*
X66189142Y-42826230D02*
X66225428Y-42753658D01*
X66225428Y-42753658D02*
X66225428Y-42463372D01*
X66225428Y-42463372D02*
X66189142Y-42390801D01*
X66189142Y-42390801D02*
X66116571Y-42354515D01*
X66116571Y-42354515D02*
X65971428Y-42354515D01*
X65971428Y-42354515D02*
X65898856Y-42390801D01*
X65898856Y-42390801D02*
X65862571Y-42463372D01*
X65862571Y-42463372D02*
X65862571Y-42535944D01*
X65862571Y-42535944D02*
X66225428Y-42608515D01*
X65608570Y-42862515D02*
X65209428Y-42354515D01*
X65608570Y-42354515D02*
X65209428Y-42862515D01*
X63939428Y-42862515D02*
X64374857Y-42862515D01*
X64157142Y-42862515D02*
X64157142Y-42100515D01*
X64157142Y-42100515D02*
X64229714Y-42209372D01*
X64229714Y-42209372D02*
X64302285Y-42281944D01*
X64302285Y-42281944D02*
X64374857Y-42318230D01*
X63467714Y-42100515D02*
X63395143Y-42100515D01*
X63395143Y-42100515D02*
X63322571Y-42136801D01*
X63322571Y-42136801D02*
X63286286Y-42173087D01*
X63286286Y-42173087D02*
X63250000Y-42245658D01*
X63250000Y-42245658D02*
X63213714Y-42390801D01*
X63213714Y-42390801D02*
X63213714Y-42572230D01*
X63213714Y-42572230D02*
X63250000Y-42717372D01*
X63250000Y-42717372D02*
X63286286Y-42789944D01*
X63286286Y-42789944D02*
X63322571Y-42826230D01*
X63322571Y-42826230D02*
X63395143Y-42862515D01*
X63395143Y-42862515D02*
X63467714Y-42862515D01*
X63467714Y-42862515D02*
X63540286Y-42826230D01*
X63540286Y-42826230D02*
X63576571Y-42789944D01*
X63576571Y-42789944D02*
X63612857Y-42717372D01*
X63612857Y-42717372D02*
X63649143Y-42572230D01*
X63649143Y-42572230D02*
X63649143Y-42390801D01*
X63649143Y-42390801D02*
X63612857Y-42245658D01*
X63612857Y-42245658D02*
X63576571Y-42173087D01*
X63576571Y-42173087D02*
X63540286Y-42136801D01*
X63540286Y-42136801D02*
X63467714Y-42100515D01*
X62560572Y-42354515D02*
X62560572Y-42862515D01*
X62742000Y-42064230D02*
X62923429Y-42608515D01*
X62923429Y-42608515D02*
X62451714Y-42608515D01*
X62016286Y-42100515D02*
X61943715Y-42100515D01*
X61943715Y-42100515D02*
X61871143Y-42136801D01*
X61871143Y-42136801D02*
X61834858Y-42173087D01*
X61834858Y-42173087D02*
X61798572Y-42245658D01*
X61798572Y-42245658D02*
X61762286Y-42390801D01*
X61762286Y-42390801D02*
X61762286Y-42572230D01*
X61762286Y-42572230D02*
X61798572Y-42717372D01*
X61798572Y-42717372D02*
X61834858Y-42789944D01*
X61834858Y-42789944D02*
X61871143Y-42826230D01*
X61871143Y-42826230D02*
X61943715Y-42862515D01*
X61943715Y-42862515D02*
X62016286Y-42862515D01*
X62016286Y-42862515D02*
X62088858Y-42826230D01*
X62088858Y-42826230D02*
X62125143Y-42789944D01*
X62125143Y-42789944D02*
X62161429Y-42717372D01*
X62161429Y-42717372D02*
X62197715Y-42572230D01*
X62197715Y-42572230D02*
X62197715Y-42390801D01*
X62197715Y-42390801D02*
X62161429Y-42245658D01*
X62161429Y-42245658D02*
X62125143Y-42173087D01*
X62125143Y-42173087D02*
X62088858Y-42136801D01*
X62088858Y-42136801D02*
X62016286Y-42100515D01*
X61508286Y-42100515D02*
X61036572Y-42100515D01*
X61036572Y-42100515D02*
X61290572Y-42390801D01*
X61290572Y-42390801D02*
X61181715Y-42390801D01*
X61181715Y-42390801D02*
X61109144Y-42427087D01*
X61109144Y-42427087D02*
X61072858Y-42463372D01*
X61072858Y-42463372D02*
X61036572Y-42535944D01*
X61036572Y-42535944D02*
X61036572Y-42717372D01*
X61036572Y-42717372D02*
X61072858Y-42789944D01*
X61072858Y-42789944D02*
X61109144Y-42826230D01*
X61109144Y-42826230D02*
X61181715Y-42862515D01*
X61181715Y-42862515D02*
X61399429Y-42862515D01*
X61399429Y-42862515D02*
X61472001Y-42826230D01*
X61472001Y-42826230D02*
X61508286Y-42789944D01*
X60310858Y-42862515D02*
X60746287Y-42862515D01*
X60528572Y-42862515D02*
X60528572Y-42100515D01*
X60528572Y-42100515D02*
X60601144Y-42209372D01*
X60601144Y-42209372D02*
X60673715Y-42281944D01*
X60673715Y-42281944D02*
X60746287Y-42318230D01*
X59984287Y-42572230D02*
X59403716Y-42572230D01*
X58895715Y-42100515D02*
X58823144Y-42100515D01*
X58823144Y-42100515D02*
X58750572Y-42136801D01*
X58750572Y-42136801D02*
X58714287Y-42173087D01*
X58714287Y-42173087D02*
X58678001Y-42245658D01*
X58678001Y-42245658D02*
X58641715Y-42390801D01*
X58641715Y-42390801D02*
X58641715Y-42572230D01*
X58641715Y-42572230D02*
X58678001Y-42717372D01*
X58678001Y-42717372D02*
X58714287Y-42789944D01*
X58714287Y-42789944D02*
X58750572Y-42826230D01*
X58750572Y-42826230D02*
X58823144Y-42862515D01*
X58823144Y-42862515D02*
X58895715Y-42862515D01*
X58895715Y-42862515D02*
X58968287Y-42826230D01*
X58968287Y-42826230D02*
X59004572Y-42789944D01*
X59004572Y-42789944D02*
X59040858Y-42717372D01*
X59040858Y-42717372D02*
X59077144Y-42572230D01*
X59077144Y-42572230D02*
X59077144Y-42390801D01*
X59077144Y-42390801D02*
X59040858Y-42245658D01*
X59040858Y-42245658D02*
X59004572Y-42173087D01*
X59004572Y-42173087D02*
X58968287Y-42136801D01*
X58968287Y-42136801D02*
X58895715Y-42100515D01*
X58206287Y-42427087D02*
X58278858Y-42390801D01*
X58278858Y-42390801D02*
X58315144Y-42354515D01*
X58315144Y-42354515D02*
X58351430Y-42281944D01*
X58351430Y-42281944D02*
X58351430Y-42245658D01*
X58351430Y-42245658D02*
X58315144Y-42173087D01*
X58315144Y-42173087D02*
X58278858Y-42136801D01*
X58278858Y-42136801D02*
X58206287Y-42100515D01*
X58206287Y-42100515D02*
X58061144Y-42100515D01*
X58061144Y-42100515D02*
X57988573Y-42136801D01*
X57988573Y-42136801D02*
X57952287Y-42173087D01*
X57952287Y-42173087D02*
X57916001Y-42245658D01*
X57916001Y-42245658D02*
X57916001Y-42281944D01*
X57916001Y-42281944D02*
X57952287Y-42354515D01*
X57952287Y-42354515D02*
X57988573Y-42390801D01*
X57988573Y-42390801D02*
X58061144Y-42427087D01*
X58061144Y-42427087D02*
X58206287Y-42427087D01*
X58206287Y-42427087D02*
X58278858Y-42463372D01*
X58278858Y-42463372D02*
X58315144Y-42499658D01*
X58315144Y-42499658D02*
X58351430Y-42572230D01*
X58351430Y-42572230D02*
X58351430Y-42717372D01*
X58351430Y-42717372D02*
X58315144Y-42789944D01*
X58315144Y-42789944D02*
X58278858Y-42826230D01*
X58278858Y-42826230D02*
X58206287Y-42862515D01*
X58206287Y-42862515D02*
X58061144Y-42862515D01*
X58061144Y-42862515D02*
X57988573Y-42826230D01*
X57988573Y-42826230D02*
X57952287Y-42789944D01*
X57952287Y-42789944D02*
X57916001Y-42717372D01*
X57916001Y-42717372D02*
X57916001Y-42572230D01*
X57916001Y-42572230D02*
X57952287Y-42499658D01*
X57952287Y-42499658D02*
X57988573Y-42463372D01*
X57988573Y-42463372D02*
X58061144Y-42427087D01*
X57190287Y-42862515D02*
X57625716Y-42862515D01*
X57408001Y-42862515D02*
X57408001Y-42100515D01*
X57408001Y-42100515D02*
X57480573Y-42209372D01*
X57480573Y-42209372D02*
X57553144Y-42281944D01*
X57553144Y-42281944D02*
X57625716Y-42318230D01*
X56464573Y-42862515D02*
X56900002Y-42862515D01*
X56682287Y-42862515D02*
X56682287Y-42100515D01*
X56682287Y-42100515D02*
X56754859Y-42209372D01*
X56754859Y-42209372D02*
X56827430Y-42281944D01*
X56827430Y-42281944D02*
X56900002Y-42318230D01*
X68148571Y-44096955D02*
X68148571Y-43334955D01*
X68148571Y-43334955D02*
X67967142Y-43334955D01*
X67967142Y-43334955D02*
X67858285Y-43371241D01*
X67858285Y-43371241D02*
X67785714Y-43443812D01*
X67785714Y-43443812D02*
X67749428Y-43516384D01*
X67749428Y-43516384D02*
X67713142Y-43661527D01*
X67713142Y-43661527D02*
X67713142Y-43770384D01*
X67713142Y-43770384D02*
X67749428Y-43915527D01*
X67749428Y-43915527D02*
X67785714Y-43988098D01*
X67785714Y-43988098D02*
X67858285Y-44060670D01*
X67858285Y-44060670D02*
X67967142Y-44096955D01*
X67967142Y-44096955D02*
X68148571Y-44096955D01*
X67386571Y-43697812D02*
X67132571Y-43697812D01*
X67023714Y-44096955D02*
X67386571Y-44096955D01*
X67386571Y-44096955D02*
X67386571Y-43334955D01*
X67386571Y-43334955D02*
X67023714Y-43334955D01*
X66805999Y-43334955D02*
X66370571Y-43334955D01*
X66588285Y-44096955D02*
X66588285Y-43334955D01*
X66116571Y-44024384D02*
X66080285Y-44060670D01*
X66080285Y-44060670D02*
X66116571Y-44096955D01*
X66116571Y-44096955D02*
X66152857Y-44060670D01*
X66152857Y-44060670D02*
X66116571Y-44024384D01*
X66116571Y-44024384D02*
X66116571Y-44096955D01*
X66116571Y-43625241D02*
X66080285Y-43661527D01*
X66080285Y-43661527D02*
X66116571Y-43697812D01*
X66116571Y-43697812D02*
X66152857Y-43661527D01*
X66152857Y-43661527D02*
X66116571Y-43625241D01*
X66116571Y-43625241D02*
X66116571Y-43697812D01*
X64774000Y-43371241D02*
X64846572Y-43334955D01*
X64846572Y-43334955D02*
X64955429Y-43334955D01*
X64955429Y-43334955D02*
X65064286Y-43371241D01*
X65064286Y-43371241D02*
X65136857Y-43443812D01*
X65136857Y-43443812D02*
X65173143Y-43516384D01*
X65173143Y-43516384D02*
X65209429Y-43661527D01*
X65209429Y-43661527D02*
X65209429Y-43770384D01*
X65209429Y-43770384D02*
X65173143Y-43915527D01*
X65173143Y-43915527D02*
X65136857Y-43988098D01*
X65136857Y-43988098D02*
X65064286Y-44060670D01*
X65064286Y-44060670D02*
X64955429Y-44096955D01*
X64955429Y-44096955D02*
X64882857Y-44096955D01*
X64882857Y-44096955D02*
X64774000Y-44060670D01*
X64774000Y-44060670D02*
X64737714Y-44024384D01*
X64737714Y-44024384D02*
X64737714Y-43770384D01*
X64737714Y-43770384D02*
X64882857Y-43770384D01*
X64411143Y-44096955D02*
X64411143Y-43334955D01*
X64411143Y-43334955D02*
X64120857Y-43334955D01*
X64120857Y-43334955D02*
X64048286Y-43371241D01*
X64048286Y-43371241D02*
X64012000Y-43407527D01*
X64012000Y-43407527D02*
X63975714Y-43480098D01*
X63975714Y-43480098D02*
X63975714Y-43588955D01*
X63975714Y-43588955D02*
X64012000Y-43661527D01*
X64012000Y-43661527D02*
X64048286Y-43697812D01*
X64048286Y-43697812D02*
X64120857Y-43734098D01*
X64120857Y-43734098D02*
X64411143Y-43734098D01*
X63250000Y-43371241D02*
X63322572Y-43334955D01*
X63322572Y-43334955D02*
X63431429Y-43334955D01*
X63431429Y-43334955D02*
X63540286Y-43371241D01*
X63540286Y-43371241D02*
X63612857Y-43443812D01*
X63612857Y-43443812D02*
X63649143Y-43516384D01*
X63649143Y-43516384D02*
X63685429Y-43661527D01*
X63685429Y-43661527D02*
X63685429Y-43770384D01*
X63685429Y-43770384D02*
X63649143Y-43915527D01*
X63649143Y-43915527D02*
X63612857Y-43988098D01*
X63612857Y-43988098D02*
X63540286Y-44060670D01*
X63540286Y-44060670D02*
X63431429Y-44096955D01*
X63431429Y-44096955D02*
X63358857Y-44096955D01*
X63358857Y-44096955D02*
X63250000Y-44060670D01*
X63250000Y-44060670D02*
X63213714Y-44024384D01*
X63213714Y-44024384D02*
X63213714Y-43770384D01*
X63213714Y-43770384D02*
X63358857Y-43770384D01*
X62560572Y-43334955D02*
X62705714Y-43334955D01*
X62705714Y-43334955D02*
X62778286Y-43371241D01*
X62778286Y-43371241D02*
X62814572Y-43407527D01*
X62814572Y-43407527D02*
X62887143Y-43516384D01*
X62887143Y-43516384D02*
X62923429Y-43661527D01*
X62923429Y-43661527D02*
X62923429Y-43951812D01*
X62923429Y-43951812D02*
X62887143Y-44024384D01*
X62887143Y-44024384D02*
X62850857Y-44060670D01*
X62850857Y-44060670D02*
X62778286Y-44096955D01*
X62778286Y-44096955D02*
X62633143Y-44096955D01*
X62633143Y-44096955D02*
X62560572Y-44060670D01*
X62560572Y-44060670D02*
X62524286Y-44024384D01*
X62524286Y-44024384D02*
X62488000Y-43951812D01*
X62488000Y-43951812D02*
X62488000Y-43770384D01*
X62488000Y-43770384D02*
X62524286Y-43697812D01*
X62524286Y-43697812D02*
X62560572Y-43661527D01*
X62560572Y-43661527D02*
X62633143Y-43625241D01*
X62633143Y-43625241D02*
X62778286Y-43625241D01*
X62778286Y-43625241D02*
X62850857Y-43661527D01*
X62850857Y-43661527D02*
X62887143Y-43697812D01*
X62887143Y-43697812D02*
X62923429Y-43770384D01*
X39260000Y-21402000D02*
X39260000Y-20498000D01*
X25250000Y-20506000D02*
X25250000Y-21410000D01*
X25266000Y-34490000D02*
X26170000Y-34490000D01*
X38348000Y-34490000D02*
X39252000Y-34490000D01*
X39254000Y-20500000D02*
X38350000Y-20500000D01*
D11*
X68470000Y-26249750D02*
X68470000Y-33930250D01*
D10*
X25260000Y-33588000D02*
X25260000Y-34492000D01*
X26152000Y-20500000D02*
X25248000Y-20500000D01*
X39250000Y-34484000D02*
X39250000Y-33580000D01*
D12*
X67049714Y-30529182D02*
X66324000Y-30529182D01*
X67194857Y-30964611D02*
X66686857Y-29440611D01*
X66686857Y-29440611D02*
X66178857Y-30964611D01*
X65453142Y-30964611D02*
X65598285Y-30892040D01*
X65598285Y-30892040D02*
X65670856Y-30746897D01*
X65670856Y-30746897D02*
X65670856Y-29440611D01*
X64872570Y-30964611D02*
X64872570Y-29948611D01*
X64872570Y-30093754D02*
X64799999Y-30021182D01*
X64799999Y-30021182D02*
X64654856Y-29948611D01*
X64654856Y-29948611D02*
X64437142Y-29948611D01*
X64437142Y-29948611D02*
X64291999Y-30021182D01*
X64291999Y-30021182D02*
X64219428Y-30166325D01*
X64219428Y-30166325D02*
X64219428Y-30964611D01*
X64219428Y-30166325D02*
X64146856Y-30021182D01*
X64146856Y-30021182D02*
X64001713Y-29948611D01*
X64001713Y-29948611D02*
X63783999Y-29948611D01*
X63783999Y-29948611D02*
X63638856Y-30021182D01*
X63638856Y-30021182D02*
X63566285Y-30166325D01*
X63566285Y-30166325D02*
X63566285Y-30964611D01*
X62622856Y-30964611D02*
X62767999Y-30892040D01*
X62767999Y-30892040D02*
X62840570Y-30819468D01*
X62840570Y-30819468D02*
X62913142Y-30674325D01*
X62913142Y-30674325D02*
X62913142Y-30238897D01*
X62913142Y-30238897D02*
X62840570Y-30093754D01*
X62840570Y-30093754D02*
X62767999Y-30021182D01*
X62767999Y-30021182D02*
X62622856Y-29948611D01*
X62622856Y-29948611D02*
X62405142Y-29948611D01*
X62405142Y-29948611D02*
X62259999Y-30021182D01*
X62259999Y-30021182D02*
X62187428Y-30093754D01*
X62187428Y-30093754D02*
X62114856Y-30238897D01*
X62114856Y-30238897D02*
X62114856Y-30674325D01*
X62114856Y-30674325D02*
X62187428Y-30819468D01*
X62187428Y-30819468D02*
X62259999Y-30892040D01*
X62259999Y-30892040D02*
X62405142Y-30964611D01*
X62405142Y-30964611D02*
X62622856Y-30964611D01*
X61461713Y-29948611D02*
X61461713Y-30964611D01*
X61461713Y-30093754D02*
X61389142Y-30021182D01*
X61389142Y-30021182D02*
X61243999Y-29948611D01*
X61243999Y-29948611D02*
X61026285Y-29948611D01*
X61026285Y-29948611D02*
X60881142Y-30021182D01*
X60881142Y-30021182D02*
X60808571Y-30166325D01*
X60808571Y-30166325D02*
X60808571Y-30964611D01*
X59429714Y-30964611D02*
X59429714Y-29440611D01*
X59429714Y-30892040D02*
X59574856Y-30964611D01*
X59574856Y-30964611D02*
X59865142Y-30964611D01*
X59865142Y-30964611D02*
X60010285Y-30892040D01*
X60010285Y-30892040D02*
X60082856Y-30819468D01*
X60082856Y-30819468D02*
X60155428Y-30674325D01*
X60155428Y-30674325D02*
X60155428Y-30238897D01*
X60155428Y-30238897D02*
X60082856Y-30093754D01*
X60082856Y-30093754D02*
X60010285Y-30021182D01*
X60010285Y-30021182D02*
X59865142Y-29948611D01*
X59865142Y-29948611D02*
X59574856Y-29948611D01*
X59574856Y-29948611D02*
X59429714Y-30021182D01*
X57542856Y-30964611D02*
X57542856Y-29440611D01*
X57542856Y-29440611D02*
X57034856Y-30529182D01*
X57034856Y-30529182D02*
X56526856Y-29440611D01*
X56526856Y-29440611D02*
X56526856Y-30964611D01*
X55801142Y-30964611D02*
X55801142Y-29948611D01*
X55801142Y-29440611D02*
X55873714Y-29513182D01*
X55873714Y-29513182D02*
X55801142Y-29585754D01*
X55801142Y-29585754D02*
X55728571Y-29513182D01*
X55728571Y-29513182D02*
X55801142Y-29440611D01*
X55801142Y-29440611D02*
X55801142Y-29585754D01*
X55075428Y-29948611D02*
X55075428Y-30964611D01*
X55075428Y-30093754D02*
X55002857Y-30021182D01*
X55002857Y-30021182D02*
X54857714Y-29948611D01*
X54857714Y-29948611D02*
X54640000Y-29948611D01*
X54640000Y-29948611D02*
X54494857Y-30021182D01*
X54494857Y-30021182D02*
X54422286Y-30166325D01*
X54422286Y-30166325D02*
X54422286Y-30964611D01*
X53696571Y-30964611D02*
X53696571Y-29948611D01*
X53696571Y-29440611D02*
X53769143Y-29513182D01*
X53769143Y-29513182D02*
X53696571Y-29585754D01*
X53696571Y-29585754D02*
X53624000Y-29513182D01*
X53624000Y-29513182D02*
X53696571Y-29440611D01*
X53696571Y-29440611D02*
X53696571Y-29585754D01*
X51954857Y-29948611D02*
X51592000Y-30964611D01*
X51592000Y-30964611D02*
X51229143Y-29948611D01*
X49850286Y-30964611D02*
X50721143Y-30964611D01*
X50285714Y-30964611D02*
X50285714Y-29440611D01*
X50285714Y-29440611D02*
X50430857Y-29658325D01*
X50430857Y-29658325D02*
X50576000Y-29803468D01*
X50576000Y-29803468D02*
X50721143Y-29876040D01*
X49197142Y-30964611D02*
X49197142Y-29948611D01*
X49197142Y-30238897D02*
X49124571Y-30093754D01*
X49124571Y-30093754D02*
X49052000Y-30021182D01*
X49052000Y-30021182D02*
X48906857Y-29948611D01*
X48906857Y-29948611D02*
X48761714Y-29948611D01*
X47963428Y-29440611D02*
X47818285Y-29440611D01*
X47818285Y-29440611D02*
X47673142Y-29513182D01*
X47673142Y-29513182D02*
X47600571Y-29585754D01*
X47600571Y-29585754D02*
X47527999Y-29730897D01*
X47527999Y-29730897D02*
X47455428Y-30021182D01*
X47455428Y-30021182D02*
X47455428Y-30384040D01*
X47455428Y-30384040D02*
X47527999Y-30674325D01*
X47527999Y-30674325D02*
X47600571Y-30819468D01*
X47600571Y-30819468D02*
X47673142Y-30892040D01*
X47673142Y-30892040D02*
X47818285Y-30964611D01*
X47818285Y-30964611D02*
X47963428Y-30964611D01*
X47963428Y-30964611D02*
X48108571Y-30892040D01*
X48108571Y-30892040D02*
X48181142Y-30819468D01*
X48181142Y-30819468D02*
X48253713Y-30674325D01*
X48253713Y-30674325D02*
X48326285Y-30384040D01*
X48326285Y-30384040D02*
X48326285Y-30021182D01*
X48326285Y-30021182D02*
X48253713Y-29730897D01*
X48253713Y-29730897D02*
X48181142Y-29585754D01*
X48181142Y-29585754D02*
X48108571Y-29513182D01*
X48108571Y-29513182D02*
X47963428Y-29440611D01*
X46947427Y-30964611D02*
X46149142Y-29948611D01*
X46947427Y-29948611D02*
X46149142Y-30964611D01*
X44770285Y-30964611D02*
X45641142Y-30964611D01*
X45205713Y-30964611D02*
X45205713Y-29440611D01*
X45205713Y-29440611D02*
X45350856Y-29658325D01*
X45350856Y-29658325D02*
X45495999Y-29803468D01*
X45495999Y-29803468D02*
X45641142Y-29876040D01*
X44334856Y-29948611D02*
X43754284Y-29948611D01*
X44117141Y-30964611D02*
X44117141Y-29658325D01*
X44117141Y-29658325D02*
X44044570Y-29513182D01*
X44044570Y-29513182D02*
X43899427Y-29440611D01*
X43899427Y-29440611D02*
X43754284Y-29440611D01*
X42520570Y-29440611D02*
X43246284Y-29440611D01*
X43246284Y-29440611D02*
X43318856Y-30166325D01*
X43318856Y-30166325D02*
X43246284Y-30093754D01*
X43246284Y-30093754D02*
X43101142Y-30021182D01*
X43101142Y-30021182D02*
X42738284Y-30021182D01*
X42738284Y-30021182D02*
X42593142Y-30093754D01*
X42593142Y-30093754D02*
X42520570Y-30166325D01*
X42520570Y-30166325D02*
X42447999Y-30311468D01*
X42447999Y-30311468D02*
X42447999Y-30674325D01*
X42447999Y-30674325D02*
X42520570Y-30819468D01*
X42520570Y-30819468D02*
X42593142Y-30892040D01*
X42593142Y-30892040D02*
X42738284Y-30964611D01*
X42738284Y-30964611D02*
X43101142Y-30964611D01*
X43101142Y-30964611D02*
X43246284Y-30892040D01*
X43246284Y-30892040D02*
X43318856Y-30819468D01*
X66324000Y-32417491D02*
X66324000Y-33651205D01*
X66324000Y-33651205D02*
X66396571Y-33796348D01*
X66396571Y-33796348D02*
X66469142Y-33868920D01*
X66469142Y-33868920D02*
X66614285Y-33941491D01*
X66614285Y-33941491D02*
X66832000Y-33941491D01*
X66832000Y-33941491D02*
X66977142Y-33868920D01*
X66324000Y-33360920D02*
X66469142Y-33433491D01*
X66469142Y-33433491D02*
X66759428Y-33433491D01*
X66759428Y-33433491D02*
X66904571Y-33360920D01*
X66904571Y-33360920D02*
X66977142Y-33288348D01*
X66977142Y-33288348D02*
X67049714Y-33143205D01*
X67049714Y-33143205D02*
X67049714Y-32707777D01*
X67049714Y-32707777D02*
X66977142Y-32562634D01*
X66977142Y-32562634D02*
X66904571Y-32490062D01*
X66904571Y-32490062D02*
X66759428Y-32417491D01*
X66759428Y-32417491D02*
X66469142Y-32417491D01*
X66469142Y-32417491D02*
X66324000Y-32490062D01*
X65598285Y-33433491D02*
X65598285Y-32417491D01*
X65598285Y-31909491D02*
X65670857Y-31982062D01*
X65670857Y-31982062D02*
X65598285Y-32054634D01*
X65598285Y-32054634D02*
X65525714Y-31982062D01*
X65525714Y-31982062D02*
X65598285Y-31909491D01*
X65598285Y-31909491D02*
X65598285Y-32054634D01*
X65090286Y-32417491D02*
X64509714Y-32417491D01*
X64872571Y-31909491D02*
X64872571Y-33215777D01*
X64872571Y-33215777D02*
X64800000Y-33360920D01*
X64800000Y-33360920D02*
X64654857Y-33433491D01*
X64654857Y-33433491D02*
X64509714Y-33433491D01*
X64001714Y-33433491D02*
X64001714Y-31909491D01*
X63348572Y-33433491D02*
X63348572Y-32635205D01*
X63348572Y-32635205D02*
X63421143Y-32490062D01*
X63421143Y-32490062D02*
X63566286Y-32417491D01*
X63566286Y-32417491D02*
X63784000Y-32417491D01*
X63784000Y-32417491D02*
X63929143Y-32490062D01*
X63929143Y-32490062D02*
X64001714Y-32562634D01*
X61969715Y-32417491D02*
X61969715Y-33433491D01*
X62622857Y-32417491D02*
X62622857Y-33215777D01*
X62622857Y-33215777D02*
X62550286Y-33360920D01*
X62550286Y-33360920D02*
X62405143Y-33433491D01*
X62405143Y-33433491D02*
X62187429Y-33433491D01*
X62187429Y-33433491D02*
X62042286Y-33360920D01*
X62042286Y-33360920D02*
X61969715Y-33288348D01*
X61244000Y-33433491D02*
X61244000Y-31909491D01*
X61244000Y-32490062D02*
X61098858Y-32417491D01*
X61098858Y-32417491D02*
X60808572Y-32417491D01*
X60808572Y-32417491D02*
X60663429Y-32490062D01*
X60663429Y-32490062D02*
X60590858Y-32562634D01*
X60590858Y-32562634D02*
X60518286Y-32707777D01*
X60518286Y-32707777D02*
X60518286Y-33143205D01*
X60518286Y-33143205D02*
X60590858Y-33288348D01*
X60590858Y-33288348D02*
X60663429Y-33360920D01*
X60663429Y-33360920D02*
X60808572Y-33433491D01*
X60808572Y-33433491D02*
X61098858Y-33433491D01*
X61098858Y-33433491D02*
X61244000Y-33360920D01*
X59865143Y-33288348D02*
X59792572Y-33360920D01*
X59792572Y-33360920D02*
X59865143Y-33433491D01*
X59865143Y-33433491D02*
X59937715Y-33360920D01*
X59937715Y-33360920D02*
X59865143Y-33288348D01*
X59865143Y-33288348D02*
X59865143Y-33433491D01*
X59865143Y-32490062D02*
X59792572Y-32562634D01*
X59792572Y-32562634D02*
X59865143Y-32635205D01*
X59865143Y-32635205D02*
X59937715Y-32562634D01*
X59937715Y-32562634D02*
X59865143Y-32490062D01*
X59865143Y-32490062D02*
X59865143Y-32635205D01*
X59139429Y-32417491D02*
X59139429Y-33723777D01*
X59139429Y-33723777D02*
X59212001Y-33868920D01*
X59212001Y-33868920D02*
X59357144Y-33941491D01*
X59357144Y-33941491D02*
X59429715Y-33941491D01*
X59139429Y-31909491D02*
X59212001Y-31982062D01*
X59212001Y-31982062D02*
X59139429Y-32054634D01*
X59139429Y-32054634D02*
X59066858Y-31982062D01*
X59066858Y-31982062D02*
X59139429Y-31909491D01*
X59139429Y-31909491D02*
X59139429Y-32054634D01*
X58196001Y-33433491D02*
X58341144Y-33360920D01*
X58341144Y-33360920D02*
X58413715Y-33215777D01*
X58413715Y-33215777D02*
X58413715Y-31909491D01*
X57760572Y-32417491D02*
X57397715Y-33433491D01*
X57034858Y-32417491D02*
X57397715Y-33433491D01*
X57397715Y-33433491D02*
X57542858Y-33796348D01*
X57542858Y-33796348D02*
X57615429Y-33868920D01*
X57615429Y-33868920D02*
X57760572Y-33941491D01*
X56599429Y-32417491D02*
X56309144Y-33433491D01*
X56309144Y-33433491D02*
X56018858Y-32707777D01*
X56018858Y-32707777D02*
X55728572Y-33433491D01*
X55728572Y-33433491D02*
X55438286Y-32417491D01*
X55002858Y-33433491D02*
X54204573Y-32417491D01*
X55002858Y-32417491D02*
X54204573Y-33433491D01*
X53769144Y-32417491D02*
X53406287Y-33433491D01*
X53043430Y-32417491D02*
X53406287Y-33433491D01*
X53406287Y-33433491D02*
X53551430Y-33796348D01*
X53551430Y-33796348D02*
X53624001Y-33868920D01*
X53624001Y-33868920D02*
X53769144Y-33941491D01*
X51374287Y-31836920D02*
X52680573Y-33796348D01*
X50938859Y-33360920D02*
X50793716Y-33433491D01*
X50793716Y-33433491D02*
X50503430Y-33433491D01*
X50503430Y-33433491D02*
X50358287Y-33360920D01*
X50358287Y-33360920D02*
X50285716Y-33215777D01*
X50285716Y-33215777D02*
X50285716Y-33143205D01*
X50285716Y-33143205D02*
X50358287Y-32998062D01*
X50358287Y-32998062D02*
X50503430Y-32925491D01*
X50503430Y-32925491D02*
X50721145Y-32925491D01*
X50721145Y-32925491D02*
X50866287Y-32852920D01*
X50866287Y-32852920D02*
X50938859Y-32707777D01*
X50938859Y-32707777D02*
X50938859Y-32635205D01*
X50938859Y-32635205D02*
X50866287Y-32490062D01*
X50866287Y-32490062D02*
X50721145Y-32417491D01*
X50721145Y-32417491D02*
X50503430Y-32417491D01*
X50503430Y-32417491D02*
X50358287Y-32490062D01*
X49414859Y-33433491D02*
X49560002Y-33360920D01*
X49560002Y-33360920D02*
X49632573Y-33215777D01*
X49632573Y-33215777D02*
X49632573Y-31909491D01*
X48834287Y-33433491D02*
X48834287Y-32417491D01*
X48834287Y-31909491D02*
X48906859Y-31982062D01*
X48906859Y-31982062D02*
X48834287Y-32054634D01*
X48834287Y-32054634D02*
X48761716Y-31982062D01*
X48761716Y-31982062D02*
X48834287Y-31909491D01*
X48834287Y-31909491D02*
X48834287Y-32054634D01*
X48108573Y-33433491D02*
X48108573Y-32417491D01*
X48108573Y-32562634D02*
X48036002Y-32490062D01*
X48036002Y-32490062D02*
X47890859Y-32417491D01*
X47890859Y-32417491D02*
X47673145Y-32417491D01*
X47673145Y-32417491D02*
X47528002Y-32490062D01*
X47528002Y-32490062D02*
X47455431Y-32635205D01*
X47455431Y-32635205D02*
X47455431Y-33433491D01*
X47455431Y-32635205D02*
X47382859Y-32490062D01*
X47382859Y-32490062D02*
X47237716Y-32417491D01*
X47237716Y-32417491D02*
X47020002Y-32417491D01*
X47020002Y-32417491D02*
X46874859Y-32490062D01*
X46874859Y-32490062D02*
X46802288Y-32635205D01*
X46802288Y-32635205D02*
X46802288Y-33433491D01*
X45423431Y-33433491D02*
X45423431Y-32635205D01*
X45423431Y-32635205D02*
X45496002Y-32490062D01*
X45496002Y-32490062D02*
X45641145Y-32417491D01*
X45641145Y-32417491D02*
X45931431Y-32417491D01*
X45931431Y-32417491D02*
X46076573Y-32490062D01*
X45423431Y-33360920D02*
X45568573Y-33433491D01*
X45568573Y-33433491D02*
X45931431Y-33433491D01*
X45931431Y-33433491D02*
X46076573Y-33360920D01*
X46076573Y-33360920D02*
X46149145Y-33215777D01*
X46149145Y-33215777D02*
X46149145Y-33070634D01*
X46149145Y-33070634D02*
X46076573Y-32925491D01*
X46076573Y-32925491D02*
X45931431Y-32852920D01*
X45931431Y-32852920D02*
X45568573Y-32852920D01*
X45568573Y-32852920D02*
X45423431Y-32780348D01*
X44697716Y-33433491D02*
X44697716Y-32417491D01*
X44697716Y-32707777D02*
X44625145Y-32562634D01*
X44625145Y-32562634D02*
X44552574Y-32490062D01*
X44552574Y-32490062D02*
X44407431Y-32417491D01*
X44407431Y-32417491D02*
X44262288Y-32417491D01*
X43754287Y-33433491D02*
X43754287Y-32417491D01*
X43754287Y-32562634D02*
X43681716Y-32490062D01*
X43681716Y-32490062D02*
X43536573Y-32417491D01*
X43536573Y-32417491D02*
X43318859Y-32417491D01*
X43318859Y-32417491D02*
X43173716Y-32490062D01*
X43173716Y-32490062D02*
X43101145Y-32635205D01*
X43101145Y-32635205D02*
X43101145Y-33433491D01*
X43101145Y-32635205D02*
X43028573Y-32490062D01*
X43028573Y-32490062D02*
X42883430Y-32417491D01*
X42883430Y-32417491D02*
X42665716Y-32417491D01*
X42665716Y-32417491D02*
X42520573Y-32490062D01*
X42520573Y-32490062D02*
X42448002Y-32635205D01*
X42448002Y-32635205D02*
X42448002Y-33433491D01*
D10*
X28630713Y-37346125D02*
X28539999Y-37376363D01*
X28539999Y-37376363D02*
X28388808Y-37376363D01*
X28388808Y-37376363D02*
X28328332Y-37346125D01*
X28328332Y-37346125D02*
X28298094Y-37315886D01*
X28298094Y-37315886D02*
X28267856Y-37255410D01*
X28267856Y-37255410D02*
X28267856Y-37194934D01*
X28267856Y-37194934D02*
X28298094Y-37134458D01*
X28298094Y-37134458D02*
X28328332Y-37104220D01*
X28328332Y-37104220D02*
X28388808Y-37073982D01*
X28388808Y-37073982D02*
X28509761Y-37043744D01*
X28509761Y-37043744D02*
X28570237Y-37013505D01*
X28570237Y-37013505D02*
X28600475Y-36983267D01*
X28600475Y-36983267D02*
X28630713Y-36922791D01*
X28630713Y-36922791D02*
X28630713Y-36862315D01*
X28630713Y-36862315D02*
X28600475Y-36801839D01*
X28600475Y-36801839D02*
X28570237Y-36771601D01*
X28570237Y-36771601D02*
X28509761Y-36741363D01*
X28509761Y-36741363D02*
X28358570Y-36741363D01*
X28358570Y-36741363D02*
X28267856Y-36771601D01*
X27995713Y-37376363D02*
X27995713Y-36741363D01*
X27995713Y-36741363D02*
X27753808Y-36741363D01*
X27753808Y-36741363D02*
X27693332Y-36771601D01*
X27693332Y-36771601D02*
X27663094Y-36801839D01*
X27663094Y-36801839D02*
X27632856Y-36862315D01*
X27632856Y-36862315D02*
X27632856Y-36953029D01*
X27632856Y-36953029D02*
X27663094Y-37013505D01*
X27663094Y-37013505D02*
X27693332Y-37043744D01*
X27693332Y-37043744D02*
X27753808Y-37073982D01*
X27753808Y-37073982D02*
X27995713Y-37073982D01*
X27360713Y-37376363D02*
X27360713Y-36741363D01*
X26544284Y-37376363D02*
X26574523Y-37376363D01*
X26574523Y-37376363D02*
X26634999Y-37346125D01*
X26634999Y-37346125D02*
X26725713Y-37255410D01*
X26725713Y-37255410D02*
X26876903Y-37073982D01*
X26876903Y-37073982D02*
X26937380Y-36983267D01*
X26937380Y-36983267D02*
X26967618Y-36892553D01*
X26967618Y-36892553D02*
X26967618Y-36832077D01*
X26967618Y-36832077D02*
X26937380Y-36771601D01*
X26937380Y-36771601D02*
X26876903Y-36741363D01*
X26876903Y-36741363D02*
X26846665Y-36741363D01*
X26846665Y-36741363D02*
X26786189Y-36771601D01*
X26786189Y-36771601D02*
X26755951Y-36832077D01*
X26755951Y-36832077D02*
X26755951Y-36862315D01*
X26755951Y-36862315D02*
X26786189Y-36922791D01*
X26786189Y-36922791D02*
X26816427Y-36953029D01*
X26816427Y-36953029D02*
X26997856Y-37073982D01*
X26997856Y-37073982D02*
X27028094Y-37104220D01*
X27028094Y-37104220D02*
X27058332Y-37164696D01*
X27058332Y-37164696D02*
X27058332Y-37255410D01*
X27058332Y-37255410D02*
X27028094Y-37315886D01*
X27028094Y-37315886D02*
X26997856Y-37346125D01*
X26997856Y-37346125D02*
X26937380Y-37376363D01*
X26937380Y-37376363D02*
X26846665Y-37376363D01*
X26846665Y-37376363D02*
X26786189Y-37346125D01*
X26786189Y-37346125D02*
X26755951Y-37315886D01*
X26755951Y-37315886D02*
X26665237Y-37194934D01*
X26665237Y-37194934D02*
X26634999Y-37104220D01*
X26634999Y-37104220D02*
X26634999Y-37043744D01*
X26272142Y-36741363D02*
X26272142Y-37255410D01*
X26272142Y-37255410D02*
X26241904Y-37315886D01*
X26241904Y-37315886D02*
X26211666Y-37346125D01*
X26211666Y-37346125D02*
X26151190Y-37376363D01*
X26151190Y-37376363D02*
X26030237Y-37376363D01*
X26030237Y-37376363D02*
X25969761Y-37346125D01*
X25969761Y-37346125D02*
X25939523Y-37315886D01*
X25939523Y-37315886D02*
X25909285Y-37255410D01*
X25909285Y-37255410D02*
X25909285Y-36741363D01*
X25637142Y-37346125D02*
X25546428Y-37376363D01*
X25546428Y-37376363D02*
X25395237Y-37376363D01*
X25395237Y-37376363D02*
X25334761Y-37346125D01*
X25334761Y-37346125D02*
X25304523Y-37315886D01*
X25304523Y-37315886D02*
X25274285Y-37255410D01*
X25274285Y-37255410D02*
X25274285Y-37194934D01*
X25274285Y-37194934D02*
X25304523Y-37134458D01*
X25304523Y-37134458D02*
X25334761Y-37104220D01*
X25334761Y-37104220D02*
X25395237Y-37073982D01*
X25395237Y-37073982D02*
X25516190Y-37043744D01*
X25516190Y-37043744D02*
X25576666Y-37013505D01*
X25576666Y-37013505D02*
X25606904Y-36983267D01*
X25606904Y-36983267D02*
X25637142Y-36922791D01*
X25637142Y-36922791D02*
X25637142Y-36862315D01*
X25637142Y-36862315D02*
X25606904Y-36801839D01*
X25606904Y-36801839D02*
X25576666Y-36771601D01*
X25576666Y-36771601D02*
X25516190Y-36741363D01*
X25516190Y-36741363D02*
X25364999Y-36741363D01*
X25364999Y-36741363D02*
X25274285Y-36771601D01*
X24790475Y-37043744D02*
X24699761Y-37073982D01*
X24699761Y-37073982D02*
X24669523Y-37104220D01*
X24669523Y-37104220D02*
X24639285Y-37164696D01*
X24639285Y-37164696D02*
X24639285Y-37255410D01*
X24639285Y-37255410D02*
X24669523Y-37315886D01*
X24669523Y-37315886D02*
X24699761Y-37346125D01*
X24699761Y-37346125D02*
X24760237Y-37376363D01*
X24760237Y-37376363D02*
X25002142Y-37376363D01*
X25002142Y-37376363D02*
X25002142Y-36741363D01*
X25002142Y-36741363D02*
X24790475Y-36741363D01*
X24790475Y-36741363D02*
X24729999Y-36771601D01*
X24729999Y-36771601D02*
X24699761Y-36801839D01*
X24699761Y-36801839D02*
X24669523Y-36862315D01*
X24669523Y-36862315D02*
X24669523Y-36922791D01*
X24669523Y-36922791D02*
X24699761Y-36983267D01*
X24699761Y-36983267D02*
X24729999Y-37013505D01*
X24729999Y-37013505D02*
X24790475Y-37043744D01*
X24790475Y-37043744D02*
X25002142Y-37043744D01*
X23853094Y-37376363D02*
X23883333Y-37376363D01*
X23883333Y-37376363D02*
X23943809Y-37346125D01*
X23943809Y-37346125D02*
X24034523Y-37255410D01*
X24034523Y-37255410D02*
X24185713Y-37073982D01*
X24185713Y-37073982D02*
X24246190Y-36983267D01*
X24246190Y-36983267D02*
X24276428Y-36892553D01*
X24276428Y-36892553D02*
X24276428Y-36832077D01*
X24276428Y-36832077D02*
X24246190Y-36771601D01*
X24246190Y-36771601D02*
X24185713Y-36741363D01*
X24185713Y-36741363D02*
X24155475Y-36741363D01*
X24155475Y-36741363D02*
X24094999Y-36771601D01*
X24094999Y-36771601D02*
X24064761Y-36832077D01*
X24064761Y-36832077D02*
X24064761Y-36862315D01*
X24064761Y-36862315D02*
X24094999Y-36922791D01*
X24094999Y-36922791D02*
X24125237Y-36953029D01*
X24125237Y-36953029D02*
X24306666Y-37073982D01*
X24306666Y-37073982D02*
X24336904Y-37104220D01*
X24336904Y-37104220D02*
X24367142Y-37164696D01*
X24367142Y-37164696D02*
X24367142Y-37255410D01*
X24367142Y-37255410D02*
X24336904Y-37315886D01*
X24336904Y-37315886D02*
X24306666Y-37346125D01*
X24306666Y-37346125D02*
X24246190Y-37376363D01*
X24246190Y-37376363D02*
X24155475Y-37376363D01*
X24155475Y-37376363D02*
X24094999Y-37346125D01*
X24094999Y-37346125D02*
X24064761Y-37315886D01*
X24064761Y-37315886D02*
X23974047Y-37194934D01*
X23974047Y-37194934D02*
X23943809Y-37104220D01*
X23943809Y-37104220D02*
X23943809Y-37043744D01*
X23580952Y-37376363D02*
X23580952Y-36741363D01*
X23157619Y-36741363D02*
X23036666Y-36741363D01*
X23036666Y-36741363D02*
X22976190Y-36771601D01*
X22976190Y-36771601D02*
X22915714Y-36832077D01*
X22915714Y-36832077D02*
X22885476Y-36953029D01*
X22885476Y-36953029D02*
X22885476Y-37164696D01*
X22885476Y-37164696D02*
X22915714Y-37285648D01*
X22915714Y-37285648D02*
X22976190Y-37346125D01*
X22976190Y-37346125D02*
X23036666Y-37376363D01*
X23036666Y-37376363D02*
X23157619Y-37376363D01*
X23157619Y-37376363D02*
X23218095Y-37346125D01*
X23218095Y-37346125D02*
X23278571Y-37285648D01*
X23278571Y-37285648D02*
X23308809Y-37164696D01*
X23308809Y-37164696D02*
X23308809Y-36953029D01*
X23308809Y-36953029D02*
X23278571Y-36832077D01*
X23278571Y-36832077D02*
X23218095Y-36771601D01*
X23218095Y-36771601D02*
X23157619Y-36741363D01*
X27345594Y-38374825D02*
X27254880Y-38405063D01*
X27254880Y-38405063D02*
X27103689Y-38405063D01*
X27103689Y-38405063D02*
X27043213Y-38374825D01*
X27043213Y-38374825D02*
X27012975Y-38344586D01*
X27012975Y-38344586D02*
X26982737Y-38284110D01*
X26982737Y-38284110D02*
X26982737Y-38223634D01*
X26982737Y-38223634D02*
X27012975Y-38163158D01*
X27012975Y-38163158D02*
X27043213Y-38132920D01*
X27043213Y-38132920D02*
X27103689Y-38102682D01*
X27103689Y-38102682D02*
X27224642Y-38072444D01*
X27224642Y-38072444D02*
X27285118Y-38042205D01*
X27285118Y-38042205D02*
X27315356Y-38011967D01*
X27315356Y-38011967D02*
X27345594Y-37951491D01*
X27345594Y-37951491D02*
X27345594Y-37891015D01*
X27345594Y-37891015D02*
X27315356Y-37830539D01*
X27315356Y-37830539D02*
X27285118Y-37800301D01*
X27285118Y-37800301D02*
X27224642Y-37770063D01*
X27224642Y-37770063D02*
X27073451Y-37770063D01*
X27073451Y-37770063D02*
X26982737Y-37800301D01*
X26710594Y-38405063D02*
X26710594Y-37770063D01*
X26710594Y-37770063D02*
X26559404Y-37770063D01*
X26559404Y-37770063D02*
X26468689Y-37800301D01*
X26468689Y-37800301D02*
X26408213Y-37860777D01*
X26408213Y-37860777D02*
X26377975Y-37921253D01*
X26377975Y-37921253D02*
X26347737Y-38042205D01*
X26347737Y-38042205D02*
X26347737Y-38132920D01*
X26347737Y-38132920D02*
X26377975Y-38253872D01*
X26377975Y-38253872D02*
X26408213Y-38314348D01*
X26408213Y-38314348D02*
X26468689Y-38374825D01*
X26468689Y-38374825D02*
X26559404Y-38405063D01*
X26559404Y-38405063D02*
X26710594Y-38405063D01*
X26075594Y-38405063D02*
X26075594Y-37770063D01*
X25622023Y-38616729D02*
X25622023Y-37709586D01*
X25168451Y-38405063D02*
X25168451Y-37770063D01*
X25168451Y-37770063D02*
X25017261Y-37770063D01*
X25017261Y-37770063D02*
X24926546Y-37800301D01*
X24926546Y-37800301D02*
X24866070Y-37860777D01*
X24866070Y-37860777D02*
X24835832Y-37921253D01*
X24835832Y-37921253D02*
X24805594Y-38042205D01*
X24805594Y-38042205D02*
X24805594Y-38132920D01*
X24805594Y-38132920D02*
X24835832Y-38253872D01*
X24835832Y-38253872D02*
X24866070Y-38314348D01*
X24866070Y-38314348D02*
X24926546Y-38374825D01*
X24926546Y-38374825D02*
X25017261Y-38405063D01*
X25017261Y-38405063D02*
X25168451Y-38405063D01*
X24533451Y-38405063D02*
X24533451Y-37770063D01*
X24533451Y-37770063D02*
X24291546Y-37770063D01*
X24291546Y-37770063D02*
X24231070Y-37800301D01*
X24231070Y-37800301D02*
X24200832Y-37830539D01*
X24200832Y-37830539D02*
X24170594Y-37891015D01*
X24170594Y-37891015D02*
X24170594Y-37981729D01*
X24170594Y-37981729D02*
X24200832Y-38042205D01*
X24200832Y-38042205D02*
X24231070Y-38072444D01*
X24231070Y-38072444D02*
X24291546Y-38102682D01*
X24291546Y-38102682D02*
X24533451Y-38102682D01*
X27784047Y-39403525D02*
X27693333Y-39433763D01*
X27693333Y-39433763D02*
X27542142Y-39433763D01*
X27542142Y-39433763D02*
X27481666Y-39403525D01*
X27481666Y-39403525D02*
X27451428Y-39373286D01*
X27451428Y-39373286D02*
X27421190Y-39312810D01*
X27421190Y-39312810D02*
X27421190Y-39252334D01*
X27421190Y-39252334D02*
X27451428Y-39191858D01*
X27451428Y-39191858D02*
X27481666Y-39161620D01*
X27481666Y-39161620D02*
X27542142Y-39131382D01*
X27542142Y-39131382D02*
X27663095Y-39101144D01*
X27663095Y-39101144D02*
X27723571Y-39070905D01*
X27723571Y-39070905D02*
X27753809Y-39040667D01*
X27753809Y-39040667D02*
X27784047Y-38980191D01*
X27784047Y-38980191D02*
X27784047Y-38919715D01*
X27784047Y-38919715D02*
X27753809Y-38859239D01*
X27753809Y-38859239D02*
X27723571Y-38829001D01*
X27723571Y-38829001D02*
X27663095Y-38798763D01*
X27663095Y-38798763D02*
X27511904Y-38798763D01*
X27511904Y-38798763D02*
X27421190Y-38829001D01*
X27149047Y-39433763D02*
X27149047Y-38798763D01*
X27149047Y-38798763D02*
X26997857Y-38798763D01*
X26997857Y-38798763D02*
X26907142Y-38829001D01*
X26907142Y-38829001D02*
X26846666Y-38889477D01*
X26846666Y-38889477D02*
X26816428Y-38949953D01*
X26816428Y-38949953D02*
X26786190Y-39070905D01*
X26786190Y-39070905D02*
X26786190Y-39161620D01*
X26786190Y-39161620D02*
X26816428Y-39282572D01*
X26816428Y-39282572D02*
X26846666Y-39343048D01*
X26846666Y-39343048D02*
X26907142Y-39403525D01*
X26907142Y-39403525D02*
X26997857Y-39433763D01*
X26997857Y-39433763D02*
X27149047Y-39433763D01*
X26393095Y-38798763D02*
X26272142Y-38798763D01*
X26272142Y-38798763D02*
X26211666Y-38829001D01*
X26211666Y-38829001D02*
X26151190Y-38889477D01*
X26151190Y-38889477D02*
X26120952Y-39010429D01*
X26120952Y-39010429D02*
X26120952Y-39222096D01*
X26120952Y-39222096D02*
X26151190Y-39343048D01*
X26151190Y-39343048D02*
X26211666Y-39403525D01*
X26211666Y-39403525D02*
X26272142Y-39433763D01*
X26272142Y-39433763D02*
X26393095Y-39433763D01*
X26393095Y-39433763D02*
X26453571Y-39403525D01*
X26453571Y-39403525D02*
X26514047Y-39343048D01*
X26514047Y-39343048D02*
X26544285Y-39222096D01*
X26544285Y-39222096D02*
X26544285Y-39010429D01*
X26544285Y-39010429D02*
X26514047Y-38889477D01*
X26514047Y-38889477D02*
X26453571Y-38829001D01*
X26453571Y-38829001D02*
X26393095Y-38798763D01*
X25697619Y-39645429D02*
X25697619Y-38738286D01*
X25244047Y-39433763D02*
X25244047Y-38798763D01*
X25244047Y-38798763D02*
X25092857Y-38798763D01*
X25092857Y-38798763D02*
X25002142Y-38829001D01*
X25002142Y-38829001D02*
X24941666Y-38889477D01*
X24941666Y-38889477D02*
X24911428Y-38949953D01*
X24911428Y-38949953D02*
X24881190Y-39070905D01*
X24881190Y-39070905D02*
X24881190Y-39161620D01*
X24881190Y-39161620D02*
X24911428Y-39282572D01*
X24911428Y-39282572D02*
X24941666Y-39343048D01*
X24941666Y-39343048D02*
X25002142Y-39403525D01*
X25002142Y-39403525D02*
X25092857Y-39433763D01*
X25092857Y-39433763D02*
X25244047Y-39433763D01*
X24609047Y-39433763D02*
X24609047Y-38798763D01*
X24609047Y-38798763D02*
X24246190Y-39433763D01*
X24246190Y-39433763D02*
X24246190Y-38798763D01*
X27768928Y-39857701D02*
X27829404Y-39827463D01*
X27829404Y-39827463D02*
X27920118Y-39827463D01*
X27920118Y-39827463D02*
X28010833Y-39857701D01*
X28010833Y-39857701D02*
X28071309Y-39918177D01*
X28071309Y-39918177D02*
X28101547Y-39978653D01*
X28101547Y-39978653D02*
X28131785Y-40099605D01*
X28131785Y-40099605D02*
X28131785Y-40190320D01*
X28131785Y-40190320D02*
X28101547Y-40311272D01*
X28101547Y-40311272D02*
X28071309Y-40371748D01*
X28071309Y-40371748D02*
X28010833Y-40432225D01*
X28010833Y-40432225D02*
X27920118Y-40462463D01*
X27920118Y-40462463D02*
X27859642Y-40462463D01*
X27859642Y-40462463D02*
X27768928Y-40432225D01*
X27768928Y-40432225D02*
X27738690Y-40401986D01*
X27738690Y-40401986D02*
X27738690Y-40190320D01*
X27738690Y-40190320D02*
X27859642Y-40190320D01*
X27466547Y-40462463D02*
X27466547Y-39827463D01*
X27466547Y-39827463D02*
X27224642Y-39827463D01*
X27224642Y-39827463D02*
X27164166Y-39857701D01*
X27164166Y-39857701D02*
X27133928Y-39887939D01*
X27133928Y-39887939D02*
X27103690Y-39948415D01*
X27103690Y-39948415D02*
X27103690Y-40039129D01*
X27103690Y-40039129D02*
X27133928Y-40099605D01*
X27133928Y-40099605D02*
X27164166Y-40129844D01*
X27164166Y-40129844D02*
X27224642Y-40160082D01*
X27224642Y-40160082D02*
X27466547Y-40160082D01*
X26498928Y-39857701D02*
X26559404Y-39827463D01*
X26559404Y-39827463D02*
X26650118Y-39827463D01*
X26650118Y-39827463D02*
X26740833Y-39857701D01*
X26740833Y-39857701D02*
X26801309Y-39918177D01*
X26801309Y-39918177D02*
X26831547Y-39978653D01*
X26831547Y-39978653D02*
X26861785Y-40099605D01*
X26861785Y-40099605D02*
X26861785Y-40190320D01*
X26861785Y-40190320D02*
X26831547Y-40311272D01*
X26831547Y-40311272D02*
X26801309Y-40371748D01*
X26801309Y-40371748D02*
X26740833Y-40432225D01*
X26740833Y-40432225D02*
X26650118Y-40462463D01*
X26650118Y-40462463D02*
X26589642Y-40462463D01*
X26589642Y-40462463D02*
X26498928Y-40432225D01*
X26498928Y-40432225D02*
X26468690Y-40401986D01*
X26468690Y-40401986D02*
X26468690Y-40190320D01*
X26468690Y-40190320D02*
X26589642Y-40190320D01*
X25894166Y-39827463D02*
X26196547Y-39827463D01*
X26196547Y-39827463D02*
X26226785Y-40129844D01*
X26226785Y-40129844D02*
X26196547Y-40099605D01*
X26196547Y-40099605D02*
X26136071Y-40069367D01*
X26136071Y-40069367D02*
X25984880Y-40069367D01*
X25984880Y-40069367D02*
X25924404Y-40099605D01*
X25924404Y-40099605D02*
X25894166Y-40129844D01*
X25894166Y-40129844D02*
X25863928Y-40190320D01*
X25863928Y-40190320D02*
X25863928Y-40341510D01*
X25863928Y-40341510D02*
X25894166Y-40401986D01*
X25894166Y-40401986D02*
X25924404Y-40432225D01*
X25924404Y-40432225D02*
X25984880Y-40462463D01*
X25984880Y-40462463D02*
X26136071Y-40462463D01*
X26136071Y-40462463D02*
X26196547Y-40432225D01*
X26196547Y-40432225D02*
X26226785Y-40401986D01*
X25440595Y-40674129D02*
X25440595Y-39766986D01*
X25017261Y-40432225D02*
X24926547Y-40462463D01*
X24926547Y-40462463D02*
X24775356Y-40462463D01*
X24775356Y-40462463D02*
X24714880Y-40432225D01*
X24714880Y-40432225D02*
X24684642Y-40401986D01*
X24684642Y-40401986D02*
X24654404Y-40341510D01*
X24654404Y-40341510D02*
X24654404Y-40281034D01*
X24654404Y-40281034D02*
X24684642Y-40220558D01*
X24684642Y-40220558D02*
X24714880Y-40190320D01*
X24714880Y-40190320D02*
X24775356Y-40160082D01*
X24775356Y-40160082D02*
X24896309Y-40129844D01*
X24896309Y-40129844D02*
X24956785Y-40099605D01*
X24956785Y-40099605D02*
X24987023Y-40069367D01*
X24987023Y-40069367D02*
X25017261Y-40008891D01*
X25017261Y-40008891D02*
X25017261Y-39948415D01*
X25017261Y-39948415D02*
X24987023Y-39887939D01*
X24987023Y-39887939D02*
X24956785Y-39857701D01*
X24956785Y-39857701D02*
X24896309Y-39827463D01*
X24896309Y-39827463D02*
X24745118Y-39827463D01*
X24745118Y-39827463D02*
X24654404Y-39857701D01*
X24019404Y-40401986D02*
X24049642Y-40432225D01*
X24049642Y-40432225D02*
X24140356Y-40462463D01*
X24140356Y-40462463D02*
X24200832Y-40462463D01*
X24200832Y-40462463D02*
X24291547Y-40432225D01*
X24291547Y-40432225D02*
X24352023Y-40371748D01*
X24352023Y-40371748D02*
X24382261Y-40311272D01*
X24382261Y-40311272D02*
X24412499Y-40190320D01*
X24412499Y-40190320D02*
X24412499Y-40099605D01*
X24412499Y-40099605D02*
X24382261Y-39978653D01*
X24382261Y-39978653D02*
X24352023Y-39918177D01*
X24352023Y-39918177D02*
X24291547Y-39857701D01*
X24291547Y-39857701D02*
X24200832Y-39827463D01*
X24200832Y-39827463D02*
X24140356Y-39827463D01*
X24140356Y-39827463D02*
X24049642Y-39857701D01*
X24049642Y-39857701D02*
X24019404Y-39887939D01*
X23747261Y-40462463D02*
X23747261Y-39827463D01*
X23384404Y-40462463D02*
X23656547Y-40099605D01*
X23384404Y-39827463D02*
X23747261Y-40190320D01*
X27542142Y-40856163D02*
X27149047Y-40856163D01*
X27149047Y-40856163D02*
X27360714Y-41098067D01*
X27360714Y-41098067D02*
X27269999Y-41098067D01*
X27269999Y-41098067D02*
X27209523Y-41128305D01*
X27209523Y-41128305D02*
X27179285Y-41158544D01*
X27179285Y-41158544D02*
X27149047Y-41219020D01*
X27149047Y-41219020D02*
X27149047Y-41370210D01*
X27149047Y-41370210D02*
X27179285Y-41430686D01*
X27179285Y-41430686D02*
X27209523Y-41460925D01*
X27209523Y-41460925D02*
X27269999Y-41491163D01*
X27269999Y-41491163D02*
X27451428Y-41491163D01*
X27451428Y-41491163D02*
X27511904Y-41460925D01*
X27511904Y-41460925D02*
X27542142Y-41430686D01*
X26937380Y-41067829D02*
X26786190Y-41491163D01*
X26786190Y-41491163D02*
X26634999Y-41067829D01*
X26453570Y-40856163D02*
X26060475Y-40856163D01*
X26060475Y-40856163D02*
X26272142Y-41098067D01*
X26272142Y-41098067D02*
X26181427Y-41098067D01*
X26181427Y-41098067D02*
X26120951Y-41128305D01*
X26120951Y-41128305D02*
X26090713Y-41158544D01*
X26090713Y-41158544D02*
X26060475Y-41219020D01*
X26060475Y-41219020D02*
X26060475Y-41370210D01*
X26060475Y-41370210D02*
X26090713Y-41430686D01*
X26090713Y-41430686D02*
X26120951Y-41460925D01*
X26120951Y-41460925D02*
X26181427Y-41491163D01*
X26181427Y-41491163D02*
X26362856Y-41491163D01*
X26362856Y-41491163D02*
X26423332Y-41460925D01*
X26423332Y-41460925D02*
X26453570Y-41430686D01*
X25637142Y-41702829D02*
X25637142Y-40795686D01*
X24850951Y-40886401D02*
X24911427Y-40856163D01*
X24911427Y-40856163D02*
X25002141Y-40856163D01*
X25002141Y-40856163D02*
X25092856Y-40886401D01*
X25092856Y-40886401D02*
X25153332Y-40946877D01*
X25153332Y-40946877D02*
X25183570Y-41007353D01*
X25183570Y-41007353D02*
X25213808Y-41128305D01*
X25213808Y-41128305D02*
X25213808Y-41219020D01*
X25213808Y-41219020D02*
X25183570Y-41339972D01*
X25183570Y-41339972D02*
X25153332Y-41400448D01*
X25153332Y-41400448D02*
X25092856Y-41460925D01*
X25092856Y-41460925D02*
X25002141Y-41491163D01*
X25002141Y-41491163D02*
X24941665Y-41491163D01*
X24941665Y-41491163D02*
X24850951Y-41460925D01*
X24850951Y-41460925D02*
X24820713Y-41430686D01*
X24820713Y-41430686D02*
X24820713Y-41219020D01*
X24820713Y-41219020D02*
X24941665Y-41219020D01*
X24548570Y-41491163D02*
X24548570Y-40856163D01*
X24548570Y-40856163D02*
X24185713Y-41491163D01*
X24185713Y-41491163D02*
X24185713Y-40856163D01*
X23883332Y-41491163D02*
X23883332Y-40856163D01*
X23883332Y-40856163D02*
X23732142Y-40856163D01*
X23732142Y-40856163D02*
X23641427Y-40886401D01*
X23641427Y-40886401D02*
X23580951Y-40946877D01*
X23580951Y-40946877D02*
X23550713Y-41007353D01*
X23550713Y-41007353D02*
X23520475Y-41128305D01*
X23520475Y-41128305D02*
X23520475Y-41219020D01*
X23520475Y-41219020D02*
X23550713Y-41339972D01*
X23550713Y-41339972D02*
X23580951Y-41400448D01*
X23580951Y-41400448D02*
X23641427Y-41460925D01*
X23641427Y-41460925D02*
X23732142Y-41491163D01*
X23732142Y-41491163D02*
X23883332Y-41491163D01*
D12*
X67399047Y-36960904D02*
X67399047Y-37889476D01*
X67399047Y-37889476D02*
X67460952Y-38075190D01*
X67460952Y-38075190D02*
X67584761Y-38199000D01*
X67584761Y-38199000D02*
X67770476Y-38260904D01*
X67770476Y-38260904D02*
X67894285Y-38260904D01*
X66160952Y-38260904D02*
X66780000Y-38260904D01*
X66780000Y-38260904D02*
X66780000Y-36960904D01*
X64984762Y-38137095D02*
X65046666Y-38199000D01*
X65046666Y-38199000D02*
X65232381Y-38260904D01*
X65232381Y-38260904D02*
X65356190Y-38260904D01*
X65356190Y-38260904D02*
X65541904Y-38199000D01*
X65541904Y-38199000D02*
X65665714Y-38075190D01*
X65665714Y-38075190D02*
X65727619Y-37951380D01*
X65727619Y-37951380D02*
X65789523Y-37703761D01*
X65789523Y-37703761D02*
X65789523Y-37518047D01*
X65789523Y-37518047D02*
X65727619Y-37270428D01*
X65727619Y-37270428D02*
X65665714Y-37146619D01*
X65665714Y-37146619D02*
X65541904Y-37022809D01*
X65541904Y-37022809D02*
X65356190Y-36960904D01*
X65356190Y-36960904D02*
X65232381Y-36960904D01*
X65232381Y-36960904D02*
X65046666Y-37022809D01*
X65046666Y-37022809D02*
X64984762Y-37084714D01*
X64056190Y-36960904D02*
X64056190Y-37889476D01*
X64056190Y-37889476D02*
X64118095Y-38075190D01*
X64118095Y-38075190D02*
X64241904Y-38199000D01*
X64241904Y-38199000D02*
X64427619Y-38260904D01*
X64427619Y-38260904D02*
X64551428Y-38260904D01*
X62818095Y-38260904D02*
X63437143Y-38260904D01*
X63437143Y-38260904D02*
X63437143Y-36960904D01*
X61641905Y-38137095D02*
X61703809Y-38199000D01*
X61703809Y-38199000D02*
X61889524Y-38260904D01*
X61889524Y-38260904D02*
X62013333Y-38260904D01*
X62013333Y-38260904D02*
X62199047Y-38199000D01*
X62199047Y-38199000D02*
X62322857Y-38075190D01*
X62322857Y-38075190D02*
X62384762Y-37951380D01*
X62384762Y-37951380D02*
X62446666Y-37703761D01*
X62446666Y-37703761D02*
X62446666Y-37518047D01*
X62446666Y-37518047D02*
X62384762Y-37270428D01*
X62384762Y-37270428D02*
X62322857Y-37146619D01*
X62322857Y-37146619D02*
X62199047Y-37022809D01*
X62199047Y-37022809D02*
X62013333Y-36960904D01*
X62013333Y-36960904D02*
X61889524Y-36960904D01*
X61889524Y-36960904D02*
X61703809Y-37022809D01*
X61703809Y-37022809D02*
X61641905Y-37084714D01*
X60713333Y-36960904D02*
X60713333Y-37889476D01*
X60713333Y-37889476D02*
X60775238Y-38075190D01*
X60775238Y-38075190D02*
X60899047Y-38199000D01*
X60899047Y-38199000D02*
X61084762Y-38260904D01*
X61084762Y-38260904D02*
X61208571Y-38260904D01*
X59475238Y-38260904D02*
X60094286Y-38260904D01*
X60094286Y-38260904D02*
X60094286Y-36960904D01*
X58299048Y-38137095D02*
X58360952Y-38199000D01*
X58360952Y-38199000D02*
X58546667Y-38260904D01*
X58546667Y-38260904D02*
X58670476Y-38260904D01*
X58670476Y-38260904D02*
X58856190Y-38199000D01*
X58856190Y-38199000D02*
X58980000Y-38075190D01*
X58980000Y-38075190D02*
X59041905Y-37951380D01*
X59041905Y-37951380D02*
X59103809Y-37703761D01*
X59103809Y-37703761D02*
X59103809Y-37518047D01*
X59103809Y-37518047D02*
X59041905Y-37270428D01*
X59041905Y-37270428D02*
X58980000Y-37146619D01*
X58980000Y-37146619D02*
X58856190Y-37022809D01*
X58856190Y-37022809D02*
X58670476Y-36960904D01*
X58670476Y-36960904D02*
X58546667Y-36960904D01*
X58546667Y-36960904D02*
X58360952Y-37022809D01*
X58360952Y-37022809D02*
X58299048Y-37084714D01*
X57370476Y-36960904D02*
X57370476Y-37889476D01*
X57370476Y-37889476D02*
X57432381Y-38075190D01*
X57432381Y-38075190D02*
X57556190Y-38199000D01*
X57556190Y-38199000D02*
X57741905Y-38260904D01*
X57741905Y-38260904D02*
X57865714Y-38260904D01*
X56132381Y-38260904D02*
X56751429Y-38260904D01*
X56751429Y-38260904D02*
X56751429Y-36960904D01*
X54956191Y-38137095D02*
X55018095Y-38199000D01*
X55018095Y-38199000D02*
X55203810Y-38260904D01*
X55203810Y-38260904D02*
X55327619Y-38260904D01*
X55327619Y-38260904D02*
X55513333Y-38199000D01*
X55513333Y-38199000D02*
X55637143Y-38075190D01*
X55637143Y-38075190D02*
X55699048Y-37951380D01*
X55699048Y-37951380D02*
X55760952Y-37703761D01*
X55760952Y-37703761D02*
X55760952Y-37518047D01*
X55760952Y-37518047D02*
X55699048Y-37270428D01*
X55699048Y-37270428D02*
X55637143Y-37146619D01*
X55637143Y-37146619D02*
X55513333Y-37022809D01*
X55513333Y-37022809D02*
X55327619Y-36960904D01*
X55327619Y-36960904D02*
X55203810Y-36960904D01*
X55203810Y-36960904D02*
X55018095Y-37022809D01*
X55018095Y-37022809D02*
X54956191Y-37084714D01*
D13*
X67097142Y-28266150D02*
X66825000Y-28356864D01*
X66825000Y-28356864D02*
X66371428Y-28356864D01*
X66371428Y-28356864D02*
X66190000Y-28266150D01*
X66190000Y-28266150D02*
X66099285Y-28175435D01*
X66099285Y-28175435D02*
X66008571Y-27994007D01*
X66008571Y-27994007D02*
X66008571Y-27812578D01*
X66008571Y-27812578D02*
X66099285Y-27631150D01*
X66099285Y-27631150D02*
X66190000Y-27540435D01*
X66190000Y-27540435D02*
X66371428Y-27449721D01*
X66371428Y-27449721D02*
X66734285Y-27359007D01*
X66734285Y-27359007D02*
X66915714Y-27268292D01*
X66915714Y-27268292D02*
X67006428Y-27177578D01*
X67006428Y-27177578D02*
X67097142Y-26996150D01*
X67097142Y-26996150D02*
X67097142Y-26814721D01*
X67097142Y-26814721D02*
X67006428Y-26633292D01*
X67006428Y-26633292D02*
X66915714Y-26542578D01*
X66915714Y-26542578D02*
X66734285Y-26451864D01*
X66734285Y-26451864D02*
X66280714Y-26451864D01*
X66280714Y-26451864D02*
X66008571Y-26542578D01*
X64919999Y-28356864D02*
X65101428Y-28266150D01*
X65101428Y-28266150D02*
X65192142Y-28084721D01*
X65192142Y-28084721D02*
X65192142Y-26451864D01*
X64194285Y-28356864D02*
X64194285Y-27086864D01*
X64194285Y-26451864D02*
X64284999Y-26542578D01*
X64284999Y-26542578D02*
X64194285Y-26633292D01*
X64194285Y-26633292D02*
X64103571Y-26542578D01*
X64103571Y-26542578D02*
X64194285Y-26451864D01*
X64194285Y-26451864D02*
X64194285Y-26633292D01*
X63287142Y-28356864D02*
X63287142Y-27086864D01*
X63287142Y-27268292D02*
X63196428Y-27177578D01*
X63196428Y-27177578D02*
X63014999Y-27086864D01*
X63014999Y-27086864D02*
X62742856Y-27086864D01*
X62742856Y-27086864D02*
X62561428Y-27177578D01*
X62561428Y-27177578D02*
X62470714Y-27359007D01*
X62470714Y-27359007D02*
X62470714Y-28356864D01*
X62470714Y-27359007D02*
X62379999Y-27177578D01*
X62379999Y-27177578D02*
X62198571Y-27086864D01*
X62198571Y-27086864D02*
X61926428Y-27086864D01*
X61926428Y-27086864D02*
X61744999Y-27177578D01*
X61744999Y-27177578D02*
X61654285Y-27359007D01*
X61654285Y-27359007D02*
X61654285Y-28356864D01*
X60837856Y-27812578D02*
X59930714Y-27812578D01*
X61019285Y-28356864D02*
X60384285Y-26451864D01*
X60384285Y-26451864D02*
X59749285Y-28356864D01*
X58025714Y-28356864D02*
X58660714Y-27449721D01*
X59114285Y-28356864D02*
X59114285Y-26451864D01*
X59114285Y-26451864D02*
X58388571Y-26451864D01*
X58388571Y-26451864D02*
X58207142Y-26542578D01*
X58207142Y-26542578D02*
X58116428Y-26633292D01*
X58116428Y-26633292D02*
X58025714Y-26814721D01*
X58025714Y-26814721D02*
X58025714Y-27086864D01*
X58025714Y-27086864D02*
X58116428Y-27268292D01*
X58116428Y-27268292D02*
X58207142Y-27359007D01*
X58207142Y-27359007D02*
X58388571Y-27449721D01*
X58388571Y-27449721D02*
X59114285Y-27449721D01*
X57209285Y-28356864D02*
X57209285Y-26451864D01*
X57209285Y-26451864D02*
X56574285Y-27812578D01*
X56574285Y-27812578D02*
X55939285Y-26451864D01*
X55939285Y-26451864D02*
X55939285Y-28356864D01*
X52492142Y-28175435D02*
X52582856Y-28266150D01*
X52582856Y-28266150D02*
X52854999Y-28356864D01*
X52854999Y-28356864D02*
X53036427Y-28356864D01*
X53036427Y-28356864D02*
X53308570Y-28266150D01*
X53308570Y-28266150D02*
X53489999Y-28084721D01*
X53489999Y-28084721D02*
X53580713Y-27903292D01*
X53580713Y-27903292D02*
X53671427Y-27540435D01*
X53671427Y-27540435D02*
X53671427Y-27268292D01*
X53671427Y-27268292D02*
X53580713Y-26905435D01*
X53580713Y-26905435D02*
X53489999Y-26724007D01*
X53489999Y-26724007D02*
X53308570Y-26542578D01*
X53308570Y-26542578D02*
X53036427Y-26451864D01*
X53036427Y-26451864D02*
X52854999Y-26451864D01*
X52854999Y-26451864D02*
X52582856Y-26542578D01*
X52582856Y-26542578D02*
X52492142Y-26633292D01*
X51403570Y-28356864D02*
X51584999Y-28266150D01*
X51584999Y-28266150D02*
X51675713Y-28084721D01*
X51675713Y-28084721D02*
X51675713Y-26451864D01*
X49861428Y-28356864D02*
X49861428Y-27359007D01*
X49861428Y-27359007D02*
X49952142Y-27177578D01*
X49952142Y-27177578D02*
X50133570Y-27086864D01*
X50133570Y-27086864D02*
X50496428Y-27086864D01*
X50496428Y-27086864D02*
X50677856Y-27177578D01*
X49861428Y-28266150D02*
X50042856Y-28356864D01*
X50042856Y-28356864D02*
X50496428Y-28356864D01*
X50496428Y-28356864D02*
X50677856Y-28266150D01*
X50677856Y-28266150D02*
X50768570Y-28084721D01*
X50768570Y-28084721D02*
X50768570Y-27903292D01*
X50768570Y-27903292D02*
X50677856Y-27721864D01*
X50677856Y-27721864D02*
X50496428Y-27631150D01*
X50496428Y-27631150D02*
X50042856Y-27631150D01*
X50042856Y-27631150D02*
X49861428Y-27540435D01*
X49044999Y-28266150D02*
X48863571Y-28356864D01*
X48863571Y-28356864D02*
X48500714Y-28356864D01*
X48500714Y-28356864D02*
X48319285Y-28266150D01*
X48319285Y-28266150D02*
X48228571Y-28084721D01*
X48228571Y-28084721D02*
X48228571Y-27994007D01*
X48228571Y-27994007D02*
X48319285Y-27812578D01*
X48319285Y-27812578D02*
X48500714Y-27721864D01*
X48500714Y-27721864D02*
X48772857Y-27721864D01*
X48772857Y-27721864D02*
X48954285Y-27631150D01*
X48954285Y-27631150D02*
X49044999Y-27449721D01*
X49044999Y-27449721D02*
X49044999Y-27359007D01*
X49044999Y-27359007D02*
X48954285Y-27177578D01*
X48954285Y-27177578D02*
X48772857Y-27086864D01*
X48772857Y-27086864D02*
X48500714Y-27086864D01*
X48500714Y-27086864D02*
X48319285Y-27177578D01*
X47502856Y-28266150D02*
X47321428Y-28356864D01*
X47321428Y-28356864D02*
X46958571Y-28356864D01*
X46958571Y-28356864D02*
X46777142Y-28266150D01*
X46777142Y-28266150D02*
X46686428Y-28084721D01*
X46686428Y-28084721D02*
X46686428Y-27994007D01*
X46686428Y-27994007D02*
X46777142Y-27812578D01*
X46777142Y-27812578D02*
X46958571Y-27721864D01*
X46958571Y-27721864D02*
X47230714Y-27721864D01*
X47230714Y-27721864D02*
X47412142Y-27631150D01*
X47412142Y-27631150D02*
X47502856Y-27449721D01*
X47502856Y-27449721D02*
X47502856Y-27359007D01*
X47502856Y-27359007D02*
X47412142Y-27177578D01*
X47412142Y-27177578D02*
X47230714Y-27086864D01*
X47230714Y-27086864D02*
X46958571Y-27086864D01*
X46958571Y-27086864D02*
X46777142Y-27177578D01*
X45869999Y-28356864D02*
X45869999Y-27086864D01*
X45869999Y-26451864D02*
X45960713Y-26542578D01*
X45960713Y-26542578D02*
X45869999Y-26633292D01*
X45869999Y-26633292D02*
X45779285Y-26542578D01*
X45779285Y-26542578D02*
X45869999Y-26451864D01*
X45869999Y-26451864D02*
X45869999Y-26633292D01*
X44146428Y-28266150D02*
X44327856Y-28356864D01*
X44327856Y-28356864D02*
X44690713Y-28356864D01*
X44690713Y-28356864D02*
X44872142Y-28266150D01*
X44872142Y-28266150D02*
X44962856Y-28175435D01*
X44962856Y-28175435D02*
X45053570Y-27994007D01*
X45053570Y-27994007D02*
X45053570Y-27449721D01*
X45053570Y-27449721D02*
X44962856Y-27268292D01*
X44962856Y-27268292D02*
X44872142Y-27177578D01*
X44872142Y-27177578D02*
X44690713Y-27086864D01*
X44690713Y-27086864D02*
X44327856Y-27086864D01*
X44327856Y-27086864D02*
X44146428Y-27177578D01*
D14*
G04 #@! TO.C,J1*
X67873333Y-39422619D02*
X67873333Y-40136904D01*
X67873333Y-40136904D02*
X67920952Y-40279761D01*
X67920952Y-40279761D02*
X68016190Y-40375000D01*
X68016190Y-40375000D02*
X68159047Y-40422619D01*
X68159047Y-40422619D02*
X68254285Y-40422619D01*
X66873333Y-40422619D02*
X67444761Y-40422619D01*
X67159047Y-40422619D02*
X67159047Y-39422619D01*
X67159047Y-39422619D02*
X67254285Y-39565476D01*
X67254285Y-39565476D02*
X67349523Y-39660714D01*
X67349523Y-39660714D02*
X67444761Y-39708333D01*
D15*
G04 #@! TO.C,J3*
X26024900Y-17082000D02*
G75*
G03*
X26024900Y-17082000I-381000J0D01*
G01*
G04 #@! TO.C,G\u002A\u002A\u002A*
G36*
X58361311Y-24059218D02*
G01*
X58395781Y-24061238D01*
X58423154Y-24065147D01*
X58461059Y-24074971D01*
X58504801Y-24091694D01*
X58546422Y-24114417D01*
X58587924Y-24144267D01*
X58631309Y-24182373D01*
X58645430Y-24195673D01*
X58659464Y-24208718D01*
X58669233Y-24217592D01*
X58673194Y-24220877D01*
X58673249Y-24220820D01*
X58673723Y-24215096D01*
X58674109Y-24201347D01*
X58674368Y-24181494D01*
X58674464Y-24157457D01*
X58674464Y-24093995D01*
X58842003Y-24093995D01*
X59009542Y-24093995D01*
X59009542Y-24812384D01*
X59009542Y-25530773D01*
X58842237Y-25530773D01*
X58674932Y-25530773D01*
X58673177Y-25090347D01*
X58672945Y-25032756D01*
X58672647Y-24962724D01*
X58672351Y-24901651D01*
X58672041Y-24848846D01*
X58671698Y-24803621D01*
X58671305Y-24765287D01*
X58670842Y-24733154D01*
X58670293Y-24706533D01*
X58669640Y-24684735D01*
X58668863Y-24667072D01*
X58667946Y-24652852D01*
X58666871Y-24641389D01*
X58665619Y-24631992D01*
X58664172Y-24623971D01*
X58662513Y-24616639D01*
X58660623Y-24609306D01*
X58642017Y-24553042D01*
X58617525Y-24503696D01*
X58587380Y-24462549D01*
X58551414Y-24429375D01*
X58509463Y-24403949D01*
X58491582Y-24396215D01*
X58457282Y-24385955D01*
X58418422Y-24380140D01*
X58372519Y-24378305D01*
X58367947Y-24378327D01*
X58320457Y-24381862D01*
X58277144Y-24392036D01*
X58234113Y-24409733D01*
X58232890Y-24410333D01*
X58217034Y-24417691D01*
X58205280Y-24422404D01*
X58200092Y-24423474D01*
X58198679Y-24420892D01*
X58193555Y-24410224D01*
X58185342Y-24392575D01*
X58174647Y-24369299D01*
X58162080Y-24341744D01*
X58148250Y-24311264D01*
X58133766Y-24279209D01*
X58119237Y-24246931D01*
X58105272Y-24215781D01*
X58092481Y-24187110D01*
X58081472Y-24162270D01*
X58072854Y-24142613D01*
X58067237Y-24129488D01*
X58065229Y-24124248D01*
X58065229Y-24124230D01*
X58069750Y-24120050D01*
X58081831Y-24113410D01*
X58099455Y-24105167D01*
X58120601Y-24096181D01*
X58143251Y-24087309D01*
X58165387Y-24079410D01*
X58184987Y-24073342D01*
X58209659Y-24068068D01*
X58243917Y-24063513D01*
X58282518Y-24060455D01*
X58322603Y-24058990D01*
X58361311Y-24059218D01*
G37*
G36*
X60872074Y-24819273D02*
G01*
X60870540Y-24879793D01*
X60860269Y-24965650D01*
X60841923Y-25049808D01*
X60815510Y-25131219D01*
X60781034Y-25208832D01*
X60738501Y-25281595D01*
X60723778Y-25302898D01*
X60671703Y-25367082D01*
X60613530Y-25423238D01*
X60549602Y-25471161D01*
X60480265Y-25510646D01*
X60405863Y-25541488D01*
X60326740Y-25563482D01*
X60243242Y-25576423D01*
X60217093Y-25578320D01*
X60157473Y-25578455D01*
X60096886Y-25573418D01*
X60038753Y-25563570D01*
X59986495Y-25549274D01*
X59953165Y-25536808D01*
X59894355Y-25508218D01*
X59839892Y-25472163D01*
X59787586Y-25427298D01*
X59745701Y-25387219D01*
X59745701Y-25461535D01*
X59745701Y-25535850D01*
X59578161Y-25535850D01*
X59410622Y-25535850D01*
X59410622Y-24814923D01*
X59410622Y-24804789D01*
X59721852Y-24804789D01*
X59723081Y-24876404D01*
X59732390Y-24943987D01*
X59749425Y-25007000D01*
X59773834Y-25064902D01*
X59805265Y-25117154D01*
X59843364Y-25163215D01*
X59887780Y-25202545D01*
X59938158Y-25234605D01*
X59994148Y-25258855D01*
X60055395Y-25274754D01*
X60102613Y-25280530D01*
X60166791Y-25279580D01*
X60230550Y-25268531D01*
X60277310Y-25252837D01*
X60328123Y-25226270D01*
X60374623Y-25191448D01*
X60416187Y-25149121D01*
X60452190Y-25100038D01*
X60482008Y-25044950D01*
X60505018Y-24984607D01*
X60520595Y-24919760D01*
X60521638Y-24913392D01*
X60526102Y-24868898D01*
X60527081Y-24819273D01*
X60524727Y-24768236D01*
X60519192Y-24719502D01*
X60510630Y-24676789D01*
X60490338Y-24615401D01*
X60462250Y-24557739D01*
X60427430Y-24506209D01*
X60386490Y-24461479D01*
X60340044Y-24424215D01*
X60288706Y-24395085D01*
X60233088Y-24374756D01*
X60221412Y-24372108D01*
X60191982Y-24368104D01*
X60157140Y-24365862D01*
X60119950Y-24365385D01*
X60083477Y-24366676D01*
X60050783Y-24369737D01*
X60024933Y-24374572D01*
X60000354Y-24382127D01*
X59948227Y-24404465D01*
X59899349Y-24433765D01*
X59856871Y-24468271D01*
X59837067Y-24488367D01*
X59800805Y-24533480D01*
X59771869Y-24582935D01*
X59749792Y-24637787D01*
X59734109Y-24699090D01*
X59724353Y-24767899D01*
X59721852Y-24804789D01*
X59410622Y-24804789D01*
X59410622Y-24093995D01*
X59578161Y-24093995D01*
X59745701Y-24093995D01*
X59745701Y-24175495D01*
X59745701Y-24256994D01*
X59787681Y-24214634D01*
X59812188Y-24191212D01*
X59860517Y-24152556D01*
X59912416Y-24121016D01*
X59969832Y-24095492D01*
X60034713Y-24074883D01*
X60036436Y-24074424D01*
X60055583Y-24069647D01*
X60072933Y-24066229D01*
X60090877Y-24063938D01*
X60111804Y-24062542D01*
X60138103Y-24061809D01*
X60172165Y-24061505D01*
X60215950Y-24061859D01*
X60253287Y-24063672D01*
X60286764Y-24067415D01*
X60319520Y-24073558D01*
X60354695Y-24082572D01*
X60395429Y-24094927D01*
X60442156Y-24111942D01*
X60512802Y-24146115D01*
X60579493Y-24188723D01*
X60640988Y-24238829D01*
X60696049Y-24295498D01*
X60743435Y-24357793D01*
X60762306Y-24387801D01*
X60800595Y-24461793D01*
X60830776Y-24540388D01*
X60852856Y-24622535D01*
X60866839Y-24707185D01*
X60872732Y-24793288D01*
X60872074Y-24819273D01*
G37*
G36*
X57213997Y-24062821D02*
G01*
X57273601Y-24073924D01*
X57331544Y-24092896D01*
X57386822Y-24119774D01*
X57438430Y-24154594D01*
X57485365Y-24197393D01*
X57511545Y-24225075D01*
X57512962Y-24160804D01*
X57514380Y-24096534D01*
X57681919Y-24096534D01*
X57849459Y-24096534D01*
X57850745Y-24816192D01*
X57852032Y-25535850D01*
X57687013Y-25535850D01*
X57521995Y-25535850D01*
X57521995Y-25121878D01*
X57521989Y-25086050D01*
X57521921Y-25008925D01*
X57521757Y-24940931D01*
X57521473Y-24881352D01*
X57521045Y-24829470D01*
X57520448Y-24784568D01*
X57519657Y-24745931D01*
X57518649Y-24712841D01*
X57517399Y-24684580D01*
X57515883Y-24660433D01*
X57514076Y-24639682D01*
X57511954Y-24621611D01*
X57509492Y-24605502D01*
X57506667Y-24590640D01*
X57503454Y-24576306D01*
X57500580Y-24565125D01*
X57482445Y-24515604D01*
X57457328Y-24471802D01*
X57426048Y-24434422D01*
X57389423Y-24404168D01*
X57348271Y-24381744D01*
X57303410Y-24367853D01*
X57255658Y-24363198D01*
X57250997Y-24363253D01*
X57204198Y-24368397D01*
X57163146Y-24381904D01*
X57127758Y-24403825D01*
X57097954Y-24434207D01*
X57073652Y-24473100D01*
X57073177Y-24474051D01*
X57067031Y-24486730D01*
X57061576Y-24499107D01*
X57056770Y-24511835D01*
X57052572Y-24525568D01*
X57048942Y-24540959D01*
X57045837Y-24558663D01*
X57043218Y-24579331D01*
X57041042Y-24603619D01*
X57039270Y-24632179D01*
X57037858Y-24665665D01*
X57036768Y-24704731D01*
X57035956Y-24750029D01*
X57035383Y-24802214D01*
X57035007Y-24861938D01*
X57034786Y-24929856D01*
X57034681Y-25006621D01*
X57034649Y-25092886D01*
X57034607Y-25535850D01*
X56867501Y-25535850D01*
X56700395Y-25535850D01*
X56697983Y-25097963D01*
X56697878Y-25079022D01*
X56697428Y-25000936D01*
X56696977Y-24932140D01*
X56696490Y-24871928D01*
X56695934Y-24819597D01*
X56695274Y-24774441D01*
X56694476Y-24735755D01*
X56693506Y-24702835D01*
X56692330Y-24674974D01*
X56690914Y-24651469D01*
X56689222Y-24631614D01*
X56687222Y-24614703D01*
X56684880Y-24600034D01*
X56682159Y-24586899D01*
X56679028Y-24574595D01*
X56675451Y-24562415D01*
X56671394Y-24549657D01*
X56665191Y-24532356D01*
X56642576Y-24486931D01*
X56613265Y-24447374D01*
X56578249Y-24414513D01*
X56538523Y-24389175D01*
X56495081Y-24372188D01*
X56448916Y-24364378D01*
X56415735Y-24364046D01*
X56370759Y-24370450D01*
X56331409Y-24385258D01*
X56297451Y-24408603D01*
X56268656Y-24440619D01*
X56244790Y-24481439D01*
X56243535Y-24484090D01*
X56238188Y-24495684D01*
X56233452Y-24506903D01*
X56229286Y-24518405D01*
X56225651Y-24530849D01*
X56222506Y-24544891D01*
X56219811Y-24561190D01*
X56217527Y-24580404D01*
X56215611Y-24603192D01*
X56214026Y-24630211D01*
X56212730Y-24662119D01*
X56211682Y-24699574D01*
X56210844Y-24743235D01*
X56210175Y-24793760D01*
X56209634Y-24851806D01*
X56209182Y-24918032D01*
X56208778Y-24993096D01*
X56208382Y-25077655D01*
X56206307Y-25535850D01*
X56041685Y-25535850D01*
X55877062Y-25535850D01*
X55877062Y-25033736D01*
X55877062Y-25016279D01*
X55877074Y-24935300D01*
X55877113Y-24863682D01*
X55877189Y-24800764D01*
X55877315Y-24745885D01*
X55877503Y-24698386D01*
X55877764Y-24657605D01*
X55878109Y-24622882D01*
X55878551Y-24593557D01*
X55879101Y-24568969D01*
X55879771Y-24548457D01*
X55880572Y-24531361D01*
X55881517Y-24517021D01*
X55882617Y-24504775D01*
X55883883Y-24493964D01*
X55885327Y-24483926D01*
X55886961Y-24474002D01*
X55900859Y-24409179D01*
X55921825Y-24344246D01*
X55948976Y-24286425D01*
X55982774Y-24234904D01*
X56023679Y-24188871D01*
X56072153Y-24147510D01*
X56089281Y-24135411D01*
X56143146Y-24105314D01*
X56202091Y-24082766D01*
X56264818Y-24067786D01*
X56330029Y-24060397D01*
X56396427Y-24060620D01*
X56462715Y-24068476D01*
X56527594Y-24083986D01*
X56589767Y-24107172D01*
X56647937Y-24138054D01*
X56658232Y-24144902D01*
X56682703Y-24163497D01*
X56709290Y-24186093D01*
X56735349Y-24210285D01*
X56758236Y-24233669D01*
X56775307Y-24253843D01*
X56782349Y-24262457D01*
X56787330Y-24265043D01*
X56791199Y-24260844D01*
X56791525Y-24260282D01*
X56797298Y-24251612D01*
X56807084Y-24237894D01*
X56818959Y-24221832D01*
X56834625Y-24202330D01*
X56877735Y-24159383D01*
X56926214Y-24124047D01*
X56979058Y-24096359D01*
X57035263Y-24076355D01*
X57093824Y-24064073D01*
X57153736Y-24059550D01*
X57213997Y-24062821D01*
G37*
G36*
X62226972Y-24667254D02*
G01*
X62227272Y-24667831D01*
X62225692Y-24668534D01*
X62224676Y-24668395D01*
X62224412Y-24667254D01*
X62224693Y-24667024D01*
X62226972Y-24667254D01*
G37*
G36*
X67347253Y-24660885D02*
G01*
X67370764Y-24670648D01*
X67402257Y-24680199D01*
X67427977Y-24685663D01*
X67457897Y-24689836D01*
X67489638Y-24692301D01*
X67522359Y-24693042D01*
X67555218Y-24692041D01*
X67587371Y-24689280D01*
X67617976Y-24684741D01*
X67641653Y-24679628D01*
X67672706Y-24670296D01*
X67701029Y-24658518D01*
X67726547Y-24644348D01*
X67749189Y-24627843D01*
X67768881Y-24609057D01*
X67785551Y-24588045D01*
X67799127Y-24564862D01*
X67809535Y-24539564D01*
X67812380Y-24530851D01*
X67814875Y-24522472D01*
X67816829Y-24514610D01*
X67818322Y-24506641D01*
X67819430Y-24497944D01*
X67820231Y-24487897D01*
X67820804Y-24475876D01*
X67821226Y-24461261D01*
X67821576Y-24443428D01*
X67822528Y-24388231D01*
X67711148Y-24388231D01*
X67599768Y-24388231D01*
X67598976Y-24437668D01*
X67598711Y-24452270D01*
X67598328Y-24466043D01*
X67597768Y-24476979D01*
X67596933Y-24485618D01*
X67595724Y-24492496D01*
X67594044Y-24498153D01*
X67591794Y-24503127D01*
X67588876Y-24507956D01*
X67585191Y-24513179D01*
X67575448Y-24523460D01*
X67562541Y-24531998D01*
X67547097Y-24538265D01*
X67542143Y-24539522D01*
X67529722Y-24541269D01*
X67515814Y-24541782D01*
X67501712Y-24541100D01*
X67488707Y-24539258D01*
X67478094Y-24536294D01*
X67467944Y-24531388D01*
X67455837Y-24522099D01*
X67446423Y-24510078D01*
X67439700Y-24495322D01*
X67435668Y-24477828D01*
X67434324Y-24457594D01*
X67435263Y-24443006D01*
X67438574Y-24428875D01*
X67444585Y-24415695D01*
X67453618Y-24402771D01*
X67465997Y-24389407D01*
X67467790Y-24387677D01*
X67474991Y-24381119D01*
X67482938Y-24374533D01*
X67491927Y-24367730D01*
X67502255Y-24360518D01*
X67514221Y-24352707D01*
X67528123Y-24344109D01*
X67544257Y-24334531D01*
X67562922Y-24323786D01*
X67584414Y-24311681D01*
X67609033Y-24298027D01*
X67631324Y-24285564D01*
X67655897Y-24271304D01*
X67677568Y-24258050D01*
X67696698Y-24245553D01*
X67713649Y-24233569D01*
X67728780Y-24221849D01*
X67742453Y-24210147D01*
X67755028Y-24198217D01*
X67768729Y-24183571D01*
X67784206Y-24163611D01*
X67796453Y-24142939D01*
X67805659Y-24121079D01*
X67812016Y-24097555D01*
X67815714Y-24071892D01*
X67816943Y-24043613D01*
X67816405Y-24022387D01*
X67813355Y-23992461D01*
X67807563Y-23965064D01*
X67798974Y-23940046D01*
X67787533Y-23917257D01*
X67773183Y-23896545D01*
X67755870Y-23877761D01*
X67753069Y-23875121D01*
X67749427Y-23871693D01*
X67746880Y-23869148D01*
X67745698Y-23867562D01*
X67746147Y-23867008D01*
X67748498Y-23867564D01*
X67753017Y-23869303D01*
X67759973Y-23872300D01*
X67769633Y-23876632D01*
X67782267Y-23882371D01*
X67798141Y-23889595D01*
X67812994Y-23896368D01*
X67898964Y-23936546D01*
X67982212Y-23977135D01*
X68062614Y-24018066D01*
X68140047Y-24059268D01*
X68214387Y-24100671D01*
X68285511Y-24142206D01*
X68353295Y-24183801D01*
X68417616Y-24225387D01*
X68478350Y-24266894D01*
X68535375Y-24308252D01*
X68546445Y-24316588D01*
X68599172Y-24357805D01*
X68648262Y-24398792D01*
X68693698Y-24439531D01*
X68735465Y-24480002D01*
X68773546Y-24520186D01*
X68807926Y-24560064D01*
X68838587Y-24599615D01*
X68865515Y-24638821D01*
X68888693Y-24677663D01*
X68908105Y-24716120D01*
X68923736Y-24754173D01*
X68935567Y-24791804D01*
X68938698Y-24804349D01*
X68945551Y-24841344D01*
X68948650Y-24877635D01*
X68947987Y-24913257D01*
X68943555Y-24948247D01*
X68935346Y-24982640D01*
X68923351Y-25016473D01*
X68907563Y-25049782D01*
X68887973Y-25082603D01*
X68864575Y-25114973D01*
X68860978Y-25119377D01*
X68852041Y-25129521D01*
X68841172Y-25141103D01*
X68829046Y-25153454D01*
X68816343Y-25165903D01*
X68803738Y-25177781D01*
X68791910Y-25188417D01*
X68781535Y-25197142D01*
X68759085Y-25214464D01*
X68718709Y-25242711D01*
X68675107Y-25269786D01*
X68628224Y-25295712D01*
X68578005Y-25320512D01*
X68524396Y-25344210D01*
X68467341Y-25366829D01*
X68406788Y-25388394D01*
X68342680Y-25408928D01*
X68274964Y-25428454D01*
X68203584Y-25446997D01*
X68184621Y-25451612D01*
X68111481Y-25468316D01*
X68036172Y-25483797D01*
X67958566Y-25498069D01*
X67878536Y-25511146D01*
X67795956Y-25523043D01*
X67710698Y-25533773D01*
X67622636Y-25543351D01*
X67531642Y-25551790D01*
X67437591Y-25559105D01*
X67340355Y-25565310D01*
X67239808Y-25570418D01*
X67135821Y-25574445D01*
X67028269Y-25577403D01*
X67025544Y-25577457D01*
X67014565Y-25577599D01*
X67000241Y-25577698D01*
X66982945Y-25577757D01*
X66963053Y-25577778D01*
X66940938Y-25577764D01*
X66916975Y-25577717D01*
X66891539Y-25577639D01*
X66865005Y-25577532D01*
X66837747Y-25577398D01*
X66810140Y-25577241D01*
X66782557Y-25577061D01*
X66755375Y-25576861D01*
X66728967Y-25576645D01*
X66703708Y-25576412D01*
X66679972Y-25576167D01*
X66658134Y-25575911D01*
X66638569Y-25575647D01*
X66621652Y-25575376D01*
X66607756Y-25575101D01*
X66597257Y-25574824D01*
X66579218Y-25574236D01*
X66404961Y-25567296D01*
X66233336Y-25558139D01*
X66063865Y-25546733D01*
X65896069Y-25533046D01*
X65729471Y-25517048D01*
X65585799Y-25501446D01*
X65417916Y-25481306D01*
X65250111Y-25459140D01*
X65082572Y-25434992D01*
X64915486Y-25408904D01*
X64749041Y-25380919D01*
X64583426Y-25351082D01*
X64418827Y-25319434D01*
X64255434Y-25286021D01*
X64093432Y-25250884D01*
X63933012Y-25214067D01*
X63774359Y-25175613D01*
X63617662Y-25135566D01*
X63463109Y-25093969D01*
X63310887Y-25050865D01*
X63161185Y-25006297D01*
X63014190Y-24960310D01*
X62870090Y-24912945D01*
X62729073Y-24864246D01*
X62591326Y-24814257D01*
X62457037Y-24763020D01*
X62456576Y-24762840D01*
X62436542Y-24754958D01*
X62415940Y-24746777D01*
X62395066Y-24738419D01*
X62374214Y-24730008D01*
X62353681Y-24721667D01*
X62333762Y-24713517D01*
X62314752Y-24705682D01*
X62296946Y-24698284D01*
X62280641Y-24691446D01*
X62266131Y-24685291D01*
X62253712Y-24679942D01*
X62243679Y-24675520D01*
X62236328Y-24672150D01*
X62231954Y-24669954D01*
X62230852Y-24669053D01*
X62231889Y-24668994D01*
X62236189Y-24669363D01*
X62242813Y-24670250D01*
X62250824Y-24671538D01*
X62258146Y-24672565D01*
X62270567Y-24673734D01*
X62285377Y-24674674D01*
X62301756Y-24675367D01*
X62318881Y-24675794D01*
X62335931Y-24675936D01*
X62352084Y-24675774D01*
X62366518Y-24675290D01*
X62378412Y-24674464D01*
X62411835Y-24669976D01*
X62444114Y-24663043D01*
X62474056Y-24653856D01*
X62477991Y-24652215D01*
X62837174Y-24652215D01*
X62984743Y-24652215D01*
X63132313Y-24652215D01*
X63234172Y-24317196D01*
X63241470Y-24293196D01*
X63251855Y-24259052D01*
X63261906Y-24226025D01*
X63271565Y-24194297D01*
X63280777Y-24164050D01*
X63289487Y-24135468D01*
X63297638Y-24108733D01*
X63305175Y-24084027D01*
X63312042Y-24061534D01*
X63318183Y-24041436D01*
X63323543Y-24023916D01*
X63328065Y-24009157D01*
X63331694Y-23997340D01*
X63334375Y-23988650D01*
X63336051Y-23983268D01*
X63336666Y-23981377D01*
X63336712Y-23981325D01*
X63338366Y-23981641D01*
X63338399Y-23981867D01*
X63338459Y-23985041D01*
X63338454Y-23991796D01*
X63338387Y-24001936D01*
X63338262Y-24015267D01*
X63338079Y-24031593D01*
X63337843Y-24050717D01*
X63337555Y-24072444D01*
X63337219Y-24096579D01*
X63336838Y-24122925D01*
X63336413Y-24151287D01*
X63335948Y-24181469D01*
X63335446Y-24213275D01*
X63334908Y-24246510D01*
X63334339Y-24280978D01*
X63333739Y-24316483D01*
X63333548Y-24327725D01*
X63332956Y-24362934D01*
X63332393Y-24397049D01*
X63331861Y-24429872D01*
X63331364Y-24461209D01*
X63330903Y-24490862D01*
X63330482Y-24518637D01*
X63330104Y-24544337D01*
X63329771Y-24567767D01*
X63329487Y-24588729D01*
X63329253Y-24607028D01*
X63329074Y-24622468D01*
X63328951Y-24634853D01*
X63328887Y-24643987D01*
X63328885Y-24649674D01*
X63328949Y-24651718D01*
X63329403Y-24651844D01*
X63333036Y-24652114D01*
X63339991Y-24652365D01*
X63349912Y-24652591D01*
X63362441Y-24652788D01*
X63377221Y-24652949D01*
X63393894Y-24653071D01*
X63412102Y-24653148D01*
X63431489Y-24653175D01*
X63533130Y-24653175D01*
X63533130Y-24255203D01*
X63761847Y-24255203D01*
X63761852Y-24287766D01*
X63761889Y-24317225D01*
X63761960Y-24343762D01*
X63762069Y-24367556D01*
X63762219Y-24388787D01*
X63762412Y-24407635D01*
X63762652Y-24424281D01*
X63762942Y-24438904D01*
X63763284Y-24451684D01*
X63763682Y-24462801D01*
X63764139Y-24472435D01*
X63764657Y-24480767D01*
X63765240Y-24487976D01*
X63765890Y-24494242D01*
X63766611Y-24499745D01*
X63767406Y-24504666D01*
X63768278Y-24509184D01*
X63770827Y-24520097D01*
X63779002Y-24545581D01*
X63789798Y-24569427D01*
X63802856Y-24590787D01*
X63808866Y-24598441D01*
X63818405Y-24608881D01*
X63829246Y-24619409D01*
X63840291Y-24628970D01*
X63850446Y-24636513D01*
X63866422Y-24646102D01*
X63892229Y-24658295D01*
X63920949Y-24668389D01*
X63952355Y-24676308D01*
X63986221Y-24681975D01*
X63992426Y-24682627D01*
X64003954Y-24683433D01*
X64017847Y-24684081D01*
X64033239Y-24684558D01*
X64049263Y-24684848D01*
X64065055Y-24684938D01*
X64079748Y-24684813D01*
X64092476Y-24684461D01*
X64102374Y-24683866D01*
X64134457Y-24680061D01*
X64168211Y-24673562D01*
X64198934Y-24664745D01*
X64226658Y-24653590D01*
X64251415Y-24640077D01*
X64273235Y-24624185D01*
X64292150Y-24605895D01*
X64308191Y-24585185D01*
X64321390Y-24562037D01*
X64331779Y-24536430D01*
X64332651Y-24533853D01*
X64334096Y-24529668D01*
X64335414Y-24525822D01*
X64336610Y-24522134D01*
X64337691Y-24518421D01*
X64338662Y-24514502D01*
X64339531Y-24510196D01*
X64340304Y-24505321D01*
X64340986Y-24499695D01*
X64341584Y-24493136D01*
X64342104Y-24485463D01*
X64342553Y-24476493D01*
X64342936Y-24466047D01*
X64343260Y-24453940D01*
X64343531Y-24439993D01*
X64343597Y-24435302D01*
X64535802Y-24435302D01*
X64536516Y-24459756D01*
X64538455Y-24483840D01*
X64541605Y-24506667D01*
X64545950Y-24527353D01*
X64552811Y-24549033D01*
X64563929Y-24572965D01*
X64578193Y-24594766D01*
X64595553Y-24614399D01*
X64615958Y-24631828D01*
X64639360Y-24647016D01*
X64665708Y-24659928D01*
X64694952Y-24670526D01*
X64727042Y-24678775D01*
X64761928Y-24684638D01*
X64766640Y-24685185D01*
X64778537Y-24686252D01*
X64792426Y-24687186D01*
X64807339Y-24687946D01*
X64822307Y-24688495D01*
X64836360Y-24688794D01*
X64848530Y-24688804D01*
X64857846Y-24688486D01*
X64860583Y-24688302D01*
X64892689Y-24685407D01*
X64921702Y-24681280D01*
X64948167Y-24675789D01*
X64972629Y-24668803D01*
X64993854Y-24660854D01*
X65329573Y-24660854D01*
X65434488Y-24660854D01*
X65539403Y-24660854D01*
X65539359Y-24620057D01*
X65539358Y-24618643D01*
X65539369Y-24608887D01*
X65539407Y-24596043D01*
X65539469Y-24580340D01*
X65539555Y-24562011D01*
X65539662Y-24541285D01*
X65539789Y-24518394D01*
X65539935Y-24493570D01*
X65540097Y-24467042D01*
X65540274Y-24439042D01*
X65540463Y-24409801D01*
X65540665Y-24379549D01*
X65540876Y-24348518D01*
X65541095Y-24316939D01*
X65541321Y-24285042D01*
X65541551Y-24253059D01*
X65541784Y-24221220D01*
X65542019Y-24189757D01*
X65542253Y-24158900D01*
X65542485Y-24128880D01*
X65542713Y-24099929D01*
X65542936Y-24072277D01*
X65543152Y-24046155D01*
X65543359Y-24021794D01*
X65543556Y-23999425D01*
X65543740Y-23979279D01*
X65543910Y-23961587D01*
X65544065Y-23946580D01*
X65544202Y-23934489D01*
X65544321Y-23925545D01*
X65544419Y-23919979D01*
X65544494Y-23918021D01*
X65546046Y-23918104D01*
X65546080Y-23918204D01*
X65546656Y-23920918D01*
X65547891Y-23927187D01*
X65549750Y-23936830D01*
X65552200Y-23949666D01*
X65555206Y-23965512D01*
X65558735Y-23984187D01*
X65562752Y-24005510D01*
X65567222Y-24029298D01*
X65572113Y-24055370D01*
X65577389Y-24083544D01*
X65583017Y-24113638D01*
X65588963Y-24145472D01*
X65595192Y-24178863D01*
X65601670Y-24213629D01*
X65608364Y-24249588D01*
X65615238Y-24286560D01*
X65616607Y-24293926D01*
X65623454Y-24330757D01*
X65630115Y-24366562D01*
X65636554Y-24401158D01*
X65642738Y-24434362D01*
X65648633Y-24465991D01*
X65654204Y-24495860D01*
X65659416Y-24523788D01*
X65664236Y-24549590D01*
X65668630Y-24573084D01*
X65672562Y-24594085D01*
X65676000Y-24612411D01*
X65678908Y-24627878D01*
X65681252Y-24640304D01*
X65682999Y-24649504D01*
X65684113Y-24655295D01*
X65684561Y-24657494D01*
X65684959Y-24658211D01*
X65685898Y-24658828D01*
X65687676Y-24659341D01*
X65690591Y-24659760D01*
X65694944Y-24660094D01*
X65701035Y-24660352D01*
X65709166Y-24660545D01*
X65719634Y-24660682D01*
X65732742Y-24660771D01*
X65748789Y-24660824D01*
X65768075Y-24660848D01*
X65790901Y-24660854D01*
X65896229Y-24660854D01*
X65898239Y-24650775D01*
X65898732Y-24648194D01*
X65899905Y-24641952D01*
X65901710Y-24632303D01*
X65904111Y-24619438D01*
X65907074Y-24603547D01*
X65910562Y-24584821D01*
X65914540Y-24563450D01*
X65918973Y-24539627D01*
X65923825Y-24513540D01*
X65929061Y-24485382D01*
X65934645Y-24455342D01*
X65940542Y-24423611D01*
X65946717Y-24390381D01*
X65953133Y-24355842D01*
X65959755Y-24320184D01*
X65966548Y-24283598D01*
X65973036Y-24248660D01*
X65979646Y-24213092D01*
X65986044Y-24178681D01*
X65992197Y-24145614D01*
X65998069Y-24114077D01*
X66003625Y-24084258D01*
X66008831Y-24056344D01*
X66013651Y-24030522D01*
X66018051Y-24006979D01*
X66021995Y-23985902D01*
X66025449Y-23967478D01*
X66028378Y-23951894D01*
X66030746Y-23939337D01*
X66032520Y-23929995D01*
X66033663Y-23924053D01*
X66034141Y-23921701D01*
X66034608Y-23920455D01*
X66035108Y-23920466D01*
X66035568Y-23922188D01*
X66035991Y-23925771D01*
X66036379Y-23931367D01*
X66036736Y-23939130D01*
X66037065Y-23949211D01*
X66037369Y-23961763D01*
X66037652Y-23976936D01*
X66037915Y-23994885D01*
X66038164Y-24015760D01*
X66038400Y-24039715D01*
X66038627Y-24066900D01*
X66038849Y-24097469D01*
X66039067Y-24131573D01*
X66039286Y-24169365D01*
X66039384Y-24186822D01*
X66039578Y-24219791D01*
X66039786Y-24253770D01*
X66040005Y-24288274D01*
X66040233Y-24322819D01*
X66040465Y-24356919D01*
X66040698Y-24390090D01*
X66040929Y-24421846D01*
X66041155Y-24451702D01*
X66041372Y-24479173D01*
X66041576Y-24503775D01*
X66041765Y-24525023D01*
X66043025Y-24660854D01*
X66147648Y-24660854D01*
X66252271Y-24660854D01*
X66414531Y-24660854D01*
X66527012Y-24660854D01*
X66534299Y-24660851D01*
X66557263Y-24660804D01*
X66577837Y-24660699D01*
X66595814Y-24660541D01*
X66610986Y-24660332D01*
X66623148Y-24660077D01*
X66632091Y-24659777D01*
X66637609Y-24659438D01*
X66639494Y-24659061D01*
X66639511Y-24658850D01*
X66639920Y-24655706D01*
X66640849Y-24649058D01*
X66642266Y-24639127D01*
X66644138Y-24626135D01*
X66646432Y-24610302D01*
X66649117Y-24591850D01*
X66652158Y-24571001D01*
X66655525Y-24547975D01*
X66659183Y-24522994D01*
X66663100Y-24496279D01*
X66667244Y-24468052D01*
X66671582Y-24438534D01*
X66676081Y-24407945D01*
X66680709Y-24376509D01*
X66685433Y-24344445D01*
X66690220Y-24311975D01*
X66695037Y-24279321D01*
X66699853Y-24246704D01*
X66704633Y-24214344D01*
X66709347Y-24182464D01*
X66713960Y-24151285D01*
X66718441Y-24121028D01*
X66722756Y-24091914D01*
X66726874Y-24064164D01*
X66730761Y-24038001D01*
X66734384Y-24013645D01*
X66737711Y-23991317D01*
X66740710Y-23971240D01*
X66743348Y-23953633D01*
X66745591Y-23938720D01*
X66747408Y-23926720D01*
X66748766Y-23917855D01*
X66749631Y-23912346D01*
X66749972Y-23910416D01*
X66751585Y-23910341D01*
X66751636Y-23910551D01*
X66752165Y-23913649D01*
X66753229Y-23920305D01*
X66754801Y-23930339D01*
X66756853Y-23943568D01*
X66759357Y-23959812D01*
X66762286Y-23978888D01*
X66765611Y-24000616D01*
X66769306Y-24024813D01*
X66773342Y-24051298D01*
X66777693Y-24079891D01*
X66782329Y-24110408D01*
X66787223Y-24142669D01*
X66792349Y-24176491D01*
X66797677Y-24211695D01*
X66803180Y-24248098D01*
X66808832Y-24285518D01*
X66865340Y-24659894D01*
X66978158Y-24660389D01*
X67090977Y-24660885D01*
X67089853Y-24655590D01*
X67089419Y-24653319D01*
X67088315Y-24647432D01*
X67086576Y-24638117D01*
X67084235Y-24625550D01*
X67081324Y-24609905D01*
X67077877Y-24591360D01*
X67073926Y-24570089D01*
X67069502Y-24546269D01*
X67064640Y-24520075D01*
X67059372Y-24491683D01*
X67053729Y-24461269D01*
X67047746Y-24429008D01*
X67041454Y-24395077D01*
X67034886Y-24359651D01*
X67028075Y-24322905D01*
X67021054Y-24285017D01*
X67013854Y-24246160D01*
X67006829Y-24208246D01*
X66999803Y-24170332D01*
X66992987Y-24133556D01*
X66986414Y-24098096D01*
X66980115Y-24064126D01*
X66974125Y-24031823D01*
X66968475Y-24001361D01*
X66963198Y-23972918D01*
X66958326Y-23946669D01*
X66953893Y-23922788D01*
X66949931Y-23901454D01*
X66946472Y-23882840D01*
X66943550Y-23867122D01*
X66941196Y-23854478D01*
X66939443Y-23845081D01*
X66938325Y-23839109D01*
X66937873Y-23836736D01*
X66936766Y-23831447D01*
X66752151Y-23831937D01*
X66567536Y-23832426D01*
X66492315Y-24239441D01*
X66492122Y-24240488D01*
X66484914Y-24279491D01*
X66477883Y-24317537D01*
X66471062Y-24354451D01*
X66464483Y-24390057D01*
X66458179Y-24424177D01*
X66452183Y-24456636D01*
X66446526Y-24487258D01*
X66441241Y-24515867D01*
X66436362Y-24542285D01*
X66431920Y-24566338D01*
X66427949Y-24587848D01*
X66424479Y-24606640D01*
X66421546Y-24622537D01*
X66419179Y-24635363D01*
X66417413Y-24644942D01*
X66416280Y-24651098D01*
X66415812Y-24653655D01*
X66414531Y-24660854D01*
X66252271Y-24660854D01*
X66251092Y-24625816D01*
X66251082Y-24625524D01*
X66250916Y-24619752D01*
X66250674Y-24610365D01*
X66250363Y-24597569D01*
X66249985Y-24581574D01*
X66249546Y-24562584D01*
X66249051Y-24540809D01*
X66248503Y-24516455D01*
X66247908Y-24489730D01*
X66247271Y-24460841D01*
X66246595Y-24429995D01*
X66245885Y-24397400D01*
X66245146Y-24363263D01*
X66244383Y-24327791D01*
X66243600Y-24291192D01*
X66242802Y-24253673D01*
X66241993Y-24215442D01*
X66241811Y-24206811D01*
X66241014Y-24169291D01*
X66240231Y-24132812D01*
X66239468Y-24097559D01*
X66238728Y-24063719D01*
X66238016Y-24031479D01*
X66237336Y-24001025D01*
X66236692Y-23972544D01*
X66236089Y-23946223D01*
X66235530Y-23922247D01*
X66235021Y-23900805D01*
X66234565Y-23882081D01*
X66234168Y-23866264D01*
X66233832Y-23853539D01*
X66233562Y-23844094D01*
X66233364Y-23838114D01*
X66233240Y-23835786D01*
X66232406Y-23831466D01*
X66063623Y-23831466D01*
X66055093Y-23831467D01*
X66026756Y-23831472D01*
X66001956Y-23831488D01*
X65980457Y-23831520D01*
X65962023Y-23831573D01*
X65946417Y-23831650D01*
X65933403Y-23831757D01*
X65922744Y-23831898D01*
X65914204Y-23832078D01*
X65907547Y-23832302D01*
X65902535Y-23832575D01*
X65898933Y-23832900D01*
X65896505Y-23833283D01*
X65895012Y-23833729D01*
X65894220Y-23834242D01*
X65893892Y-23834826D01*
X65893547Y-23836713D01*
X65892617Y-23842226D01*
X65891139Y-23851148D01*
X65889148Y-23863278D01*
X65886674Y-23878415D01*
X65883751Y-23896359D01*
X65880411Y-23916911D01*
X65876686Y-23939869D01*
X65872610Y-23965033D01*
X65868215Y-23992202D01*
X65863532Y-24021178D01*
X65858595Y-24051758D01*
X65853436Y-24083743D01*
X65848088Y-24116933D01*
X65842583Y-24151126D01*
X65837494Y-24182730D01*
X65832143Y-24215931D01*
X65826981Y-24247918D01*
X65822041Y-24278491D01*
X65817355Y-24307454D01*
X65812955Y-24334607D01*
X65808874Y-24359753D01*
X65805144Y-24382693D01*
X65801797Y-24403229D01*
X65798866Y-24421163D01*
X65796382Y-24436297D01*
X65794377Y-24448433D01*
X65792885Y-24457371D01*
X65791937Y-24462915D01*
X65791565Y-24464866D01*
X65790064Y-24464823D01*
X65789700Y-24463027D01*
X65788752Y-24457628D01*
X65787256Y-24448826D01*
X65785244Y-24436818D01*
X65782750Y-24421802D01*
X65779805Y-24403975D01*
X65776442Y-24383535D01*
X65772693Y-24360681D01*
X65768590Y-24335610D01*
X65764167Y-24308519D01*
X65759456Y-24279607D01*
X65754488Y-24249071D01*
X65749297Y-24217109D01*
X65743915Y-24183918D01*
X65738375Y-24149698D01*
X65733098Y-24117112D01*
X65727699Y-24083834D01*
X65722485Y-24051764D01*
X65717490Y-24021101D01*
X65712746Y-23992042D01*
X65708286Y-23964786D01*
X65704142Y-23939533D01*
X65700347Y-23916481D01*
X65696934Y-23895829D01*
X65693936Y-23877776D01*
X65691385Y-23862519D01*
X65689313Y-23850259D01*
X65687755Y-23841193D01*
X65686742Y-23835521D01*
X65686308Y-23833441D01*
X65684768Y-23833109D01*
X65679690Y-23832752D01*
X65671402Y-23832435D01*
X65660238Y-23832158D01*
X65646536Y-23831920D01*
X65630630Y-23831721D01*
X65612857Y-23831560D01*
X65593552Y-23831437D01*
X65573051Y-23831352D01*
X65551689Y-23831304D01*
X65529803Y-23831293D01*
X65507727Y-23831318D01*
X65485798Y-23831378D01*
X65464352Y-23831475D01*
X65443724Y-23831606D01*
X65424250Y-23831772D01*
X65406265Y-23831972D01*
X65390106Y-23832206D01*
X65376108Y-23832473D01*
X65364606Y-23832773D01*
X65355937Y-23833105D01*
X65350436Y-23833470D01*
X65348439Y-23833866D01*
X65348430Y-23833917D01*
X65348303Y-23836465D01*
X65348102Y-23842644D01*
X65347830Y-23852268D01*
X65347492Y-23865149D01*
X65347092Y-23881102D01*
X65346635Y-23899939D01*
X65346125Y-23921473D01*
X65345566Y-23945518D01*
X65344962Y-23971887D01*
X65344318Y-24000392D01*
X65343639Y-24030848D01*
X65342928Y-24063068D01*
X65342189Y-24096864D01*
X65341428Y-24132049D01*
X65340648Y-24168438D01*
X65339854Y-24205843D01*
X65339117Y-24240663D01*
X65338319Y-24278164D01*
X65337536Y-24314833D01*
X65336772Y-24350456D01*
X65336032Y-24384819D01*
X65335321Y-24417705D01*
X65334992Y-24432816D01*
X65334642Y-24448901D01*
X65334002Y-24478191D01*
X65333404Y-24505361D01*
X65332853Y-24530196D01*
X65332355Y-24552481D01*
X65331913Y-24572001D01*
X65331533Y-24588541D01*
X65331219Y-24601887D01*
X65330976Y-24611824D01*
X65330808Y-24618137D01*
X65329573Y-24660854D01*
X64993854Y-24660854D01*
X64995632Y-24660188D01*
X65017723Y-24649814D01*
X65039255Y-24637096D01*
X65061133Y-24620193D01*
X65080103Y-24600820D01*
X65096096Y-24579072D01*
X65109042Y-24555045D01*
X65118871Y-24528838D01*
X65125515Y-24500544D01*
X65126389Y-24494759D01*
X65127865Y-24481308D01*
X65129030Y-24465745D01*
X65129834Y-24449204D01*
X65130229Y-24432816D01*
X65130168Y-24417714D01*
X65129601Y-24405030D01*
X65128191Y-24386311D01*
X65017977Y-24386311D01*
X64907763Y-24386311D01*
X64907763Y-24432217D01*
X64907763Y-24433961D01*
X64907720Y-24448610D01*
X64907578Y-24460067D01*
X64907299Y-24468918D01*
X64906847Y-24475747D01*
X64906184Y-24481142D01*
X64905273Y-24485688D01*
X64904076Y-24489970D01*
X64903843Y-24490707D01*
X64897316Y-24505385D01*
X64887954Y-24517519D01*
X64875676Y-24527194D01*
X64860400Y-24534491D01*
X64853900Y-24536310D01*
X64842555Y-24538060D01*
X64829666Y-24538890D01*
X64816509Y-24538778D01*
X64804359Y-24537701D01*
X64794490Y-24535638D01*
X64793858Y-24535440D01*
X64779044Y-24529136D01*
X64767007Y-24520342D01*
X64757431Y-24508763D01*
X64749998Y-24494103D01*
X64748166Y-24488943D01*
X64746907Y-24483684D01*
X64746140Y-24477456D01*
X64745749Y-24469305D01*
X64745616Y-24458273D01*
X64745612Y-24456948D01*
X64745627Y-24447024D01*
X64745850Y-24439883D01*
X64746438Y-24434577D01*
X64747551Y-24430155D01*
X64749348Y-24425667D01*
X64751987Y-24420164D01*
X64760545Y-24406291D01*
X64772830Y-24391894D01*
X64788665Y-24377195D01*
X64807924Y-24362311D01*
X64830480Y-24347359D01*
X64832397Y-24346190D01*
X64839552Y-24341956D01*
X64849272Y-24336329D01*
X64860977Y-24329639D01*
X64874087Y-24322216D01*
X64888020Y-24314393D01*
X64902197Y-24306499D01*
X64914491Y-24299654D01*
X64941028Y-24284614D01*
X64964493Y-24270882D01*
X64985178Y-24258251D01*
X65003377Y-24246513D01*
X65019381Y-24235463D01*
X65033484Y-24224893D01*
X65045979Y-24214598D01*
X65057158Y-24204370D01*
X65067313Y-24194002D01*
X65076739Y-24183288D01*
X65084594Y-24173448D01*
X65097311Y-24154805D01*
X65107263Y-24135771D01*
X65114654Y-24115739D01*
X65119687Y-24094106D01*
X65122563Y-24070265D01*
X65123485Y-24043613D01*
X65123128Y-24027531D01*
X65120172Y-23996764D01*
X65114221Y-23968395D01*
X65105269Y-23942411D01*
X65093309Y-23918804D01*
X65078336Y-23897561D01*
X65060344Y-23878672D01*
X65039326Y-23862125D01*
X65015276Y-23847911D01*
X65013767Y-23847145D01*
X64994107Y-23838001D01*
X64974304Y-23830473D01*
X64953442Y-23824288D01*
X64930607Y-23819171D01*
X64904883Y-23814848D01*
X64902613Y-23814538D01*
X64890879Y-23813382D01*
X64876341Y-23812482D01*
X64859828Y-23811845D01*
X64842168Y-23811476D01*
X64824192Y-23811381D01*
X64806727Y-23811566D01*
X64790602Y-23812037D01*
X64776648Y-23812800D01*
X64765692Y-23813860D01*
X64761879Y-23814377D01*
X64727815Y-23820317D01*
X64697000Y-23828243D01*
X64688057Y-23831466D01*
X64669371Y-23838200D01*
X64644866Y-23850237D01*
X64623422Y-23864398D01*
X64604978Y-23880733D01*
X64589470Y-23899287D01*
X64576837Y-23920108D01*
X64567016Y-23943243D01*
X64559944Y-23968738D01*
X64559592Y-23970441D01*
X64558238Y-23978481D01*
X64557158Y-23987909D01*
X64556306Y-23999340D01*
X64555633Y-24013383D01*
X64555090Y-24030654D01*
X64553938Y-24075291D01*
X64657715Y-24075291D01*
X64761493Y-24075291D01*
X64762180Y-24039293D01*
X64762244Y-24035992D01*
X64762508Y-24024116D01*
X64762828Y-24015223D01*
X64763294Y-24008618D01*
X64763996Y-24003609D01*
X64765024Y-23999502D01*
X64766468Y-23995602D01*
X64768418Y-23991217D01*
X64770122Y-23987730D01*
X64778719Y-23974901D01*
X64789682Y-23964999D01*
X64803087Y-23957981D01*
X64819014Y-23953802D01*
X64837541Y-23952419D01*
X64845365Y-23952616D01*
X64862202Y-23954771D01*
X64876336Y-23959422D01*
X64888041Y-23966719D01*
X64897590Y-23976814D01*
X64905255Y-23989856D01*
X64906619Y-23992843D01*
X64908463Y-23997531D01*
X64909639Y-24002151D01*
X64910295Y-24007681D01*
X64910581Y-24015096D01*
X64910643Y-24025374D01*
X64910494Y-24035249D01*
X64909644Y-24046006D01*
X64907727Y-24054681D01*
X64904394Y-24062269D01*
X64899295Y-24069763D01*
X64892080Y-24078160D01*
X64892063Y-24078178D01*
X64885307Y-24085086D01*
X64877601Y-24091976D01*
X64868630Y-24099052D01*
X64858075Y-24106520D01*
X64845622Y-24114584D01*
X64830953Y-24123449D01*
X64813753Y-24133320D01*
X64793705Y-24144402D01*
X64770492Y-24156900D01*
X64764987Y-24159839D01*
X64740762Y-24172893D01*
X64719532Y-24184572D01*
X64700915Y-24195110D01*
X64684523Y-24204744D01*
X64669974Y-24213709D01*
X64656882Y-24222242D01*
X64644862Y-24230578D01*
X64633529Y-24238953D01*
X64622499Y-24247603D01*
X64619531Y-24250021D01*
X64596907Y-24270540D01*
X64577916Y-24291811D01*
X64562601Y-24313773D01*
X64551006Y-24336365D01*
X64543174Y-24359527D01*
X64541156Y-24368571D01*
X64538107Y-24388824D01*
X64536327Y-24411363D01*
X64535802Y-24435302D01*
X64343597Y-24435302D01*
X64343755Y-24424023D01*
X64343939Y-24405848D01*
X64344088Y-24385287D01*
X64344209Y-24362158D01*
X64344309Y-24336280D01*
X64344392Y-24307470D01*
X64344467Y-24275548D01*
X64344538Y-24240331D01*
X64344612Y-24201637D01*
X64344696Y-24159286D01*
X64345364Y-23831466D01*
X64239735Y-23831466D01*
X64134106Y-23831466D01*
X64133599Y-24154486D01*
X64133092Y-24477506D01*
X64128468Y-24489025D01*
X64124977Y-24496220D01*
X64119283Y-24504369D01*
X64111073Y-24513337D01*
X64108244Y-24516141D01*
X64102297Y-24521596D01*
X64097229Y-24525219D01*
X64091852Y-24527770D01*
X64084980Y-24530006D01*
X64084442Y-24530162D01*
X64071864Y-24533385D01*
X64061224Y-24535034D01*
X64051078Y-24535242D01*
X64039981Y-24534143D01*
X64024372Y-24530537D01*
X64009123Y-24523680D01*
X63996295Y-24514038D01*
X63986118Y-24501836D01*
X63978824Y-24487295D01*
X63974642Y-24470642D01*
X63974600Y-24470283D01*
X63974387Y-24466162D01*
X63974183Y-24458407D01*
X63973989Y-24447191D01*
X63973807Y-24432687D01*
X63973637Y-24415068D01*
X63973480Y-24394507D01*
X63973337Y-24371178D01*
X63973210Y-24345252D01*
X63973099Y-24316904D01*
X63973005Y-24286305D01*
X63972929Y-24253629D01*
X63972873Y-24219050D01*
X63972836Y-24182739D01*
X63972821Y-24144870D01*
X63972782Y-23831434D01*
X63966001Y-23831466D01*
X63867669Y-23831930D01*
X63762555Y-23832426D01*
X63761999Y-24132887D01*
X63761991Y-24137099D01*
X63761919Y-24180050D01*
X63761870Y-24219358D01*
X63761847Y-24255203D01*
X63533130Y-24255203D01*
X63533130Y-24242320D01*
X63533130Y-23831466D01*
X63379607Y-23831466D01*
X63364573Y-23831467D01*
X63338547Y-23831476D01*
X63315982Y-23831499D01*
X63296628Y-23831541D01*
X63280236Y-23831608D01*
X63266557Y-23831705D01*
X63255341Y-23831838D01*
X63246340Y-23832012D01*
X63239303Y-23832232D01*
X63233983Y-23832503D01*
X63230129Y-23832832D01*
X63227493Y-23833223D01*
X63225825Y-23833682D01*
X63224875Y-23834215D01*
X63224396Y-23834826D01*
X63224284Y-23835127D01*
X63223242Y-23838435D01*
X63221198Y-23845178D01*
X63218208Y-23855168D01*
X63214326Y-23868215D01*
X63209610Y-23884129D01*
X63204115Y-23902721D01*
X63197896Y-23923802D01*
X63191011Y-23947181D01*
X63183513Y-23972669D01*
X63175460Y-24000076D01*
X63166908Y-24029214D01*
X63157911Y-24059893D01*
X63148526Y-24091922D01*
X63138808Y-24125113D01*
X63128814Y-24159275D01*
X63125440Y-24170811D01*
X63115546Y-24204602D01*
X63105948Y-24237323D01*
X63096704Y-24268789D01*
X63087867Y-24298813D01*
X63079494Y-24327206D01*
X63071641Y-24353783D01*
X63064362Y-24378356D01*
X63057713Y-24400739D01*
X63051750Y-24420744D01*
X63046528Y-24438185D01*
X63042103Y-24452874D01*
X63038531Y-24464624D01*
X63035866Y-24473249D01*
X63034164Y-24478562D01*
X63033481Y-24480375D01*
X63033328Y-24480351D01*
X63033089Y-24480126D01*
X63032877Y-24479526D01*
X63032696Y-24478387D01*
X63032548Y-24476544D01*
X63032433Y-24473830D01*
X63032355Y-24470083D01*
X63032315Y-24465135D01*
X63032315Y-24458824D01*
X63032357Y-24450983D01*
X63032444Y-24441447D01*
X63032577Y-24430053D01*
X63032758Y-24416633D01*
X63032989Y-24401025D01*
X63033272Y-24383062D01*
X63033610Y-24362580D01*
X63034004Y-24339414D01*
X63034456Y-24313398D01*
X63034968Y-24284368D01*
X63035542Y-24252159D01*
X63036180Y-24216606D01*
X63036885Y-24177544D01*
X63037657Y-24134807D01*
X63037979Y-24116885D01*
X63038561Y-24083740D01*
X63039107Y-24051746D01*
X63039613Y-24021111D01*
X63040077Y-23992040D01*
X63040496Y-23964742D01*
X63040867Y-23939421D01*
X63041188Y-23916286D01*
X63041455Y-23895542D01*
X63041665Y-23877398D01*
X63041816Y-23862058D01*
X63041906Y-23849731D01*
X63041930Y-23840622D01*
X63041887Y-23834940D01*
X63041773Y-23832889D01*
X63041290Y-23832766D01*
X63037589Y-23832512D01*
X63030568Y-23832294D01*
X63020584Y-23832116D01*
X63007998Y-23831980D01*
X62993168Y-23831890D01*
X62976455Y-23831849D01*
X62958217Y-23831861D01*
X62938814Y-23831929D01*
X62837174Y-23832426D01*
X62837174Y-24242320D01*
X62837174Y-24652215D01*
X62477991Y-24652215D01*
X62501195Y-24642537D01*
X62521176Y-24631781D01*
X62544426Y-24615782D01*
X62564587Y-24597503D01*
X62581663Y-24576941D01*
X62595658Y-24554089D01*
X62606575Y-24528942D01*
X62614418Y-24501496D01*
X62619189Y-24471746D01*
X62619291Y-24470747D01*
X62620177Y-24459764D01*
X62620924Y-24445885D01*
X62621531Y-24429016D01*
X62622001Y-24409063D01*
X62622333Y-24385931D01*
X62622528Y-24359527D01*
X62622587Y-24329757D01*
X62622512Y-24296525D01*
X62622301Y-24259739D01*
X62621957Y-24219303D01*
X62621480Y-24175125D01*
X62621216Y-24152787D01*
X62620886Y-24125624D01*
X62620570Y-24101810D01*
X62620249Y-24081063D01*
X62619903Y-24063101D01*
X62619511Y-24047641D01*
X62619055Y-24034401D01*
X62618515Y-24023100D01*
X62617870Y-24013453D01*
X62617102Y-24005181D01*
X62616190Y-23997999D01*
X62615116Y-23991626D01*
X62613858Y-23985780D01*
X62612398Y-23980179D01*
X62610715Y-23974539D01*
X62608791Y-23968580D01*
X62606605Y-23962018D01*
X62597004Y-23937839D01*
X62584084Y-23914401D01*
X62568357Y-23893489D01*
X62549700Y-23874964D01*
X62527994Y-23858689D01*
X62503115Y-23844525D01*
X62485876Y-23836555D01*
X62465491Y-23828731D01*
X62444471Y-23822497D01*
X62422197Y-23817722D01*
X62398053Y-23814279D01*
X62371422Y-23812039D01*
X62341687Y-23810873D01*
X62338715Y-23810812D01*
X62315650Y-23810591D01*
X62295452Y-23810924D01*
X62277283Y-23811871D01*
X62260302Y-23813492D01*
X62243667Y-23815845D01*
X62226540Y-23818990D01*
X62210773Y-23822519D01*
X62179916Y-23831723D01*
X62151958Y-23843376D01*
X62126921Y-23857459D01*
X62104829Y-23873953D01*
X62085705Y-23892841D01*
X62069573Y-23914103D01*
X62056454Y-23937722D01*
X62046373Y-23963677D01*
X62044926Y-23968381D01*
X62041508Y-23980896D01*
X62038921Y-23993167D01*
X62037064Y-24006008D01*
X62035835Y-24020233D01*
X62035133Y-24036657D01*
X62034855Y-24056092D01*
X62034664Y-24097370D01*
X62139297Y-24097370D01*
X62243931Y-24097370D01*
X62245030Y-24058012D01*
X62245256Y-24050338D01*
X62245695Y-24038274D01*
X62246201Y-24029081D01*
X62246840Y-24022126D01*
X62247678Y-24016773D01*
X62248782Y-24012386D01*
X62250218Y-24008330D01*
X62256113Y-23996115D01*
X62265708Y-23983208D01*
X62277803Y-23973130D01*
X62292595Y-23965687D01*
X62292994Y-23965537D01*
X62302697Y-23962940D01*
X62314700Y-23961177D01*
X62327600Y-23960340D01*
X62339998Y-23960525D01*
X62350493Y-23961823D01*
X62364638Y-23965950D01*
X62379424Y-23973576D01*
X62391630Y-23984004D01*
X62401171Y-23997137D01*
X62407960Y-24012879D01*
X62411913Y-24031134D01*
X62412175Y-24033986D01*
X62412521Y-24040893D01*
X62412817Y-24051066D01*
X62413064Y-24064570D01*
X62413261Y-24081466D01*
X62413411Y-24101820D01*
X62413512Y-24125696D01*
X62413566Y-24153155D01*
X62413573Y-24184263D01*
X62413533Y-24219083D01*
X62413447Y-24257679D01*
X62412880Y-24467906D01*
X62408425Y-24478939D01*
X62402569Y-24490105D01*
X62392571Y-24502287D01*
X62380003Y-24512431D01*
X62365457Y-24520076D01*
X62349524Y-24524762D01*
X62341553Y-24525760D01*
X62328843Y-24526088D01*
X62315390Y-24525316D01*
X62302693Y-24523546D01*
X62292254Y-24520879D01*
X62280459Y-24515488D01*
X62268000Y-24506704D01*
X62257532Y-24495861D01*
X62249671Y-24483612D01*
X62245033Y-24470614D01*
X62244832Y-24469434D01*
X62244297Y-24463537D01*
X62243841Y-24454224D01*
X62243472Y-24441808D01*
X62243199Y-24426606D01*
X62243029Y-24408930D01*
X62242971Y-24389097D01*
X62242971Y-24317196D01*
X62285208Y-24317196D01*
X62327446Y-24317196D01*
X62327446Y-24255760D01*
X62327446Y-24194323D01*
X62179615Y-24194323D01*
X62031784Y-24194323D01*
X62031784Y-24309636D01*
X62031785Y-24313825D01*
X62031837Y-24343647D01*
X62031980Y-24369968D01*
X62032226Y-24393087D01*
X62032588Y-24413302D01*
X62033076Y-24430914D01*
X62033704Y-24446219D01*
X62034482Y-24459518D01*
X62035424Y-24471109D01*
X62036540Y-24481291D01*
X62037843Y-24490364D01*
X62039345Y-24498624D01*
X62040933Y-24505865D01*
X62049124Y-24532533D01*
X62060578Y-24557324D01*
X62075200Y-24580054D01*
X62092892Y-24600538D01*
X62108884Y-24616617D01*
X62094812Y-24610194D01*
X62028567Y-24579484D01*
X61944583Y-24539108D01*
X61863669Y-24498531D01*
X61785871Y-24457786D01*
X61711233Y-24416903D01*
X61639798Y-24375914D01*
X61571612Y-24334851D01*
X61506719Y-24293745D01*
X61445163Y-24252628D01*
X61386988Y-24211532D01*
X61332239Y-24170487D01*
X61280960Y-24129526D01*
X61233196Y-24088680D01*
X61188991Y-24047980D01*
X61148388Y-24007459D01*
X61111434Y-23967147D01*
X61078171Y-23927077D01*
X61048645Y-23887279D01*
X61022900Y-23847785D01*
X61020556Y-23843856D01*
X61012379Y-23829360D01*
X61003791Y-23813097D01*
X60995282Y-23796069D01*
X60987344Y-23779281D01*
X60980471Y-23763735D01*
X60975153Y-23750434D01*
X60974101Y-23747558D01*
X60962426Y-23710215D01*
X60954486Y-23673125D01*
X60950272Y-23636402D01*
X60949774Y-23600161D01*
X60952982Y-23564517D01*
X60959886Y-23529586D01*
X60970476Y-23495481D01*
X60984743Y-23462318D01*
X61002677Y-23430212D01*
X61005645Y-23425548D01*
X61027805Y-23394477D01*
X61053644Y-23364094D01*
X61083066Y-23334474D01*
X61115970Y-23305695D01*
X61152260Y-23277832D01*
X61191836Y-23250961D01*
X61234602Y-23225158D01*
X61280458Y-23200500D01*
X61329306Y-23177063D01*
X61333669Y-23175094D01*
X61392038Y-23150288D01*
X61453984Y-23126701D01*
X61519444Y-23104346D01*
X61588355Y-23083234D01*
X61660654Y-23063377D01*
X61736278Y-23044786D01*
X61815164Y-23027473D01*
X61897248Y-23011450D01*
X61982468Y-22996728D01*
X62070760Y-22983319D01*
X62162062Y-22971234D01*
X62256310Y-22960486D01*
X62353442Y-22951086D01*
X62453393Y-22943045D01*
X62556102Y-22936375D01*
X62661505Y-22931088D01*
X62790836Y-22926589D01*
X62934060Y-22923970D01*
X63079886Y-22923681D01*
X63228111Y-22925686D01*
X63378527Y-22929950D01*
X63530929Y-22936438D01*
X63685110Y-22945113D01*
X63840866Y-22955941D01*
X63997990Y-22968885D01*
X64156276Y-22983910D01*
X64315519Y-23000981D01*
X64475512Y-23020062D01*
X64636049Y-23041117D01*
X64796926Y-23064111D01*
X64957935Y-23089009D01*
X65118871Y-23115775D01*
X65279528Y-23144373D01*
X65439701Y-23174768D01*
X65599182Y-23206924D01*
X65757768Y-23240806D01*
X65915250Y-23276378D01*
X66071425Y-23313605D01*
X66226085Y-23352450D01*
X66379025Y-23392880D01*
X66530040Y-23434857D01*
X66678922Y-23478347D01*
X66825467Y-23523314D01*
X66969468Y-23569723D01*
X67110720Y-23617537D01*
X67249016Y-23666722D01*
X67384151Y-23717241D01*
X67515919Y-23769060D01*
X67536734Y-23777464D01*
X67557992Y-23786066D01*
X67576028Y-23793388D01*
X67591029Y-23799508D01*
X67603181Y-23804503D01*
X67612671Y-23808450D01*
X67619684Y-23811426D01*
X67624408Y-23813508D01*
X67627028Y-23814773D01*
X67627731Y-23815298D01*
X67627693Y-23815316D01*
X67625433Y-23815139D01*
X67620484Y-23814384D01*
X67613833Y-23813200D01*
X67607904Y-23812171D01*
X67589366Y-23809763D01*
X67568297Y-23807995D01*
X67545622Y-23806888D01*
X67522267Y-23806464D01*
X67499155Y-23806745D01*
X67477212Y-23807752D01*
X67457362Y-23809508D01*
X67457072Y-23809541D01*
X67422322Y-23814856D01*
X67390710Y-23822373D01*
X67362216Y-23832108D01*
X67336823Y-23844078D01*
X67314512Y-23858299D01*
X67295263Y-23874786D01*
X67279059Y-23893556D01*
X67265881Y-23914623D01*
X67255710Y-23938005D01*
X67248527Y-23963718D01*
X67244314Y-23991776D01*
X67244133Y-23993843D01*
X67243430Y-24004454D01*
X67242860Y-24017151D01*
X67242478Y-24030516D01*
X67242338Y-24043133D01*
X67242336Y-24073371D01*
X67346969Y-24073371D01*
X67451603Y-24073371D01*
X67451626Y-24041213D01*
X67451669Y-24033843D01*
X67452100Y-24018416D01*
X67452990Y-24006781D01*
X67454339Y-23998949D01*
X67459730Y-23984734D01*
X67468353Y-23971816D01*
X67479738Y-23961468D01*
X67493688Y-23953917D01*
X67493752Y-23953892D01*
X67502660Y-23951454D01*
X67514079Y-23949915D01*
X67526795Y-23949290D01*
X67539593Y-23949596D01*
X67551259Y-23950848D01*
X67560578Y-23953060D01*
X67569554Y-23957328D01*
X67580331Y-23965422D01*
X67589706Y-23975736D01*
X67596736Y-23987377D01*
X67597425Y-23988882D01*
X67599655Y-23994221D01*
X67601083Y-23999075D01*
X67601884Y-24004525D01*
X67602235Y-24011651D01*
X67602313Y-24021534D01*
X67602261Y-24028200D01*
X67601750Y-24038859D01*
X67600456Y-24047254D01*
X67598089Y-24054417D01*
X67594361Y-24061382D01*
X67588982Y-24069178D01*
X67587658Y-24070932D01*
X67581327Y-24078296D01*
X67573530Y-24085836D01*
X67564012Y-24093724D01*
X67552515Y-24102130D01*
X67538785Y-24111226D01*
X67522564Y-24121183D01*
X67503598Y-24132174D01*
X67481629Y-24144369D01*
X67456403Y-24157940D01*
X67440163Y-24166619D01*
X67415790Y-24179890D01*
X67394316Y-24191944D01*
X67375367Y-24203013D01*
X67358571Y-24213328D01*
X67343556Y-24223121D01*
X67329948Y-24232624D01*
X67317375Y-24242068D01*
X67305464Y-24251684D01*
X67291262Y-24264176D01*
X67272548Y-24283294D01*
X67257239Y-24302834D01*
X67245078Y-24323248D01*
X67235810Y-24344987D01*
X67229181Y-24368503D01*
X67224934Y-24394249D01*
X67224846Y-24395026D01*
X67223922Y-24407517D01*
X67223500Y-24422709D01*
X67223553Y-24439575D01*
X67224052Y-24457088D01*
X67224969Y-24474222D01*
X67226275Y-24489951D01*
X67227941Y-24503246D01*
X67229511Y-24512270D01*
X67236581Y-24540216D01*
X67246639Y-24565795D01*
X67259702Y-24589027D01*
X67275790Y-24609931D01*
X67294921Y-24628526D01*
X67317115Y-24644831D01*
X67342389Y-24658865D01*
X67347253Y-24660885D01*
G37*
G04 #@! TO.C,J1*
X68470000Y-34595000D02*
X68470000Y-44415000D01*
X67240000Y-34595000D02*
X68470000Y-34595000D01*
X61270000Y-34595000D02*
X64940000Y-34595000D01*
X57770000Y-46235000D02*
X58630000Y-46235000D01*
X56290000Y-44865000D02*
X56290000Y-40415000D01*
X56290000Y-39015000D02*
X56290000Y-36715000D01*
X56290000Y-35315000D02*
X56290000Y-34595000D01*
X56290000Y-34595000D02*
X58970000Y-34595000D01*
G04 #@! TO.C,J2*
X26945000Y-46770000D02*
X24325000Y-46770000D01*
X26945000Y-46470000D02*
X26945000Y-46770000D01*
X26945000Y-42150000D02*
X26945000Y-42450000D01*
X26945000Y-42150000D02*
X24325000Y-42150000D01*
X24325000Y-46470000D02*
X24325000Y-46770000D01*
X24325000Y-42450000D02*
X23245000Y-42450000D01*
X24325000Y-42150000D02*
X24325000Y-42450000D01*
G04 #@! TD*
%LPC*%
D16*
G04 #@! TO.C,J4*
X37240000Y-41970000D03*
X43020000Y-41970000D03*
D17*
X35810000Y-41440000D03*
D18*
X35810000Y-45620000D03*
D17*
X44450000Y-41440000D03*
D18*
X44450000Y-45620000D03*
G04 #@! TD*
D19*
G04 #@! TO.C,J1*
X68115000Y-45515000D03*
D20*
X66090000Y-35040000D03*
X60120000Y-35040000D03*
D21*
X56795000Y-45740000D03*
D22*
X56620000Y-36015000D03*
X56620000Y-39715000D03*
D23*
X66905000Y-45865000D03*
D24*
X65855000Y-45865000D03*
X64755000Y-45865000D03*
X63655000Y-45865000D03*
X62555000Y-45865000D03*
X61455000Y-45865000D03*
X60355000Y-45865000D03*
X59255000Y-45865000D03*
G04 #@! TD*
D25*
G04 #@! TO.C,J2*
X24110000Y-42960000D03*
X27160000Y-42960000D03*
X24110000Y-43960000D03*
X27160000Y-43960000D03*
X24110000Y-44960000D03*
X27160000Y-44960000D03*
X24110000Y-45960000D03*
X27160000Y-45960000D03*
G04 #@! TD*
M02*
