G04 #@! TF.GenerationSoftware,KiCad,Pcbnew,7.0.1-0*
G04 #@! TF.CreationDate,2023-05-01T16:00:43+08:00*
G04 #@! TF.ProjectId,slimarm_almond_mini,736c696d-6172-46d5-9f61-6c6d6f6e645f,rev?*
G04 #@! TF.SameCoordinates,Original*
G04 #@! TF.FileFunction,Legend,Top*
G04 #@! TF.FilePolarity,Positive*
%FSLAX46Y46*%
G04 Gerber Fmt 4.6, Leading zero omitted, Abs format (unit mm)*
G04 Created by KiCad (PCBNEW 7.0.1-0) date 2023-05-01 16:00:43*
%MOMM*%
%LPD*%
G01*
G04 APERTURE LIST*
G04 Aperture macros list*
%AMRoundRect*
0 Rectangle with rounded corners*
0 $1 Rounding radius*
0 $2 $3 $4 $5 $6 $7 $8 $9 X,Y pos of 4 corners*
0 Add a 4 corners polygon primitive as box body*
4,1,4,$2,$3,$4,$5,$6,$7,$8,$9,$2,$3,0*
0 Add four circle primitives for the rounded corners*
1,1,$1+$1,$2,$3*
1,1,$1+$1,$4,$5*
1,1,$1+$1,$6,$7*
1,1,$1+$1,$8,$9*
0 Add four rect primitives between the rounded corners*
20,1,$1+$1,$2,$3,$4,$5,0*
20,1,$1+$1,$4,$5,$6,$7,0*
20,1,$1+$1,$6,$7,$8,$9,0*
20,1,$1+$1,$8,$9,$2,$3,0*%
%AMFreePoly0*
4,1,9,3.862500,-0.866500,0.737500,-0.866500,0.737500,-0.450000,-0.737500,-0.450000,-0.737500,0.450000,0.737500,0.450000,0.737500,0.866500,3.862500,0.866500,3.862500,-0.866500,3.862500,-0.866500,$1*%
G04 Aperture macros list end*
%ADD10C,0.127000*%
%ADD11C,0.150000*%
%ADD12C,0.100000*%
%ADD13C,0.120000*%
%ADD14C,0.200000*%
%ADD15RoundRect,0.155000X0.212500X0.155000X-0.212500X0.155000X-0.212500X-0.155000X0.212500X-0.155000X0*%
%ADD16RoundRect,0.237500X-0.237500X0.250000X-0.237500X-0.250000X0.237500X-0.250000X0.237500X0.250000X0*%
%ADD17RoundRect,0.155000X-0.155000X0.212500X-0.155000X-0.212500X0.155000X-0.212500X0.155000X0.212500X0*%
%ADD18RoundRect,0.155000X-0.212500X-0.155000X0.212500X-0.155000X0.212500X0.155000X-0.212500X0.155000X0*%
%ADD19C,0.410000*%
%ADD20RoundRect,0.237500X0.287500X0.237500X-0.287500X0.237500X-0.287500X-0.237500X0.287500X-0.237500X0*%
%ADD21RoundRect,0.155000X0.155000X-0.212500X0.155000X0.212500X-0.155000X0.212500X-0.155000X-0.212500X0*%
%ADD22R,1.300000X0.900000*%
%ADD23FreePoly0,180.000000*%
%ADD24R,0.711200X1.270000*%
%ADD25R,1.600200X2.209800*%
%ADD26RoundRect,0.155000X-0.040659X-0.259862X0.259862X0.040659X0.040659X0.259862X-0.259862X-0.040659X0*%
%ADD27RoundRect,0.127000X0.127000X-0.719900X0.127000X0.719900X-0.127000X0.719900X-0.127000X-0.719900X0*%
%ADD28RoundRect,0.063500X0.952500X0.063500X-0.952500X0.063500X-0.952500X-0.063500X0.952500X-0.063500X0*%
%ADD29RoundRect,0.150000X0.150000X-0.825000X0.150000X0.825000X-0.150000X0.825000X-0.150000X-0.825000X0*%
%ADD30RoundRect,0.237500X0.237500X-0.250000X0.237500X0.250000X-0.237500X0.250000X-0.237500X-0.250000X0*%
%ADD31RoundRect,0.237500X-0.250000X-0.237500X0.250000X-0.237500X0.250000X0.237500X-0.250000X0.237500X0*%
%ADD32R,2.000000X2.400000*%
%ADD33C,0.650000*%
%ADD34R,0.600000X1.450000*%
%ADD35R,0.300000X2.000000*%
%ADD36R,0.600000X2.000000*%
%ADD37O,1.000000X2.100000*%
%ADD38O,1.000000X1.600000*%
G04 APERTURE END LIST*
D10*
X26357429Y-41589944D02*
X26321143Y-41626230D01*
X26321143Y-41626230D02*
X26212286Y-41662515D01*
X26212286Y-41662515D02*
X26139714Y-41662515D01*
X26139714Y-41662515D02*
X26030857Y-41626230D01*
X26030857Y-41626230D02*
X25958286Y-41553658D01*
X25958286Y-41553658D02*
X25922000Y-41481087D01*
X25922000Y-41481087D02*
X25885714Y-41335944D01*
X25885714Y-41335944D02*
X25885714Y-41227087D01*
X25885714Y-41227087D02*
X25922000Y-41081944D01*
X25922000Y-41081944D02*
X25958286Y-41009372D01*
X25958286Y-41009372D02*
X26030857Y-40936801D01*
X26030857Y-40936801D02*
X26139714Y-40900515D01*
X26139714Y-40900515D02*
X26212286Y-40900515D01*
X26212286Y-40900515D02*
X26321143Y-40936801D01*
X26321143Y-40936801D02*
X26357429Y-40973087D01*
X26684000Y-41662515D02*
X26684000Y-40900515D01*
X26684000Y-41263372D02*
X27119429Y-41263372D01*
X27119429Y-41662515D02*
X27119429Y-40900515D01*
X27409715Y-40900515D02*
X27881429Y-40900515D01*
X27881429Y-40900515D02*
X27627429Y-41190801D01*
X27627429Y-41190801D02*
X27736286Y-41190801D01*
X27736286Y-41190801D02*
X27808858Y-41227087D01*
X27808858Y-41227087D02*
X27845143Y-41263372D01*
X27845143Y-41263372D02*
X27881429Y-41335944D01*
X27881429Y-41335944D02*
X27881429Y-41517372D01*
X27881429Y-41517372D02*
X27845143Y-41589944D01*
X27845143Y-41589944D02*
X27808858Y-41626230D01*
X27808858Y-41626230D02*
X27736286Y-41662515D01*
X27736286Y-41662515D02*
X27518572Y-41662515D01*
X27518572Y-41662515D02*
X27446000Y-41626230D01*
X27446000Y-41626230D02*
X27409715Y-41589944D01*
X28534572Y-41154515D02*
X28534572Y-41662515D01*
X28353143Y-40864230D02*
X28171714Y-41408515D01*
X28171714Y-41408515D02*
X28643429Y-41408515D01*
X29078857Y-40900515D02*
X29151428Y-40900515D01*
X29151428Y-40900515D02*
X29224000Y-40936801D01*
X29224000Y-40936801D02*
X29260286Y-40973087D01*
X29260286Y-40973087D02*
X29296571Y-41045658D01*
X29296571Y-41045658D02*
X29332857Y-41190801D01*
X29332857Y-41190801D02*
X29332857Y-41372230D01*
X29332857Y-41372230D02*
X29296571Y-41517372D01*
X29296571Y-41517372D02*
X29260286Y-41589944D01*
X29260286Y-41589944D02*
X29224000Y-41626230D01*
X29224000Y-41626230D02*
X29151428Y-41662515D01*
X29151428Y-41662515D02*
X29078857Y-41662515D01*
X29078857Y-41662515D02*
X29006286Y-41626230D01*
X29006286Y-41626230D02*
X28970000Y-41589944D01*
X28970000Y-41589944D02*
X28933714Y-41517372D01*
X28933714Y-41517372D02*
X28897428Y-41372230D01*
X28897428Y-41372230D02*
X28897428Y-41190801D01*
X28897428Y-41190801D02*
X28933714Y-41045658D01*
X28933714Y-41045658D02*
X28970000Y-40973087D01*
X28970000Y-40973087D02*
X29006286Y-40936801D01*
X29006286Y-40936801D02*
X29078857Y-40900515D01*
X30094857Y-41589944D02*
X30058571Y-41626230D01*
X30058571Y-41626230D02*
X29949714Y-41662515D01*
X29949714Y-41662515D02*
X29877142Y-41662515D01*
X29877142Y-41662515D02*
X29768285Y-41626230D01*
X29768285Y-41626230D02*
X29695714Y-41553658D01*
X29695714Y-41553658D02*
X29659428Y-41481087D01*
X29659428Y-41481087D02*
X29623142Y-41335944D01*
X29623142Y-41335944D02*
X29623142Y-41227087D01*
X29623142Y-41227087D02*
X29659428Y-41081944D01*
X29659428Y-41081944D02*
X29695714Y-41009372D01*
X29695714Y-41009372D02*
X29768285Y-40936801D01*
X29768285Y-40936801D02*
X29877142Y-40900515D01*
X29877142Y-40900515D02*
X29949714Y-40900515D01*
X29949714Y-40900515D02*
X30058571Y-40936801D01*
X30058571Y-40936801D02*
X30094857Y-40973087D01*
X63259713Y-31898075D02*
X63259713Y-31136075D01*
X63259713Y-31136075D02*
X63695142Y-31898075D01*
X63695142Y-31898075D02*
X63695142Y-31136075D01*
X64021713Y-31680361D02*
X64384571Y-31680361D01*
X63949142Y-31898075D02*
X64203142Y-31136075D01*
X64203142Y-31136075D02*
X64457142Y-31898075D01*
X64711142Y-31898075D02*
X64711142Y-31136075D01*
X64711142Y-31136075D02*
X65146571Y-31898075D01*
X65146571Y-31898075D02*
X65146571Y-31136075D01*
X65509428Y-31898075D02*
X65509428Y-31136075D01*
X65509428Y-31136075D02*
X65690857Y-31136075D01*
X65690857Y-31136075D02*
X65799714Y-31172361D01*
X65799714Y-31172361D02*
X65872285Y-31244932D01*
X65872285Y-31244932D02*
X65908571Y-31317504D01*
X65908571Y-31317504D02*
X65944857Y-31462647D01*
X65944857Y-31462647D02*
X65944857Y-31571504D01*
X65944857Y-31571504D02*
X65908571Y-31716647D01*
X65908571Y-31716647D02*
X65872285Y-31789218D01*
X65872285Y-31789218D02*
X65799714Y-31861790D01*
X65799714Y-31861790D02*
X65690857Y-31898075D01*
X65690857Y-31898075D02*
X65509428Y-31898075D01*
X63549999Y-33422801D02*
X63513714Y-33386515D01*
X63513714Y-33386515D02*
X63441142Y-33277658D01*
X63441142Y-33277658D02*
X63404857Y-33205087D01*
X63404857Y-33205087D02*
X63368571Y-33096230D01*
X63368571Y-33096230D02*
X63332285Y-32914801D01*
X63332285Y-32914801D02*
X63332285Y-32769658D01*
X63332285Y-32769658D02*
X63368571Y-32588230D01*
X63368571Y-32588230D02*
X63404857Y-32479372D01*
X63404857Y-32479372D02*
X63441142Y-32406801D01*
X63441142Y-32406801D02*
X63513714Y-32297944D01*
X63513714Y-32297944D02*
X63549999Y-32261658D01*
X63803999Y-32914801D02*
X64166857Y-32914801D01*
X63731428Y-33132515D02*
X63985428Y-32370515D01*
X63985428Y-32370515D02*
X64239428Y-33132515D01*
X64493428Y-32624515D02*
X64493428Y-33132515D01*
X64493428Y-32697087D02*
X64529714Y-32660801D01*
X64529714Y-32660801D02*
X64602285Y-32624515D01*
X64602285Y-32624515D02*
X64711142Y-32624515D01*
X64711142Y-32624515D02*
X64783714Y-32660801D01*
X64783714Y-32660801D02*
X64820000Y-32733372D01*
X64820000Y-32733372D02*
X64820000Y-33132515D01*
X65110286Y-32624515D02*
X65291714Y-33132515D01*
X65473143Y-32624515D02*
X65291714Y-33132515D01*
X65291714Y-33132515D02*
X65219143Y-33313944D01*
X65219143Y-33313944D02*
X65182857Y-33350230D01*
X65182857Y-33350230D02*
X65110286Y-33386515D01*
X65690857Y-33422801D02*
X65727142Y-33386515D01*
X65727142Y-33386515D02*
X65799714Y-33277658D01*
X65799714Y-33277658D02*
X65836000Y-33205087D01*
X65836000Y-33205087D02*
X65872285Y-33096230D01*
X65872285Y-33096230D02*
X65908571Y-32914801D01*
X65908571Y-32914801D02*
X65908571Y-32769658D01*
X65908571Y-32769658D02*
X65872285Y-32588230D01*
X65872285Y-32588230D02*
X65836000Y-32479372D01*
X65836000Y-32479372D02*
X65799714Y-32406801D01*
X65799714Y-32406801D02*
X65727142Y-32297944D01*
X65727142Y-32297944D02*
X65690857Y-32261658D01*
X60792286Y-33858955D02*
X60211714Y-34076670D01*
X60211714Y-34076670D02*
X60792286Y-34294384D01*
X61155143Y-33967812D02*
X61735715Y-33967812D01*
X61735715Y-34185527D02*
X61155143Y-34185527D01*
X62497715Y-34366955D02*
X62062286Y-34366955D01*
X62280001Y-34366955D02*
X62280001Y-33604955D01*
X62280001Y-33604955D02*
X62207429Y-33713812D01*
X62207429Y-33713812D02*
X62134858Y-33786384D01*
X62134858Y-33786384D02*
X62062286Y-33822670D01*
X62788000Y-33677527D02*
X62824286Y-33641241D01*
X62824286Y-33641241D02*
X62896858Y-33604955D01*
X62896858Y-33604955D02*
X63078286Y-33604955D01*
X63078286Y-33604955D02*
X63150858Y-33641241D01*
X63150858Y-33641241D02*
X63187143Y-33677527D01*
X63187143Y-33677527D02*
X63223429Y-33750098D01*
X63223429Y-33750098D02*
X63223429Y-33822670D01*
X63223429Y-33822670D02*
X63187143Y-33931527D01*
X63187143Y-33931527D02*
X62751715Y-34366955D01*
X62751715Y-34366955D02*
X63223429Y-34366955D01*
X63658857Y-33931527D02*
X63586286Y-33895241D01*
X63586286Y-33895241D02*
X63550000Y-33858955D01*
X63550000Y-33858955D02*
X63513714Y-33786384D01*
X63513714Y-33786384D02*
X63513714Y-33750098D01*
X63513714Y-33750098D02*
X63550000Y-33677527D01*
X63550000Y-33677527D02*
X63586286Y-33641241D01*
X63586286Y-33641241D02*
X63658857Y-33604955D01*
X63658857Y-33604955D02*
X63804000Y-33604955D01*
X63804000Y-33604955D02*
X63876572Y-33641241D01*
X63876572Y-33641241D02*
X63912857Y-33677527D01*
X63912857Y-33677527D02*
X63949143Y-33750098D01*
X63949143Y-33750098D02*
X63949143Y-33786384D01*
X63949143Y-33786384D02*
X63912857Y-33858955D01*
X63912857Y-33858955D02*
X63876572Y-33895241D01*
X63876572Y-33895241D02*
X63804000Y-33931527D01*
X63804000Y-33931527D02*
X63658857Y-33931527D01*
X63658857Y-33931527D02*
X63586286Y-33967812D01*
X63586286Y-33967812D02*
X63550000Y-34004098D01*
X63550000Y-34004098D02*
X63513714Y-34076670D01*
X63513714Y-34076670D02*
X63513714Y-34221812D01*
X63513714Y-34221812D02*
X63550000Y-34294384D01*
X63550000Y-34294384D02*
X63586286Y-34330670D01*
X63586286Y-34330670D02*
X63658857Y-34366955D01*
X63658857Y-34366955D02*
X63804000Y-34366955D01*
X63804000Y-34366955D02*
X63876572Y-34330670D01*
X63876572Y-34330670D02*
X63912857Y-34294384D01*
X63912857Y-34294384D02*
X63949143Y-34221812D01*
X63949143Y-34221812D02*
X63949143Y-34076670D01*
X63949143Y-34076670D02*
X63912857Y-34004098D01*
X63912857Y-34004098D02*
X63876572Y-33967812D01*
X63876572Y-33967812D02*
X63804000Y-33931527D01*
X64275714Y-34366955D02*
X64275714Y-33604955D01*
X64275714Y-33604955D02*
X64529714Y-34149241D01*
X64529714Y-34149241D02*
X64783714Y-33604955D01*
X64783714Y-33604955D02*
X64783714Y-34366955D01*
X65146571Y-34366955D02*
X65146571Y-33858955D01*
X65146571Y-33604955D02*
X65110285Y-33641241D01*
X65110285Y-33641241D02*
X65146571Y-33677527D01*
X65146571Y-33677527D02*
X65182857Y-33641241D01*
X65182857Y-33641241D02*
X65146571Y-33604955D01*
X65146571Y-33604955D02*
X65146571Y-33677527D01*
X65763428Y-33967812D02*
X65872285Y-34004098D01*
X65872285Y-34004098D02*
X65908571Y-34040384D01*
X65908571Y-34040384D02*
X65944857Y-34112955D01*
X65944857Y-34112955D02*
X65944857Y-34221812D01*
X65944857Y-34221812D02*
X65908571Y-34294384D01*
X65908571Y-34294384D02*
X65872285Y-34330670D01*
X65872285Y-34330670D02*
X65799714Y-34366955D01*
X65799714Y-34366955D02*
X65509428Y-34366955D01*
X65509428Y-34366955D02*
X65509428Y-33604955D01*
X65509428Y-33604955D02*
X65763428Y-33604955D01*
X65763428Y-33604955D02*
X65836000Y-33641241D01*
X65836000Y-33641241D02*
X65872285Y-33677527D01*
X65872285Y-33677527D02*
X65908571Y-33750098D01*
X65908571Y-33750098D02*
X65908571Y-33822670D01*
X65908571Y-33822670D02*
X65872285Y-33895241D01*
X65872285Y-33895241D02*
X65836000Y-33931527D01*
X65836000Y-33931527D02*
X65763428Y-33967812D01*
X65763428Y-33967812D02*
X65509428Y-33967812D01*
X61661143Y-18241790D02*
X61770001Y-18278075D01*
X61770001Y-18278075D02*
X61951429Y-18278075D01*
X61951429Y-18278075D02*
X62024001Y-18241790D01*
X62024001Y-18241790D02*
X62060286Y-18205504D01*
X62060286Y-18205504D02*
X62096572Y-18132932D01*
X62096572Y-18132932D02*
X62096572Y-18060361D01*
X62096572Y-18060361D02*
X62060286Y-17987790D01*
X62060286Y-17987790D02*
X62024001Y-17951504D01*
X62024001Y-17951504D02*
X61951429Y-17915218D01*
X61951429Y-17915218D02*
X61806286Y-17878932D01*
X61806286Y-17878932D02*
X61733715Y-17842647D01*
X61733715Y-17842647D02*
X61697429Y-17806361D01*
X61697429Y-17806361D02*
X61661143Y-17733790D01*
X61661143Y-17733790D02*
X61661143Y-17661218D01*
X61661143Y-17661218D02*
X61697429Y-17588647D01*
X61697429Y-17588647D02*
X61733715Y-17552361D01*
X61733715Y-17552361D02*
X61806286Y-17516075D01*
X61806286Y-17516075D02*
X61987715Y-17516075D01*
X61987715Y-17516075D02*
X62096572Y-17552361D01*
X62423143Y-18278075D02*
X62423143Y-17516075D01*
X62423143Y-17516075D02*
X62604572Y-17516075D01*
X62604572Y-17516075D02*
X62713429Y-17552361D01*
X62713429Y-17552361D02*
X62786000Y-17624932D01*
X62786000Y-17624932D02*
X62822286Y-17697504D01*
X62822286Y-17697504D02*
X62858572Y-17842647D01*
X62858572Y-17842647D02*
X62858572Y-17951504D01*
X62858572Y-17951504D02*
X62822286Y-18096647D01*
X62822286Y-18096647D02*
X62786000Y-18169218D01*
X62786000Y-18169218D02*
X62713429Y-18241790D01*
X62713429Y-18241790D02*
X62604572Y-18278075D01*
X62604572Y-18278075D02*
X62423143Y-18278075D01*
X63620572Y-18278075D02*
X63366572Y-17915218D01*
X63185143Y-18278075D02*
X63185143Y-17516075D01*
X63185143Y-17516075D02*
X63475429Y-17516075D01*
X63475429Y-17516075D02*
X63548000Y-17552361D01*
X63548000Y-17552361D02*
X63584286Y-17588647D01*
X63584286Y-17588647D02*
X63620572Y-17661218D01*
X63620572Y-17661218D02*
X63620572Y-17770075D01*
X63620572Y-17770075D02*
X63584286Y-17842647D01*
X63584286Y-17842647D02*
X63548000Y-17878932D01*
X63548000Y-17878932D02*
X63475429Y-17915218D01*
X63475429Y-17915218D02*
X63185143Y-17915218D01*
X64491428Y-18241790D02*
X64600286Y-18278075D01*
X64600286Y-18278075D02*
X64781714Y-18278075D01*
X64781714Y-18278075D02*
X64854286Y-18241790D01*
X64854286Y-18241790D02*
X64890571Y-18205504D01*
X64890571Y-18205504D02*
X64926857Y-18132932D01*
X64926857Y-18132932D02*
X64926857Y-18060361D01*
X64926857Y-18060361D02*
X64890571Y-17987790D01*
X64890571Y-17987790D02*
X64854286Y-17951504D01*
X64854286Y-17951504D02*
X64781714Y-17915218D01*
X64781714Y-17915218D02*
X64636571Y-17878932D01*
X64636571Y-17878932D02*
X64564000Y-17842647D01*
X64564000Y-17842647D02*
X64527714Y-17806361D01*
X64527714Y-17806361D02*
X64491428Y-17733790D01*
X64491428Y-17733790D02*
X64491428Y-17661218D01*
X64491428Y-17661218D02*
X64527714Y-17588647D01*
X64527714Y-17588647D02*
X64564000Y-17552361D01*
X64564000Y-17552361D02*
X64636571Y-17516075D01*
X64636571Y-17516075D02*
X64818000Y-17516075D01*
X64818000Y-17516075D02*
X64926857Y-17552361D01*
X65253428Y-18278075D02*
X65253428Y-17516075D01*
X65253428Y-17516075D02*
X65434857Y-17516075D01*
X65434857Y-17516075D02*
X65543714Y-17552361D01*
X65543714Y-17552361D02*
X65616285Y-17624932D01*
X65616285Y-17624932D02*
X65652571Y-17697504D01*
X65652571Y-17697504D02*
X65688857Y-17842647D01*
X65688857Y-17842647D02*
X65688857Y-17951504D01*
X65688857Y-17951504D02*
X65652571Y-18096647D01*
X65652571Y-18096647D02*
X65616285Y-18169218D01*
X65616285Y-18169218D02*
X65543714Y-18241790D01*
X65543714Y-18241790D02*
X65434857Y-18278075D01*
X65434857Y-18278075D02*
X65253428Y-18278075D01*
X66450857Y-18278075D02*
X66196857Y-17915218D01*
X66015428Y-18278075D02*
X66015428Y-17516075D01*
X66015428Y-17516075D02*
X66305714Y-17516075D01*
X66305714Y-17516075D02*
X66378285Y-17552361D01*
X66378285Y-17552361D02*
X66414571Y-17588647D01*
X66414571Y-17588647D02*
X66450857Y-17661218D01*
X66450857Y-17661218D02*
X66450857Y-17770075D01*
X66450857Y-17770075D02*
X66414571Y-17842647D01*
X66414571Y-17842647D02*
X66378285Y-17878932D01*
X66378285Y-17878932D02*
X66305714Y-17915218D01*
X66305714Y-17915218D02*
X66015428Y-17915218D01*
X66741142Y-18060361D02*
X67104000Y-18060361D01*
X66668571Y-18278075D02*
X66922571Y-17516075D01*
X66922571Y-17516075D02*
X67176571Y-18278075D01*
X67430571Y-18278075D02*
X67430571Y-17516075D01*
X67430571Y-17516075D02*
X67684571Y-18060361D01*
X67684571Y-18060361D02*
X67938571Y-17516075D01*
X67938571Y-17516075D02*
X67938571Y-18278075D01*
X60391144Y-19512515D02*
X60391144Y-18750515D01*
X60391144Y-19113372D02*
X60826573Y-19113372D01*
X60826573Y-19512515D02*
X60826573Y-18750515D01*
X61334573Y-19149658D02*
X61334573Y-19512515D01*
X61080573Y-18750515D02*
X61334573Y-19149658D01*
X61334573Y-19149658D02*
X61588573Y-18750515D01*
X62205430Y-18750515D02*
X61842573Y-18750515D01*
X61842573Y-18750515D02*
X61806287Y-19113372D01*
X61806287Y-19113372D02*
X61842573Y-19077087D01*
X61842573Y-19077087D02*
X61915145Y-19040801D01*
X61915145Y-19040801D02*
X62096573Y-19040801D01*
X62096573Y-19040801D02*
X62169145Y-19077087D01*
X62169145Y-19077087D02*
X62205430Y-19113372D01*
X62205430Y-19113372D02*
X62241716Y-19185944D01*
X62241716Y-19185944D02*
X62241716Y-19367372D01*
X62241716Y-19367372D02*
X62205430Y-19439944D01*
X62205430Y-19439944D02*
X62169145Y-19476230D01*
X62169145Y-19476230D02*
X62096573Y-19512515D01*
X62096573Y-19512515D02*
X61915145Y-19512515D01*
X61915145Y-19512515D02*
X61842573Y-19476230D01*
X61842573Y-19476230D02*
X61806287Y-19439944D01*
X62495716Y-18750515D02*
X63003716Y-18750515D01*
X63003716Y-18750515D02*
X62677144Y-19512515D01*
X63185144Y-18750515D02*
X63439144Y-19512515D01*
X63439144Y-19512515D02*
X63693144Y-18750515D01*
X64310001Y-18750515D02*
X63947144Y-18750515D01*
X63947144Y-18750515D02*
X63910858Y-19113372D01*
X63910858Y-19113372D02*
X63947144Y-19077087D01*
X63947144Y-19077087D02*
X64019716Y-19040801D01*
X64019716Y-19040801D02*
X64201144Y-19040801D01*
X64201144Y-19040801D02*
X64273716Y-19077087D01*
X64273716Y-19077087D02*
X64310001Y-19113372D01*
X64310001Y-19113372D02*
X64346287Y-19185944D01*
X64346287Y-19185944D02*
X64346287Y-19367372D01*
X64346287Y-19367372D02*
X64310001Y-19439944D01*
X64310001Y-19439944D02*
X64273716Y-19476230D01*
X64273716Y-19476230D02*
X64201144Y-19512515D01*
X64201144Y-19512515D02*
X64019716Y-19512515D01*
X64019716Y-19512515D02*
X63947144Y-19476230D01*
X63947144Y-19476230D02*
X63910858Y-19439944D01*
X64999430Y-18750515D02*
X64854287Y-18750515D01*
X64854287Y-18750515D02*
X64781715Y-18786801D01*
X64781715Y-18786801D02*
X64745430Y-18823087D01*
X64745430Y-18823087D02*
X64672858Y-18931944D01*
X64672858Y-18931944D02*
X64636572Y-19077087D01*
X64636572Y-19077087D02*
X64636572Y-19367372D01*
X64636572Y-19367372D02*
X64672858Y-19439944D01*
X64672858Y-19439944D02*
X64709144Y-19476230D01*
X64709144Y-19476230D02*
X64781715Y-19512515D01*
X64781715Y-19512515D02*
X64926858Y-19512515D01*
X64926858Y-19512515D02*
X64999430Y-19476230D01*
X64999430Y-19476230D02*
X65035715Y-19439944D01*
X65035715Y-19439944D02*
X65072001Y-19367372D01*
X65072001Y-19367372D02*
X65072001Y-19185944D01*
X65072001Y-19185944D02*
X65035715Y-19113372D01*
X65035715Y-19113372D02*
X64999430Y-19077087D01*
X64999430Y-19077087D02*
X64926858Y-19040801D01*
X64926858Y-19040801D02*
X64781715Y-19040801D01*
X64781715Y-19040801D02*
X64709144Y-19077087D01*
X64709144Y-19077087D02*
X64672858Y-19113372D01*
X64672858Y-19113372D02*
X64636572Y-19185944D01*
X65797715Y-19512515D02*
X65362286Y-19512515D01*
X65580001Y-19512515D02*
X65580001Y-18750515D01*
X65580001Y-18750515D02*
X65507429Y-18859372D01*
X65507429Y-18859372D02*
X65434858Y-18931944D01*
X65434858Y-18931944D02*
X65362286Y-18968230D01*
X66450858Y-18750515D02*
X66305715Y-18750515D01*
X66305715Y-18750515D02*
X66233143Y-18786801D01*
X66233143Y-18786801D02*
X66196858Y-18823087D01*
X66196858Y-18823087D02*
X66124286Y-18931944D01*
X66124286Y-18931944D02*
X66088000Y-19077087D01*
X66088000Y-19077087D02*
X66088000Y-19367372D01*
X66088000Y-19367372D02*
X66124286Y-19439944D01*
X66124286Y-19439944D02*
X66160572Y-19476230D01*
X66160572Y-19476230D02*
X66233143Y-19512515D01*
X66233143Y-19512515D02*
X66378286Y-19512515D01*
X66378286Y-19512515D02*
X66450858Y-19476230D01*
X66450858Y-19476230D02*
X66487143Y-19439944D01*
X66487143Y-19439944D02*
X66523429Y-19367372D01*
X66523429Y-19367372D02*
X66523429Y-19185944D01*
X66523429Y-19185944D02*
X66487143Y-19113372D01*
X66487143Y-19113372D02*
X66450858Y-19077087D01*
X66450858Y-19077087D02*
X66378286Y-19040801D01*
X66378286Y-19040801D02*
X66233143Y-19040801D01*
X66233143Y-19040801D02*
X66160572Y-19077087D01*
X66160572Y-19077087D02*
X66124286Y-19113372D01*
X66124286Y-19113372D02*
X66088000Y-19185944D01*
X66813714Y-18823087D02*
X66850000Y-18786801D01*
X66850000Y-18786801D02*
X66922572Y-18750515D01*
X66922572Y-18750515D02*
X67104000Y-18750515D01*
X67104000Y-18750515D02*
X67176572Y-18786801D01*
X67176572Y-18786801D02*
X67212857Y-18823087D01*
X67212857Y-18823087D02*
X67249143Y-18895658D01*
X67249143Y-18895658D02*
X67249143Y-18968230D01*
X67249143Y-18968230D02*
X67212857Y-19077087D01*
X67212857Y-19077087D02*
X66777429Y-19512515D01*
X66777429Y-19512515D02*
X67249143Y-19512515D01*
X67720857Y-18750515D02*
X67793428Y-18750515D01*
X67793428Y-18750515D02*
X67866000Y-18786801D01*
X67866000Y-18786801D02*
X67902286Y-18823087D01*
X67902286Y-18823087D02*
X67938571Y-18895658D01*
X67938571Y-18895658D02*
X67974857Y-19040801D01*
X67974857Y-19040801D02*
X67974857Y-19222230D01*
X67974857Y-19222230D02*
X67938571Y-19367372D01*
X67938571Y-19367372D02*
X67902286Y-19439944D01*
X67902286Y-19439944D02*
X67866000Y-19476230D01*
X67866000Y-19476230D02*
X67793428Y-19512515D01*
X67793428Y-19512515D02*
X67720857Y-19512515D01*
X67720857Y-19512515D02*
X67648286Y-19476230D01*
X67648286Y-19476230D02*
X67612000Y-19439944D01*
X67612000Y-19439944D02*
X67575714Y-19367372D01*
X67575714Y-19367372D02*
X67539428Y-19222230D01*
X67539428Y-19222230D02*
X67539428Y-19040801D01*
X67539428Y-19040801D02*
X67575714Y-18895658D01*
X67575714Y-18895658D02*
X67612000Y-18823087D01*
X67612000Y-18823087D02*
X67648286Y-18786801D01*
X67648286Y-18786801D02*
X67720857Y-18750515D01*
X64781715Y-19984955D02*
X65253429Y-19984955D01*
X65253429Y-19984955D02*
X64999429Y-20275241D01*
X64999429Y-20275241D02*
X65108286Y-20275241D01*
X65108286Y-20275241D02*
X65180858Y-20311527D01*
X65180858Y-20311527D02*
X65217143Y-20347812D01*
X65217143Y-20347812D02*
X65253429Y-20420384D01*
X65253429Y-20420384D02*
X65253429Y-20601812D01*
X65253429Y-20601812D02*
X65217143Y-20674384D01*
X65217143Y-20674384D02*
X65180858Y-20710670D01*
X65180858Y-20710670D02*
X65108286Y-20746955D01*
X65108286Y-20746955D02*
X64890572Y-20746955D01*
X64890572Y-20746955D02*
X64818000Y-20710670D01*
X64818000Y-20710670D02*
X64781715Y-20674384D01*
X65543714Y-20057527D02*
X65580000Y-20021241D01*
X65580000Y-20021241D02*
X65652572Y-19984955D01*
X65652572Y-19984955D02*
X65834000Y-19984955D01*
X65834000Y-19984955D02*
X65906572Y-20021241D01*
X65906572Y-20021241D02*
X65942857Y-20057527D01*
X65942857Y-20057527D02*
X65979143Y-20130098D01*
X65979143Y-20130098D02*
X65979143Y-20202670D01*
X65979143Y-20202670D02*
X65942857Y-20311527D01*
X65942857Y-20311527D02*
X65507429Y-20746955D01*
X65507429Y-20746955D02*
X65979143Y-20746955D01*
X66305714Y-20746955D02*
X66305714Y-19984955D01*
X66305714Y-19984955D02*
X66559714Y-20529241D01*
X66559714Y-20529241D02*
X66813714Y-19984955D01*
X66813714Y-19984955D02*
X66813714Y-20746955D01*
X67176571Y-20746955D02*
X67176571Y-20238955D01*
X67176571Y-19984955D02*
X67140285Y-20021241D01*
X67140285Y-20021241D02*
X67176571Y-20057527D01*
X67176571Y-20057527D02*
X67212857Y-20021241D01*
X67212857Y-20021241D02*
X67176571Y-19984955D01*
X67176571Y-19984955D02*
X67176571Y-20057527D01*
X67793428Y-20347812D02*
X67902285Y-20384098D01*
X67902285Y-20384098D02*
X67938571Y-20420384D01*
X67938571Y-20420384D02*
X67974857Y-20492955D01*
X67974857Y-20492955D02*
X67974857Y-20601812D01*
X67974857Y-20601812D02*
X67938571Y-20674384D01*
X67938571Y-20674384D02*
X67902285Y-20710670D01*
X67902285Y-20710670D02*
X67829714Y-20746955D01*
X67829714Y-20746955D02*
X67539428Y-20746955D01*
X67539428Y-20746955D02*
X67539428Y-19984955D01*
X67539428Y-19984955D02*
X67793428Y-19984955D01*
X67793428Y-19984955D02*
X67866000Y-20021241D01*
X67866000Y-20021241D02*
X67902285Y-20057527D01*
X67902285Y-20057527D02*
X67938571Y-20130098D01*
X67938571Y-20130098D02*
X67938571Y-20202670D01*
X67938571Y-20202670D02*
X67902285Y-20275241D01*
X67902285Y-20275241D02*
X67866000Y-20311527D01*
X67866000Y-20311527D02*
X67793428Y-20347812D01*
X67793428Y-20347812D02*
X67539428Y-20347812D01*
X36807999Y-43290515D02*
X36807999Y-43907372D01*
X36807999Y-43907372D02*
X36844285Y-43979944D01*
X36844285Y-43979944D02*
X36880571Y-44016230D01*
X36880571Y-44016230D02*
X36953142Y-44052515D01*
X36953142Y-44052515D02*
X37098285Y-44052515D01*
X37098285Y-44052515D02*
X37170856Y-44016230D01*
X37170856Y-44016230D02*
X37207142Y-43979944D01*
X37207142Y-43979944D02*
X37243428Y-43907372D01*
X37243428Y-43907372D02*
X37243428Y-43290515D01*
X37569999Y-43834801D02*
X37932857Y-43834801D01*
X37497428Y-44052515D02*
X37751428Y-43290515D01*
X37751428Y-43290515D02*
X38005428Y-44052515D01*
X38694857Y-44052515D02*
X38440857Y-43689658D01*
X38259428Y-44052515D02*
X38259428Y-43290515D01*
X38259428Y-43290515D02*
X38549714Y-43290515D01*
X38549714Y-43290515D02*
X38622285Y-43326801D01*
X38622285Y-43326801D02*
X38658571Y-43363087D01*
X38658571Y-43363087D02*
X38694857Y-43435658D01*
X38694857Y-43435658D02*
X38694857Y-43544515D01*
X38694857Y-43544515D02*
X38658571Y-43617087D01*
X38658571Y-43617087D02*
X38622285Y-43653372D01*
X38622285Y-43653372D02*
X38549714Y-43689658D01*
X38549714Y-43689658D02*
X38259428Y-43689658D01*
X38912571Y-43290515D02*
X39348000Y-43290515D01*
X39130285Y-44052515D02*
X39130285Y-43290515D01*
X40182571Y-43544515D02*
X39601999Y-43762230D01*
X39601999Y-43762230D02*
X40182571Y-43979944D01*
X40545428Y-43762230D02*
X41126000Y-43762230D01*
X41488857Y-43290515D02*
X41488857Y-43907372D01*
X41488857Y-43907372D02*
X41525143Y-43979944D01*
X41525143Y-43979944D02*
X41561429Y-44016230D01*
X41561429Y-44016230D02*
X41634000Y-44052515D01*
X41634000Y-44052515D02*
X41779143Y-44052515D01*
X41779143Y-44052515D02*
X41851714Y-44016230D01*
X41851714Y-44016230D02*
X41888000Y-43979944D01*
X41888000Y-43979944D02*
X41924286Y-43907372D01*
X41924286Y-43907372D02*
X41924286Y-43290515D01*
X42250857Y-44016230D02*
X42359715Y-44052515D01*
X42359715Y-44052515D02*
X42541143Y-44052515D01*
X42541143Y-44052515D02*
X42613715Y-44016230D01*
X42613715Y-44016230D02*
X42650000Y-43979944D01*
X42650000Y-43979944D02*
X42686286Y-43907372D01*
X42686286Y-43907372D02*
X42686286Y-43834801D01*
X42686286Y-43834801D02*
X42650000Y-43762230D01*
X42650000Y-43762230D02*
X42613715Y-43725944D01*
X42613715Y-43725944D02*
X42541143Y-43689658D01*
X42541143Y-43689658D02*
X42396000Y-43653372D01*
X42396000Y-43653372D02*
X42323429Y-43617087D01*
X42323429Y-43617087D02*
X42287143Y-43580801D01*
X42287143Y-43580801D02*
X42250857Y-43508230D01*
X42250857Y-43508230D02*
X42250857Y-43435658D01*
X42250857Y-43435658D02*
X42287143Y-43363087D01*
X42287143Y-43363087D02*
X42323429Y-43326801D01*
X42323429Y-43326801D02*
X42396000Y-43290515D01*
X42396000Y-43290515D02*
X42577429Y-43290515D01*
X42577429Y-43290515D02*
X42686286Y-43326801D01*
X43266857Y-43653372D02*
X43375714Y-43689658D01*
X43375714Y-43689658D02*
X43412000Y-43725944D01*
X43412000Y-43725944D02*
X43448286Y-43798515D01*
X43448286Y-43798515D02*
X43448286Y-43907372D01*
X43448286Y-43907372D02*
X43412000Y-43979944D01*
X43412000Y-43979944D02*
X43375714Y-44016230D01*
X43375714Y-44016230D02*
X43303143Y-44052515D01*
X43303143Y-44052515D02*
X43012857Y-44052515D01*
X43012857Y-44052515D02*
X43012857Y-43290515D01*
X43012857Y-43290515D02*
X43266857Y-43290515D01*
X43266857Y-43290515D02*
X43339429Y-43326801D01*
X43339429Y-43326801D02*
X43375714Y-43363087D01*
X43375714Y-43363087D02*
X43412000Y-43435658D01*
X43412000Y-43435658D02*
X43412000Y-43508230D01*
X43412000Y-43508230D02*
X43375714Y-43580801D01*
X43375714Y-43580801D02*
X43339429Y-43617087D01*
X43339429Y-43617087D02*
X43266857Y-43653372D01*
X43266857Y-43653372D02*
X43012857Y-43653372D01*
X30711000Y-12643295D02*
X30711000Y-13187581D01*
X30711000Y-13187581D02*
X30674715Y-13296438D01*
X30674715Y-13296438D02*
X30602143Y-13369010D01*
X30602143Y-13369010D02*
X30493286Y-13405295D01*
X30493286Y-13405295D02*
X30420715Y-13405295D01*
X30965000Y-12643295D02*
X31400429Y-12643295D01*
X31182714Y-13405295D02*
X31182714Y-12643295D01*
X31618142Y-13187581D02*
X31981000Y-13187581D01*
X31545571Y-13405295D02*
X31799571Y-12643295D01*
X31799571Y-12643295D02*
X32053571Y-13405295D01*
X32706714Y-12679581D02*
X32634143Y-12643295D01*
X32634143Y-12643295D02*
X32525285Y-12643295D01*
X32525285Y-12643295D02*
X32416428Y-12679581D01*
X32416428Y-12679581D02*
X32343857Y-12752152D01*
X32343857Y-12752152D02*
X32307571Y-12824724D01*
X32307571Y-12824724D02*
X32271285Y-12969867D01*
X32271285Y-12969867D02*
X32271285Y-13078724D01*
X32271285Y-13078724D02*
X32307571Y-13223867D01*
X32307571Y-13223867D02*
X32343857Y-13296438D01*
X32343857Y-13296438D02*
X32416428Y-13369010D01*
X32416428Y-13369010D02*
X32525285Y-13405295D01*
X32525285Y-13405295D02*
X32597857Y-13405295D01*
X32597857Y-13405295D02*
X32706714Y-13369010D01*
X32706714Y-13369010D02*
X32743000Y-13332724D01*
X32743000Y-13332724D02*
X32743000Y-13078724D01*
X32743000Y-13078724D02*
X32597857Y-13078724D01*
X27517858Y-14639735D02*
X27517858Y-13877735D01*
X28461286Y-14639735D02*
X28461286Y-13877735D01*
X28461286Y-13877735D02*
X28715286Y-14422021D01*
X28715286Y-14422021D02*
X28969286Y-13877735D01*
X28969286Y-13877735D02*
X28969286Y-14639735D01*
X30348143Y-14639735D02*
X30094143Y-14276878D01*
X29912714Y-14639735D02*
X29912714Y-13877735D01*
X29912714Y-13877735D02*
X30203000Y-13877735D01*
X30203000Y-13877735D02*
X30275571Y-13914021D01*
X30275571Y-13914021D02*
X30311857Y-13950307D01*
X30311857Y-13950307D02*
X30348143Y-14022878D01*
X30348143Y-14022878D02*
X30348143Y-14131735D01*
X30348143Y-14131735D02*
X30311857Y-14204307D01*
X30311857Y-14204307D02*
X30275571Y-14240592D01*
X30275571Y-14240592D02*
X30203000Y-14276878D01*
X30203000Y-14276878D02*
X29912714Y-14276878D01*
X31400428Y-13877735D02*
X31545571Y-13877735D01*
X31545571Y-13877735D02*
X31618142Y-13914021D01*
X31618142Y-13914021D02*
X31690714Y-13986592D01*
X31690714Y-13986592D02*
X31726999Y-14131735D01*
X31726999Y-14131735D02*
X31726999Y-14385735D01*
X31726999Y-14385735D02*
X31690714Y-14530878D01*
X31690714Y-14530878D02*
X31618142Y-14603450D01*
X31618142Y-14603450D02*
X31545571Y-14639735D01*
X31545571Y-14639735D02*
X31400428Y-14639735D01*
X31400428Y-14639735D02*
X31327857Y-14603450D01*
X31327857Y-14603450D02*
X31255285Y-14530878D01*
X31255285Y-14530878D02*
X31218999Y-14385735D01*
X31218999Y-14385735D02*
X31218999Y-14131735D01*
X31218999Y-14131735D02*
X31255285Y-13986592D01*
X31255285Y-13986592D02*
X31327857Y-13914021D01*
X31327857Y-13914021D02*
X31400428Y-13877735D01*
X33069571Y-14567164D02*
X33033285Y-14603450D01*
X33033285Y-14603450D02*
X32924428Y-14639735D01*
X32924428Y-14639735D02*
X32851856Y-14639735D01*
X32851856Y-14639735D02*
X32742999Y-14603450D01*
X32742999Y-14603450D02*
X32670428Y-14530878D01*
X32670428Y-14530878D02*
X32634142Y-14458307D01*
X32634142Y-14458307D02*
X32597856Y-14313164D01*
X32597856Y-14313164D02*
X32597856Y-14204307D01*
X32597856Y-14204307D02*
X32634142Y-14059164D01*
X32634142Y-14059164D02*
X32670428Y-13986592D01*
X32670428Y-13986592D02*
X32742999Y-13914021D01*
X32742999Y-13914021D02*
X32851856Y-13877735D01*
X32851856Y-13877735D02*
X32924428Y-13877735D01*
X32924428Y-13877735D02*
X33033285Y-13914021D01*
X33033285Y-13914021D02*
X33069571Y-13950307D01*
X33904142Y-13877735D02*
X34375856Y-13877735D01*
X34375856Y-13877735D02*
X34121856Y-14168021D01*
X34121856Y-14168021D02*
X34230713Y-14168021D01*
X34230713Y-14168021D02*
X34303285Y-14204307D01*
X34303285Y-14204307D02*
X34339570Y-14240592D01*
X34339570Y-14240592D02*
X34375856Y-14313164D01*
X34375856Y-14313164D02*
X34375856Y-14494592D01*
X34375856Y-14494592D02*
X34339570Y-14567164D01*
X34339570Y-14567164D02*
X34303285Y-14603450D01*
X34303285Y-14603450D02*
X34230713Y-14639735D01*
X34230713Y-14639735D02*
X34012999Y-14639735D01*
X34012999Y-14639735D02*
X33940427Y-14603450D01*
X33940427Y-14603450D02*
X33904142Y-14567164D01*
X35682141Y-13914021D02*
X35609570Y-13877735D01*
X35609570Y-13877735D02*
X35500712Y-13877735D01*
X35500712Y-13877735D02*
X35391855Y-13914021D01*
X35391855Y-13914021D02*
X35319284Y-13986592D01*
X35319284Y-13986592D02*
X35282998Y-14059164D01*
X35282998Y-14059164D02*
X35246712Y-14204307D01*
X35246712Y-14204307D02*
X35246712Y-14313164D01*
X35246712Y-14313164D02*
X35282998Y-14458307D01*
X35282998Y-14458307D02*
X35319284Y-14530878D01*
X35319284Y-14530878D02*
X35391855Y-14603450D01*
X35391855Y-14603450D02*
X35500712Y-14639735D01*
X35500712Y-14639735D02*
X35573284Y-14639735D01*
X35573284Y-14639735D02*
X35682141Y-14603450D01*
X35682141Y-14603450D02*
X35718427Y-14567164D01*
X35718427Y-14567164D02*
X35718427Y-14313164D01*
X35718427Y-14313164D02*
X35573284Y-14313164D01*
X68747484Y-42475571D02*
X69509484Y-42475571D01*
X69509484Y-43564142D02*
X69509484Y-43709285D01*
X69509484Y-43709285D02*
X69473198Y-43781856D01*
X69473198Y-43781856D02*
X69400627Y-43854428D01*
X69400627Y-43854428D02*
X69255484Y-43890713D01*
X69255484Y-43890713D02*
X69001484Y-43890713D01*
X69001484Y-43890713D02*
X68856341Y-43854428D01*
X68856341Y-43854428D02*
X68783770Y-43781856D01*
X68783770Y-43781856D02*
X68747484Y-43709285D01*
X68747484Y-43709285D02*
X68747484Y-43564142D01*
X68747484Y-43564142D02*
X68783770Y-43491571D01*
X68783770Y-43491571D02*
X68856341Y-43418999D01*
X68856341Y-43418999D02*
X69001484Y-43382713D01*
X69001484Y-43382713D02*
X69255484Y-43382713D01*
X69255484Y-43382713D02*
X69400627Y-43418999D01*
X69400627Y-43418999D02*
X69473198Y-43491571D01*
X69473198Y-43491571D02*
X69509484Y-43564142D01*
X69146627Y-44797856D02*
X69146627Y-45051856D01*
X68747484Y-45160713D02*
X68747484Y-44797856D01*
X68747484Y-44797856D02*
X69509484Y-44797856D01*
X69509484Y-44797856D02*
X69509484Y-45160713D01*
X57860571Y-42447515D02*
X57425142Y-42447515D01*
X57642857Y-42447515D02*
X57642857Y-41685515D01*
X57642857Y-41685515D02*
X57570285Y-41794372D01*
X57570285Y-41794372D02*
X57497714Y-41866944D01*
X57497714Y-41866944D02*
X57425142Y-41903230D01*
X58114571Y-41939515D02*
X58295999Y-42447515D01*
X58295999Y-42447515D02*
X58477428Y-41939515D01*
X58876570Y-42012087D02*
X58803999Y-41975801D01*
X58803999Y-41975801D02*
X58767713Y-41939515D01*
X58767713Y-41939515D02*
X58731427Y-41866944D01*
X58731427Y-41866944D02*
X58731427Y-41830658D01*
X58731427Y-41830658D02*
X58767713Y-41758087D01*
X58767713Y-41758087D02*
X58803999Y-41721801D01*
X58803999Y-41721801D02*
X58876570Y-41685515D01*
X58876570Y-41685515D02*
X59021713Y-41685515D01*
X59021713Y-41685515D02*
X59094285Y-41721801D01*
X59094285Y-41721801D02*
X59130570Y-41758087D01*
X59130570Y-41758087D02*
X59166856Y-41830658D01*
X59166856Y-41830658D02*
X59166856Y-41866944D01*
X59166856Y-41866944D02*
X59130570Y-41939515D01*
X59130570Y-41939515D02*
X59094285Y-41975801D01*
X59094285Y-41975801D02*
X59021713Y-42012087D01*
X59021713Y-42012087D02*
X58876570Y-42012087D01*
X58876570Y-42012087D02*
X58803999Y-42048372D01*
X58803999Y-42048372D02*
X58767713Y-42084658D01*
X58767713Y-42084658D02*
X58731427Y-42157230D01*
X58731427Y-42157230D02*
X58731427Y-42302372D01*
X58731427Y-42302372D02*
X58767713Y-42374944D01*
X58767713Y-42374944D02*
X58803999Y-42411230D01*
X58803999Y-42411230D02*
X58876570Y-42447515D01*
X58876570Y-42447515D02*
X59021713Y-42447515D01*
X59021713Y-42447515D02*
X59094285Y-42411230D01*
X59094285Y-42411230D02*
X59130570Y-42374944D01*
X59130570Y-42374944D02*
X59166856Y-42302372D01*
X59166856Y-42302372D02*
X59166856Y-42157230D01*
X59166856Y-42157230D02*
X59130570Y-42084658D01*
X59130570Y-42084658D02*
X59094285Y-42048372D01*
X59094285Y-42048372D02*
X59021713Y-42012087D01*
X50828857Y-41675515D02*
X51300571Y-41675515D01*
X51300571Y-41675515D02*
X51046571Y-41965801D01*
X51046571Y-41965801D02*
X51155428Y-41965801D01*
X51155428Y-41965801D02*
X51228000Y-42002087D01*
X51228000Y-42002087D02*
X51264285Y-42038372D01*
X51264285Y-42038372D02*
X51300571Y-42110944D01*
X51300571Y-42110944D02*
X51300571Y-42292372D01*
X51300571Y-42292372D02*
X51264285Y-42364944D01*
X51264285Y-42364944D02*
X51228000Y-42401230D01*
X51228000Y-42401230D02*
X51155428Y-42437515D01*
X51155428Y-42437515D02*
X50937714Y-42437515D01*
X50937714Y-42437515D02*
X50865142Y-42401230D01*
X50865142Y-42401230D02*
X50828857Y-42364944D01*
X51554571Y-41929515D02*
X51735999Y-42437515D01*
X51735999Y-42437515D02*
X51917428Y-41929515D01*
X52135142Y-41675515D02*
X52606856Y-41675515D01*
X52606856Y-41675515D02*
X52352856Y-41965801D01*
X52352856Y-41965801D02*
X52461713Y-41965801D01*
X52461713Y-41965801D02*
X52534285Y-42002087D01*
X52534285Y-42002087D02*
X52570570Y-42038372D01*
X52570570Y-42038372D02*
X52606856Y-42110944D01*
X52606856Y-42110944D02*
X52606856Y-42292372D01*
X52606856Y-42292372D02*
X52570570Y-42364944D01*
X52570570Y-42364944D02*
X52534285Y-42401230D01*
X52534285Y-42401230D02*
X52461713Y-42437515D01*
X52461713Y-42437515D02*
X52243999Y-42437515D01*
X52243999Y-42437515D02*
X52171427Y-42401230D01*
X52171427Y-42401230D02*
X52135142Y-42364944D01*
D11*
G04 #@! TO.C,J3*
X26920700Y-15923619D02*
X26920700Y-16161714D01*
X26682605Y-16066476D02*
X26920700Y-16161714D01*
X26920700Y-16161714D02*
X27158795Y-16066476D01*
X26777843Y-16352190D02*
X26920700Y-16161714D01*
X26920700Y-16161714D02*
X27063557Y-16352190D01*
G04 #@! TO.C,U4*
X66448095Y-15982619D02*
X66448095Y-16792142D01*
X66448095Y-16792142D02*
X66495714Y-16887380D01*
X66495714Y-16887380D02*
X66543333Y-16935000D01*
X66543333Y-16935000D02*
X66638571Y-16982619D01*
X66638571Y-16982619D02*
X66829047Y-16982619D01*
X66829047Y-16982619D02*
X66924285Y-16935000D01*
X66924285Y-16935000D02*
X66971904Y-16887380D01*
X66971904Y-16887380D02*
X67019523Y-16792142D01*
X67019523Y-16792142D02*
X67019523Y-15982619D01*
X67924285Y-16315952D02*
X67924285Y-16982619D01*
X67686190Y-15935000D02*
X67448095Y-16649285D01*
X67448095Y-16649285D02*
X68067142Y-16649285D01*
X45272619Y-26639999D02*
X45510714Y-26639999D01*
X45415476Y-26878094D02*
X45510714Y-26639999D01*
X45510714Y-26639999D02*
X45415476Y-26401904D01*
X45701190Y-26782856D02*
X45510714Y-26639999D01*
X45510714Y-26639999D02*
X45701190Y-26497142D01*
X46532619Y-24469999D02*
X46770714Y-24469999D01*
X46675476Y-24708094D02*
X46770714Y-24469999D01*
X46770714Y-24469999D02*
X46675476Y-24231904D01*
X46961190Y-24612856D02*
X46770714Y-24469999D01*
X46770714Y-24469999D02*
X46961190Y-24327142D01*
G04 #@! TO.C,U5*
X64368095Y-29342619D02*
X64368095Y-30152142D01*
X64368095Y-30152142D02*
X64415714Y-30247380D01*
X64415714Y-30247380D02*
X64463333Y-30295000D01*
X64463333Y-30295000D02*
X64558571Y-30342619D01*
X64558571Y-30342619D02*
X64749047Y-30342619D01*
X64749047Y-30342619D02*
X64844285Y-30295000D01*
X64844285Y-30295000D02*
X64891904Y-30247380D01*
X64891904Y-30247380D02*
X64939523Y-30152142D01*
X64939523Y-30152142D02*
X64939523Y-29342619D01*
X65891904Y-29342619D02*
X65415714Y-29342619D01*
X65415714Y-29342619D02*
X65368095Y-29818809D01*
X65368095Y-29818809D02*
X65415714Y-29771190D01*
X65415714Y-29771190D02*
X65510952Y-29723571D01*
X65510952Y-29723571D02*
X65749047Y-29723571D01*
X65749047Y-29723571D02*
X65844285Y-29771190D01*
X65844285Y-29771190D02*
X65891904Y-29818809D01*
X65891904Y-29818809D02*
X65939523Y-29914047D01*
X65939523Y-29914047D02*
X65939523Y-30152142D01*
X65939523Y-30152142D02*
X65891904Y-30247380D01*
X65891904Y-30247380D02*
X65844285Y-30295000D01*
X65844285Y-30295000D02*
X65749047Y-30342619D01*
X65749047Y-30342619D02*
X65510952Y-30342619D01*
X65510952Y-30342619D02*
X65415714Y-30295000D01*
X65415714Y-30295000D02*
X65368095Y-30247380D01*
X69240000Y-40592619D02*
X69240000Y-40830714D01*
X69001905Y-40735476D02*
X69240000Y-40830714D01*
X69240000Y-40830714D02*
X69478095Y-40735476D01*
X69097143Y-41021190D02*
X69240000Y-40830714D01*
X69240000Y-40830714D02*
X69382857Y-41021190D01*
X66150000Y-40222619D02*
X66150000Y-40460714D01*
X65911905Y-40365476D02*
X66150000Y-40460714D01*
X66150000Y-40460714D02*
X66388095Y-40365476D01*
X66007143Y-40651190D02*
X66150000Y-40460714D01*
X66150000Y-40460714D02*
X66292857Y-40651190D01*
G04 #@! TO.C,U1*
X31532619Y-42041904D02*
X32342142Y-42041904D01*
X32342142Y-42041904D02*
X32437380Y-41994285D01*
X32437380Y-41994285D02*
X32485000Y-41946666D01*
X32485000Y-41946666D02*
X32532619Y-41851428D01*
X32532619Y-41851428D02*
X32532619Y-41660952D01*
X32532619Y-41660952D02*
X32485000Y-41565714D01*
X32485000Y-41565714D02*
X32437380Y-41518095D01*
X32437380Y-41518095D02*
X32342142Y-41470476D01*
X32342142Y-41470476D02*
X31532619Y-41470476D01*
X32532619Y-40470476D02*
X32532619Y-41041904D01*
X32532619Y-40756190D02*
X31532619Y-40756190D01*
X31532619Y-40756190D02*
X31675476Y-40851428D01*
X31675476Y-40851428D02*
X31770714Y-40946666D01*
X31770714Y-40946666D02*
X31818333Y-41041904D01*
X23187619Y-42304999D02*
X23425714Y-42304999D01*
X23330476Y-42543094D02*
X23425714Y-42304999D01*
X23425714Y-42304999D02*
X23330476Y-42066904D01*
X23616190Y-42447856D02*
X23425714Y-42304999D01*
X23425714Y-42304999D02*
X23616190Y-42162142D01*
G04 #@! TO.C,Y1*
X36594428Y-37366190D02*
X37070619Y-37366190D01*
X36070619Y-37699523D02*
X36594428Y-37366190D01*
X36594428Y-37366190D02*
X36070619Y-37032857D01*
X37070619Y-36175714D02*
X37070619Y-36747142D01*
X37070619Y-36461428D02*
X36070619Y-36461428D01*
X36070619Y-36461428D02*
X36213476Y-36556666D01*
X36213476Y-36556666D02*
X36308714Y-36651904D01*
X36308714Y-36651904D02*
X36356333Y-36747142D01*
D12*
G04 #@! TO.C,C48*
X49370000Y-44920000D02*
X48940000Y-44920000D01*
X49370000Y-44000000D02*
X49370000Y-44915000D01*
X49365000Y-44000000D02*
X48935000Y-44000000D01*
X47225000Y-44920000D02*
X47655000Y-44920000D01*
X47220000Y-44920000D02*
X47220000Y-44005000D01*
X47220000Y-44000000D02*
X47650000Y-44000000D01*
D13*
G04 #@! TO.C,R7*
X34522500Y-40715276D02*
X34522500Y-41224724D01*
X33477500Y-40715276D02*
X33477500Y-41224724D01*
D12*
G04 #@! TO.C,C21*
X26170000Y-17830000D02*
X26170000Y-18260000D01*
X25250000Y-17830000D02*
X26165000Y-17830000D01*
X25250000Y-17835000D02*
X25250000Y-18265000D01*
X26170000Y-19975000D02*
X26170000Y-19545000D01*
X26170000Y-19980000D02*
X25255000Y-19980000D01*
X25250000Y-19980000D02*
X25250000Y-19550000D01*
G04 #@! TO.C,C40*
X31410000Y-17810000D02*
X31410000Y-18240000D01*
X30490000Y-17810000D02*
X31405000Y-17810000D01*
X30490000Y-17815000D02*
X30490000Y-18245000D01*
X31410000Y-19955000D02*
X31410000Y-19525000D01*
X31410000Y-19960000D02*
X30495000Y-19960000D01*
X30490000Y-19960000D02*
X30490000Y-19530000D01*
G04 #@! TO.C,C14*
X48750000Y-12720000D02*
X49180000Y-12720000D01*
X48750000Y-13640000D02*
X48750000Y-12725000D01*
X48755000Y-13640000D02*
X49185000Y-13640000D01*
X50895000Y-12720000D02*
X50465000Y-12720000D01*
X50900000Y-12720000D02*
X50900000Y-13635000D01*
X50900000Y-13640000D02*
X50470000Y-13640000D01*
G04 #@! TO.C,C35*
X31770000Y-34987500D02*
X31770000Y-35417500D01*
X30850000Y-34987500D02*
X31765000Y-34987500D01*
X30850000Y-34992500D02*
X30850000Y-35422500D01*
X31770000Y-37132500D02*
X31770000Y-36702500D01*
X31770000Y-37137500D02*
X30855000Y-37137500D01*
X30850000Y-37137500D02*
X30850000Y-36707500D01*
G04 #@! TO.C,C43*
X22572500Y-24880000D02*
X23002500Y-24880000D01*
X22572500Y-25800000D02*
X22572500Y-24885000D01*
X22577500Y-25800000D02*
X23007500Y-25800000D01*
X24717500Y-24880000D02*
X24287500Y-24880000D01*
X24722500Y-24880000D02*
X24722500Y-25795000D01*
X24722500Y-25800000D02*
X24292500Y-25800000D01*
D14*
G04 #@! TO.C,IC1*
X38650000Y-20500000D02*
X39250000Y-21100000D01*
X25250000Y-20500000D02*
X38650000Y-20500000D01*
X39250000Y-21100000D02*
X39250000Y-34500000D01*
X39250000Y-34500000D02*
X25250000Y-34500000D01*
X25250000Y-34500000D02*
X25250000Y-20500000D01*
X39350000Y-20500000D02*
G75*
G03*
X39350000Y-20500000I-100000J0D01*
G01*
D13*
G04 #@! TO.C,D2*
X68430000Y-42697000D02*
X68430000Y-41227000D01*
X68430000Y-41227000D02*
X65970000Y-41227000D01*
X65970000Y-42697000D02*
X68430000Y-42697000D01*
D12*
G04 #@! TO.C,C18*
X39180000Y-17810000D02*
X39180000Y-18240000D01*
X38260000Y-17810000D02*
X39175000Y-17810000D01*
X38260000Y-17815000D02*
X38260000Y-18245000D01*
X39180000Y-19955000D02*
X39180000Y-19525000D01*
X39180000Y-19960000D02*
X38265000Y-19960000D01*
X38260000Y-19960000D02*
X38260000Y-19530000D01*
G04 #@! TO.C,C28*
X25420000Y-37160000D02*
X25420000Y-36730000D01*
X26340000Y-37160000D02*
X25425000Y-37160000D01*
X26340000Y-37155000D02*
X26340000Y-36725000D01*
X25420000Y-35015000D02*
X25420000Y-35445000D01*
X25420000Y-35010000D02*
X26335000Y-35010000D01*
X26340000Y-35010000D02*
X26340000Y-35440000D01*
G04 #@! TO.C,C26*
X58430000Y-28360000D02*
X58000000Y-28360000D01*
X58430000Y-27440000D02*
X58430000Y-28355000D01*
X58425000Y-27440000D02*
X57995000Y-27440000D01*
X56285000Y-28360000D02*
X56715000Y-28360000D01*
X56280000Y-28360000D02*
X56280000Y-27445000D01*
X56280000Y-27440000D02*
X56710000Y-27440000D01*
G04 #@! TO.C,C30*
X26790000Y-37160000D02*
X26790000Y-36730000D01*
X27710000Y-37160000D02*
X26795000Y-37160000D01*
X27710000Y-37155000D02*
X27710000Y-36725000D01*
X26790000Y-35015000D02*
X26790000Y-35445000D01*
X26790000Y-35010000D02*
X27705000Y-35010000D01*
X27710000Y-35010000D02*
X27710000Y-35440000D01*
G04 #@! TO.C,C11*
X69940000Y-29120000D02*
X69940000Y-29550000D01*
X69020000Y-29120000D02*
X69935000Y-29120000D01*
X69020000Y-29125000D02*
X69020000Y-29555000D01*
X69940000Y-31265000D02*
X69940000Y-30835000D01*
X69940000Y-31270000D02*
X69025000Y-31270000D01*
X69020000Y-31270000D02*
X69020000Y-30840000D01*
G04 #@! TO.C,C25*
X69990000Y-32680000D02*
X69990000Y-33110000D01*
X69070000Y-32680000D02*
X69985000Y-32680000D01*
X69070000Y-32685000D02*
X69070000Y-33115000D01*
X69990000Y-34825000D02*
X69990000Y-34395000D01*
X69990000Y-34830000D02*
X69075000Y-34830000D01*
X69070000Y-34830000D02*
X69070000Y-34400000D01*
D13*
G04 #@! TO.C,U6*
X54580000Y-45920000D02*
X53440000Y-45920000D01*
X53440000Y-46150000D02*
X53440000Y-45920000D01*
X53440000Y-46150000D02*
X50720000Y-46150000D01*
X53440000Y-41430000D02*
X53440000Y-41660000D01*
X50720000Y-46150000D02*
X50720000Y-44840000D01*
X50720000Y-42740000D02*
X50720000Y-41430000D01*
X50720000Y-41430000D02*
X53440000Y-41430000D01*
D12*
G04 #@! TO.C,C7*
X70010000Y-39960000D02*
X70010000Y-40390000D01*
X69090000Y-39960000D02*
X70005000Y-39960000D01*
X69090000Y-39965000D02*
X69090000Y-40395000D01*
X70010000Y-42105000D02*
X70010000Y-41675000D01*
X70010000Y-42110000D02*
X69095000Y-42110000D01*
X69090000Y-42110000D02*
X69090000Y-41680000D01*
G04 #@! TO.C,C41*
X36630000Y-17820000D02*
X36630000Y-18250000D01*
X35710000Y-17820000D02*
X36625000Y-17820000D01*
X35710000Y-17825000D02*
X35710000Y-18255000D01*
X36630000Y-19965000D02*
X36630000Y-19535000D01*
X36630000Y-19970000D02*
X35715000Y-19970000D01*
X35710000Y-19970000D02*
X35710000Y-19540000D01*
G04 #@! TO.C,C24*
X54370000Y-28440000D02*
X53940000Y-28440000D01*
X54370000Y-27520000D02*
X54370000Y-28435000D01*
X54365000Y-27520000D02*
X53935000Y-27520000D01*
X52225000Y-28440000D02*
X52655000Y-28440000D01*
X52220000Y-28440000D02*
X52220000Y-27525000D01*
X52220000Y-27520000D02*
X52650000Y-27520000D01*
G04 #@! TO.C,C45*
X22580000Y-20740000D02*
X23010000Y-20740000D01*
X22580000Y-21660000D02*
X22580000Y-20745000D01*
X22585000Y-21660000D02*
X23015000Y-21660000D01*
X24725000Y-20740000D02*
X24295000Y-20740000D01*
X24730000Y-20740000D02*
X24730000Y-21655000D01*
X24730000Y-21660000D02*
X24300000Y-21660000D01*
G04 #@! TO.C,R14*
X22600000Y-18690000D02*
X22600000Y-18260000D01*
X23520000Y-18690000D02*
X22605000Y-18690000D01*
X23520000Y-18685000D02*
X23520000Y-18255000D01*
X22600000Y-16545000D02*
X22600000Y-16975000D01*
X22600000Y-16540000D02*
X23515000Y-16540000D01*
X23520000Y-16540000D02*
X23520000Y-16970000D01*
G04 #@! TO.C,C12*
X39760000Y-37170000D02*
X39760000Y-36740000D01*
X40680000Y-37170000D02*
X39765000Y-37170000D01*
X40680000Y-37165000D02*
X40680000Y-36735000D01*
X39760000Y-35025000D02*
X39760000Y-35455000D01*
X39760000Y-35020000D02*
X40675000Y-35020000D01*
X40680000Y-35020000D02*
X40680000Y-35450000D01*
G04 #@! TO.C,C38*
X22542500Y-30334000D02*
X22972500Y-30334000D01*
X22542500Y-31254000D02*
X22542500Y-30339000D01*
X22547500Y-31254000D02*
X22977500Y-31254000D01*
X24687500Y-30334000D02*
X24257500Y-30334000D01*
X24692500Y-30334000D02*
X24692500Y-31249000D01*
X24692500Y-31254000D02*
X24262500Y-31254000D01*
D13*
G04 #@! TO.C,D3*
X68455000Y-46253000D02*
X68455000Y-44783000D01*
X68455000Y-44783000D02*
X65995000Y-44783000D01*
X65995000Y-46253000D02*
X68455000Y-46253000D01*
D12*
G04 #@! TO.C,C22*
X35330000Y-17810000D02*
X35330000Y-18240000D01*
X34410000Y-17810000D02*
X35325000Y-17810000D01*
X34410000Y-17815000D02*
X34410000Y-18245000D01*
X35330000Y-19955000D02*
X35330000Y-19525000D01*
X35330000Y-19960000D02*
X34415000Y-19960000D01*
X34410000Y-19960000D02*
X34410000Y-19530000D01*
D13*
G04 #@! TO.C,J3*
X36942900Y-17202520D02*
X36942900Y-15211160D01*
X36942900Y-12335880D02*
X36942900Y-11208120D01*
X36942900Y-11192000D02*
X26278900Y-11214600D01*
X36057240Y-17202520D02*
X36942900Y-17202520D01*
X26278900Y-17209000D02*
X27164560Y-17209000D01*
X26278900Y-15217640D02*
X26278900Y-17209000D01*
X26278900Y-11214600D02*
X26278900Y-12342360D01*
X26024900Y-17082000D02*
G75*
G03*
X26024900Y-17082000I-381000J0D01*
G01*
D12*
G04 #@! TO.C,C39*
X32690000Y-17810000D02*
X32690000Y-18240000D01*
X31770000Y-17810000D02*
X32685000Y-17810000D01*
X31770000Y-17815000D02*
X31770000Y-18245000D01*
X32690000Y-19955000D02*
X32690000Y-19525000D01*
X32690000Y-19960000D02*
X31775000Y-19960000D01*
X31770000Y-19960000D02*
X31770000Y-19530000D01*
G04 #@! TO.C,C50*
X47200000Y-42580000D02*
X47630000Y-42580000D01*
X47200000Y-43500000D02*
X47200000Y-42585000D01*
X47205000Y-43500000D02*
X47635000Y-43500000D01*
X49345000Y-42580000D02*
X48915000Y-42580000D01*
X49350000Y-42580000D02*
X49350000Y-43495000D01*
X49350000Y-43500000D02*
X48920000Y-43500000D01*
G04 #@! TO.C,C17*
X49380000Y-46260000D02*
X48950000Y-46260000D01*
X49380000Y-45340000D02*
X49380000Y-46255000D01*
X49375000Y-45340000D02*
X48945000Y-45340000D01*
X47235000Y-46260000D02*
X47665000Y-46260000D01*
X47230000Y-46260000D02*
X47230000Y-45345000D01*
X47230000Y-45340000D02*
X47660000Y-45340000D01*
G04 #@! TO.C,C3*
X42001056Y-30598406D02*
X42305111Y-30294350D01*
X42651594Y-31248944D02*
X42004591Y-30601942D01*
X42655129Y-31245409D02*
X42959185Y-30941353D01*
X43517800Y-29081662D02*
X43213744Y-29385718D01*
X43521335Y-29078127D02*
X44168338Y-29725129D01*
X44171873Y-29728665D02*
X43867817Y-30032721D01*
D13*
G04 #@! TO.C,U4*
X46035500Y-25882050D02*
X46350460Y-25882050D01*
X68326540Y-25882050D02*
X68641500Y-25882050D01*
X68641500Y-25882050D02*
X68641500Y-15341050D01*
X46035500Y-15341050D02*
X46035500Y-25882050D01*
X46350460Y-15341050D02*
X46035500Y-15341050D01*
X68641500Y-15341050D02*
X68326540Y-15341050D01*
D12*
X54328600Y-27456850D02*
X53947600Y-27456850D01*
X53947600Y-27202850D01*
X54328600Y-27202850D01*
X54328600Y-27456850D01*
G36*
X54328600Y-27456850D02*
G01*
X53947600Y-27456850D01*
X53947600Y-27202850D01*
X54328600Y-27202850D01*
X54328600Y-27456850D01*
G37*
X62329600Y-27456850D02*
X61948600Y-27456850D01*
X61948600Y-27202850D01*
X62329600Y-27202850D01*
X62329600Y-27456850D01*
G36*
X62329600Y-27456850D02*
G01*
X61948600Y-27456850D01*
X61948600Y-27202850D01*
X62329600Y-27202850D01*
X62329600Y-27456850D01*
G37*
X50328100Y-14020250D02*
X49947100Y-14020250D01*
X49947100Y-13766250D01*
X50328100Y-13766250D01*
X50328100Y-14020250D01*
G36*
X50328100Y-14020250D02*
G01*
X49947100Y-14020250D01*
X49947100Y-13766250D01*
X50328100Y-13766250D01*
X50328100Y-14020250D01*
G37*
X58329100Y-14020250D02*
X57948100Y-14020250D01*
X57948100Y-13766250D01*
X58329100Y-13766250D01*
X58329100Y-14020250D01*
G36*
X58329100Y-14020250D02*
G01*
X57948100Y-14020250D01*
X57948100Y-13766250D01*
X58329100Y-13766250D01*
X58329100Y-14020250D01*
G37*
X66330100Y-14020250D02*
X65949100Y-14020250D01*
X65949100Y-13766250D01*
X66330100Y-13766250D01*
X66330100Y-14020250D01*
G36*
X66330100Y-14020250D02*
G01*
X65949100Y-14020250D01*
X65949100Y-13766250D01*
X66330100Y-13766250D01*
X66330100Y-14020250D01*
G37*
G04 #@! TO.C,C37*
X22562500Y-26200000D02*
X22992500Y-26200000D01*
X22562500Y-27120000D02*
X22562500Y-26205000D01*
X22567500Y-27120000D02*
X22997500Y-27120000D01*
X24707500Y-26200000D02*
X24277500Y-26200000D01*
X24712500Y-26200000D02*
X24712500Y-27115000D01*
X24712500Y-27120000D02*
X24282500Y-27120000D01*
D13*
G04 #@! TO.C,C29*
X42155835Y-35030000D02*
X41924165Y-35030000D01*
X42155835Y-34310000D02*
X41924165Y-34310000D01*
G04 #@! TO.C,U5*
X66881001Y-28666100D02*
X48942996Y-28666100D01*
X48942999Y-40908900D02*
X66881004Y-40908900D01*
D12*
X68897500Y-36228000D02*
X68643500Y-36228000D01*
X68643500Y-35847000D01*
X68897500Y-35847000D01*
X68897500Y-36228000D01*
G36*
X68897500Y-36228000D02*
G01*
X68643500Y-36228000D01*
X68643500Y-35847000D01*
X68897500Y-35847000D01*
X68897500Y-36228000D01*
G37*
X68897500Y-31228000D02*
X68643500Y-31228000D01*
X68643500Y-30847000D01*
X68897500Y-30847000D01*
X68897500Y-31228000D01*
G36*
X68897500Y-31228000D02*
G01*
X68643500Y-31228000D01*
X68643500Y-30847000D01*
X68897500Y-30847000D01*
X68897500Y-31228000D01*
G37*
X47180500Y-36728002D02*
X46926500Y-36728002D01*
X46926500Y-36347002D01*
X47180500Y-36347002D01*
X47180500Y-36728002D01*
G36*
X47180500Y-36728002D02*
G01*
X46926500Y-36728002D01*
X46926500Y-36347002D01*
X47180500Y-36347002D01*
X47180500Y-36728002D01*
G37*
X47180500Y-31727999D02*
X46926500Y-31727999D01*
X46926500Y-31346999D01*
X47180500Y-31346999D01*
X47180500Y-31727999D01*
G36*
X47180500Y-31727999D02*
G01*
X46926500Y-31727999D01*
X46926500Y-31346999D01*
X47180500Y-31346999D01*
X47180500Y-31727999D01*
G37*
G04 #@! TO.C,C15*
X53340000Y-12700000D02*
X53770000Y-12700000D01*
X53340000Y-13620000D02*
X53340000Y-12705000D01*
X53345000Y-13620000D02*
X53775000Y-13620000D01*
X55485000Y-12700000D02*
X55055000Y-12700000D01*
X55490000Y-12700000D02*
X55490000Y-13615000D01*
X55490000Y-13620000D02*
X55060000Y-13620000D01*
G04 #@! TO.C,C51*
X45162000Y-35490000D02*
X45162000Y-35920000D01*
X44242000Y-35490000D02*
X45157000Y-35490000D01*
X44242000Y-35495000D02*
X44242000Y-35925000D01*
X45162000Y-37635000D02*
X45162000Y-37205000D01*
X45162000Y-37640000D02*
X44247000Y-37640000D01*
X44242000Y-37640000D02*
X44242000Y-37210000D01*
D13*
G04 #@! TO.C,U1*
X22950000Y-41240000D02*
X22950000Y-44690000D01*
X22950000Y-41240000D02*
X22950000Y-39290000D01*
X33070000Y-41240000D02*
X33070000Y-43190000D01*
X33070000Y-41240000D02*
X33070000Y-39290000D01*
D12*
G04 #@! TO.C,C42*
X22550000Y-33110000D02*
X22980000Y-33110000D01*
X22550000Y-34030000D02*
X22550000Y-33115000D01*
X22555000Y-34030000D02*
X22985000Y-34030000D01*
X24695000Y-33110000D02*
X24265000Y-33110000D01*
X24700000Y-33110000D02*
X24700000Y-34025000D01*
X24700000Y-34030000D02*
X24270000Y-34030000D01*
G04 #@! TO.C,C46*
X30130000Y-17820000D02*
X30130000Y-18250000D01*
X29210000Y-17820000D02*
X30125000Y-17820000D01*
X29210000Y-17825000D02*
X29210000Y-18255000D01*
X30130000Y-19965000D02*
X30130000Y-19535000D01*
X30130000Y-19970000D02*
X29215000Y-19970000D01*
X29210000Y-19970000D02*
X29210000Y-19540000D01*
D13*
G04 #@! TO.C,R12*
X33477500Y-45194724D02*
X33477500Y-44685276D01*
X34522500Y-45194724D02*
X34522500Y-44685276D01*
D12*
G04 #@! TO.C,R15*
X23900000Y-18700000D02*
X23900000Y-18270000D01*
X24820000Y-18700000D02*
X23905000Y-18700000D01*
X24820000Y-18695000D02*
X24820000Y-18265000D01*
X23900000Y-16555000D02*
X23900000Y-16985000D01*
X23900000Y-16550000D02*
X24815000Y-16550000D01*
X24820000Y-16550000D02*
X24820000Y-16980000D01*
G04 #@! TO.C,C31*
X22550000Y-31710000D02*
X22980000Y-31710000D01*
X22550000Y-32630000D02*
X22550000Y-31715000D01*
X22555000Y-32630000D02*
X22985000Y-32630000D01*
X24695000Y-31710000D02*
X24265000Y-31710000D01*
X24700000Y-31710000D02*
X24700000Y-32625000D01*
X24700000Y-32630000D02*
X24270000Y-32630000D01*
G04 #@! TO.C,C19*
X27500000Y-17820000D02*
X27500000Y-18250000D01*
X26580000Y-17820000D02*
X27495000Y-17820000D01*
X26580000Y-17825000D02*
X26580000Y-18255000D01*
X27500000Y-19965000D02*
X27500000Y-19535000D01*
X27500000Y-19970000D02*
X26585000Y-19970000D01*
X26580000Y-19970000D02*
X26580000Y-19540000D01*
G04 #@! TO.C,C2*
X29110000Y-34990000D02*
X29110000Y-35420000D01*
X28190000Y-34990000D02*
X29105000Y-34990000D01*
X28190000Y-34995000D02*
X28190000Y-35425000D01*
X29110000Y-37135000D02*
X29110000Y-36705000D01*
X29110000Y-37140000D02*
X28195000Y-37140000D01*
X28190000Y-37140000D02*
X28190000Y-36710000D01*
D13*
G04 #@! TO.C,R13*
X27615276Y-45307500D02*
X28124724Y-45307500D01*
X27615276Y-46352500D02*
X28124724Y-46352500D01*
D12*
G04 #@! TO.C,C13*
X46380000Y-33710000D02*
X46380000Y-34140000D01*
X45460000Y-33710000D02*
X46375000Y-33710000D01*
X45460000Y-33715000D02*
X45460000Y-34145000D01*
X46380000Y-35855000D02*
X46380000Y-35425000D01*
X46380000Y-35860000D02*
X45465000Y-35860000D01*
X45460000Y-35860000D02*
X45460000Y-35430000D01*
D13*
G04 #@! TO.C,R2*
X43898500Y-36897776D02*
X43898500Y-37407224D01*
X42853500Y-36897776D02*
X42853500Y-37407224D01*
D12*
G04 #@! TO.C,C7*
X69070000Y-15950000D02*
X69070000Y-15520000D01*
X69990000Y-15950000D02*
X69075000Y-15950000D01*
X69990000Y-15945000D02*
X69990000Y-15515000D01*
X69070000Y-13805000D02*
X69070000Y-14235000D01*
X69070000Y-13800000D02*
X69985000Y-13800000D01*
X69990000Y-13800000D02*
X69990000Y-14230000D01*
G04 #@! TO.C,C33*
X22580000Y-22130000D02*
X23010000Y-22130000D01*
X22580000Y-23050000D02*
X22580000Y-22135000D01*
X22585000Y-23050000D02*
X23015000Y-23050000D01*
X24725000Y-22130000D02*
X24295000Y-22130000D01*
X24730000Y-22130000D02*
X24730000Y-23045000D01*
X24730000Y-23050000D02*
X24300000Y-23050000D01*
D13*
G04 #@! TO.C,D1*
X68455000Y-44475000D02*
X68455000Y-43005000D01*
X68455000Y-43005000D02*
X65995000Y-43005000D01*
X65995000Y-44475000D02*
X68455000Y-44475000D01*
D12*
G04 #@! TO.C,C47*
X28840000Y-17810000D02*
X28840000Y-18240000D01*
X27920000Y-17810000D02*
X28835000Y-17810000D01*
X27920000Y-17815000D02*
X27920000Y-18245000D01*
X28840000Y-19955000D02*
X28840000Y-19525000D01*
X28840000Y-19960000D02*
X27925000Y-19960000D01*
X27920000Y-19960000D02*
X27920000Y-19530000D01*
G04 #@! TO.C,C23*
X34000000Y-17810000D02*
X34000000Y-18240000D01*
X33080000Y-17810000D02*
X33995000Y-17810000D01*
X33080000Y-17815000D02*
X33080000Y-18245000D01*
X34000000Y-19955000D02*
X34000000Y-19525000D01*
X34000000Y-19960000D02*
X33085000Y-19960000D01*
X33080000Y-19960000D02*
X33080000Y-19530000D01*
G04 #@! TO.C,C1*
X30460000Y-34990000D02*
X30460000Y-35420000D01*
X29540000Y-34990000D02*
X30455000Y-34990000D01*
X29540000Y-34995000D02*
X29540000Y-35425000D01*
X30460000Y-37135000D02*
X30460000Y-36705000D01*
X30460000Y-37140000D02*
X29545000Y-37140000D01*
X29540000Y-37140000D02*
X29540000Y-36710000D01*
D13*
G04 #@! TO.C,Y1*
X33500000Y-35090000D02*
X33500000Y-38690000D01*
X33500000Y-38690000D02*
X39250000Y-38690000D01*
X39250000Y-35090000D02*
X33500000Y-35090000D01*
D12*
G04 #@! TO.C,C27*
X66580000Y-27490000D02*
X67010000Y-27490000D01*
X66580000Y-28410000D02*
X66580000Y-27495000D01*
X66585000Y-28410000D02*
X67015000Y-28410000D01*
X68725000Y-27490000D02*
X68295000Y-27490000D01*
X68730000Y-27490000D02*
X68730000Y-28405000D01*
X68730000Y-28410000D02*
X68300000Y-28410000D01*
G04 #@! TO.C,R11*
X46100000Y-45480000D02*
X46100000Y-45050000D01*
X47020000Y-45480000D02*
X46105000Y-45480000D01*
X47020000Y-45475000D02*
X47020000Y-45045000D01*
X46100000Y-43335000D02*
X46100000Y-43765000D01*
X46100000Y-43330000D02*
X47015000Y-43330000D01*
X47020000Y-43330000D02*
X47020000Y-43760000D01*
D13*
G04 #@! TO.C,R1*
X41329500Y-37407224D02*
X41329500Y-36897776D01*
X42374500Y-37407224D02*
X42374500Y-36897776D01*
D12*
G04 #@! TO.C,C5*
X42881056Y-31438406D02*
X43185111Y-31134350D01*
X43531594Y-32088944D02*
X42884591Y-31441942D01*
X43535129Y-32085409D02*
X43839185Y-31781353D01*
X44397800Y-29921662D02*
X44093744Y-30225718D01*
X44401335Y-29918127D02*
X45048338Y-30565129D01*
X45051873Y-30568665D02*
X44747817Y-30872721D01*
G04 #@! TO.C,C49*
X47220000Y-41320000D02*
X47650000Y-41320000D01*
X47220000Y-42240000D02*
X47220000Y-41325000D01*
X47225000Y-42240000D02*
X47655000Y-42240000D01*
X49365000Y-41320000D02*
X48935000Y-41320000D01*
X49370000Y-41320000D02*
X49370000Y-42235000D01*
X49370000Y-42240000D02*
X48940000Y-42240000D01*
G04 #@! TO.C,C6*
X32240000Y-37160000D02*
X32240000Y-36730000D01*
X33160000Y-37160000D02*
X32245000Y-37160000D01*
X33160000Y-37155000D02*
X33160000Y-36725000D01*
X32240000Y-35015000D02*
X32240000Y-35445000D01*
X32240000Y-35010000D02*
X33155000Y-35010000D01*
X33160000Y-35010000D02*
X33160000Y-35440000D01*
D13*
G04 #@! TO.C,U7*
X61140000Y-45930000D02*
X60000000Y-45930000D01*
X60000000Y-46160000D02*
X60000000Y-45930000D01*
X60000000Y-46160000D02*
X57280000Y-46160000D01*
X60000000Y-41440000D02*
X60000000Y-41670000D01*
X57280000Y-46160000D02*
X57280000Y-44850000D01*
X57280000Y-42750000D02*
X57280000Y-41440000D01*
X57280000Y-41440000D02*
X60000000Y-41440000D01*
D12*
G04 #@! TO.C,C9*
X22560000Y-35960000D02*
X22990000Y-35960000D01*
X22560000Y-36880000D02*
X22560000Y-35965000D01*
X22565000Y-36880000D02*
X22995000Y-36880000D01*
X24705000Y-35960000D02*
X24275000Y-35960000D01*
X24710000Y-35960000D02*
X24710000Y-36875000D01*
X24710000Y-36880000D02*
X24280000Y-36880000D01*
G04 #@! TO.C,R8*
X46080000Y-43100000D02*
X46080000Y-42670000D01*
X47000000Y-43100000D02*
X46085000Y-43100000D01*
X47000000Y-43095000D02*
X47000000Y-42665000D01*
X46080000Y-40955000D02*
X46080000Y-41385000D01*
X46080000Y-40950000D02*
X46995000Y-40950000D01*
X47000000Y-40950000D02*
X47000000Y-41380000D01*
D13*
G04 #@! TO.C,J4*
X35430000Y-42670000D02*
X35430000Y-44670000D01*
X35430000Y-46570000D02*
X35430000Y-48470000D01*
X35430000Y-48470000D02*
X44830000Y-48470000D01*
X44830000Y-42670000D02*
X44830000Y-44670000D01*
X44830000Y-46570000D02*
X44830000Y-48470000D01*
D12*
G04 #@! TO.C,R20*
X46380000Y-36150000D02*
X46380000Y-36580000D01*
X45460000Y-36150000D02*
X46375000Y-36150000D01*
X45460000Y-36155000D02*
X45460000Y-36585000D01*
X46380000Y-38295000D02*
X46380000Y-37865000D01*
X46380000Y-38300000D02*
X45465000Y-38300000D01*
X45460000Y-38300000D02*
X45460000Y-37870000D01*
D13*
G04 #@! TO.C,R5*
X63065276Y-41489500D02*
X63574724Y-41489500D01*
X63065276Y-42534500D02*
X63574724Y-42534500D01*
D12*
G04 #@! TO.C,C16*
X22820000Y-45090000D02*
X23250000Y-45090000D01*
X22820000Y-46010000D02*
X22820000Y-45095000D01*
X22825000Y-46010000D02*
X23255000Y-46010000D01*
X24965000Y-45090000D02*
X24535000Y-45090000D01*
X24970000Y-45090000D02*
X24970000Y-46005000D01*
X24970000Y-46010000D02*
X24540000Y-46010000D01*
G04 #@! TO.C,R10*
X46430000Y-38510000D02*
X46430000Y-38940000D01*
X45510000Y-38510000D02*
X46425000Y-38510000D01*
X45510000Y-38515000D02*
X45510000Y-38945000D01*
X46430000Y-40655000D02*
X46430000Y-40225000D01*
X46430000Y-40660000D02*
X45515000Y-40660000D01*
X45510000Y-40660000D02*
X45510000Y-40230000D01*
G04 #@! TO.C,C34*
X37950000Y-17800000D02*
X37950000Y-18230000D01*
X37030000Y-17800000D02*
X37945000Y-17800000D01*
X37030000Y-17805000D02*
X37030000Y-18235000D01*
X37950000Y-19945000D02*
X37950000Y-19515000D01*
X37950000Y-19950000D02*
X37035000Y-19950000D01*
X37030000Y-19950000D02*
X37030000Y-19520000D01*
G04 #@! TO.C,R17*
X23530000Y-14170000D02*
X23530000Y-14600000D01*
X22610000Y-14170000D02*
X23525000Y-14170000D01*
X22610000Y-14175000D02*
X22610000Y-14605000D01*
X23530000Y-16315000D02*
X23530000Y-15885000D01*
X23530000Y-16320000D02*
X22615000Y-16320000D01*
X22610000Y-16320000D02*
X22610000Y-15890000D01*
D13*
G04 #@! TO.C,R6*
X63065276Y-44989500D02*
X63574724Y-44989500D01*
X63065276Y-46034500D02*
X63574724Y-46034500D01*
D12*
G04 #@! TO.C,C32*
X22600000Y-19430000D02*
X23030000Y-19430000D01*
X22600000Y-20350000D02*
X22600000Y-19435000D01*
X22605000Y-20350000D02*
X23035000Y-20350000D01*
X24745000Y-19430000D02*
X24315000Y-19430000D01*
X24750000Y-19430000D02*
X24750000Y-20345000D01*
X24750000Y-20350000D02*
X24320000Y-20350000D01*
G04 #@! TO.C,C20*
X22522500Y-28980000D02*
X22952500Y-28980000D01*
X22522500Y-29900000D02*
X22522500Y-28985000D01*
X22527500Y-29900000D02*
X22957500Y-29900000D01*
X24667500Y-28980000D02*
X24237500Y-28980000D01*
X24672500Y-28980000D02*
X24672500Y-29895000D01*
X24672500Y-29900000D02*
X24242500Y-29900000D01*
G04 #@! TO.C,R3*
X69990000Y-35180000D02*
X69990000Y-35610000D01*
X69070000Y-35180000D02*
X69985000Y-35180000D01*
X69070000Y-35185000D02*
X69070000Y-35615000D01*
X69990000Y-37325000D02*
X69990000Y-36895000D01*
X69990000Y-37330000D02*
X69075000Y-37330000D01*
X69070000Y-37330000D02*
X69070000Y-36900000D01*
G04 #@! TO.C,C36*
X22580000Y-34550000D02*
X23010000Y-34550000D01*
X22580000Y-35470000D02*
X22580000Y-34555000D01*
X22585000Y-35470000D02*
X23015000Y-35470000D01*
X24725000Y-34550000D02*
X24295000Y-34550000D01*
X24730000Y-34550000D02*
X24730000Y-35465000D01*
X24730000Y-35470000D02*
X24300000Y-35470000D01*
G04 #@! TO.C,C4*
X22552500Y-27620000D02*
X22982500Y-27620000D01*
X22552500Y-28540000D02*
X22552500Y-27625000D01*
X22557500Y-28540000D02*
X22987500Y-28540000D01*
X24697500Y-27620000D02*
X24267500Y-27620000D01*
X24702500Y-27620000D02*
X24702500Y-28535000D01*
X24702500Y-28540000D02*
X24272500Y-28540000D01*
G04 #@! TO.C,C44*
X22550000Y-23530000D02*
X22980000Y-23530000D01*
X22550000Y-24450000D02*
X22550000Y-23535000D01*
X22555000Y-24450000D02*
X22985000Y-24450000D01*
X24695000Y-23530000D02*
X24265000Y-23530000D01*
X24700000Y-23530000D02*
X24700000Y-24445000D01*
X24700000Y-24450000D02*
X24270000Y-24450000D01*
D13*
G04 #@! TO.C,R4*
X63072276Y-43217500D02*
X63581724Y-43217500D01*
X63072276Y-44262500D02*
X63581724Y-44262500D01*
D12*
G04 #@! TO.C,R16*
X23900000Y-15380000D02*
X24330000Y-15380000D01*
X23900000Y-16300000D02*
X23900000Y-15385000D01*
X23905000Y-16300000D02*
X24335000Y-16300000D01*
X26045000Y-15380000D02*
X25615000Y-15380000D01*
X26050000Y-15380000D02*
X26050000Y-16295000D01*
X26050000Y-16300000D02*
X25620000Y-16300000D01*
G04 #@! TO.C,R9*
X69990000Y-37580000D02*
X69990000Y-38010000D01*
X69070000Y-37580000D02*
X69985000Y-37580000D01*
X69070000Y-37585000D02*
X69070000Y-38015000D01*
X69990000Y-39725000D02*
X69990000Y-39295000D01*
X69990000Y-39730000D02*
X69075000Y-39730000D01*
X69070000Y-39730000D02*
X69070000Y-39300000D01*
G04 #@! TD*
%LPC*%
D15*
G04 #@! TO.C,C48*
X48857500Y-44460000D03*
X47722500Y-44460000D03*
G04 #@! TD*
D16*
G04 #@! TO.C,R7*
X34000000Y-40057500D03*
X34000000Y-41882500D03*
G04 #@! TD*
D17*
G04 #@! TO.C,C21*
X25710000Y-18342500D03*
X25710000Y-19477500D03*
G04 #@! TD*
G04 #@! TO.C,C40*
X30950000Y-18322500D03*
X30950000Y-19457500D03*
G04 #@! TD*
D18*
G04 #@! TO.C,C14*
X49262500Y-13180000D03*
X50397500Y-13180000D03*
G04 #@! TD*
D17*
G04 #@! TO.C,C35*
X31310000Y-35500000D03*
X31310000Y-36635000D03*
G04 #@! TD*
D18*
G04 #@! TO.C,C43*
X23085000Y-25340000D03*
X24220000Y-25340000D03*
G04 #@! TD*
D19*
G04 #@! TO.C,IC1*
X38650000Y-21100000D03*
X38650000Y-21900000D03*
X38650000Y-22700000D03*
X38650000Y-23500000D03*
X38650000Y-24300000D03*
X38650000Y-25100000D03*
X38650000Y-25900000D03*
X38650000Y-26700000D03*
X38650000Y-27500000D03*
X38650000Y-28300000D03*
X38650000Y-29100000D03*
X38650000Y-29900000D03*
X38650000Y-30700000D03*
X38650000Y-31500000D03*
X38650000Y-32300000D03*
X38650000Y-33100000D03*
X38650000Y-33900000D03*
X37850000Y-21100000D03*
X37850000Y-21900000D03*
X37850000Y-22700000D03*
X37850000Y-23500000D03*
X37850000Y-24300000D03*
X37850000Y-25100000D03*
X37850000Y-25900000D03*
X37850000Y-26700000D03*
X37850000Y-27500000D03*
X37850000Y-28300000D03*
X37850000Y-29100000D03*
X37850000Y-29900000D03*
X37850000Y-30700000D03*
X37850000Y-31500000D03*
X37850000Y-32300000D03*
X37850000Y-33100000D03*
X37850000Y-33900000D03*
X37050000Y-21100000D03*
X37050000Y-21900000D03*
X37050000Y-22700000D03*
X37050000Y-23500000D03*
X37050000Y-24300000D03*
X37050000Y-25100000D03*
X37050000Y-25900000D03*
X37050000Y-26700000D03*
X37050000Y-27500000D03*
X37050000Y-28300000D03*
X37050000Y-29100000D03*
X37050000Y-29900000D03*
X37050000Y-30700000D03*
X37050000Y-31500000D03*
X37050000Y-32300000D03*
X37050000Y-33100000D03*
X37050000Y-33900000D03*
X36250000Y-21100000D03*
X36250000Y-21900000D03*
X36250000Y-22700000D03*
X36250000Y-23500000D03*
X36250000Y-24300000D03*
X36250000Y-25100000D03*
X36250000Y-25900000D03*
X36250000Y-26700000D03*
X36250000Y-27500000D03*
X36250000Y-28300000D03*
X36250000Y-29100000D03*
X36250000Y-29900000D03*
X36250000Y-30700000D03*
X36250000Y-31500000D03*
X36250000Y-32300000D03*
X36250000Y-33100000D03*
X36250000Y-33900000D03*
X35450000Y-21100000D03*
X35450000Y-21900000D03*
X35450000Y-22700000D03*
X35450000Y-23500000D03*
X35450000Y-24300000D03*
X35450000Y-25100000D03*
X35450000Y-25900000D03*
X35450000Y-26700000D03*
X35450000Y-27500000D03*
X35450000Y-28300000D03*
X35450000Y-29100000D03*
X35450000Y-29900000D03*
X35450000Y-30700000D03*
X35450000Y-31500000D03*
X35450000Y-32300000D03*
X35450000Y-33100000D03*
X35450000Y-33900000D03*
X34650000Y-21100000D03*
X34650000Y-21900000D03*
X34650000Y-22700000D03*
X34650000Y-23500000D03*
X34650000Y-24300000D03*
X34650000Y-25100000D03*
X34650000Y-25900000D03*
X34650000Y-26700000D03*
X34650000Y-27500000D03*
X34650000Y-28300000D03*
X34650000Y-29100000D03*
X34650000Y-29900000D03*
X34650000Y-30700000D03*
X34650000Y-31500000D03*
X34650000Y-32300000D03*
X34650000Y-33100000D03*
X34650000Y-33900000D03*
X33850000Y-21100000D03*
X33850000Y-21900000D03*
X33850000Y-22700000D03*
X33850000Y-23500000D03*
X33850000Y-24300000D03*
X33850000Y-25100000D03*
X33850000Y-25900000D03*
X33850000Y-27500000D03*
X33850000Y-29100000D03*
X33850000Y-29900000D03*
X33850000Y-30700000D03*
X33850000Y-31500000D03*
X33850000Y-32300000D03*
X33850000Y-33100000D03*
X33850000Y-33900000D03*
X33050000Y-21100000D03*
X33050000Y-21900000D03*
X33050000Y-22700000D03*
X33050000Y-23500000D03*
X33050000Y-24300000D03*
X33050000Y-25100000D03*
X33050000Y-29900000D03*
X33050000Y-30700000D03*
X33050000Y-31500000D03*
X33050000Y-32300000D03*
X33050000Y-33100000D03*
X33050000Y-33900000D03*
X32250000Y-21100000D03*
X32250000Y-21900000D03*
X32250000Y-22700000D03*
X32250000Y-23500000D03*
X32250000Y-24300000D03*
X32250000Y-25100000D03*
X32250000Y-25900000D03*
X32250000Y-29100000D03*
X32250000Y-29900000D03*
X32250000Y-30700000D03*
X32250000Y-31500000D03*
X32250000Y-32300000D03*
X32250000Y-33100000D03*
X32250000Y-33900000D03*
X31450000Y-21100000D03*
X31450000Y-21900000D03*
X31450000Y-22700000D03*
X31450000Y-23500000D03*
X31450000Y-24300000D03*
X31450000Y-25100000D03*
X31450000Y-29900000D03*
X31450000Y-30700000D03*
X31450000Y-31500000D03*
X31450000Y-32300000D03*
X31450000Y-33100000D03*
X31450000Y-33900000D03*
X30650000Y-21100000D03*
X30650000Y-21900000D03*
X30650000Y-22700000D03*
X30650000Y-23500000D03*
X30650000Y-24300000D03*
X30650000Y-25100000D03*
X30650000Y-25900000D03*
X30650000Y-27500000D03*
X30650000Y-29100000D03*
X30650000Y-29900000D03*
X30650000Y-30700000D03*
X30650000Y-31500000D03*
X30650000Y-32300000D03*
X30650000Y-33100000D03*
X30650000Y-33900000D03*
X29850000Y-21100000D03*
X29850000Y-21900000D03*
X29850000Y-22700000D03*
X29850000Y-23500000D03*
X29850000Y-24300000D03*
X29850000Y-25100000D03*
X29850000Y-25900000D03*
X29850000Y-26700000D03*
X29850000Y-27500000D03*
X29850000Y-28300000D03*
X29850000Y-29100000D03*
X29850000Y-29900000D03*
X29850000Y-30700000D03*
X29850000Y-31500000D03*
X29850000Y-32300000D03*
X29850000Y-33100000D03*
X29850000Y-33900000D03*
X29050000Y-21100000D03*
X29050000Y-21900000D03*
X29050000Y-22700000D03*
X29050000Y-23500000D03*
X29050000Y-24300000D03*
X29050000Y-25100000D03*
X29050000Y-25900000D03*
X29050000Y-26700000D03*
X29050000Y-27500000D03*
X29050000Y-28300000D03*
X29050000Y-29100000D03*
X29050000Y-29900000D03*
X29050000Y-30700000D03*
X29050000Y-31500000D03*
X29050000Y-32300000D03*
X29050000Y-33100000D03*
X29050000Y-33900000D03*
X28250000Y-21100000D03*
X28250000Y-21900000D03*
X28250000Y-22700000D03*
X28250000Y-23500000D03*
X28250000Y-24300000D03*
X28250000Y-25100000D03*
X28250000Y-25900000D03*
X28250000Y-26700000D03*
X28250000Y-27500000D03*
X28250000Y-28300000D03*
X28250000Y-29100000D03*
X28250000Y-29900000D03*
X28250000Y-30700000D03*
X28250000Y-31500000D03*
X28250000Y-32300000D03*
X28250000Y-33100000D03*
X28250000Y-33900000D03*
X27450000Y-21100000D03*
X27450000Y-21900000D03*
X27450000Y-22700000D03*
X27450000Y-23500000D03*
X27450000Y-24300000D03*
X27450000Y-25100000D03*
X27450000Y-25900000D03*
X27450000Y-26700000D03*
X27450000Y-27500000D03*
X27450000Y-28300000D03*
X27450000Y-29100000D03*
X27450000Y-29900000D03*
X27450000Y-30700000D03*
X27450000Y-31500000D03*
X27450000Y-32300000D03*
X27450000Y-33100000D03*
X27450000Y-33900000D03*
X26650000Y-21100000D03*
X26650000Y-21900000D03*
X26650000Y-22700000D03*
X26650000Y-23500000D03*
X26650000Y-24300000D03*
X26650000Y-25100000D03*
X26650000Y-25900000D03*
X26650000Y-26700000D03*
X26650000Y-27500000D03*
X26650000Y-28300000D03*
X26650000Y-29100000D03*
X26650000Y-29900000D03*
X26650000Y-30700000D03*
X26650000Y-31500000D03*
X26650000Y-32300000D03*
X26650000Y-33100000D03*
X26650000Y-33900000D03*
X25850000Y-21100000D03*
X25850000Y-21900000D03*
X25850000Y-22700000D03*
X25850000Y-23500000D03*
X25850000Y-24300000D03*
X25850000Y-25100000D03*
X25850000Y-25900000D03*
X25850000Y-26700000D03*
X25850000Y-27500000D03*
X25850000Y-28300000D03*
X25850000Y-29100000D03*
X25850000Y-29900000D03*
X25850000Y-30700000D03*
X25850000Y-31500000D03*
X25850000Y-32300000D03*
X25850000Y-33100000D03*
X25850000Y-33900000D03*
G04 #@! TD*
D20*
G04 #@! TO.C,D2*
X67645000Y-41962000D03*
X65895000Y-41962000D03*
G04 #@! TD*
D17*
G04 #@! TO.C,C18*
X38720000Y-18322500D03*
X38720000Y-19457500D03*
G04 #@! TD*
D21*
G04 #@! TO.C,C28*
X25880000Y-36647500D03*
X25880000Y-35512500D03*
G04 #@! TD*
D15*
G04 #@! TO.C,C26*
X57917500Y-27900000D03*
X56782500Y-27900000D03*
G04 #@! TD*
D21*
G04 #@! TO.C,C30*
X27250000Y-36647500D03*
X27250000Y-35512500D03*
G04 #@! TD*
D17*
G04 #@! TO.C,C11*
X69480000Y-29632500D03*
X69480000Y-30767500D03*
G04 #@! TD*
G04 #@! TO.C,C25*
X69530000Y-33192500D03*
X69530000Y-34327500D03*
G04 #@! TD*
D22*
G04 #@! TO.C,U6*
X54030000Y-45290000D03*
D23*
X53942500Y-43790000D03*
D22*
X54030000Y-42290000D03*
G04 #@! TD*
D17*
G04 #@! TO.C,C7*
X69550000Y-40472500D03*
X69550000Y-41607500D03*
G04 #@! TD*
G04 #@! TO.C,C41*
X36170000Y-18332500D03*
X36170000Y-19467500D03*
G04 #@! TD*
D15*
G04 #@! TO.C,C24*
X53857500Y-27980000D03*
X52722500Y-27980000D03*
G04 #@! TD*
D18*
G04 #@! TO.C,C45*
X23092500Y-21200000D03*
X24227500Y-21200000D03*
G04 #@! TD*
D21*
G04 #@! TO.C,R14*
X23060000Y-18177500D03*
X23060000Y-17042500D03*
G04 #@! TD*
G04 #@! TO.C,C12*
X40220000Y-36657500D03*
X40220000Y-35522500D03*
G04 #@! TD*
D18*
G04 #@! TO.C,C38*
X23055000Y-30794000D03*
X24190000Y-30794000D03*
G04 #@! TD*
D20*
G04 #@! TO.C,D3*
X67670000Y-45518000D03*
X65920000Y-45518000D03*
G04 #@! TD*
D17*
G04 #@! TO.C,C22*
X34870000Y-18322500D03*
X34870000Y-19457500D03*
G04 #@! TD*
D24*
G04 #@! TO.C,J3*
X27852900Y-16854000D03*
X29102900Y-16854000D03*
X30352900Y-16854000D03*
X31602900Y-16854000D03*
X32852900Y-16854000D03*
X34102900Y-16854000D03*
X35352900Y-16854000D03*
D25*
X37600000Y-13780000D03*
X25605800Y-13780000D03*
G04 #@! TD*
D17*
G04 #@! TO.C,C39*
X32230000Y-18322500D03*
X32230000Y-19457500D03*
G04 #@! TD*
D18*
G04 #@! TO.C,C50*
X47712500Y-43040000D03*
X48847500Y-43040000D03*
G04 #@! TD*
D15*
G04 #@! TO.C,C17*
X48867500Y-45800000D03*
X47732500Y-45800000D03*
G04 #@! TD*
D26*
G04 #@! TO.C,C3*
X42688717Y-30561283D03*
X43491283Y-29758717D03*
G04 #@! TD*
D27*
G04 #@! TO.C,U4*
X46937200Y-26351950D03*
X47737300Y-26351950D03*
X48537400Y-26351950D03*
X49337500Y-26351950D03*
X50137600Y-26351950D03*
X50937700Y-26351950D03*
X51737800Y-26351950D03*
X52537900Y-26351950D03*
X53338000Y-26351950D03*
X54138100Y-26351950D03*
X54938200Y-26351950D03*
X55738300Y-26351950D03*
X56538400Y-26351950D03*
X57338500Y-26351950D03*
X58138600Y-26351950D03*
X58938700Y-26351950D03*
X59738800Y-26351950D03*
X60538900Y-26351950D03*
X61339000Y-26351950D03*
X62139100Y-26351950D03*
X62939200Y-26351950D03*
X63739300Y-26351950D03*
X64539400Y-26351950D03*
X65339500Y-26351950D03*
X66139600Y-26351950D03*
X66939700Y-26351950D03*
X67739800Y-26351950D03*
X67739800Y-14871150D03*
X66939700Y-14871150D03*
X66139600Y-14871150D03*
X65339500Y-14871150D03*
X64539400Y-14871150D03*
X63739300Y-14871150D03*
X62939200Y-14871150D03*
X62139100Y-14871150D03*
X61339000Y-14871150D03*
X60538900Y-14871150D03*
X59738800Y-14871150D03*
X58938700Y-14871150D03*
X58138600Y-14871150D03*
X57338500Y-14871150D03*
X56538400Y-14871150D03*
X55738300Y-14871150D03*
X54938200Y-14871150D03*
X54138100Y-14871150D03*
X53338000Y-14871150D03*
X52537900Y-14871150D03*
X51737800Y-14871150D03*
X50937700Y-14871150D03*
X50137600Y-14871150D03*
X49337500Y-14871150D03*
X48537400Y-14871150D03*
X47737300Y-14871150D03*
X46937200Y-14871150D03*
G04 #@! TD*
D18*
G04 #@! TO.C,C37*
X23075000Y-26660000D03*
X24210000Y-26660000D03*
G04 #@! TD*
D15*
G04 #@! TO.C,C29*
X42607500Y-34670000D03*
X41472500Y-34670000D03*
G04 #@! TD*
D28*
G04 #@! TO.C,U5*
X67748150Y-40537499D03*
X67748150Y-40037500D03*
X67748150Y-39537501D03*
X67748150Y-39037499D03*
X67748150Y-38537500D03*
X67748150Y-38037501D03*
X67748150Y-37537500D03*
X67748150Y-37037501D03*
X67748150Y-36537499D03*
X67748150Y-36037500D03*
X67748150Y-35537501D03*
X67748150Y-35037500D03*
X67748150Y-34537500D03*
X67748150Y-34037499D03*
X67748150Y-33537500D03*
X67748150Y-33037501D03*
X67748150Y-32537499D03*
X67748150Y-32037500D03*
X67748150Y-31537499D03*
X67748150Y-31037500D03*
X67748150Y-30537501D03*
X67748150Y-30037499D03*
X67748150Y-29537500D03*
X67748150Y-29037499D03*
X48075850Y-29037501D03*
X48075850Y-29537500D03*
X48075850Y-30037499D03*
X48075850Y-30537501D03*
X48075850Y-31037500D03*
X48075850Y-31537501D03*
X48075850Y-32037500D03*
X48075850Y-32537499D03*
X48075850Y-33037501D03*
X48075850Y-33537500D03*
X48075850Y-34037502D03*
X48075850Y-34537500D03*
X48075850Y-35037500D03*
X48075850Y-35537501D03*
X48075850Y-36037500D03*
X48075850Y-36537499D03*
X48075850Y-37037501D03*
X48075850Y-37537500D03*
X48075850Y-38037501D03*
X48075850Y-38537500D03*
X48075850Y-39037499D03*
X48075850Y-39537501D03*
X48075850Y-40037500D03*
X48075850Y-40537501D03*
G04 #@! TD*
D18*
G04 #@! TO.C,C15*
X53852500Y-13160000D03*
X54987500Y-13160000D03*
G04 #@! TD*
D17*
G04 #@! TO.C,C51*
X44702000Y-36002500D03*
X44702000Y-37137500D03*
G04 #@! TD*
D29*
G04 #@! TO.C,U1*
X23565000Y-43715000D03*
X24835000Y-43715000D03*
X26105000Y-43715000D03*
X27375000Y-43715000D03*
X28645000Y-43715000D03*
X29915000Y-43715000D03*
X31185000Y-43715000D03*
X32455000Y-43715000D03*
X32455000Y-38765000D03*
X31185000Y-38765000D03*
X29915000Y-38765000D03*
X28645000Y-38765000D03*
X27375000Y-38765000D03*
X26105000Y-38765000D03*
X24835000Y-38765000D03*
X23565000Y-38765000D03*
G04 #@! TD*
D18*
G04 #@! TO.C,C42*
X23062500Y-33570000D03*
X24197500Y-33570000D03*
G04 #@! TD*
D17*
G04 #@! TO.C,C46*
X29670000Y-18332500D03*
X29670000Y-19467500D03*
G04 #@! TD*
D30*
G04 #@! TO.C,R12*
X34000000Y-45852500D03*
X34000000Y-44027500D03*
G04 #@! TD*
D21*
G04 #@! TO.C,R15*
X24360000Y-18187500D03*
X24360000Y-17052500D03*
G04 #@! TD*
D18*
G04 #@! TO.C,C31*
X23062500Y-32170000D03*
X24197500Y-32170000D03*
G04 #@! TD*
D17*
G04 #@! TO.C,C19*
X27040000Y-18332500D03*
X27040000Y-19467500D03*
G04 #@! TD*
G04 #@! TO.C,C2*
X28650000Y-35502500D03*
X28650000Y-36637500D03*
G04 #@! TD*
D31*
G04 #@! TO.C,R13*
X26957500Y-45830000D03*
X28782500Y-45830000D03*
G04 #@! TD*
D17*
G04 #@! TO.C,C13*
X45920000Y-34222500D03*
X45920000Y-35357500D03*
G04 #@! TD*
D16*
G04 #@! TO.C,R2*
X43376000Y-36240000D03*
X43376000Y-38065000D03*
G04 #@! TD*
D21*
G04 #@! TO.C,C7*
X69530000Y-15437500D03*
X69530000Y-14302500D03*
G04 #@! TD*
D18*
G04 #@! TO.C,C33*
X23092500Y-22590000D03*
X24227500Y-22590000D03*
G04 #@! TD*
D20*
G04 #@! TO.C,D1*
X67670000Y-43740000D03*
X65920000Y-43740000D03*
G04 #@! TD*
D17*
G04 #@! TO.C,C47*
X28380000Y-18322500D03*
X28380000Y-19457500D03*
G04 #@! TD*
G04 #@! TO.C,C23*
X33540000Y-18322500D03*
X33540000Y-19457500D03*
G04 #@! TD*
G04 #@! TO.C,C1*
X30000000Y-35502500D03*
X30000000Y-36637500D03*
G04 #@! TD*
D32*
G04 #@! TO.C,Y1*
X34700000Y-36890000D03*
X38400000Y-36890000D03*
G04 #@! TD*
D18*
G04 #@! TO.C,C27*
X67092500Y-27950000D03*
X68227500Y-27950000D03*
G04 #@! TD*
D21*
G04 #@! TO.C,R11*
X46560000Y-44967500D03*
X46560000Y-43832500D03*
G04 #@! TD*
D30*
G04 #@! TO.C,R1*
X41852000Y-38065000D03*
X41852000Y-36240000D03*
G04 #@! TD*
D26*
G04 #@! TO.C,C5*
X43568717Y-31401283D03*
X44371283Y-30598717D03*
G04 #@! TD*
D18*
G04 #@! TO.C,C49*
X47732500Y-41780000D03*
X48867500Y-41780000D03*
G04 #@! TD*
D21*
G04 #@! TO.C,C6*
X32700000Y-36647500D03*
X32700000Y-35512500D03*
G04 #@! TD*
D22*
G04 #@! TO.C,U7*
X60590000Y-45300000D03*
D23*
X60502500Y-43800000D03*
D22*
X60590000Y-42300000D03*
G04 #@! TD*
D18*
G04 #@! TO.C,C9*
X23072500Y-36420000D03*
X24207500Y-36420000D03*
G04 #@! TD*
D21*
G04 #@! TO.C,R8*
X46540000Y-42587500D03*
X46540000Y-41452500D03*
G04 #@! TD*
D33*
G04 #@! TO.C,J4*
X37240000Y-41970000D03*
X43020000Y-41970000D03*
D34*
X36880000Y-40525000D03*
X37680000Y-40525000D03*
D35*
X38880000Y-40222500D03*
X39880000Y-40222500D03*
X40380000Y-40222500D03*
X41380000Y-40222500D03*
D34*
X42580000Y-40525000D03*
X43380000Y-40525000D03*
D36*
X43380000Y-40222500D03*
X42580000Y-40222500D03*
D35*
X41880000Y-40222500D03*
X40880000Y-40222500D03*
X39380000Y-40222500D03*
X38380000Y-40222500D03*
D36*
X37680000Y-40222500D03*
X36880000Y-40222500D03*
D37*
X35810000Y-41440000D03*
D38*
X35810000Y-45620000D03*
D37*
X44450000Y-41440000D03*
D38*
X44450000Y-45620000D03*
G04 #@! TD*
D17*
G04 #@! TO.C,R20*
X45920000Y-36662500D03*
X45920000Y-37797500D03*
G04 #@! TD*
D31*
G04 #@! TO.C,R5*
X62407500Y-42012000D03*
X64232500Y-42012000D03*
G04 #@! TD*
D18*
G04 #@! TO.C,C16*
X23332500Y-45550000D03*
X24467500Y-45550000D03*
G04 #@! TD*
D17*
G04 #@! TO.C,R10*
X45970000Y-39022500D03*
X45970000Y-40157500D03*
G04 #@! TD*
G04 #@! TO.C,C34*
X37490000Y-18312500D03*
X37490000Y-19447500D03*
G04 #@! TD*
G04 #@! TO.C,R17*
X23070000Y-14682500D03*
X23070000Y-15817500D03*
G04 #@! TD*
D31*
G04 #@! TO.C,R6*
X62407500Y-45512000D03*
X64232500Y-45512000D03*
G04 #@! TD*
D18*
G04 #@! TO.C,C32*
X23112500Y-19890000D03*
X24247500Y-19890000D03*
G04 #@! TD*
G04 #@! TO.C,C20*
X23035000Y-29440000D03*
X24170000Y-29440000D03*
G04 #@! TD*
D17*
G04 #@! TO.C,R3*
X69530000Y-35692500D03*
X69530000Y-36827500D03*
G04 #@! TD*
D18*
G04 #@! TO.C,C36*
X23092500Y-35010000D03*
X24227500Y-35010000D03*
G04 #@! TD*
G04 #@! TO.C,C4*
X23065000Y-28080000D03*
X24200000Y-28080000D03*
G04 #@! TD*
G04 #@! TO.C,C44*
X23062500Y-23990000D03*
X24197500Y-23990000D03*
G04 #@! TD*
D31*
G04 #@! TO.C,R4*
X62414500Y-43740000D03*
X64239500Y-43740000D03*
G04 #@! TD*
D18*
G04 #@! TO.C,R16*
X24412500Y-15840000D03*
X25547500Y-15840000D03*
G04 #@! TD*
D17*
G04 #@! TO.C,R9*
X69530000Y-38092500D03*
X69530000Y-39227500D03*
G04 #@! TD*
M02*
