M48
; DRILL file {KiCad 7.0.5-0} date 2023 June 20, Tuesday 23:32:41
; FORMAT={-:-/ absolute / inch / decimal}
; #@! TF.CreationDate,2023-06-20T23:32:41+08:00
; #@! TF.GenerationSoftware,Kicad,Pcbnew,7.0.5-0
; #@! TF.FileFunction,Plated,1,4,PTH
FMAT,2
INCH
; #@! TA.AperFunction,Plated,PTH,ViaDrill
T1C0.0120
; #@! TA.AperFunction,Plated,PTH,ViaDrill
T2C0.0150
; #@! TA.AperFunction,Plated,PTH,ComponentDrill
T3C0.0236
; #@! TA.AperFunction,Plated,PTH,ComponentDrill
T4C0.0394
%
G90
G05
T1
X0.9429Y-2.9413
X0.9433Y-4.0937
X1.0433Y-3.0453
X1.0437Y-3.5528
X1.0484Y-4.0472
X1.0571Y-2.9543
X1.0602Y-3.5728
X1.0602Y-3.9094
X1.0969Y-3.4992
X1.114Y-3.5163
X1.1543Y-3.8425
X1.1547Y-3.8913
X1.165Y-3.1335
X1.1654Y-3.0823
X1.1654Y-3.1835
X1.1768Y-3.972
X1.1783Y-4.0091
X1.1933Y-3.8445
X1.1957Y-3.8906
X1.1965Y-3.9425
X1.2055Y-3.1843
X1.2067Y-3.1354
X1.224Y-3.9055
X1.2287Y-3.9626
X1.2291Y-4.0079
X1.2335Y-3.1083
X1.2673Y-3.581
X1.2728Y-2.9614
X1.2787Y-3.0673
X1.2803Y-3.961
X1.2815Y-3.1083
X1.2898Y-2.937
X1.2906Y-2.9846
X1.2949Y-4.0945
X1.2986Y-3.6127
X1.311Y-4.0697
X1.3114Y-4.1201
X1.3268Y-3.1083
X1.3291Y-3.4555
X1.3303Y-3.4865
X1.3602Y-3.4555
X1.3606Y-3.4858
X1.3921Y-3.4547
X1.3934Y-3.5808
X1.4224Y-3.8642
X1.4232Y-3.7701
X1.4235Y-3.8025
X1.424Y-3.1087
X1.424Y-3.2031
X1.424Y-3.8331
X1.426Y-3.0689
X1.439Y-3.6205
X1.4421Y-3.3449
X1.448Y-2.9555
X1.448Y-2.9996
X1.4492Y-3.5787
X1.4535Y-3.4579
X1.4539Y-3.7378
X1.4555Y-3.2031
X1.4583Y-3.5157
X1.4626Y-3.6371
X1.487Y-3.898
X1.4988Y-3.7118
X1.5161Y-3.1366
X1.5181Y-3.4228
X1.5183Y-3.612
X1.5296Y-3.3631
X1.5365Y-3.7029
X1.548Y-3.0701
X1.5487Y-3.2967
X1.5551Y-3.1098
X1.5709Y-3.3618
X1.5709Y-4.0524
X1.5724Y-3.7252
X1.5807Y-3.5177
X1.5811Y-3.6437
X1.5815Y-3.4228
X1.5815Y-3.5488
X1.5991Y-3.7273
X1.6039Y-3.0697
X1.6047Y-3.1083
X1.6114Y-2.939
X1.6116Y-3.5167
X1.6118Y-3.5492
X1.6118Y-3.6429
X1.6119Y-3.265
X1.6122Y-2.9791
X1.6126Y-3.6118
X1.6268Y-2.9579
X1.6433Y-3.6429
X1.6437Y-3.5478
X1.6441Y-3.6126
X1.6544Y-3.3349
X1.6696Y-3.7028
X1.6732Y-3.7311
X1.6752Y-3.2982
X1.6753Y-3.863
X1.6766Y-3.8008
X1.6933Y-3.1367
X1.6945Y-3.3742
X1.7059Y-3.421
X1.7063Y-3.4539
X1.7071Y-3.202
X1.7236Y-3.354
X1.7248Y-3.7295
X1.7292Y-3.3839
X1.737Y-3.5161
X1.7386Y-3.4547
X1.7386Y-3.5496
X1.7386Y-3.5807
X1.739Y-3.6114
X1.7392Y-3.2666
X1.7395Y-3.8637
X1.7516Y-3.726
X1.7539Y-3.6917
X1.7736Y-3.6098
X1.7772Y-3.6512
X1.7799Y-3.5118
X1.7799Y-3.5496
X1.7807Y-3.6862
X1.7819Y-4.0744
X1.7819Y-4.1181
X1.7836Y-3.7306
X1.784Y-3.3845
X1.798Y-3.5879
X1.798Y-3.624
X1.8012Y-3.1429
X1.8012Y-3.802
X1.8016Y-3.2343
X1.8016Y-3.265
X1.8017Y-3.2041
X1.802Y-4.0961
X1.8031Y-3.8337
X1.8083Y-3.65
X1.8091Y-3.4892
X1.8104Y-3.907
X1.8135Y-3.7198
X1.8228Y-3.3913
X1.8252Y-3.3459
X1.8268Y-3.1098
X1.8291Y-3.1654
X1.8323Y-3.927
X1.8336Y-3.8335
X1.8339Y-3.235
X1.8526Y-3.0703
X1.8641Y-3.3607
X1.8642Y-3.5177
X1.8646Y-3.5799
X1.8655Y-3.7071
X1.8945Y-3.0567
X1.8946Y-3.3888
X1.8955Y-3.4545
X1.8961Y-3.235
X1.8961Y-3.3602
X1.897Y-3.5496
X1.9029Y-3.1533
X1.9069Y-2.9947
X1.9134Y-3.0752
X1.9276Y-3.2343
X1.9287Y-3.2972
X1.9401Y-3.1402
X1.9507Y-3.0058
X1.9894Y-2.9047
X1.9957Y-3.4315
X2.0Y-3.8453
X2.0012Y-2.9881
X2.0177Y-3.0854
X2.0232Y-3.1638
X2.0294Y-3.3993
X2.0473Y-3.1639
X2.0476Y-4.0366
X2.0512Y-3.4098
X2.0571Y-3.085
X2.0579Y-3.9319
X2.091Y-2.9062
X2.0929Y-3.4181
X2.111Y-2.9862
X2.1187Y-3.925
X2.1358Y-3.3878
X2.137Y-3.4189
X2.1437Y-2.987
X2.1461Y-4.122
X2.1524Y-3.9854
X2.1598Y-3.9232
X2.1878Y-3.0837
X2.2044Y-3.0664
X2.2189Y-2.9921
X2.224Y-3.4906
X2.2272Y-3.2251
X2.2543Y-3.4906
X2.2567Y-2.9028
X2.2803Y-3.2701
X2.2882Y-3.9881
X2.3425Y-3.4878
X2.3596Y-3.9785
X2.3697Y-3.9417
X2.3724Y-3.0031
X2.3744Y-3.8217
X2.3879Y-3.6076
X2.4134Y-3.6074
X2.435Y-4.0394
X2.4532Y-3.7107
X2.458Y-3.9595
X2.4583Y-3.3413
X2.4783Y-3.7697
X2.4787Y-3.4371
X2.4831Y-3.002
X2.4854Y-2.9012
X2.4965Y-3.7878
X2.4969Y-3.4878
X2.5022Y-3.7621
X2.511Y-3.9362
X2.5206Y-3.7954
X2.5209Y-3.4877
X2.5217Y-3.748
X2.5268Y-3.3272
X2.5295Y-3.5283
X2.5404Y-4.0497
X2.5656Y-3.3127
X2.5664Y-3.5331
X2.5945Y-3.9327
X2.5972Y-3.7226
X2.5973Y-3.5954
X2.6142Y-3.8354
X2.6282Y-3.6906
X2.6323Y-4.0472
X2.6331Y-3.0024
X2.6402Y-3.4887
X2.6472Y-3.8319
X2.6524Y-3.9583
X2.6669Y-3.6492
X2.667Y-3.5707
X2.6871Y-3.4614
X2.6909Y-3.5602
X2.7051Y-2.9567
X2.7193Y-4.039
X2.7217Y-3.9681
X2.7343Y-3.9008
X2.7372Y-3.7878
X2.739Y-3.2634
X2.7502Y-3.3786
X2.7542Y-3.6895
X2.7546Y-3.7214
X2.7547Y-3.312
X2.7547Y-3.3435
X2.7552Y-3.4387
X2.7556Y-3.6271
X2.7614Y-3.2327
X2.765Y-3.8425
X2.7654Y-3.8083
X2.784Y-3.4687
X2.7848Y-3.7513
X2.7862Y-3.3122
X2.7863Y-3.7205
X2.7864Y-3.4083
X2.7865Y-3.6903
X2.7884Y-3.1998
X2.7909Y-3.8047
X2.7945Y-3.8713
X2.8169Y-3.2717
X2.8197Y-3.4701
X2.8197Y-3.529
X2.822Y-3.917
X2.8256Y-3.9519
X2.8276Y-3.5878
X2.8291Y-3.6169
X2.854Y-3.4744
X2.854Y-3.5078
X2.8543Y-3.7965
X2.8647Y-3.6424
T2
X0.961Y-3.8634
X1.0252Y-3.9634
X1.0799Y-3.828
X1.087Y-3.1874
X1.0878Y-4.1126
X1.1087Y-3.4559
X1.1201Y-2.9024
X1.1264Y-2.9457
X1.1273Y-2.9846
X1.1327Y-4.15
X1.1406Y-4.0791
X1.1476Y-4.1079
X1.2437Y-3.6461
X1.3717Y-4.0949
X1.5299Y-4.0489
X1.778Y-2.9622
X1.789Y-2.9898
X1.7957Y-2.9362
X1.7984Y-3.9575
X1.8228Y-2.9508
X1.8449Y-3.9575
X1.9421Y-4.1126
X1.9483Y-4.0803
X1.9591Y-4.1504
X2.002Y-4.1114
X2.0441Y-4.1157
X2.1437Y-2.9031
X2.2079Y-4.1295
X2.3181Y-2.9683
X2.3764Y-2.9075
X2.5492Y-2.9671
X2.6083Y-2.9059
T4
X2.8268Y-2.9335
X2.8268Y-3.0335
X2.8268Y-3.1335
T3
G00X0.978Y-3.3587
M15
G01X0.9543Y-3.3587
M16
G05
G00X0.978Y-3.6988
M15
G01X0.9543Y-3.6988
M16
G05
G00X1.1524Y-3.3587
M15
G01X1.1091Y-3.3587
M16
G05
G00X1.1524Y-3.6988
M15
G01X1.1091Y-3.6988
M16
G05
T0
M30
