G04 #@! TF.GenerationSoftware,KiCad,Pcbnew,7.0.5-0*
G04 #@! TF.CreationDate,2023-07-21T18:28:43+08:00*
G04 #@! TF.ProjectId,slimarm_hypericum,736c696d-6172-46d5-9f68-797065726963,rev?*
G04 #@! TF.SameCoordinates,Original*
G04 #@! TF.FileFunction,Legend,Bot*
G04 #@! TF.FilePolarity,Positive*
%FSLAX46Y46*%
G04 Gerber Fmt 4.6, Leading zero omitted, Abs format (unit mm)*
G04 Created by KiCad (PCBNEW 7.0.5-0) date 2023-07-21 18:28:43*
%MOMM*%
%LPD*%
G01*
G04 APERTURE LIST*
%ADD10C,0.150000*%
%ADD11C,0.177800*%
%ADD12C,0.254000*%
%ADD13C,0.203200*%
%ADD14C,0.120000*%
G04 APERTURE END LIST*
D10*
X44400868Y-99570000D02*
G75*
G03*
X44400868Y-99570000I-230868J0D01*
G01*
D11*
X44581428Y-98866984D02*
X44472571Y-98903269D01*
X44472571Y-98903269D02*
X44291142Y-98903269D01*
X44291142Y-98903269D02*
X44218571Y-98866984D01*
X44218571Y-98866984D02*
X44182285Y-98830698D01*
X44182285Y-98830698D02*
X44145999Y-98758126D01*
X44145999Y-98758126D02*
X44145999Y-98685555D01*
X44145999Y-98685555D02*
X44182285Y-98612984D01*
X44182285Y-98612984D02*
X44218571Y-98576698D01*
X44218571Y-98576698D02*
X44291142Y-98540412D01*
X44291142Y-98540412D02*
X44436285Y-98504126D01*
X44436285Y-98504126D02*
X44508856Y-98467841D01*
X44508856Y-98467841D02*
X44545142Y-98431555D01*
X44545142Y-98431555D02*
X44581428Y-98358984D01*
X44581428Y-98358984D02*
X44581428Y-98286412D01*
X44581428Y-98286412D02*
X44545142Y-98213841D01*
X44545142Y-98213841D02*
X44508856Y-98177555D01*
X44508856Y-98177555D02*
X44436285Y-98141269D01*
X44436285Y-98141269D02*
X44254856Y-98141269D01*
X44254856Y-98141269D02*
X44145999Y-98177555D01*
X43710571Y-98903269D02*
X43783142Y-98866984D01*
X43783142Y-98866984D02*
X43819428Y-98794412D01*
X43819428Y-98794412D02*
X43819428Y-98141269D01*
X43420285Y-98903269D02*
X43420285Y-98395269D01*
X43420285Y-98141269D02*
X43456571Y-98177555D01*
X43456571Y-98177555D02*
X43420285Y-98213841D01*
X43420285Y-98213841D02*
X43383999Y-98177555D01*
X43383999Y-98177555D02*
X43420285Y-98141269D01*
X43420285Y-98141269D02*
X43420285Y-98213841D01*
X43057428Y-98903269D02*
X43057428Y-98395269D01*
X43057428Y-98467841D02*
X43021142Y-98431555D01*
X43021142Y-98431555D02*
X42948571Y-98395269D01*
X42948571Y-98395269D02*
X42839714Y-98395269D01*
X42839714Y-98395269D02*
X42767142Y-98431555D01*
X42767142Y-98431555D02*
X42730857Y-98504126D01*
X42730857Y-98504126D02*
X42730857Y-98903269D01*
X42730857Y-98504126D02*
X42694571Y-98431555D01*
X42694571Y-98431555D02*
X42621999Y-98395269D01*
X42621999Y-98395269D02*
X42513142Y-98395269D01*
X42513142Y-98395269D02*
X42440571Y-98431555D01*
X42440571Y-98431555D02*
X42404285Y-98504126D01*
X42404285Y-98504126D02*
X42404285Y-98903269D01*
X42077714Y-98685555D02*
X41714857Y-98685555D01*
X42150285Y-98903269D02*
X41896285Y-98141269D01*
X41896285Y-98141269D02*
X41642285Y-98903269D01*
X40952856Y-98903269D02*
X41206856Y-98540412D01*
X41388285Y-98903269D02*
X41388285Y-98141269D01*
X41388285Y-98141269D02*
X41097999Y-98141269D01*
X41097999Y-98141269D02*
X41025428Y-98177555D01*
X41025428Y-98177555D02*
X40989142Y-98213841D01*
X40989142Y-98213841D02*
X40952856Y-98286412D01*
X40952856Y-98286412D02*
X40952856Y-98395269D01*
X40952856Y-98395269D02*
X40989142Y-98467841D01*
X40989142Y-98467841D02*
X41025428Y-98504126D01*
X41025428Y-98504126D02*
X41097999Y-98540412D01*
X41097999Y-98540412D02*
X41388285Y-98540412D01*
X40626285Y-98903269D02*
X40626285Y-98141269D01*
X40626285Y-98141269D02*
X40372285Y-98685555D01*
X40372285Y-98685555D02*
X40118285Y-98141269D01*
X40118285Y-98141269D02*
X40118285Y-98903269D01*
X39174857Y-98504126D02*
X38920857Y-98504126D01*
X38812000Y-98903269D02*
X39174857Y-98903269D01*
X39174857Y-98903269D02*
X39174857Y-98141269D01*
X39174857Y-98141269D02*
X38812000Y-98141269D01*
X38557999Y-98903269D02*
X38158857Y-98395269D01*
X38557999Y-98395269D02*
X38158857Y-98903269D01*
X37977428Y-98395269D02*
X37687142Y-98395269D01*
X37868571Y-98141269D02*
X37868571Y-98794412D01*
X37868571Y-98794412D02*
X37832285Y-98866984D01*
X37832285Y-98866984D02*
X37759714Y-98903269D01*
X37759714Y-98903269D02*
X37687142Y-98903269D01*
X37433142Y-98903269D02*
X37433142Y-98141269D01*
X36925142Y-98141269D02*
X36779999Y-98141269D01*
X36779999Y-98141269D02*
X36707428Y-98177555D01*
X36707428Y-98177555D02*
X36634856Y-98250126D01*
X36634856Y-98250126D02*
X36598571Y-98395269D01*
X36598571Y-98395269D02*
X36598571Y-98649269D01*
X36598571Y-98649269D02*
X36634856Y-98794412D01*
X36634856Y-98794412D02*
X36707428Y-98866984D01*
X36707428Y-98866984D02*
X36779999Y-98903269D01*
X36779999Y-98903269D02*
X36925142Y-98903269D01*
X36925142Y-98903269D02*
X36997714Y-98866984D01*
X36997714Y-98866984D02*
X37070285Y-98794412D01*
X37070285Y-98794412D02*
X37106571Y-98649269D01*
X37106571Y-98649269D02*
X37106571Y-98395269D01*
X37106571Y-98395269D02*
X37070285Y-98250126D01*
X37070285Y-98250126D02*
X36997714Y-98177555D01*
X36997714Y-98177555D02*
X36925142Y-98141269D01*
D12*
X72000000Y-93335000D02*
X72000000Y-101445000D01*
D13*
X71083458Y-95096004D02*
X71083458Y-93572004D01*
X71083458Y-94297718D02*
X70212601Y-94297718D01*
X70212601Y-95096004D02*
X70212601Y-93572004D01*
X69632030Y-94080004D02*
X69269173Y-95096004D01*
X68906316Y-94080004D02*
X69269173Y-95096004D01*
X69269173Y-95096004D02*
X69414316Y-95458861D01*
X69414316Y-95458861D02*
X69486887Y-95531433D01*
X69486887Y-95531433D02*
X69632030Y-95604004D01*
X68325744Y-94080004D02*
X68325744Y-95604004D01*
X68325744Y-94152575D02*
X68180602Y-94080004D01*
X68180602Y-94080004D02*
X67890316Y-94080004D01*
X67890316Y-94080004D02*
X67745173Y-94152575D01*
X67745173Y-94152575D02*
X67672602Y-94225147D01*
X67672602Y-94225147D02*
X67600030Y-94370290D01*
X67600030Y-94370290D02*
X67600030Y-94805718D01*
X67600030Y-94805718D02*
X67672602Y-94950861D01*
X67672602Y-94950861D02*
X67745173Y-95023433D01*
X67745173Y-95023433D02*
X67890316Y-95096004D01*
X67890316Y-95096004D02*
X68180602Y-95096004D01*
X68180602Y-95096004D02*
X68325744Y-95023433D01*
X66366316Y-95023433D02*
X66511459Y-95096004D01*
X66511459Y-95096004D02*
X66801745Y-95096004D01*
X66801745Y-95096004D02*
X66946887Y-95023433D01*
X66946887Y-95023433D02*
X67019459Y-94878290D01*
X67019459Y-94878290D02*
X67019459Y-94297718D01*
X67019459Y-94297718D02*
X66946887Y-94152575D01*
X66946887Y-94152575D02*
X66801745Y-94080004D01*
X66801745Y-94080004D02*
X66511459Y-94080004D01*
X66511459Y-94080004D02*
X66366316Y-94152575D01*
X66366316Y-94152575D02*
X66293745Y-94297718D01*
X66293745Y-94297718D02*
X66293745Y-94442861D01*
X66293745Y-94442861D02*
X67019459Y-94588004D01*
X65640601Y-95096004D02*
X65640601Y-94080004D01*
X65640601Y-94370290D02*
X65568030Y-94225147D01*
X65568030Y-94225147D02*
X65495459Y-94152575D01*
X65495459Y-94152575D02*
X65350316Y-94080004D01*
X65350316Y-94080004D02*
X65205173Y-94080004D01*
X64697172Y-95096004D02*
X64697172Y-94080004D01*
X64697172Y-93572004D02*
X64769744Y-93644575D01*
X64769744Y-93644575D02*
X64697172Y-93717147D01*
X64697172Y-93717147D02*
X64624601Y-93644575D01*
X64624601Y-93644575D02*
X64697172Y-93572004D01*
X64697172Y-93572004D02*
X64697172Y-93717147D01*
X63318316Y-95023433D02*
X63463458Y-95096004D01*
X63463458Y-95096004D02*
X63753744Y-95096004D01*
X63753744Y-95096004D02*
X63898887Y-95023433D01*
X63898887Y-95023433D02*
X63971458Y-94950861D01*
X63971458Y-94950861D02*
X64044030Y-94805718D01*
X64044030Y-94805718D02*
X64044030Y-94370290D01*
X64044030Y-94370290D02*
X63971458Y-94225147D01*
X63971458Y-94225147D02*
X63898887Y-94152575D01*
X63898887Y-94152575D02*
X63753744Y-94080004D01*
X63753744Y-94080004D02*
X63463458Y-94080004D01*
X63463458Y-94080004D02*
X63318316Y-94152575D01*
X62012030Y-94080004D02*
X62012030Y-95096004D01*
X62665172Y-94080004D02*
X62665172Y-94878290D01*
X62665172Y-94878290D02*
X62592601Y-95023433D01*
X62592601Y-95023433D02*
X62447458Y-95096004D01*
X62447458Y-95096004D02*
X62229744Y-95096004D01*
X62229744Y-95096004D02*
X62084601Y-95023433D01*
X62084601Y-95023433D02*
X62012030Y-94950861D01*
X61286315Y-95096004D02*
X61286315Y-94080004D01*
X61286315Y-94225147D02*
X61213744Y-94152575D01*
X61213744Y-94152575D02*
X61068601Y-94080004D01*
X61068601Y-94080004D02*
X60850887Y-94080004D01*
X60850887Y-94080004D02*
X60705744Y-94152575D01*
X60705744Y-94152575D02*
X60633173Y-94297718D01*
X60633173Y-94297718D02*
X60633173Y-95096004D01*
X60633173Y-94297718D02*
X60560601Y-94152575D01*
X60560601Y-94152575D02*
X60415458Y-94080004D01*
X60415458Y-94080004D02*
X60197744Y-94080004D01*
X60197744Y-94080004D02*
X60052601Y-94152575D01*
X60052601Y-94152575D02*
X59980030Y-94297718D01*
X59980030Y-94297718D02*
X59980030Y-95096004D01*
X59254315Y-94515433D02*
X58093173Y-94515433D01*
X56496601Y-95096004D02*
X57004601Y-94370290D01*
X57367458Y-95096004D02*
X57367458Y-93572004D01*
X57367458Y-93572004D02*
X56786887Y-93572004D01*
X56786887Y-93572004D02*
X56641744Y-93644575D01*
X56641744Y-93644575D02*
X56569173Y-93717147D01*
X56569173Y-93717147D02*
X56496601Y-93862290D01*
X56496601Y-93862290D02*
X56496601Y-94080004D01*
X56496601Y-94080004D02*
X56569173Y-94225147D01*
X56569173Y-94225147D02*
X56641744Y-94297718D01*
X56641744Y-94297718D02*
X56786887Y-94370290D01*
X56786887Y-94370290D02*
X57367458Y-94370290D01*
X54827458Y-94080004D02*
X54464601Y-95096004D01*
X54464601Y-95096004D02*
X54101744Y-94080004D01*
X52722887Y-95096004D02*
X53593744Y-95096004D01*
X53158315Y-95096004D02*
X53158315Y-93572004D01*
X53158315Y-93572004D02*
X53303458Y-93789718D01*
X53303458Y-93789718D02*
X53448601Y-93934861D01*
X53448601Y-93934861D02*
X53593744Y-94007433D01*
X52069743Y-95096004D02*
X52069743Y-94080004D01*
X52069743Y-94370290D02*
X51997172Y-94225147D01*
X51997172Y-94225147D02*
X51924601Y-94152575D01*
X51924601Y-94152575D02*
X51779458Y-94080004D01*
X51779458Y-94080004D02*
X51634315Y-94080004D01*
X50328029Y-95096004D02*
X51198886Y-95096004D01*
X50763457Y-95096004D02*
X50763457Y-93572004D01*
X50763457Y-93572004D02*
X50908600Y-93789718D01*
X50908600Y-93789718D02*
X51053743Y-93934861D01*
X51053743Y-93934861D02*
X51198886Y-94007433D01*
X49820028Y-95096004D02*
X49021743Y-94080004D01*
X49820028Y-94080004D02*
X49021743Y-95096004D01*
X48513743Y-93717147D02*
X48441171Y-93644575D01*
X48441171Y-93644575D02*
X48296029Y-93572004D01*
X48296029Y-93572004D02*
X47933171Y-93572004D01*
X47933171Y-93572004D02*
X47788029Y-93644575D01*
X47788029Y-93644575D02*
X47715457Y-93717147D01*
X47715457Y-93717147D02*
X47642886Y-93862290D01*
X47642886Y-93862290D02*
X47642886Y-94007433D01*
X47642886Y-94007433D02*
X47715457Y-94225147D01*
X47715457Y-94225147D02*
X48586314Y-95096004D01*
X48586314Y-95096004D02*
X47642886Y-95096004D01*
X46336600Y-95096004D02*
X46336600Y-93572004D01*
X46336600Y-95023433D02*
X46481742Y-95096004D01*
X46481742Y-95096004D02*
X46772028Y-95096004D01*
X46772028Y-95096004D02*
X46917171Y-95023433D01*
X46917171Y-95023433D02*
X46989742Y-94950861D01*
X46989742Y-94950861D02*
X47062314Y-94805718D01*
X47062314Y-94805718D02*
X47062314Y-94370290D01*
X47062314Y-94370290D02*
X46989742Y-94225147D01*
X46989742Y-94225147D02*
X46917171Y-94152575D01*
X46917171Y-94152575D02*
X46772028Y-94080004D01*
X46772028Y-94080004D02*
X46481742Y-94080004D01*
X46481742Y-94080004D02*
X46336600Y-94152575D01*
X44812600Y-95096004D02*
X45683457Y-95096004D01*
X45248028Y-95096004D02*
X45248028Y-93572004D01*
X45248028Y-93572004D02*
X45393171Y-93789718D01*
X45393171Y-93789718D02*
X45538314Y-93934861D01*
X45538314Y-93934861D02*
X45683457Y-94007433D01*
X71156030Y-97114215D02*
X70430316Y-97114215D01*
X71301173Y-97549644D02*
X70793173Y-96025644D01*
X70793173Y-96025644D02*
X70285173Y-97549644D01*
X69559458Y-97549644D02*
X69704601Y-97477073D01*
X69704601Y-97477073D02*
X69777172Y-97331930D01*
X69777172Y-97331930D02*
X69777172Y-96025644D01*
X68761172Y-97549644D02*
X68906315Y-97477073D01*
X68906315Y-97477073D02*
X68978886Y-97331930D01*
X68978886Y-97331930D02*
X68978886Y-96025644D01*
X68325743Y-96533644D02*
X68035458Y-97549644D01*
X68035458Y-97549644D02*
X67745172Y-96823930D01*
X67745172Y-96823930D02*
X67454886Y-97549644D01*
X67454886Y-97549644D02*
X67164600Y-96533644D01*
X66584029Y-97549644D02*
X66584029Y-96533644D01*
X66584029Y-96025644D02*
X66656601Y-96098215D01*
X66656601Y-96098215D02*
X66584029Y-96170787D01*
X66584029Y-96170787D02*
X66511458Y-96098215D01*
X66511458Y-96098215D02*
X66584029Y-96025644D01*
X66584029Y-96025644D02*
X66584029Y-96170787D01*
X65858315Y-96533644D02*
X65858315Y-97549644D01*
X65858315Y-96678787D02*
X65785744Y-96606215D01*
X65785744Y-96606215D02*
X65640601Y-96533644D01*
X65640601Y-96533644D02*
X65422887Y-96533644D01*
X65422887Y-96533644D02*
X65277744Y-96606215D01*
X65277744Y-96606215D02*
X65205173Y-96751358D01*
X65205173Y-96751358D02*
X65205173Y-97549644D01*
X64479458Y-96533644D02*
X64479458Y-97549644D01*
X64479458Y-96678787D02*
X64406887Y-96606215D01*
X64406887Y-96606215D02*
X64261744Y-96533644D01*
X64261744Y-96533644D02*
X64044030Y-96533644D01*
X64044030Y-96533644D02*
X63898887Y-96606215D01*
X63898887Y-96606215D02*
X63826316Y-96751358D01*
X63826316Y-96751358D02*
X63826316Y-97549644D01*
X62520030Y-97477073D02*
X62665173Y-97549644D01*
X62665173Y-97549644D02*
X62955459Y-97549644D01*
X62955459Y-97549644D02*
X63100601Y-97477073D01*
X63100601Y-97477073D02*
X63173173Y-97331930D01*
X63173173Y-97331930D02*
X63173173Y-96751358D01*
X63173173Y-96751358D02*
X63100601Y-96606215D01*
X63100601Y-96606215D02*
X62955459Y-96533644D01*
X62955459Y-96533644D02*
X62665173Y-96533644D01*
X62665173Y-96533644D02*
X62520030Y-96606215D01*
X62520030Y-96606215D02*
X62447459Y-96751358D01*
X62447459Y-96751358D02*
X62447459Y-96896501D01*
X62447459Y-96896501D02*
X63173173Y-97041644D01*
X61794315Y-97549644D02*
X61794315Y-96533644D01*
X61794315Y-96823930D02*
X61721744Y-96678787D01*
X61721744Y-96678787D02*
X61649173Y-96606215D01*
X61649173Y-96606215D02*
X61504030Y-96533644D01*
X61504030Y-96533644D02*
X61358887Y-96533644D01*
X60850886Y-96969073D02*
X59689744Y-96969073D01*
X59036601Y-97114215D02*
X58310887Y-97114215D01*
X59181744Y-97549644D02*
X58673744Y-96025644D01*
X58673744Y-96025644D02*
X58165744Y-97549644D01*
X57730315Y-96170787D02*
X57657743Y-96098215D01*
X57657743Y-96098215D02*
X57512601Y-96025644D01*
X57512601Y-96025644D02*
X57149743Y-96025644D01*
X57149743Y-96025644D02*
X57004601Y-96098215D01*
X57004601Y-96098215D02*
X56932029Y-96170787D01*
X56932029Y-96170787D02*
X56859458Y-96315930D01*
X56859458Y-96315930D02*
X56859458Y-96461073D01*
X56859458Y-96461073D02*
X56932029Y-96678787D01*
X56932029Y-96678787D02*
X57802886Y-97549644D01*
X57802886Y-97549644D02*
X56859458Y-97549644D01*
X55916029Y-96025644D02*
X55770886Y-96025644D01*
X55770886Y-96025644D02*
X55625743Y-96098215D01*
X55625743Y-96098215D02*
X55553172Y-96170787D01*
X55553172Y-96170787D02*
X55480600Y-96315930D01*
X55480600Y-96315930D02*
X55408029Y-96606215D01*
X55408029Y-96606215D02*
X55408029Y-96969073D01*
X55408029Y-96969073D02*
X55480600Y-97259358D01*
X55480600Y-97259358D02*
X55553172Y-97404501D01*
X55553172Y-97404501D02*
X55625743Y-97477073D01*
X55625743Y-97477073D02*
X55770886Y-97549644D01*
X55770886Y-97549644D02*
X55916029Y-97549644D01*
X55916029Y-97549644D02*
X56061172Y-97477073D01*
X56061172Y-97477073D02*
X56133743Y-97404501D01*
X56133743Y-97404501D02*
X56206314Y-97259358D01*
X56206314Y-97259358D02*
X56278886Y-96969073D01*
X56278886Y-96969073D02*
X56278886Y-96606215D01*
X56278886Y-96606215D02*
X56206314Y-96315930D01*
X56206314Y-96315930D02*
X56133743Y-96170787D01*
X56133743Y-96170787D02*
X56061172Y-96098215D01*
X56061172Y-96098215D02*
X55916029Y-96025644D01*
X53811457Y-96823930D02*
X53884028Y-96751358D01*
X53884028Y-96751358D02*
X54029171Y-96678787D01*
X54029171Y-96678787D02*
X54174314Y-96678787D01*
X54174314Y-96678787D02*
X54319457Y-96751358D01*
X54319457Y-96751358D02*
X54392028Y-96823930D01*
X54392028Y-96823930D02*
X54464600Y-96969073D01*
X54464600Y-96969073D02*
X54464600Y-97114215D01*
X54464600Y-97114215D02*
X54392028Y-97259358D01*
X54392028Y-97259358D02*
X54319457Y-97331930D01*
X54319457Y-97331930D02*
X54174314Y-97404501D01*
X54174314Y-97404501D02*
X54029171Y-97404501D01*
X54029171Y-97404501D02*
X53884028Y-97331930D01*
X53884028Y-97331930D02*
X53811457Y-97259358D01*
X53811457Y-96678787D02*
X53811457Y-97259358D01*
X53811457Y-97259358D02*
X53738885Y-97331930D01*
X53738885Y-97331930D02*
X53666314Y-97331930D01*
X53666314Y-97331930D02*
X53521171Y-97259358D01*
X53521171Y-97259358D02*
X53448600Y-97114215D01*
X53448600Y-97114215D02*
X53448600Y-96751358D01*
X53448600Y-96751358D02*
X53593743Y-96533644D01*
X53593743Y-96533644D02*
X53811457Y-96388501D01*
X53811457Y-96388501D02*
X54101743Y-96315930D01*
X54101743Y-96315930D02*
X54392028Y-96388501D01*
X54392028Y-96388501D02*
X54609743Y-96533644D01*
X54609743Y-96533644D02*
X54754885Y-96751358D01*
X54754885Y-96751358D02*
X54827457Y-97041644D01*
X54827457Y-97041644D02*
X54754885Y-97331930D01*
X54754885Y-97331930D02*
X54609743Y-97549644D01*
X54609743Y-97549644D02*
X54392028Y-97694787D01*
X54392028Y-97694787D02*
X54101743Y-97767358D01*
X54101743Y-97767358D02*
X53811457Y-97694787D01*
X53811457Y-97694787D02*
X53593743Y-97549644D01*
X51997171Y-97549644D02*
X52868028Y-97549644D01*
X52432599Y-97549644D02*
X52432599Y-96025644D01*
X52432599Y-96025644D02*
X52577742Y-96243358D01*
X52577742Y-96243358D02*
X52722885Y-96388501D01*
X52722885Y-96388501D02*
X52868028Y-96461073D01*
X51344027Y-97404501D02*
X51271456Y-97477073D01*
X51271456Y-97477073D02*
X51344027Y-97549644D01*
X51344027Y-97549644D02*
X51416599Y-97477073D01*
X51416599Y-97477073D02*
X51344027Y-97404501D01*
X51344027Y-97404501D02*
X51344027Y-97549644D01*
X50690885Y-96170787D02*
X50618313Y-96098215D01*
X50618313Y-96098215D02*
X50473171Y-96025644D01*
X50473171Y-96025644D02*
X50110313Y-96025644D01*
X50110313Y-96025644D02*
X49965171Y-96098215D01*
X49965171Y-96098215D02*
X49892599Y-96170787D01*
X49892599Y-96170787D02*
X49820028Y-96315930D01*
X49820028Y-96315930D02*
X49820028Y-96461073D01*
X49820028Y-96461073D02*
X49892599Y-96678787D01*
X49892599Y-96678787D02*
X50763456Y-97549644D01*
X50763456Y-97549644D02*
X49820028Y-97549644D01*
X48368599Y-96098215D02*
X48513742Y-96025644D01*
X48513742Y-96025644D02*
X48731456Y-96025644D01*
X48731456Y-96025644D02*
X48949170Y-96098215D01*
X48949170Y-96098215D02*
X49094313Y-96243358D01*
X49094313Y-96243358D02*
X49166884Y-96388501D01*
X49166884Y-96388501D02*
X49239456Y-96678787D01*
X49239456Y-96678787D02*
X49239456Y-96896501D01*
X49239456Y-96896501D02*
X49166884Y-97186787D01*
X49166884Y-97186787D02*
X49094313Y-97331930D01*
X49094313Y-97331930D02*
X48949170Y-97477073D01*
X48949170Y-97477073D02*
X48731456Y-97549644D01*
X48731456Y-97549644D02*
X48586313Y-97549644D01*
X48586313Y-97549644D02*
X48368599Y-97477073D01*
X48368599Y-97477073D02*
X48296027Y-97404501D01*
X48296027Y-97404501D02*
X48296027Y-96896501D01*
X48296027Y-96896501D02*
X48586313Y-96896501D01*
X47642884Y-97549644D02*
X47642884Y-96025644D01*
X47642884Y-96751358D02*
X46772027Y-96751358D01*
X46772027Y-97549644D02*
X46772027Y-96025644D01*
X46191456Y-96533644D02*
X45393171Y-96533644D01*
X45393171Y-96533644D02*
X46191456Y-97549644D01*
X46191456Y-97549644D02*
X45393171Y-97549644D01*
X70430316Y-98987284D02*
X70430316Y-100220998D01*
X70430316Y-100220998D02*
X70502887Y-100366141D01*
X70502887Y-100366141D02*
X70575458Y-100438713D01*
X70575458Y-100438713D02*
X70720601Y-100511284D01*
X70720601Y-100511284D02*
X70938316Y-100511284D01*
X70938316Y-100511284D02*
X71083458Y-100438713D01*
X70430316Y-99930713D02*
X70575458Y-100003284D01*
X70575458Y-100003284D02*
X70865744Y-100003284D01*
X70865744Y-100003284D02*
X71010887Y-99930713D01*
X71010887Y-99930713D02*
X71083458Y-99858141D01*
X71083458Y-99858141D02*
X71156030Y-99712998D01*
X71156030Y-99712998D02*
X71156030Y-99277570D01*
X71156030Y-99277570D02*
X71083458Y-99132427D01*
X71083458Y-99132427D02*
X71010887Y-99059855D01*
X71010887Y-99059855D02*
X70865744Y-98987284D01*
X70865744Y-98987284D02*
X70575458Y-98987284D01*
X70575458Y-98987284D02*
X70430316Y-99059855D01*
X69704601Y-100003284D02*
X69704601Y-98987284D01*
X69704601Y-98479284D02*
X69777173Y-98551855D01*
X69777173Y-98551855D02*
X69704601Y-98624427D01*
X69704601Y-98624427D02*
X69632030Y-98551855D01*
X69632030Y-98551855D02*
X69704601Y-98479284D01*
X69704601Y-98479284D02*
X69704601Y-98624427D01*
X69196602Y-98987284D02*
X68616030Y-98987284D01*
X68978887Y-98479284D02*
X68978887Y-99785570D01*
X68978887Y-99785570D02*
X68906316Y-99930713D01*
X68906316Y-99930713D02*
X68761173Y-100003284D01*
X68761173Y-100003284D02*
X68616030Y-100003284D01*
X68108030Y-100003284D02*
X68108030Y-98479284D01*
X67454888Y-100003284D02*
X67454888Y-99204998D01*
X67454888Y-99204998D02*
X67527459Y-99059855D01*
X67527459Y-99059855D02*
X67672602Y-98987284D01*
X67672602Y-98987284D02*
X67890316Y-98987284D01*
X67890316Y-98987284D02*
X68035459Y-99059855D01*
X68035459Y-99059855D02*
X68108030Y-99132427D01*
X66076031Y-98987284D02*
X66076031Y-100003284D01*
X66729173Y-98987284D02*
X66729173Y-99785570D01*
X66729173Y-99785570D02*
X66656602Y-99930713D01*
X66656602Y-99930713D02*
X66511459Y-100003284D01*
X66511459Y-100003284D02*
X66293745Y-100003284D01*
X66293745Y-100003284D02*
X66148602Y-99930713D01*
X66148602Y-99930713D02*
X66076031Y-99858141D01*
X65350316Y-100003284D02*
X65350316Y-98479284D01*
X65350316Y-99059855D02*
X65205174Y-98987284D01*
X65205174Y-98987284D02*
X64914888Y-98987284D01*
X64914888Y-98987284D02*
X64769745Y-99059855D01*
X64769745Y-99059855D02*
X64697174Y-99132427D01*
X64697174Y-99132427D02*
X64624602Y-99277570D01*
X64624602Y-99277570D02*
X64624602Y-99712998D01*
X64624602Y-99712998D02*
X64697174Y-99858141D01*
X64697174Y-99858141D02*
X64769745Y-99930713D01*
X64769745Y-99930713D02*
X64914888Y-100003284D01*
X64914888Y-100003284D02*
X65205174Y-100003284D01*
X65205174Y-100003284D02*
X65350316Y-99930713D01*
X63971459Y-99858141D02*
X63898888Y-99930713D01*
X63898888Y-99930713D02*
X63971459Y-100003284D01*
X63971459Y-100003284D02*
X64044031Y-99930713D01*
X64044031Y-99930713D02*
X63971459Y-99858141D01*
X63971459Y-99858141D02*
X63971459Y-100003284D01*
X63971459Y-99059855D02*
X63898888Y-99132427D01*
X63898888Y-99132427D02*
X63971459Y-99204998D01*
X63971459Y-99204998D02*
X64044031Y-99132427D01*
X64044031Y-99132427D02*
X63971459Y-99059855D01*
X63971459Y-99059855D02*
X63971459Y-99204998D01*
X62084602Y-98987284D02*
X62084602Y-100293570D01*
X62084602Y-100293570D02*
X62157174Y-100438713D01*
X62157174Y-100438713D02*
X62302317Y-100511284D01*
X62302317Y-100511284D02*
X62374888Y-100511284D01*
X62084602Y-98479284D02*
X62157174Y-98551855D01*
X62157174Y-98551855D02*
X62084602Y-98624427D01*
X62084602Y-98624427D02*
X62012031Y-98551855D01*
X62012031Y-98551855D02*
X62084602Y-98479284D01*
X62084602Y-98479284D02*
X62084602Y-98624427D01*
X61141174Y-100003284D02*
X61286317Y-99930713D01*
X61286317Y-99930713D02*
X61358888Y-99785570D01*
X61358888Y-99785570D02*
X61358888Y-98479284D01*
X60705745Y-98987284D02*
X60342888Y-100003284D01*
X59980031Y-98987284D02*
X60342888Y-100003284D01*
X60342888Y-100003284D02*
X60488031Y-100366141D01*
X60488031Y-100366141D02*
X60560602Y-100438713D01*
X60560602Y-100438713D02*
X60705745Y-100511284D01*
X59544602Y-98987284D02*
X59254317Y-100003284D01*
X59254317Y-100003284D02*
X58964031Y-99277570D01*
X58964031Y-99277570D02*
X58673745Y-100003284D01*
X58673745Y-100003284D02*
X58383459Y-98987284D01*
X57948031Y-100003284D02*
X57149746Y-98987284D01*
X57948031Y-98987284D02*
X57149746Y-100003284D01*
X56714317Y-98987284D02*
X56351460Y-100003284D01*
X55988603Y-98987284D02*
X56351460Y-100003284D01*
X56351460Y-100003284D02*
X56496603Y-100366141D01*
X56496603Y-100366141D02*
X56569174Y-100438713D01*
X56569174Y-100438713D02*
X56714317Y-100511284D01*
X54319460Y-98406713D02*
X55625746Y-100366141D01*
X53884032Y-99930713D02*
X53738889Y-100003284D01*
X53738889Y-100003284D02*
X53448603Y-100003284D01*
X53448603Y-100003284D02*
X53303460Y-99930713D01*
X53303460Y-99930713D02*
X53230889Y-99785570D01*
X53230889Y-99785570D02*
X53230889Y-99712998D01*
X53230889Y-99712998D02*
X53303460Y-99567855D01*
X53303460Y-99567855D02*
X53448603Y-99495284D01*
X53448603Y-99495284D02*
X53666318Y-99495284D01*
X53666318Y-99495284D02*
X53811460Y-99422713D01*
X53811460Y-99422713D02*
X53884032Y-99277570D01*
X53884032Y-99277570D02*
X53884032Y-99204998D01*
X53884032Y-99204998D02*
X53811460Y-99059855D01*
X53811460Y-99059855D02*
X53666318Y-98987284D01*
X53666318Y-98987284D02*
X53448603Y-98987284D01*
X53448603Y-98987284D02*
X53303460Y-99059855D01*
X52360032Y-100003284D02*
X52505175Y-99930713D01*
X52505175Y-99930713D02*
X52577746Y-99785570D01*
X52577746Y-99785570D02*
X52577746Y-98479284D01*
X51779460Y-100003284D02*
X51779460Y-98987284D01*
X51779460Y-98479284D02*
X51852032Y-98551855D01*
X51852032Y-98551855D02*
X51779460Y-98624427D01*
X51779460Y-98624427D02*
X51706889Y-98551855D01*
X51706889Y-98551855D02*
X51779460Y-98479284D01*
X51779460Y-98479284D02*
X51779460Y-98624427D01*
X51053746Y-100003284D02*
X51053746Y-98987284D01*
X51053746Y-99132427D02*
X50981175Y-99059855D01*
X50981175Y-99059855D02*
X50836032Y-98987284D01*
X50836032Y-98987284D02*
X50618318Y-98987284D01*
X50618318Y-98987284D02*
X50473175Y-99059855D01*
X50473175Y-99059855D02*
X50400604Y-99204998D01*
X50400604Y-99204998D02*
X50400604Y-100003284D01*
X50400604Y-99204998D02*
X50328032Y-99059855D01*
X50328032Y-99059855D02*
X50182889Y-98987284D01*
X50182889Y-98987284D02*
X49965175Y-98987284D01*
X49965175Y-98987284D02*
X49820032Y-99059855D01*
X49820032Y-99059855D02*
X49747461Y-99204998D01*
X49747461Y-99204998D02*
X49747461Y-100003284D01*
X48368604Y-100003284D02*
X48368604Y-99204998D01*
X48368604Y-99204998D02*
X48441175Y-99059855D01*
X48441175Y-99059855D02*
X48586318Y-98987284D01*
X48586318Y-98987284D02*
X48876604Y-98987284D01*
X48876604Y-98987284D02*
X49021746Y-99059855D01*
X48368604Y-99930713D02*
X48513746Y-100003284D01*
X48513746Y-100003284D02*
X48876604Y-100003284D01*
X48876604Y-100003284D02*
X49021746Y-99930713D01*
X49021746Y-99930713D02*
X49094318Y-99785570D01*
X49094318Y-99785570D02*
X49094318Y-99640427D01*
X49094318Y-99640427D02*
X49021746Y-99495284D01*
X49021746Y-99495284D02*
X48876604Y-99422713D01*
X48876604Y-99422713D02*
X48513746Y-99422713D01*
X48513746Y-99422713D02*
X48368604Y-99350141D01*
X47642889Y-100003284D02*
X47642889Y-98987284D01*
X47642889Y-99277570D02*
X47570318Y-99132427D01*
X47570318Y-99132427D02*
X47497747Y-99059855D01*
X47497747Y-99059855D02*
X47352604Y-98987284D01*
X47352604Y-98987284D02*
X47207461Y-98987284D01*
X46699460Y-100003284D02*
X46699460Y-98987284D01*
X46699460Y-99132427D02*
X46626889Y-99059855D01*
X46626889Y-99059855D02*
X46481746Y-98987284D01*
X46481746Y-98987284D02*
X46264032Y-98987284D01*
X46264032Y-98987284D02*
X46118889Y-99059855D01*
X46118889Y-99059855D02*
X46046318Y-99204998D01*
X46046318Y-99204998D02*
X46046318Y-100003284D01*
X46046318Y-99204998D02*
X45973746Y-99059855D01*
X45973746Y-99059855D02*
X45828603Y-98987284D01*
X45828603Y-98987284D02*
X45610889Y-98987284D01*
X45610889Y-98987284D02*
X45465746Y-99059855D01*
X45465746Y-99059855D02*
X45393175Y-99204998D01*
X45393175Y-99204998D02*
X45393175Y-100003284D01*
D14*
G04 #@! TO.C,J6*
X45550000Y-104770000D02*
X45550000Y-100950000D01*
X44550000Y-100950000D02*
X44550000Y-100526667D01*
X35730000Y-100950000D02*
X36730000Y-100950000D01*
X35730000Y-104770000D02*
X35730000Y-100950000D01*
X45550000Y-100950000D02*
X44550000Y-100950000D01*
X36730000Y-104770000D02*
X35730000Y-104770000D01*
X44550000Y-104770000D02*
X45550000Y-104770000D01*
G04 #@! TO.C,J5*
X70610000Y-101640000D02*
G75*
G03*
X70610000Y-101640000I-381000J0D01*
G01*
G04 #@! TO.C,J2*
X36325000Y-94440000D02*
X33645000Y-94440000D01*
X36325000Y-93720000D02*
X36325000Y-94440000D01*
X36325000Y-90020000D02*
X36325000Y-92320000D01*
X36325000Y-84170000D02*
X36325000Y-88620000D01*
X34845000Y-82800000D02*
X33985000Y-82800000D01*
X31345000Y-94440000D02*
X27675000Y-94440000D01*
X25375000Y-94440000D02*
X24145000Y-94440000D01*
X24145000Y-94440000D02*
X24145000Y-84620000D01*
D10*
G04 #@! TO.C,R28*
X37710000Y-74660000D02*
X37710000Y-75660000D01*
X37710000Y-74660000D02*
X38140000Y-74660000D01*
X37710000Y-75660000D02*
X38140000Y-75660000D01*
X39910000Y-74660000D02*
X39480000Y-74660000D01*
X39910000Y-75660000D02*
X39480000Y-75660000D01*
X39910000Y-75660000D02*
X39910000Y-74660000D01*
G04 #@! TO.C,R29*
X37720000Y-75900000D02*
X37720000Y-76900000D01*
X37720000Y-75900000D02*
X38150000Y-75900000D01*
X37720000Y-76900000D02*
X38150000Y-76900000D01*
X39920000Y-75900000D02*
X39490000Y-75900000D01*
X39920000Y-76900000D02*
X39490000Y-76900000D01*
X39920000Y-76900000D02*
X39920000Y-75900000D01*
G04 #@! TO.C,R27*
X37710000Y-73420000D02*
X37710000Y-74420000D01*
X37710000Y-73420000D02*
X38140000Y-73420000D01*
X37710000Y-74420000D02*
X38140000Y-74420000D01*
X39910000Y-73420000D02*
X39480000Y-73420000D01*
X39910000Y-74420000D02*
X39480000Y-74420000D01*
X39910000Y-74420000D02*
X39910000Y-73420000D01*
G04 #@! TO.C,R30*
X37730000Y-77140000D02*
X37730000Y-78140000D01*
X37730000Y-77140000D02*
X38160000Y-77140000D01*
X37730000Y-78140000D02*
X38160000Y-78140000D01*
X39930000Y-77140000D02*
X39500000Y-77140000D01*
X39930000Y-78140000D02*
X39500000Y-78140000D01*
X39930000Y-78140000D02*
X39930000Y-77140000D01*
G04 #@! TO.C,R31*
X37740000Y-78400000D02*
X37740000Y-79400000D01*
X37740000Y-78400000D02*
X38170000Y-78400000D01*
X37740000Y-79400000D02*
X38170000Y-79400000D01*
X39940000Y-78400000D02*
X39510000Y-78400000D01*
X39940000Y-79400000D02*
X39510000Y-79400000D01*
X39940000Y-79400000D02*
X39940000Y-78400000D01*
G04 #@! TO.C,G\u002A\u002A\u002A*
G36*
X52496838Y-102839506D02*
G01*
X52679655Y-102923910D01*
X52848176Y-103053293D01*
X52872948Y-103077428D01*
X53006856Y-103242083D01*
X53100918Y-103428436D01*
X53156414Y-103639730D01*
X53174628Y-103879210D01*
X53155860Y-104117318D01*
X53097610Y-104339541D01*
X53000617Y-104535846D01*
X52865640Y-104704208D01*
X52814030Y-104753688D01*
X52714732Y-104831750D01*
X52609011Y-104886325D01*
X52476185Y-104929370D01*
X52436317Y-104939126D01*
X52229682Y-104961545D01*
X52018851Y-104941180D01*
X51813919Y-104879812D01*
X51624984Y-104779222D01*
X51618831Y-104774695D01*
X51607358Y-104758084D01*
X51609900Y-104731816D01*
X51629587Y-104688371D01*
X51669549Y-104620225D01*
X51732918Y-104519857D01*
X51813212Y-104394337D01*
X51914740Y-104465900D01*
X51916040Y-104466813D01*
X52047393Y-104533453D01*
X52181162Y-104556120D01*
X52309787Y-104537185D01*
X52425708Y-104479017D01*
X52521365Y-104383987D01*
X52589199Y-104254465D01*
X52611186Y-104180753D01*
X52639000Y-104010223D01*
X52642610Y-103829909D01*
X52623068Y-103653109D01*
X52581425Y-103493119D01*
X52518732Y-103363236D01*
X52480323Y-103315380D01*
X52381869Y-103243287D01*
X52264582Y-103204269D01*
X52140056Y-103199575D01*
X52019883Y-103230458D01*
X51915656Y-103298167D01*
X51863363Y-103347149D01*
X51784236Y-103234896D01*
X51752919Y-103190002D01*
X51700750Y-103113471D01*
X51661709Y-103054107D01*
X51618310Y-102985571D01*
X51739733Y-102924041D01*
X51889652Y-102859319D01*
X52099133Y-102806895D01*
X52302430Y-102800396D01*
X52496838Y-102839506D01*
G37*
G36*
X51572376Y-104579260D02*
G01*
X51520904Y-104706159D01*
X51448834Y-104805182D01*
X51354326Y-104879898D01*
X51227716Y-104933112D01*
X51174675Y-104947107D01*
X51023564Y-104960051D01*
X50880817Y-104934663D01*
X50758389Y-104872486D01*
X50724015Y-104847760D01*
X50685354Y-104827130D01*
X50669042Y-104838457D01*
X50665691Y-104882784D01*
X50665691Y-104942521D01*
X50412241Y-104942521D01*
X50388078Y-104942507D01*
X50283917Y-104941613D01*
X50218508Y-104938350D01*
X50184229Y-104931354D01*
X50173459Y-104919260D01*
X50178579Y-104900705D01*
X50182125Y-104885504D01*
X50188570Y-104825847D01*
X50195164Y-104729936D01*
X50201507Y-104605039D01*
X50207198Y-104458426D01*
X50211837Y-104297366D01*
X50213163Y-104243833D01*
X50713481Y-104243833D01*
X50713847Y-104372151D01*
X50716134Y-104449240D01*
X50727591Y-104510480D01*
X50754095Y-104549591D01*
X50801515Y-104580524D01*
X50876894Y-104606474D01*
X50966542Y-104606347D01*
X51044257Y-104576235D01*
X51098990Y-104520849D01*
X51119690Y-104444899D01*
X51111880Y-104393380D01*
X51065399Y-104324103D01*
X50979393Y-104277060D01*
X50856521Y-104254179D01*
X50713481Y-104243833D01*
X50213163Y-104243833D01*
X50213555Y-104227988D01*
X50219113Y-104044955D01*
X50226112Y-103901197D01*
X50235833Y-103790299D01*
X50249554Y-103705845D01*
X50268555Y-103641418D01*
X50294117Y-103590602D01*
X50327518Y-103546980D01*
X50370039Y-103504137D01*
X50394315Y-103482670D01*
X50505276Y-103413413D01*
X50639989Y-103373364D01*
X50807452Y-103359549D01*
X50836776Y-103359870D01*
X50937524Y-103366725D01*
X51051158Y-103380700D01*
X51165574Y-103399626D01*
X51268664Y-103421333D01*
X51348323Y-103443651D01*
X51392445Y-103464410D01*
X51395679Y-103491571D01*
X51380755Y-103552635D01*
X51349155Y-103636569D01*
X51284002Y-103789866D01*
X51165748Y-103744933D01*
X51142242Y-103736623D01*
X51036926Y-103711257D01*
X50931020Y-103701286D01*
X50839588Y-103707295D01*
X50777697Y-103729868D01*
X50777032Y-103730367D01*
X50742256Y-103774356D01*
X50715061Y-103837394D01*
X50692922Y-103915052D01*
X50804754Y-103915232D01*
X50953202Y-103922751D01*
X51140416Y-103955632D01*
X51302140Y-104012392D01*
X51431925Y-104090586D01*
X51523323Y-104187768D01*
X51524464Y-104189505D01*
X51574226Y-104305954D01*
X51590173Y-104440865D01*
X51589654Y-104444899D01*
X51572376Y-104579260D01*
G37*
G36*
X50027464Y-104271179D02*
G01*
X50010764Y-104430256D01*
X49976536Y-104560981D01*
X49925864Y-104661642D01*
X49835354Y-104779011D01*
X49726751Y-104873079D01*
X49611930Y-104931768D01*
X49572018Y-104942671D01*
X49425707Y-104955825D01*
X49275968Y-104934517D01*
X49143090Y-104880947D01*
X49040856Y-104821033D01*
X49040856Y-104881777D01*
X49040856Y-104942521D01*
X48793945Y-104942521D01*
X48718409Y-104941914D01*
X48626977Y-104939278D01*
X48562030Y-104935033D01*
X48534218Y-104929705D01*
X48532286Y-104925298D01*
X48535902Y-104887423D01*
X48553081Y-104828153D01*
X48554423Y-104824148D01*
X48562429Y-104787004D01*
X48569046Y-104728520D01*
X48574385Y-104644918D01*
X48578557Y-104532421D01*
X48581674Y-104387251D01*
X48583848Y-104205630D01*
X48584227Y-104142855D01*
X49064751Y-104142855D01*
X49064783Y-104205604D01*
X49065518Y-104322566D01*
X49068157Y-104403257D01*
X49073911Y-104455756D01*
X49083990Y-104488144D01*
X49099603Y-104508501D01*
X49121960Y-104524906D01*
X49134545Y-104532565D01*
X49221616Y-104565016D01*
X49314787Y-104573928D01*
X49391922Y-104556693D01*
X49434024Y-104520946D01*
X49476855Y-104441642D01*
X49505154Y-104335506D01*
X49518579Y-104213260D01*
X49516788Y-104085629D01*
X49499442Y-103963336D01*
X49466198Y-103857104D01*
X49416715Y-103777657D01*
X49369778Y-103745268D01*
X49286161Y-103724483D01*
X49195648Y-103729395D01*
X49117857Y-103761091D01*
X49111874Y-103765381D01*
X49092788Y-103782944D01*
X49079695Y-103807866D01*
X49071470Y-103848232D01*
X49066987Y-103912128D01*
X49065122Y-104007641D01*
X49064751Y-104142855D01*
X48584227Y-104142855D01*
X48585189Y-103983779D01*
X48585809Y-103717921D01*
X48586858Y-102696425D01*
X48864572Y-102696425D01*
X48922318Y-102696504D01*
X49021479Y-102697649D01*
X49082850Y-102701044D01*
X49113357Y-102707805D01*
X49119928Y-102719049D01*
X49109492Y-102735892D01*
X49104052Y-102747189D01*
X49093138Y-102798528D01*
X49083389Y-102879166D01*
X49075192Y-102979491D01*
X49068937Y-103089890D01*
X49065011Y-103200751D01*
X49063803Y-103302462D01*
X49065702Y-103385412D01*
X49071096Y-103439988D01*
X49080372Y-103456577D01*
X49207839Y-103402828D01*
X49382336Y-103362091D01*
X49541465Y-103365051D01*
X49682812Y-103410793D01*
X49803963Y-103498404D01*
X49902505Y-103626971D01*
X49976023Y-103795578D01*
X50008323Y-103932377D01*
X50026647Y-104099851D01*
X50027188Y-104213260D01*
X50027464Y-104271179D01*
G37*
G36*
X56202536Y-104990967D02*
G01*
X56199747Y-105071649D01*
X56195966Y-105130608D01*
X56191103Y-105171547D01*
X56185065Y-105198170D01*
X56177761Y-105214181D01*
X56169100Y-105223283D01*
X56167074Y-105224310D01*
X56128102Y-105230320D01*
X56047433Y-105235702D01*
X55930309Y-105240444D01*
X55781974Y-105244539D01*
X55607671Y-105247975D01*
X55412643Y-105250744D01*
X55202132Y-105252836D01*
X54981383Y-105254241D01*
X54755637Y-105254950D01*
X54530139Y-105254953D01*
X54310131Y-105254241D01*
X54100856Y-105252804D01*
X53907557Y-105250632D01*
X53735478Y-105247715D01*
X53589861Y-105244045D01*
X53475949Y-105239612D01*
X53398986Y-105234405D01*
X53364215Y-105228416D01*
X53358106Y-105224746D01*
X53349151Y-105215931D01*
X53341638Y-105200509D01*
X53335440Y-105174736D01*
X53330431Y-105134868D01*
X53326484Y-105077161D01*
X53323474Y-104997872D01*
X53321702Y-104913625D01*
X53519714Y-104913625D01*
X53524216Y-104926812D01*
X53548204Y-104935251D01*
X53598754Y-104939986D01*
X53682939Y-104942061D01*
X53807836Y-104942521D01*
X54222297Y-104942521D01*
X54582564Y-104942521D01*
X54942832Y-104942521D01*
X54942832Y-104881214D01*
X54944490Y-104849425D01*
X54952332Y-104814720D01*
X54970096Y-104773548D01*
X55001515Y-104719540D01*
X55050319Y-104646330D01*
X55120240Y-104547552D01*
X55215010Y-104416839D01*
X55432672Y-104118156D01*
X55440499Y-104213735D01*
X55441265Y-104224294D01*
X55443677Y-104306197D01*
X55442850Y-104412489D01*
X55439337Y-104531142D01*
X55433691Y-104650126D01*
X55426465Y-104757409D01*
X55418211Y-104840963D01*
X55409482Y-104888758D01*
X55391256Y-104942521D01*
X55707230Y-104942521D01*
X55816907Y-104942237D01*
X55910173Y-104940597D01*
X55968426Y-104936610D01*
X55998627Y-104929288D01*
X56007740Y-104917649D01*
X56002726Y-104900705D01*
X56000885Y-104893793D01*
X55996249Y-104844555D01*
X55992292Y-104755999D01*
X55989015Y-104634348D01*
X55986418Y-104485823D01*
X55984501Y-104316645D01*
X55983264Y-104133036D01*
X55982707Y-103941218D01*
X55982830Y-103747411D01*
X55983632Y-103557839D01*
X55985115Y-103378721D01*
X55987277Y-103216280D01*
X55990119Y-103076737D01*
X55993642Y-102966314D01*
X55997844Y-102891233D01*
X56002726Y-102857714D01*
X56007711Y-102842210D01*
X56000251Y-102830205D01*
X55972569Y-102822521D01*
X55917776Y-102818209D01*
X55828980Y-102816318D01*
X55699288Y-102815898D01*
X55375374Y-102815898D01*
X55410703Y-102900454D01*
X55426949Y-102955659D01*
X55436751Y-103032978D01*
X55440675Y-103140789D01*
X55439352Y-103287630D01*
X55432672Y-103590249D01*
X55214872Y-103316573D01*
X55195462Y-103292120D01*
X55088137Y-103153521D01*
X55009737Y-103044872D01*
X54957349Y-102961602D01*
X54928054Y-102899144D01*
X54918937Y-102852927D01*
X54917768Y-102845394D01*
X54904860Y-102832720D01*
X54872035Y-102824204D01*
X54812329Y-102819076D01*
X54718776Y-102816564D01*
X54584412Y-102815898D01*
X54540995Y-102816006D01*
X54426459Y-102817418D01*
X54334063Y-102820212D01*
X54272356Y-102824062D01*
X54249887Y-102828642D01*
X54253503Y-102836108D01*
X54281300Y-102870393D01*
X54327545Y-102919331D01*
X54337039Y-102929256D01*
X54383617Y-102981747D01*
X54452473Y-103062586D01*
X54537940Y-103165000D01*
X54634349Y-103282216D01*
X54736033Y-103407461D01*
X55066863Y-103817647D01*
X54749753Y-104254637D01*
X54716814Y-104299927D01*
X54618256Y-104434307D01*
X54524200Y-104560993D01*
X54440488Y-104672204D01*
X54372964Y-104760158D01*
X54327470Y-104817074D01*
X54242915Y-104917928D01*
X54222297Y-104942521D01*
X53807836Y-104942521D01*
X53901600Y-104942311D01*
X53996665Y-104940803D01*
X54056079Y-104936932D01*
X54086915Y-104929655D01*
X54096249Y-104917928D01*
X54091155Y-104900705D01*
X54086152Y-104878619D01*
X54079850Y-104811959D01*
X54074499Y-104710578D01*
X54070142Y-104581976D01*
X54066822Y-104433651D01*
X54064582Y-104273102D01*
X54063465Y-104107828D01*
X54063514Y-103945329D01*
X54064773Y-103793102D01*
X54067284Y-103658648D01*
X54071090Y-103549465D01*
X54076234Y-103473052D01*
X54082759Y-103436908D01*
X54090056Y-103421693D01*
X54090274Y-103406321D01*
X54072075Y-103396804D01*
X54028117Y-103391740D01*
X53951056Y-103389729D01*
X53833550Y-103389370D01*
X53558899Y-103389370D01*
X53551947Y-104124130D01*
X53551128Y-104199572D01*
X53548310Y-104378932D01*
X53544552Y-104541576D01*
X53540074Y-104681290D01*
X53535097Y-104791860D01*
X53529838Y-104867070D01*
X53524518Y-104900705D01*
X53519714Y-104913625D01*
X53321702Y-104913625D01*
X53321274Y-104893257D01*
X53319757Y-104759572D01*
X53318797Y-104593073D01*
X53318268Y-104390016D01*
X53318043Y-104146657D01*
X53317996Y-103859253D01*
X53318008Y-103789769D01*
X53318381Y-103492966D01*
X53319322Y-103240597D01*
X53320889Y-103029900D01*
X53323140Y-102858113D01*
X53326132Y-102722474D01*
X53329924Y-102620220D01*
X53334572Y-102548590D01*
X53340135Y-102504821D01*
X53346670Y-102486152D01*
X53347330Y-102485512D01*
X53390879Y-102465691D01*
X53454196Y-102457479D01*
X53497244Y-102459826D01*
X53526489Y-102476366D01*
X53533048Y-102518402D01*
X53539858Y-102575432D01*
X53583044Y-102667921D01*
X53657172Y-102738690D01*
X53751881Y-102779326D01*
X53856810Y-102781411D01*
X53876059Y-102776880D01*
X53966957Y-102728979D01*
X54036899Y-102648894D01*
X54074055Y-102549268D01*
X54088811Y-102456986D01*
X55143056Y-102463206D01*
X56197300Y-102469426D01*
X56203535Y-103831420D01*
X56203590Y-103843298D01*
X56204823Y-104132091D01*
X56205615Y-104376940D01*
X56205874Y-104581549D01*
X56205508Y-104749620D01*
X56204426Y-104884859D01*
X56203842Y-104917649D01*
X56202536Y-104990967D01*
G37*
G36*
X59981311Y-103669218D02*
G01*
X60015781Y-103671238D01*
X60043154Y-103675147D01*
X60081059Y-103684971D01*
X60124801Y-103701694D01*
X60166422Y-103724417D01*
X60207924Y-103754267D01*
X60251309Y-103792373D01*
X60265430Y-103805673D01*
X60279464Y-103818718D01*
X60289233Y-103827592D01*
X60293194Y-103830877D01*
X60293249Y-103830820D01*
X60293723Y-103825096D01*
X60294109Y-103811347D01*
X60294368Y-103791494D01*
X60294464Y-103767457D01*
X60294464Y-103703995D01*
X60462003Y-103703995D01*
X60629542Y-103703995D01*
X60629542Y-104422384D01*
X60629542Y-105140773D01*
X60462237Y-105140773D01*
X60294932Y-105140773D01*
X60293177Y-104700347D01*
X60292945Y-104642756D01*
X60292647Y-104572724D01*
X60292351Y-104511651D01*
X60292041Y-104458846D01*
X60291698Y-104413621D01*
X60291305Y-104375287D01*
X60290842Y-104343154D01*
X60290293Y-104316533D01*
X60289640Y-104294735D01*
X60288863Y-104277072D01*
X60287946Y-104262852D01*
X60286871Y-104251389D01*
X60285619Y-104241992D01*
X60284172Y-104233971D01*
X60282513Y-104226639D01*
X60280623Y-104219306D01*
X60262017Y-104163042D01*
X60237525Y-104113696D01*
X60207380Y-104072549D01*
X60171414Y-104039375D01*
X60129463Y-104013949D01*
X60111582Y-104006215D01*
X60077282Y-103995955D01*
X60038422Y-103990140D01*
X59992519Y-103988305D01*
X59987947Y-103988327D01*
X59940457Y-103991862D01*
X59897144Y-104002036D01*
X59854113Y-104019733D01*
X59852890Y-104020333D01*
X59837034Y-104027691D01*
X59825280Y-104032404D01*
X59820092Y-104033474D01*
X59818679Y-104030892D01*
X59813555Y-104020224D01*
X59805342Y-104002575D01*
X59794647Y-103979299D01*
X59782080Y-103951744D01*
X59768250Y-103921264D01*
X59753766Y-103889209D01*
X59739237Y-103856931D01*
X59725272Y-103825781D01*
X59712481Y-103797110D01*
X59701472Y-103772270D01*
X59692854Y-103752613D01*
X59687237Y-103739488D01*
X59685229Y-103734248D01*
X59685229Y-103734230D01*
X59689750Y-103730050D01*
X59701831Y-103723410D01*
X59719455Y-103715167D01*
X59740601Y-103706181D01*
X59763251Y-103697309D01*
X59785387Y-103689410D01*
X59804987Y-103683342D01*
X59829659Y-103678068D01*
X59863917Y-103673513D01*
X59902518Y-103670455D01*
X59942603Y-103668990D01*
X59981311Y-103669218D01*
G37*
G36*
X62490540Y-104489793D02*
G01*
X62480269Y-104575650D01*
X62461923Y-104659808D01*
X62435510Y-104741219D01*
X62401034Y-104818832D01*
X62358501Y-104891595D01*
X62343778Y-104912898D01*
X62291703Y-104977082D01*
X62233530Y-105033238D01*
X62169602Y-105081161D01*
X62100265Y-105120646D01*
X62025863Y-105151488D01*
X61946740Y-105173482D01*
X61863242Y-105186423D01*
X61837093Y-105188320D01*
X61777473Y-105188455D01*
X61716886Y-105183418D01*
X61658753Y-105173570D01*
X61606495Y-105159274D01*
X61573165Y-105146808D01*
X61514355Y-105118218D01*
X61459892Y-105082163D01*
X61407586Y-105037298D01*
X61365701Y-104997219D01*
X61365701Y-105071535D01*
X61365701Y-105145850D01*
X61198161Y-105145850D01*
X61030622Y-105145850D01*
X61030622Y-104424923D01*
X61030622Y-104414789D01*
X61341852Y-104414789D01*
X61343081Y-104486404D01*
X61352390Y-104553987D01*
X61369425Y-104617000D01*
X61393834Y-104674902D01*
X61425265Y-104727154D01*
X61463364Y-104773215D01*
X61507780Y-104812545D01*
X61558158Y-104844605D01*
X61614148Y-104868855D01*
X61675395Y-104884754D01*
X61722613Y-104890530D01*
X61786791Y-104889580D01*
X61850550Y-104878531D01*
X61897310Y-104862837D01*
X61948123Y-104836270D01*
X61994623Y-104801448D01*
X62036187Y-104759121D01*
X62072190Y-104710038D01*
X62102008Y-104654950D01*
X62125018Y-104594607D01*
X62140595Y-104529760D01*
X62141638Y-104523392D01*
X62146102Y-104478898D01*
X62147081Y-104429273D01*
X62144727Y-104378236D01*
X62139192Y-104329502D01*
X62130630Y-104286789D01*
X62110338Y-104225401D01*
X62082250Y-104167739D01*
X62047430Y-104116209D01*
X62006490Y-104071479D01*
X61960044Y-104034215D01*
X61908706Y-104005085D01*
X61853088Y-103984756D01*
X61841412Y-103982108D01*
X61811982Y-103978104D01*
X61777140Y-103975862D01*
X61739950Y-103975385D01*
X61703477Y-103976676D01*
X61670783Y-103979737D01*
X61644933Y-103984572D01*
X61620354Y-103992127D01*
X61568227Y-104014465D01*
X61519349Y-104043765D01*
X61476871Y-104078271D01*
X61457067Y-104098367D01*
X61420805Y-104143480D01*
X61391869Y-104192935D01*
X61369792Y-104247787D01*
X61354109Y-104309090D01*
X61344353Y-104377899D01*
X61341852Y-104414789D01*
X61030622Y-104414789D01*
X61030622Y-103703995D01*
X61198161Y-103703995D01*
X61365701Y-103703995D01*
X61365701Y-103785495D01*
X61365701Y-103866994D01*
X61407681Y-103824634D01*
X61432188Y-103801212D01*
X61480517Y-103762556D01*
X61532416Y-103731016D01*
X61589832Y-103705492D01*
X61654713Y-103684883D01*
X61656436Y-103684424D01*
X61675583Y-103679647D01*
X61692933Y-103676229D01*
X61710877Y-103673938D01*
X61731804Y-103672542D01*
X61758103Y-103671809D01*
X61792165Y-103671505D01*
X61835950Y-103671859D01*
X61873287Y-103673672D01*
X61906764Y-103677415D01*
X61939520Y-103683558D01*
X61974695Y-103692572D01*
X62015429Y-103704927D01*
X62062156Y-103721942D01*
X62132802Y-103756115D01*
X62199493Y-103798723D01*
X62260988Y-103848829D01*
X62316049Y-103905498D01*
X62363435Y-103967793D01*
X62382306Y-103997801D01*
X62420595Y-104071793D01*
X62450776Y-104150388D01*
X62472856Y-104232535D01*
X62486839Y-104317185D01*
X62492732Y-104403288D01*
X62492074Y-104429273D01*
X62490540Y-104489793D01*
G37*
G36*
X58833997Y-103672821D02*
G01*
X58893601Y-103683924D01*
X58951544Y-103702896D01*
X59006822Y-103729774D01*
X59058430Y-103764594D01*
X59105365Y-103807393D01*
X59131545Y-103835075D01*
X59132962Y-103770804D01*
X59134380Y-103706534D01*
X59301919Y-103706534D01*
X59469459Y-103706534D01*
X59470745Y-104426192D01*
X59472032Y-105145850D01*
X59307013Y-105145850D01*
X59141995Y-105145850D01*
X59141995Y-104731878D01*
X59141989Y-104696050D01*
X59141921Y-104618925D01*
X59141757Y-104550931D01*
X59141473Y-104491352D01*
X59141045Y-104439470D01*
X59140448Y-104394568D01*
X59139657Y-104355931D01*
X59138649Y-104322841D01*
X59137399Y-104294580D01*
X59135883Y-104270433D01*
X59134076Y-104249682D01*
X59131954Y-104231611D01*
X59129492Y-104215502D01*
X59126667Y-104200640D01*
X59123454Y-104186306D01*
X59120580Y-104175125D01*
X59102445Y-104125604D01*
X59077328Y-104081802D01*
X59046048Y-104044422D01*
X59009423Y-104014168D01*
X58968271Y-103991744D01*
X58923410Y-103977853D01*
X58875658Y-103973198D01*
X58870997Y-103973253D01*
X58824198Y-103978397D01*
X58783146Y-103991904D01*
X58747758Y-104013825D01*
X58717954Y-104044207D01*
X58693652Y-104083100D01*
X58693177Y-104084051D01*
X58687031Y-104096730D01*
X58681576Y-104109107D01*
X58676770Y-104121835D01*
X58672572Y-104135568D01*
X58668942Y-104150959D01*
X58665837Y-104168663D01*
X58663218Y-104189331D01*
X58661042Y-104213619D01*
X58659270Y-104242179D01*
X58657858Y-104275665D01*
X58656768Y-104314731D01*
X58655956Y-104360029D01*
X58655383Y-104412214D01*
X58655007Y-104471938D01*
X58654786Y-104539856D01*
X58654681Y-104616621D01*
X58654649Y-104702886D01*
X58654607Y-105145850D01*
X58487501Y-105145850D01*
X58320395Y-105145850D01*
X58317983Y-104707963D01*
X58317878Y-104689022D01*
X58317428Y-104610936D01*
X58316977Y-104542140D01*
X58316490Y-104481928D01*
X58315934Y-104429597D01*
X58315274Y-104384441D01*
X58314476Y-104345755D01*
X58313506Y-104312835D01*
X58312330Y-104284974D01*
X58310914Y-104261469D01*
X58309222Y-104241614D01*
X58307222Y-104224703D01*
X58304880Y-104210034D01*
X58302159Y-104196899D01*
X58299028Y-104184595D01*
X58295451Y-104172415D01*
X58291394Y-104159657D01*
X58285191Y-104142356D01*
X58262576Y-104096931D01*
X58233265Y-104057374D01*
X58198249Y-104024513D01*
X58158523Y-103999175D01*
X58115081Y-103982188D01*
X58068916Y-103974378D01*
X58035735Y-103974046D01*
X57990759Y-103980450D01*
X57951409Y-103995258D01*
X57917451Y-104018603D01*
X57888656Y-104050619D01*
X57864790Y-104091439D01*
X57863535Y-104094090D01*
X57858188Y-104105684D01*
X57853452Y-104116903D01*
X57849286Y-104128405D01*
X57845651Y-104140849D01*
X57842506Y-104154891D01*
X57839811Y-104171190D01*
X57837527Y-104190404D01*
X57835611Y-104213192D01*
X57834026Y-104240211D01*
X57832730Y-104272119D01*
X57831682Y-104309574D01*
X57830844Y-104353235D01*
X57830175Y-104403760D01*
X57829634Y-104461806D01*
X57829182Y-104528032D01*
X57828778Y-104603096D01*
X57828382Y-104687655D01*
X57826307Y-105145850D01*
X57661685Y-105145850D01*
X57497062Y-105145850D01*
X57497062Y-104643736D01*
X57497062Y-104626279D01*
X57497074Y-104545300D01*
X57497113Y-104473682D01*
X57497189Y-104410764D01*
X57497315Y-104355885D01*
X57497503Y-104308386D01*
X57497764Y-104267605D01*
X57498109Y-104232882D01*
X57498551Y-104203557D01*
X57499101Y-104178969D01*
X57499771Y-104158457D01*
X57500572Y-104141361D01*
X57501517Y-104127021D01*
X57502617Y-104114775D01*
X57503883Y-104103964D01*
X57505327Y-104093926D01*
X57506961Y-104084002D01*
X57520859Y-104019179D01*
X57541825Y-103954246D01*
X57568976Y-103896425D01*
X57602774Y-103844904D01*
X57643679Y-103798871D01*
X57692153Y-103757510D01*
X57709281Y-103745411D01*
X57763146Y-103715314D01*
X57822091Y-103692766D01*
X57884818Y-103677786D01*
X57950029Y-103670397D01*
X58016427Y-103670620D01*
X58082715Y-103678476D01*
X58147594Y-103693986D01*
X58209767Y-103717172D01*
X58267937Y-103748054D01*
X58278232Y-103754902D01*
X58302703Y-103773497D01*
X58329290Y-103796093D01*
X58355349Y-103820285D01*
X58378236Y-103843669D01*
X58395307Y-103863843D01*
X58402349Y-103872457D01*
X58407330Y-103875043D01*
X58411199Y-103870844D01*
X58411525Y-103870282D01*
X58417298Y-103861612D01*
X58427084Y-103847894D01*
X58438959Y-103831832D01*
X58454625Y-103812330D01*
X58497735Y-103769383D01*
X58546214Y-103734047D01*
X58599058Y-103706359D01*
X58655263Y-103686355D01*
X58713824Y-103674073D01*
X58773736Y-103669550D01*
X58833997Y-103672821D01*
G37*
G36*
X69618292Y-103695388D02*
G01*
X69618982Y-103707438D01*
X69618918Y-103711932D01*
X69617873Y-103721090D01*
X69615953Y-103719028D01*
X69614923Y-103712645D01*
X69615953Y-103695847D01*
X69616573Y-103693968D01*
X69618292Y-103695388D01*
G37*
G36*
X68362110Y-103339850D02*
G01*
X68362110Y-103720684D01*
X68295877Y-103720684D01*
X68229645Y-103720684D01*
X68229645Y-103339850D01*
X68229645Y-102959015D01*
X68295877Y-102959015D01*
X68362110Y-102959015D01*
X68362110Y-103339850D01*
G37*
G36*
X68143544Y-103339850D02*
G01*
X68143544Y-103720684D01*
X68074000Y-103720684D01*
X68004456Y-103720684D01*
X68004456Y-103339850D01*
X68004456Y-102959015D01*
X68074000Y-102959015D01*
X68143544Y-102959015D01*
X68143544Y-103339850D01*
G37*
G36*
X67116947Y-103445821D02*
G01*
X67116947Y-103720684D01*
X67047403Y-103720684D01*
X66977859Y-103720684D01*
X66977859Y-103445821D01*
X66977859Y-103170958D01*
X67047403Y-103170958D01*
X67116947Y-103170958D01*
X67116947Y-103445821D01*
G37*
G36*
X65580362Y-104498911D02*
G01*
X65580362Y-104879746D01*
X65510819Y-104879746D01*
X65441275Y-104879746D01*
X65441275Y-104498911D01*
X65441275Y-104118077D01*
X65510819Y-104118077D01*
X65580362Y-104118077D01*
X65580362Y-104498911D01*
G37*
G36*
X67094295Y-102957865D02*
G01*
X67097376Y-102959946D01*
X67117103Y-102980544D01*
X67131342Y-103007492D01*
X67136816Y-103034856D01*
X67134347Y-103053026D01*
X67121435Y-103080735D01*
X67100011Y-103103567D01*
X67072952Y-103117786D01*
X67060192Y-103121563D01*
X67049711Y-103123461D01*
X67039376Y-103122165D01*
X67022692Y-103117659D01*
X67017570Y-103115980D01*
X66992958Y-103100575D01*
X66973224Y-103076476D01*
X66961651Y-103047459D01*
X66960623Y-103023838D01*
X66969328Y-102996908D01*
X66986761Y-102974123D01*
X67010448Y-102957156D01*
X67037915Y-102947676D01*
X67066689Y-102947356D01*
X67094295Y-102957865D01*
G37*
G36*
X69130402Y-104207490D02*
G01*
X69130402Y-104277034D01*
X69067481Y-104277034D01*
X69004561Y-104277034D01*
X69004561Y-104573974D01*
X69004504Y-104621442D01*
X69004270Y-104679892D01*
X69003874Y-104733200D01*
X69003335Y-104780014D01*
X69002673Y-104818986D01*
X69001907Y-104848762D01*
X69001058Y-104867994D01*
X69000145Y-104875330D01*
X68995609Y-104876663D01*
X68979956Y-104878254D01*
X68956182Y-104879342D01*
X68927290Y-104879746D01*
X68858850Y-104879746D01*
X68858850Y-104578390D01*
X68858850Y-104277034D01*
X68792618Y-104277034D01*
X68726386Y-104277034D01*
X68726386Y-104207490D01*
X68726386Y-104137946D01*
X68928394Y-104137946D01*
X69130402Y-104137946D01*
X69130402Y-104207490D01*
G37*
G36*
X64866497Y-103159998D02*
G01*
X64886920Y-103163900D01*
X64898309Y-103169308D01*
X64918366Y-103183334D01*
X64937379Y-103200953D01*
X64964404Y-103230271D01*
X64964404Y-103200615D01*
X64964404Y-103170958D01*
X65024013Y-103170958D01*
X65083622Y-103170958D01*
X65083622Y-103445821D01*
X65083622Y-103720684D01*
X65017390Y-103720684D01*
X64951158Y-103720684D01*
X64951040Y-103589876D01*
X64950461Y-103521504D01*
X64948597Y-103460354D01*
X64945259Y-103410215D01*
X64940259Y-103369960D01*
X64933407Y-103338457D01*
X64924512Y-103314578D01*
X64913385Y-103297194D01*
X64899836Y-103285175D01*
X64892206Y-103280847D01*
X64877762Y-103277861D01*
X64858043Y-103281368D01*
X64832475Y-103288193D01*
X64812078Y-103231822D01*
X64810964Y-103228720D01*
X64801361Y-103199059D01*
X64796941Y-103178775D01*
X64797988Y-103169145D01*
X64802355Y-103166236D01*
X64819344Y-103161453D01*
X64842348Y-103159277D01*
X64866497Y-103159998D01*
G37*
G36*
X67395121Y-104498911D02*
G01*
X67395121Y-104879746D01*
X67325578Y-104879746D01*
X67256034Y-104879746D01*
X67256034Y-104731627D01*
X67255968Y-104702166D01*
X67255302Y-104647616D01*
X67253750Y-104603904D01*
X67251104Y-104569395D01*
X67247157Y-104542451D01*
X67241701Y-104521436D01*
X67234528Y-104504715D01*
X67225430Y-104490652D01*
X67201848Y-104466636D01*
X67172357Y-104449477D01*
X67141367Y-104441995D01*
X67111316Y-104444362D01*
X67084644Y-104456748D01*
X67063786Y-104479325D01*
X67058558Y-104489225D01*
X67053633Y-104503193D01*
X67049772Y-104521324D01*
X67046839Y-104545133D01*
X67044699Y-104576134D01*
X67043218Y-104615838D01*
X67042262Y-104665759D01*
X67041695Y-104727412D01*
X67040780Y-104876434D01*
X66972892Y-104878321D01*
X66905004Y-104880209D01*
X66905004Y-104684919D01*
X66905159Y-104639747D01*
X66905789Y-104586157D01*
X66906859Y-104539390D01*
X66908318Y-104501051D01*
X66910115Y-104472745D01*
X66912199Y-104456079D01*
X66914727Y-104445809D01*
X66933015Y-104403202D01*
X66961267Y-104367553D01*
X66997668Y-104340303D01*
X67040401Y-104322896D01*
X67087650Y-104316773D01*
X67125211Y-104319859D01*
X67175671Y-104334625D01*
X67225663Y-104362060D01*
X67256034Y-104382557D01*
X67256034Y-104250317D01*
X67256034Y-104118077D01*
X67325578Y-104118077D01*
X67395121Y-104118077D01*
X67395121Y-104498911D01*
G37*
G36*
X66538053Y-104321056D02*
G01*
X66578301Y-104333970D01*
X66620744Y-104357379D01*
X66659945Y-104382716D01*
X66659945Y-104356368D01*
X66659945Y-104330019D01*
X66729489Y-104330019D01*
X66799033Y-104330019D01*
X66799033Y-104604882D01*
X66799033Y-104879746D01*
X66729984Y-104879746D01*
X66660935Y-104879746D01*
X66658784Y-104709198D01*
X66658663Y-104699689D01*
X66657943Y-104649358D01*
X66657139Y-104610225D01*
X66656106Y-104580532D01*
X66654698Y-104558522D01*
X66652767Y-104542438D01*
X66650167Y-104530520D01*
X66646752Y-104521013D01*
X66642376Y-104512158D01*
X66629477Y-104491264D01*
X66603222Y-104463719D01*
X66571660Y-104447761D01*
X66533576Y-104442614D01*
X66512202Y-104446472D01*
X66486855Y-104461057D01*
X66466539Y-104483883D01*
X66454434Y-104512158D01*
X66453088Y-104522136D01*
X66451531Y-104544945D01*
X66450192Y-104577184D01*
X66449139Y-104616724D01*
X66448439Y-104661438D01*
X66448161Y-104709198D01*
X66448003Y-104879746D01*
X66377972Y-104879746D01*
X66307941Y-104879746D01*
X66310159Y-104666147D01*
X66310224Y-104659888D01*
X66310930Y-104598824D01*
X66311792Y-104549293D01*
X66313034Y-104509724D01*
X66314883Y-104478549D01*
X66317565Y-104454198D01*
X66321306Y-104435102D01*
X66326331Y-104419692D01*
X66332867Y-104406397D01*
X66341139Y-104393650D01*
X66351375Y-104379880D01*
X66367800Y-104362830D01*
X66399846Y-104341577D01*
X66438071Y-104326103D01*
X66478432Y-104318365D01*
X66495854Y-104317499D01*
X66538053Y-104321056D01*
G37*
G36*
X66622541Y-103163323D02*
G01*
X66671094Y-103180178D01*
X66717898Y-103208479D01*
X66739424Y-103224618D01*
X66739424Y-103197788D01*
X66739424Y-103170958D01*
X66808967Y-103170958D01*
X66878511Y-103170958D01*
X66878511Y-103446053D01*
X66878511Y-103721148D01*
X66810623Y-103719260D01*
X66742735Y-103717373D01*
X66741661Y-103553048D01*
X66741456Y-103522682D01*
X66741059Y-103478493D01*
X66740466Y-103444614D01*
X66739503Y-103419168D01*
X66737996Y-103400283D01*
X66735770Y-103386083D01*
X66732652Y-103374695D01*
X66728466Y-103364244D01*
X66723038Y-103352856D01*
X66713389Y-103335180D01*
X66692027Y-103308997D01*
X66665660Y-103293214D01*
X66631751Y-103285971D01*
X66612435Y-103285006D01*
X66592908Y-103287853D01*
X66575101Y-103296534D01*
X66573400Y-103297614D01*
X66561789Y-103305930D01*
X66552512Y-103315369D01*
X66545284Y-103327447D01*
X66539814Y-103343681D01*
X66535816Y-103365584D01*
X66533000Y-103394672D01*
X66531080Y-103432461D01*
X66529766Y-103480466D01*
X66528771Y-103540202D01*
X66526227Y-103720684D01*
X66460291Y-103720684D01*
X66394354Y-103720684D01*
X66396341Y-103500463D01*
X66396700Y-103461830D01*
X66397267Y-103409320D01*
X66397911Y-103367629D01*
X66398731Y-103335257D01*
X66399828Y-103310706D01*
X66401303Y-103292476D01*
X66403258Y-103279070D01*
X66405792Y-103268989D01*
X66409006Y-103260733D01*
X66413002Y-103252804D01*
X66418762Y-103243361D01*
X66435995Y-103221181D01*
X66455329Y-103201697D01*
X66483459Y-103181883D01*
X66527018Y-103164132D01*
X66573948Y-103157960D01*
X66622541Y-103163323D01*
G37*
G36*
X66023484Y-103163295D02*
G01*
X66056297Y-103170687D01*
X66087253Y-103185063D01*
X66121368Y-103208142D01*
X66125711Y-103211339D01*
X66139002Y-103220331D01*
X66146205Y-103223944D01*
X66147044Y-103223272D01*
X66149125Y-103214048D01*
X66149958Y-103197451D01*
X66149958Y-103170958D01*
X66216190Y-103170958D01*
X66282422Y-103170958D01*
X66282422Y-103445821D01*
X66282422Y-103720684D01*
X66217052Y-103720684D01*
X66151681Y-103720684D01*
X66148738Y-103556029D01*
X66148192Y-103525898D01*
X66147289Y-103481574D01*
X66146303Y-103447551D01*
X66145037Y-103421944D01*
X66143294Y-103402868D01*
X66140876Y-103388438D01*
X66137585Y-103376770D01*
X66133225Y-103365980D01*
X66127598Y-103354181D01*
X66117047Y-103334977D01*
X66094999Y-103308181D01*
X66068243Y-103292145D01*
X66034659Y-103285298D01*
X66021398Y-103284735D01*
X65998725Y-103287434D01*
X65979012Y-103296575D01*
X65977415Y-103297587D01*
X65965849Y-103305848D01*
X65956603Y-103315254D01*
X65949391Y-103327316D01*
X65943924Y-103343548D01*
X65939915Y-103365463D01*
X65937077Y-103394573D01*
X65935122Y-103432391D01*
X65933762Y-103480430D01*
X65932711Y-103540202D01*
X65930001Y-103720684D01*
X65864465Y-103720684D01*
X65798928Y-103720684D01*
X65798928Y-103516567D01*
X65798983Y-103472848D01*
X65799374Y-103416120D01*
X65800329Y-103370115D01*
X65802065Y-103333308D01*
X65804797Y-103304175D01*
X65808742Y-103281193D01*
X65814116Y-103262837D01*
X65821136Y-103247583D01*
X65830017Y-103233908D01*
X65840976Y-103220287D01*
X65864228Y-103197122D01*
X65897368Y-103176343D01*
X65936552Y-103164715D01*
X65984378Y-103161169D01*
X66023484Y-103163295D01*
G37*
G36*
X70969883Y-103938573D02*
G01*
X70987274Y-103947151D01*
X71006492Y-103956614D01*
X71020558Y-103965010D01*
X71029627Y-103974054D01*
X71033852Y-103985461D01*
X71033383Y-104000945D01*
X71028375Y-104022221D01*
X71018981Y-104051003D01*
X71005352Y-104089007D01*
X70987642Y-104137946D01*
X70977214Y-104167385D01*
X70961933Y-104211764D01*
X70948297Y-104252825D01*
X70937041Y-104288292D01*
X70928899Y-104315887D01*
X70924607Y-104333331D01*
X70921327Y-104361829D01*
X70924919Y-104391293D01*
X70938259Y-104412392D01*
X70962128Y-104426205D01*
X70997308Y-104433814D01*
X71005710Y-104434977D01*
X71024780Y-104440011D01*
X71031262Y-104446848D01*
X71030699Y-104448339D01*
X71026136Y-104450685D01*
X71015927Y-104452510D01*
X70998808Y-104453872D01*
X70973509Y-104454829D01*
X70938766Y-104455441D01*
X70893311Y-104455765D01*
X70835877Y-104455860D01*
X70808184Y-104455841D01*
X70756194Y-104455642D01*
X70715632Y-104455183D01*
X70685249Y-104454405D01*
X70663793Y-104453251D01*
X70650015Y-104451667D01*
X70642665Y-104449593D01*
X70640493Y-104446974D01*
X70641100Y-104444870D01*
X70649983Y-104437237D01*
X70666089Y-104430419D01*
X70674128Y-104427858D01*
X70689017Y-104421791D01*
X70702409Y-104413636D01*
X70714964Y-104402239D01*
X70727340Y-104386444D01*
X70740195Y-104365096D01*
X70754187Y-104337040D01*
X70769977Y-104301121D01*
X70788221Y-104256184D01*
X70809578Y-104201074D01*
X70834707Y-104134635D01*
X70839879Y-104120870D01*
X70857494Y-104074005D01*
X70873697Y-104030918D01*
X70887840Y-103993333D01*
X70899272Y-103962976D01*
X70907346Y-103941570D01*
X70911412Y-103930840D01*
X70918439Y-103912495D01*
X70969883Y-103938573D01*
G37*
G36*
X64063530Y-104330396D02*
G01*
X64087266Y-104331403D01*
X64102847Y-104332993D01*
X64107727Y-104334987D01*
X64107071Y-104336251D01*
X64101987Y-104347687D01*
X64092866Y-104369146D01*
X64080357Y-104399039D01*
X64065112Y-104435775D01*
X64047779Y-104477765D01*
X64029009Y-104523416D01*
X64009451Y-104571140D01*
X63989757Y-104619346D01*
X63970575Y-104666444D01*
X63952556Y-104710842D01*
X63936351Y-104750952D01*
X63922608Y-104785183D01*
X63911978Y-104811943D01*
X63905111Y-104829644D01*
X63902658Y-104836695D01*
X63904969Y-104843703D01*
X63912128Y-104860896D01*
X63923255Y-104886128D01*
X63937457Y-104917372D01*
X63953838Y-104952601D01*
X63969168Y-104985271D01*
X63984131Y-105017253D01*
X63996356Y-105043487D01*
X64004877Y-105061894D01*
X64008722Y-105070395D01*
X64009044Y-105071907D01*
X64005583Y-105075170D01*
X63994234Y-105076995D01*
X63973223Y-105077553D01*
X63940773Y-105077018D01*
X63869289Y-105075130D01*
X63699164Y-104704231D01*
X63529039Y-104333331D01*
X63592208Y-104331421D01*
X63607856Y-104331043D01*
X63633885Y-104330873D01*
X63653368Y-104331348D01*
X63662961Y-104332421D01*
X63663142Y-104332522D01*
X63668169Y-104339988D01*
X63677762Y-104357842D01*
X63691142Y-104384503D01*
X63707531Y-104418390D01*
X63726151Y-104457924D01*
X63746223Y-104501523D01*
X63748170Y-104505797D01*
X63767924Y-104548852D01*
X63785911Y-104587538D01*
X63801396Y-104620313D01*
X63813645Y-104645636D01*
X63821923Y-104661965D01*
X63825494Y-104667759D01*
X63825606Y-104667707D01*
X63829385Y-104660779D01*
X63837404Y-104643288D01*
X63848986Y-104616801D01*
X63863455Y-104582883D01*
X63880135Y-104543102D01*
X63898349Y-104499024D01*
X63967611Y-104330246D01*
X64039202Y-104330133D01*
X64063530Y-104330396D01*
G37*
G36*
X66228178Y-104624732D02*
G01*
X66218515Y-104683362D01*
X66196664Y-104739985D01*
X66183700Y-104762015D01*
X66149654Y-104803329D01*
X66107339Y-104839171D01*
X66059998Y-104867020D01*
X66010871Y-104884358D01*
X65973699Y-104889642D01*
X65925839Y-104889891D01*
X65878204Y-104884285D01*
X65836798Y-104873206D01*
X65811690Y-104862313D01*
X65762723Y-104831368D01*
X65722126Y-104791876D01*
X65690493Y-104745462D01*
X65668422Y-104693753D01*
X65656509Y-104638375D01*
X65656012Y-104613768D01*
X65792142Y-104613768D01*
X65800064Y-104654781D01*
X65816367Y-104692532D01*
X65840189Y-104724136D01*
X65870667Y-104746712D01*
X65899604Y-104758083D01*
X65941649Y-104763888D01*
X65982612Y-104758135D01*
X66020245Y-104741566D01*
X66052298Y-104714921D01*
X66076521Y-104678941D01*
X66076730Y-104678506D01*
X66087315Y-104644311D01*
X66090809Y-104604583D01*
X66087211Y-104564896D01*
X66076521Y-104530824D01*
X66068400Y-104516076D01*
X66041742Y-104484112D01*
X66009008Y-104461808D01*
X65972361Y-104449162D01*
X65933964Y-104446176D01*
X65895980Y-104452850D01*
X65860572Y-104469182D01*
X65829902Y-104495174D01*
X65806134Y-104530824D01*
X65804884Y-104533482D01*
X65793461Y-104572374D01*
X65792142Y-104613768D01*
X65656012Y-104613768D01*
X65655349Y-104580953D01*
X65665538Y-104523113D01*
X65687674Y-104466480D01*
X65690483Y-104461286D01*
X65711001Y-104431869D01*
X65738392Y-104401510D01*
X65768508Y-104374437D01*
X65797201Y-104354877D01*
X65803235Y-104351690D01*
X65861542Y-104328479D01*
X65920915Y-104317737D01*
X65979850Y-104319284D01*
X66036843Y-104332941D01*
X66090391Y-104358525D01*
X66138988Y-104395858D01*
X66151345Y-104408290D01*
X66187237Y-104455876D01*
X66212220Y-104509082D01*
X66225973Y-104566004D01*
X66227421Y-104604583D01*
X66228178Y-104624732D01*
G37*
G36*
X65365212Y-104649096D02*
G01*
X65355406Y-104693747D01*
X65331869Y-104746273D01*
X65297424Y-104794815D01*
X65254612Y-104834833D01*
X65204924Y-104864949D01*
X65149854Y-104883782D01*
X65089389Y-104891372D01*
X65029635Y-104887050D01*
X64973814Y-104871203D01*
X64923173Y-104844663D01*
X64878956Y-104808263D01*
X64842409Y-104762834D01*
X64814777Y-104709209D01*
X64797306Y-104648221D01*
X64793830Y-104613614D01*
X64794474Y-104605402D01*
X64934692Y-104605402D01*
X64934699Y-104612789D01*
X64935491Y-104638769D01*
X64938343Y-104657349D01*
X64944359Y-104673285D01*
X64954644Y-104691328D01*
X64957164Y-104695240D01*
X64979128Y-104721561D01*
X65004319Y-104741851D01*
X65010269Y-104745300D01*
X65050851Y-104760445D01*
X65093725Y-104763659D01*
X65136139Y-104755056D01*
X65175343Y-104734749D01*
X65185446Y-104725295D01*
X65200502Y-104705707D01*
X65213729Y-104683003D01*
X65224528Y-104655857D01*
X65232447Y-104612044D01*
X65229532Y-104569483D01*
X65216553Y-104530173D01*
X65194278Y-104496115D01*
X65163474Y-104469308D01*
X65124909Y-104451751D01*
X65088529Y-104445351D01*
X65045885Y-104448917D01*
X65007038Y-104464455D01*
X64973568Y-104491283D01*
X64947058Y-104528716D01*
X64940132Y-104546452D01*
X64935990Y-104571208D01*
X64934692Y-104605402D01*
X64794474Y-104605402D01*
X64798001Y-104560405D01*
X64812198Y-104506779D01*
X64835419Y-104456148D01*
X64866662Y-104411924D01*
X64878864Y-104398933D01*
X64923731Y-104363158D01*
X64975071Y-104337379D01*
X65030707Y-104322045D01*
X65088463Y-104317600D01*
X65146163Y-104324492D01*
X65201629Y-104343168D01*
X65215747Y-104350272D01*
X65257842Y-104378343D01*
X65296109Y-104413633D01*
X65327468Y-104453003D01*
X65348842Y-104493313D01*
X65351280Y-104499953D01*
X65362985Y-104547168D01*
X65367684Y-104598559D01*
X65367024Y-104612044D01*
X65365212Y-104649096D01*
G37*
G36*
X71168511Y-103303963D02*
G01*
X71172008Y-103306806D01*
X71176385Y-103312942D01*
X71181978Y-103323200D01*
X71189123Y-103338411D01*
X71198157Y-103359407D01*
X71209417Y-103387017D01*
X71223239Y-103422072D01*
X71239959Y-103465403D01*
X71259914Y-103517841D01*
X71283440Y-103580216D01*
X71310874Y-103653359D01*
X71342553Y-103738100D01*
X71361750Y-103789509D01*
X71387894Y-103859526D01*
X71412436Y-103925254D01*
X71434998Y-103985679D01*
X71455199Y-104039786D01*
X71472661Y-104086559D01*
X71487006Y-104124983D01*
X71497853Y-104154044D01*
X71504824Y-104172725D01*
X71507540Y-104180012D01*
X71505326Y-104179632D01*
X71495324Y-104172071D01*
X71479042Y-104158194D01*
X71458312Y-104139508D01*
X71406367Y-104091643D01*
X71308500Y-103822542D01*
X71295371Y-103786482D01*
X71275528Y-103732152D01*
X71257345Y-103682565D01*
X71241297Y-103639008D01*
X71227859Y-103602765D01*
X71217507Y-103575120D01*
X71210716Y-103557360D01*
X71207962Y-103550769D01*
X71205620Y-103554782D01*
X71199283Y-103569658D01*
X71189634Y-103593956D01*
X71177303Y-103626063D01*
X71162916Y-103664364D01*
X71147101Y-103707246D01*
X71133204Y-103745080D01*
X71118625Y-103784356D01*
X71106056Y-103817775D01*
X71096122Y-103843687D01*
X71089451Y-103860443D01*
X71086668Y-103866395D01*
X71080597Y-103864370D01*
X71065653Y-103857521D01*
X71045087Y-103847305D01*
X71021817Y-103835260D01*
X70998758Y-103822925D01*
X70978828Y-103811840D01*
X70964942Y-103803541D01*
X70960017Y-103799570D01*
X70960381Y-103798644D01*
X70964498Y-103788084D01*
X70972721Y-103766943D01*
X70984529Y-103736560D01*
X70999403Y-103698275D01*
X71016821Y-103653428D01*
X71036265Y-103603359D01*
X71057212Y-103549405D01*
X71067756Y-103522271D01*
X71090235Y-103464722D01*
X71108707Y-103418024D01*
X71123658Y-103381087D01*
X71135570Y-103352824D01*
X71144928Y-103332144D01*
X71152215Y-103317960D01*
X71157916Y-103309181D01*
X71162515Y-103304720D01*
X71166495Y-103303486D01*
X71168511Y-103303963D01*
G37*
G36*
X67835333Y-104326926D02*
G01*
X67866157Y-104336639D01*
X67919688Y-104362825D01*
X67965009Y-104397552D01*
X68001668Y-104439317D01*
X68029215Y-104486617D01*
X68047199Y-104537946D01*
X68055170Y-104591801D01*
X68052675Y-104646678D01*
X68039264Y-104701072D01*
X68014486Y-104753480D01*
X67977890Y-104802398D01*
X67953735Y-104824705D01*
X67912840Y-104851955D01*
X67866894Y-104873416D01*
X67820570Y-104886584D01*
X67817302Y-104887140D01*
X67783554Y-104890022D01*
X67743112Y-104889749D01*
X67700931Y-104886666D01*
X67661966Y-104881115D01*
X67631172Y-104873441D01*
X67628612Y-104872538D01*
X67602624Y-104861190D01*
X67575950Y-104846279D01*
X67550660Y-104829420D01*
X67528827Y-104812230D01*
X67512522Y-104796324D01*
X67503815Y-104783318D01*
X67504779Y-104774829D01*
X67510929Y-104770030D01*
X67525463Y-104759586D01*
X67544470Y-104746385D01*
X67564891Y-104732505D01*
X67583662Y-104720021D01*
X67597723Y-104711008D01*
X67604012Y-104707542D01*
X67607822Y-104709529D01*
X67619726Y-104717664D01*
X67636289Y-104729938D01*
X67676292Y-104752360D01*
X67722942Y-104764328D01*
X67774045Y-104765260D01*
X67804638Y-104759639D01*
X67843309Y-104742833D01*
X67874761Y-104717505D01*
X67898289Y-104685591D01*
X67913190Y-104649025D01*
X67918758Y-104609744D01*
X67914290Y-104569681D01*
X67899081Y-104530774D01*
X67872426Y-104494957D01*
X67854244Y-104478642D01*
X67814683Y-104455616D01*
X67771003Y-104443948D01*
X67725206Y-104443777D01*
X67679294Y-104455243D01*
X67635270Y-104478484D01*
X67602896Y-104500753D01*
X67548683Y-104471120D01*
X67535617Y-104463827D01*
X67514478Y-104451272D01*
X67499902Y-104441575D01*
X67494469Y-104436387D01*
X67494896Y-104434523D01*
X67502558Y-104423920D01*
X67517770Y-104408797D01*
X67537849Y-104391395D01*
X67560110Y-104373955D01*
X67581869Y-104358718D01*
X67600441Y-104347925D01*
X67606950Y-104344879D01*
X67660013Y-104327070D01*
X67718622Y-104317886D01*
X67778491Y-104317710D01*
X67835333Y-104326926D01*
G37*
G36*
X69036608Y-103469321D02*
G01*
X69058890Y-103527325D01*
X69078898Y-103579555D01*
X69096214Y-103624914D01*
X69110419Y-103662306D01*
X69121095Y-103690634D01*
X69127824Y-103708804D01*
X69130186Y-103715717D01*
X69126014Y-103717397D01*
X69111032Y-103719099D01*
X69087701Y-103720257D01*
X69058705Y-103720684D01*
X68987009Y-103720684D01*
X68957414Y-103646173D01*
X68927819Y-103571662D01*
X68774742Y-103569886D01*
X68621666Y-103568109D01*
X68602109Y-103619560D01*
X68600401Y-103624061D01*
X68589889Y-103651948D01*
X68580348Y-103677559D01*
X68573660Y-103695847D01*
X68564768Y-103720684D01*
X68493243Y-103720684D01*
X68469180Y-103720395D01*
X68444611Y-103719361D01*
X68427891Y-103717751D01*
X68421718Y-103715752D01*
X68423724Y-103709704D01*
X68430097Y-103692281D01*
X68440434Y-103664611D01*
X68454320Y-103627787D01*
X68471341Y-103582905D01*
X68491080Y-103531057D01*
X68513123Y-103473339D01*
X68531904Y-103424296D01*
X68675636Y-103424296D01*
X68676883Y-103425238D01*
X68688222Y-103426831D01*
X68709447Y-103428108D01*
X68738371Y-103428956D01*
X68772804Y-103429263D01*
X68781545Y-103429260D01*
X68817488Y-103429097D01*
X68842422Y-103428525D01*
X68858209Y-103427320D01*
X68866712Y-103425259D01*
X68869792Y-103422118D01*
X68869310Y-103417673D01*
X68865874Y-103408263D01*
X68858361Y-103388614D01*
X68847628Y-103360942D01*
X68834512Y-103327409D01*
X68819853Y-103290176D01*
X68807884Y-103260020D01*
X68794784Y-103227775D01*
X68785172Y-103205604D01*
X68778340Y-103192167D01*
X68773580Y-103186120D01*
X68770185Y-103186121D01*
X68767446Y-103190828D01*
X68764552Y-103198158D01*
X68757118Y-103217173D01*
X68746538Y-103244333D01*
X68733761Y-103277206D01*
X68719735Y-103313357D01*
X68708892Y-103341228D01*
X68696390Y-103373099D01*
X68686116Y-103398983D01*
X68678917Y-103416757D01*
X68675636Y-103424296D01*
X68531904Y-103424296D01*
X68537055Y-103410844D01*
X68562462Y-103344668D01*
X68703205Y-102978516D01*
X68775869Y-102980356D01*
X68848534Y-102982197D01*
X68989252Y-103346473D01*
X69012471Y-103406639D01*
X69018432Y-103422118D01*
X69036608Y-103469321D01*
G37*
G36*
X69381682Y-103101011D02*
G01*
X69374449Y-103128497D01*
X69356137Y-103152529D01*
X69348722Y-103158664D01*
X69329871Y-103168338D01*
X69305917Y-103170958D01*
X69286121Y-103168853D01*
X69259295Y-103156679D01*
X69240733Y-103134628D01*
X69232186Y-103105603D01*
X69242638Y-103105603D01*
X69252296Y-103128159D01*
X69259237Y-103136236D01*
X69265173Y-103135409D01*
X69274605Y-103124813D01*
X69275230Y-103124040D01*
X69283343Y-103112822D01*
X69282865Y-103105808D01*
X69273584Y-103097217D01*
X69271373Y-103095297D01*
X69266415Y-103087500D01*
X69278251Y-103087500D01*
X69286130Y-103094954D01*
X69305709Y-103098103D01*
X69319662Y-103097302D01*
X69327387Y-103092706D01*
X69329098Y-103081545D01*
X69328854Y-103076090D01*
X69324296Y-103067183D01*
X69310884Y-103065088D01*
X69291444Y-103067764D01*
X69279287Y-103075655D01*
X69278251Y-103087500D01*
X69266415Y-103087500D01*
X69263274Y-103082561D01*
X69267340Y-103071708D01*
X69282643Y-103063744D01*
X69308255Y-103059673D01*
X69342344Y-103057671D01*
X69342344Y-103081545D01*
X69342344Y-103100677D01*
X69342299Y-103105640D01*
X69340844Y-103127456D01*
X69337906Y-103142386D01*
X69334252Y-103148864D01*
X69330651Y-103145324D01*
X69327871Y-103130199D01*
X69327787Y-103129406D01*
X69323883Y-103114191D01*
X69317656Y-103106390D01*
X69314848Y-103106339D01*
X69303861Y-103112225D01*
X69291093Y-103123777D01*
X69280520Y-103137018D01*
X69276112Y-103147972D01*
X69276805Y-103150734D01*
X69285827Y-103157200D01*
X69301542Y-103160020D01*
X69319163Y-103158072D01*
X69330011Y-103154182D01*
X69351730Y-103138844D01*
X69364768Y-103118050D01*
X69368944Y-103094721D01*
X69364080Y-103071778D01*
X69349994Y-103052142D01*
X69326508Y-103038732D01*
X69319492Y-103036837D01*
X69294058Y-103036742D01*
X69271669Y-103045965D01*
X69254311Y-103062112D01*
X69243972Y-103082789D01*
X69242638Y-103105603D01*
X69232186Y-103105603D01*
X69231656Y-103103804D01*
X69231451Y-103101945D01*
X69230732Y-103082009D01*
X69235308Y-103067777D01*
X69247209Y-103052564D01*
X69257019Y-103043069D01*
X69284221Y-103027484D01*
X69312970Y-103023975D01*
X69340910Y-103032530D01*
X69365685Y-103053138D01*
X69377521Y-103073335D01*
X69380736Y-103094721D01*
X69381682Y-103101011D01*
G37*
G36*
X65705005Y-103371074D02*
G01*
X65710847Y-103410497D01*
X65712315Y-103454989D01*
X65709454Y-103498677D01*
X65702307Y-103535688D01*
X65698796Y-103546722D01*
X65674484Y-103598050D01*
X65639808Y-103643508D01*
X65596718Y-103681314D01*
X65547163Y-103709686D01*
X65493093Y-103726844D01*
X65466226Y-103730761D01*
X65417726Y-103732557D01*
X65368244Y-103728861D01*
X65322297Y-103720108D01*
X65284402Y-103706734D01*
X65276221Y-103702607D01*
X65231245Y-103672868D01*
X65192850Y-103635725D01*
X65175142Y-103614681D01*
X65231170Y-103587797D01*
X65287197Y-103560913D01*
X65318284Y-103580628D01*
X65358241Y-103600486D01*
X65402739Y-103611483D01*
X65446582Y-103611894D01*
X65487637Y-103601977D01*
X65523777Y-103581992D01*
X65552870Y-103552195D01*
X65560211Y-103541104D01*
X65571668Y-103519853D01*
X65577949Y-103502593D01*
X65582018Y-103482249D01*
X65358341Y-103482249D01*
X65134664Y-103482249D01*
X65138766Y-103434231D01*
X65141841Y-103408087D01*
X65147180Y-103376873D01*
X65148776Y-103370169D01*
X65275695Y-103370169D01*
X65276362Y-103370797D01*
X65286639Y-103372603D01*
X65308142Y-103374117D01*
X65339342Y-103375275D01*
X65378710Y-103376017D01*
X65424717Y-103376278D01*
X65440043Y-103376250D01*
X65484095Y-103375829D01*
X65521020Y-103374948D01*
X65549289Y-103373669D01*
X65567372Y-103372055D01*
X65573739Y-103370169D01*
X65572049Y-103365560D01*
X65564219Y-103352461D01*
X65552165Y-103335397D01*
X65522008Y-103305550D01*
X65485593Y-103285639D01*
X65445433Y-103275682D01*
X65404022Y-103275680D01*
X65363860Y-103285632D01*
X65327444Y-103305537D01*
X65297269Y-103335397D01*
X65288921Y-103346967D01*
X65279401Y-103361832D01*
X65275695Y-103370169D01*
X65148776Y-103370169D01*
X65153215Y-103351528D01*
X65168147Y-103314993D01*
X65193023Y-103274174D01*
X65223461Y-103237398D01*
X65256148Y-103209246D01*
X65282160Y-103192719D01*
X65313780Y-103177220D01*
X65346548Y-103167497D01*
X65384417Y-103162460D01*
X65431340Y-103161023D01*
X65440298Y-103161033D01*
X65470782Y-103161477D01*
X65492917Y-103163097D01*
X65510652Y-103166604D01*
X65527939Y-103172708D01*
X65548726Y-103182118D01*
X65554073Y-103184712D01*
X65606352Y-103217610D01*
X65649249Y-103259336D01*
X65681937Y-103308909D01*
X65703588Y-103365350D01*
X65704781Y-103370169D01*
X65705005Y-103371074D01*
G37*
G36*
X68690848Y-104581535D02*
G01*
X68690499Y-104640854D01*
X68678406Y-104698180D01*
X68655428Y-104750637D01*
X68622567Y-104796826D01*
X68580825Y-104835344D01*
X68531203Y-104864792D01*
X68474704Y-104883769D01*
X68428991Y-104890459D01*
X68369275Y-104890352D01*
X68310926Y-104881230D01*
X68258476Y-104863519D01*
X68256890Y-104862776D01*
X68237719Y-104851625D01*
X68215890Y-104836010D01*
X68194143Y-104818286D01*
X68175218Y-104800812D01*
X68161854Y-104785945D01*
X68156790Y-104776040D01*
X68158446Y-104773670D01*
X68169501Y-104766092D01*
X68188654Y-104755730D01*
X68213213Y-104744105D01*
X68234015Y-104734981D01*
X68253806Y-104727132D01*
X68266418Y-104723932D01*
X68274601Y-104724771D01*
X68281101Y-104729039D01*
X68285493Y-104732710D01*
X68319377Y-104752691D01*
X68359597Y-104765491D01*
X68402210Y-104770581D01*
X68443272Y-104767434D01*
X68478838Y-104755521D01*
X68498259Y-104742662D01*
X68519118Y-104723469D01*
X68537415Y-104701673D01*
X68551189Y-104679971D01*
X68558476Y-104661061D01*
X68557314Y-104647642D01*
X68556692Y-104647219D01*
X68546174Y-104645538D01*
X68523702Y-104644096D01*
X68490323Y-104642922D01*
X68447086Y-104642046D01*
X68395038Y-104641499D01*
X68335226Y-104641310D01*
X68117051Y-104641310D01*
X68117051Y-104602962D01*
X68118310Y-104574572D01*
X68127730Y-104525423D01*
X68256138Y-104525423D01*
X68257570Y-104528556D01*
X68263083Y-104531051D01*
X68274205Y-104532865D01*
X68292463Y-104534100D01*
X68319386Y-104534856D01*
X68356499Y-104535235D01*
X68405330Y-104535339D01*
X68554523Y-104535339D01*
X68544987Y-104517125D01*
X68538860Y-104506912D01*
X68518112Y-104481598D01*
X68492884Y-104459095D01*
X68468081Y-104444062D01*
X68462770Y-104442023D01*
X68431429Y-104435404D01*
X68395393Y-104434260D01*
X68360313Y-104438438D01*
X68331843Y-104447783D01*
X68331484Y-104447967D01*
X68312166Y-104460479D01*
X68292045Y-104477483D01*
X68274049Y-104495976D01*
X68261104Y-104512957D01*
X68256138Y-104525423D01*
X68127730Y-104525423D01*
X68129747Y-104514902D01*
X68152317Y-104460723D01*
X68185066Y-104413260D01*
X68227037Y-104373740D01*
X68277277Y-104343390D01*
X68334830Y-104323434D01*
X68350746Y-104320364D01*
X68395131Y-104316967D01*
X68442316Y-104319266D01*
X68487207Y-104326836D01*
X68524708Y-104339253D01*
X68527402Y-104340501D01*
X68580230Y-104372102D01*
X68623372Y-104412565D01*
X68656445Y-104461332D01*
X68679065Y-104517842D01*
X68682302Y-104535339D01*
X68690848Y-104581535D01*
G37*
G36*
X67559999Y-103172462D02*
G01*
X67602347Y-103174270D01*
X67659347Y-103324933D01*
X67671018Y-103355589D01*
X67685983Y-103394297D01*
X67699024Y-103427339D01*
X67709465Y-103453030D01*
X67716628Y-103469683D01*
X67719837Y-103475611D01*
X67721514Y-103472769D01*
X67727188Y-103459214D01*
X67736118Y-103436028D01*
X67747661Y-103404924D01*
X67761174Y-103367612D01*
X67776016Y-103325805D01*
X67786166Y-103297271D01*
X67800559Y-103257944D01*
X67813424Y-103224115D01*
X67824071Y-103197544D01*
X67831807Y-103179989D01*
X67835944Y-103173208D01*
X67838864Y-103172661D01*
X67853286Y-103171907D01*
X67875947Y-103171789D01*
X67903420Y-103172350D01*
X67963659Y-103174270D01*
X67868518Y-103438433D01*
X67857486Y-103469061D01*
X67837805Y-103523678D01*
X67819708Y-103573875D01*
X67803678Y-103618312D01*
X67790199Y-103655647D01*
X67779755Y-103684541D01*
X67772829Y-103703652D01*
X67769907Y-103711641D01*
X67765625Y-103715873D01*
X67750709Y-103719528D01*
X67724146Y-103720684D01*
X67681855Y-103720684D01*
X67622934Y-103568359D01*
X67610314Y-103535961D01*
X67594979Y-103497240D01*
X67581610Y-103464216D01*
X67570896Y-103438559D01*
X67563525Y-103421939D01*
X67560184Y-103416026D01*
X67558240Y-103419149D01*
X67552076Y-103432994D01*
X67542496Y-103456361D01*
X67530174Y-103487559D01*
X67515785Y-103524901D01*
X67500003Y-103566695D01*
X67443652Y-103717373D01*
X67400437Y-103719310D01*
X67392829Y-103719639D01*
X67372504Y-103719952D01*
X67360910Y-103718010D01*
X67354526Y-103712661D01*
X67349830Y-103702752D01*
X67348307Y-103698814D01*
X67342256Y-103682663D01*
X67332771Y-103657023D01*
X67320422Y-103623460D01*
X67305781Y-103583540D01*
X67289419Y-103538829D01*
X67271906Y-103490894D01*
X67253813Y-103441300D01*
X67235710Y-103391615D01*
X67218170Y-103343403D01*
X67201761Y-103298232D01*
X67187056Y-103257668D01*
X67174625Y-103223276D01*
X67165040Y-103196624D01*
X67158869Y-103179277D01*
X67156686Y-103172801D01*
X67159866Y-103172192D01*
X67173747Y-103171750D01*
X67196120Y-103171807D01*
X67224208Y-103172382D01*
X67291731Y-103174270D01*
X67344358Y-103321636D01*
X67354078Y-103348621D01*
X67368350Y-103387361D01*
X67380942Y-103420493D01*
X67391181Y-103446293D01*
X67398393Y-103463038D01*
X67401907Y-103469002D01*
X67403926Y-103466145D01*
X67410226Y-103452625D01*
X67419895Y-103429531D01*
X67432246Y-103398566D01*
X67446590Y-103361431D01*
X67462239Y-103319828D01*
X67517651Y-103170655D01*
X67559999Y-103172462D01*
G37*
G36*
X69389364Y-102962894D02*
G01*
X69398308Y-102966796D01*
X69416093Y-102975625D01*
X69440632Y-102988327D01*
X69469841Y-103003848D01*
X69479883Y-103009193D01*
X69510725Y-103025257D01*
X69550290Y-103045525D01*
X69596355Y-103068873D01*
X69646698Y-103094178D01*
X69699097Y-103120314D01*
X69751327Y-103146160D01*
X69786942Y-103163747D01*
X69831561Y-103185907D01*
X69871145Y-103205710D01*
X69904320Y-103222463D01*
X69929716Y-103235471D01*
X69945960Y-103244041D01*
X69951679Y-103247479D01*
X69948147Y-103250737D01*
X69935597Y-103260073D01*
X69916101Y-103273792D01*
X69891904Y-103290288D01*
X69832129Y-103330480D01*
X69854988Y-103371593D01*
X69856108Y-103373611D01*
X69865507Y-103390650D01*
X69880250Y-103417478D01*
X69899493Y-103452554D01*
X69922390Y-103494337D01*
X69948098Y-103541286D01*
X69975772Y-103591860D01*
X70004568Y-103644517D01*
X70013555Y-103660948D01*
X70040917Y-103710838D01*
X70066185Y-103756718D01*
X70088653Y-103797316D01*
X70107613Y-103831362D01*
X70122359Y-103857586D01*
X70132185Y-103874717D01*
X70136383Y-103881484D01*
X70138924Y-103879424D01*
X70145581Y-103867158D01*
X70155205Y-103845783D01*
X70166945Y-103817215D01*
X70179949Y-103783374D01*
X70189854Y-103757424D01*
X70202004Y-103727421D01*
X70212263Y-103704157D01*
X70219777Y-103689544D01*
X70223690Y-103685494D01*
X70224811Y-103686891D01*
X70231701Y-103698810D01*
X70242069Y-103719434D01*
X70254764Y-103746183D01*
X70268633Y-103776477D01*
X70282525Y-103807733D01*
X70295289Y-103837372D01*
X70305772Y-103862813D01*
X70312824Y-103881474D01*
X70315293Y-103890776D01*
X70314582Y-103894275D01*
X70310290Y-103909515D01*
X70302559Y-103934831D01*
X70291897Y-103968623D01*
X70278812Y-104009287D01*
X70263812Y-104055224D01*
X70247405Y-104104830D01*
X70237372Y-104134955D01*
X70220693Y-104184775D01*
X70207308Y-104224062D01*
X70196653Y-104254168D01*
X70188161Y-104276446D01*
X70181267Y-104292248D01*
X70175406Y-104302925D01*
X70170013Y-104309830D01*
X70164521Y-104314316D01*
X70158366Y-104317733D01*
X70144270Y-104323207D01*
X70118867Y-104323947D01*
X70095929Y-104311677D01*
X70093771Y-104309025D01*
X70085296Y-104295607D01*
X70072009Y-104272655D01*
X70054741Y-104241673D01*
X70034324Y-104204162D01*
X70011591Y-104161628D01*
X69987374Y-104115571D01*
X69950308Y-104044499D01*
X69903023Y-103953789D01*
X69855545Y-103862665D01*
X69808269Y-103771886D01*
X69761591Y-103682212D01*
X69715904Y-103594404D01*
X69671604Y-103509222D01*
X69629085Y-103427425D01*
X69588742Y-103349774D01*
X69550970Y-103277028D01*
X69516163Y-103209948D01*
X69484717Y-103149294D01*
X69457025Y-103095826D01*
X69433483Y-103050304D01*
X69414486Y-103013488D01*
X69400427Y-102986138D01*
X69391703Y-102969014D01*
X69388707Y-102962876D01*
X69389364Y-102962894D01*
G37*
G36*
X64723993Y-104656449D02*
G01*
X64707164Y-104712876D01*
X64679074Y-104764172D01*
X64639979Y-104809035D01*
X64609201Y-104834371D01*
X64568243Y-104857579D01*
X64523352Y-104870688D01*
X64470975Y-104875087D01*
X64431520Y-104873870D01*
X64393926Y-104867783D01*
X64362042Y-104855688D01*
X64332155Y-104836555D01*
X64302083Y-104813601D01*
X64302083Y-104843228D01*
X64302136Y-104847830D01*
X64308111Y-104887779D01*
X64324107Y-104919270D01*
X64350280Y-104942443D01*
X64386784Y-104957443D01*
X64433774Y-104964411D01*
X64445631Y-104964931D01*
X64492746Y-104962834D01*
X64530246Y-104953241D01*
X64559388Y-104935869D01*
X64562486Y-104933315D01*
X64571791Y-104926942D01*
X64582468Y-104922896D01*
X64597486Y-104920652D01*
X64619812Y-104919690D01*
X64652414Y-104919485D01*
X64652704Y-104919485D01*
X64687030Y-104919921D01*
X64709662Y-104921333D01*
X64722115Y-104923890D01*
X64725907Y-104927764D01*
X64725806Y-104929213D01*
X64720681Y-104944005D01*
X64709511Y-104964559D01*
X64694660Y-104987223D01*
X64678495Y-105008345D01*
X64663381Y-105024275D01*
X64651458Y-105034057D01*
X64604082Y-105063034D01*
X64550454Y-105082730D01*
X64546374Y-105083690D01*
X64518424Y-105087542D01*
X64480317Y-105089551D01*
X64434548Y-105089570D01*
X64409587Y-105088966D01*
X64381102Y-105087686D01*
X64359859Y-105085364D01*
X64342263Y-105081340D01*
X64324719Y-105074955D01*
X64303634Y-105065549D01*
X64291543Y-105059620D01*
X64256357Y-105038189D01*
X64229685Y-105015250D01*
X64219443Y-105003860D01*
X64206313Y-104987684D01*
X64195394Y-104971143D01*
X64186484Y-104952948D01*
X64179379Y-104931810D01*
X64173875Y-104906443D01*
X64169770Y-104875559D01*
X64166860Y-104837868D01*
X64164943Y-104792084D01*
X64163814Y-104736919D01*
X64163271Y-104671084D01*
X64163128Y-104601316D01*
X64291272Y-104601316D01*
X64297969Y-104643194D01*
X64314968Y-104681982D01*
X64340997Y-104714858D01*
X64374782Y-104739002D01*
X64396737Y-104747870D01*
X64437905Y-104754273D01*
X64479135Y-104748973D01*
X64517690Y-104732495D01*
X64550830Y-104705360D01*
X64559422Y-104695231D01*
X64582235Y-104656392D01*
X64592961Y-104614671D01*
X64591586Y-104572085D01*
X64578092Y-104530651D01*
X64552466Y-104492384D01*
X64546682Y-104486162D01*
X64513784Y-104460960D01*
X64477194Y-104446822D01*
X64438969Y-104443184D01*
X64401162Y-104449483D01*
X64365829Y-104465157D01*
X64335026Y-104489643D01*
X64310807Y-104522379D01*
X64295227Y-104562802D01*
X64291272Y-104601316D01*
X64163128Y-104601316D01*
X64163111Y-104593292D01*
X64162996Y-104330019D01*
X64232540Y-104330019D01*
X64302083Y-104330019D01*
X64302083Y-104356272D01*
X64302083Y-104382525D01*
X64343479Y-104356692D01*
X64358352Y-104347844D01*
X64401131Y-104328309D01*
X64444291Y-104318734D01*
X64492814Y-104317822D01*
X64510796Y-104319655D01*
X64560394Y-104332861D01*
X64607170Y-104356549D01*
X64648615Y-104388896D01*
X64682221Y-104428081D01*
X64705479Y-104472281D01*
X64722861Y-104533413D01*
X64729310Y-104596193D01*
X64727679Y-104614671D01*
X64723993Y-104656449D01*
G37*
G36*
X70698372Y-102910830D02*
G01*
X70734696Y-102911921D01*
X70766391Y-102913924D01*
X70796655Y-102917060D01*
X70828686Y-102921551D01*
X70865682Y-102927617D01*
X70883566Y-102930755D01*
X71018580Y-102960330D01*
X71146511Y-102999426D01*
X71270135Y-103049004D01*
X71392227Y-103110025D01*
X71415902Y-103123301D01*
X71519892Y-103188881D01*
X71616368Y-103261804D01*
X71704613Y-103341166D01*
X71783911Y-103426067D01*
X71853544Y-103515604D01*
X71912798Y-103608874D01*
X71960955Y-103704976D01*
X71997299Y-103803006D01*
X72021114Y-103902063D01*
X72024995Y-103929172D01*
X72029213Y-103979484D01*
X72030962Y-104034389D01*
X72030237Y-104089486D01*
X72027035Y-104140373D01*
X72021352Y-104182651D01*
X72016759Y-104204817D01*
X71990265Y-104294908D01*
X71952106Y-104382865D01*
X71903489Y-104465795D01*
X71897202Y-104474790D01*
X71869438Y-104509791D01*
X71834735Y-104548342D01*
X71796142Y-104587322D01*
X71756711Y-104623609D01*
X71719492Y-104654082D01*
X71702548Y-104666210D01*
X71663083Y-104691394D01*
X71617067Y-104717841D01*
X71568372Y-104743466D01*
X71520872Y-104766183D01*
X71478437Y-104783908D01*
X71432838Y-104799400D01*
X71376916Y-104815514D01*
X71317772Y-104830230D01*
X71260519Y-104842281D01*
X71210268Y-104850398D01*
X71176483Y-104853761D01*
X71122417Y-104856702D01*
X71061409Y-104857912D01*
X70996814Y-104857466D01*
X70931985Y-104855438D01*
X70870279Y-104851902D01*
X70815047Y-104846934D01*
X70769645Y-104840607D01*
X70677489Y-104821679D01*
X70541514Y-104784151D01*
X70410160Y-104736354D01*
X70285401Y-104679036D01*
X70169207Y-104612944D01*
X70105451Y-104570329D01*
X70013524Y-104499661D01*
X69929512Y-104423550D01*
X69854061Y-104342931D01*
X69787818Y-104258736D01*
X69731430Y-104171899D01*
X69685545Y-104083353D01*
X69650809Y-103994033D01*
X69627869Y-103904871D01*
X69617373Y-103816802D01*
X69614595Y-103757112D01*
X69620317Y-103810324D01*
X69628274Y-103863762D01*
X69651160Y-103954214D01*
X69685421Y-104045170D01*
X69730235Y-104134580D01*
X69784781Y-104220394D01*
X69807421Y-104249769D01*
X69840604Y-104288241D01*
X69879444Y-104329913D01*
X69921371Y-104372204D01*
X69963817Y-104412533D01*
X70004215Y-104448318D01*
X70039997Y-104476976D01*
X70078442Y-104504558D01*
X70194722Y-104577217D01*
X70317611Y-104639008D01*
X70445881Y-104689549D01*
X70578304Y-104728459D01*
X70713652Y-104755356D01*
X70850697Y-104769859D01*
X70988211Y-104771586D01*
X71017431Y-104770309D01*
X71140743Y-104758677D01*
X71255612Y-104737187D01*
X71362475Y-104705739D01*
X71461771Y-104664233D01*
X71520410Y-104633282D01*
X71604234Y-104579024D01*
X71677169Y-104518492D01*
X71738941Y-104452099D01*
X71789276Y-104380261D01*
X71827899Y-104303392D01*
X71854536Y-104221905D01*
X71868912Y-104136215D01*
X71870753Y-104046737D01*
X71869176Y-104023350D01*
X71854765Y-103931563D01*
X71827272Y-103840640D01*
X71786658Y-103750493D01*
X71732884Y-103661032D01*
X71665911Y-103572169D01*
X71602163Y-103501968D01*
X71513549Y-103421071D01*
X71415071Y-103347196D01*
X71307825Y-103280940D01*
X71192905Y-103222907D01*
X71071405Y-103173695D01*
X70944420Y-103133905D01*
X70813043Y-103104139D01*
X70781601Y-103098735D01*
X70668155Y-103085436D01*
X70553984Y-103081288D01*
X70440983Y-103086081D01*
X70331048Y-103099602D01*
X70226073Y-103121640D01*
X70127952Y-103151985D01*
X70038582Y-103190425D01*
X70027423Y-103195935D01*
X70003850Y-103206890D01*
X69985515Y-103214481D01*
X69975667Y-103217321D01*
X69971306Y-103216420D01*
X69956062Y-103211055D01*
X69933793Y-103201933D01*
X69907632Y-103190297D01*
X69849020Y-103163274D01*
X69868889Y-103146803D01*
X69913275Y-103113266D01*
X69973039Y-103074817D01*
X70038702Y-103038318D01*
X70106423Y-103005885D01*
X70172364Y-102979633D01*
X70195728Y-102971582D01*
X70261928Y-102951073D01*
X70325604Y-102935336D01*
X70389869Y-102923889D01*
X70457834Y-102916247D01*
X70532611Y-102911925D01*
X70617312Y-102910441D01*
X70654221Y-102910430D01*
X70698372Y-102910830D01*
G37*
G36*
X70091142Y-103319699D02*
G01*
X70105472Y-103326434D01*
X70128703Y-103337776D01*
X70159242Y-103352916D01*
X70195492Y-103371045D01*
X70235860Y-103391352D01*
X70278749Y-103413028D01*
X70322566Y-103435263D01*
X70365715Y-103457248D01*
X70406602Y-103478172D01*
X70443631Y-103497227D01*
X70475208Y-103513603D01*
X70499738Y-103526489D01*
X70515625Y-103535077D01*
X70521275Y-103538556D01*
X70518862Y-103540693D01*
X70507356Y-103548583D01*
X70488523Y-103560704D01*
X70464767Y-103575484D01*
X70448505Y-103585713D01*
X70428171Y-103599396D01*
X70414604Y-103609701D01*
X70410126Y-103614952D01*
X70410329Y-103615412D01*
X70414658Y-103624475D01*
X70424044Y-103643849D01*
X70437846Y-103672218D01*
X70455421Y-103708264D01*
X70476125Y-103750668D01*
X70499318Y-103798113D01*
X70524356Y-103849281D01*
X70550406Y-103902223D01*
X70577780Y-103957046D01*
X70599994Y-104000454D01*
X70617235Y-104032799D01*
X70629692Y-104054434D01*
X70637554Y-104065709D01*
X70641008Y-104066977D01*
X70642190Y-104063161D01*
X70646598Y-104047346D01*
X70653473Y-104021760D01*
X70662292Y-103988379D01*
X70672531Y-103949178D01*
X70683665Y-103906134D01*
X70690201Y-103880846D01*
X70700661Y-103840812D01*
X70709822Y-103806287D01*
X70717191Y-103779102D01*
X70722276Y-103761090D01*
X70724583Y-103754083D01*
X70726361Y-103753757D01*
X70738313Y-103756251D01*
X70759495Y-103762666D01*
X70787787Y-103772246D01*
X70821069Y-103784237D01*
X70857222Y-103797884D01*
X70894125Y-103812432D01*
X70929660Y-103827125D01*
X71047251Y-103883150D01*
X71166242Y-103951885D01*
X71283445Y-104031554D01*
X71397213Y-104121037D01*
X71505898Y-104219212D01*
X71515605Y-104228672D01*
X71549917Y-104263126D01*
X71583829Y-104298601D01*
X71616052Y-104333618D01*
X71645301Y-104366699D01*
X71670290Y-104396365D01*
X71689732Y-104421140D01*
X71702341Y-104439543D01*
X71706829Y-104450098D01*
X71706395Y-104453721D01*
X71703624Y-104457207D01*
X71696684Y-104459624D01*
X71683760Y-104461166D01*
X71663035Y-104462027D01*
X71632694Y-104462402D01*
X71590923Y-104462484D01*
X71558766Y-104462441D01*
X71525625Y-104462152D01*
X71502573Y-104461423D01*
X71487799Y-104460064D01*
X71479489Y-104457884D01*
X71475833Y-104454693D01*
X71475017Y-104450300D01*
X71478838Y-104440616D01*
X71490724Y-104430960D01*
X71494579Y-104428891D01*
X71507736Y-104413794D01*
X71511812Y-104392801D01*
X71505843Y-104369816D01*
X71497257Y-104354696D01*
X71475489Y-104323488D01*
X71446136Y-104286841D01*
X71410913Y-104246566D01*
X71371536Y-104204474D01*
X71329719Y-104162374D01*
X71287176Y-104122078D01*
X71245624Y-104085395D01*
X71206777Y-104054135D01*
X71179913Y-104034204D01*
X71125504Y-103995952D01*
X71071002Y-103960162D01*
X71019720Y-103928969D01*
X70974965Y-103904510D01*
X70935552Y-103885172D01*
X70898025Y-103867830D01*
X70865170Y-103853721D01*
X70838756Y-103843569D01*
X70820552Y-103838096D01*
X70812324Y-103838025D01*
X70810447Y-103842278D01*
X70805155Y-103857899D01*
X70797244Y-103883174D01*
X70787265Y-103916297D01*
X70775768Y-103955461D01*
X70763305Y-103998859D01*
X70753787Y-104032167D01*
X70730040Y-104113479D01*
X70708562Y-104184294D01*
X70689489Y-104244214D01*
X70672953Y-104292841D01*
X70659088Y-104329776D01*
X70648026Y-104354622D01*
X70639903Y-104366981D01*
X70624228Y-104375402D01*
X70602069Y-104379181D01*
X70580175Y-104377187D01*
X70564288Y-104369247D01*
X70562107Y-104365485D01*
X70554752Y-104350654D01*
X70542840Y-104325651D01*
X70526852Y-104291532D01*
X70507268Y-104249357D01*
X70484568Y-104200182D01*
X70459232Y-104145065D01*
X70431740Y-104085065D01*
X70402572Y-104021237D01*
X70372210Y-103954641D01*
X70341131Y-103886334D01*
X70309818Y-103817374D01*
X70278749Y-103748817D01*
X70248406Y-103681723D01*
X70219267Y-103617148D01*
X70191814Y-103556150D01*
X70166526Y-103499788D01*
X70143884Y-103449117D01*
X70124367Y-103405198D01*
X70108456Y-103369086D01*
X70096631Y-103341839D01*
X70089372Y-103324516D01*
X70087159Y-103318174D01*
X70091142Y-103319699D01*
G37*
G36*
X61414257Y-89181869D02*
G01*
X61414257Y-89516032D01*
X61251370Y-89509321D01*
X61217572Y-89507785D01*
X61148506Y-89502886D01*
X61098664Y-89495435D01*
X61060149Y-89483954D01*
X61025062Y-89466964D01*
X60994423Y-89447140D01*
X60931709Y-89384146D01*
X60889715Y-89306956D01*
X60868703Y-89221330D01*
X60868934Y-89133032D01*
X60890672Y-89047824D01*
X60934177Y-88971468D01*
X60999713Y-88909726D01*
X61004954Y-88906192D01*
X61056594Y-88878059D01*
X61114836Y-88860064D01*
X61187403Y-88850512D01*
X61282023Y-88847705D01*
X61414257Y-88847705D01*
X61414257Y-89181869D01*
G37*
G36*
X63273763Y-89103164D02*
G01*
X63287274Y-89141573D01*
X63308356Y-89201176D01*
X63335546Y-89277844D01*
X63367381Y-89367446D01*
X63402397Y-89465853D01*
X63429513Y-89542293D01*
X63461451Y-89633143D01*
X63488683Y-89711537D01*
X63509836Y-89773481D01*
X63523535Y-89814985D01*
X63528406Y-89832053D01*
X63516155Y-89835709D01*
X63478197Y-89839175D01*
X63419215Y-89841920D01*
X63343981Y-89843726D01*
X63257264Y-89844376D01*
X62986121Y-89844376D01*
X63021274Y-89749994D01*
X63022180Y-89747557D01*
X63038898Y-89701735D01*
X63063206Y-89634102D01*
X63092886Y-89550878D01*
X63125719Y-89458281D01*
X63159486Y-89362529D01*
X63169142Y-89335249D01*
X63199408Y-89252126D01*
X63226121Y-89182284D01*
X63247734Y-89129550D01*
X63262699Y-89097750D01*
X63269466Y-89090710D01*
X63273763Y-89103164D01*
G37*
G36*
X72179404Y-88259611D02*
G01*
X72180072Y-88383947D01*
X72180564Y-88528338D01*
X72180907Y-88694476D01*
X72181128Y-88884050D01*
X72181252Y-89098753D01*
X72181307Y-89340276D01*
X72181320Y-89610310D01*
X72181319Y-89700117D01*
X72181297Y-89960762D01*
X72181296Y-89965185D01*
X72181225Y-90193439D01*
X72181077Y-90399841D01*
X72180826Y-90581662D01*
X72180443Y-90740592D01*
X72179904Y-90878324D01*
X72179180Y-90996550D01*
X72178244Y-91096963D01*
X72177070Y-91181256D01*
X72175632Y-91251119D01*
X72173901Y-91308246D01*
X72171850Y-91354329D01*
X72169454Y-91391060D01*
X72166685Y-91420131D01*
X72163516Y-91443235D01*
X72159920Y-91462064D01*
X72155871Y-91478311D01*
X72151340Y-91493667D01*
X72098216Y-91621832D01*
X72017597Y-91743729D01*
X71915056Y-91847625D01*
X71793500Y-91930610D01*
X71655837Y-91989773D01*
X71649281Y-91991675D01*
X71640474Y-91993674D01*
X71629259Y-91995567D01*
X71614843Y-91997356D01*
X71596431Y-91999045D01*
X71573228Y-92000637D01*
X71544442Y-92002135D01*
X71509278Y-92003541D01*
X71466941Y-92004860D01*
X71416637Y-92006093D01*
X71357573Y-92007244D01*
X71288955Y-92008315D01*
X71209987Y-92009310D01*
X71119877Y-92010232D01*
X71017829Y-92011084D01*
X70903050Y-92011869D01*
X70774746Y-92012589D01*
X70632122Y-92013248D01*
X70474384Y-92013849D01*
X70300739Y-92014395D01*
X70110392Y-92014888D01*
X69902549Y-92015332D01*
X69676415Y-92015730D01*
X69431198Y-92016084D01*
X69166101Y-92016398D01*
X68880333Y-92016675D01*
X68573097Y-92016918D01*
X68243601Y-92017129D01*
X67891050Y-92017312D01*
X67514650Y-92017470D01*
X67113606Y-92017606D01*
X66687125Y-92017722D01*
X66234413Y-92017822D01*
X65754675Y-92017908D01*
X65247117Y-92017984D01*
X64710945Y-92018053D01*
X64145366Y-92018118D01*
X63607286Y-92018176D01*
X63070198Y-92018229D01*
X62561758Y-92018272D01*
X62081169Y-92018300D01*
X61627635Y-92018312D01*
X61200359Y-92018304D01*
X60798545Y-92018273D01*
X60421396Y-92018217D01*
X60068115Y-92018131D01*
X59737906Y-92018013D01*
X59429973Y-92017859D01*
X59143518Y-92017668D01*
X58877744Y-92017435D01*
X58631857Y-92017158D01*
X58405058Y-92016834D01*
X58196551Y-92016459D01*
X58005540Y-92016031D01*
X57831228Y-92015546D01*
X57672819Y-92015002D01*
X57529515Y-92014395D01*
X57400521Y-92013722D01*
X57285039Y-92012980D01*
X57182274Y-92012167D01*
X57091428Y-92011279D01*
X57011704Y-92010313D01*
X56942307Y-92009265D01*
X56882440Y-92008134D01*
X56831306Y-92006916D01*
X56788108Y-92005607D01*
X56752050Y-92004206D01*
X56722336Y-92002708D01*
X56698168Y-92001111D01*
X56678750Y-91999411D01*
X56663286Y-91997606D01*
X56650979Y-91995692D01*
X56641032Y-91993667D01*
X56632649Y-91991527D01*
X56625033Y-91989270D01*
X56492603Y-91933887D01*
X56371107Y-91852693D01*
X56267817Y-91750127D01*
X56185934Y-91629387D01*
X56128659Y-91493667D01*
X56127152Y-91488735D01*
X56122779Y-91473278D01*
X56118878Y-91456387D01*
X56115422Y-91436371D01*
X56112384Y-91411537D01*
X56109737Y-91380193D01*
X56107455Y-91340647D01*
X56105510Y-91291206D01*
X56103876Y-91230178D01*
X56102525Y-91155870D01*
X56101431Y-91066592D01*
X56100566Y-90960649D01*
X56099904Y-90836350D01*
X56099483Y-90711196D01*
X57261462Y-90711196D01*
X57261470Y-90711269D01*
X57276429Y-90714091D01*
X57316800Y-90716148D01*
X57377906Y-90717346D01*
X57455073Y-90717593D01*
X57543626Y-90716796D01*
X57825790Y-90712688D01*
X57950471Y-89982792D01*
X57952960Y-89968220D01*
X57977683Y-89823407D01*
X58000896Y-89687312D01*
X58022087Y-89562943D01*
X58040745Y-89453308D01*
X58056357Y-89361413D01*
X58068413Y-89290266D01*
X58076402Y-89242874D01*
X58079811Y-89222245D01*
X58080750Y-89222612D01*
X58088464Y-89242610D01*
X58103139Y-89287448D01*
X58123891Y-89354105D01*
X58149839Y-89439562D01*
X58180100Y-89540798D01*
X58213792Y-89654793D01*
X58250032Y-89778526D01*
X58287937Y-89908976D01*
X58326625Y-90043124D01*
X58365215Y-90177949D01*
X58402822Y-90310430D01*
X58438565Y-90437548D01*
X58471562Y-90556281D01*
X58500929Y-90663609D01*
X58516271Y-90720238D01*
X58768529Y-90720238D01*
X59020787Y-90720238D01*
X59232177Y-89972822D01*
X59245923Y-89924276D01*
X59286212Y-89782648D01*
X59323908Y-89651093D01*
X59358218Y-89532324D01*
X59388344Y-89429057D01*
X59413493Y-89344008D01*
X59432868Y-89279892D01*
X59445675Y-89239424D01*
X59451117Y-89225320D01*
X59451602Y-89226111D01*
X59456621Y-89247021D01*
X59466021Y-89294250D01*
X59479293Y-89364983D01*
X59495929Y-89456407D01*
X59515422Y-89565708D01*
X59537265Y-89690073D01*
X59560949Y-89826686D01*
X59585967Y-89972736D01*
X59713265Y-90720238D01*
X60299406Y-90720238D01*
X60885546Y-90720238D01*
X61149901Y-90323880D01*
X61414257Y-89927522D01*
X61414257Y-90323880D01*
X61414257Y-90720238D01*
X61670975Y-90720238D01*
X61927693Y-90720238D01*
X61927693Y-90702081D01*
X62129380Y-90702081D01*
X62134418Y-90709227D01*
X62150210Y-90714213D01*
X62180647Y-90717425D01*
X62229619Y-90719243D01*
X62301013Y-90720053D01*
X62398719Y-90720238D01*
X62675466Y-90720238D01*
X62711492Y-90618306D01*
X62713681Y-90612115D01*
X62737733Y-90544288D01*
X62765734Y-90465581D01*
X62792066Y-90391790D01*
X62836613Y-90267206D01*
X63261791Y-90267280D01*
X63686968Y-90267353D01*
X63737972Y-90414515D01*
X63750392Y-90450207D01*
X63776284Y-90523858D01*
X63800245Y-90591141D01*
X63818338Y-90640958D01*
X63847699Y-90720238D01*
X64120194Y-90720238D01*
X64392690Y-90720238D01*
X64537706Y-90720238D01*
X64795660Y-90720238D01*
X65053614Y-90720238D01*
X65053699Y-90286082D01*
X65053827Y-90223684D01*
X65055002Y-90091099D01*
X65057339Y-89979219D01*
X65060757Y-89890415D01*
X65065175Y-89827059D01*
X65070514Y-89791522D01*
X65098764Y-89722190D01*
X65146545Y-89663008D01*
X65206270Y-89628686D01*
X65273804Y-89620471D01*
X65345010Y-89639611D01*
X65415755Y-89687354D01*
X65425335Y-89696147D01*
X65452173Y-89723586D01*
X65473536Y-89752591D01*
X65490041Y-89786740D01*
X65502309Y-89829613D01*
X65510958Y-89884789D01*
X65516607Y-89955846D01*
X65519876Y-90046364D01*
X65521383Y-90159922D01*
X65521748Y-90300098D01*
X65521748Y-90720238D01*
X65777660Y-90720238D01*
X66033573Y-90720238D01*
X66038154Y-90255880D01*
X66039451Y-90133497D01*
X66040936Y-90026604D01*
X66042739Y-89943035D01*
X66045104Y-89879214D01*
X66048275Y-89831563D01*
X66052496Y-89796505D01*
X66058009Y-89770463D01*
X66065059Y-89749860D01*
X66073889Y-89731118D01*
X66083846Y-89713471D01*
X66133066Y-89657396D01*
X66192705Y-89627639D01*
X66258526Y-89624609D01*
X66326294Y-89648716D01*
X66391772Y-89700370D01*
X66396538Y-89705363D01*
X66426329Y-89738780D01*
X66450023Y-89771885D01*
X66468314Y-89808490D01*
X66481892Y-89852409D01*
X66491451Y-89907456D01*
X66497680Y-89977445D01*
X66501273Y-90066189D01*
X66502922Y-90177503D01*
X66503317Y-90315199D01*
X66503317Y-90720238D01*
X66760035Y-90720238D01*
X67016754Y-90720238D01*
X67424483Y-90720238D01*
X67681201Y-90720238D01*
X67937919Y-90720238D01*
X67937919Y-89980286D01*
X67937919Y-89240333D01*
X67681201Y-89240333D01*
X67424483Y-89240333D01*
X67424483Y-89980286D01*
X67424483Y-90720238D01*
X67016754Y-90720238D01*
X67016754Y-89980286D01*
X67016754Y-89240333D01*
X66760035Y-89240333D01*
X66503317Y-89240333D01*
X66503317Y-89317596D01*
X66503317Y-89394858D01*
X66443593Y-89340901D01*
X66394240Y-89298935D01*
X66333206Y-89258304D01*
X66270585Y-89233477D01*
X66197017Y-89221066D01*
X66103139Y-89217682D01*
X66065872Y-89217870D01*
X66001820Y-89220165D01*
X65954030Y-89226347D01*
X65912961Y-89238007D01*
X65869072Y-89256739D01*
X65831252Y-89277519D01*
X65769662Y-89320184D01*
X65716928Y-89366030D01*
X65647840Y-89436264D01*
X65604026Y-89390533D01*
X65539931Y-89334654D01*
X65441546Y-89274474D01*
X65334690Y-89232337D01*
X65333331Y-89231950D01*
X65247848Y-89216038D01*
X65149256Y-89210693D01*
X65048068Y-89215431D01*
X64954795Y-89229770D01*
X64879952Y-89253227D01*
X64877227Y-89254460D01*
X64778546Y-89315805D01*
X64693622Y-89402338D01*
X64624525Y-89511446D01*
X64573326Y-89640512D01*
X64572190Y-89644446D01*
X64565628Y-89675275D01*
X64560174Y-89718084D01*
X64555675Y-89775911D01*
X64551978Y-89851792D01*
X64548928Y-89948763D01*
X64546374Y-90069863D01*
X64544161Y-90218128D01*
X64537706Y-90720238D01*
X64392690Y-90720238D01*
X64383853Y-90686261D01*
X64382923Y-90683388D01*
X64372723Y-90656377D01*
X64352280Y-90604242D01*
X64322474Y-90529174D01*
X64284187Y-90433366D01*
X64238298Y-90319011D01*
X64185689Y-90188299D01*
X64127240Y-90043425D01*
X64063832Y-89886580D01*
X63996346Y-89719956D01*
X63925663Y-89545746D01*
X63609646Y-88767549D01*
X67380183Y-88767549D01*
X67395918Y-88848825D01*
X67434415Y-88919204D01*
X67445332Y-88931879D01*
X67491558Y-88975616D01*
X67539176Y-89009794D01*
X67569989Y-89024838D01*
X67653509Y-89044442D01*
X67738821Y-89038589D01*
X67819440Y-89009245D01*
X67888879Y-88958380D01*
X67940652Y-88887962D01*
X67943073Y-88883061D01*
X67963716Y-88819308D01*
X67972760Y-88746333D01*
X68330547Y-88746333D01*
X68330547Y-89240333D01*
X68330547Y-89466849D01*
X68330547Y-90720238D01*
X68587265Y-90720238D01*
X68843983Y-90720238D01*
X68843983Y-89984240D01*
X69134079Y-89984240D01*
X69136728Y-90112576D01*
X69160759Y-90239251D01*
X69205199Y-90358524D01*
X69269077Y-90464657D01*
X69351419Y-90551908D01*
X69372722Y-90568391D01*
X69445606Y-90614744D01*
X69533514Y-90660471D01*
X69625919Y-90700396D01*
X69712295Y-90729342D01*
X69738635Y-90735385D01*
X69813460Y-90746368D01*
X69906340Y-90754403D01*
X70009277Y-90759310D01*
X70114273Y-90760907D01*
X70213331Y-90759013D01*
X70298453Y-90753449D01*
X70361641Y-90744031D01*
X70504550Y-90701977D01*
X70642293Y-90641476D01*
X70760988Y-90567179D01*
X70855672Y-90481724D01*
X70860959Y-90475752D01*
X70930426Y-90378412D01*
X70984910Y-90266375D01*
X71020544Y-90149317D01*
X71033459Y-90036915D01*
X71033638Y-89965185D01*
X70778601Y-89965185D01*
X70523563Y-89965185D01*
X70513071Y-90021111D01*
X70512821Y-90022430D01*
X70479338Y-90120196D01*
X70420933Y-90205728D01*
X70341932Y-90274161D01*
X70246663Y-90320631D01*
X70241895Y-90322172D01*
X70160063Y-90339556D01*
X70065374Y-90346928D01*
X69971475Y-90343923D01*
X69892013Y-90330172D01*
X69826593Y-90305178D01*
X69755965Y-90260669D01*
X69702463Y-90205941D01*
X69670371Y-90145613D01*
X69663975Y-90084307D01*
X69669648Y-90054514D01*
X69687727Y-90009417D01*
X69718888Y-89969542D01*
X69765927Y-89933270D01*
X69831642Y-89898979D01*
X69918831Y-89865049D01*
X70030289Y-89829859D01*
X70168816Y-89791788D01*
X70170788Y-89791272D01*
X70306432Y-89754493D01*
X70417476Y-89721297D01*
X70508950Y-89689798D01*
X70585885Y-89658112D01*
X70653314Y-89624353D01*
X70716266Y-89586636D01*
X70740176Y-89570308D01*
X70832949Y-89485692D01*
X70902267Y-89383830D01*
X70946986Y-89267495D01*
X70965956Y-89139457D01*
X70958031Y-89002491D01*
X70941708Y-88926181D01*
X70891776Y-88799914D01*
X70816413Y-88689036D01*
X70716822Y-88595148D01*
X70594211Y-88519847D01*
X70502454Y-88478945D01*
X70415262Y-88450091D01*
X70324496Y-88431820D01*
X70221439Y-88422377D01*
X70097372Y-88420013D01*
X70040847Y-88420955D01*
X69880969Y-88433213D01*
X69742601Y-88460678D01*
X69621515Y-88504766D01*
X69513479Y-88566890D01*
X69414265Y-88648465D01*
X69328251Y-88748957D01*
X69262232Y-88870394D01*
X69222775Y-89005265D01*
X69214929Y-89046196D01*
X69207782Y-89087987D01*
X69208008Y-89116799D01*
X69219406Y-89135019D01*
X69245776Y-89145035D01*
X69290919Y-89149233D01*
X69358634Y-89150001D01*
X69452722Y-89149727D01*
X69699034Y-89149727D01*
X69718771Y-89072719D01*
X69726249Y-89048642D01*
X69752112Y-88991274D01*
X69782734Y-88945340D01*
X69810380Y-88918745D01*
X69879982Y-88876679D01*
X69963001Y-88850007D01*
X70053593Y-88838315D01*
X70145912Y-88841191D01*
X70234114Y-88858221D01*
X70312356Y-88888991D01*
X70374792Y-88933089D01*
X70415579Y-88990101D01*
X70418330Y-88996482D01*
X70434927Y-89059625D01*
X70425215Y-89114111D01*
X70388019Y-89167507D01*
X70370256Y-89184478D01*
X70329526Y-89212571D01*
X70273969Y-89239131D01*
X70199817Y-89265605D01*
X70103301Y-89293444D01*
X69980654Y-89324094D01*
X69853598Y-89355643D01*
X69702010Y-89398441D01*
X69575351Y-89441762D01*
X69470610Y-89487155D01*
X69384772Y-89536172D01*
X69314825Y-89590363D01*
X69257755Y-89651280D01*
X69210550Y-89720472D01*
X69196816Y-89745544D01*
X69153784Y-89859983D01*
X69134079Y-89984240D01*
X68843983Y-89984240D01*
X68843983Y-89466849D01*
X68843983Y-88213461D01*
X68587265Y-88213461D01*
X68330547Y-88213461D01*
X68330547Y-88746333D01*
X67972760Y-88746333D01*
X67969616Y-88676239D01*
X67953692Y-88621124D01*
X67898959Y-88543623D01*
X67827682Y-88487235D01*
X67745723Y-88454625D01*
X67658192Y-88446991D01*
X67570203Y-88465536D01*
X67486867Y-88511461D01*
X67459574Y-88535842D01*
X67413007Y-88603308D01*
X67386211Y-88683127D01*
X67380183Y-88767549D01*
X63609646Y-88767549D01*
X63476310Y-88439208D01*
X63259236Y-88443368D01*
X63042163Y-88447527D01*
X62590815Y-89557456D01*
X62567642Y-89614448D01*
X62497743Y-89786440D01*
X62431325Y-89949982D01*
X62369267Y-90102905D01*
X62312448Y-90243039D01*
X62261745Y-90368217D01*
X62218037Y-90476267D01*
X62182202Y-90565020D01*
X62155119Y-90632309D01*
X62137665Y-90675962D01*
X62130720Y-90693811D01*
X62129380Y-90702081D01*
X61927693Y-90702081D01*
X61927693Y-89580107D01*
X61927693Y-88439977D01*
X61493537Y-88440091D01*
X61368364Y-88440429D01*
X61237650Y-88441908D01*
X61130293Y-88444941D01*
X61042512Y-88449937D01*
X60970526Y-88457303D01*
X60910554Y-88467446D01*
X60858815Y-88480773D01*
X60811527Y-88497693D01*
X60764911Y-88518612D01*
X60709906Y-88548483D01*
X60602705Y-88629155D01*
X60516004Y-88726729D01*
X60449784Y-88837633D01*
X60404026Y-88958297D01*
X60378711Y-89085150D01*
X60373818Y-89214622D01*
X60389327Y-89343142D01*
X60425219Y-89467139D01*
X60481475Y-89583042D01*
X60558075Y-89687281D01*
X60654998Y-89776285D01*
X60772226Y-89846483D01*
X60779087Y-89849702D01*
X60826822Y-89873341D01*
X60851776Y-89889935D01*
X60858522Y-89903638D01*
X60851636Y-89918606D01*
X60849174Y-89921933D01*
X60830017Y-89946974D01*
X60795513Y-89991595D01*
X60748145Y-90052599D01*
X60690398Y-90126792D01*
X60624754Y-90210976D01*
X60553698Y-90301956D01*
X60497991Y-90372953D01*
X60424043Y-90465934D01*
X60365911Y-90537067D01*
X60322292Y-90587849D01*
X60291884Y-90619777D01*
X60273385Y-90634346D01*
X60265491Y-90633054D01*
X60261846Y-90617265D01*
X60252799Y-90573712D01*
X60238942Y-90505070D01*
X60220745Y-90413737D01*
X60198681Y-90302109D01*
X60173223Y-90172585D01*
X60144843Y-90027563D01*
X60114013Y-89869439D01*
X60081206Y-89700612D01*
X60046893Y-89523478D01*
X59837336Y-88439977D01*
X59534744Y-88440109D01*
X59232152Y-88440242D01*
X59014560Y-89176286D01*
X59004578Y-89210036D01*
X58962151Y-89353166D01*
X58922079Y-89487839D01*
X58885244Y-89611123D01*
X58852528Y-89720088D01*
X58824813Y-89811803D01*
X58802981Y-89883337D01*
X58787914Y-89931760D01*
X58780493Y-89954141D01*
X58779495Y-89956449D01*
X58774934Y-89961591D01*
X58768945Y-89958612D01*
X58760831Y-89945423D01*
X58749893Y-89919936D01*
X58735432Y-89880063D01*
X58716751Y-89823714D01*
X58693149Y-89748802D01*
X58663930Y-89653237D01*
X58628395Y-89534930D01*
X58585844Y-89391794D01*
X58535581Y-89221739D01*
X58307143Y-88447527D01*
X58004403Y-88443443D01*
X57701663Y-88439358D01*
X57685749Y-88518948D01*
X57678625Y-88554850D01*
X57665293Y-88622660D01*
X57647915Y-88711500D01*
X57627036Y-88818554D01*
X57603201Y-88941006D01*
X57576954Y-89076042D01*
X57548841Y-89220847D01*
X57519407Y-89372604D01*
X57489196Y-89528498D01*
X57458753Y-89685714D01*
X57428624Y-89841437D01*
X57399353Y-89992851D01*
X57371485Y-90137140D01*
X57345564Y-90271490D01*
X57322137Y-90393085D01*
X57301747Y-90499110D01*
X57284940Y-90586749D01*
X57272260Y-90653186D01*
X57264253Y-90695607D01*
X57261462Y-90711196D01*
X56099483Y-90711196D01*
X56099418Y-90692003D01*
X56099080Y-90525914D01*
X56098865Y-90336393D01*
X56098744Y-90121747D01*
X56098691Y-89880283D01*
X56098680Y-89610310D01*
X56098681Y-89520502D01*
X56098703Y-89259857D01*
X56098774Y-89027180D01*
X56098922Y-88820778D01*
X56099174Y-88638957D01*
X56099556Y-88480027D01*
X56100096Y-88342295D01*
X56100820Y-88224069D01*
X56101755Y-88123656D01*
X56102929Y-88039363D01*
X56104368Y-87969500D01*
X56106099Y-87912373D01*
X56108149Y-87866290D01*
X56110545Y-87829559D01*
X56113314Y-87800488D01*
X56116483Y-87777384D01*
X56120079Y-87758555D01*
X56124129Y-87742308D01*
X56128659Y-87726952D01*
X56183944Y-87594912D01*
X56265168Y-87473700D01*
X56367892Y-87370572D01*
X56488914Y-87288723D01*
X56625033Y-87231349D01*
X56632112Y-87229243D01*
X56640426Y-87227095D01*
X56650255Y-87225061D01*
X56662395Y-87223138D01*
X56677642Y-87221324D01*
X56696795Y-87219615D01*
X56720649Y-87218009D01*
X56750002Y-87216501D01*
X56785650Y-87215089D01*
X56828391Y-87213770D01*
X56879021Y-87212540D01*
X56938337Y-87211397D01*
X57007136Y-87210337D01*
X57086215Y-87209357D01*
X57176371Y-87208454D01*
X57278401Y-87207625D01*
X57393101Y-87206866D01*
X57521268Y-87206175D01*
X57663700Y-87205549D01*
X57821194Y-87204983D01*
X57994545Y-87204476D01*
X58184551Y-87204023D01*
X58392010Y-87203623D01*
X58617717Y-87203271D01*
X58862470Y-87202964D01*
X59127065Y-87202700D01*
X59412300Y-87202475D01*
X59718971Y-87202286D01*
X60047876Y-87202130D01*
X60399811Y-87202004D01*
X60775572Y-87201904D01*
X61175958Y-87201828D01*
X61601764Y-87201773D01*
X62053788Y-87201734D01*
X62532827Y-87201710D01*
X63039677Y-87201696D01*
X63575136Y-87201690D01*
X64140000Y-87201689D01*
X64181494Y-87201689D01*
X64744187Y-87201690D01*
X65277533Y-87201696D01*
X65782328Y-87201709D01*
X66259368Y-87201733D01*
X66709452Y-87201771D01*
X67133377Y-87201826D01*
X67531938Y-87201902D01*
X67905934Y-87202001D01*
X68256161Y-87202126D01*
X68583416Y-87202282D01*
X68888497Y-87202471D01*
X69172200Y-87202695D01*
X69435323Y-87202960D01*
X69678662Y-87203266D01*
X69903015Y-87203619D01*
X70109178Y-87204020D01*
X70297949Y-87204474D01*
X70470125Y-87204983D01*
X70626502Y-87205550D01*
X70767878Y-87206179D01*
X70895050Y-87206873D01*
X71008815Y-87207635D01*
X71109969Y-87208468D01*
X71199311Y-87209375D01*
X71277636Y-87210360D01*
X71345742Y-87211426D01*
X71404427Y-87212575D01*
X71454486Y-87213812D01*
X71496717Y-87215139D01*
X71531918Y-87216559D01*
X71560885Y-87218077D01*
X71584415Y-87219693D01*
X71603305Y-87221413D01*
X71618352Y-87223239D01*
X71630354Y-87225174D01*
X71640107Y-87227222D01*
X71648409Y-87229386D01*
X71656056Y-87231668D01*
X71788096Y-87286952D01*
X71909308Y-87368177D01*
X72012437Y-87470901D01*
X72094285Y-87591923D01*
X72151659Y-87728042D01*
X72152822Y-87731839D01*
X72157184Y-87747193D01*
X72161077Y-87763999D01*
X72164528Y-87783947D01*
X72167563Y-87808728D01*
X72170208Y-87840035D01*
X72172492Y-87879558D01*
X72174439Y-87928989D01*
X72176077Y-87990018D01*
X72177433Y-88064338D01*
X72178533Y-88153638D01*
X72179025Y-88213461D01*
X72179404Y-88259611D01*
G37*
G04 #@! TD*
M02*
