G04 #@! TF.GenerationSoftware,KiCad,Pcbnew,7.0.5-0*
G04 #@! TF.CreationDate,2023-07-21T18:28:43+08:00*
G04 #@! TF.ProjectId,slimarm_hypericum,736c696d-6172-46d5-9f68-797065726963,rev?*
G04 #@! TF.SameCoordinates,Original*
G04 #@! TF.FileFunction,Legend,Top*
G04 #@! TF.FilePolarity,Positive*
%FSLAX46Y46*%
G04 Gerber Fmt 4.6, Leading zero omitted, Abs format (unit mm)*
G04 Created by KiCad (PCBNEW 7.0.5-0) date 2023-07-21 18:28:43*
%MOMM*%
%LPD*%
G01*
G04 APERTURE LIST*
%ADD10C,0.150000*%
%ADD11C,0.177800*%
%ADD12C,0.120000*%
%ADD13C,0.152400*%
%ADD14C,0.200000*%
G04 APERTURE END LIST*
D10*
X50770000Y-99470000D02*
X51110000Y-99120000D01*
X49980000Y-99490000D02*
X51100000Y-98350000D01*
X50410000Y-99480000D02*
X51100000Y-98770000D01*
D11*
X69457555Y-80470141D02*
X69421269Y-80542713D01*
X69421269Y-80542713D02*
X69421269Y-80651570D01*
X69421269Y-80651570D02*
X69457555Y-80760427D01*
X69457555Y-80760427D02*
X69530126Y-80832998D01*
X69530126Y-80832998D02*
X69602698Y-80869284D01*
X69602698Y-80869284D02*
X69747841Y-80905570D01*
X69747841Y-80905570D02*
X69856698Y-80905570D01*
X69856698Y-80905570D02*
X70001841Y-80869284D01*
X70001841Y-80869284D02*
X70074412Y-80832998D01*
X70074412Y-80832998D02*
X70146984Y-80760427D01*
X70146984Y-80760427D02*
X70183269Y-80651570D01*
X70183269Y-80651570D02*
X70183269Y-80578998D01*
X70183269Y-80578998D02*
X70146984Y-80470141D01*
X70146984Y-80470141D02*
X70110698Y-80433855D01*
X70110698Y-80433855D02*
X69856698Y-80433855D01*
X69856698Y-80433855D02*
X69856698Y-80578998D01*
X70183269Y-80107284D02*
X69421269Y-80107284D01*
X69421269Y-80107284D02*
X70183269Y-79671855D01*
X70183269Y-79671855D02*
X69421269Y-79671855D01*
X70183269Y-79308998D02*
X69421269Y-79308998D01*
X69421269Y-79308998D02*
X69421269Y-79127569D01*
X69421269Y-79127569D02*
X69457555Y-79018712D01*
X69457555Y-79018712D02*
X69530126Y-78946141D01*
X69530126Y-78946141D02*
X69602698Y-78909855D01*
X69602698Y-78909855D02*
X69747841Y-78873569D01*
X69747841Y-78873569D02*
X69856698Y-78873569D01*
X69856698Y-78873569D02*
X70001841Y-78909855D01*
X70001841Y-78909855D02*
X70074412Y-78946141D01*
X70074412Y-78946141D02*
X70146984Y-79018712D01*
X70146984Y-79018712D02*
X70183269Y-79127569D01*
X70183269Y-79127569D02*
X70183269Y-79308998D01*
X70183269Y-77530998D02*
X69820412Y-77784998D01*
X70183269Y-77966427D02*
X69421269Y-77966427D01*
X69421269Y-77966427D02*
X69421269Y-77676141D01*
X69421269Y-77676141D02*
X69457555Y-77603570D01*
X69457555Y-77603570D02*
X69493841Y-77567284D01*
X69493841Y-77567284D02*
X69566412Y-77530998D01*
X69566412Y-77530998D02*
X69675269Y-77530998D01*
X69675269Y-77530998D02*
X69747841Y-77567284D01*
X69747841Y-77567284D02*
X69784126Y-77603570D01*
X69784126Y-77603570D02*
X69820412Y-77676141D01*
X69820412Y-77676141D02*
X69820412Y-77966427D01*
X69421269Y-77276998D02*
X70183269Y-76768998D01*
X69421269Y-76768998D02*
X70183269Y-77276998D01*
X70183269Y-76478713D02*
X69421269Y-76478713D01*
X69421269Y-76478713D02*
X69421269Y-76297284D01*
X69421269Y-76297284D02*
X69457555Y-76188427D01*
X69457555Y-76188427D02*
X69530126Y-76115856D01*
X69530126Y-76115856D02*
X69602698Y-76079570D01*
X69602698Y-76079570D02*
X69747841Y-76043284D01*
X69747841Y-76043284D02*
X69856698Y-76043284D01*
X69856698Y-76043284D02*
X70001841Y-76079570D01*
X70001841Y-76079570D02*
X70074412Y-76115856D01*
X70074412Y-76115856D02*
X70146984Y-76188427D01*
X70146984Y-76188427D02*
X70183269Y-76297284D01*
X70183269Y-76297284D02*
X70183269Y-76478713D01*
X69421269Y-75244999D02*
X69421269Y-74809571D01*
X70183269Y-75027285D02*
X69421269Y-75027285D01*
X69421269Y-74628142D02*
X70183269Y-74120142D01*
X69421269Y-74120142D02*
X70183269Y-74628142D01*
X70183269Y-73829857D02*
X69421269Y-73829857D01*
X69421269Y-73829857D02*
X69421269Y-73648428D01*
X69421269Y-73648428D02*
X69457555Y-73539571D01*
X69457555Y-73539571D02*
X69530126Y-73467000D01*
X69530126Y-73467000D02*
X69602698Y-73430714D01*
X69602698Y-73430714D02*
X69747841Y-73394428D01*
X69747841Y-73394428D02*
X69856698Y-73394428D01*
X69856698Y-73394428D02*
X70001841Y-73430714D01*
X70001841Y-73430714D02*
X70074412Y-73467000D01*
X70074412Y-73467000D02*
X70146984Y-73539571D01*
X70146984Y-73539571D02*
X70183269Y-73648428D01*
X70183269Y-73648428D02*
X70183269Y-73829857D01*
X57068000Y-98761269D02*
X57213143Y-98761269D01*
X57213143Y-98761269D02*
X57285714Y-98797555D01*
X57285714Y-98797555D02*
X57358286Y-98870126D01*
X57358286Y-98870126D02*
X57394571Y-99015269D01*
X57394571Y-99015269D02*
X57394571Y-99269269D01*
X57394571Y-99269269D02*
X57358286Y-99414412D01*
X57358286Y-99414412D02*
X57285714Y-99486984D01*
X57285714Y-99486984D02*
X57213143Y-99523269D01*
X57213143Y-99523269D02*
X57068000Y-99523269D01*
X57068000Y-99523269D02*
X56995429Y-99486984D01*
X56995429Y-99486984D02*
X56922857Y-99414412D01*
X56922857Y-99414412D02*
X56886571Y-99269269D01*
X56886571Y-99269269D02*
X56886571Y-99015269D01*
X56886571Y-99015269D02*
X56922857Y-98870126D01*
X56922857Y-98870126D02*
X56995429Y-98797555D01*
X56995429Y-98797555D02*
X57068000Y-98761269D01*
X57721143Y-98761269D02*
X57721143Y-99378126D01*
X57721143Y-99378126D02*
X57757429Y-99450698D01*
X57757429Y-99450698D02*
X57793715Y-99486984D01*
X57793715Y-99486984D02*
X57866286Y-99523269D01*
X57866286Y-99523269D02*
X58011429Y-99523269D01*
X58011429Y-99523269D02*
X58084000Y-99486984D01*
X58084000Y-99486984D02*
X58120286Y-99450698D01*
X58120286Y-99450698D02*
X58156572Y-99378126D01*
X58156572Y-99378126D02*
X58156572Y-98761269D01*
X58410572Y-98761269D02*
X58846001Y-98761269D01*
X58628286Y-99523269D02*
X58628286Y-98761269D01*
X65158999Y-105632140D02*
X65158999Y-105087854D01*
X65158999Y-105087854D02*
X65195284Y-104978997D01*
X65195284Y-104978997D02*
X65267856Y-104906426D01*
X65267856Y-104906426D02*
X65376713Y-104870140D01*
X65376713Y-104870140D02*
X65449284Y-104870140D01*
X64904999Y-105632140D02*
X64469571Y-105632140D01*
X64687285Y-104870140D02*
X64687285Y-105632140D01*
X64251857Y-105087854D02*
X63889000Y-105087854D01*
X64324428Y-104870140D02*
X64070428Y-105632140D01*
X64070428Y-105632140D02*
X63816428Y-104870140D01*
X63163285Y-105595854D02*
X63235857Y-105632140D01*
X63235857Y-105632140D02*
X63344714Y-105632140D01*
X63344714Y-105632140D02*
X63453571Y-105595854D01*
X63453571Y-105595854D02*
X63526142Y-105523283D01*
X63526142Y-105523283D02*
X63562428Y-105450711D01*
X63562428Y-105450711D02*
X63598714Y-105305568D01*
X63598714Y-105305568D02*
X63598714Y-105196711D01*
X63598714Y-105196711D02*
X63562428Y-105051568D01*
X63562428Y-105051568D02*
X63526142Y-104978997D01*
X63526142Y-104978997D02*
X63453571Y-104906426D01*
X63453571Y-104906426D02*
X63344714Y-104870140D01*
X63344714Y-104870140D02*
X63272142Y-104870140D01*
X63272142Y-104870140D02*
X63163285Y-104906426D01*
X63163285Y-104906426D02*
X63126999Y-104942711D01*
X63126999Y-104942711D02*
X63126999Y-105196711D01*
X63126999Y-105196711D02*
X63272142Y-105196711D01*
X68352141Y-103643320D02*
X68352141Y-104405320D01*
X67408713Y-103643320D02*
X67408713Y-104405320D01*
X67408713Y-104405320D02*
X67154713Y-103861034D01*
X67154713Y-103861034D02*
X66900713Y-104405320D01*
X66900713Y-104405320D02*
X66900713Y-103643320D01*
X65521856Y-103643320D02*
X65775856Y-104006177D01*
X65957285Y-103643320D02*
X65957285Y-104405320D01*
X65957285Y-104405320D02*
X65666999Y-104405320D01*
X65666999Y-104405320D02*
X65594428Y-104369034D01*
X65594428Y-104369034D02*
X65558142Y-104332748D01*
X65558142Y-104332748D02*
X65521856Y-104260177D01*
X65521856Y-104260177D02*
X65521856Y-104151320D01*
X65521856Y-104151320D02*
X65558142Y-104078748D01*
X65558142Y-104078748D02*
X65594428Y-104042463D01*
X65594428Y-104042463D02*
X65666999Y-104006177D01*
X65666999Y-104006177D02*
X65957285Y-104006177D01*
X64469571Y-104405320D02*
X64324428Y-104405320D01*
X64324428Y-104405320D02*
X64251857Y-104369034D01*
X64251857Y-104369034D02*
X64179285Y-104296463D01*
X64179285Y-104296463D02*
X64143000Y-104151320D01*
X64143000Y-104151320D02*
X64143000Y-103897320D01*
X64143000Y-103897320D02*
X64179285Y-103752177D01*
X64179285Y-103752177D02*
X64251857Y-103679606D01*
X64251857Y-103679606D02*
X64324428Y-103643320D01*
X64324428Y-103643320D02*
X64469571Y-103643320D01*
X64469571Y-103643320D02*
X64542143Y-103679606D01*
X64542143Y-103679606D02*
X64614714Y-103752177D01*
X64614714Y-103752177D02*
X64651000Y-103897320D01*
X64651000Y-103897320D02*
X64651000Y-104151320D01*
X64651000Y-104151320D02*
X64614714Y-104296463D01*
X64614714Y-104296463D02*
X64542143Y-104369034D01*
X64542143Y-104369034D02*
X64469571Y-104405320D01*
X62800428Y-103715891D02*
X62836714Y-103679606D01*
X62836714Y-103679606D02*
X62945571Y-103643320D01*
X62945571Y-103643320D02*
X63018143Y-103643320D01*
X63018143Y-103643320D02*
X63127000Y-103679606D01*
X63127000Y-103679606D02*
X63199571Y-103752177D01*
X63199571Y-103752177D02*
X63235857Y-103824748D01*
X63235857Y-103824748D02*
X63272143Y-103969891D01*
X63272143Y-103969891D02*
X63272143Y-104078748D01*
X63272143Y-104078748D02*
X63235857Y-104223891D01*
X63235857Y-104223891D02*
X63199571Y-104296463D01*
X63199571Y-104296463D02*
X63127000Y-104369034D01*
X63127000Y-104369034D02*
X63018143Y-104405320D01*
X63018143Y-104405320D02*
X62945571Y-104405320D01*
X62945571Y-104405320D02*
X62836714Y-104369034D01*
X62836714Y-104369034D02*
X62800428Y-104332748D01*
X61965857Y-104405320D02*
X61494143Y-104405320D01*
X61494143Y-104405320D02*
X61748143Y-104115034D01*
X61748143Y-104115034D02*
X61639286Y-104115034D01*
X61639286Y-104115034D02*
X61566715Y-104078748D01*
X61566715Y-104078748D02*
X61530429Y-104042463D01*
X61530429Y-104042463D02*
X61494143Y-103969891D01*
X61494143Y-103969891D02*
X61494143Y-103788463D01*
X61494143Y-103788463D02*
X61530429Y-103715891D01*
X61530429Y-103715891D02*
X61566715Y-103679606D01*
X61566715Y-103679606D02*
X61639286Y-103643320D01*
X61639286Y-103643320D02*
X61857000Y-103643320D01*
X61857000Y-103643320D02*
X61929572Y-103679606D01*
X61929572Y-103679606D02*
X61965857Y-103715891D01*
X60187858Y-104369034D02*
X60260430Y-104405320D01*
X60260430Y-104405320D02*
X60369287Y-104405320D01*
X60369287Y-104405320D02*
X60478144Y-104369034D01*
X60478144Y-104369034D02*
X60550715Y-104296463D01*
X60550715Y-104296463D02*
X60587001Y-104223891D01*
X60587001Y-104223891D02*
X60623287Y-104078748D01*
X60623287Y-104078748D02*
X60623287Y-103969891D01*
X60623287Y-103969891D02*
X60587001Y-103824748D01*
X60587001Y-103824748D02*
X60550715Y-103752177D01*
X60550715Y-103752177D02*
X60478144Y-103679606D01*
X60478144Y-103679606D02*
X60369287Y-103643320D01*
X60369287Y-103643320D02*
X60296715Y-103643320D01*
X60296715Y-103643320D02*
X60187858Y-103679606D01*
X60187858Y-103679606D02*
X60151572Y-103715891D01*
X60151572Y-103715891D02*
X60151572Y-103969891D01*
X60151572Y-103969891D02*
X60296715Y-103969891D01*
X54400857Y-99543269D02*
X54400857Y-98781269D01*
X54763714Y-99543269D02*
X54763714Y-98781269D01*
X54763714Y-98781269D02*
X55199143Y-99543269D01*
X55199143Y-99543269D02*
X55199143Y-98781269D01*
D10*
G04 #@! TO.C,U5*
X28720000Y-75824819D02*
X28720000Y-76062914D01*
X28481905Y-75967676D02*
X28720000Y-76062914D01*
X28720000Y-76062914D02*
X28958095Y-75967676D01*
X28577143Y-76253390D02*
X28720000Y-76062914D01*
X28720000Y-76062914D02*
X28862857Y-76253390D01*
X29869999Y-77015180D02*
X29869999Y-76777085D01*
X30108094Y-76872323D02*
X29869999Y-76777085D01*
X29869999Y-76777085D02*
X29631904Y-76872323D01*
X30012856Y-76586609D02*
X29869999Y-76777085D01*
X29869999Y-76777085D02*
X29727142Y-76586609D01*
G04 #@! TO.C,U8*
X45040000Y-73524819D02*
X45040000Y-73762914D01*
X44801905Y-73667676D02*
X45040000Y-73762914D01*
X45040000Y-73762914D02*
X45278095Y-73667676D01*
X44897143Y-73953390D02*
X45040000Y-73762914D01*
X45040000Y-73762914D02*
X45182857Y-73953390D01*
X45040000Y-73524819D02*
X45040000Y-73762914D01*
X44801905Y-73667676D02*
X45040000Y-73762914D01*
X45040000Y-73762914D02*
X45278095Y-73667676D01*
X44897143Y-73953390D02*
X45040000Y-73762914D01*
X45040000Y-73762914D02*
X45182857Y-73953390D01*
G04 #@! TO.C,U2*
X62874286Y-95234819D02*
X63445714Y-95234819D01*
X63160000Y-96234819D02*
X63160000Y-95234819D01*
X62921905Y-83949105D02*
X63398095Y-83949105D01*
X62826667Y-84234820D02*
X63160000Y-83234820D01*
X63160000Y-83234820D02*
X63493333Y-84234820D01*
X63160000Y-81494819D02*
X63160000Y-81732914D01*
X62921905Y-81637676D02*
X63160000Y-81732914D01*
X63160000Y-81732914D02*
X63398095Y-81637676D01*
X63017143Y-81923390D02*
X63160000Y-81732914D01*
X63160000Y-81732914D02*
X63302857Y-81923390D01*
X63812686Y-82079671D02*
X63812686Y-82651099D01*
X63812686Y-82365385D02*
X62812686Y-82365385D01*
X62812686Y-82365385D02*
X62955543Y-82460623D01*
X62955543Y-82460623D02*
X63050781Y-82555861D01*
X63050781Y-82555861D02*
X63098400Y-82651099D01*
X68782786Y-82565749D02*
X68782786Y-82375273D01*
X68782786Y-82375273D02*
X68735167Y-82280035D01*
X68735167Y-82280035D02*
X68687547Y-82232416D01*
X68687547Y-82232416D02*
X68544690Y-82137178D01*
X68544690Y-82137178D02*
X68354214Y-82089559D01*
X68354214Y-82089559D02*
X67973262Y-82089559D01*
X67973262Y-82089559D02*
X67878024Y-82137178D01*
X67878024Y-82137178D02*
X67830405Y-82184797D01*
X67830405Y-82184797D02*
X67782786Y-82280035D01*
X67782786Y-82280035D02*
X67782786Y-82470511D01*
X67782786Y-82470511D02*
X67830405Y-82565749D01*
X67830405Y-82565749D02*
X67878024Y-82613368D01*
X67878024Y-82613368D02*
X67973262Y-82660987D01*
X67973262Y-82660987D02*
X68211357Y-82660987D01*
X68211357Y-82660987D02*
X68306595Y-82613368D01*
X68306595Y-82613368D02*
X68354214Y-82565749D01*
X68354214Y-82565749D02*
X68401833Y-82470511D01*
X68401833Y-82470511D02*
X68401833Y-82280035D01*
X68401833Y-82280035D02*
X68354214Y-82184797D01*
X68354214Y-82184797D02*
X68306595Y-82137178D01*
X68306595Y-82137178D02*
X68211357Y-82089559D01*
G04 #@! TO.C,U4*
X48120000Y-102294819D02*
X48120000Y-102532914D01*
X47881905Y-102437676D02*
X48120000Y-102532914D01*
X48120000Y-102532914D02*
X48358095Y-102437676D01*
X47977143Y-102723390D02*
X48120000Y-102532914D01*
X48120000Y-102532914D02*
X48262857Y-102723390D01*
X49350000Y-102904819D02*
X49350000Y-103142914D01*
X49111905Y-103047676D02*
X49350000Y-103142914D01*
X49350000Y-103142914D02*
X49588095Y-103047676D01*
X49207143Y-103333390D02*
X49350000Y-103142914D01*
X49350000Y-103142914D02*
X49492857Y-103333390D01*
G04 #@! TO.C,J5*
X68720000Y-102904819D02*
X68720000Y-103142914D01*
X68481905Y-103047676D02*
X68720000Y-103142914D01*
X68720000Y-103142914D02*
X68958095Y-103047676D01*
X68577143Y-103333390D02*
X68720000Y-103142914D01*
X68720000Y-103142914D02*
X68862857Y-103333390D01*
G04 #@! TO.C,Y1*
X29381227Y-82452390D02*
X29857418Y-82452390D01*
X28857418Y-82785723D02*
X29381227Y-82452390D01*
X29381227Y-82452390D02*
X28857418Y-82119057D01*
X29857418Y-81261914D02*
X29857418Y-81833342D01*
X29857418Y-81547628D02*
X28857418Y-81547628D01*
X28857418Y-81547628D02*
X29000275Y-81642866D01*
X29000275Y-81642866D02*
X29095513Y-81738104D01*
X29095513Y-81738104D02*
X29143132Y-81833342D01*
G04 #@! TO.C,U3*
X29169999Y-105845180D02*
X29169999Y-105607085D01*
X29408094Y-105702323D02*
X29169999Y-105607085D01*
X29169999Y-105607085D02*
X28931904Y-105702323D01*
X29312856Y-105416609D02*
X29169999Y-105607085D01*
X29169999Y-105607085D02*
X29027142Y-105416609D01*
X30500000Y-105804819D02*
X30500000Y-106042914D01*
X30261905Y-105947676D02*
X30500000Y-106042914D01*
X30500000Y-106042914D02*
X30738095Y-105947676D01*
X30357143Y-106233390D02*
X30500000Y-106042914D01*
X30500000Y-106042914D02*
X30642857Y-106233390D01*
G04 #@! TO.C,R20*
X44630000Y-77910000D02*
X45060000Y-77910000D01*
X44630000Y-78910000D02*
X44630000Y-77910000D01*
X44630000Y-78910000D02*
X45060000Y-78910000D01*
X46830000Y-77910000D02*
X46400000Y-77910000D01*
X46830000Y-77910000D02*
X46830000Y-78910000D01*
X46830000Y-78910000D02*
X46400000Y-78910000D01*
G04 #@! TO.C,C57*
X43440000Y-79560000D02*
X43440000Y-79130000D01*
X44440000Y-79560000D02*
X43440000Y-79560000D01*
X44440000Y-79560000D02*
X44440000Y-79130000D01*
X43440000Y-77360000D02*
X43440000Y-77790000D01*
X43440000Y-77360000D02*
X44440000Y-77360000D01*
X44440000Y-77360000D02*
X44440000Y-77790000D01*
D12*
G04 #@! TO.C,U9*
X54000000Y-73210000D02*
X52000000Y-73210000D01*
X52700000Y-76330000D02*
X54000000Y-76330000D01*
D10*
G04 #@! TO.C,R32*
X69120000Y-76260000D02*
X68690000Y-76260000D01*
X69120000Y-75260000D02*
X69120000Y-76260000D01*
X69120000Y-75260000D02*
X68690000Y-75260000D01*
X66920000Y-76260000D02*
X67350000Y-76260000D01*
X66920000Y-76260000D02*
X66920000Y-75260000D01*
X66920000Y-75260000D02*
X67350000Y-75260000D01*
G04 #@! TO.C,R25*
X49700000Y-77080000D02*
X49270000Y-77080000D01*
X49700000Y-76080000D02*
X49700000Y-77080000D01*
X49700000Y-76080000D02*
X49270000Y-76080000D01*
X47500000Y-77080000D02*
X47930000Y-77080000D01*
X47500000Y-77080000D02*
X47500000Y-76080000D01*
X47500000Y-76080000D02*
X47930000Y-76080000D01*
G04 #@! TO.C,C16*
X51570000Y-99980000D02*
X51570000Y-100410000D01*
X50570000Y-99980000D02*
X51570000Y-99980000D01*
X50570000Y-99980000D02*
X50570000Y-100410000D01*
X51570000Y-102180000D02*
X51570000Y-101750000D01*
X51570000Y-102180000D02*
X50570000Y-102180000D01*
X50570000Y-102180000D02*
X50570000Y-101750000D01*
G04 #@! TO.C,C80*
X36630000Y-75480000D02*
X36200000Y-75480000D01*
X36630000Y-74480000D02*
X36630000Y-75480000D01*
X36630000Y-74480000D02*
X36200000Y-74480000D01*
X34430000Y-75480000D02*
X34860000Y-75480000D01*
X34430000Y-75480000D02*
X34430000Y-74480000D01*
X34430000Y-74480000D02*
X34860000Y-74480000D01*
G04 #@! TO.C,C61*
X51680000Y-98660000D02*
X52110000Y-98660000D01*
X51680000Y-99660000D02*
X51680000Y-98660000D01*
X51680000Y-99660000D02*
X52110000Y-99660000D01*
X53880000Y-98660000D02*
X53450000Y-98660000D01*
X53880000Y-98660000D02*
X53880000Y-99660000D01*
X53880000Y-99660000D02*
X53450000Y-99660000D01*
G04 #@! TO.C,C33*
X29750000Y-100210000D02*
X29750000Y-100640000D01*
X28750000Y-100210000D02*
X29750000Y-100210000D01*
X28750000Y-100210000D02*
X28750000Y-100640000D01*
X29750000Y-102410000D02*
X29750000Y-101980000D01*
X29750000Y-102410000D02*
X28750000Y-102410000D01*
X28750000Y-102410000D02*
X28750000Y-101980000D01*
D13*
G04 #@! TO.C,U5*
X29417900Y-73253600D02*
X27462100Y-73253600D01*
X27462100Y-76606400D02*
X29417900Y-76606400D01*
X27462100Y-74541339D02*
X27462100Y-75318661D01*
D10*
G04 #@! TO.C,R15*
X64930000Y-73102000D02*
X64930000Y-73532000D01*
X64525000Y-73102000D02*
X64930000Y-73102000D01*
X63630000Y-73102000D02*
X64025000Y-73102000D01*
X63630000Y-73102000D02*
X63630000Y-73532000D01*
X64930000Y-76102000D02*
X64930000Y-75672000D01*
X64930000Y-76102000D02*
X64530000Y-76102000D01*
X64025000Y-76102000D02*
X63630000Y-76102000D01*
X63630000Y-76102000D02*
X63630000Y-75672000D01*
G04 #@! TO.C,C46*
X44460000Y-102120000D02*
X44460000Y-101690000D01*
X45460000Y-102120000D02*
X44460000Y-102120000D01*
X45460000Y-102120000D02*
X45460000Y-101690000D01*
X44460000Y-99920000D02*
X44460000Y-100350000D01*
X44460000Y-99920000D02*
X45460000Y-99920000D01*
X45460000Y-99920000D02*
X45460000Y-100350000D01*
G04 #@! TO.C,C42*
X73210000Y-93300000D02*
X73210000Y-93730000D01*
X72210000Y-93300000D02*
X73210000Y-93300000D01*
X72210000Y-93300000D02*
X72210000Y-93730000D01*
X73210000Y-95500000D02*
X73210000Y-95070000D01*
X73210000Y-95500000D02*
X72210000Y-95500000D01*
X72210000Y-95500000D02*
X72210000Y-95070000D01*
G04 #@! TO.C,C7*
X31270000Y-81980000D02*
X30840000Y-81980000D01*
X31270000Y-80980000D02*
X31270000Y-81980000D01*
X31270000Y-80980000D02*
X30840000Y-80980000D01*
X29070000Y-81980000D02*
X29500000Y-81980000D01*
X29070000Y-81980000D02*
X29070000Y-80980000D01*
X29070000Y-80980000D02*
X29500000Y-80980000D01*
G04 #@! TO.C,C8*
X31240000Y-80710000D02*
X30810000Y-80710000D01*
X31240000Y-79710000D02*
X31240000Y-80710000D01*
X31240000Y-79710000D02*
X30810000Y-79710000D01*
X29040000Y-80710000D02*
X29470000Y-80710000D01*
X29040000Y-80710000D02*
X29040000Y-79710000D01*
X29040000Y-79710000D02*
X29470000Y-79710000D01*
G04 #@! TO.C,C30*
X33690000Y-100010000D02*
X33690000Y-100440000D01*
X32690000Y-100010000D02*
X33690000Y-100010000D01*
X32690000Y-100010000D02*
X32690000Y-100440000D01*
X33690000Y-102210000D02*
X33690000Y-101780000D01*
X33690000Y-102210000D02*
X32690000Y-102210000D01*
X32690000Y-102210000D02*
X32690000Y-101780000D01*
G04 #@! TO.C,C24*
X54190000Y-103970000D02*
X54190000Y-104400000D01*
X53190000Y-103970000D02*
X54190000Y-103970000D01*
X53190000Y-103970000D02*
X53190000Y-104400000D01*
X54190000Y-106170000D02*
X54190000Y-105740000D01*
X54190000Y-106170000D02*
X53190000Y-106170000D01*
X53190000Y-106170000D02*
X53190000Y-105740000D01*
G04 #@! TO.C,C21*
X34410000Y-75690000D02*
X34840000Y-75690000D01*
X34410000Y-76690000D02*
X34410000Y-75690000D01*
X34410000Y-76690000D02*
X34840000Y-76690000D01*
X36610000Y-75690000D02*
X36180000Y-75690000D01*
X36610000Y-75690000D02*
X36610000Y-76690000D01*
X36610000Y-76690000D02*
X36180000Y-76690000D01*
G04 #@! TO.C,C36*
X30910000Y-97520000D02*
X30480000Y-97520000D01*
X30910000Y-96520000D02*
X30910000Y-97520000D01*
X30910000Y-96520000D02*
X30480000Y-96520000D01*
X28710000Y-97520000D02*
X29140000Y-97520000D01*
X28710000Y-97520000D02*
X28710000Y-96520000D01*
X28710000Y-96520000D02*
X29140000Y-96520000D01*
G04 #@! TO.C,C32*
X31100000Y-100250000D02*
X31100000Y-100680000D01*
X30100000Y-100250000D02*
X31100000Y-100250000D01*
X30100000Y-100250000D02*
X30100000Y-100680000D01*
X31100000Y-102450000D02*
X31100000Y-102020000D01*
X31100000Y-102450000D02*
X30100000Y-102450000D01*
X30100000Y-102450000D02*
X30100000Y-102020000D01*
G04 #@! TO.C,R14*
X71930000Y-100800000D02*
X71930000Y-101230000D01*
X70930000Y-100800000D02*
X71930000Y-100800000D01*
X70930000Y-100800000D02*
X70930000Y-101230000D01*
X71930000Y-103000000D02*
X71930000Y-102570000D01*
X71930000Y-103000000D02*
X70930000Y-103000000D01*
X70930000Y-103000000D02*
X70930000Y-102570000D01*
G04 #@! TO.C,R8*
X23780000Y-105610000D02*
X23780000Y-105180000D01*
X24185000Y-105610000D02*
X23780000Y-105610000D01*
X25080000Y-105610000D02*
X24685000Y-105610000D01*
X25080000Y-105610000D02*
X25080000Y-105180000D01*
X23780000Y-102610000D02*
X23780000Y-103040000D01*
X23780000Y-102610000D02*
X24180000Y-102610000D01*
X24685000Y-102610000D02*
X25080000Y-102610000D01*
X25080000Y-102610000D02*
X25080000Y-103040000D01*
G04 #@! TO.C,C82*
X61970000Y-73122000D02*
X61970000Y-73552000D01*
X60970000Y-73122000D02*
X61970000Y-73122000D01*
X60970000Y-73122000D02*
X60970000Y-73552000D01*
X61970000Y-75322000D02*
X61970000Y-74892000D01*
X61970000Y-75322000D02*
X60970000Y-75322000D01*
X60970000Y-75322000D02*
X60970000Y-74892000D01*
G04 #@! TO.C,C55*
X40880000Y-79560000D02*
X40880000Y-79130000D01*
X41880000Y-79560000D02*
X40880000Y-79560000D01*
X41880000Y-79560000D02*
X41880000Y-79130000D01*
X40880000Y-77360000D02*
X40880000Y-77790000D01*
X40880000Y-77360000D02*
X41880000Y-77360000D01*
X41880000Y-77360000D02*
X41880000Y-77790000D01*
D12*
G04 #@! TO.C,D2*
X59790000Y-101325000D02*
X59790000Y-99855000D01*
X59790000Y-99855000D02*
X57330000Y-99855000D01*
X57330000Y-101325000D02*
X59790000Y-101325000D01*
D13*
G04 #@! TO.C,U8*
X44332100Y-76586400D02*
X46287900Y-76586400D01*
X46287900Y-73233600D02*
X44332100Y-73233600D01*
X46287900Y-75298661D02*
X46287900Y-74521339D01*
D10*
G04 #@! TO.C,C2*
X36890000Y-73170000D02*
X37320000Y-73170000D01*
X36890000Y-74170000D02*
X36890000Y-73170000D01*
X36890000Y-74170000D02*
X37320000Y-74170000D01*
X39090000Y-73170000D02*
X38660000Y-73170000D01*
X39090000Y-73170000D02*
X39090000Y-74170000D01*
X39090000Y-74170000D02*
X38660000Y-74170000D01*
D12*
G04 #@! TO.C,D1*
X53030000Y-99855000D02*
X53030000Y-101325000D01*
X53030000Y-101325000D02*
X55490000Y-101325000D01*
X55490000Y-99855000D02*
X53030000Y-99855000D01*
D10*
G04 #@! TO.C,C13*
X35030000Y-79560000D02*
X35030000Y-79130000D01*
X36030000Y-79560000D02*
X35030000Y-79560000D01*
X36030000Y-79560000D02*
X36030000Y-79130000D01*
X35030000Y-77360000D02*
X35030000Y-77790000D01*
X35030000Y-77360000D02*
X36030000Y-77360000D01*
X36030000Y-77360000D02*
X36030000Y-77790000D01*
G04 #@! TO.C,C38*
X73120000Y-82600000D02*
X72690000Y-82600000D01*
X73120000Y-81600000D02*
X73120000Y-82600000D01*
X73120000Y-81600000D02*
X72690000Y-81600000D01*
X70920000Y-82600000D02*
X71350000Y-82600000D01*
X70920000Y-82600000D02*
X70920000Y-81600000D01*
X70920000Y-81600000D02*
X71350000Y-81600000D01*
D12*
G04 #@! TO.C,J1*
X27490000Y-84930000D02*
X25490000Y-84930000D01*
X23590000Y-84930000D02*
X21690000Y-84930000D01*
X21690000Y-84930000D02*
X21690000Y-94330000D01*
X27490000Y-94330000D02*
X25490000Y-94330000D01*
X23590000Y-94330000D02*
X21690000Y-94330000D01*
D10*
G04 #@! TO.C,C3*
X36910000Y-74430000D02*
X37340000Y-74430000D01*
X36910000Y-75430000D02*
X36910000Y-74430000D01*
X36910000Y-75430000D02*
X37340000Y-75430000D01*
X39110000Y-74430000D02*
X38680000Y-74430000D01*
X39110000Y-74430000D02*
X39110000Y-75430000D01*
X39110000Y-75430000D02*
X38680000Y-75430000D01*
G04 #@! TO.C,R24*
X62330000Y-100690000D02*
X61900000Y-100690000D01*
X62330000Y-99690000D02*
X62330000Y-100690000D01*
X62330000Y-99690000D02*
X61900000Y-99690000D01*
X60130000Y-100690000D02*
X60560000Y-100690000D01*
X60130000Y-100690000D02*
X60130000Y-99690000D01*
X60130000Y-99690000D02*
X60560000Y-99690000D01*
G04 #@! TO.C,R4*
X28760000Y-95280000D02*
X29190000Y-95280000D01*
X28760000Y-96280000D02*
X28760000Y-95280000D01*
X28760000Y-96280000D02*
X29190000Y-96280000D01*
X30960000Y-95280000D02*
X30530000Y-95280000D01*
X30960000Y-95280000D02*
X30960000Y-96280000D01*
X30960000Y-96280000D02*
X30530000Y-96280000D01*
D12*
G04 #@! TO.C,U2*
X63850000Y-86930016D02*
X63596000Y-86930016D01*
X63850000Y-90930008D02*
X63596000Y-90930008D01*
X63850000Y-94930000D02*
X63596000Y-94930000D01*
X63970000Y-96540000D02*
X71970000Y-96540000D01*
X67970000Y-83034400D02*
X67970000Y-82780400D01*
X67970000Y-96445600D02*
X67970000Y-96699600D01*
X71970000Y-82940000D02*
X63970000Y-82940000D01*
X71970000Y-86890016D02*
X72224000Y-86890016D01*
X71970000Y-90890008D02*
X72224000Y-90890008D01*
X71970000Y-94890000D02*
X72224000Y-94890000D01*
X63970000Y-82940000D02*
X71970000Y-82940000D01*
X71970000Y-82940000D02*
X71970000Y-96540000D01*
X71970000Y-96540000D02*
X63970000Y-96540000D01*
X63970000Y-96540000D02*
X63970000Y-82940000D01*
D10*
G04 #@! TO.C,C11*
X32620000Y-79540000D02*
X32620000Y-79110000D01*
X33620000Y-79540000D02*
X32620000Y-79540000D01*
X33620000Y-79540000D02*
X33620000Y-79110000D01*
X32620000Y-77340000D02*
X32620000Y-77770000D01*
X32620000Y-77340000D02*
X33620000Y-77340000D01*
X33620000Y-77340000D02*
X33620000Y-77770000D01*
G04 #@! TO.C,C31*
X35150000Y-102160000D02*
X35150000Y-101730000D01*
X36150000Y-102160000D02*
X35150000Y-102160000D01*
X36150000Y-102160000D02*
X36150000Y-101730000D01*
X35150000Y-99960000D02*
X35150000Y-100390000D01*
X35150000Y-99960000D02*
X36150000Y-99960000D01*
X36150000Y-99960000D02*
X36150000Y-100390000D01*
G04 #@! TO.C,C10*
X31420000Y-79540000D02*
X31420000Y-79110000D01*
X32420000Y-79540000D02*
X31420000Y-79540000D01*
X32420000Y-79540000D02*
X32420000Y-79110000D01*
X31420000Y-77340000D02*
X31420000Y-77770000D01*
X31420000Y-77340000D02*
X32420000Y-77340000D01*
X32420000Y-77340000D02*
X32420000Y-77770000D01*
G04 #@! TO.C,C5*
X24020000Y-81590000D02*
X24020000Y-81160000D01*
X25020000Y-81590000D02*
X24020000Y-81590000D01*
X25020000Y-81590000D02*
X25020000Y-81160000D01*
X24020000Y-79390000D02*
X24020000Y-79820000D01*
X24020000Y-79390000D02*
X25020000Y-79390000D01*
X25020000Y-79390000D02*
X25020000Y-79820000D01*
G04 #@! TO.C,C34*
X30950000Y-100000000D02*
X30520000Y-100000000D01*
X30950000Y-99000000D02*
X30950000Y-100000000D01*
X30950000Y-99000000D02*
X30520000Y-99000000D01*
X28750000Y-100000000D02*
X29180000Y-100000000D01*
X28750000Y-100000000D02*
X28750000Y-99000000D01*
X28750000Y-99000000D02*
X29180000Y-99000000D01*
G04 #@! TO.C,R10*
X57280000Y-103190000D02*
X57280000Y-103620000D01*
X56875000Y-103190000D02*
X57280000Y-103190000D01*
X55980000Y-103190000D02*
X56375000Y-103190000D01*
X55980000Y-103190000D02*
X55980000Y-103620000D01*
X57280000Y-106190000D02*
X57280000Y-105760000D01*
X57280000Y-106190000D02*
X56880000Y-106190000D01*
X56375000Y-106190000D02*
X55980000Y-106190000D01*
X55980000Y-106190000D02*
X55980000Y-105760000D01*
G04 #@! TO.C,R9*
X54430000Y-106160000D02*
X54430000Y-105730000D01*
X54835000Y-106160000D02*
X54430000Y-106160000D01*
X55730000Y-106160000D02*
X55335000Y-106160000D01*
X55730000Y-106160000D02*
X55730000Y-105730000D01*
X54430000Y-103160000D02*
X54430000Y-103590000D01*
X54430000Y-103160000D02*
X54830000Y-103160000D01*
X55335000Y-103160000D02*
X55730000Y-103160000D01*
X55730000Y-103160000D02*
X55730000Y-103590000D01*
G04 #@! TO.C,R12*
X25000000Y-77600000D02*
X25000000Y-77170000D01*
X25405000Y-77600000D02*
X25000000Y-77600000D01*
X26300000Y-77600000D02*
X25905000Y-77600000D01*
X26300000Y-77600000D02*
X26300000Y-77170000D01*
X25000000Y-74600000D02*
X25000000Y-75030000D01*
X25000000Y-74600000D02*
X25400000Y-74600000D01*
X25905000Y-74600000D02*
X26300000Y-74600000D01*
X26300000Y-74600000D02*
X26300000Y-75030000D01*
G04 #@! TO.C,C43*
X71020000Y-97120000D02*
X71450000Y-97120000D01*
X71020000Y-98120000D02*
X71020000Y-97120000D01*
X71020000Y-98120000D02*
X71450000Y-98120000D01*
X73220000Y-97120000D02*
X72790000Y-97120000D01*
X73220000Y-97120000D02*
X73220000Y-98120000D01*
X73220000Y-98120000D02*
X72790000Y-98120000D01*
D12*
G04 #@! TO.C,J3*
X73130000Y-80920000D02*
X71800000Y-80920000D01*
X73130000Y-79590000D02*
X73130000Y-80920000D01*
X73130000Y-78320000D02*
X73130000Y-73180000D01*
X73130000Y-78320000D02*
X70470000Y-78320000D01*
X73130000Y-73180000D02*
X70470000Y-73180000D01*
X70470000Y-78320000D02*
X70470000Y-73180000D01*
D10*
G04 #@! TO.C,C49*
X37830000Y-102120000D02*
X37830000Y-101690000D01*
X38830000Y-102120000D02*
X37830000Y-102120000D01*
X38830000Y-102120000D02*
X38830000Y-101690000D01*
X37830000Y-99920000D02*
X37830000Y-100350000D01*
X37830000Y-99920000D02*
X38830000Y-99920000D01*
X38830000Y-99920000D02*
X38830000Y-100350000D01*
G04 #@! TO.C,C14*
X36290000Y-79560000D02*
X36290000Y-79130000D01*
X37290000Y-79560000D02*
X36290000Y-79560000D01*
X37290000Y-79560000D02*
X37290000Y-79130000D01*
X36290000Y-77360000D02*
X36290000Y-77790000D01*
X36290000Y-77360000D02*
X37290000Y-77360000D01*
X37290000Y-77360000D02*
X37290000Y-77790000D01*
G04 #@! TO.C,C71*
X53000000Y-103850000D02*
X53000000Y-103420000D01*
X54000000Y-103850000D02*
X53000000Y-103850000D01*
X54000000Y-103850000D02*
X54000000Y-103420000D01*
X53000000Y-101650000D02*
X53000000Y-102080000D01*
X53000000Y-101650000D02*
X54000000Y-101650000D01*
X54000000Y-101650000D02*
X54000000Y-102080000D01*
G04 #@! TO.C,R19*
X69720000Y-102990000D02*
X69720000Y-102560000D01*
X70720000Y-102990000D02*
X69720000Y-102990000D01*
X70720000Y-102990000D02*
X70720000Y-102560000D01*
X69720000Y-100790000D02*
X69720000Y-101220000D01*
X69720000Y-100790000D02*
X70720000Y-100790000D01*
X70720000Y-100790000D02*
X70720000Y-101220000D01*
G04 #@! TO.C,C47*
X45840000Y-102110000D02*
X45840000Y-101680000D01*
X46840000Y-102110000D02*
X45840000Y-102110000D01*
X46840000Y-102110000D02*
X46840000Y-101680000D01*
X45840000Y-99910000D02*
X45840000Y-100340000D01*
X45840000Y-99910000D02*
X46840000Y-99910000D01*
X46840000Y-99910000D02*
X46840000Y-100340000D01*
G04 #@! TO.C,R21*
X56330000Y-102610000D02*
X55900000Y-102610000D01*
X56330000Y-101610000D02*
X56330000Y-102610000D01*
X56330000Y-101610000D02*
X55900000Y-101610000D01*
X54130000Y-102610000D02*
X54560000Y-102610000D01*
X54130000Y-102610000D02*
X54130000Y-101610000D01*
X54130000Y-101610000D02*
X54560000Y-101610000D01*
G04 #@! TO.C,C44*
X71020000Y-98180000D02*
X71450000Y-98180000D01*
X71020000Y-99180000D02*
X71020000Y-98180000D01*
X71020000Y-99180000D02*
X71450000Y-99180000D01*
X73220000Y-98180000D02*
X72790000Y-98180000D01*
X73220000Y-98180000D02*
X73220000Y-99180000D01*
X73220000Y-99180000D02*
X72790000Y-99180000D01*
G04 #@! TO.C,R1*
X50478000Y-74400000D02*
X50048000Y-74400000D01*
X50478000Y-73995000D02*
X50478000Y-74400000D01*
X50478000Y-73100000D02*
X50478000Y-73495000D01*
X50478000Y-73100000D02*
X50048000Y-73100000D01*
X47478000Y-74400000D02*
X47908000Y-74400000D01*
X47478000Y-74400000D02*
X47478000Y-74000000D01*
X47478000Y-73495000D02*
X47478000Y-73100000D01*
X47478000Y-73100000D02*
X47908000Y-73100000D01*
G04 #@! TO.C,C81*
X56630000Y-75352000D02*
X56630000Y-74922000D01*
X57630000Y-75352000D02*
X56630000Y-75352000D01*
X57630000Y-75352000D02*
X57630000Y-74922000D01*
X56630000Y-73152000D02*
X56630000Y-73582000D01*
X56630000Y-73152000D02*
X57630000Y-73152000D01*
X57630000Y-73152000D02*
X57630000Y-73582000D01*
G04 #@! TO.C,C83*
X34810000Y-106230000D02*
X34810000Y-105800000D01*
X35810000Y-106230000D02*
X34810000Y-106230000D01*
X35810000Y-106230000D02*
X35810000Y-105800000D01*
X34810000Y-104030000D02*
X34810000Y-104460000D01*
X34810000Y-104030000D02*
X35810000Y-104030000D01*
X35810000Y-104030000D02*
X35810000Y-104460000D01*
G04 #@! TO.C,C39*
X73130000Y-82940000D02*
X73130000Y-83370000D01*
X72130000Y-82940000D02*
X73130000Y-82940000D01*
X72130000Y-82940000D02*
X72130000Y-83370000D01*
X73130000Y-85140000D02*
X73130000Y-84710000D01*
X73130000Y-85140000D02*
X72130000Y-85140000D01*
X72130000Y-85140000D02*
X72130000Y-84710000D01*
G04 #@! TO.C,C50*
X39140000Y-102120000D02*
X39140000Y-101690000D01*
X40140000Y-102120000D02*
X39140000Y-102120000D01*
X40140000Y-102120000D02*
X40140000Y-101690000D01*
X39140000Y-99920000D02*
X39140000Y-100350000D01*
X39140000Y-99920000D02*
X40140000Y-99920000D01*
X40140000Y-99920000D02*
X40140000Y-100350000D01*
G04 #@! TO.C,C48*
X47180000Y-102090000D02*
X47180000Y-101660000D01*
X48180000Y-102090000D02*
X47180000Y-102090000D01*
X48180000Y-102090000D02*
X48180000Y-101660000D01*
X47180000Y-99890000D02*
X47180000Y-100320000D01*
X47180000Y-99890000D02*
X48180000Y-99890000D01*
X48180000Y-99890000D02*
X48180000Y-100320000D01*
G04 #@! TO.C,C17*
X38000000Y-79570000D02*
X38000000Y-79140000D01*
X39000000Y-79570000D02*
X38000000Y-79570000D01*
X39000000Y-79570000D02*
X39000000Y-79140000D01*
X38000000Y-77370000D02*
X38000000Y-77800000D01*
X38000000Y-77370000D02*
X39000000Y-77370000D01*
X39000000Y-77370000D02*
X39000000Y-77800000D01*
G04 #@! TO.C,C4*
X25030000Y-81850000D02*
X25030000Y-82280000D01*
X24030000Y-81850000D02*
X25030000Y-81850000D01*
X24030000Y-81850000D02*
X24030000Y-82280000D01*
X25030000Y-84050000D02*
X25030000Y-83620000D01*
X25030000Y-84050000D02*
X24030000Y-84050000D01*
X24030000Y-84050000D02*
X24030000Y-83620000D01*
G04 #@! TO.C,C6*
X31220000Y-83270000D02*
X30790000Y-83270000D01*
X31220000Y-82270000D02*
X31220000Y-83270000D01*
X31220000Y-82270000D02*
X30790000Y-82270000D01*
X29020000Y-83270000D02*
X29450000Y-83270000D01*
X29020000Y-83270000D02*
X29020000Y-82270000D01*
X29020000Y-82270000D02*
X29450000Y-82270000D01*
G04 #@! TO.C,C41*
X73190000Y-90090000D02*
X73190000Y-90520000D01*
X72190000Y-90090000D02*
X73190000Y-90090000D01*
X72190000Y-90090000D02*
X72190000Y-90520000D01*
X73190000Y-92290000D02*
X73190000Y-91860000D01*
X73190000Y-92290000D02*
X72190000Y-92290000D01*
X72190000Y-92290000D02*
X72190000Y-91860000D01*
G04 #@! TO.C,R16*
X65240000Y-76082000D02*
X65240000Y-75652000D01*
X65645000Y-76082000D02*
X65240000Y-76082000D01*
X66540000Y-76082000D02*
X66145000Y-76082000D01*
X66540000Y-76082000D02*
X66540000Y-75652000D01*
X65240000Y-73082000D02*
X65240000Y-73512000D01*
X65240000Y-73082000D02*
X65640000Y-73082000D01*
X66145000Y-73082000D02*
X66540000Y-73082000D01*
X66540000Y-73082000D02*
X66540000Y-73512000D01*
G04 #@! TO.C,C27*
X31400000Y-102210000D02*
X31400000Y-101780000D01*
X32400000Y-102210000D02*
X31400000Y-102210000D01*
X32400000Y-102210000D02*
X32400000Y-101780000D01*
X31400000Y-100010000D02*
X31400000Y-100440000D01*
X31400000Y-100010000D02*
X32400000Y-100010000D01*
X32400000Y-100010000D02*
X32400000Y-100440000D01*
G04 #@! TO.C,C76*
X23790000Y-95290000D02*
X24220000Y-95290000D01*
X23790000Y-96290000D02*
X23790000Y-95290000D01*
X23790000Y-96290000D02*
X24220000Y-96290000D01*
X25990000Y-95290000D02*
X25560000Y-95290000D01*
X25990000Y-95290000D02*
X25990000Y-96290000D01*
X25990000Y-96290000D02*
X25560000Y-96290000D01*
D13*
G04 #@! TO.C,U4*
X48702100Y-106076400D02*
X50657900Y-106076400D01*
X50657900Y-102723600D02*
X48702100Y-102723600D01*
X50657900Y-104788661D02*
X50657900Y-104011339D01*
D10*
G04 #@! TO.C,R11*
X26770000Y-79110000D02*
X26340000Y-79110000D01*
X26770000Y-78705000D02*
X26770000Y-79110000D01*
X26770000Y-77810000D02*
X26770000Y-78205000D01*
X26770000Y-77810000D02*
X26340000Y-77810000D01*
X23770000Y-79110000D02*
X24200000Y-79110000D01*
X23770000Y-79110000D02*
X23770000Y-78710000D01*
X23770000Y-78205000D02*
X23770000Y-77810000D01*
X23770000Y-77810000D02*
X24200000Y-77810000D01*
G04 #@! TO.C,R22*
X56570000Y-101590000D02*
X57000000Y-101590000D01*
X56570000Y-102590000D02*
X56570000Y-101590000D01*
X56570000Y-102590000D02*
X57000000Y-102590000D01*
X58770000Y-101590000D02*
X58340000Y-101590000D01*
X58770000Y-101590000D02*
X58770000Y-102590000D01*
X58770000Y-102590000D02*
X58340000Y-102590000D01*
D12*
G04 #@! TO.C,L2*
X47460000Y-106190000D02*
X47460000Y-106040000D01*
X47460000Y-106190000D02*
X43940000Y-106190000D01*
X47460000Y-102670000D02*
X47460000Y-102820000D01*
X47460000Y-102670000D02*
X43940000Y-102670000D01*
X43940000Y-106190000D02*
X43940000Y-106040000D01*
X43940000Y-102670000D02*
X43940000Y-102820000D01*
D10*
G04 #@! TO.C,R7*
X26630000Y-102668000D02*
X26630000Y-103098000D01*
X26225000Y-102668000D02*
X26630000Y-102668000D01*
X25330000Y-102668000D02*
X25725000Y-102668000D01*
X25330000Y-102668000D02*
X25330000Y-103098000D01*
X26630000Y-105668000D02*
X26630000Y-105238000D01*
X26630000Y-105668000D02*
X26230000Y-105668000D01*
X25725000Y-105668000D02*
X25330000Y-105668000D01*
X25330000Y-105668000D02*
X25330000Y-105238000D01*
G04 #@! TO.C,C26*
X23820000Y-101370000D02*
X24250000Y-101370000D01*
X23820000Y-102370000D02*
X23820000Y-101370000D01*
X23820000Y-102370000D02*
X24250000Y-102370000D01*
X26020000Y-101370000D02*
X25590000Y-101370000D01*
X26020000Y-101370000D02*
X26020000Y-102370000D01*
X26020000Y-102370000D02*
X25590000Y-102370000D01*
G04 #@! TO.C,C15*
X50290000Y-99980000D02*
X50290000Y-100410000D01*
X49290000Y-99980000D02*
X50290000Y-99980000D01*
X49290000Y-99980000D02*
X49290000Y-100410000D01*
X50290000Y-102180000D02*
X50290000Y-101750000D01*
X50290000Y-102180000D02*
X49290000Y-102180000D01*
X49290000Y-102180000D02*
X49290000Y-101750000D01*
G04 #@! TO.C,C78*
X26730000Y-76800000D02*
X27160000Y-76800000D01*
X26730000Y-77800000D02*
X26730000Y-76800000D01*
X26730000Y-77800000D02*
X27160000Y-77800000D01*
X28930000Y-76800000D02*
X28500000Y-76800000D01*
X28930000Y-76800000D02*
X28930000Y-77800000D01*
X28930000Y-77800000D02*
X28500000Y-77800000D01*
G04 #@! TO.C,R18*
X59430000Y-76132000D02*
X59430000Y-75702000D01*
X59835000Y-76132000D02*
X59430000Y-76132000D01*
X60730000Y-76132000D02*
X60335000Y-76132000D01*
X60730000Y-76132000D02*
X60730000Y-75702000D01*
X59430000Y-73132000D02*
X59430000Y-73562000D01*
X59430000Y-73132000D02*
X59830000Y-73132000D01*
X60335000Y-73132000D02*
X60730000Y-73132000D01*
X60730000Y-73132000D02*
X60730000Y-73562000D01*
G04 #@! TO.C,R23*
X26760000Y-78890000D02*
X27190000Y-78890000D01*
X26760000Y-79890000D02*
X26760000Y-78890000D01*
X26760000Y-79890000D02*
X27190000Y-79890000D01*
X28960000Y-78890000D02*
X28530000Y-78890000D01*
X28960000Y-78890000D02*
X28960000Y-79890000D01*
X28960000Y-79890000D02*
X28530000Y-79890000D01*
G04 #@! TO.C,C84*
X25980000Y-101170000D02*
X25550000Y-101170000D01*
X25980000Y-100170000D02*
X25980000Y-101170000D01*
X25980000Y-100170000D02*
X25550000Y-100170000D01*
X23780000Y-101170000D02*
X24210000Y-101170000D01*
X23780000Y-101170000D02*
X23780000Y-100170000D01*
X23780000Y-100170000D02*
X24210000Y-100170000D01*
G04 #@! TO.C,C51*
X40460000Y-102130000D02*
X40460000Y-101700000D01*
X41460000Y-102130000D02*
X40460000Y-102130000D01*
X41460000Y-102130000D02*
X41460000Y-101700000D01*
X40460000Y-99930000D02*
X40460000Y-100360000D01*
X40460000Y-99930000D02*
X41460000Y-99930000D01*
X41460000Y-99930000D02*
X41460000Y-100360000D01*
G04 #@! TO.C,C45*
X43110000Y-102130000D02*
X43110000Y-101700000D01*
X44110000Y-102130000D02*
X43110000Y-102130000D01*
X44110000Y-102130000D02*
X44110000Y-101700000D01*
X43110000Y-99930000D02*
X43110000Y-100360000D01*
X43110000Y-99930000D02*
X44110000Y-99930000D01*
X44110000Y-99930000D02*
X44110000Y-100360000D01*
G04 #@! TO.C,C73*
X41470950Y-106170001D02*
X41470950Y-105740001D01*
X42470950Y-106170001D02*
X41470950Y-106170001D01*
X42470950Y-106170001D02*
X42470950Y-105740001D01*
X41470950Y-103970001D02*
X41470950Y-104400001D01*
X41470950Y-103970001D02*
X42470950Y-103970001D01*
X42470950Y-103970001D02*
X42470950Y-104400001D01*
G04 #@! TO.C,C60*
X52810000Y-99970000D02*
X52810000Y-100400000D01*
X51810000Y-99970000D02*
X52810000Y-99970000D01*
X51810000Y-99970000D02*
X51810000Y-100400000D01*
X52810000Y-102170000D02*
X52810000Y-101740000D01*
X52810000Y-102170000D02*
X51810000Y-102170000D01*
X51810000Y-102170000D02*
X51810000Y-101740000D01*
G04 #@! TO.C,C79*
X36610000Y-74160000D02*
X36180000Y-74160000D01*
X36610000Y-73160000D02*
X36610000Y-74160000D01*
X36610000Y-73160000D02*
X36180000Y-73160000D01*
X34410000Y-74160000D02*
X34840000Y-74160000D01*
X34410000Y-74160000D02*
X34410000Y-73160000D01*
X34410000Y-73160000D02*
X34840000Y-73160000D01*
G04 #@! TO.C,C9*
X31240000Y-79450000D02*
X30810000Y-79450000D01*
X31240000Y-78450000D02*
X31240000Y-79450000D01*
X31240000Y-78450000D02*
X30810000Y-78450000D01*
X29040000Y-79450000D02*
X29470000Y-79450000D01*
X29040000Y-79450000D02*
X29040000Y-78450000D01*
X29040000Y-78450000D02*
X29470000Y-78450000D01*
G04 #@! TO.C,C1*
X31230000Y-78250000D02*
X30800000Y-78250000D01*
X31230000Y-77250000D02*
X31230000Y-78250000D01*
X31230000Y-77250000D02*
X30800000Y-77250000D01*
X29030000Y-78250000D02*
X29460000Y-78250000D01*
X29030000Y-78250000D02*
X29030000Y-77250000D01*
X29030000Y-77250000D02*
X29460000Y-77250000D01*
G04 #@! TO.C,C22*
X50688000Y-75310000D02*
X50688000Y-74880000D01*
X51688000Y-75310000D02*
X50688000Y-75310000D01*
X51688000Y-75310000D02*
X51688000Y-74880000D01*
X50688000Y-73110000D02*
X50688000Y-73540000D01*
X50688000Y-73110000D02*
X51688000Y-73110000D01*
X51688000Y-73110000D02*
X51688000Y-73540000D01*
G04 #@! TO.C,C85*
X23780000Y-73500000D02*
X24210000Y-73500000D01*
X23780000Y-74500000D02*
X23780000Y-73500000D01*
X23780000Y-74500000D02*
X24210000Y-74500000D01*
X25980000Y-73500000D02*
X25550000Y-73500000D01*
X25980000Y-73500000D02*
X25980000Y-74500000D01*
X25980000Y-74500000D02*
X25550000Y-74500000D01*
G04 #@! TO.C,C52*
X41800000Y-102130000D02*
X41800000Y-101700000D01*
X42800000Y-102130000D02*
X41800000Y-102130000D01*
X42800000Y-102130000D02*
X42800000Y-101700000D01*
X41800000Y-99930000D02*
X41800000Y-100360000D01*
X41800000Y-99930000D02*
X42800000Y-99930000D01*
X42800000Y-99930000D02*
X42800000Y-100360000D01*
G04 #@! TO.C,C74*
X62380000Y-75302000D02*
X62380000Y-74872000D01*
X63380000Y-75302000D02*
X62380000Y-75302000D01*
X63380000Y-75302000D02*
X63380000Y-74872000D01*
X62380000Y-73102000D02*
X62380000Y-73532000D01*
X62380000Y-73102000D02*
X63380000Y-73102000D01*
X63380000Y-73102000D02*
X63380000Y-73532000D01*
D12*
G04 #@! TO.C,L4*
X42960000Y-76690000D02*
X42960000Y-76540000D01*
X42960000Y-76690000D02*
X39440000Y-76690000D01*
X42960000Y-73170000D02*
X42960000Y-73320000D01*
X42960000Y-73170000D02*
X39440000Y-73170000D01*
X39440000Y-76690000D02*
X39440000Y-76540000D01*
X39440000Y-73170000D02*
X39440000Y-73320000D01*
D10*
G04 #@! TO.C,C53*
X26250000Y-100170000D02*
X26680000Y-100170000D01*
X26250000Y-101170000D02*
X26250000Y-100170000D01*
X26250000Y-101170000D02*
X26680000Y-101170000D01*
X28450000Y-100170000D02*
X28020000Y-100170000D01*
X28450000Y-100170000D02*
X28450000Y-101170000D01*
X28450000Y-101170000D02*
X28020000Y-101170000D01*
G04 #@! TO.C,C25*
X39120000Y-76720000D02*
X38690000Y-76720000D01*
X39120000Y-75720000D02*
X39120000Y-76720000D01*
X39120000Y-75720000D02*
X38690000Y-75720000D01*
X36920000Y-76720000D02*
X37350000Y-76720000D01*
X36920000Y-76720000D02*
X36920000Y-75720000D01*
X36920000Y-75720000D02*
X37350000Y-75720000D01*
D12*
G04 #@! TO.C,U7*
X38040000Y-106110000D02*
X39840000Y-106110000D01*
X38040000Y-106110000D02*
X37240000Y-106110000D01*
X38040000Y-102990000D02*
X38840000Y-102990000D01*
X38040000Y-102990000D02*
X37240000Y-102990000D01*
D10*
G04 #@! TO.C,C40*
X72120000Y-87610000D02*
X72120000Y-87180000D01*
X73120000Y-87610000D02*
X72120000Y-87610000D01*
X73120000Y-87610000D02*
X73120000Y-87180000D01*
X72120000Y-85410000D02*
X72120000Y-85840000D01*
X72120000Y-85410000D02*
X73120000Y-85410000D01*
X73120000Y-85410000D02*
X73120000Y-85840000D01*
G04 #@! TO.C,C77*
X23800000Y-77580000D02*
X23800000Y-77150000D01*
X24800000Y-77580000D02*
X23800000Y-77580000D01*
X24800000Y-77580000D02*
X24800000Y-77150000D01*
X23800000Y-75380000D02*
X23800000Y-75810000D01*
X23800000Y-75380000D02*
X24800000Y-75380000D01*
X24800000Y-75380000D02*
X24800000Y-75810000D01*
G04 #@! TO.C,R2*
X70218000Y-99300000D02*
X70648000Y-99300000D01*
X70218000Y-99705000D02*
X70218000Y-99300000D01*
X70218000Y-100600000D02*
X70218000Y-100205000D01*
X70218000Y-100600000D02*
X70648000Y-100600000D01*
X73218000Y-99300000D02*
X72788000Y-99300000D01*
X73218000Y-99300000D02*
X73218000Y-99700000D01*
X73218000Y-100205000D02*
X73218000Y-100600000D01*
X73218000Y-100600000D02*
X72788000Y-100600000D01*
D12*
G04 #@! TO.C,L1*
X31050000Y-102740000D02*
X31050000Y-102890000D01*
X31050000Y-102740000D02*
X34570000Y-102740000D01*
X31050000Y-106260000D02*
X31050000Y-106110000D01*
X31050000Y-106260000D02*
X34570000Y-106260000D01*
X34570000Y-102740000D02*
X34570000Y-102890000D01*
X34570000Y-106260000D02*
X34570000Y-106110000D01*
G04 #@! TO.C,L3*
X30640000Y-73110000D02*
X30640000Y-73260000D01*
X30640000Y-73110000D02*
X34160000Y-73110000D01*
X30640000Y-76630000D02*
X30640000Y-76480000D01*
X30640000Y-76630000D02*
X34160000Y-76630000D01*
X34160000Y-73110000D02*
X34160000Y-73260000D01*
X34160000Y-76630000D02*
X34160000Y-76480000D01*
D10*
G04 #@! TO.C,C56*
X42150000Y-79560000D02*
X42150000Y-79130000D01*
X43150000Y-79560000D02*
X42150000Y-79560000D01*
X43150000Y-79560000D02*
X43150000Y-79130000D01*
X42150000Y-77360000D02*
X42150000Y-77790000D01*
X42150000Y-77360000D02*
X43150000Y-77360000D01*
X43150000Y-77360000D02*
X43150000Y-77790000D01*
G04 #@! TO.C,R26*
X44640000Y-76730000D02*
X45070000Y-76730000D01*
X44640000Y-77730000D02*
X44640000Y-76730000D01*
X44640000Y-77730000D02*
X45070000Y-77730000D01*
X46840000Y-76730000D02*
X46410000Y-76730000D01*
X46840000Y-76730000D02*
X46840000Y-77730000D01*
X46840000Y-77730000D02*
X46410000Y-77730000D01*
G04 #@! TO.C,C35*
X30950000Y-98740000D02*
X30520000Y-98740000D01*
X30950000Y-97740000D02*
X30950000Y-98740000D01*
X30950000Y-97740000D02*
X30520000Y-97740000D01*
X28750000Y-98740000D02*
X29180000Y-98740000D01*
X28750000Y-98740000D02*
X28750000Y-97740000D01*
X28750000Y-97740000D02*
X29180000Y-97740000D01*
G04 #@! TO.C,C12*
X33830000Y-79550000D02*
X33830000Y-79120000D01*
X34830000Y-79550000D02*
X33830000Y-79550000D01*
X34830000Y-79550000D02*
X34830000Y-79120000D01*
X33830000Y-77350000D02*
X33830000Y-77780000D01*
X33830000Y-77350000D02*
X34830000Y-77350000D01*
X34830000Y-77350000D02*
X34830000Y-77780000D01*
G04 #@! TO.C,R5*
X55120000Y-76150000D02*
X55120000Y-75720000D01*
X55525000Y-76150000D02*
X55120000Y-76150000D01*
X56420000Y-76150000D02*
X56025000Y-76150000D01*
X56420000Y-76150000D02*
X56420000Y-75720000D01*
X55120000Y-73150000D02*
X55120000Y-73580000D01*
X55120000Y-73150000D02*
X55520000Y-73150000D01*
X56025000Y-73150000D02*
X56420000Y-73150000D01*
X56420000Y-73150000D02*
X56420000Y-73580000D01*
D12*
G04 #@! TO.C,U1*
X51110000Y-99500000D02*
X31610000Y-99500000D01*
X31610000Y-99500000D02*
X31610000Y-80000000D01*
X31610000Y-80000000D02*
X51110000Y-80000000D01*
X51110000Y-80000000D02*
X51110000Y-99500000D01*
D14*
X52060000Y-100050000D02*
G75*
G03*
X52060000Y-100050000I-400000J0D01*
G01*
D10*
G04 #@! TO.C,R6*
X47498000Y-74610000D02*
X47928000Y-74610000D01*
X47498000Y-75015000D02*
X47498000Y-74610000D01*
X47498000Y-75910000D02*
X47498000Y-75515000D01*
X47498000Y-75910000D02*
X47928000Y-75910000D01*
X50498000Y-74610000D02*
X50068000Y-74610000D01*
X50498000Y-74610000D02*
X50498000Y-75010000D01*
X50498000Y-75515000D02*
X50498000Y-75910000D01*
X50498000Y-75910000D02*
X50068000Y-75910000D01*
G04 #@! TO.C,C23*
X52960000Y-103980000D02*
X52960000Y-104410000D01*
X51960000Y-103980000D02*
X52960000Y-103980000D01*
X51960000Y-103980000D02*
X51960000Y-104410000D01*
X52960000Y-106180000D02*
X52960000Y-105750000D01*
X52960000Y-106180000D02*
X51960000Y-106180000D01*
X51960000Y-106180000D02*
X51960000Y-105750000D01*
D12*
G04 #@! TO.C,J5*
X58930000Y-101519480D02*
X58930000Y-103510840D01*
X58930000Y-106386120D02*
X58930000Y-107513880D01*
X58930000Y-107530000D02*
X69594000Y-107507400D01*
X59815660Y-101519480D02*
X58930000Y-101519480D01*
X69594000Y-101513000D02*
X68708340Y-101513000D01*
X69594000Y-103504360D02*
X69594000Y-101513000D01*
X69594000Y-107507400D02*
X69594000Y-106379640D01*
X70610000Y-101640000D02*
G75*
G03*
X70610000Y-101640000I-381000J0D01*
G01*
D10*
G04 #@! TO.C,C72*
X42700950Y-106170001D02*
X42700950Y-105740001D01*
X43700950Y-106170001D02*
X42700950Y-106170001D01*
X43700950Y-106170001D02*
X43700950Y-105740001D01*
X42700950Y-103970001D02*
X42700950Y-104400001D01*
X42700950Y-103970001D02*
X43700950Y-103970001D01*
X43700950Y-103970001D02*
X43700950Y-104400001D01*
G04 #@! TO.C,C28*
X34950000Y-99990000D02*
X34950000Y-100420000D01*
X33950000Y-99990000D02*
X34950000Y-99990000D01*
X33950000Y-99990000D02*
X33950000Y-100420000D01*
X34950000Y-102190000D02*
X34950000Y-101760000D01*
X34950000Y-102190000D02*
X33950000Y-102190000D01*
X33950000Y-102190000D02*
X33950000Y-101760000D01*
G04 #@! TO.C,C29*
X37380000Y-99940000D02*
X37380000Y-100370000D01*
X36380000Y-99940000D02*
X37380000Y-99940000D01*
X36380000Y-99940000D02*
X36380000Y-100370000D01*
X37380000Y-102140000D02*
X37380000Y-101710000D01*
X37380000Y-102140000D02*
X36380000Y-102140000D01*
X36380000Y-102140000D02*
X36380000Y-101710000D01*
G04 #@! TO.C,R13*
X73190000Y-100790000D02*
X73190000Y-101220000D01*
X72190000Y-100790000D02*
X73190000Y-100790000D01*
X72190000Y-100790000D02*
X72190000Y-101220000D01*
X73190000Y-102990000D02*
X73190000Y-102560000D01*
X73190000Y-102990000D02*
X72190000Y-102990000D01*
X72190000Y-102990000D02*
X72190000Y-102560000D01*
G04 #@! TO.C,C75*
X67820000Y-73072000D02*
X67820000Y-73502000D01*
X66820000Y-73072000D02*
X67820000Y-73072000D01*
X66820000Y-73072000D02*
X66820000Y-73502000D01*
X67820000Y-75272000D02*
X67820000Y-74842000D01*
X67820000Y-75272000D02*
X66820000Y-75272000D01*
X66820000Y-75272000D02*
X66820000Y-74842000D01*
G04 #@! TO.C,C70*
X26340000Y-101390000D02*
X26770000Y-101390000D01*
X26340000Y-102390000D02*
X26340000Y-101390000D01*
X26340000Y-102390000D02*
X26770000Y-102390000D01*
X28540000Y-101390000D02*
X28110000Y-101390000D01*
X28540000Y-101390000D02*
X28540000Y-102390000D01*
X28540000Y-102390000D02*
X28110000Y-102390000D01*
G04 #@! TO.C,R3*
X26250000Y-95310000D02*
X26680000Y-95310000D01*
X26250000Y-96310000D02*
X26250000Y-95310000D01*
X26250000Y-96310000D02*
X26680000Y-96310000D01*
X28450000Y-95310000D02*
X28020000Y-95310000D01*
X28450000Y-95310000D02*
X28450000Y-96310000D01*
X28450000Y-96310000D02*
X28020000Y-96310000D01*
D12*
G04 #@! TO.C,Y1*
X28602599Y-79976200D02*
X25302599Y-79976200D01*
X25302599Y-79976200D02*
X25302599Y-83976200D01*
G04 #@! TO.C,U6*
X26040000Y-96680000D02*
X24240000Y-96680000D01*
X26040000Y-96680000D02*
X26840000Y-96680000D01*
X26040000Y-99800000D02*
X25240000Y-99800000D01*
X26040000Y-99800000D02*
X26840000Y-99800000D01*
D10*
G04 #@! TO.C,C37*
X69110000Y-73100000D02*
X69110000Y-73530000D01*
X68110000Y-73100000D02*
X69110000Y-73100000D01*
X68110000Y-73100000D02*
X68110000Y-73530000D01*
X69110000Y-75300000D02*
X69110000Y-74870000D01*
X69110000Y-75300000D02*
X68110000Y-75300000D01*
X68110000Y-75300000D02*
X68110000Y-74870000D01*
G04 #@! TO.C,R17*
X59170000Y-73140000D02*
X59170000Y-73570000D01*
X58765000Y-73140000D02*
X59170000Y-73140000D01*
X57870000Y-73140000D02*
X58265000Y-73140000D01*
X57870000Y-73140000D02*
X57870000Y-73570000D01*
X59170000Y-76140000D02*
X59170000Y-75710000D01*
X59170000Y-76140000D02*
X58770000Y-76140000D01*
X58265000Y-76140000D02*
X57870000Y-76140000D01*
X57870000Y-76140000D02*
X57870000Y-75710000D01*
G04 #@! TO.C,C54*
X39640000Y-79560000D02*
X39640000Y-79130000D01*
X40640000Y-79560000D02*
X39640000Y-79560000D01*
X40640000Y-79560000D02*
X40640000Y-79130000D01*
X39640000Y-77360000D02*
X39640000Y-77790000D01*
X39640000Y-77360000D02*
X40640000Y-77360000D01*
X40640000Y-77360000D02*
X40640000Y-77790000D01*
G04 #@! TO.C,C86*
X40280000Y-106170000D02*
X40280000Y-105740000D01*
X41280000Y-106170000D02*
X40280000Y-106170000D01*
X41280000Y-106170000D02*
X41280000Y-105740000D01*
X40280000Y-103970000D02*
X40280000Y-104400000D01*
X40280000Y-103970000D02*
X41280000Y-103970000D01*
X41280000Y-103970000D02*
X41280000Y-104400000D01*
D13*
G04 #@! TO.C,U3*
X29837900Y-102753600D02*
X27882100Y-102753600D01*
X27882100Y-106106400D02*
X29837900Y-106106400D01*
X27882100Y-104041339D02*
X27882100Y-104818661D01*
G04 #@! TD*
M02*
