G04 #@! TF.GenerationSoftware,KiCad,Pcbnew,7.0.5-0*
G04 #@! TF.CreationDate,2023-07-21T18:28:43+08:00*
G04 #@! TF.ProjectId,slimarm_hypericum,736c696d-6172-46d5-9f68-797065726963,rev?*
G04 #@! TF.SameCoordinates,Original*
G04 #@! TF.FileFunction,Soldermask,Bot*
G04 #@! TF.FilePolarity,Negative*
%FSLAX46Y46*%
G04 Gerber Fmt 4.6, Leading zero omitted, Abs format (unit mm)*
G04 Created by KiCad (PCBNEW 7.0.5-0) date 2023-07-21 18:28:43*
%MOMM*%
%LPD*%
G01*
G04 APERTURE LIST*
G04 Aperture macros list*
%AMRoundRect*
0 Rectangle with rounded corners*
0 $1 Rounding radius*
0 $2 $3 $4 $5 $6 $7 $8 $9 X,Y pos of 4 corners*
0 Add a 4 corners polygon primitive as box body*
4,1,4,$2,$3,$4,$5,$6,$7,$8,$9,$2,$3,0*
0 Add four circle primitives for the rounded corners*
1,1,$1+$1,$2,$3*
1,1,$1+$1,$4,$5*
1,1,$1+$1,$6,$7*
1,1,$1+$1,$8,$9*
0 Add four rect primitives between the rounded corners*
20,1,$1+$1,$2,$3,$4,$5,0*
20,1,$1+$1,$4,$5,$6,$7,0*
20,1,$1+$1,$6,$7,$8,$9,0*
20,1,$1+$1,$8,$9,$2,$3,0*%
G04 Aperture macros list end*
%ADD10R,0.300000X1.600000*%
%ADD11C,0.650000*%
%ADD12O,2.100000X1.000000*%
%ADD13O,1.600000X1.000000*%
%ADD14C,1.700000*%
%ADD15O,1.700000X1.700000*%
%ADD16R,0.850000X1.100000*%
%ADD17R,0.750000X1.100000*%
%ADD18R,1.200000X1.000000*%
%ADD19R,1.550000X1.350000*%
%ADD20R,1.900000X1.350000*%
%ADD21R,1.170000X1.800000*%
%ADD22RoundRect,0.150000X-0.225000X-0.150000X0.225000X-0.150000X0.225000X0.150000X-0.225000X0.150000X0*%
G04 APERTURE END LIST*
D10*
G04 #@! TO.C,J6*
X44140000Y-101060000D03*
X43640000Y-101060000D03*
X43140000Y-101060000D03*
X42640000Y-101060000D03*
X42140000Y-101060000D03*
X41640000Y-101060000D03*
X41140000Y-101060000D03*
X40640000Y-101060000D03*
X40140000Y-101060000D03*
X39640000Y-101060000D03*
X39140000Y-101060000D03*
X38640000Y-101060000D03*
X38140000Y-101060000D03*
X37640000Y-101060000D03*
X37140000Y-101060000D03*
X44140000Y-104660000D03*
X43640000Y-104660000D03*
X43140000Y-104660000D03*
X42640000Y-104660000D03*
X42140000Y-104660000D03*
X41640000Y-104660000D03*
X41140000Y-104660000D03*
X40640000Y-104660000D03*
X40140000Y-104660000D03*
X39640000Y-104660000D03*
X39140000Y-104660000D03*
X38640000Y-104660000D03*
X38140000Y-104660000D03*
X37640000Y-104660000D03*
X37140000Y-104660000D03*
G04 #@! TD*
D11*
G04 #@! TO.C,J1*
X28190000Y-86740000D03*
X28190000Y-92520000D03*
D12*
X28720000Y-85310000D03*
D13*
X24540000Y-85310000D03*
D12*
X28720000Y-93950000D03*
D13*
X24540000Y-93950000D03*
G04 #@! TD*
D14*
G04 #@! TO.C,J3*
X71800000Y-79590000D03*
D15*
X71800000Y-77050000D03*
X71800000Y-74510000D03*
G04 #@! TD*
D16*
G04 #@! TO.C,J2*
X33360000Y-83170000D03*
X32260000Y-83170000D03*
X31160000Y-83170000D03*
X30060000Y-83170000D03*
X28960000Y-83170000D03*
X27860000Y-83170000D03*
X26760000Y-83170000D03*
D17*
X25710000Y-83170000D03*
D18*
X35995000Y-89320000D03*
X35995000Y-93020000D03*
D19*
X35820000Y-83295000D03*
D20*
X32495000Y-93995000D03*
X26525000Y-93995000D03*
D21*
X24500000Y-83520000D03*
G04 #@! TD*
D22*
G04 #@! TO.C,R28*
X38310000Y-75160000D03*
X39310000Y-75160000D03*
G04 #@! TD*
G04 #@! TO.C,R29*
X38320000Y-76400000D03*
X39320000Y-76400000D03*
G04 #@! TD*
G04 #@! TO.C,R27*
X38310000Y-73920000D03*
X39310000Y-73920000D03*
G04 #@! TD*
G04 #@! TO.C,R30*
X38330000Y-77640000D03*
X39330000Y-77640000D03*
G04 #@! TD*
G04 #@! TO.C,R31*
X38340000Y-78900000D03*
X39340000Y-78900000D03*
G04 #@! TD*
M02*
