G04 #@! TF.GenerationSoftware,KiCad,Pcbnew,7.0.5-0*
G04 #@! TF.CreationDate,2023-07-21T18:28:43+08:00*
G04 #@! TF.ProjectId,slimarm_hypericum,736c696d-6172-46d5-9f68-797065726963,rev?*
G04 #@! TF.SameCoordinates,Original*
G04 #@! TF.FileFunction,Soldermask,Top*
G04 #@! TF.FilePolarity,Negative*
%FSLAX46Y46*%
G04 Gerber Fmt 4.6, Leading zero omitted, Abs format (unit mm)*
G04 Created by KiCad (PCBNEW 7.0.5-0) date 2023-07-21 18:28:43*
%MOMM*%
%LPD*%
G01*
G04 APERTURE LIST*
G04 Aperture macros list*
%AMRoundRect*
0 Rectangle with rounded corners*
0 $1 Rounding radius*
0 $2 $3 $4 $5 $6 $7 $8 $9 X,Y pos of 4 corners*
0 Add a 4 corners polygon primitive as box body*
4,1,4,$2,$3,$4,$5,$6,$7,$8,$9,$2,$3,0*
0 Add four circle primitives for the rounded corners*
1,1,$1+$1,$2,$3*
1,1,$1+$1,$4,$5*
1,1,$1+$1,$6,$7*
1,1,$1+$1,$8,$9*
0 Add four rect primitives between the rounded corners*
20,1,$1+$1,$2,$3,$4,$5,0*
20,1,$1+$1,$4,$5,$6,$7,0*
20,1,$1+$1,$6,$7,$8,$9,0*
20,1,$1+$1,$8,$9,$2,$3,0*%
G04 Aperture macros list end*
%ADD10RoundRect,0.150000X-0.225000X-0.150000X0.225000X-0.150000X0.225000X0.150000X-0.225000X0.150000X0*%
%ADD11RoundRect,0.150000X0.150000X-0.225000X0.150000X0.225000X-0.150000X0.225000X-0.150000X-0.225000X0*%
%ADD12R,0.700000X0.600000*%
%ADD13R,0.700000X1.000000*%
%ADD14RoundRect,0.150000X0.225000X0.150000X-0.225000X0.150000X-0.225000X-0.150000X0.225000X-0.150000X0*%
%ADD15RoundRect,0.150000X-0.150000X0.225000X-0.150000X-0.225000X0.150000X-0.225000X0.150000X0.225000X0*%
%ADD16R,1.200000X0.600000*%
%ADD17RoundRect,0.212500X-0.212500X0.262500X-0.212500X-0.262500X0.212500X-0.262500X0.212500X0.262500X0*%
%ADD18RoundRect,0.212500X0.212500X-0.262500X0.212500X0.262500X-0.212500X0.262500X-0.212500X-0.262500X0*%
%ADD19RoundRect,0.237500X0.287500X0.237500X-0.287500X0.237500X-0.287500X-0.237500X0.287500X-0.237500X0*%
%ADD20RoundRect,0.237500X-0.287500X-0.237500X0.287500X-0.237500X0.287500X0.237500X-0.287500X0.237500X0*%
%ADD21C,0.650000*%
%ADD22R,2.000000X0.600000*%
%ADD23R,2.000000X0.300000*%
%ADD24O,2.100000X1.000000*%
%ADD25O,1.600000X1.000000*%
%ADD26C,0.320000*%
%ADD27C,1.700000*%
%ADD28O,1.700000X1.700000*%
%ADD29RoundRect,0.212500X0.262500X0.212500X-0.262500X0.212500X-0.262500X-0.212500X0.262500X-0.212500X0*%
%ADD30R,0.800000X2.700000*%
%ADD31RoundRect,0.150000X0.512500X0.150000X-0.512500X0.150000X-0.512500X-0.150000X0.512500X-0.150000X0*%
%ADD32RoundRect,0.212500X-0.262500X-0.212500X0.262500X-0.212500X0.262500X0.212500X-0.262500X0.212500X0*%
%ADD33R,0.711200X1.600000*%
%ADD34R,1.600200X2.209800*%
%ADD35R,1.200000X1.400000*%
%ADD36RoundRect,0.150000X-0.512500X-0.150000X0.512500X-0.150000X0.512500X0.150000X-0.512500X0.150000X0*%
G04 APERTURE END LIST*
D10*
G04 #@! TO.C,R20*
X45230000Y-78410000D03*
X46230000Y-78410000D03*
G04 #@! TD*
D11*
G04 #@! TO.C,C57*
X43940000Y-78960000D03*
X43940000Y-77960000D03*
G04 #@! TD*
D12*
G04 #@! TO.C,U9*
X54350000Y-73820000D03*
X54350000Y-75720000D03*
X52350000Y-75720000D03*
D13*
X52350000Y-74020000D03*
G04 #@! TD*
D14*
G04 #@! TO.C,R32*
X68520000Y-75760000D03*
X67520000Y-75760000D03*
G04 #@! TD*
G04 #@! TO.C,R25*
X49100000Y-76580000D03*
X48100000Y-76580000D03*
G04 #@! TD*
D15*
G04 #@! TO.C,C16*
X51070000Y-100580000D03*
X51070000Y-101580000D03*
G04 #@! TD*
D14*
G04 #@! TO.C,C80*
X36030000Y-74980000D03*
X35030000Y-74980000D03*
G04 #@! TD*
D10*
G04 #@! TO.C,C61*
X52280000Y-99160000D03*
X53280000Y-99160000D03*
G04 #@! TD*
D15*
G04 #@! TO.C,C33*
X29250000Y-100810000D03*
X29250000Y-101810000D03*
G04 #@! TD*
D16*
G04 #@! TO.C,U5*
X29690950Y-75880001D03*
X29690950Y-74930000D03*
X29690950Y-73979999D03*
X27189050Y-73979999D03*
X27189050Y-75880001D03*
G04 #@! TD*
D17*
G04 #@! TO.C,R15*
X64280000Y-73840000D03*
X64280000Y-75364000D03*
G04 #@! TD*
D11*
G04 #@! TO.C,C46*
X44960000Y-101520000D03*
X44960000Y-100520000D03*
G04 #@! TD*
D15*
G04 #@! TO.C,C42*
X72710000Y-93900000D03*
X72710000Y-94900000D03*
G04 #@! TD*
D14*
G04 #@! TO.C,C7*
X30670000Y-81480000D03*
X29670000Y-81480000D03*
G04 #@! TD*
G04 #@! TO.C,C8*
X30640000Y-80210000D03*
X29640000Y-80210000D03*
G04 #@! TD*
D15*
G04 #@! TO.C,C30*
X33190000Y-100610000D03*
X33190000Y-101610000D03*
G04 #@! TD*
G04 #@! TO.C,C24*
X53690000Y-104570000D03*
X53690000Y-105570000D03*
G04 #@! TD*
D10*
G04 #@! TO.C,C21*
X35010000Y-76190000D03*
X36010000Y-76190000D03*
G04 #@! TD*
D14*
G04 #@! TO.C,C36*
X30310000Y-97020000D03*
X29310000Y-97020000D03*
G04 #@! TD*
D15*
G04 #@! TO.C,C32*
X30600000Y-100850000D03*
X30600000Y-101850000D03*
G04 #@! TD*
G04 #@! TO.C,R14*
X71430000Y-101400000D03*
X71430000Y-102400000D03*
G04 #@! TD*
D18*
G04 #@! TO.C,R8*
X24430000Y-104872000D03*
X24430000Y-103348000D03*
G04 #@! TD*
D15*
G04 #@! TO.C,C82*
X61470000Y-73722000D03*
X61470000Y-74722000D03*
G04 #@! TD*
D11*
G04 #@! TO.C,C55*
X41380000Y-78960000D03*
X41380000Y-77960000D03*
G04 #@! TD*
D19*
G04 #@! TO.C,D2*
X59005000Y-100590000D03*
X57255000Y-100590000D03*
G04 #@! TD*
D16*
G04 #@! TO.C,U8*
X44059050Y-73959999D03*
X44059050Y-74910000D03*
X44059050Y-75860001D03*
X46560950Y-75860001D03*
X46560950Y-73959999D03*
G04 #@! TD*
D10*
G04 #@! TO.C,C2*
X37490000Y-73670000D03*
X38490000Y-73670000D03*
G04 #@! TD*
D20*
G04 #@! TO.C,D1*
X53815000Y-100590000D03*
X55565000Y-100590000D03*
G04 #@! TD*
D11*
G04 #@! TO.C,C13*
X35530000Y-78960000D03*
X35530000Y-77960000D03*
G04 #@! TD*
D14*
G04 #@! TO.C,C38*
X72520000Y-82100000D03*
X71520000Y-82100000D03*
G04 #@! TD*
D21*
G04 #@! TO.C,J1*
X28190000Y-86740000D03*
X28190000Y-92520000D03*
D22*
X29890000Y-86380000D03*
X29890000Y-87180000D03*
D23*
X29890000Y-88380000D03*
X29890000Y-89380000D03*
X29890000Y-89880000D03*
X29890000Y-90880000D03*
D22*
X29890000Y-92080000D03*
X29890000Y-92880000D03*
X29890000Y-92880000D03*
X29890000Y-92080000D03*
D23*
X29890000Y-91380000D03*
X29890000Y-90380000D03*
X29890000Y-88880000D03*
X29890000Y-87880000D03*
D22*
X29890000Y-87180000D03*
X29890000Y-86380000D03*
D24*
X28720000Y-85310000D03*
D25*
X24540000Y-85310000D03*
D24*
X28720000Y-93950000D03*
D25*
X24540000Y-93950000D03*
G04 #@! TD*
D10*
G04 #@! TO.C,C3*
X37510000Y-74930000D03*
X38510000Y-74930000D03*
G04 #@! TD*
D14*
G04 #@! TO.C,R24*
X61730000Y-100190000D03*
X60730000Y-100190000D03*
G04 #@! TD*
D10*
G04 #@! TO.C,R4*
X29360000Y-95780000D03*
X30360000Y-95780000D03*
G04 #@! TD*
D26*
G04 #@! TO.C,U2*
X64770000Y-83740000D03*
X65570000Y-83740000D03*
X66370000Y-83740000D03*
X69570000Y-83740000D03*
X70370000Y-83740000D03*
X71170000Y-83740000D03*
X64770000Y-84540000D03*
X65570000Y-84540000D03*
X66370000Y-84540000D03*
X69570000Y-84540000D03*
X70370000Y-84540000D03*
X71170000Y-84540000D03*
X64770000Y-85340000D03*
X65570000Y-85340000D03*
X66370000Y-85340000D03*
X69570000Y-85340000D03*
X70370000Y-85340000D03*
X71170000Y-85340000D03*
X64770000Y-86140000D03*
X65570000Y-86140000D03*
X66370000Y-86140000D03*
X69570000Y-86140000D03*
X70370000Y-86140000D03*
X71170000Y-86140000D03*
X64770000Y-86940000D03*
X65570000Y-86940000D03*
X66370000Y-86940000D03*
X69570000Y-86940000D03*
X70370000Y-86940000D03*
X71170000Y-86940000D03*
X64770000Y-87740000D03*
X65570000Y-87740000D03*
X66370000Y-87740000D03*
X69570000Y-87740000D03*
X70370000Y-87740000D03*
X71170000Y-87740000D03*
X64770000Y-88540000D03*
X65570000Y-88540000D03*
X66370000Y-88540000D03*
X69570000Y-88540000D03*
X70370000Y-88540000D03*
X71170000Y-88540000D03*
X64770000Y-89340000D03*
X65570000Y-89340000D03*
X66370000Y-89340000D03*
X69570000Y-89340000D03*
X70370000Y-89340000D03*
X71170000Y-89340000D03*
X64770000Y-90140000D03*
X65570000Y-90140000D03*
X66370000Y-90140000D03*
X69570000Y-90140000D03*
X70370000Y-90140000D03*
X71170000Y-90140000D03*
X64770000Y-90940000D03*
X65570000Y-90940000D03*
X66370000Y-90940000D03*
X69570000Y-90940000D03*
X70370000Y-90940000D03*
X71170000Y-90940000D03*
X64770000Y-91740000D03*
X65570000Y-91740000D03*
X66370000Y-91740000D03*
X69570000Y-91740000D03*
X70370000Y-91740000D03*
X71170000Y-91740000D03*
X64770000Y-92540000D03*
X65570000Y-92540000D03*
X66370000Y-92540000D03*
X69570000Y-92540000D03*
X70370000Y-92540000D03*
X71170000Y-92540000D03*
X64770000Y-93340000D03*
X65570000Y-93340000D03*
X66370000Y-93340000D03*
X69570000Y-93340000D03*
X70370000Y-93340000D03*
X71170000Y-93340000D03*
X64770000Y-94140000D03*
X65570000Y-94140000D03*
X66370000Y-94140000D03*
X69570000Y-94140000D03*
X70370000Y-94140000D03*
X71170000Y-94140000D03*
X64770000Y-94940000D03*
X65570000Y-94940000D03*
X66370000Y-94940000D03*
X69570000Y-94940000D03*
X70370000Y-94940000D03*
X71170000Y-94940000D03*
X64770000Y-95740000D03*
X65570000Y-95740000D03*
X66370000Y-95740000D03*
X69570000Y-95740000D03*
X70370000Y-95740000D03*
X71170000Y-95740000D03*
G04 #@! TD*
D11*
G04 #@! TO.C,C11*
X33120000Y-78940000D03*
X33120000Y-77940000D03*
G04 #@! TD*
G04 #@! TO.C,C31*
X35650000Y-101560000D03*
X35650000Y-100560000D03*
G04 #@! TD*
G04 #@! TO.C,C10*
X31920000Y-78940000D03*
X31920000Y-77940000D03*
G04 #@! TD*
G04 #@! TO.C,C5*
X24520000Y-80990000D03*
X24520000Y-79990000D03*
G04 #@! TD*
D14*
G04 #@! TO.C,C34*
X30350000Y-99500000D03*
X29350000Y-99500000D03*
G04 #@! TD*
D17*
G04 #@! TO.C,R10*
X56630000Y-103928000D03*
X56630000Y-105452000D03*
G04 #@! TD*
D18*
G04 #@! TO.C,R9*
X55080000Y-105422000D03*
X55080000Y-103898000D03*
G04 #@! TD*
G04 #@! TO.C,R12*
X25650000Y-76862000D03*
X25650000Y-75338000D03*
G04 #@! TD*
D10*
G04 #@! TO.C,C43*
X71620000Y-97620000D03*
X72620000Y-97620000D03*
G04 #@! TD*
D27*
G04 #@! TO.C,J3*
X71800000Y-79590000D03*
D28*
X71800000Y-77050000D03*
X71800000Y-74510000D03*
G04 #@! TD*
D11*
G04 #@! TO.C,C49*
X38330000Y-101520000D03*
X38330000Y-100520000D03*
G04 #@! TD*
G04 #@! TO.C,C14*
X36790000Y-78960000D03*
X36790000Y-77960000D03*
G04 #@! TD*
G04 #@! TO.C,C71*
X53500000Y-103250000D03*
X53500000Y-102250000D03*
G04 #@! TD*
G04 #@! TO.C,R19*
X70220000Y-102390000D03*
X70220000Y-101390000D03*
G04 #@! TD*
G04 #@! TO.C,C47*
X46340000Y-101510000D03*
X46340000Y-100510000D03*
G04 #@! TD*
D14*
G04 #@! TO.C,R21*
X55730000Y-102110000D03*
X54730000Y-102110000D03*
G04 #@! TD*
D10*
G04 #@! TO.C,C44*
X71620000Y-98680000D03*
X72620000Y-98680000D03*
G04 #@! TD*
D29*
G04 #@! TO.C,R1*
X49740000Y-73750000D03*
X48216000Y-73750000D03*
G04 #@! TD*
D11*
G04 #@! TO.C,C81*
X57130000Y-74752000D03*
X57130000Y-73752000D03*
G04 #@! TD*
G04 #@! TO.C,C83*
X35310000Y-105630000D03*
X35310000Y-104630000D03*
G04 #@! TD*
D15*
G04 #@! TO.C,C39*
X72630000Y-83540000D03*
X72630000Y-84540000D03*
G04 #@! TD*
D11*
G04 #@! TO.C,C50*
X39640000Y-101520000D03*
X39640000Y-100520000D03*
G04 #@! TD*
G04 #@! TO.C,C48*
X47680000Y-101490000D03*
X47680000Y-100490000D03*
G04 #@! TD*
G04 #@! TO.C,C17*
X38500000Y-78970000D03*
X38500000Y-77970000D03*
G04 #@! TD*
D15*
G04 #@! TO.C,C4*
X24530000Y-82450000D03*
X24530000Y-83450000D03*
G04 #@! TD*
D14*
G04 #@! TO.C,C6*
X30620000Y-82770000D03*
X29620000Y-82770000D03*
G04 #@! TD*
D15*
G04 #@! TO.C,C41*
X72690000Y-90690000D03*
X72690000Y-91690000D03*
G04 #@! TD*
D18*
G04 #@! TO.C,R16*
X65890000Y-75344000D03*
X65890000Y-73820000D03*
G04 #@! TD*
D11*
G04 #@! TO.C,C27*
X31900000Y-101610000D03*
X31900000Y-100610000D03*
G04 #@! TD*
D10*
G04 #@! TO.C,C76*
X24390000Y-95790000D03*
X25390000Y-95790000D03*
G04 #@! TD*
D16*
G04 #@! TO.C,U4*
X48429050Y-103449999D03*
X48429050Y-104400000D03*
X48429050Y-105350001D03*
X50930950Y-105350001D03*
X50930950Y-103449999D03*
G04 #@! TD*
D29*
G04 #@! TO.C,R11*
X26032000Y-78460000D03*
X24508000Y-78460000D03*
G04 #@! TD*
D10*
G04 #@! TO.C,R22*
X57170000Y-102090000D03*
X58170000Y-102090000D03*
G04 #@! TD*
D30*
G04 #@! TO.C,L2*
X46850000Y-104430000D03*
X44550000Y-104430000D03*
G04 #@! TD*
D17*
G04 #@! TO.C,R7*
X25980000Y-103406000D03*
X25980000Y-104930000D03*
G04 #@! TD*
D10*
G04 #@! TO.C,C26*
X24420000Y-101870000D03*
X25420000Y-101870000D03*
G04 #@! TD*
D15*
G04 #@! TO.C,C15*
X49790000Y-100580000D03*
X49790000Y-101580000D03*
G04 #@! TD*
D10*
G04 #@! TO.C,C78*
X27330000Y-77300000D03*
X28330000Y-77300000D03*
G04 #@! TD*
D18*
G04 #@! TO.C,R18*
X60080000Y-75394000D03*
X60080000Y-73870000D03*
G04 #@! TD*
D10*
G04 #@! TO.C,R23*
X27360000Y-79390000D03*
X28360000Y-79390000D03*
G04 #@! TD*
D14*
G04 #@! TO.C,C84*
X25380000Y-100670000D03*
X24380000Y-100670000D03*
G04 #@! TD*
D11*
G04 #@! TO.C,C51*
X40960000Y-101530000D03*
X40960000Y-100530000D03*
G04 #@! TD*
G04 #@! TO.C,C45*
X43610000Y-101530000D03*
X43610000Y-100530000D03*
G04 #@! TD*
G04 #@! TO.C,C73*
X41970950Y-105570001D03*
X41970950Y-104570001D03*
G04 #@! TD*
D15*
G04 #@! TO.C,C60*
X52310000Y-100570000D03*
X52310000Y-101570000D03*
G04 #@! TD*
D14*
G04 #@! TO.C,C79*
X36010000Y-73660000D03*
X35010000Y-73660000D03*
G04 #@! TD*
G04 #@! TO.C,C9*
X30640000Y-78950000D03*
X29640000Y-78950000D03*
G04 #@! TD*
G04 #@! TO.C,C1*
X30630000Y-77750000D03*
X29630000Y-77750000D03*
G04 #@! TD*
D11*
G04 #@! TO.C,C22*
X51188000Y-74710000D03*
X51188000Y-73710000D03*
G04 #@! TD*
D10*
G04 #@! TO.C,C85*
X24380000Y-74000000D03*
X25380000Y-74000000D03*
G04 #@! TD*
D11*
G04 #@! TO.C,C52*
X42300000Y-101530000D03*
X42300000Y-100530000D03*
G04 #@! TD*
G04 #@! TO.C,C74*
X62880000Y-74702000D03*
X62880000Y-73702000D03*
G04 #@! TD*
D30*
G04 #@! TO.C,L4*
X42350000Y-74930000D03*
X40050000Y-74930000D03*
G04 #@! TD*
D10*
G04 #@! TO.C,C53*
X26850000Y-100670000D03*
X27850000Y-100670000D03*
G04 #@! TD*
D14*
G04 #@! TO.C,C25*
X38520000Y-76220000D03*
X37520000Y-76220000D03*
G04 #@! TD*
D31*
G04 #@! TO.C,U7*
X39177500Y-105500000D03*
X39177500Y-103600000D03*
X36902500Y-104550000D03*
G04 #@! TD*
D11*
G04 #@! TO.C,C40*
X72620000Y-87010000D03*
X72620000Y-86010000D03*
G04 #@! TD*
G04 #@! TO.C,C77*
X24300000Y-76980000D03*
X24300000Y-75980000D03*
G04 #@! TD*
D32*
G04 #@! TO.C,R2*
X70956000Y-99950000D03*
X72480000Y-99950000D03*
G04 #@! TD*
D30*
G04 #@! TO.C,L1*
X31660000Y-104500000D03*
X33960000Y-104500000D03*
G04 #@! TD*
G04 #@! TO.C,L3*
X31250000Y-74870000D03*
X33550000Y-74870000D03*
G04 #@! TD*
D11*
G04 #@! TO.C,C56*
X42650000Y-78960000D03*
X42650000Y-77960000D03*
G04 #@! TD*
D10*
G04 #@! TO.C,R26*
X45240000Y-77230000D03*
X46240000Y-77230000D03*
G04 #@! TD*
D14*
G04 #@! TO.C,C35*
X30350000Y-98240000D03*
X29350000Y-98240000D03*
G04 #@! TD*
D11*
G04 #@! TO.C,C12*
X34330000Y-78950000D03*
X34330000Y-77950000D03*
G04 #@! TD*
D18*
G04 #@! TO.C,R5*
X55770000Y-75412000D03*
X55770000Y-73888000D03*
G04 #@! TD*
D26*
G04 #@! TO.C,U1*
X50160000Y-98550000D03*
X49360000Y-98550000D03*
X48560000Y-98550000D03*
X47760000Y-98550000D03*
X46960000Y-98550000D03*
X46160000Y-98550000D03*
X45360000Y-98550000D03*
X44560000Y-98550000D03*
X43760000Y-98550000D03*
X42960000Y-98550000D03*
X42160000Y-98550000D03*
X41360000Y-98550000D03*
X40560000Y-98550000D03*
X39760000Y-98550000D03*
X38960000Y-98550000D03*
X38160000Y-98550000D03*
X37360000Y-98550000D03*
X36560000Y-98550000D03*
X35760000Y-98550000D03*
X34960000Y-98550000D03*
X34160000Y-98550000D03*
X33360000Y-98550000D03*
X32560000Y-98550000D03*
X50160000Y-82550000D03*
X49360000Y-82550000D03*
X48560000Y-82550000D03*
X47760000Y-82550000D03*
X46960000Y-82550000D03*
X46160000Y-82550000D03*
X45360000Y-82550000D03*
X44560000Y-82550000D03*
X43760000Y-82550000D03*
X42960000Y-82550000D03*
X42160000Y-82550000D03*
X41360000Y-82550000D03*
X40560000Y-82550000D03*
X39760000Y-82550000D03*
X38960000Y-82550000D03*
X38160000Y-82550000D03*
X37360000Y-82550000D03*
X36560000Y-82550000D03*
X35760000Y-82550000D03*
X34960000Y-82550000D03*
X34160000Y-82550000D03*
X33360000Y-82550000D03*
X32560000Y-82550000D03*
X50160000Y-81750000D03*
X49360000Y-81750000D03*
X48560000Y-81750000D03*
X47760000Y-81750000D03*
X46960000Y-81750000D03*
X46160000Y-81750000D03*
X45360000Y-81750000D03*
X44560000Y-81750000D03*
X43760000Y-81750000D03*
X42960000Y-81750000D03*
X42160000Y-81750000D03*
X41360000Y-81750000D03*
X40560000Y-81750000D03*
X39760000Y-81750000D03*
X38960000Y-81750000D03*
X38160000Y-81750000D03*
X37360000Y-81750000D03*
X36560000Y-81750000D03*
X35760000Y-81750000D03*
X34960000Y-81750000D03*
X34160000Y-81750000D03*
X33360000Y-81750000D03*
X32560000Y-81750000D03*
X50160000Y-80950000D03*
X49360000Y-80950000D03*
X48560000Y-80950000D03*
X47760000Y-80950000D03*
X46960000Y-80950000D03*
X46160000Y-80950000D03*
X45360000Y-80950000D03*
X44560000Y-80950000D03*
X43760000Y-80950000D03*
X42960000Y-80950000D03*
X42160000Y-80950000D03*
X41360000Y-80950000D03*
X40560000Y-80950000D03*
X39760000Y-80950000D03*
X38960000Y-80950000D03*
X38160000Y-80950000D03*
X37360000Y-80950000D03*
X36560000Y-80950000D03*
X35760000Y-80950000D03*
X34960000Y-80950000D03*
X34160000Y-80950000D03*
X33360000Y-80950000D03*
X32560000Y-80950000D03*
X50160000Y-97750000D03*
X49360000Y-97750000D03*
X48560000Y-97750000D03*
X47760000Y-97750000D03*
X46960000Y-97750000D03*
X46160000Y-97750000D03*
X45360000Y-97750000D03*
X44560000Y-97750000D03*
X43760000Y-97750000D03*
X42960000Y-97750000D03*
X42160000Y-97750000D03*
X41360000Y-97750000D03*
X40560000Y-97750000D03*
X39760000Y-97750000D03*
X38960000Y-97750000D03*
X38160000Y-97750000D03*
X37360000Y-97750000D03*
X36560000Y-97750000D03*
X35760000Y-97750000D03*
X34960000Y-97750000D03*
X34160000Y-97750000D03*
X33360000Y-97750000D03*
X32560000Y-97750000D03*
X50160000Y-96950000D03*
X49360000Y-96950000D03*
X48560000Y-96950000D03*
X47760000Y-96950000D03*
X46960000Y-96950000D03*
X46160000Y-96950000D03*
X45360000Y-96950000D03*
X44560000Y-96950000D03*
X43760000Y-96950000D03*
X42960000Y-96950000D03*
X42160000Y-96950000D03*
X41360000Y-96950000D03*
X40560000Y-96950000D03*
X39760000Y-96950000D03*
X38960000Y-96950000D03*
X38160000Y-96950000D03*
X37360000Y-96950000D03*
X36560000Y-96950000D03*
X35760000Y-96950000D03*
X34960000Y-96950000D03*
X34160000Y-96950000D03*
X33360000Y-96950000D03*
X32560000Y-96950000D03*
X50160000Y-96150000D03*
X49360000Y-96150000D03*
X48560000Y-96150000D03*
X47760000Y-96150000D03*
X46960000Y-96150000D03*
X46160000Y-96150000D03*
X45360000Y-96150000D03*
X44560000Y-96150000D03*
X43760000Y-96150000D03*
X42960000Y-96150000D03*
X42160000Y-96150000D03*
X41360000Y-96150000D03*
X40560000Y-96150000D03*
X39760000Y-96150000D03*
X38960000Y-96150000D03*
X38160000Y-96150000D03*
X37360000Y-96150000D03*
X36560000Y-96150000D03*
X35760000Y-96150000D03*
X34960000Y-96150000D03*
X34160000Y-96150000D03*
X33360000Y-96150000D03*
X32560000Y-96150000D03*
X50160000Y-95350000D03*
X49360000Y-95350000D03*
X48560000Y-95350000D03*
X47760000Y-95350000D03*
X46960000Y-95350000D03*
X46160000Y-95350000D03*
X45360000Y-95350000D03*
X44560000Y-95350000D03*
X43760000Y-95350000D03*
X42960000Y-95350000D03*
X42160000Y-95350000D03*
X41360000Y-95350000D03*
X40560000Y-95350000D03*
X39760000Y-95350000D03*
X38960000Y-95350000D03*
X38160000Y-95350000D03*
X37360000Y-95350000D03*
X36560000Y-95350000D03*
X35760000Y-95350000D03*
X34960000Y-95350000D03*
X34160000Y-95350000D03*
X33360000Y-95350000D03*
X32560000Y-95350000D03*
X50160000Y-94550000D03*
X49360000Y-94550000D03*
X48560000Y-94550000D03*
X47760000Y-94550000D03*
X46960000Y-94550000D03*
X35760000Y-94550000D03*
X34960000Y-94550000D03*
X34160000Y-94550000D03*
X33360000Y-94550000D03*
X32560000Y-94550000D03*
X50160000Y-93750000D03*
X49360000Y-93750000D03*
X48560000Y-93750000D03*
X47760000Y-93750000D03*
X46960000Y-93750000D03*
X35760000Y-93750000D03*
X34960000Y-93750000D03*
X34160000Y-93750000D03*
X33360000Y-93750000D03*
X32560000Y-93750000D03*
X50160000Y-92950000D03*
X49360000Y-92950000D03*
X48560000Y-92950000D03*
X47760000Y-92950000D03*
X46960000Y-92950000D03*
X44560000Y-92950000D03*
X43760000Y-92950000D03*
X42960000Y-92950000D03*
X42160000Y-92950000D03*
X41360000Y-92950000D03*
X40560000Y-92950000D03*
X39760000Y-92950000D03*
X38960000Y-92950000D03*
X38160000Y-92950000D03*
X35760000Y-92950000D03*
X34960000Y-92950000D03*
X34160000Y-92950000D03*
X33360000Y-92950000D03*
X32560000Y-92950000D03*
X50160000Y-92150000D03*
X49360000Y-92150000D03*
X48560000Y-92150000D03*
X47760000Y-92150000D03*
X46960000Y-92150000D03*
X44560000Y-92150000D03*
X43760000Y-92150000D03*
X42960000Y-92150000D03*
X42160000Y-92150000D03*
X41360000Y-92150000D03*
X40560000Y-92150000D03*
X39760000Y-92150000D03*
X38960000Y-92150000D03*
X38160000Y-92150000D03*
X35760000Y-92150000D03*
X34960000Y-92150000D03*
X34160000Y-92150000D03*
X33360000Y-92150000D03*
X32560000Y-92150000D03*
X50160000Y-91350000D03*
X49360000Y-91350000D03*
X48560000Y-91350000D03*
X47760000Y-91350000D03*
X46960000Y-91350000D03*
X44560000Y-91350000D03*
X43760000Y-91350000D03*
X42960000Y-91350000D03*
X42160000Y-91350000D03*
X41360000Y-91350000D03*
X40560000Y-91350000D03*
X39760000Y-91350000D03*
X38960000Y-91350000D03*
X38160000Y-91350000D03*
X35760000Y-91350000D03*
X34960000Y-91350000D03*
X34160000Y-91350000D03*
X33360000Y-91350000D03*
X32560000Y-91350000D03*
X50160000Y-90550000D03*
X49360000Y-90550000D03*
X48560000Y-90550000D03*
X47760000Y-90550000D03*
X46960000Y-90550000D03*
X44560000Y-90550000D03*
X43760000Y-90550000D03*
X42960000Y-90550000D03*
X42160000Y-90550000D03*
X41360000Y-90550000D03*
X40560000Y-90550000D03*
X39760000Y-90550000D03*
X38960000Y-90550000D03*
X38160000Y-90550000D03*
X35760000Y-90550000D03*
X34960000Y-90550000D03*
X34160000Y-90550000D03*
X33360000Y-90550000D03*
X32560000Y-90550000D03*
X50160000Y-89750000D03*
X49360000Y-89750000D03*
X48560000Y-89750000D03*
X47760000Y-89750000D03*
X46960000Y-89750000D03*
X44560000Y-89750000D03*
X43760000Y-89750000D03*
X42960000Y-89750000D03*
X42160000Y-89750000D03*
X41360000Y-89750000D03*
X40560000Y-89750000D03*
X39760000Y-89750000D03*
X38960000Y-89750000D03*
X38160000Y-89750000D03*
X35760000Y-89750000D03*
X34960000Y-89750000D03*
X34160000Y-89750000D03*
X33360000Y-89750000D03*
X32560000Y-89750000D03*
X50160000Y-88950000D03*
X49360000Y-88950000D03*
X48560000Y-88950000D03*
X47760000Y-88950000D03*
X46960000Y-88950000D03*
X44560000Y-88950000D03*
X43760000Y-88950000D03*
X42960000Y-88950000D03*
X42160000Y-88950000D03*
X41360000Y-88950000D03*
X40560000Y-88950000D03*
X39760000Y-88950000D03*
X38960000Y-88950000D03*
X38160000Y-88950000D03*
X35760000Y-88950000D03*
X34960000Y-88950000D03*
X34160000Y-88950000D03*
X33360000Y-88950000D03*
X32560000Y-88950000D03*
X50160000Y-88150000D03*
X49360000Y-88150000D03*
X48560000Y-88150000D03*
X47760000Y-88150000D03*
X46960000Y-88150000D03*
X44560000Y-88150000D03*
X43760000Y-88150000D03*
X42960000Y-88150000D03*
X42160000Y-88150000D03*
X41360000Y-88150000D03*
X40560000Y-88150000D03*
X39760000Y-88150000D03*
X38960000Y-88150000D03*
X38160000Y-88150000D03*
X35760000Y-88150000D03*
X34960000Y-88150000D03*
X34160000Y-88150000D03*
X33360000Y-88150000D03*
X32560000Y-88150000D03*
X50160000Y-87350000D03*
X49360000Y-87350000D03*
X48560000Y-87350000D03*
X47760000Y-87350000D03*
X46960000Y-87350000D03*
X44560000Y-87350000D03*
X43760000Y-87350000D03*
X42960000Y-87350000D03*
X42160000Y-87350000D03*
X41360000Y-87350000D03*
X40560000Y-87350000D03*
X39760000Y-87350000D03*
X38960000Y-87350000D03*
X38160000Y-87350000D03*
X35760000Y-87350000D03*
X34960000Y-87350000D03*
X34160000Y-87350000D03*
X33360000Y-87350000D03*
X32560000Y-87350000D03*
X50160000Y-86550000D03*
X49360000Y-86550000D03*
X48560000Y-86550000D03*
X47760000Y-86550000D03*
X46960000Y-86550000D03*
X44560000Y-86550000D03*
X43760000Y-86550000D03*
X42960000Y-86550000D03*
X42160000Y-86550000D03*
X41360000Y-86550000D03*
X40560000Y-86550000D03*
X39760000Y-86550000D03*
X38960000Y-86550000D03*
X38160000Y-86550000D03*
X35760000Y-86550000D03*
X34960000Y-86550000D03*
X34160000Y-86550000D03*
X33360000Y-86550000D03*
X32560000Y-86550000D03*
X50160000Y-85750000D03*
X49360000Y-85750000D03*
X48560000Y-85750000D03*
X47760000Y-85750000D03*
X46960000Y-85750000D03*
X35760000Y-85750000D03*
X34960000Y-85750000D03*
X34160000Y-85750000D03*
X33360000Y-85750000D03*
X32560000Y-85750000D03*
X50160000Y-84950000D03*
X49360000Y-84950000D03*
X48560000Y-84950000D03*
X47760000Y-84950000D03*
X46960000Y-84950000D03*
X35760000Y-84950000D03*
X34960000Y-84950000D03*
X34160000Y-84950000D03*
X33360000Y-84950000D03*
X32560000Y-84950000D03*
X50160000Y-84150000D03*
X49360000Y-84150000D03*
X48560000Y-84150000D03*
X47760000Y-84150000D03*
X46960000Y-84150000D03*
X46160000Y-84150000D03*
X45360000Y-84150000D03*
X44560000Y-84150000D03*
X43760000Y-84150000D03*
X42960000Y-84150000D03*
X42160000Y-84150000D03*
X41360000Y-84150000D03*
X40560000Y-84150000D03*
X39760000Y-84150000D03*
X38960000Y-84150000D03*
X38160000Y-84150000D03*
X37360000Y-84150000D03*
X36560000Y-84150000D03*
X35760000Y-84150000D03*
X34960000Y-84150000D03*
X34160000Y-84150000D03*
X33360000Y-84150000D03*
X32560000Y-84150000D03*
X50160000Y-83350000D03*
X49360000Y-83350000D03*
X48560000Y-83350000D03*
X47760000Y-83350000D03*
X46960000Y-83350000D03*
X46160000Y-83350000D03*
X45360000Y-83350000D03*
X44560000Y-83350000D03*
X43760000Y-83350000D03*
X42960000Y-83350000D03*
X42160000Y-83350000D03*
X41360000Y-83350000D03*
X40560000Y-83350000D03*
X39760000Y-83350000D03*
X38960000Y-83350000D03*
X38160000Y-83350000D03*
X37360000Y-83350000D03*
X36560000Y-83350000D03*
X35760000Y-83350000D03*
X34960000Y-83350000D03*
X34160000Y-83350000D03*
X33360000Y-83350000D03*
X32560000Y-83350000D03*
G04 #@! TD*
D32*
G04 #@! TO.C,R6*
X48236000Y-75260000D03*
X49760000Y-75260000D03*
G04 #@! TD*
D15*
G04 #@! TO.C,C23*
X52460000Y-104580000D03*
X52460000Y-105580000D03*
G04 #@! TD*
D33*
G04 #@! TO.C,J5*
X68020000Y-101640000D03*
X66770000Y-101640000D03*
X65520000Y-101640000D03*
X64270000Y-101640000D03*
X63020000Y-101640000D03*
X61770000Y-101640000D03*
X60520000Y-101640000D03*
D34*
X58272900Y-104942000D03*
X70267100Y-104942000D03*
G04 #@! TD*
D11*
G04 #@! TO.C,C72*
X43200950Y-105570001D03*
X43200950Y-104570001D03*
G04 #@! TD*
D15*
G04 #@! TO.C,C28*
X34450000Y-100590000D03*
X34450000Y-101590000D03*
G04 #@! TD*
G04 #@! TO.C,C29*
X36880000Y-100540000D03*
X36880000Y-101540000D03*
G04 #@! TD*
G04 #@! TO.C,R13*
X72690000Y-101390000D03*
X72690000Y-102390000D03*
G04 #@! TD*
G04 #@! TO.C,C75*
X67320000Y-73672000D03*
X67320000Y-74672000D03*
G04 #@! TD*
D10*
G04 #@! TO.C,C70*
X26940000Y-101890000D03*
X27940000Y-101890000D03*
G04 #@! TD*
G04 #@! TO.C,R3*
X26850000Y-95810000D03*
X27850000Y-95810000D03*
G04 #@! TD*
D35*
G04 #@! TO.C,Y1*
X26102599Y-80876200D03*
X26102599Y-83076200D03*
X27802599Y-83076200D03*
X27802599Y-80876200D03*
G04 #@! TD*
D36*
G04 #@! TO.C,U6*
X24902500Y-97290000D03*
X24902500Y-99190000D03*
X27177500Y-98240000D03*
G04 #@! TD*
D11*
G04 #@! TO.C,C37*
X68610000Y-73700000D03*
X68610000Y-74700000D03*
G04 #@! TD*
D17*
G04 #@! TO.C,R17*
X58520000Y-73878000D03*
X58520000Y-75402000D03*
G04 #@! TD*
D11*
G04 #@! TO.C,C54*
X40140000Y-78960000D03*
X40140000Y-77960000D03*
G04 #@! TD*
G04 #@! TO.C,C86*
X40780000Y-105570000D03*
X40780000Y-104570000D03*
G04 #@! TD*
D16*
G04 #@! TO.C,U3*
X30110950Y-105380001D03*
X30110950Y-104430000D03*
X30110950Y-103479999D03*
X27609050Y-103479999D03*
X27609050Y-105380001D03*
G04 #@! TD*
M02*
