G04 #@! TF.GenerationSoftware,KiCad,Pcbnew,7.0.1-0*
G04 #@! TF.CreationDate,2023-04-29T19:14:42+08:00*
G04 #@! TF.ProjectId,slimarm_classic_2410,736c696d-6172-46d5-9f63-6c6173736963,rev?*
G04 #@! TF.SameCoordinates,Original*
G04 #@! TF.FileFunction,Paste,Top*
G04 #@! TF.FilePolarity,Positive*
%FSLAX46Y46*%
G04 Gerber Fmt 4.6, Leading zero omitted, Abs format (unit mm)*
G04 Created by KiCad (PCBNEW 7.0.1-0) date 2023-04-29 19:14:42*
%MOMM*%
%LPD*%
G01*
G04 APERTURE LIST*
G04 Aperture macros list*
%AMRoundRect*
0 Rectangle with rounded corners*
0 $1 Rounding radius*
0 $2 $3 $4 $5 $6 $7 $8 $9 X,Y pos of 4 corners*
0 Add a 4 corners polygon primitive as box body*
4,1,4,$2,$3,$4,$5,$6,$7,$8,$9,$2,$3,0*
0 Add four circle primitives for the rounded corners*
1,1,$1+$1,$2,$3*
1,1,$1+$1,$4,$5*
1,1,$1+$1,$6,$7*
1,1,$1+$1,$8,$9*
0 Add four rect primitives between the rounded corners*
20,1,$1+$1,$2,$3,$4,$5,0*
20,1,$1+$1,$4,$5,$6,$7,0*
20,1,$1+$1,$6,$7,$8,$9,0*
20,1,$1+$1,$8,$9,$2,$3,0*%
%AMFreePoly0*
4,1,9,3.862500,-0.866500,0.737500,-0.866500,0.737500,-0.450000,-0.737500,-0.450000,-0.737500,0.450000,0.737500,0.450000,0.737500,0.866500,3.862500,0.866500,3.862500,-0.866500,3.862500,-0.866500,$1*%
G04 Aperture macros list end*
%ADD10RoundRect,0.150000X0.150000X-0.825000X0.150000X0.825000X-0.150000X0.825000X-0.150000X-0.825000X0*%
%ADD11RoundRect,0.155000X-0.212500X-0.155000X0.212500X-0.155000X0.212500X0.155000X-0.212500X0.155000X0*%
%ADD12RoundRect,0.237500X-0.237500X0.250000X-0.237500X-0.250000X0.237500X-0.250000X0.237500X0.250000X0*%
%ADD13RoundRect,0.155000X-0.155000X0.212500X-0.155000X-0.212500X0.155000X-0.212500X0.155000X0.212500X0*%
%ADD14C,0.410000*%
%ADD15R,0.600000X2.000000*%
%ADD16R,0.300000X2.000000*%
%ADD17R,0.600000X1.450000*%
%ADD18RoundRect,0.237500X0.287500X0.237500X-0.287500X0.237500X-0.287500X-0.237500X0.287500X-0.237500X0*%
%ADD19RoundRect,0.155000X0.155000X-0.212500X0.155000X0.212500X-0.155000X0.212500X-0.155000X-0.212500X0*%
%ADD20RoundRect,0.155000X0.212500X0.155000X-0.212500X0.155000X-0.212500X-0.155000X0.212500X-0.155000X0*%
%ADD21R,0.711200X1.270000*%
%ADD22RoundRect,0.400050X0.400050X0.704850X-0.400050X0.704850X-0.400050X-0.704850X0.400050X-0.704850X0*%
%ADD23R,1.600200X2.209800*%
%ADD24R,1.300000X0.900000*%
%ADD25FreePoly0,180.000000*%
%ADD26RoundRect,0.237500X0.237500X-0.250000X0.237500X0.250000X-0.237500X0.250000X-0.237500X-0.250000X0*%
%ADD27RoundRect,0.155000X-0.040659X-0.259862X0.259862X0.040659X0.040659X0.259862X-0.259862X-0.040659X0*%
%ADD28RoundRect,0.160000X-0.197500X-0.160000X0.197500X-0.160000X0.197500X0.160000X-0.197500X0.160000X0*%
%ADD29RoundRect,0.127000X0.127000X-0.719900X0.127000X0.719900X-0.127000X0.719900X-0.127000X-0.719900X0*%
%ADD30RoundRect,0.063500X0.952500X0.063500X-0.952500X0.063500X-0.952500X-0.063500X0.952500X-0.063500X0*%
%ADD31RoundRect,0.160000X0.197500X0.160000X-0.197500X0.160000X-0.197500X-0.160000X0.197500X-0.160000X0*%
%ADD32R,2.000000X2.400000*%
%ADD33RoundRect,0.237500X-0.250000X-0.237500X0.250000X-0.237500X0.250000X0.237500X-0.250000X0.237500X0*%
G04 APERTURE END LIST*
D10*
G04 #@! TO.C,U1*
X36875000Y-45115000D03*
X38145000Y-45115000D03*
X39415000Y-45115000D03*
X40685000Y-45115000D03*
X41955000Y-45115000D03*
X43225000Y-45115000D03*
X44495000Y-45115000D03*
X45765000Y-45115000D03*
X45765000Y-40165000D03*
X44495000Y-40165000D03*
X43225000Y-40165000D03*
X41955000Y-40165000D03*
X40685000Y-40165000D03*
X39415000Y-40165000D03*
X38145000Y-40165000D03*
X36875000Y-40165000D03*
G04 #@! TD*
D11*
G04 #@! TO.C,C48*
X47722500Y-44460000D03*
X48857500Y-44460000D03*
G04 #@! TD*
D12*
G04 #@! TO.C,R7*
X23020000Y-39227500D03*
X23020000Y-41052500D03*
G04 #@! TD*
D13*
G04 #@! TO.C,C21*
X25710000Y-18342500D03*
X25710000Y-19477500D03*
G04 #@! TD*
G04 #@! TO.C,C40*
X30950000Y-18322500D03*
X30950000Y-19457500D03*
G04 #@! TD*
D11*
G04 #@! TO.C,C14*
X23072500Y-19720000D03*
X24207500Y-19720000D03*
G04 #@! TD*
D13*
G04 #@! TO.C,C35*
X31310000Y-35500000D03*
X31310000Y-36635000D03*
G04 #@! TD*
D11*
G04 #@! TO.C,C43*
X23085000Y-25340000D03*
X24220000Y-25340000D03*
G04 #@! TD*
D14*
G04 #@! TO.C,IC1*
X38650000Y-21100000D03*
X38650000Y-21900000D03*
X38650000Y-22700000D03*
X38650000Y-23500000D03*
X38650000Y-24300000D03*
X38650000Y-25100000D03*
X38650000Y-25900000D03*
X38650000Y-26700000D03*
X38650000Y-27500000D03*
X38650000Y-28300000D03*
X38650000Y-29100000D03*
X38650000Y-29900000D03*
X38650000Y-30700000D03*
X38650000Y-31500000D03*
X38650000Y-32300000D03*
X38650000Y-33100000D03*
X38650000Y-33900000D03*
X37850000Y-21100000D03*
X37850000Y-21900000D03*
X37850000Y-22700000D03*
X37850000Y-23500000D03*
X37850000Y-24300000D03*
X37850000Y-25100000D03*
X37850000Y-25900000D03*
X37850000Y-26700000D03*
X37850000Y-27500000D03*
X37850000Y-28300000D03*
X37850000Y-29100000D03*
X37850000Y-29900000D03*
X37850000Y-30700000D03*
X37850000Y-31500000D03*
X37850000Y-32300000D03*
X37850000Y-33100000D03*
X37850000Y-33900000D03*
X37050000Y-21100000D03*
X37050000Y-21900000D03*
X37050000Y-22700000D03*
X37050000Y-23500000D03*
X37050000Y-24300000D03*
X37050000Y-25100000D03*
X37050000Y-25900000D03*
X37050000Y-26700000D03*
X37050000Y-27500000D03*
X37050000Y-28300000D03*
X37050000Y-29100000D03*
X37050000Y-29900000D03*
X37050000Y-30700000D03*
X37050000Y-31500000D03*
X37050000Y-32300000D03*
X37050000Y-33100000D03*
X37050000Y-33900000D03*
X36250000Y-21100000D03*
X36250000Y-21900000D03*
X36250000Y-22700000D03*
X36250000Y-23500000D03*
X36250000Y-24300000D03*
X36250000Y-25100000D03*
X36250000Y-25900000D03*
X36250000Y-26700000D03*
X36250000Y-27500000D03*
X36250000Y-28300000D03*
X36250000Y-29100000D03*
X36250000Y-29900000D03*
X36250000Y-30700000D03*
X36250000Y-31500000D03*
X36250000Y-32300000D03*
X36250000Y-33100000D03*
X36250000Y-33900000D03*
X35450000Y-21100000D03*
X35450000Y-21900000D03*
X35450000Y-22700000D03*
X35450000Y-23500000D03*
X35450000Y-24300000D03*
X35450000Y-25100000D03*
X35450000Y-25900000D03*
X35450000Y-26700000D03*
X35450000Y-27500000D03*
X35450000Y-28300000D03*
X35450000Y-29100000D03*
X35450000Y-29900000D03*
X35450000Y-30700000D03*
X35450000Y-31500000D03*
X35450000Y-32300000D03*
X35450000Y-33100000D03*
X35450000Y-33900000D03*
X34650000Y-21100000D03*
X34650000Y-21900000D03*
X34650000Y-22700000D03*
X34650000Y-23500000D03*
X34650000Y-24300000D03*
X34650000Y-25100000D03*
X34650000Y-25900000D03*
X34650000Y-26700000D03*
X34650000Y-27500000D03*
X34650000Y-28300000D03*
X34650000Y-29100000D03*
X34650000Y-29900000D03*
X34650000Y-30700000D03*
X34650000Y-31500000D03*
X34650000Y-32300000D03*
X34650000Y-33100000D03*
X34650000Y-33900000D03*
X33850000Y-21100000D03*
X33850000Y-21900000D03*
X33850000Y-22700000D03*
X33850000Y-23500000D03*
X33850000Y-24300000D03*
X33850000Y-25100000D03*
X33850000Y-25900000D03*
X33850000Y-27500000D03*
X33850000Y-29100000D03*
X33850000Y-29900000D03*
X33850000Y-30700000D03*
X33850000Y-31500000D03*
X33850000Y-32300000D03*
X33850000Y-33100000D03*
X33850000Y-33900000D03*
X33050000Y-21100000D03*
X33050000Y-21900000D03*
X33050000Y-22700000D03*
X33050000Y-23500000D03*
X33050000Y-24300000D03*
X33050000Y-25100000D03*
X33050000Y-29900000D03*
X33050000Y-30700000D03*
X33050000Y-31500000D03*
X33050000Y-32300000D03*
X33050000Y-33100000D03*
X33050000Y-33900000D03*
X32250000Y-21100000D03*
X32250000Y-21900000D03*
X32250000Y-22700000D03*
X32250000Y-23500000D03*
X32250000Y-24300000D03*
X32250000Y-25100000D03*
X32250000Y-25900000D03*
X32250000Y-29100000D03*
X32250000Y-29900000D03*
X32250000Y-30700000D03*
X32250000Y-31500000D03*
X32250000Y-32300000D03*
X32250000Y-33100000D03*
X32250000Y-33900000D03*
X31450000Y-21100000D03*
X31450000Y-21900000D03*
X31450000Y-22700000D03*
X31450000Y-23500000D03*
X31450000Y-24300000D03*
X31450000Y-25100000D03*
X31450000Y-29900000D03*
X31450000Y-30700000D03*
X31450000Y-31500000D03*
X31450000Y-32300000D03*
X31450000Y-33100000D03*
X31450000Y-33900000D03*
X30650000Y-21100000D03*
X30650000Y-21900000D03*
X30650000Y-22700000D03*
X30650000Y-23500000D03*
X30650000Y-24300000D03*
X30650000Y-25100000D03*
X30650000Y-25900000D03*
X30650000Y-27500000D03*
X30650000Y-29100000D03*
X30650000Y-29900000D03*
X30650000Y-30700000D03*
X30650000Y-31500000D03*
X30650000Y-32300000D03*
X30650000Y-33100000D03*
X30650000Y-33900000D03*
X29850000Y-21100000D03*
X29850000Y-21900000D03*
X29850000Y-22700000D03*
X29850000Y-23500000D03*
X29850000Y-24300000D03*
X29850000Y-25100000D03*
X29850000Y-25900000D03*
X29850000Y-26700000D03*
X29850000Y-27500000D03*
X29850000Y-28300000D03*
X29850000Y-29100000D03*
X29850000Y-29900000D03*
X29850000Y-30700000D03*
X29850000Y-31500000D03*
X29850000Y-32300000D03*
X29850000Y-33100000D03*
X29850000Y-33900000D03*
X29050000Y-21100000D03*
X29050000Y-21900000D03*
X29050000Y-22700000D03*
X29050000Y-23500000D03*
X29050000Y-24300000D03*
X29050000Y-25100000D03*
X29050000Y-25900000D03*
X29050000Y-26700000D03*
X29050000Y-27500000D03*
X29050000Y-28300000D03*
X29050000Y-29100000D03*
X29050000Y-29900000D03*
X29050000Y-30700000D03*
X29050000Y-31500000D03*
X29050000Y-32300000D03*
X29050000Y-33100000D03*
X29050000Y-33900000D03*
X28250000Y-21100000D03*
X28250000Y-21900000D03*
X28250000Y-22700000D03*
X28250000Y-23500000D03*
X28250000Y-24300000D03*
X28250000Y-25100000D03*
X28250000Y-25900000D03*
X28250000Y-26700000D03*
X28250000Y-27500000D03*
X28250000Y-28300000D03*
X28250000Y-29100000D03*
X28250000Y-29900000D03*
X28250000Y-30700000D03*
X28250000Y-31500000D03*
X28250000Y-32300000D03*
X28250000Y-33100000D03*
X28250000Y-33900000D03*
X27450000Y-21100000D03*
X27450000Y-21900000D03*
X27450000Y-22700000D03*
X27450000Y-23500000D03*
X27450000Y-24300000D03*
X27450000Y-25100000D03*
X27450000Y-25900000D03*
X27450000Y-26700000D03*
X27450000Y-27500000D03*
X27450000Y-28300000D03*
X27450000Y-29100000D03*
X27450000Y-29900000D03*
X27450000Y-30700000D03*
X27450000Y-31500000D03*
X27450000Y-32300000D03*
X27450000Y-33100000D03*
X27450000Y-33900000D03*
X26650000Y-21100000D03*
X26650000Y-21900000D03*
X26650000Y-22700000D03*
X26650000Y-23500000D03*
X26650000Y-24300000D03*
X26650000Y-25100000D03*
X26650000Y-25900000D03*
X26650000Y-26700000D03*
X26650000Y-27500000D03*
X26650000Y-28300000D03*
X26650000Y-29100000D03*
X26650000Y-29900000D03*
X26650000Y-30700000D03*
X26650000Y-31500000D03*
X26650000Y-32300000D03*
X26650000Y-33100000D03*
X26650000Y-33900000D03*
X25850000Y-21100000D03*
X25850000Y-21900000D03*
X25850000Y-22700000D03*
X25850000Y-23500000D03*
X25850000Y-24300000D03*
X25850000Y-25100000D03*
X25850000Y-25900000D03*
X25850000Y-26700000D03*
X25850000Y-27500000D03*
X25850000Y-28300000D03*
X25850000Y-29100000D03*
X25850000Y-29900000D03*
X25850000Y-30700000D03*
X25850000Y-31500000D03*
X25850000Y-32300000D03*
X25850000Y-33100000D03*
X25850000Y-33900000D03*
G04 #@! TD*
D15*
G04 #@! TO.C,J1*
X32460000Y-14963500D03*
X31660000Y-14963500D03*
D16*
X30460000Y-14963500D03*
X29460000Y-14963500D03*
X28960000Y-14963500D03*
X27960000Y-14963500D03*
D15*
X26760000Y-14963500D03*
X25960000Y-14963500D03*
X25960000Y-14963500D03*
D17*
X26760000Y-14963500D03*
D16*
X27460000Y-14963500D03*
X28460000Y-14963500D03*
X29960000Y-14963500D03*
X30960000Y-14963500D03*
D17*
X31660000Y-14963500D03*
X32460000Y-15063500D03*
G04 #@! TD*
D18*
G04 #@! TO.C,D2*
X67645000Y-41962000D03*
X65895000Y-41962000D03*
G04 #@! TD*
D13*
G04 #@! TO.C,C18*
X38720000Y-18322500D03*
X38720000Y-19457500D03*
G04 #@! TD*
D19*
G04 #@! TO.C,C28*
X25880000Y-36647500D03*
X25880000Y-35512500D03*
G04 #@! TD*
D20*
G04 #@! TO.C,C26*
X57917500Y-27900000D03*
X56782500Y-27900000D03*
G04 #@! TD*
D21*
G04 #@! TO.C,J2*
X58685200Y-12733000D03*
X59935200Y-12733000D03*
X61185200Y-12733000D03*
X62435200Y-12733000D03*
X63685200Y-12733000D03*
X64935200Y-12733000D03*
X66185200Y-12733000D03*
D22*
X68432300Y-9659000D03*
D23*
X56438100Y-9659000D03*
G04 #@! TD*
D19*
G04 #@! TO.C,C30*
X27250000Y-36647500D03*
X27250000Y-35512500D03*
G04 #@! TD*
D13*
G04 #@! TO.C,C11*
X69480000Y-29632500D03*
X69480000Y-30767500D03*
G04 #@! TD*
G04 #@! TO.C,C25*
X69470000Y-34182500D03*
X69470000Y-35317500D03*
G04 #@! TD*
D24*
G04 #@! TO.C,U6*
X54030000Y-45290000D03*
D25*
X53942500Y-43790000D03*
D24*
X54030000Y-42290000D03*
G04 #@! TD*
D11*
G04 #@! TO.C,C15*
X54572500Y-13050000D03*
X55707500Y-13050000D03*
G04 #@! TD*
D13*
G04 #@! TO.C,C41*
X36170000Y-18332500D03*
X36170000Y-19467500D03*
G04 #@! TD*
D20*
G04 #@! TO.C,C24*
X53857500Y-27980000D03*
X52722500Y-27980000D03*
G04 #@! TD*
D11*
G04 #@! TO.C,C45*
X23092500Y-21200000D03*
X24227500Y-21200000D03*
G04 #@! TD*
D12*
G04 #@! TO.C,R14*
X53000000Y-9150000D03*
X53000000Y-10975000D03*
G04 #@! TD*
D19*
G04 #@! TO.C,C12*
X40220000Y-36657500D03*
X40220000Y-35522500D03*
G04 #@! TD*
D26*
G04 #@! TO.C,R9*
X23050000Y-15602500D03*
X23050000Y-13777500D03*
G04 #@! TD*
D11*
G04 #@! TO.C,C38*
X23055000Y-30794000D03*
X24190000Y-30794000D03*
G04 #@! TD*
D18*
G04 #@! TO.C,D3*
X67670000Y-45518000D03*
X65920000Y-45518000D03*
G04 #@! TD*
D13*
G04 #@! TO.C,C22*
X34870000Y-18322500D03*
X34870000Y-19457500D03*
G04 #@! TD*
D21*
G04 #@! TO.C,J3*
X37922200Y-12733000D03*
X39172200Y-12733000D03*
X40422200Y-12733000D03*
X41672200Y-12733000D03*
X42922200Y-12733000D03*
X44172200Y-12733000D03*
X45422200Y-12733000D03*
D23*
X47669300Y-9659000D03*
X35675100Y-9659000D03*
G04 #@! TD*
D13*
G04 #@! TO.C,C39*
X32230000Y-18322500D03*
X32230000Y-19457500D03*
G04 #@! TD*
D11*
G04 #@! TO.C,C50*
X47712500Y-43040000D03*
X48847500Y-43040000D03*
G04 #@! TD*
G04 #@! TO.C,C17*
X47732500Y-45800000D03*
X48867500Y-45800000D03*
G04 #@! TD*
D12*
G04 #@! TO.C,R8*
X23050000Y-10237500D03*
X23050000Y-12062500D03*
G04 #@! TD*
G04 #@! TO.C,R13*
X69332500Y-41945500D03*
X69332500Y-43770500D03*
G04 #@! TD*
D27*
G04 #@! TO.C,C3*
X42688717Y-30561283D03*
X43491283Y-29758717D03*
G04 #@! TD*
D28*
G04 #@! TO.C,R11*
X29232500Y-16920000D03*
X30427500Y-16920000D03*
G04 #@! TD*
D20*
G04 #@! TO.C,C32*
X52197500Y-12960000D03*
X51062500Y-12960000D03*
G04 #@! TD*
D29*
G04 #@! TO.C,U4*
X46937200Y-26351950D03*
X47737300Y-26351950D03*
X48537400Y-26351950D03*
X49337500Y-26351950D03*
X50137600Y-26351950D03*
X50937700Y-26351950D03*
X51737800Y-26351950D03*
X52537900Y-26351950D03*
X53338000Y-26351950D03*
X54138100Y-26351950D03*
X54938200Y-26351950D03*
X55738300Y-26351950D03*
X56538400Y-26351950D03*
X57338500Y-26351950D03*
X58138600Y-26351950D03*
X58938700Y-26351950D03*
X59738800Y-26351950D03*
X60538900Y-26351950D03*
X61339000Y-26351950D03*
X62139100Y-26351950D03*
X62939200Y-26351950D03*
X63739300Y-26351950D03*
X64539400Y-26351950D03*
X65339500Y-26351950D03*
X66139600Y-26351950D03*
X66939700Y-26351950D03*
X67739800Y-26351950D03*
X67739800Y-14871150D03*
X66939700Y-14871150D03*
X66139600Y-14871150D03*
X65339500Y-14871150D03*
X64539400Y-14871150D03*
X63739300Y-14871150D03*
X62939200Y-14871150D03*
X62139100Y-14871150D03*
X61339000Y-14871150D03*
X60538900Y-14871150D03*
X59738800Y-14871150D03*
X58938700Y-14871150D03*
X58138600Y-14871150D03*
X57338500Y-14871150D03*
X56538400Y-14871150D03*
X55738300Y-14871150D03*
X54938200Y-14871150D03*
X54138100Y-14871150D03*
X53338000Y-14871150D03*
X52537900Y-14871150D03*
X51737800Y-14871150D03*
X50937700Y-14871150D03*
X50137600Y-14871150D03*
X49337500Y-14871150D03*
X48537400Y-14871150D03*
X47737300Y-14871150D03*
X46937200Y-14871150D03*
G04 #@! TD*
D11*
G04 #@! TO.C,C37*
X23075000Y-26660000D03*
X24210000Y-26660000D03*
G04 #@! TD*
D19*
G04 #@! TO.C,C8*
X35360000Y-15017500D03*
X35360000Y-13882500D03*
G04 #@! TD*
D20*
G04 #@! TO.C,C29*
X42607500Y-34670000D03*
X41472500Y-34670000D03*
G04 #@! TD*
D30*
G04 #@! TO.C,U5*
X67748150Y-40537499D03*
X67748150Y-40037500D03*
X67748150Y-39537501D03*
X67748150Y-39037499D03*
X67748150Y-38537500D03*
X67748150Y-38037501D03*
X67748150Y-37537500D03*
X67748150Y-37037501D03*
X67748150Y-36537499D03*
X67748150Y-36037500D03*
X67748150Y-35537501D03*
X67748150Y-35037500D03*
X67748150Y-34537500D03*
X67748150Y-34037499D03*
X67748150Y-33537500D03*
X67748150Y-33037501D03*
X67748150Y-32537499D03*
X67748150Y-32037500D03*
X67748150Y-31537499D03*
X67748150Y-31037500D03*
X67748150Y-30537501D03*
X67748150Y-30037499D03*
X67748150Y-29537500D03*
X67748150Y-29037499D03*
X48075850Y-29037501D03*
X48075850Y-29537500D03*
X48075850Y-30037499D03*
X48075850Y-30537501D03*
X48075850Y-31037500D03*
X48075850Y-31537501D03*
X48075850Y-32037500D03*
X48075850Y-32537499D03*
X48075850Y-33037501D03*
X48075850Y-33537500D03*
X48075850Y-34037502D03*
X48075850Y-34537500D03*
X48075850Y-35037500D03*
X48075850Y-35537501D03*
X48075850Y-36037500D03*
X48075850Y-36537499D03*
X48075850Y-37037501D03*
X48075850Y-37537500D03*
X48075850Y-38037501D03*
X48075850Y-38537500D03*
X48075850Y-39037499D03*
X48075850Y-39537501D03*
X48075850Y-40037500D03*
X48075850Y-40537501D03*
G04 #@! TD*
D13*
G04 #@! TO.C,C51*
X44702000Y-36002500D03*
X44702000Y-37137500D03*
G04 #@! TD*
D11*
G04 #@! TO.C,C42*
X23062500Y-33570000D03*
X24197500Y-33570000D03*
G04 #@! TD*
D13*
G04 #@! TO.C,C46*
X29670000Y-18332500D03*
X29670000Y-19467500D03*
G04 #@! TD*
D12*
G04 #@! TO.C,R15*
X54530000Y-9157500D03*
X54530000Y-10982500D03*
G04 #@! TD*
D11*
G04 #@! TO.C,C31*
X23062500Y-32170000D03*
X24197500Y-32170000D03*
G04 #@! TD*
D13*
G04 #@! TO.C,C19*
X27040000Y-18332500D03*
X27040000Y-19467500D03*
G04 #@! TD*
G04 #@! TO.C,C2*
X28650000Y-35502500D03*
X28650000Y-36637500D03*
G04 #@! TD*
G04 #@! TO.C,C13*
X45920000Y-34222500D03*
X45920000Y-35357500D03*
G04 #@! TD*
D12*
G04 #@! TO.C,R2*
X43376000Y-36240000D03*
X43376000Y-38065000D03*
G04 #@! TD*
D19*
G04 #@! TO.C,C7*
X69530000Y-14937500D03*
X69530000Y-13802500D03*
G04 #@! TD*
D11*
G04 #@! TO.C,C33*
X23092500Y-22590000D03*
X24227500Y-22590000D03*
G04 #@! TD*
D18*
G04 #@! TO.C,D1*
X67670000Y-43740000D03*
X65920000Y-43740000D03*
G04 #@! TD*
D31*
G04 #@! TO.C,R10*
X28222500Y-16910000D03*
X27027500Y-16910000D03*
G04 #@! TD*
D13*
G04 #@! TO.C,C47*
X28380000Y-18322500D03*
X28380000Y-19457500D03*
G04 #@! TD*
G04 #@! TO.C,C23*
X33540000Y-18322500D03*
X33540000Y-19457500D03*
G04 #@! TD*
G04 #@! TO.C,C1*
X30000000Y-35502500D03*
X30000000Y-36637500D03*
G04 #@! TD*
D32*
G04 #@! TO.C,Y1*
X34700000Y-36890000D03*
X38400000Y-36890000D03*
G04 #@! TD*
D11*
G04 #@! TO.C,C27*
X67092500Y-27950000D03*
X68227500Y-27950000D03*
G04 #@! TD*
D26*
G04 #@! TO.C,R1*
X41852000Y-38065000D03*
X41852000Y-36240000D03*
G04 #@! TD*
D27*
G04 #@! TO.C,C5*
X43568717Y-31401283D03*
X44371283Y-30598717D03*
G04 #@! TD*
D11*
G04 #@! TO.C,C49*
X47732500Y-41780000D03*
X48867500Y-41780000D03*
G04 #@! TD*
D19*
G04 #@! TO.C,C6*
X32700000Y-36647500D03*
X32700000Y-35512500D03*
G04 #@! TD*
D24*
G04 #@! TO.C,U7*
X60590000Y-45300000D03*
D25*
X60502500Y-43800000D03*
D24*
X60590000Y-42300000D03*
G04 #@! TD*
D17*
G04 #@! TO.C,J4*
X25960000Y-40229250D03*
X26760000Y-40229250D03*
D16*
X27960000Y-39926750D03*
X28960000Y-39926750D03*
X29460000Y-39926750D03*
X30460000Y-39926750D03*
D17*
X31660000Y-40229250D03*
X32460000Y-40229250D03*
D15*
X32460000Y-39926750D03*
X31660000Y-39926750D03*
D16*
X30960000Y-39926750D03*
X29960000Y-39926750D03*
X28460000Y-39926750D03*
X27460000Y-39926750D03*
D15*
X26760000Y-39926750D03*
X25960000Y-39926750D03*
G04 #@! TD*
D33*
G04 #@! TO.C,R5*
X62407500Y-42012000D03*
X64232500Y-42012000D03*
G04 #@! TD*
D19*
G04 #@! TO.C,C16*
X35490000Y-43067500D03*
X35490000Y-41932500D03*
G04 #@! TD*
D13*
G04 #@! TO.C,C34*
X37490000Y-18312500D03*
X37490000Y-19447500D03*
G04 #@! TD*
D12*
G04 #@! TO.C,R17*
X49900000Y-9137500D03*
X49900000Y-10962500D03*
G04 #@! TD*
D33*
G04 #@! TO.C,R6*
X62407500Y-45512000D03*
X64232500Y-45512000D03*
G04 #@! TD*
D11*
G04 #@! TO.C,C20*
X23035000Y-29440000D03*
X24170000Y-29440000D03*
G04 #@! TD*
G04 #@! TO.C,C36*
X23092500Y-35010000D03*
X24227500Y-35010000D03*
G04 #@! TD*
G04 #@! TO.C,C4*
X23065000Y-28080000D03*
X24200000Y-28080000D03*
G04 #@! TD*
G04 #@! TO.C,C44*
X23062500Y-23990000D03*
X24197500Y-23990000D03*
G04 #@! TD*
D33*
G04 #@! TO.C,R4*
X62414500Y-43740000D03*
X64239500Y-43740000D03*
G04 #@! TD*
D12*
G04 #@! TO.C,R16*
X51470000Y-9137500D03*
X51470000Y-10962500D03*
G04 #@! TD*
D26*
G04 #@! TO.C,R12*
X23020000Y-44772500D03*
X23020000Y-42947500D03*
G04 #@! TD*
M02*
