M48
; DRILL file {KiCad 7.0.2-0} date 2023 May 06, Saturday 05:04:54
; FORMAT={-:-/ absolute / inch / decimal}
; #@! TF.CreationDate,2023-05-06T05:04:54+08:00
; #@! TF.GenerationSoftware,Kicad,Pcbnew,7.0.2-0
; #@! TF.FileFunction,Plated,1,4,PTH
FMAT,2
INCH
; #@! TA.AperFunction,Plated,PTH,ViaDrill
T1C0.0120
; #@! TA.AperFunction,Plated,PTH,ViaDrill
T2C0.0150
; #@! TA.AperFunction,Plated,PTH,ComponentDrill
T3C0.0236
; #@! TA.AperFunction,Plated,PTH,ComponentDrill
T4C0.0315
%
G90
G05
T1
X0.848Y-1.1571
X0.8503Y-0.9985
X0.8831Y-1.5295
X0.8972Y-0.6728
X0.8992Y-0.7083
X0.9322Y-1.4996
X0.9402Y-1.3201
X0.9677Y-0.7504
X0.9925Y-1.4244
X1.0051Y-1.0508
X1.0126Y-1.2862
X1.0169Y-1.2193
X1.0217Y-1.5406
X1.0303Y-0.8567
X1.0394Y-1.0209
X1.0469Y-1.3705
X1.061Y-1.2886
X1.0724Y-0.7457
X1.0724Y-1.2232
X1.0827Y-0.9598
X1.0882Y-1.1378
X1.1068Y-0.8623
X1.1161Y-1.2457
X1.1193Y-1.148
X1.1392Y-0.89
X1.1394Y-1.1902
X1.1423Y-0.8269
X1.1449Y-1.5295
X1.1745Y-0.8548
X1.1747Y-0.7944
X1.1921Y-0.7421
X1.1972Y-0.7173
X1.1976Y-1.4449
X1.2046Y-0.8247
X1.2094Y-0.7598
X1.2142Y-0.8571
X1.2161Y-1.3681
X1.2176Y-1.0969
X1.2622Y-1.0516
X1.263Y-1.0969
X1.2639Y-1.2304
X1.2844Y-1.2524
X1.2844Y-1.2079
X1.2846Y-1.163
X1.2898Y-1.0732
X1.3071Y-1.186
X1.3281Y-1.5066
X1.3294Y-0.8961
X1.3295Y-1.1642
X1.3506Y-1.3637
X1.3512Y-1.2305
X1.3516Y-0.9185
X1.3517Y-1.3193
X1.3517Y-0.8292
X1.352Y-0.9626
X1.3598Y-1.0153
X1.3719Y-1.3859
X1.3736Y-1.3413
X1.3779Y-0.9727
X1.3795Y-0.9956
X1.389Y-1.5402
X1.3958Y-1.3642
X1.3958Y-1.2305
X1.3962Y-0.8296
X1.3972Y-1.0287
X1.3984Y-1.5051
X1.4177Y-1.4299
X1.4183Y-1.0754
X1.4185Y-1.3864
X1.4264Y-0.6315
X1.4343Y-0.5933
X1.4402Y-1.0524
X1.4403Y-1.274
X1.4406Y-1.0969
X1.463Y-1.4291
X1.4634Y-1.0744
X1.4785Y-1.553
X1.489Y-1.4114
X1.4939Y-0.6766
X1.4981Y-0.6992
X1.5032Y-0.7216
X1.5074Y-0.8063
X1.5076Y-0.8965
X1.5125Y-0.6631
X1.5167Y-1.4738
X1.5207Y-1.0497
X1.5261Y-0.7229
X1.5295Y-1.1839
X1.5448Y-1.5059
X1.5457Y-1.1406
X1.5466Y-0.6971
X1.5512Y-1.4394
X1.5516Y-0.8949
X1.5517Y-0.941
X1.5731Y-0.6651
X1.5732Y-1.0067
X1.574Y-0.7496
X1.5744Y-0.8737
X1.5749Y-0.9628
X1.5811Y-1.1252
X1.5828Y-1.4679
X1.5848Y-1.4057
X1.5925Y-1.1051
X1.5967Y-0.9851
X1.5967Y-1.1637
X1.6062Y-0.6982
X1.6163Y-1.4344
X1.6185Y-0.9634
X1.6189Y-1.0074
X1.6197Y-1.1415
X1.6236Y-1.0827
X1.6264Y-1.487
X1.6401Y-1.1637
X1.6409Y-0.9413
X1.6417Y-1.0299
X1.6524Y-0.5862
X1.663Y-1.0071
X1.663Y-1.1414
X1.6642Y-1.0969
X1.6732Y-0.9209
X1.6744Y-0.8898
X1.6858Y-0.9855
X1.6988Y-1.5134
X1.7079Y-1.0524
X1.7079Y-1.0078
X1.7295Y-1.0296
X1.7299Y-1.0746
X1.7736Y-1.4256
X1.7823Y-0.6637
X1.8091Y-0.6591
X1.8146Y-0.9756
X1.8165Y-1.3177
X1.8173Y-1.4043
X1.8177Y-1.4307
X1.8339Y-1.0181
X1.839Y-1.1843
X1.8591Y-0.9406
X1.8811Y-0.9551
X1.8878Y-1.3012
X1.8917Y-1.4067
X1.9094Y-1.3154
X1.913Y-1.1094
X1.916Y-0.8473
X1.9244Y-1.0236
X1.926Y-1.0565
X1.9299Y-1.2543
X1.9409Y-1.2075
X1.9469Y-0.9117
X1.9484Y-1.0484
X1.9512Y-0.9724
X1.952Y-1.3012
X1.9535Y-0.8421
X1.9626Y-1.1186
X1.9764Y-1.4067
X1.9942Y-1.0878
X1.9945Y-1.2771
X1.9949Y-0.9311
X2.0257Y-0.9303
X2.0258Y-1.025
X2.026Y-1.2771
X2.026Y-0.8676
X2.0366Y-1.3543
X2.0579Y-0.8677
X2.0595Y-1.215
X2.0657Y-0.9677
X2.0689Y-1.2705
X2.0736Y-1.3512
X2.0741Y-1.1696
X2.0752Y-1.1311
X2.076Y-1.0276
X2.0791Y-0.9437
X2.0822Y-1.0857
X2.0965Y-1.2131
X2.0982Y-0.9872
X2.1004Y-1.5165
X2.1014Y-1.0708
X2.1083Y-0.9665
X2.1086Y-1.0172
X2.1228Y-1.0791
X2.1271Y-0.8974
X2.1327Y-1.0398
X2.1445Y-1.1177
X2.1457Y-1.2744
X2.1472Y-1.3587
X2.1516Y-1.0255
X2.1531Y-1.513
X2.1654Y-0.7835
X2.1823Y-1.1516
X2.1835Y-1.119
X2.185Y-1.2747
X2.1941Y-0.8232
X2.1965Y-0.6594
X2.2091Y-1.5114
X2.2148Y-1.1191
X2.2149Y-0.9307
X2.2149Y-1.0244
X2.215Y-1.0875
X2.2161Y-1.2783
X2.2224Y-1.4161
X2.2374Y-1.1591
X2.2512Y-1.2126
X2.2543Y-0.8685
X2.2555Y-0.6366
X2.2602Y-0.987
X2.263Y-1.1122
X2.263Y-1.1504
X2.2634Y-1.026
X2.2654Y-0.728
X2.2685Y-0.9201
T2
X0.6902Y-1.4157
X0.698Y-0.6799
X0.698Y-0.7118
X0.7143Y-1.4763
X0.7437Y-0.6102
X0.7437Y-1.4
X0.7461Y-1.5409
X0.7469Y-0.8224
X0.7469Y-1.3252
X0.7472Y-0.6823
X0.752Y-0.7291
X0.7583Y-1.4886
X0.7783Y-1.3764
X0.787Y-0.8492
X0.811Y-1.3524
X0.8193Y-1.4654
X0.8197Y-0.6075
X0.8217Y-0.7484
X0.8224Y-1.5409
X0.8244Y-0.6823
T4
X0.9949Y-0.622
X1.0736Y-0.622
X1.1524Y-0.622
X1.2311Y-0.622
X1.3098Y-0.622
X1.789Y-1.5303
X1.8677Y-1.5303
X1.874Y-0.624
X1.9465Y-1.5303
X1.9528Y-0.624
X2.0252Y-1.5303
X2.0315Y-0.624
X2.1102Y-0.624
T3
G00X0.7079Y-0.9055
M15
G01X0.6843Y-0.9055
M16
G05
G00X0.7079Y-1.2457
M15
G01X0.6843Y-1.2457
M16
G05
G00X0.8823Y-0.9055
M15
G01X0.839Y-0.9055
M16
G05
G00X0.8823Y-1.2457
M15
G01X0.839Y-1.2457
M16
G05
T0
M30
