%TF.GenerationSoftware,KiCad,Pcbnew,7.0.2-0*%
%TF.CreationDate,2023-05-15T12:10:58+08:00*%
%TF.ProjectId,slimarm_carambola,736c696d-6172-46d5-9f63-6172616d626f,rev?*%
%TF.SameCoordinates,Original*%
%TF.FileFunction,Paste,Top*%
%TF.FilePolarity,Positive*%
%FSLAX46Y46*%
G04 Gerber Fmt 4.6, Leading zero omitted, Abs format (unit mm)*
G04 Created by KiCad (PCBNEW 7.0.2-0) date 2023-05-15 12:10:58*
%MOMM*%
%LPD*%
G01*
G04 APERTURE LIST*
G04 Aperture macros list*
%AMRoundRect*
0 Rectangle with rounded corners*
0 $1 Rounding radius*
0 $2 $3 $4 $5 $6 $7 $8 $9 X,Y pos of 4 corners*
0 Add a 4 corners polygon primitive as box body*
4,1,4,$2,$3,$4,$5,$6,$7,$8,$9,$2,$3,0*
0 Add four circle primitives for the rounded corners*
1,1,$1+$1,$2,$3*
1,1,$1+$1,$4,$5*
1,1,$1+$1,$6,$7*
1,1,$1+$1,$8,$9*
0 Add four rect primitives between the rounded corners*
20,1,$1+$1,$2,$3,$4,$5,0*
20,1,$1+$1,$4,$5,$6,$7,0*
20,1,$1+$1,$6,$7,$8,$9,0*
20,1,$1+$1,$8,$9,$2,$3,0*%
%AMRotRect*
0 Rectangle, with rotation*
0 The origin of the aperture is its center*
0 $1 length*
0 $2 width*
0 $3 Rotation angle, in degrees counterclockwise*
0 Add horizontal line*
21,1,$1,$2,0,0,$3*%
G04 Aperture macros list end*
%ADD10RoundRect,0.150000X0.000000X-0.212132X0.212132X0.000000X0.000000X0.212132X-0.212132X0.000000X0*%
%ADD11RoundRect,0.150000X0.150000X0.150000X-0.150000X0.150000X-0.150000X-0.150000X0.150000X-0.150000X0*%
%ADD12RoundRect,0.150000X-0.212132X0.000000X0.000000X-0.212132X0.212132X0.000000X0.000000X0.212132X0*%
%ADD13RoundRect,0.150000X-0.150000X0.150000X-0.150000X-0.150000X0.150000X-0.150000X0.150000X0.150000X0*%
%ADD14RoundRect,0.150000X0.212132X0.000000X0.000000X0.212132X-0.212132X0.000000X0.000000X-0.212132X0*%
%ADD15RoundRect,0.237500X0.237500X0.237500X-0.237500X0.237500X-0.237500X-0.237500X0.237500X-0.237500X0*%
%ADD16RotRect,2.000000X2.400000X135.000000*%
%ADD17R,1.200000X1.000000*%
%ADD18RoundRect,0.237500X0.237500X-0.237500X0.237500X0.237500X-0.237500X0.237500X-0.237500X-0.237500X0*%
%ADD19RoundRect,0.150000X0.150000X-0.150000X0.150000X0.150000X-0.150000X0.150000X-0.150000X-0.150000X0*%
%ADD20RoundRect,0.237500X-0.237500X-0.237500X0.237500X-0.237500X0.237500X0.237500X-0.237500X0.237500X0*%
%ADD21RoundRect,0.150000X-0.150000X-0.150000X0.150000X-0.150000X0.150000X0.150000X-0.150000X0.150000X0*%
%ADD22R,2.000000X0.600000*%
%ADD23R,2.000000X0.300000*%
%ADD24RoundRect,0.150000X0.512500X0.150000X-0.512500X0.150000X-0.512500X-0.150000X0.512500X-0.150000X0*%
%ADD25RoundRect,0.237500X0.287500X0.237500X-0.287500X0.237500X-0.287500X-0.237500X0.287500X-0.237500X0*%
%ADD26RoundRect,0.150000X0.000000X0.212132X-0.212132X0.000000X0.000000X-0.212132X0.212132X0.000000X0*%
%ADD27RoundRect,0.150000X-0.650000X-0.150000X0.650000X-0.150000X0.650000X0.150000X-0.650000X0.150000X0*%
%ADD28C,0.410000*%
%ADD29RoundRect,0.150000X-0.150000X0.512500X-0.150000X-0.512500X0.150000X-0.512500X0.150000X0.512500X0*%
G04 APERTURE END LIST*
D10*
%TO.C,C31*%
X33878162Y-38481838D03*
X34641838Y-37718162D03*
%TD*%
D11*
%TO.C,R10*%
X33490000Y-40660000D03*
X32410000Y-40660000D03*
%TD*%
D12*
%TO.C,C5*%
X32978162Y-17298162D03*
X33741838Y-18061838D03*
%TD*%
D13*
%TO.C,C23*%
X63030000Y-18120000D03*
X63030000Y-19200000D03*
%TD*%
%TO.C,C28*%
X24900000Y-24600000D03*
X24900000Y-25680000D03*
%TD*%
D11*
%TO.C,C41*%
X37040000Y-40680000D03*
X35960000Y-40680000D03*
%TD*%
D12*
%TO.C,C6*%
X34778162Y-15498162D03*
X35541838Y-16261838D03*
%TD*%
D14*
%TO.C,C12*%
X39711838Y-37921838D03*
X38948162Y-37158162D03*
%TD*%
D12*
%TO.C,C4*%
X32078162Y-18218162D03*
X32841838Y-18981838D03*
%TD*%
D15*
%TO.C,R21*%
X53572000Y-14350000D03*
X52048000Y-14350000D03*
%TD*%
D16*
%TO.C,Y1*%
X32138148Y-37218148D03*
X29521852Y-34601852D03*
%TD*%
D15*
%TO.C,R20*%
X60179500Y-14370000D03*
X58655500Y-14370000D03*
%TD*%
%TO.C,R3*%
X41952000Y-40460000D03*
X40428000Y-40460000D03*
%TD*%
D14*
%TO.C,C13*%
X41521838Y-36161838D03*
X40758162Y-35398162D03*
%TD*%
D15*
%TO.C,R15*%
X59812000Y-40500000D03*
X58288000Y-40500000D03*
%TD*%
D17*
%TO.C,SW1*%
X27470000Y-40350000D03*
X23370000Y-40350000D03*
X27470000Y-38750000D03*
X23370000Y-38750000D03*
%TD*%
D12*
%TO.C,C2*%
X29325000Y-20885000D03*
X30088676Y-21648676D03*
%TD*%
D14*
%TO.C,C15*%
X40611838Y-37031838D03*
X39848162Y-36268162D03*
%TD*%
D11*
%TO.C,R23*%
X17660000Y-18490000D03*
X16580000Y-18490000D03*
%TD*%
%TO.C,R24*%
X17630000Y-17170000D03*
X16550000Y-17170000D03*
%TD*%
%TO.C,R2*%
X20050000Y-21490000D03*
X18970000Y-21490000D03*
%TD*%
D12*
%TO.C,R9*%
X33820000Y-16390000D03*
X34583676Y-17153676D03*
%TD*%
D18*
%TO.C,R7*%
X26590000Y-31902000D03*
X26590000Y-30378000D03*
%TD*%
D12*
%TO.C,C3*%
X30258162Y-19998162D03*
X31021838Y-20761838D03*
%TD*%
D11*
%TO.C,C35*%
X20030000Y-40780000D03*
X18950000Y-40780000D03*
%TD*%
D19*
%TO.C,C22*%
X64270000Y-33360000D03*
X64270000Y-32280000D03*
%TD*%
D20*
%TO.C,R12*%
X61348000Y-38930000D03*
X62872000Y-38930000D03*
%TD*%
D21*
%TO.C,C40*%
X25770000Y-37240000D03*
X26850000Y-37240000D03*
%TD*%
D11*
%TO.C,R13*%
X17630000Y-15870000D03*
X16550000Y-15870000D03*
%TD*%
D22*
%TO.C,J1*%
X23031000Y-24070000D03*
X23031000Y-24870000D03*
D23*
X23031000Y-26070000D03*
X23031000Y-27070000D03*
X23031000Y-27570000D03*
X23031000Y-28570000D03*
D22*
X23031000Y-29770000D03*
X23031000Y-30570000D03*
X23031000Y-30570000D03*
X23031000Y-29770000D03*
D23*
X23031000Y-29070000D03*
X23031000Y-28070000D03*
X23031000Y-26570000D03*
X23031000Y-25570000D03*
D22*
X23031000Y-24870000D03*
X23031000Y-24070000D03*
%TD*%
D13*
%TO.C,C19*%
X64310000Y-21100000D03*
X64310000Y-22180000D03*
%TD*%
D24*
%TO.C,U6*%
X19267500Y-35430000D03*
X19267500Y-33530000D03*
X16992500Y-34480000D03*
%TD*%
D25*
%TO.C,D1*%
X63580000Y-14370000D03*
X61830000Y-14370000D03*
%TD*%
D12*
%TO.C,C1*%
X31138162Y-19098162D03*
X31901838Y-19861838D03*
%TD*%
D19*
%TO.C,C21*%
X64270000Y-29090000D03*
X64270000Y-28010000D03*
%TD*%
%TO.C,C36*%
X24910000Y-23590000D03*
X24910000Y-22510000D03*
%TD*%
D21*
%TO.C,R1*%
X21040000Y-21490000D03*
X22120000Y-21490000D03*
%TD*%
D12*
%TO.C,C9*%
X40478162Y-15718162D03*
X41241838Y-16481838D03*
%TD*%
D24*
%TO.C,U5*%
X19247500Y-38990000D03*
X19247500Y-37090000D03*
X16972500Y-38040000D03*
%TD*%
D15*
%TO.C,R14*%
X62882000Y-40480000D03*
X61358000Y-40480000D03*
%TD*%
D26*
%TO.C,C32*%
X29021838Y-32078162D03*
X28258162Y-32841838D03*
%TD*%
%TO.C,C10*%
X40431838Y-17248162D03*
X39668162Y-18011838D03*
%TD*%
D11*
%TO.C,C37*%
X22090000Y-40760000D03*
X21010000Y-40760000D03*
%TD*%
D13*
%TO.C,C26*%
X64220000Y-38700000D03*
X64220000Y-39780000D03*
%TD*%
D14*
%TO.C,C14*%
X38711838Y-38901838D03*
X37948162Y-38138162D03*
%TD*%
%TO.C,C16*%
X41628162Y-34528162D03*
X42391838Y-35291838D03*
%TD*%
D27*
%TO.C,U3*%
X20040000Y-14655000D03*
X20040000Y-15925000D03*
X20040000Y-17195000D03*
X20040000Y-18465000D03*
X27240000Y-18465000D03*
X27240000Y-17195000D03*
X27240000Y-15925000D03*
X27240000Y-14655000D03*
%TD*%
D18*
%TO.C,R5*%
X25160000Y-31902000D03*
X25160000Y-30378000D03*
%TD*%
D11*
%TO.C,C33*%
X17950000Y-40780000D03*
X16870000Y-40780000D03*
%TD*%
D26*
%TO.C,C7*%
X38601838Y-15458162D03*
X37838162Y-16221838D03*
%TD*%
D19*
%TO.C,C24*%
X64290000Y-36430000D03*
X64290000Y-35350000D03*
%TD*%
D11*
%TO.C,R22*%
X17670000Y-14610000D03*
X16590000Y-14610000D03*
%TD*%
%TO.C,R11*%
X39130000Y-40680000D03*
X38050000Y-40680000D03*
%TD*%
D28*
%TO.C,U2*%
X56299600Y-21629300D03*
X57099700Y-21629300D03*
X57899800Y-21629300D03*
X61100200Y-21629300D03*
X61900300Y-21629300D03*
X62700400Y-21629300D03*
X56299600Y-22429400D03*
X57099700Y-22429400D03*
X57899800Y-22429400D03*
X61100200Y-22429400D03*
X61900300Y-22429400D03*
X62700400Y-22429400D03*
X56299600Y-23229500D03*
X57099700Y-23229500D03*
X57899800Y-23229500D03*
X61100200Y-23229500D03*
X61900300Y-23229500D03*
X62700400Y-23229500D03*
X56299600Y-24029600D03*
X57099700Y-24029600D03*
X57899800Y-24029600D03*
X61100200Y-24029600D03*
X61900300Y-24029600D03*
X62700400Y-24029600D03*
X56299600Y-24829700D03*
X57099700Y-24829700D03*
X57899800Y-24829700D03*
X61100200Y-24829700D03*
X61900300Y-24829700D03*
X62700400Y-24829700D03*
X56299600Y-25629800D03*
X57099700Y-25629800D03*
X57899800Y-25629800D03*
X61100200Y-25629800D03*
X61900300Y-25629800D03*
X62700400Y-25629800D03*
X56299600Y-26429900D03*
X57099700Y-26429900D03*
X57899800Y-26429900D03*
X61100200Y-26429900D03*
X61900300Y-26429900D03*
X62700400Y-26429900D03*
X56299600Y-27230000D03*
X57099700Y-27230000D03*
X57899800Y-27230000D03*
X61100200Y-27230000D03*
X61900300Y-27230000D03*
X62700400Y-27230000D03*
X56299600Y-28030100D03*
X57099700Y-28030100D03*
X57899800Y-28030100D03*
X61100200Y-28030100D03*
X61900300Y-28030100D03*
X62700400Y-28030100D03*
X57099700Y-28830200D03*
X57899800Y-28830200D03*
X61100200Y-28830200D03*
X61900300Y-28830200D03*
X62700400Y-28830200D03*
X56299600Y-29630300D03*
X57099700Y-29630300D03*
X57899800Y-29630300D03*
X61100200Y-29630300D03*
X61900300Y-29630300D03*
X57099700Y-30430400D03*
X57899800Y-30430400D03*
X61100200Y-30430400D03*
X61900300Y-30430400D03*
X62700400Y-30430400D03*
X56299600Y-31230500D03*
X57099700Y-31230500D03*
X57899800Y-31230500D03*
X61100200Y-31230500D03*
X61900300Y-31230500D03*
X57099700Y-32030600D03*
X57899800Y-32030600D03*
X61100200Y-32030600D03*
X61900300Y-32030600D03*
X62700400Y-32030600D03*
X56299600Y-32830700D03*
X57099700Y-32830700D03*
X57899800Y-32830700D03*
X61100200Y-32830700D03*
X61900300Y-32830700D03*
%TD*%
D13*
%TO.C,C20*%
X64310000Y-24480000D03*
X64310000Y-25560000D03*
%TD*%
D25*
%TO.C,D2*%
X56982500Y-14370000D03*
X55232500Y-14370000D03*
%TD*%
D21*
%TO.C,C38*%
X28910000Y-40700000D03*
X29990000Y-40700000D03*
%TD*%
D26*
%TO.C,C11*%
X39543676Y-16336324D03*
X38780000Y-17100000D03*
%TD*%
D13*
%TO.C,C25*%
X64340000Y-18120000D03*
X64340000Y-19200000D03*
%TD*%
D28*
%TO.C,U1*%
X36590000Y-18239033D03*
X37155685Y-18804719D03*
X37721371Y-19370404D03*
X38287056Y-19936089D03*
X38852742Y-20501775D03*
X39418427Y-21067460D03*
X39984113Y-21633146D03*
X40549798Y-22198831D03*
X41115483Y-22764517D03*
X41681169Y-23330202D03*
X42246854Y-23895887D03*
X42812540Y-24461573D03*
X43378225Y-25027258D03*
X43943911Y-25592944D03*
X44509596Y-26158629D03*
X45075281Y-26724315D03*
X45640967Y-27290000D03*
X36024315Y-18804719D03*
X36590000Y-19370404D03*
X37155685Y-19936089D03*
X37721371Y-20501775D03*
X38287056Y-21067460D03*
X38852742Y-21633146D03*
X39418427Y-22198831D03*
X39984113Y-22764517D03*
X40549798Y-23330202D03*
X41115483Y-23895887D03*
X41681169Y-24461573D03*
X42246854Y-25027258D03*
X42812540Y-25592944D03*
X43378225Y-26158629D03*
X43943911Y-26724315D03*
X44509596Y-27290000D03*
X45075281Y-27855685D03*
X35458629Y-19370404D03*
X36024315Y-19936089D03*
X36590000Y-20501775D03*
X37155685Y-21067460D03*
X37721371Y-21633146D03*
X38287056Y-22198831D03*
X38852742Y-22764517D03*
X39418427Y-23330202D03*
X39984113Y-23895887D03*
X40549798Y-24461573D03*
X41115483Y-25027258D03*
X41681169Y-25592944D03*
X42246854Y-26158629D03*
X42812540Y-26724315D03*
X43378225Y-27290000D03*
X43943911Y-27855685D03*
X44509596Y-28421371D03*
X34892944Y-19936089D03*
X35458629Y-20501775D03*
X36024315Y-21067460D03*
X36590000Y-21633146D03*
X37155685Y-22198831D03*
X37721371Y-22764517D03*
X38287056Y-23330202D03*
X38852742Y-23895887D03*
X39418427Y-24461573D03*
X39984113Y-25027258D03*
X40549798Y-25592944D03*
X41115483Y-26158629D03*
X41681169Y-26724315D03*
X42246854Y-27290000D03*
X42812540Y-27855685D03*
X43378225Y-28421371D03*
X43943911Y-28987056D03*
X34327258Y-20501775D03*
X34892944Y-21067460D03*
X35458629Y-21633146D03*
X36024315Y-22198831D03*
X41681169Y-27855685D03*
X42246854Y-28421371D03*
X42812540Y-28987056D03*
X43378225Y-29552742D03*
X33761573Y-21067460D03*
X34327258Y-21633146D03*
X34892944Y-22198831D03*
X35458629Y-22764517D03*
X41115483Y-28421371D03*
X41681169Y-28987056D03*
X42246854Y-29552742D03*
X42812540Y-30118427D03*
X33195887Y-21633146D03*
X33761573Y-22198831D03*
X34327258Y-22764517D03*
X34892944Y-23330202D03*
X40549798Y-28987056D03*
X41115483Y-29552742D03*
X41681169Y-30118427D03*
X42246854Y-30684113D03*
X32630202Y-22198831D03*
X33195887Y-22764517D03*
X33761573Y-23330202D03*
X34327258Y-23895887D03*
X36590000Y-26158629D03*
X37155685Y-26724315D03*
X37721371Y-27290000D03*
X39984113Y-29552742D03*
X40549798Y-30118427D03*
X41115483Y-30684113D03*
X41681169Y-31249798D03*
X32064517Y-22764517D03*
X32630202Y-23330202D03*
X33195887Y-23895887D03*
X33761573Y-24461573D03*
X36024315Y-26724315D03*
X36590000Y-27290000D03*
X37155685Y-27855685D03*
X39418427Y-30118427D03*
X39984113Y-30684113D03*
X40549798Y-31249798D03*
X41115483Y-31815483D03*
X31498831Y-23330202D03*
X32064517Y-23895887D03*
X32630202Y-24461573D03*
X33195887Y-25027258D03*
X35458629Y-27290000D03*
X36024315Y-27855685D03*
X36590000Y-28421371D03*
X38852742Y-30684113D03*
X39418427Y-31249798D03*
X39984113Y-31815483D03*
X40549798Y-32381169D03*
X30933146Y-23895887D03*
X31498831Y-24461573D03*
X32064517Y-25027258D03*
X32630202Y-25592944D03*
X38287056Y-31249798D03*
X38852742Y-31815483D03*
X39418427Y-32381169D03*
X39984113Y-32946854D03*
X30367460Y-24461573D03*
X30933146Y-25027258D03*
X31498831Y-25592944D03*
X32064517Y-26158629D03*
X37721371Y-31815483D03*
X38287056Y-32381169D03*
X38852742Y-32946854D03*
X39418427Y-33512540D03*
X29801775Y-25027258D03*
X30367460Y-25592944D03*
X30933146Y-26158629D03*
X31498831Y-26724315D03*
X37155685Y-32381169D03*
X37721371Y-32946854D03*
X38287056Y-33512540D03*
X38852742Y-34078225D03*
X29236089Y-25592944D03*
X29801775Y-26158629D03*
X30367460Y-26724315D03*
X30933146Y-27290000D03*
X31498831Y-27855685D03*
X32064517Y-28421371D03*
X32630202Y-28987056D03*
X33195887Y-29552742D03*
X33761573Y-30118427D03*
X34327258Y-30684113D03*
X34892944Y-31249798D03*
X35458629Y-31815483D03*
X36024315Y-32381169D03*
X36590000Y-32946854D03*
X37155685Y-33512540D03*
X37721371Y-34078225D03*
X38287056Y-34643911D03*
X28670404Y-26158629D03*
X29236089Y-26724315D03*
X29801775Y-27290000D03*
X30367460Y-27855685D03*
X30933146Y-28421371D03*
X31498831Y-28987056D03*
X32064517Y-29552742D03*
X32630202Y-30118427D03*
X33195887Y-30684113D03*
X33761573Y-31249798D03*
X34327258Y-31815483D03*
X34892944Y-32381169D03*
X35458629Y-32946854D03*
X36024315Y-33512540D03*
X36590000Y-34078225D03*
X37155685Y-34643911D03*
X37721371Y-35209596D03*
X28104719Y-26724315D03*
X28670404Y-27290000D03*
X29236089Y-27855685D03*
X29801775Y-28421371D03*
X30367460Y-28987056D03*
X30933146Y-29552742D03*
X31498831Y-30118427D03*
X32064517Y-30684113D03*
X32630202Y-31249798D03*
X33195887Y-31815483D03*
X33761573Y-32381169D03*
X34327258Y-32946854D03*
X34892944Y-33512540D03*
X35458629Y-34078225D03*
X36024315Y-34643911D03*
X36590000Y-35209596D03*
X37155685Y-35775281D03*
X27539033Y-27290000D03*
X28104719Y-27855685D03*
X28670404Y-28421371D03*
X29236089Y-28987056D03*
X29801775Y-29552742D03*
X30367460Y-30118427D03*
X30933146Y-30684113D03*
X31498831Y-31249798D03*
X32064517Y-31815483D03*
X32630202Y-32381169D03*
X33195887Y-32946854D03*
X33761573Y-33512540D03*
X34327258Y-34078225D03*
X34892944Y-34643911D03*
X35458629Y-35209596D03*
X36024315Y-35775281D03*
X36590000Y-36340967D03*
%TD*%
D29*
%TO.C,U7*%
X23010000Y-33595000D03*
X21110000Y-33595000D03*
X22060000Y-35870000D03*
%TD*%
D12*
%TO.C,C8*%
X28435000Y-21775000D03*
X29198676Y-22538676D03*
%TD*%
D29*
%TO.C,U8*%
X26540000Y-33565000D03*
X24640000Y-33565000D03*
X25590000Y-35840000D03*
%TD*%
D19*
%TO.C,C27*%
X29040000Y-15800000D03*
X29040000Y-14720000D03*
%TD*%
D11*
%TO.C,C34*%
X24140000Y-37290000D03*
X23060000Y-37290000D03*
%TD*%
%TO.C,C39*%
X22100000Y-39740000D03*
X21020000Y-39740000D03*
%TD*%
M02*
