M48
; DRILL file {KiCad (6.0.11-0)} date 
; FORMAT={-:-/ absolute / metric / decimal}
; #@! TF.CreationDate,2023-02-20T22:32:14+08:00
; #@! TF.GenerationSoftware,Kicad,Pcbnew,(6.0.11-0)
; #@! TF.FileFunction,Plated,1,4,PTH
FMAT,2
METRIC
; #@! TA.AperFunction,Plated,PTH,ViaDrill
T1C0.203
; #@! TA.AperFunction,Plated,PTH,ViaDrill
T2C0.254
; #@! TA.AperFunction,Plated,PTH,ViaDrill
T3C0.305
; #@! TA.AperFunction,Plated,PTH,ViaDrill
T4C0.457
; #@! TA.AperFunction,Plated,PTH,ComponentDrill
T5C0.600
%
G90
G05
T1
X44.374Y-25.654
X44.577Y-26.848
T2
X16.967Y-39.243
X17.546Y-22.677
X18.161Y-22.682
X19.052Y-39.444
X19.533Y-31.344
X20.269Y-22.708
X21.387Y-35.662
X21.615Y-22.504
X21.795Y-23.108
X21.844Y-21.361
X22.479Y-39.446
X24.638Y-25.578
X24.731Y-29.305
X24.765Y-30.607
X25.629Y-29.616
X25.629Y-30.277
X25.883Y-26.035
X25.883Y-39.438
X25.933Y-27.94
X26.162Y-33.706
X26.391Y-31.42
X27.08Y-23.067
X27.118Y-25.663
X27.127Y-32.919
X27.263Y-40.826
X27.407Y-20.269
X28.092Y-39.014
X28.194Y-19.355
X28.215Y-23.108
X28.245Y-25.679
X28.245Y-28.092
X28.261Y-31.835
X28.261Y-32.96
X28.677Y-20.269
X28.931Y-34.773
X29.286Y-40.411
X29.972Y-22.301
X29.997Y-20.269
X30.302Y-40.056
X30.759Y-25.629
X30.785Y-35.152
X30.81Y-34.392
X30.83Y-28.843
X30.836Y-35.992
X30.836Y-36.805
X30.861Y-33.553
X31.242Y-20.269
X31.318Y-22.327
X31.623Y-30.429
X31.665Y-28.788
X32.031Y-38.788
X32.385Y-33.579
X32.41Y-23.978
X32.41Y-26.391
X32.41Y-34.392
X32.461Y-32.004
X32.537Y-20.269
X32.614Y-22.25
X33.172Y-36.83
X33.223Y-31.191
X33.223Y-34.366
X33.223Y-35.992
X33.243Y-35.21
X33.249Y-28.829
X33.274Y-26.416
X33.884Y-22.301
X33.934Y-20.269
X33.985Y-34.417
X34.011Y-29.617
X34.011Y-32.817
X34.036Y-26.441
X34.039Y-30.452
X34.045Y-31.207
X34.112Y-38.481
X34.163Y-19.38
X34.29Y-40.64
X34.773Y-27.255
X34.785Y-28.101
X34.823Y-23.19
X34.823Y-36.855
X34.836Y-31.991
X34.872Y-34.394
X34.874Y-26.441
X35.63Y-27.242
X35.63Y-32.752
X35.636Y-24.816
X35.662Y-24.003
X35.687Y-26.454
X35.772Y-39.734
X35.789Y-31.445
X35.89Y-38.278
X36.373Y-31.267
X36.436Y-30.528
X36.449Y-23.165
X36.449Y-35.204
X36.474Y-26.441
X36.474Y-32.868
X36.5Y-24.867
X36.828Y-40.64
X37.186Y-39.573
X37.262Y-33.68
X37.262Y-34.442
X37.262Y-32.842
X37.287Y-26.467
X37.363Y-28.397
X37.939Y-28.924
X37.973Y-23.952
X38.049Y-27.991
X38.049Y-35.941
X38.095Y-39.514
X38.353Y-30.785
X38.431Y-37.186
X38.532Y-40.335
X38.608Y-39.294
X38.786Y-30.328
X38.786Y-32.766
X38.811Y-38.252
X38.813Y-28.779
X38.837Y-29.617
X38.887Y-24.816
X38.887Y-27.254
X38.887Y-40.894
X39.357Y-39.332
X39.588Y-28.794
X39.624Y-28.016
X39.624Y-31.191
X39.627Y-34.439
X39.649Y-27.153
X39.672Y-30.4
X40.361Y-32.868
X40.411Y-27.229
X40.437Y-27.991
X40.451Y-28.779
X40.462Y-24.841
X40.467Y-38.146
X41.173Y-28.042
X41.199Y-27.229
X41.199Y-26.441
X41.199Y-33.579
X41.224Y-32.766
X41.224Y-34.366
X41.224Y-35.204
X41.25Y-25.629
X41.419Y-39.615
X41.961Y-26.417
X41.973Y-27.229
X41.986Y-28.042
X41.986Y-32.766
X42.012Y-35.18
X42.03Y-36.043
X42.037Y-34.392
X42.046Y-24.826
X42.062Y-29.642
X42.291Y-37.211
X42.748Y-28.88
X42.774Y-26.417
X42.775Y-32.789
X42.824Y-35.179
X42.829Y-30.354
X42.845Y-39.314
X43.567Y-36.812
X43.637Y-39.319
X43.917Y-33.045
X43.993Y-33.985
X44.081Y-30.048
X44.12Y-32.36
X44.221Y-34.671
X44.32Y-35.3
X44.374Y-28.092
X44.729Y-22.225
X44.856Y-23.368
X45.136Y-26.975
X45.263Y-26.365
X45.669Y-27.508
X45.932Y-19.448
X45.974Y-26.645
X45.991Y-20.583
X46.177Y-23.8
X47.075Y-19.448
X47.126Y-20.583
X47.32Y-26.619
X47.498Y-37.389
X47.739Y-27.521
X48.2Y-19.448
X48.2Y-20.583
X48.87Y-37.743
X49.784Y-20.091
X49.809Y-40.411
X49.911Y-32.918
X50.317Y-40.132
X50.343Y-21.438
X52.324Y-29.82
X52.883Y-23.444
X53.289Y-37.337
X53.619Y-32.283
X54.051Y-21.641
X54.127Y-34.823
X54.204Y-37.186
X54.534Y-40.513
X54.61Y-24.105
X54.635Y-22.047
X54.889Y-32.512
X54.915Y-24.943
X55.143Y-28.423
X55.169Y-27.432
X55.169Y-29.413
X55.22Y-22.479
X55.245Y-26.518
X55.372Y-25.603
X55.524Y-37.185
X55.524Y-37.997
X55.601Y-32.004
X55.88Y-22.835
X55.905Y-27.864
X55.931Y-26.924
X55.931Y-28.88
X56.515Y-23.165
X56.675Y-37.396
X56.769Y-38.227
X56.82Y-32.512
X57.277Y-37.795
X57.302Y-26.06
X57.379Y-21.615
X57.429Y-31.064
X57.455Y-34.696
X57.621Y-38.548
X57.81Y-36.601
X58.064Y-21.641
X58.064Y-38.887
X58.166Y-34.29
X58.801Y-34.823
X60.503Y-37.77
X61.163Y-38.151
X61.443Y-31.623
X61.519Y-29.21
X61.697Y-35.636
X61.697Y-36.525
X61.722Y-33.96
X61.722Y-34.823
X64.224Y-21.196
X64.275Y-28.08
X64.287Y-23.597
X64.3Y-40.399
X64.44Y-35.204
X64.541Y-19.228
X64.643Y-32.055
X64.795Y-37.948
X64.821Y-31.369
X64.821Y-34.747
X64.846Y-25.095
T3
X26.19Y-35.621
T4
X17.348Y-30.124
X20.498Y-19.456
X20.701Y-28.702
X21.996Y-40.386
X24.638Y-27.991
X24.638Y-32.08
X29.312Y-32.918
X34.976Y-19.177
X35.89Y-29.032
X36.576Y-22.123
X38.76Y-19.431
X38.76Y-22.149
X40.742Y-19.228
X40.996Y-22.708
X42.088Y-22.149
X44.018Y-19.634
X53.188Y-28.423
X56.312Y-35.204
X57.302Y-31.928
X60.096Y-29.185
T5
G00X17.792Y-25.652
M15
G01X17.192Y-25.652
M16
G05
G00X17.792Y-34.292
M15
G01X17.192Y-34.292
M16
G05
G00X22.222Y-25.652
M15
G01X21.122Y-25.652
M16
G05
G00X22.222Y-34.292
M15
G01X21.122Y-34.292
M16
G05
T0
M30
