G04 #@! TF.GenerationSoftware,KiCad,Pcbnew,(6.0.11-0)*
G04 #@! TF.CreationDate,2023-02-20T22:32:11+08:00*
G04 #@! TF.ProjectId,slimarm_classic,736c696d-6172-46d5-9f63-6c6173736963,rev?*
G04 #@! TF.SameCoordinates,Original*
G04 #@! TF.FileFunction,Legend,Top*
G04 #@! TF.FilePolarity,Positive*
%FSLAX46Y46*%
G04 Gerber Fmt 4.6, Leading zero omitted, Abs format (unit mm)*
G04 Created by KiCad (PCBNEW (6.0.11-0)) date 2023-02-20 22:32:11*
%MOMM*%
%LPD*%
G01*
G04 APERTURE LIST*
G04 Aperture macros list*
%AMRoundRect*
0 Rectangle with rounded corners*
0 $1 Rounding radius*
0 $2 $3 $4 $5 $6 $7 $8 $9 X,Y pos of 4 corners*
0 Add a 4 corners polygon primitive as box body*
4,1,4,$2,$3,$4,$5,$6,$7,$8,$9,$2,$3,0*
0 Add four circle primitives for the rounded corners*
1,1,$1+$1,$2,$3*
1,1,$1+$1,$4,$5*
1,1,$1+$1,$6,$7*
1,1,$1+$1,$8,$9*
0 Add four rect primitives between the rounded corners*
20,1,$1+$1,$2,$3,$4,$5,0*
20,1,$1+$1,$4,$5,$6,$7,0*
20,1,$1+$1,$6,$7,$8,$9,0*
20,1,$1+$1,$8,$9,$2,$3,0*%
G04 Aperture macros list end*
%ADD10C,0.150000*%
%ADD11C,0.200000*%
%ADD12C,0.254000*%
%ADD13C,0.120000*%
%ADD14C,0.100000*%
%ADD15C,0.410000*%
%ADD16RoundRect,0.150000X-0.739000X-0.150000X0.739000X-0.150000X0.739000X0.150000X-0.739000X0.150000X0*%
%ADD17RoundRect,0.155000X-0.212500X-0.155000X0.212500X-0.155000X0.212500X0.155000X-0.212500X0.155000X0*%
%ADD18RoundRect,0.155000X-0.155000X0.212500X-0.155000X-0.212500X0.155000X-0.212500X0.155000X0.212500X0*%
%ADD19C,0.650000*%
%ADD20R,2.000000X0.600000*%
%ADD21R,2.000000X0.300000*%
%ADD22R,1.450000X0.600000*%
%ADD23O,1.600000X1.000000*%
%ADD24O,2.100000X1.000000*%
%ADD25RoundRect,0.237500X-0.287500X-0.237500X0.287500X-0.237500X0.287500X0.237500X-0.287500X0.237500X0*%
%ADD26RoundRect,0.155000X0.212500X0.155000X-0.212500X0.155000X-0.212500X-0.155000X0.212500X-0.155000X0*%
%ADD27RoundRect,0.155000X0.155000X-0.212500X0.155000X0.212500X-0.155000X0.212500X-0.155000X-0.212500X0*%
%ADD28RoundRect,0.237500X-0.237500X0.250000X-0.237500X-0.250000X0.237500X-0.250000X0.237500X0.250000X0*%
%ADD29RoundRect,0.237500X0.237500X-0.250000X0.237500X0.250000X-0.237500X0.250000X-0.237500X-0.250000X0*%
%ADD30R,1.693800X0.508000*%
%ADD31RoundRect,0.237500X-0.250000X-0.237500X0.250000X-0.237500X0.250000X0.237500X-0.250000X0.237500X0*%
%ADD32R,2.000000X2.400000*%
G04 APERTURE END LIST*
D10*
X39287514Y-19431742D02*
X38773228Y-19431742D01*
X39030371Y-19431742D02*
X39030371Y-18531742D01*
X38944657Y-18660314D01*
X38858942Y-18746028D01*
X38773228Y-18788885D01*
X39587514Y-18831742D02*
X39801800Y-19431742D01*
X40016085Y-18831742D01*
X40487514Y-18917457D02*
X40401800Y-18874600D01*
X40358942Y-18831742D01*
X40316085Y-18746028D01*
X40316085Y-18703171D01*
X40358942Y-18617457D01*
X40401800Y-18574600D01*
X40487514Y-18531742D01*
X40658942Y-18531742D01*
X40744657Y-18574600D01*
X40787514Y-18617457D01*
X40830371Y-18703171D01*
X40830371Y-18746028D01*
X40787514Y-18831742D01*
X40744657Y-18874600D01*
X40658942Y-18917457D01*
X40487514Y-18917457D01*
X40401800Y-18960314D01*
X40358942Y-19003171D01*
X40316085Y-19088885D01*
X40316085Y-19260314D01*
X40358942Y-19346028D01*
X40401800Y-19388885D01*
X40487514Y-19431742D01*
X40658942Y-19431742D01*
X40744657Y-19388885D01*
X40787514Y-19346028D01*
X40830371Y-19260314D01*
X40830371Y-19088885D01*
X40787514Y-19003171D01*
X40744657Y-18960314D01*
X40658942Y-18917457D01*
D11*
X60019495Y-36400047D02*
X60948066Y-36400047D01*
X61133780Y-36461952D01*
X61257590Y-36585761D01*
X61319495Y-36771476D01*
X61319495Y-36895285D01*
X61319495Y-35161952D02*
X61319495Y-35781000D01*
X60019495Y-35781000D01*
X61195685Y-33985761D02*
X61257590Y-34047666D01*
X61319495Y-34233380D01*
X61319495Y-34357190D01*
X61257590Y-34542904D01*
X61133780Y-34666714D01*
X61009971Y-34728619D01*
X60762352Y-34790523D01*
X60576638Y-34790523D01*
X60329019Y-34728619D01*
X60205209Y-34666714D01*
X60081400Y-34542904D01*
X60019495Y-34357190D01*
X60019495Y-34233380D01*
X60081400Y-34047666D01*
X60143304Y-33985761D01*
X60019495Y-33057190D02*
X60948066Y-33057190D01*
X61133780Y-33119095D01*
X61257590Y-33242904D01*
X61319495Y-33428619D01*
X61319495Y-33552428D01*
X61319495Y-31819095D02*
X61319495Y-32438142D01*
X60019495Y-32438142D01*
X61195685Y-30642904D02*
X61257590Y-30704809D01*
X61319495Y-30890523D01*
X61319495Y-31014333D01*
X61257590Y-31200047D01*
X61133780Y-31323857D01*
X61009971Y-31385761D01*
X60762352Y-31447666D01*
X60576638Y-31447666D01*
X60329019Y-31385761D01*
X60205209Y-31323857D01*
X60081400Y-31200047D01*
X60019495Y-31014333D01*
X60019495Y-30890523D01*
X60081400Y-30704809D01*
X60143304Y-30642904D01*
X60019495Y-29714333D02*
X60948066Y-29714333D01*
X61133780Y-29776238D01*
X61257590Y-29900047D01*
X61319495Y-30085761D01*
X61319495Y-30209571D01*
X61319495Y-28476238D02*
X61319495Y-29095285D01*
X60019495Y-29095285D01*
X61195685Y-27300047D02*
X61257590Y-27361952D01*
X61319495Y-27547666D01*
X61319495Y-27671476D01*
X61257590Y-27857190D01*
X61133780Y-27981000D01*
X61009971Y-28042904D01*
X60762352Y-28104809D01*
X60576638Y-28104809D01*
X60329019Y-28042904D01*
X60205209Y-27981000D01*
X60081400Y-27857190D01*
X60019495Y-27671476D01*
X60019495Y-27547666D01*
X60081400Y-27361952D01*
X60143304Y-27300047D01*
X60019495Y-26371476D02*
X60948066Y-26371476D01*
X61133780Y-26433380D01*
X61257590Y-26557190D01*
X61319495Y-26742904D01*
X61319495Y-26866714D01*
X61319495Y-25133380D02*
X61319495Y-25752428D01*
X60019495Y-25752428D01*
X61195685Y-23957190D02*
X61257590Y-24019095D01*
X61319495Y-24204809D01*
X61319495Y-24328619D01*
X61257590Y-24514333D01*
X61133780Y-24638142D01*
X61009971Y-24700047D01*
X60762352Y-24761952D01*
X60576638Y-24761952D01*
X60329019Y-24700047D01*
X60205209Y-24638142D01*
X60081400Y-24514333D01*
X60019495Y-24328619D01*
X60019495Y-24204809D01*
X60081400Y-24019095D01*
X60143304Y-23957190D01*
D10*
X53488761Y-39005823D02*
X53536380Y-38862966D01*
X53536380Y-38624871D01*
X53488761Y-38529633D01*
X53441142Y-38482014D01*
X53345904Y-38434395D01*
X53250666Y-38434395D01*
X53155428Y-38482014D01*
X53107809Y-38529633D01*
X53060190Y-38624871D01*
X53012571Y-38815347D01*
X52964952Y-38910585D01*
X52917333Y-38958204D01*
X52822095Y-39005823D01*
X52726857Y-39005823D01*
X52631619Y-38958204D01*
X52584000Y-38910585D01*
X52536380Y-38815347D01*
X52536380Y-38577252D01*
X52584000Y-38434395D01*
X53536380Y-37862966D02*
X53488761Y-37958204D01*
X53393523Y-38005823D01*
X52536380Y-38005823D01*
X53536380Y-37482014D02*
X52869714Y-37482014D01*
X52536380Y-37482014D02*
X52584000Y-37529633D01*
X52631619Y-37482014D01*
X52584000Y-37434395D01*
X52536380Y-37482014D01*
X52631619Y-37482014D01*
X53536380Y-37005823D02*
X52869714Y-37005823D01*
X52964952Y-37005823D02*
X52917333Y-36958204D01*
X52869714Y-36862966D01*
X52869714Y-36720109D01*
X52917333Y-36624871D01*
X53012571Y-36577252D01*
X53536380Y-36577252D01*
X53012571Y-36577252D02*
X52917333Y-36529633D01*
X52869714Y-36434395D01*
X52869714Y-36291538D01*
X52917333Y-36196300D01*
X53012571Y-36148680D01*
X53536380Y-36148680D01*
X53250666Y-35720109D02*
X53250666Y-35243919D01*
X53536380Y-35815347D02*
X52536380Y-35482014D01*
X53536380Y-35148680D01*
X53536380Y-34243919D02*
X53060190Y-34577252D01*
X53536380Y-34815347D02*
X52536380Y-34815347D01*
X52536380Y-34434395D01*
X52584000Y-34339157D01*
X52631619Y-34291538D01*
X52726857Y-34243919D01*
X52869714Y-34243919D01*
X52964952Y-34291538D01*
X53012571Y-34339157D01*
X53060190Y-34434395D01*
X53060190Y-34815347D01*
X53536380Y-33815347D02*
X52536380Y-33815347D01*
X53250666Y-33482014D01*
X52536380Y-33148680D01*
X53536380Y-33148680D01*
X53441142Y-31339157D02*
X53488761Y-31386776D01*
X53536380Y-31529633D01*
X53536380Y-31624871D01*
X53488761Y-31767728D01*
X53393523Y-31862966D01*
X53298285Y-31910585D01*
X53107809Y-31958204D01*
X52964952Y-31958204D01*
X52774476Y-31910585D01*
X52679238Y-31862966D01*
X52584000Y-31767728D01*
X52536380Y-31624871D01*
X52536380Y-31529633D01*
X52584000Y-31386776D01*
X52631619Y-31339157D01*
X53536380Y-30767728D02*
X53488761Y-30862966D01*
X53393523Y-30910585D01*
X52536380Y-30910585D01*
X53536380Y-29958204D02*
X53012571Y-29958204D01*
X52917333Y-30005823D01*
X52869714Y-30101061D01*
X52869714Y-30291538D01*
X52917333Y-30386776D01*
X53488761Y-29958204D02*
X53536380Y-30053442D01*
X53536380Y-30291538D01*
X53488761Y-30386776D01*
X53393523Y-30434395D01*
X53298285Y-30434395D01*
X53203047Y-30386776D01*
X53155428Y-30291538D01*
X53155428Y-30053442D01*
X53107809Y-29958204D01*
X53488761Y-29529633D02*
X53536380Y-29434395D01*
X53536380Y-29243919D01*
X53488761Y-29148680D01*
X53393523Y-29101061D01*
X53345904Y-29101061D01*
X53250666Y-29148680D01*
X53203047Y-29243919D01*
X53203047Y-29386776D01*
X53155428Y-29482014D01*
X53060190Y-29529633D01*
X53012571Y-29529633D01*
X52917333Y-29482014D01*
X52869714Y-29386776D01*
X52869714Y-29243919D01*
X52917333Y-29148680D01*
X53488761Y-28720109D02*
X53536380Y-28624871D01*
X53536380Y-28434395D01*
X53488761Y-28339157D01*
X53393523Y-28291538D01*
X53345904Y-28291538D01*
X53250666Y-28339157D01*
X53203047Y-28434395D01*
X53203047Y-28577252D01*
X53155428Y-28672490D01*
X53060190Y-28720109D01*
X53012571Y-28720109D01*
X52917333Y-28672490D01*
X52869714Y-28577252D01*
X52869714Y-28434395D01*
X52917333Y-28339157D01*
X53536380Y-27862966D02*
X52869714Y-27862966D01*
X52536380Y-27862966D02*
X52584000Y-27910585D01*
X52631619Y-27862966D01*
X52584000Y-27815347D01*
X52536380Y-27862966D01*
X52631619Y-27862966D01*
X53488761Y-26958204D02*
X53536380Y-27053442D01*
X53536380Y-27243919D01*
X53488761Y-27339157D01*
X53441142Y-27386776D01*
X53345904Y-27434395D01*
X53060190Y-27434395D01*
X52964952Y-27386776D01*
X52917333Y-27339157D01*
X52869714Y-27243919D01*
X52869714Y-27053442D01*
X52917333Y-26958204D01*
X55527333Y-38672490D02*
X55479714Y-38720109D01*
X55336857Y-38815347D01*
X55241619Y-38862966D01*
X55098761Y-38910585D01*
X54860666Y-38958204D01*
X54670190Y-38958204D01*
X54432095Y-38910585D01*
X54289238Y-38862966D01*
X54194000Y-38815347D01*
X54051142Y-38720109D01*
X54003523Y-38672490D01*
X55098761Y-38339157D02*
X55146380Y-38243919D01*
X55146380Y-38053442D01*
X55098761Y-37958204D01*
X55003523Y-37910585D01*
X54955904Y-37910585D01*
X54860666Y-37958204D01*
X54813047Y-38053442D01*
X54813047Y-38196300D01*
X54765428Y-38291538D01*
X54670190Y-38339157D01*
X54622571Y-38339157D01*
X54527333Y-38291538D01*
X54479714Y-38196300D01*
X54479714Y-38053442D01*
X54527333Y-37958204D01*
X55146380Y-37339157D02*
X55098761Y-37434395D01*
X55003523Y-37482014D01*
X54146380Y-37482014D01*
X55146380Y-36529633D02*
X54622571Y-36529633D01*
X54527333Y-36577252D01*
X54479714Y-36672490D01*
X54479714Y-36862966D01*
X54527333Y-36958204D01*
X55098761Y-36529633D02*
X55146380Y-36624871D01*
X55146380Y-36862966D01*
X55098761Y-36958204D01*
X55003523Y-37005823D01*
X54908285Y-37005823D01*
X54813047Y-36958204D01*
X54765428Y-36862966D01*
X54765428Y-36624871D01*
X54717809Y-36529633D01*
X55146380Y-36053442D02*
X54479714Y-36053442D01*
X54670190Y-36053442D02*
X54574952Y-36005823D01*
X54527333Y-35958204D01*
X54479714Y-35862966D01*
X54479714Y-35767728D01*
X55146380Y-35434395D02*
X54479714Y-35434395D01*
X54574952Y-35434395D02*
X54527333Y-35386776D01*
X54479714Y-35291538D01*
X54479714Y-35148680D01*
X54527333Y-35053442D01*
X54622571Y-35005823D01*
X55146380Y-35005823D01*
X54622571Y-35005823D02*
X54527333Y-34958204D01*
X54479714Y-34862966D01*
X54479714Y-34720109D01*
X54527333Y-34624871D01*
X54622571Y-34577252D01*
X55146380Y-34577252D01*
X55241619Y-34339157D02*
X55241619Y-33577252D01*
X55098761Y-32910585D02*
X55146380Y-33005823D01*
X55146380Y-33196300D01*
X55098761Y-33291538D01*
X55051142Y-33339157D01*
X54955904Y-33386776D01*
X54670190Y-33386776D01*
X54574952Y-33339157D01*
X54527333Y-33291538D01*
X54479714Y-33196300D01*
X54479714Y-33005823D01*
X54527333Y-32910585D01*
X55146380Y-32339157D02*
X55098761Y-32434395D01*
X55003523Y-32482014D01*
X54146380Y-32482014D01*
X55098761Y-32005823D02*
X55146380Y-31910585D01*
X55146380Y-31720109D01*
X55098761Y-31624871D01*
X55003523Y-31577252D01*
X54955904Y-31577252D01*
X54860666Y-31624871D01*
X54813047Y-31720109D01*
X54813047Y-31862966D01*
X54765428Y-31958204D01*
X54670190Y-32005823D01*
X54622571Y-32005823D01*
X54527333Y-31958204D01*
X54479714Y-31862966D01*
X54479714Y-31720109D01*
X54527333Y-31624871D01*
X55241619Y-31386776D02*
X55241619Y-30624871D01*
X55146380Y-29862966D02*
X55146380Y-30434395D01*
X55146380Y-30148680D02*
X54146380Y-30148680D01*
X54289238Y-30243919D01*
X54384476Y-30339157D01*
X54432095Y-30434395D01*
X55098761Y-29386776D02*
X55146380Y-29386776D01*
X55241619Y-29434395D01*
X55289238Y-29482014D01*
X56089714Y-38529633D02*
X56756380Y-38529633D01*
X56089714Y-38958204D02*
X56613523Y-38958204D01*
X56708761Y-38910585D01*
X56756380Y-38815347D01*
X56756380Y-38672490D01*
X56708761Y-38577252D01*
X56661142Y-38529633D01*
X56708761Y-38101061D02*
X56756380Y-38005823D01*
X56756380Y-37815347D01*
X56708761Y-37720109D01*
X56613523Y-37672490D01*
X56565904Y-37672490D01*
X56470666Y-37720109D01*
X56423047Y-37815347D01*
X56423047Y-37958204D01*
X56375428Y-38053442D01*
X56280190Y-38101061D01*
X56232571Y-38101061D01*
X56137333Y-38053442D01*
X56089714Y-37958204D01*
X56089714Y-37815347D01*
X56137333Y-37720109D01*
X55756380Y-37339157D02*
X55756380Y-36720109D01*
X56137333Y-37053442D01*
X56137333Y-36910585D01*
X56184952Y-36815347D01*
X56232571Y-36767728D01*
X56327809Y-36720109D01*
X56565904Y-36720109D01*
X56661142Y-36767728D01*
X56708761Y-36815347D01*
X56756380Y-36910585D01*
X56756380Y-37196300D01*
X56708761Y-37291538D01*
X56661142Y-37339157D01*
X56708761Y-35862966D02*
X56756380Y-35958204D01*
X56756380Y-36148680D01*
X56708761Y-36243919D01*
X56661142Y-36291538D01*
X56565904Y-36339157D01*
X56280190Y-36339157D01*
X56184952Y-36291538D01*
X56137333Y-36243919D01*
X56089714Y-36148680D01*
X56089714Y-35958204D01*
X56137333Y-35862966D01*
X56089714Y-34243919D02*
X56756380Y-34243919D01*
X56089714Y-34672490D02*
X56613523Y-34672490D01*
X56708761Y-34624871D01*
X56756380Y-34529633D01*
X56756380Y-34386776D01*
X56708761Y-34291538D01*
X56661142Y-34243919D01*
X56756380Y-33624871D02*
X56708761Y-33720109D01*
X56613523Y-33767728D01*
X55756380Y-33767728D01*
X56089714Y-33386776D02*
X56089714Y-33005823D01*
X55756380Y-33243919D02*
X56613523Y-33243919D01*
X56708761Y-33196300D01*
X56756380Y-33101061D01*
X56756380Y-33005823D01*
X56756380Y-32672490D02*
X56089714Y-32672490D01*
X56280190Y-32672490D02*
X56184952Y-32624871D01*
X56137333Y-32577252D01*
X56089714Y-32482014D01*
X56089714Y-32386776D01*
X56756380Y-31624871D02*
X56232571Y-31624871D01*
X56137333Y-31672490D01*
X56089714Y-31767728D01*
X56089714Y-31958204D01*
X56137333Y-32053442D01*
X56708761Y-31624871D02*
X56756380Y-31720109D01*
X56756380Y-31958204D01*
X56708761Y-32053442D01*
X56613523Y-32101061D01*
X56518285Y-32101061D01*
X56423047Y-32053442D01*
X56375428Y-31958204D01*
X56375428Y-31720109D01*
X56327809Y-31624871D01*
X56756380Y-30386776D02*
X56089714Y-30386776D01*
X56280190Y-30386776D02*
X56184952Y-30339157D01*
X56137333Y-30291538D01*
X56089714Y-30196300D01*
X56089714Y-30101061D01*
X56708761Y-29386776D02*
X56756380Y-29482014D01*
X56756380Y-29672490D01*
X56708761Y-29767728D01*
X56613523Y-29815347D01*
X56232571Y-29815347D01*
X56137333Y-29767728D01*
X56089714Y-29672490D01*
X56089714Y-29482014D01*
X56137333Y-29386776D01*
X56232571Y-29339157D01*
X56327809Y-29339157D01*
X56423047Y-29815347D01*
X56089714Y-29053442D02*
X56089714Y-28672490D01*
X56756380Y-28910585D02*
X55899238Y-28910585D01*
X55804000Y-28862966D01*
X55756380Y-28767728D01*
X55756380Y-28672490D01*
X56756380Y-28339157D02*
X56089714Y-28339157D01*
X55756380Y-28339157D02*
X55804000Y-28386776D01*
X55851619Y-28339157D01*
X55804000Y-28291538D01*
X55756380Y-28339157D01*
X55851619Y-28339157D01*
X56089714Y-27862966D02*
X56756380Y-27862966D01*
X56184952Y-27862966D02*
X56137333Y-27815347D01*
X56089714Y-27720109D01*
X56089714Y-27577252D01*
X56137333Y-27482014D01*
X56232571Y-27434395D01*
X56756380Y-27434395D01*
X56708761Y-26577252D02*
X56756380Y-26672490D01*
X56756380Y-26862966D01*
X56708761Y-26958204D01*
X56613523Y-27005823D01*
X56232571Y-27005823D01*
X56137333Y-26958204D01*
X56089714Y-26862966D01*
X56089714Y-26672490D01*
X56137333Y-26577252D01*
X56232571Y-26529633D01*
X56327809Y-26529633D01*
X56423047Y-27005823D01*
X56756380Y-25672490D02*
X55756380Y-25672490D01*
X56708761Y-25672490D02*
X56756380Y-25767728D01*
X56756380Y-25958204D01*
X56708761Y-26053442D01*
X56661142Y-26101061D01*
X56565904Y-26148680D01*
X56280190Y-26148680D01*
X56184952Y-26101061D01*
X56137333Y-26053442D01*
X56089714Y-25958204D01*
X56089714Y-25767728D01*
X56137333Y-25672490D01*
X55851619Y-24482014D02*
X55804000Y-24434395D01*
X55756380Y-24339157D01*
X55756380Y-24101061D01*
X55804000Y-24005823D01*
X55851619Y-23958204D01*
X55946857Y-23910585D01*
X56042095Y-23910585D01*
X56184952Y-23958204D01*
X56756380Y-24529633D01*
X56756380Y-23910585D01*
X56661142Y-23482014D02*
X56708761Y-23434395D01*
X56756380Y-23482014D01*
X56708761Y-23529633D01*
X56661142Y-23482014D01*
X56756380Y-23482014D01*
X55756380Y-22815347D02*
X55756380Y-22720109D01*
X55804000Y-22624871D01*
X55851619Y-22577252D01*
X55946857Y-22529633D01*
X56137333Y-22482014D01*
X56375428Y-22482014D01*
X56565904Y-22529633D01*
X56661142Y-22577252D01*
X56708761Y-22624871D01*
X56756380Y-22720109D01*
X56756380Y-22815347D01*
X56708761Y-22910585D01*
X56661142Y-22958204D01*
X56565904Y-23005823D01*
X56375428Y-23053442D01*
X56137333Y-23053442D01*
X55946857Y-23005823D01*
X55851619Y-22958204D01*
X55804000Y-22910585D01*
X55756380Y-22815347D01*
X57137333Y-22148680D02*
X57089714Y-22101061D01*
X56946857Y-22005823D01*
X56851619Y-21958204D01*
X56708761Y-21910585D01*
X56470666Y-21862966D01*
X56280190Y-21862966D01*
X56042095Y-21910585D01*
X55899238Y-21958204D01*
X55804000Y-22005823D01*
X55661142Y-22101061D01*
X55613523Y-22148680D01*
X57461619Y-39005823D02*
X57414000Y-38958204D01*
X57366380Y-38862966D01*
X57366380Y-38624871D01*
X57414000Y-38529633D01*
X57461619Y-38482014D01*
X57556857Y-38434395D01*
X57652095Y-38434395D01*
X57794952Y-38482014D01*
X58366380Y-39053442D01*
X58366380Y-38434395D01*
X57366380Y-37815347D02*
X57366380Y-37720109D01*
X57414000Y-37624871D01*
X57461619Y-37577252D01*
X57556857Y-37529633D01*
X57747333Y-37482014D01*
X57985428Y-37482014D01*
X58175904Y-37529633D01*
X58271142Y-37577252D01*
X58318761Y-37624871D01*
X58366380Y-37720109D01*
X58366380Y-37815347D01*
X58318761Y-37910585D01*
X58271142Y-37958204D01*
X58175904Y-38005823D01*
X57985428Y-38053442D01*
X57747333Y-38053442D01*
X57556857Y-38005823D01*
X57461619Y-37958204D01*
X57414000Y-37910585D01*
X57366380Y-37815347D01*
X57461619Y-37101061D02*
X57414000Y-37053442D01*
X57366380Y-36958204D01*
X57366380Y-36720109D01*
X57414000Y-36624871D01*
X57461619Y-36577252D01*
X57556857Y-36529633D01*
X57652095Y-36529633D01*
X57794952Y-36577252D01*
X58366380Y-37148680D01*
X58366380Y-36529633D01*
X57366380Y-36196300D02*
X57366380Y-35577252D01*
X57747333Y-35910585D01*
X57747333Y-35767728D01*
X57794952Y-35672490D01*
X57842571Y-35624871D01*
X57937809Y-35577252D01*
X58175904Y-35577252D01*
X58271142Y-35624871D01*
X58318761Y-35672490D01*
X58366380Y-35767728D01*
X58366380Y-36053442D01*
X58318761Y-36148680D01*
X58271142Y-36196300D01*
X58271142Y-35148680D02*
X58318761Y-35101061D01*
X58366380Y-35148680D01*
X58318761Y-35196300D01*
X58271142Y-35148680D01*
X58366380Y-35148680D01*
X57461619Y-34720109D02*
X57414000Y-34672490D01*
X57366380Y-34577252D01*
X57366380Y-34339157D01*
X57414000Y-34243919D01*
X57461619Y-34196300D01*
X57556857Y-34148680D01*
X57652095Y-34148680D01*
X57794952Y-34196300D01*
X58366380Y-34767728D01*
X58366380Y-34148680D01*
X58271142Y-33720109D02*
X58318761Y-33672490D01*
X58366380Y-33720109D01*
X58318761Y-33767728D01*
X58271142Y-33720109D01*
X58366380Y-33720109D01*
X57461619Y-33291538D02*
X57414000Y-33243919D01*
X57366380Y-33148680D01*
X57366380Y-32910585D01*
X57414000Y-32815347D01*
X57461619Y-32767728D01*
X57556857Y-32720109D01*
X57652095Y-32720109D01*
X57794952Y-32767728D01*
X58366380Y-33339157D01*
X58366380Y-32720109D01*
X57366380Y-32101061D02*
X57366380Y-32005823D01*
X57414000Y-31910585D01*
X57461619Y-31862966D01*
X57556857Y-31815347D01*
X57747333Y-31767728D01*
X57985428Y-31767728D01*
X58175904Y-31815347D01*
X58271142Y-31862966D01*
X58318761Y-31910585D01*
X58366380Y-32005823D01*
X58366380Y-32101061D01*
X58318761Y-32196300D01*
X58271142Y-32243919D01*
X58175904Y-32291538D01*
X57985428Y-32339157D01*
X57747333Y-32339157D01*
X57556857Y-32291538D01*
X57461619Y-32243919D01*
X57414000Y-32196300D01*
X57366380Y-32101061D01*
X57699714Y-30577252D02*
X58556857Y-30577252D01*
X58652095Y-30624871D01*
X58699714Y-30720109D01*
X58699714Y-30767728D01*
X57366380Y-30577252D02*
X57414000Y-30624871D01*
X57461619Y-30577252D01*
X57414000Y-30529633D01*
X57366380Y-30577252D01*
X57461619Y-30577252D01*
X58366380Y-29958204D02*
X58318761Y-30053442D01*
X58223523Y-30101061D01*
X57366380Y-30101061D01*
X57699714Y-29672490D02*
X58366380Y-29434395D01*
X57699714Y-29196300D02*
X58366380Y-29434395D01*
X58604476Y-29529633D01*
X58652095Y-29577252D01*
X58699714Y-29672490D01*
X57699714Y-28910585D02*
X58366380Y-28720109D01*
X57890190Y-28529633D01*
X58366380Y-28339157D01*
X57699714Y-28148680D01*
X58366380Y-27862966D02*
X57699714Y-27339157D01*
X57699714Y-27862966D02*
X58366380Y-27339157D01*
X57699714Y-27053442D02*
X58366380Y-26815347D01*
X57699714Y-26577252D02*
X58366380Y-26815347D01*
X58604476Y-26910585D01*
X58652095Y-26958204D01*
X58699714Y-27053442D01*
X33066171Y-18633342D02*
X33623314Y-18633342D01*
X33323314Y-18976200D01*
X33451885Y-18976200D01*
X33537600Y-19019057D01*
X33580457Y-19061914D01*
X33623314Y-19147628D01*
X33623314Y-19361914D01*
X33580457Y-19447628D01*
X33537600Y-19490485D01*
X33451885Y-19533342D01*
X33194742Y-19533342D01*
X33109028Y-19490485D01*
X33066171Y-19447628D01*
X33923314Y-18933342D02*
X34137600Y-19533342D01*
X34351885Y-18933342D01*
X34609028Y-18633342D02*
X35166171Y-18633342D01*
X34866171Y-18976200D01*
X34994742Y-18976200D01*
X35080457Y-19019057D01*
X35123314Y-19061914D01*
X35166171Y-19147628D01*
X35166171Y-19361914D01*
X35123314Y-19447628D01*
X35080457Y-19490485D01*
X34994742Y-19533342D01*
X34737600Y-19533342D01*
X34651885Y-19490485D01*
X34609028Y-19447628D01*
D12*
G04 #@! TO.C,IC1*
X37404523Y-31237161D02*
X36134523Y-31237161D01*
X37283571Y-29906685D02*
X37344047Y-29967161D01*
X37404523Y-30148590D01*
X37404523Y-30269542D01*
X37344047Y-30450971D01*
X37223095Y-30571923D01*
X37102142Y-30632400D01*
X36860238Y-30692876D01*
X36678809Y-30692876D01*
X36436904Y-30632400D01*
X36315952Y-30571923D01*
X36195000Y-30450971D01*
X36134523Y-30269542D01*
X36134523Y-30148590D01*
X36195000Y-29967161D01*
X36255476Y-29906685D01*
X37404523Y-28697161D02*
X37404523Y-29422876D01*
X37404523Y-29060019D02*
X36134523Y-29060019D01*
X36315952Y-29180971D01*
X36436904Y-29301923D01*
X36497380Y-29422876D01*
D10*
G04 #@! TO.C,U4*
X51333400Y-17397480D02*
X51333400Y-17635576D01*
X51095304Y-17540338D02*
X51333400Y-17635576D01*
X51571495Y-17540338D01*
X51190542Y-17826052D02*
X51333400Y-17635576D01*
X51476257Y-17826052D01*
X51333400Y-17397480D02*
X51333400Y-17635576D01*
X51095304Y-17540338D02*
X51333400Y-17635576D01*
X51571495Y-17540338D01*
X51190542Y-17826052D02*
X51333400Y-17635576D01*
X51476257Y-17826052D01*
D11*
G04 #@! TO.C,IC1*
X43830000Y-36997400D02*
X29830000Y-36997400D01*
X43830000Y-23597400D02*
X43830000Y-36997400D01*
X29830000Y-22997400D02*
X43230000Y-22997400D01*
X29830000Y-36997400D02*
X29830000Y-22997400D01*
X43230000Y-22997400D02*
X43830000Y-23597400D01*
X43930000Y-22997400D02*
G75*
G03*
X43930000Y-22997400I-100000J0D01*
G01*
D13*
G04 #@! TO.C,U3*
X42951400Y-18658400D02*
X43601400Y-18658400D01*
X42951400Y-18658400D02*
X41276400Y-18658400D01*
X42951400Y-21778400D02*
X42301400Y-21778400D01*
X42951400Y-21778400D02*
X43601400Y-21778400D01*
G04 #@! TO.C,C45*
X32481065Y-19511600D02*
X32712735Y-19511600D01*
X32481065Y-18791600D02*
X32712735Y-18791600D01*
G04 #@! TO.C,C21*
X28938900Y-20728040D02*
X28938900Y-20959710D01*
X29658900Y-20728040D02*
X29658900Y-20959710D01*
G04 #@! TO.C,C40*
X32888600Y-20712165D02*
X32888600Y-20943835D01*
X33608600Y-20712165D02*
X33608600Y-20943835D01*
G04 #@! TO.C,C35*
X27656200Y-20762965D02*
X27656200Y-20994635D01*
X28376200Y-20762965D02*
X28376200Y-20994635D01*
G04 #@! TO.C,C43*
X27578165Y-30831200D02*
X27809835Y-30831200D01*
X27578165Y-31551200D02*
X27809835Y-31551200D01*
G04 #@! TO.C,J1*
X16542000Y-34672000D02*
X14642000Y-34672000D01*
X20442000Y-25272000D02*
X18442000Y-25272000D01*
X14642000Y-25272000D02*
X14642000Y-34672000D01*
X20442000Y-34672000D02*
X18442000Y-34672000D01*
X16542000Y-25272000D02*
X14642000Y-25272000D01*
G04 #@! TO.C,D2*
X16729600Y-20826400D02*
X19189600Y-20826400D01*
X19189600Y-19356400D02*
X16729600Y-19356400D01*
X16729600Y-19356400D02*
X16729600Y-20826400D01*
G04 #@! TO.C,C18*
X30037035Y-18817000D02*
X29805365Y-18817000D01*
X30037035Y-19537000D02*
X29805365Y-19537000D01*
G04 #@! TO.C,C28*
X46842000Y-19890665D02*
X46842000Y-20122335D01*
X46122000Y-19890665D02*
X46122000Y-20122335D01*
G04 #@! TO.C,C26*
X65206200Y-23941035D02*
X65206200Y-23709365D01*
X64486200Y-23941035D02*
X64486200Y-23709365D01*
G04 #@! TO.C,C30*
X45080600Y-19899365D02*
X45080600Y-20131035D01*
X45800600Y-19899365D02*
X45800600Y-20131035D01*
G04 #@! TO.C,C8*
X40568200Y-20918435D02*
X40568200Y-20686765D01*
X39848200Y-20918435D02*
X39848200Y-20686765D01*
G04 #@! TO.C,C25*
X65155400Y-39663635D02*
X65155400Y-39431965D01*
X64435400Y-39663635D02*
X64435400Y-39431965D01*
G04 #@! TO.C,R3*
X30490900Y-39470876D02*
X30490900Y-39980324D01*
X31535900Y-39470876D02*
X31535900Y-39980324D01*
G04 #@! TO.C,C15*
X64460800Y-20927135D02*
X64460800Y-20695465D01*
X65180800Y-20927135D02*
X65180800Y-20695465D01*
G04 #@! TO.C,C41*
X27570165Y-22788200D02*
X27801835Y-22788200D01*
X27570165Y-22068200D02*
X27801835Y-22068200D01*
G04 #@! TO.C,C24*
X26328635Y-19909200D02*
X26096965Y-19909200D01*
X26328635Y-20629200D02*
X26096965Y-20629200D01*
G04 #@! TO.C,R14*
X18705300Y-22402076D02*
X18705300Y-22911524D01*
X19750300Y-22402076D02*
X19750300Y-22911524D01*
G04 #@! TO.C,C12*
X28926200Y-39257235D02*
X28926200Y-39025565D01*
X29646200Y-39257235D02*
X29646200Y-39025565D01*
G04 #@! TO.C,R9*
X19547100Y-37387624D02*
X19547100Y-36878176D01*
X18502100Y-37387624D02*
X18502100Y-36878176D01*
G04 #@! TO.C,C7*
X25414235Y-25379000D02*
X25182565Y-25379000D01*
X25414235Y-24659000D02*
X25182565Y-24659000D01*
G04 #@! TO.C,C38*
X27561465Y-28291200D02*
X27793135Y-28291200D01*
X27561465Y-29011200D02*
X27793135Y-29011200D01*
G04 #@! TO.C,D3*
X22669400Y-19331000D02*
X20209400Y-19331000D01*
X20209400Y-19331000D02*
X20209400Y-20801000D01*
X20209400Y-20801000D02*
X22669400Y-20801000D01*
G04 #@! TO.C,C22*
X48010400Y-19890665D02*
X48010400Y-20122335D01*
X47290400Y-19890665D02*
X47290400Y-20122335D01*
G04 #@! TO.C,U2*
X37414200Y-21727600D02*
X36764200Y-21727600D01*
X37414200Y-18607600D02*
X38064200Y-18607600D01*
X37414200Y-18607600D02*
X35739200Y-18607600D01*
X37414200Y-21727600D02*
X38064200Y-21727600D01*
G04 #@! TO.C,C39*
X34260200Y-20712165D02*
X34260200Y-20943835D01*
X34980200Y-20712165D02*
X34980200Y-20943835D01*
G04 #@! TO.C,R8*
X16851100Y-37389524D02*
X16851100Y-36880076D01*
X17896100Y-37389524D02*
X17896100Y-36880076D01*
G04 #@! TO.C,R13*
X33517100Y-39954924D02*
X33517100Y-39445476D01*
X32472100Y-39954924D02*
X32472100Y-39445476D01*
G04 #@! TO.C,C3*
X28325400Y-40349435D02*
X28325400Y-40117765D01*
X27605400Y-40349435D02*
X27605400Y-40117765D01*
G04 #@! TO.C,R11*
X26151100Y-28372524D02*
X26151100Y-27863076D01*
X25106100Y-28372524D02*
X25106100Y-27863076D01*
G04 #@! TO.C,C32*
X40508600Y-40066965D02*
X40508600Y-40298635D01*
X41228600Y-40066965D02*
X41228600Y-40298635D01*
G04 #@! TO.C,U4*
X52057300Y-41300400D02*
X62598300Y-41300400D01*
X62598300Y-18694400D02*
X52057300Y-18694400D01*
X52057300Y-18694400D02*
X52057300Y-19009360D01*
X62598300Y-19009360D02*
X62598300Y-18694400D01*
X62598300Y-41300400D02*
X62598300Y-40985440D01*
X52057300Y-40985440D02*
X52057300Y-41300400D01*
G36*
X50736500Y-34988500D02*
G01*
X50482500Y-34988500D01*
X50482500Y-34607500D01*
X50736500Y-34607500D01*
X50736500Y-34988500D01*
G37*
D14*
X50736500Y-34988500D02*
X50482500Y-34988500D01*
X50482500Y-34607500D01*
X50736500Y-34607500D01*
X50736500Y-34988500D01*
G36*
X64173100Y-30988000D02*
G01*
X63919100Y-30988000D01*
X63919100Y-30607000D01*
X64173100Y-30607000D01*
X64173100Y-30988000D01*
G37*
X64173100Y-30988000D02*
X63919100Y-30988000D01*
X63919100Y-30607000D01*
X64173100Y-30607000D01*
X64173100Y-30988000D01*
G36*
X64173100Y-38989000D02*
G01*
X63919100Y-38989000D01*
X63919100Y-38608000D01*
X64173100Y-38608000D01*
X64173100Y-38989000D01*
G37*
X64173100Y-38989000D02*
X63919100Y-38989000D01*
X63919100Y-38608000D01*
X64173100Y-38608000D01*
X64173100Y-38989000D01*
G36*
X50736500Y-26987500D02*
G01*
X50482500Y-26987500D01*
X50482500Y-26606500D01*
X50736500Y-26606500D01*
X50736500Y-26987500D01*
G37*
X50736500Y-26987500D02*
X50482500Y-26987500D01*
X50482500Y-26606500D01*
X50736500Y-26606500D01*
X50736500Y-26987500D01*
G36*
X64173100Y-22987000D02*
G01*
X63919100Y-22987000D01*
X63919100Y-22606000D01*
X64173100Y-22606000D01*
X64173100Y-22987000D01*
G37*
X64173100Y-22987000D02*
X63919100Y-22987000D01*
X63919100Y-22606000D01*
X64173100Y-22606000D01*
X64173100Y-22987000D01*
D13*
G04 #@! TO.C,C37*
X27586865Y-25852800D02*
X27818535Y-25852800D01*
X27586865Y-26572800D02*
X27818535Y-26572800D01*
G04 #@! TO.C,C29*
X64486200Y-26824865D02*
X64486200Y-27056535D01*
X65206200Y-26824865D02*
X65206200Y-27056535D01*
G04 #@! TO.C,C42*
X27569465Y-33142600D02*
X27801135Y-33142600D01*
X27569465Y-33862600D02*
X27801135Y-33862600D01*
G04 #@! TO.C,C10*
X42295400Y-40075665D02*
X42295400Y-40307335D01*
X41575400Y-40075665D02*
X41575400Y-40307335D01*
G04 #@! TO.C,C46*
X30247000Y-20712165D02*
X30247000Y-20943835D01*
X30967000Y-20712165D02*
X30967000Y-20943835D01*
G04 #@! TO.C,R18*
X19709676Y-39584100D02*
X20219124Y-39584100D01*
X19709676Y-40629100D02*
X20219124Y-40629100D01*
G04 #@! TO.C,R15*
X17946900Y-22402076D02*
X17946900Y-22911524D01*
X16901900Y-22402076D02*
X16901900Y-22911524D01*
G04 #@! TO.C,C31*
X64435400Y-33268465D02*
X64435400Y-33500135D01*
X65155400Y-33268465D02*
X65155400Y-33500135D01*
G04 #@! TO.C,C19*
X45080600Y-22391635D02*
X45080600Y-22159965D01*
X45800600Y-22391635D02*
X45800600Y-22159965D01*
G04 #@! TO.C,R12*
X20153100Y-37364124D02*
X20153100Y-36854676D01*
X21198100Y-37364124D02*
X21198100Y-36854676D01*
G04 #@! TO.C,C2*
X34539600Y-39050965D02*
X34539600Y-39282635D01*
X35259600Y-39050965D02*
X35259600Y-39282635D01*
G04 #@! TO.C,C13*
X43521365Y-39924400D02*
X43753035Y-39924400D01*
X43521365Y-40644400D02*
X43753035Y-40644400D01*
G04 #@! TO.C,R2*
X38454876Y-41060900D02*
X38964324Y-41060900D01*
X38454876Y-40015900D02*
X38964324Y-40015900D01*
G04 #@! TO.C,C9*
X27586865Y-32719600D02*
X27818535Y-32719600D01*
X27586865Y-31999600D02*
X27818535Y-31999600D01*
G04 #@! TO.C,C33*
X27570165Y-25388525D02*
X27801835Y-25388525D01*
X27570165Y-24668525D02*
X27801835Y-24668525D01*
G04 #@! TO.C,C14*
X17293000Y-40146235D02*
X17293000Y-39914565D01*
X18013000Y-40146235D02*
X18013000Y-39914565D01*
G04 #@! TO.C,R10*
X25080700Y-31417176D02*
X25080700Y-31926624D01*
X26125700Y-31417176D02*
X26125700Y-31926624D01*
G04 #@! TO.C,C47*
X31542400Y-20712165D02*
X31542400Y-20943835D01*
X32262400Y-20712165D02*
X32262400Y-20943835D01*
G04 #@! TO.C,C23*
X48433400Y-19873965D02*
X48433400Y-20105635D01*
X49153400Y-19873965D02*
X49153400Y-20105635D01*
G04 #@! TO.C,C1*
X36139800Y-39050965D02*
X36139800Y-39282635D01*
X36859800Y-39050965D02*
X36859800Y-39282635D01*
G04 #@! TO.C,Y1*
X28324400Y-35411000D02*
X22574400Y-35411000D01*
X22574400Y-39011000D02*
X28324400Y-39011000D01*
X22574400Y-35411000D02*
X22574400Y-39011000D01*
G04 #@! TO.C,C27*
X27080800Y-40374835D02*
X27080800Y-40143165D01*
X26360800Y-40374835D02*
X26360800Y-40143165D01*
G04 #@! TO.C,R1*
X23875276Y-40654500D02*
X24384724Y-40654500D01*
X23875276Y-39609500D02*
X24384724Y-39609500D01*
G04 #@! TO.C,C6*
X27776435Y-34412600D02*
X27544765Y-34412600D01*
X27776435Y-35132600D02*
X27544765Y-35132600D01*
G04 #@! TO.C,R5*
X24754100Y-22860724D02*
X24754100Y-22351276D01*
X23709100Y-22860724D02*
X23709100Y-22351276D01*
G04 #@! TO.C,C34*
X27586865Y-27072000D02*
X27818535Y-27072000D01*
X27586865Y-27792000D02*
X27818535Y-27792000D01*
G04 #@! TO.C,R17*
X22134300Y-22860724D02*
X22134300Y-22351276D01*
X23179300Y-22860724D02*
X23179300Y-22351276D01*
G04 #@! TO.C,R6*
X26328900Y-22860724D02*
X26328900Y-22351276D01*
X25283900Y-22860724D02*
X25283900Y-22351276D01*
G04 #@! TO.C,C20*
X65130000Y-36282365D02*
X65130000Y-36514035D01*
X64410000Y-36282365D02*
X64410000Y-36514035D01*
G04 #@! TO.C,C36*
X35494965Y-40457800D02*
X35726635Y-40457800D01*
X35494965Y-41177800D02*
X35726635Y-41177800D01*
G04 #@! TO.C,C4*
X64486200Y-29822065D02*
X64486200Y-30053735D01*
X65206200Y-29822065D02*
X65206200Y-30053735D01*
G04 #@! TO.C,C44*
X27532065Y-24118525D02*
X27763735Y-24118525D01*
X27532065Y-23398525D02*
X27763735Y-23398525D01*
G04 #@! TO.C,R16*
X20407100Y-22835324D02*
X20407100Y-22325876D01*
X21452100Y-22835324D02*
X21452100Y-22325876D01*
G04 #@! TD*
%LPC*%
D15*
G04 #@! TO.C,IC1*
X43230000Y-23597400D03*
X43230000Y-24397400D03*
X43230000Y-25197400D03*
X43230000Y-25997400D03*
X43230000Y-26797400D03*
X43230000Y-27597400D03*
X43230000Y-28397400D03*
X43230000Y-29197400D03*
X43230000Y-29997400D03*
X43230000Y-30797400D03*
X43230000Y-31597400D03*
X43230000Y-32397400D03*
X43230000Y-33197400D03*
X43230000Y-33997400D03*
X43230000Y-34797400D03*
X43230000Y-35597400D03*
X43230000Y-36397400D03*
X42430000Y-23597400D03*
X42430000Y-24397400D03*
X42430000Y-25197400D03*
X42430000Y-25997400D03*
X42430000Y-26797400D03*
X42430000Y-27597400D03*
X42430000Y-28397400D03*
X42430000Y-29197400D03*
X42430000Y-29997400D03*
X42430000Y-30797400D03*
X42430000Y-31597400D03*
X42430000Y-32397400D03*
X42430000Y-33197400D03*
X42430000Y-33997400D03*
X42430000Y-34797400D03*
X42430000Y-35597400D03*
X42430000Y-36397400D03*
X41630000Y-23597400D03*
X41630000Y-24397400D03*
X41630000Y-25197400D03*
X41630000Y-25997400D03*
X41630000Y-26797400D03*
X41630000Y-27597400D03*
X41630000Y-28397400D03*
X41630000Y-29197400D03*
X41630000Y-29997400D03*
X41630000Y-30797400D03*
X41630000Y-31597400D03*
X41630000Y-32397400D03*
X41630000Y-33197400D03*
X41630000Y-33997400D03*
X41630000Y-34797400D03*
X41630000Y-35597400D03*
X41630000Y-36397400D03*
X40830000Y-23597400D03*
X40830000Y-24397400D03*
X40830000Y-25197400D03*
X40830000Y-25997400D03*
X40830000Y-26797400D03*
X40830000Y-27597400D03*
X40830000Y-28397400D03*
X40830000Y-29197400D03*
X40830000Y-29997400D03*
X40830000Y-30797400D03*
X40830000Y-31597400D03*
X40830000Y-32397400D03*
X40830000Y-33197400D03*
X40830000Y-33997400D03*
X40830000Y-34797400D03*
X40830000Y-35597400D03*
X40830000Y-36397400D03*
X40030000Y-23597400D03*
X40030000Y-24397400D03*
X40030000Y-25197400D03*
X40030000Y-25997400D03*
X40030000Y-26797400D03*
X40030000Y-27597400D03*
X40030000Y-28397400D03*
X40030000Y-29197400D03*
X40030000Y-29997400D03*
X40030000Y-30797400D03*
X40030000Y-31597400D03*
X40030000Y-32397400D03*
X40030000Y-33197400D03*
X40030000Y-33997400D03*
X40030000Y-34797400D03*
X40030000Y-35597400D03*
X40030000Y-36397400D03*
X39230000Y-23597400D03*
X39230000Y-24397400D03*
X39230000Y-25197400D03*
X39230000Y-25997400D03*
X39230000Y-26797400D03*
X39230000Y-27597400D03*
X39230000Y-28397400D03*
X39230000Y-29197400D03*
X39230000Y-29997400D03*
X39230000Y-30797400D03*
X39230000Y-31597400D03*
X39230000Y-32397400D03*
X39230000Y-33197400D03*
X39230000Y-33997400D03*
X39230000Y-34797400D03*
X39230000Y-35597400D03*
X39230000Y-36397400D03*
X38430000Y-23597400D03*
X38430000Y-24397400D03*
X38430000Y-25197400D03*
X38430000Y-25997400D03*
X38430000Y-26797400D03*
X38430000Y-27597400D03*
X38430000Y-28397400D03*
X38430000Y-29997400D03*
X38430000Y-31597400D03*
X38430000Y-32397400D03*
X38430000Y-33197400D03*
X38430000Y-33997400D03*
X38430000Y-34797400D03*
X38430000Y-35597400D03*
X38430000Y-36397400D03*
X37630000Y-23597400D03*
X37630000Y-24397400D03*
X37630000Y-25197400D03*
X37630000Y-25997400D03*
X37630000Y-26797400D03*
X37630000Y-27597400D03*
X37630000Y-32397400D03*
X37630000Y-33197400D03*
X37630000Y-33997400D03*
X37630000Y-34797400D03*
X37630000Y-35597400D03*
X37630000Y-36397400D03*
X36830000Y-23597400D03*
X36830000Y-24397400D03*
X36830000Y-25197400D03*
X36830000Y-25997400D03*
X36830000Y-26797400D03*
X36830000Y-27597400D03*
X36830000Y-28397400D03*
X36830000Y-31597400D03*
X36830000Y-32397400D03*
X36830000Y-33197400D03*
X36830000Y-33997400D03*
X36830000Y-34797400D03*
X36830000Y-35597400D03*
X36830000Y-36397400D03*
X36030000Y-23597400D03*
X36030000Y-24397400D03*
X36030000Y-25197400D03*
X36030000Y-25997400D03*
X36030000Y-26797400D03*
X36030000Y-27597400D03*
X36030000Y-32397400D03*
X36030000Y-33197400D03*
X36030000Y-33997400D03*
X36030000Y-34797400D03*
X36030000Y-35597400D03*
X36030000Y-36397400D03*
X35230000Y-23597400D03*
X35230000Y-24397400D03*
X35230000Y-25197400D03*
X35230000Y-25997400D03*
X35230000Y-26797400D03*
X35230000Y-27597400D03*
X35230000Y-28397400D03*
X35230000Y-29997400D03*
X35230000Y-31597400D03*
X35230000Y-32397400D03*
X35230000Y-33197400D03*
X35230000Y-33997400D03*
X35230000Y-34797400D03*
X35230000Y-35597400D03*
X35230000Y-36397400D03*
X34430000Y-23597400D03*
X34430000Y-24397400D03*
X34430000Y-25197400D03*
X34430000Y-25997400D03*
X34430000Y-26797400D03*
X34430000Y-27597400D03*
X34430000Y-28397400D03*
X34430000Y-29197400D03*
X34430000Y-29997400D03*
X34430000Y-30797400D03*
X34430000Y-31597400D03*
X34430000Y-32397400D03*
X34430000Y-33197400D03*
X34430000Y-33997400D03*
X34430000Y-34797400D03*
X34430000Y-35597400D03*
X34430000Y-36397400D03*
X33630000Y-23597400D03*
X33630000Y-24397400D03*
X33630000Y-25197400D03*
X33630000Y-25997400D03*
X33630000Y-26797400D03*
X33630000Y-27597400D03*
X33630000Y-28397400D03*
X33630000Y-29197400D03*
X33630000Y-29997400D03*
X33630000Y-30797400D03*
X33630000Y-31597400D03*
X33630000Y-32397400D03*
X33630000Y-33197400D03*
X33630000Y-33997400D03*
X33630000Y-34797400D03*
X33630000Y-35597400D03*
X33630000Y-36397400D03*
X32830000Y-23597400D03*
X32830000Y-24397400D03*
X32830000Y-25197400D03*
X32830000Y-25997400D03*
X32830000Y-26797400D03*
X32830000Y-27597400D03*
X32830000Y-28397400D03*
X32830000Y-29197400D03*
X32830000Y-29997400D03*
X32830000Y-30797400D03*
X32830000Y-31597400D03*
X32830000Y-32397400D03*
X32830000Y-33197400D03*
X32830000Y-33997400D03*
X32830000Y-34797400D03*
X32830000Y-35597400D03*
X32830000Y-36397400D03*
X32030000Y-23597400D03*
X32030000Y-24397400D03*
X32030000Y-25197400D03*
X32030000Y-25997400D03*
X32030000Y-26797400D03*
X32030000Y-27597400D03*
X32030000Y-28397400D03*
X32030000Y-29197400D03*
X32030000Y-29997400D03*
X32030000Y-30797400D03*
X32030000Y-31597400D03*
X32030000Y-32397400D03*
X32030000Y-33197400D03*
X32030000Y-33997400D03*
X32030000Y-34797400D03*
X32030000Y-35597400D03*
X32030000Y-36397400D03*
X31230000Y-23597400D03*
X31230000Y-24397400D03*
X31230000Y-25197400D03*
X31230000Y-25997400D03*
X31230000Y-26797400D03*
X31230000Y-27597400D03*
X31230000Y-28397400D03*
X31230000Y-29197400D03*
X31230000Y-29997400D03*
X31230000Y-30797400D03*
X31230000Y-31597400D03*
X31230000Y-32397400D03*
X31230000Y-33197400D03*
X31230000Y-33997400D03*
X31230000Y-34797400D03*
X31230000Y-35597400D03*
X31230000Y-36397400D03*
X30430000Y-23597400D03*
X30430000Y-24397400D03*
X30430000Y-25197400D03*
X30430000Y-25997400D03*
X30430000Y-26797400D03*
X30430000Y-27597400D03*
X30430000Y-28397400D03*
X30430000Y-29197400D03*
X30430000Y-29997400D03*
X30430000Y-30797400D03*
X30430000Y-31597400D03*
X30430000Y-32397400D03*
X30430000Y-33197400D03*
X30430000Y-33997400D03*
X30430000Y-34797400D03*
X30430000Y-35597400D03*
X30430000Y-36397400D03*
G04 #@! TD*
D16*
G04 #@! TO.C,U3*
X42013900Y-19268400D03*
X42013900Y-21168400D03*
X43888900Y-20218400D03*
G04 #@! TD*
D17*
G04 #@! TO.C,C45*
X32029400Y-19151600D03*
X33164400Y-19151600D03*
G04 #@! TD*
D18*
G04 #@! TO.C,C21*
X29298900Y-20276375D03*
X29298900Y-21411375D03*
G04 #@! TD*
G04 #@! TO.C,C40*
X33248600Y-20260500D03*
X33248600Y-21395500D03*
G04 #@! TD*
G04 #@! TO.C,C35*
X28016200Y-20311300D03*
X28016200Y-21446300D03*
G04 #@! TD*
D17*
G04 #@! TO.C,C43*
X27126500Y-31191200D03*
X28261500Y-31191200D03*
G04 #@! TD*
D19*
G04 #@! TO.C,J1*
X21142000Y-27082000D03*
X21142000Y-32862000D03*
D20*
X22942000Y-26722000D03*
X22942000Y-27522000D03*
D21*
X22942000Y-28722000D03*
X22942000Y-29722000D03*
X22942000Y-30222000D03*
X22942000Y-31222000D03*
D20*
X22942000Y-32422000D03*
X22942000Y-33222000D03*
X22942000Y-33222000D03*
D22*
X22942000Y-32422000D03*
D21*
X22942000Y-31722000D03*
X22942000Y-30722000D03*
X22942000Y-29222000D03*
X22942000Y-28222000D03*
D22*
X22942000Y-27522000D03*
X23042000Y-26722000D03*
D23*
X17492000Y-34292000D03*
D24*
X21672000Y-25652000D03*
X21672000Y-34292000D03*
D23*
X17492000Y-25652000D03*
G04 #@! TD*
D25*
G04 #@! TO.C,D2*
X17514600Y-20091400D03*
X19264600Y-20091400D03*
G04 #@! TD*
D26*
G04 #@! TO.C,C18*
X30488700Y-19177000D03*
X29353700Y-19177000D03*
G04 #@! TD*
D18*
G04 #@! TO.C,C28*
X46482000Y-19439000D03*
X46482000Y-20574000D03*
G04 #@! TD*
D27*
G04 #@! TO.C,C26*
X64846200Y-24392700D03*
X64846200Y-23257700D03*
G04 #@! TD*
D18*
G04 #@! TO.C,C30*
X45440600Y-19447700D03*
X45440600Y-20582700D03*
G04 #@! TD*
D27*
G04 #@! TO.C,C8*
X40208200Y-21370100D03*
X40208200Y-20235100D03*
G04 #@! TD*
G04 #@! TO.C,C25*
X64795400Y-40115300D03*
X64795400Y-38980300D03*
G04 #@! TD*
D28*
G04 #@! TO.C,R3*
X31013400Y-38813100D03*
X31013400Y-40638100D03*
G04 #@! TD*
D27*
G04 #@! TO.C,C15*
X64820800Y-21378800D03*
X64820800Y-20243800D03*
G04 #@! TD*
D17*
G04 #@! TO.C,C41*
X27118500Y-22428200D03*
X28253500Y-22428200D03*
G04 #@! TD*
D26*
G04 #@! TO.C,C24*
X26780300Y-20269200D03*
X25645300Y-20269200D03*
G04 #@! TD*
D28*
G04 #@! TO.C,R14*
X19227800Y-21744300D03*
X19227800Y-23569300D03*
G04 #@! TD*
D27*
G04 #@! TO.C,C12*
X29286200Y-39708900D03*
X29286200Y-38573900D03*
G04 #@! TD*
D29*
G04 #@! TO.C,R9*
X19024600Y-38045400D03*
X19024600Y-36220400D03*
G04 #@! TD*
D26*
G04 #@! TO.C,C7*
X25865900Y-25019000D03*
X24730900Y-25019000D03*
G04 #@! TD*
D17*
G04 #@! TO.C,C38*
X27109800Y-28651200D03*
X28244800Y-28651200D03*
G04 #@! TD*
D25*
G04 #@! TO.C,D3*
X20994400Y-20066000D03*
X22744400Y-20066000D03*
G04 #@! TD*
D18*
G04 #@! TO.C,C22*
X47650400Y-19439000D03*
X47650400Y-20574000D03*
G04 #@! TD*
D16*
G04 #@! TO.C,U2*
X36476700Y-19217600D03*
X36476700Y-21117600D03*
X38351700Y-20167600D03*
G04 #@! TD*
D18*
G04 #@! TO.C,C39*
X34620200Y-20260500D03*
X34620200Y-21395500D03*
G04 #@! TD*
D29*
G04 #@! TO.C,R8*
X17373600Y-38047300D03*
X17373600Y-36222300D03*
G04 #@! TD*
G04 #@! TO.C,R13*
X32994600Y-40612700D03*
X32994600Y-38787700D03*
G04 #@! TD*
D27*
G04 #@! TO.C,C3*
X27965400Y-40801100D03*
X27965400Y-39666100D03*
G04 #@! TD*
D29*
G04 #@! TO.C,R11*
X25628600Y-29030300D03*
X25628600Y-27205300D03*
G04 #@! TD*
D18*
G04 #@! TO.C,C32*
X40868600Y-39615300D03*
X40868600Y-40750300D03*
G04 #@! TD*
D30*
G04 #@! TO.C,U4*
X51587400Y-19596100D03*
X51587400Y-20396200D03*
X51587400Y-21196300D03*
X51587400Y-21996400D03*
X51587400Y-22796500D03*
X51587400Y-23596600D03*
X51587400Y-24396700D03*
X51587400Y-25196800D03*
X51587400Y-25996900D03*
X51587400Y-26797000D03*
X51587400Y-27597100D03*
X51587400Y-28397200D03*
X51587400Y-29197300D03*
X51587400Y-29997400D03*
X51587400Y-30797500D03*
X51587400Y-31597600D03*
X51587400Y-32397700D03*
X51587400Y-33197800D03*
X51587400Y-33997900D03*
X51587400Y-34798000D03*
X51587400Y-35598100D03*
X51587400Y-36398200D03*
X51587400Y-37198300D03*
X51587400Y-37998400D03*
X51587400Y-38798500D03*
X51587400Y-39598600D03*
X51587400Y-40398700D03*
X63068200Y-40398700D03*
X63068200Y-39598600D03*
X63068200Y-38798500D03*
X63068200Y-37998400D03*
X63068200Y-37198300D03*
X63068200Y-36398200D03*
X63068200Y-35598100D03*
X63068200Y-34798000D03*
X63068200Y-33997900D03*
X63068200Y-33197800D03*
X63068200Y-32397700D03*
X63068200Y-31597600D03*
X63068200Y-30797500D03*
X63068200Y-29997400D03*
X63068200Y-29197300D03*
X63068200Y-28397200D03*
X63068200Y-27597100D03*
X63068200Y-26797000D03*
X63068200Y-25996900D03*
X63068200Y-25196800D03*
X63068200Y-24396700D03*
X63068200Y-23596600D03*
X63068200Y-22796500D03*
X63068200Y-21996400D03*
X63068200Y-21196300D03*
X63068200Y-20396200D03*
X63068200Y-19596100D03*
G04 #@! TD*
D17*
G04 #@! TO.C,C37*
X27135200Y-26212800D03*
X28270200Y-26212800D03*
G04 #@! TD*
D18*
G04 #@! TO.C,C29*
X64846200Y-26373200D03*
X64846200Y-27508200D03*
G04 #@! TD*
D17*
G04 #@! TO.C,C42*
X27117800Y-33502600D03*
X28252800Y-33502600D03*
G04 #@! TD*
D18*
G04 #@! TO.C,C10*
X41935400Y-39624000D03*
X41935400Y-40759000D03*
G04 #@! TD*
G04 #@! TO.C,C46*
X30607000Y-20260500D03*
X30607000Y-21395500D03*
G04 #@! TD*
D31*
G04 #@! TO.C,R18*
X19051900Y-40106600D03*
X20876900Y-40106600D03*
G04 #@! TD*
D28*
G04 #@! TO.C,R15*
X17424400Y-21744300D03*
X17424400Y-23569300D03*
G04 #@! TD*
D18*
G04 #@! TO.C,C31*
X64795400Y-32816800D03*
X64795400Y-33951800D03*
G04 #@! TD*
D27*
G04 #@! TO.C,C19*
X45440600Y-22843300D03*
X45440600Y-21708300D03*
G04 #@! TD*
D29*
G04 #@! TO.C,R12*
X20675600Y-38021900D03*
X20675600Y-36196900D03*
G04 #@! TD*
D18*
G04 #@! TO.C,C2*
X34899600Y-38599300D03*
X34899600Y-39734300D03*
G04 #@! TD*
D17*
G04 #@! TO.C,C13*
X43069700Y-40284400D03*
X44204700Y-40284400D03*
G04 #@! TD*
D31*
G04 #@! TO.C,R2*
X37797100Y-40538400D03*
X39622100Y-40538400D03*
G04 #@! TD*
D17*
G04 #@! TO.C,C9*
X27135200Y-32359600D03*
X28270200Y-32359600D03*
G04 #@! TD*
G04 #@! TO.C,C33*
X27118500Y-25028525D03*
X28253500Y-25028525D03*
G04 #@! TD*
D27*
G04 #@! TO.C,C14*
X17653000Y-40597900D03*
X17653000Y-39462900D03*
G04 #@! TD*
D28*
G04 #@! TO.C,R10*
X25603200Y-30759400D03*
X25603200Y-32584400D03*
G04 #@! TD*
D18*
G04 #@! TO.C,C47*
X31902400Y-20260500D03*
X31902400Y-21395500D03*
G04 #@! TD*
G04 #@! TO.C,C23*
X48793400Y-19422300D03*
X48793400Y-20557300D03*
G04 #@! TD*
G04 #@! TO.C,C1*
X36499800Y-38599300D03*
X36499800Y-39734300D03*
G04 #@! TD*
D32*
G04 #@! TO.C,Y1*
X23774400Y-37211000D03*
X27474400Y-37211000D03*
G04 #@! TD*
D27*
G04 #@! TO.C,C27*
X26720800Y-40826500D03*
X26720800Y-39691500D03*
G04 #@! TD*
D31*
G04 #@! TO.C,R1*
X23217500Y-40132000D03*
X25042500Y-40132000D03*
G04 #@! TD*
D26*
G04 #@! TO.C,C6*
X28228100Y-34772600D03*
X27093100Y-34772600D03*
G04 #@! TD*
D29*
G04 #@! TO.C,R5*
X24231600Y-23518500D03*
X24231600Y-21693500D03*
G04 #@! TD*
D17*
G04 #@! TO.C,C34*
X27135200Y-27432000D03*
X28270200Y-27432000D03*
G04 #@! TD*
D29*
G04 #@! TO.C,R17*
X22656800Y-23518500D03*
X22656800Y-21693500D03*
G04 #@! TD*
G04 #@! TO.C,R6*
X25806400Y-23518500D03*
X25806400Y-21693500D03*
G04 #@! TD*
D18*
G04 #@! TO.C,C20*
X64770000Y-35830700D03*
X64770000Y-36965700D03*
G04 #@! TD*
D17*
G04 #@! TO.C,C36*
X35043300Y-40817800D03*
X36178300Y-40817800D03*
G04 #@! TD*
D18*
G04 #@! TO.C,C4*
X64846200Y-29370400D03*
X64846200Y-30505400D03*
G04 #@! TD*
D17*
G04 #@! TO.C,C44*
X27080400Y-23758525D03*
X28215400Y-23758525D03*
G04 #@! TD*
D29*
G04 #@! TO.C,R16*
X20929600Y-23493100D03*
X20929600Y-21668100D03*
G04 #@! TD*
M02*
