G04 #@! TF.GenerationSoftware,KiCad,Pcbnew,(6.0.11-0)*
G04 #@! TF.CreationDate,2023-02-06T17:09:19+08:00*
G04 #@! TF.ProjectId,us3c,75733363-2e6b-4696-9361-645f70636258,rev?*
G04 #@! TF.SameCoordinates,Original*
G04 #@! TF.FileFunction,Legend,Top*
G04 #@! TF.FilePolarity,Positive*
%FSLAX46Y46*%
G04 Gerber Fmt 4.6, Leading zero omitted, Abs format (unit mm)*
G04 Created by KiCad (PCBNEW (6.0.11-0)) date 2023-02-06 17:09:19*
%MOMM*%
%LPD*%
G01*
G04 APERTURE LIST*
G04 Aperture macros list*
%AMRoundRect*
0 Rectangle with rounded corners*
0 $1 Rounding radius*
0 $2 $3 $4 $5 $6 $7 $8 $9 X,Y pos of 4 corners*
0 Add a 4 corners polygon primitive as box body*
4,1,4,$2,$3,$4,$5,$6,$7,$8,$9,$2,$3,0*
0 Add four circle primitives for the rounded corners*
1,1,$1+$1,$2,$3*
1,1,$1+$1,$4,$5*
1,1,$1+$1,$6,$7*
1,1,$1+$1,$8,$9*
0 Add four rect primitives between the rounded corners*
20,1,$1+$1,$2,$3,$4,$5,0*
20,1,$1+$1,$4,$5,$6,$7,0*
20,1,$1+$1,$6,$7,$8,$9,0*
20,1,$1+$1,$8,$9,$2,$3,0*%
G04 Aperture macros list end*
%ADD10C,0.150000*%
%ADD11C,0.228600*%
%ADD12C,0.200000*%
%ADD13C,0.120000*%
%ADD14C,0.100000*%
%ADD15RoundRect,0.237500X-0.287500X-0.237500X0.287500X-0.237500X0.287500X0.237500X-0.287500X0.237500X0*%
%ADD16RoundRect,0.150000X0.150000X-0.587500X0.150000X0.587500X-0.150000X0.587500X-0.150000X-0.587500X0*%
%ADD17RoundRect,0.237500X-0.237500X0.250000X-0.237500X-0.250000X0.237500X-0.250000X0.237500X0.250000X0*%
%ADD18RoundRect,0.155000X-0.212500X-0.155000X0.212500X-0.155000X0.212500X0.155000X-0.212500X0.155000X0*%
%ADD19RoundRect,0.155000X-0.155000X0.212500X-0.155000X-0.212500X0.155000X-0.212500X0.155000X0.212500X0*%
%ADD20C,0.410000*%
%ADD21C,0.650000*%
%ADD22R,2.000000X0.600000*%
%ADD23R,2.000000X0.300000*%
%ADD24R,1.450000X0.600000*%
%ADD25O,1.600000X1.000000*%
%ADD26O,2.100000X1.000000*%
%ADD27RoundRect,0.175260X-0.349250X-0.175260X0.349250X-0.175260X0.349250X0.175260X-0.349250X0.175260X0*%
%ADD28RoundRect,0.155000X0.212500X0.155000X-0.212500X0.155000X-0.212500X-0.155000X0.212500X-0.155000X0*%
%ADD29RoundRect,0.237500X0.237500X-0.250000X0.237500X0.250000X-0.237500X0.250000X-0.237500X-0.250000X0*%
%ADD30RoundRect,0.237500X-0.250000X-0.237500X0.250000X-0.237500X0.250000X0.237500X-0.250000X0.237500X0*%
%ADD31RoundRect,0.155000X0.155000X-0.212500X0.155000X0.212500X-0.155000X0.212500X-0.155000X-0.212500X0*%
%ADD32RoundRect,0.425000X0.425000X-0.425000X0.425000X0.425000X-0.425000X0.425000X-0.425000X-0.425000X0*%
%ADD33R,0.508000X1.193800*%
%ADD34R,0.254000X1.282700*%
%ADD35RoundRect,0.237500X0.250000X0.237500X-0.250000X0.237500X-0.250000X-0.237500X0.250000X-0.237500X0*%
%ADD36RoundRect,0.237500X0.287500X0.237500X-0.287500X0.237500X-0.287500X-0.237500X0.287500X-0.237500X0*%
%ADD37R,2.000000X2.400000*%
G04 APERTURE END LIST*
D10*
X45256754Y-38230945D02*
X45161094Y-38236687D01*
X45049748Y-38300973D01*
X44959831Y-38402374D01*
X44928457Y-38519462D01*
X44934199Y-38615121D01*
X44982798Y-38785011D01*
X45047083Y-38896357D01*
X45169913Y-39023390D01*
X45249885Y-39076192D01*
X45366973Y-39107566D01*
X45499748Y-39080396D01*
X45573979Y-39037538D01*
X45663896Y-38936137D01*
X45679583Y-38877593D01*
X45529583Y-38617786D01*
X45381122Y-38703500D01*
X46056479Y-38758967D02*
X45606479Y-37979544D01*
X46501863Y-38501824D01*
X46051863Y-37722401D01*
X46873017Y-38287538D02*
X46423017Y-37508116D01*
X46608594Y-37400973D01*
X46741368Y-37373802D01*
X46858456Y-37405176D01*
X46938429Y-37457978D01*
X47061259Y-37585011D01*
X47125544Y-37696357D01*
X47174143Y-37866247D01*
X47179885Y-37961907D01*
X47148511Y-38078994D01*
X47058594Y-38180396D01*
X46873017Y-38287538D01*
X30948085Y-34798000D02*
X31710085Y-34798000D01*
X30948085Y-35233428D01*
X31710085Y-35233428D01*
X31020657Y-36031714D02*
X30984371Y-35995428D01*
X30948085Y-35886571D01*
X30948085Y-35814000D01*
X30984371Y-35705142D01*
X31056942Y-35632571D01*
X31129514Y-35596285D01*
X31274657Y-35560000D01*
X31383514Y-35560000D01*
X31528657Y-35596285D01*
X31601228Y-35632571D01*
X31673800Y-35705142D01*
X31710085Y-35814000D01*
X31710085Y-35886571D01*
X31673800Y-35995428D01*
X31637514Y-36031714D01*
X31710085Y-36503428D02*
X31710085Y-36648571D01*
X31673800Y-36721142D01*
X31601228Y-36793714D01*
X31456085Y-36830000D01*
X31202085Y-36830000D01*
X31056942Y-36793714D01*
X30984371Y-36721142D01*
X30948085Y-36648571D01*
X30948085Y-36503428D01*
X30984371Y-36430857D01*
X31056942Y-36358285D01*
X31202085Y-36322000D01*
X31456085Y-36322000D01*
X31601228Y-36358285D01*
X31673800Y-36430857D01*
X31710085Y-36503428D01*
X30948085Y-37156571D02*
X31710085Y-37156571D01*
X30948085Y-37592000D01*
X31710085Y-37592000D01*
X66980829Y-38447373D02*
X67690637Y-39076796D01*
X67500444Y-38147373D01*
X68234345Y-38218526D02*
X68367120Y-38191356D01*
X68425664Y-38207043D01*
X68505636Y-38259845D01*
X68569922Y-38371191D01*
X68575664Y-38466851D01*
X68559977Y-38525394D01*
X68507175Y-38605367D01*
X68210252Y-38776796D01*
X67760252Y-37997373D01*
X68020059Y-37847373D01*
X68115719Y-37841631D01*
X68174263Y-37857318D01*
X68254235Y-37910120D01*
X68297092Y-37984351D01*
X68302834Y-38080010D01*
X68287147Y-38138554D01*
X68234345Y-38218526D01*
X67974538Y-38368526D01*
X68539675Y-37547373D02*
X68903960Y-38178334D01*
X68983933Y-38231136D01*
X69042477Y-38246823D01*
X69138136Y-38241081D01*
X69286598Y-38155367D01*
X69339400Y-38075394D01*
X69355087Y-38016851D01*
X69349345Y-37921191D01*
X68985059Y-37290230D01*
X69747669Y-37839680D02*
X69880444Y-37812510D01*
X70066021Y-37705367D01*
X70118823Y-37625394D01*
X70134510Y-37566851D01*
X70128768Y-37471191D01*
X70085911Y-37396960D01*
X70005938Y-37344158D01*
X69947394Y-37328471D01*
X69851735Y-37334213D01*
X69681845Y-37382812D01*
X69586185Y-37388554D01*
X69527642Y-37372867D01*
X69447669Y-37320065D01*
X69404812Y-37245834D01*
X69399070Y-37150175D01*
X69414757Y-37091631D01*
X69467559Y-37011658D01*
X69653136Y-36904516D01*
X69785911Y-36877345D01*
X23412514Y-19584142D02*
X22898228Y-19584142D01*
X23155371Y-19584142D02*
X23155371Y-18684142D01*
X23069657Y-18812714D01*
X22983942Y-18898428D01*
X22898228Y-18941285D01*
X23712514Y-18984142D02*
X23926800Y-19584142D01*
X24141085Y-18984142D01*
X24612514Y-19069857D02*
X24526800Y-19027000D01*
X24483942Y-18984142D01*
X24441085Y-18898428D01*
X24441085Y-18855571D01*
X24483942Y-18769857D01*
X24526800Y-18727000D01*
X24612514Y-18684142D01*
X24783942Y-18684142D01*
X24869657Y-18727000D01*
X24912514Y-18769857D01*
X24955371Y-18855571D01*
X24955371Y-18898428D01*
X24912514Y-18984142D01*
X24869657Y-19027000D01*
X24783942Y-19069857D01*
X24612514Y-19069857D01*
X24526800Y-19112714D01*
X24483942Y-19155571D01*
X24441085Y-19241285D01*
X24441085Y-19412714D01*
X24483942Y-19498428D01*
X24526800Y-19541285D01*
X24612514Y-19584142D01*
X24783942Y-19584142D01*
X24869657Y-19541285D01*
X24912514Y-19498428D01*
X24955371Y-19412714D01*
X24955371Y-19241285D01*
X24912514Y-19155571D01*
X24869657Y-19112714D01*
X24783942Y-19069857D01*
X63410586Y-38811338D02*
X62965202Y-39068481D01*
X63187894Y-38939910D02*
X62737894Y-38160487D01*
X62727949Y-38314690D01*
X62696576Y-38431778D01*
X62643773Y-38511751D01*
X63370394Y-38141723D02*
X63855971Y-38554196D01*
X63741548Y-37927437D01*
X64192674Y-37765954D02*
X64097015Y-37771696D01*
X64038471Y-37756009D01*
X63958498Y-37703207D01*
X63937070Y-37666091D01*
X63931328Y-37570432D01*
X63947015Y-37511888D01*
X63999817Y-37431916D01*
X64148278Y-37346201D01*
X64243938Y-37340459D01*
X64302482Y-37356146D01*
X64382454Y-37408948D01*
X64403883Y-37446064D01*
X64409625Y-37541723D01*
X64393938Y-37600267D01*
X64341136Y-37680240D01*
X64192674Y-37765954D01*
X64139872Y-37845926D01*
X64124185Y-37904470D01*
X64129927Y-38000130D01*
X64215641Y-38148591D01*
X64295614Y-38201393D01*
X64354158Y-38217080D01*
X64449817Y-38211338D01*
X64598278Y-38125624D01*
X64651081Y-38045652D01*
X64666767Y-37987108D01*
X64661026Y-37891448D01*
X64575311Y-37742987D01*
X64495339Y-37690185D01*
X64436795Y-37674498D01*
X64341136Y-37680240D01*
D11*
X47649656Y-33986028D02*
X47649656Y-34852695D01*
X47092513Y-33986028D02*
X47092513Y-34666980D01*
X47154418Y-34790790D01*
X47278228Y-34852695D01*
X47463942Y-34852695D01*
X47587751Y-34790790D01*
X47649656Y-34728885D01*
X48206799Y-34790790D02*
X48330609Y-34852695D01*
X48578228Y-34852695D01*
X48702037Y-34790790D01*
X48763942Y-34666980D01*
X48763942Y-34605076D01*
X48702037Y-34481266D01*
X48578228Y-34419361D01*
X48392513Y-34419361D01*
X48268704Y-34357457D01*
X48206799Y-34233647D01*
X48206799Y-34171742D01*
X48268704Y-34047933D01*
X48392513Y-33986028D01*
X48578228Y-33986028D01*
X48702037Y-34047933D01*
X49197275Y-33552695D02*
X50002037Y-33552695D01*
X49568704Y-34047933D01*
X49754418Y-34047933D01*
X49878228Y-34109838D01*
X49940132Y-34171742D01*
X50002037Y-34295552D01*
X50002037Y-34605076D01*
X49940132Y-34728885D01*
X49878228Y-34790790D01*
X49754418Y-34852695D01*
X49382990Y-34852695D01*
X49259180Y-34790790D01*
X49197275Y-34728885D01*
X51116323Y-34790790D02*
X50992513Y-34852695D01*
X50744894Y-34852695D01*
X50621085Y-34790790D01*
X50559180Y-34728885D01*
X50497275Y-34605076D01*
X50497275Y-34233647D01*
X50559180Y-34109838D01*
X50621085Y-34047933D01*
X50744894Y-33986028D01*
X50992513Y-33986028D01*
X51116323Y-34047933D01*
X53221085Y-33986028D02*
X53221085Y-34852695D01*
X52663942Y-33986028D02*
X52663942Y-34666980D01*
X52725847Y-34790790D01*
X52849656Y-34852695D01*
X53035370Y-34852695D01*
X53159180Y-34790790D01*
X53221085Y-34728885D01*
X54025847Y-34852695D02*
X53902037Y-34790790D01*
X53840132Y-34666980D01*
X53840132Y-33552695D01*
X54335370Y-33986028D02*
X54830609Y-33986028D01*
X54521085Y-33552695D02*
X54521085Y-34666980D01*
X54582990Y-34790790D01*
X54706799Y-34852695D01*
X54830609Y-34852695D01*
X55263942Y-34852695D02*
X55263942Y-33986028D01*
X55263942Y-34233647D02*
X55325847Y-34109838D01*
X55387751Y-34047933D01*
X55511561Y-33986028D01*
X55635370Y-33986028D01*
X56625847Y-34852695D02*
X56625847Y-34171742D01*
X56563942Y-34047933D01*
X56440132Y-33986028D01*
X56192513Y-33986028D01*
X56068704Y-34047933D01*
X56625847Y-34790790D02*
X56502037Y-34852695D01*
X56192513Y-34852695D01*
X56068704Y-34790790D01*
X56006799Y-34666980D01*
X56006799Y-34543171D01*
X56068704Y-34419361D01*
X56192513Y-34357457D01*
X56502037Y-34357457D01*
X56625847Y-34295552D01*
X58916323Y-34852695D02*
X58173466Y-34852695D01*
X58544894Y-34852695D02*
X58544894Y-33552695D01*
X58421085Y-33738409D01*
X58297275Y-33862219D01*
X58173466Y-33924123D01*
X59473466Y-34728885D02*
X59535370Y-34790790D01*
X59473466Y-34852695D01*
X59411561Y-34790790D01*
X59473466Y-34728885D01*
X59473466Y-34852695D01*
X60340132Y-33552695D02*
X60463942Y-33552695D01*
X60587751Y-33614600D01*
X60649656Y-33676504D01*
X60711561Y-33800314D01*
X60773466Y-34047933D01*
X60773466Y-34357457D01*
X60711561Y-34605076D01*
X60649656Y-34728885D01*
X60587751Y-34790790D01*
X60463942Y-34852695D01*
X60340132Y-34852695D01*
X60216323Y-34790790D01*
X60154418Y-34728885D01*
X60092513Y-34605076D01*
X60030609Y-34357457D01*
X60030609Y-34047933D01*
X60092513Y-33800314D01*
X60154418Y-33676504D01*
X60216323Y-33614600D01*
X60340132Y-33552695D01*
D10*
X22114933Y-38248166D02*
X22453600Y-38248166D01*
X22047200Y-38458623D02*
X22284266Y-37722023D01*
X22521333Y-38458623D01*
X23164800Y-38388471D02*
X23130933Y-38423547D01*
X23029333Y-38458623D01*
X22961600Y-38458623D01*
X22860000Y-38423547D01*
X22792266Y-38353395D01*
X22758400Y-38283242D01*
X22724533Y-38142938D01*
X22724533Y-38037709D01*
X22758400Y-37897404D01*
X22792266Y-37827252D01*
X22860000Y-37757100D01*
X22961600Y-37722023D01*
X23029333Y-37722023D01*
X23130933Y-37757100D01*
X23164800Y-37792176D01*
X23368000Y-37722023D02*
X23774400Y-37722023D01*
X23571200Y-38458623D02*
X23571200Y-37722023D01*
X55344930Y-38645526D02*
X55604738Y-38495526D01*
X55951798Y-38839510D02*
X55580644Y-39053796D01*
X55130644Y-38274373D01*
X55501798Y-38060087D01*
X56694105Y-38410938D02*
X56248721Y-38668081D01*
X56471413Y-38539510D02*
X56021413Y-37760087D01*
X56011468Y-37914290D01*
X55980095Y-38031378D01*
X55927292Y-38111351D01*
X56583886Y-37534318D02*
X56599572Y-37475774D01*
X56652375Y-37395801D01*
X56837951Y-37288658D01*
X56933611Y-37282917D01*
X56992155Y-37298603D01*
X57072127Y-37351406D01*
X57114984Y-37425636D01*
X57142155Y-37558411D01*
X56953913Y-38260938D01*
X57436413Y-37982367D01*
X31648400Y-38350371D02*
X31757257Y-38386657D01*
X31793542Y-38422942D01*
X31829828Y-38495514D01*
X31829828Y-38604371D01*
X31793542Y-38676942D01*
X31757257Y-38713228D01*
X31684685Y-38749514D01*
X31394400Y-38749514D01*
X31394400Y-37987514D01*
X31648400Y-37987514D01*
X31720971Y-38023800D01*
X31757257Y-38060085D01*
X31793542Y-38132657D01*
X31793542Y-38205228D01*
X31757257Y-38277800D01*
X31720971Y-38314085D01*
X31648400Y-38350371D01*
X31394400Y-38350371D01*
X32047542Y-37987514D02*
X32482971Y-37987514D01*
X32265257Y-38749514D02*
X32265257Y-37987514D01*
X32736971Y-38749514D02*
X32736971Y-37987514D01*
X33172400Y-38749514D01*
X33172400Y-37987514D01*
X60323330Y-38645526D02*
X60583138Y-38495526D01*
X60930198Y-38839510D02*
X60559044Y-39053796D01*
X60109044Y-38274373D01*
X60480198Y-38060087D01*
X61672505Y-38410938D02*
X61227121Y-38668081D01*
X61449813Y-38539510D02*
X60999813Y-37760087D01*
X60989868Y-37914290D01*
X60958495Y-38031378D01*
X60905692Y-38111351D01*
X61482313Y-37481516D02*
X61964813Y-37202944D01*
X61876434Y-37649867D01*
X61987780Y-37585581D01*
X62083439Y-37579840D01*
X62141983Y-37595526D01*
X62221956Y-37648329D01*
X62329099Y-37833905D01*
X62334840Y-37929565D01*
X62319154Y-37988109D01*
X62266351Y-38068081D01*
X62043659Y-38196653D01*
X61948000Y-38202394D01*
X61889456Y-38186708D01*
X64789487Y-38335887D02*
X65271986Y-38057316D01*
X65183607Y-38504239D01*
X65294954Y-38439953D01*
X65390613Y-38434211D01*
X65449157Y-38449898D01*
X65529129Y-38502700D01*
X65636272Y-38688277D01*
X65642014Y-38783936D01*
X65626327Y-38842480D01*
X65573525Y-38922453D01*
X65350833Y-39051024D01*
X65255173Y-39056766D01*
X65196629Y-39041079D01*
X65681794Y-38167123D02*
X66167371Y-38579596D01*
X66052948Y-37952837D01*
X66125640Y-37564458D02*
X66608140Y-37285887D01*
X66519761Y-37732810D01*
X66631107Y-37668524D01*
X66726766Y-37662782D01*
X66785310Y-37678469D01*
X66865283Y-37731271D01*
X66972426Y-37916848D01*
X66978167Y-38012508D01*
X66962481Y-38071052D01*
X66909678Y-38151024D01*
X66686986Y-38279596D01*
X66591327Y-38285337D01*
X66532783Y-38269651D01*
X50468627Y-38198802D02*
X50372967Y-38204544D01*
X50261621Y-38268830D01*
X50171704Y-38370231D01*
X50140330Y-38487319D01*
X50146072Y-38582978D01*
X50194671Y-38752868D01*
X50258956Y-38864214D01*
X50381786Y-38991247D01*
X50461759Y-39044049D01*
X50578846Y-39075423D01*
X50711621Y-39048253D01*
X50785852Y-39005396D01*
X50875769Y-38903994D01*
X50891456Y-38845451D01*
X50741456Y-38585643D01*
X50592995Y-38671357D01*
X51676621Y-38491110D02*
X51231236Y-38748253D01*
X51453929Y-38619681D02*
X51003929Y-37840258D01*
X50993984Y-37994462D01*
X50962610Y-38111550D01*
X50909808Y-38191522D01*
X51486428Y-37561687D02*
X51968928Y-37283116D01*
X51880549Y-37730039D01*
X51991895Y-37665753D01*
X52087555Y-37660011D01*
X52146099Y-37675698D01*
X52226071Y-37728500D01*
X52333214Y-37914077D01*
X52338956Y-38009736D01*
X52323269Y-38068280D01*
X52270467Y-38148253D01*
X52047775Y-38276824D01*
X51952115Y-38282566D01*
X51893571Y-38266879D01*
X22148800Y-40098133D02*
X22555200Y-40098133D01*
X22352000Y-40809333D02*
X22352000Y-40098133D01*
X22758400Y-40775466D02*
X22860000Y-40809333D01*
X23029333Y-40809333D01*
X23097066Y-40775466D01*
X23130933Y-40741600D01*
X23164800Y-40673866D01*
X23164800Y-40606133D01*
X23130933Y-40538400D01*
X23097066Y-40504533D01*
X23029333Y-40470666D01*
X22893866Y-40436800D01*
X22826133Y-40402933D01*
X22792266Y-40369066D01*
X22758400Y-40301333D01*
X22758400Y-40233600D01*
X22792266Y-40165866D01*
X22826133Y-40132000D01*
X22893866Y-40098133D01*
X23063200Y-40098133D01*
X23164800Y-40132000D01*
X23368000Y-40098133D02*
X23774400Y-40098133D01*
X23571200Y-40809333D02*
X23571200Y-40098133D01*
D12*
X82625495Y-36044447D02*
X83554066Y-36044447D01*
X83739780Y-36106352D01*
X83863590Y-36230161D01*
X83925495Y-36415876D01*
X83925495Y-36539685D01*
X83925495Y-34806352D02*
X83925495Y-35425400D01*
X82625495Y-35425400D01*
X83801685Y-33630161D02*
X83863590Y-33692066D01*
X83925495Y-33877780D01*
X83925495Y-34001590D01*
X83863590Y-34187304D01*
X83739780Y-34311114D01*
X83615971Y-34373019D01*
X83368352Y-34434923D01*
X83182638Y-34434923D01*
X82935019Y-34373019D01*
X82811209Y-34311114D01*
X82687400Y-34187304D01*
X82625495Y-34001590D01*
X82625495Y-33877780D01*
X82687400Y-33692066D01*
X82749304Y-33630161D01*
X82625495Y-32701590D02*
X83554066Y-32701590D01*
X83739780Y-32763495D01*
X83863590Y-32887304D01*
X83925495Y-33073019D01*
X83925495Y-33196828D01*
X83925495Y-31463495D02*
X83925495Y-32082542D01*
X82625495Y-32082542D01*
X83801685Y-30287304D02*
X83863590Y-30349209D01*
X83925495Y-30534923D01*
X83925495Y-30658733D01*
X83863590Y-30844447D01*
X83739780Y-30968257D01*
X83615971Y-31030161D01*
X83368352Y-31092066D01*
X83182638Y-31092066D01*
X82935019Y-31030161D01*
X82811209Y-30968257D01*
X82687400Y-30844447D01*
X82625495Y-30658733D01*
X82625495Y-30534923D01*
X82687400Y-30349209D01*
X82749304Y-30287304D01*
X82625495Y-29358733D02*
X83554066Y-29358733D01*
X83739780Y-29420638D01*
X83863590Y-29544447D01*
X83925495Y-29730161D01*
X83925495Y-29853971D01*
X83925495Y-28120638D02*
X83925495Y-28739685D01*
X82625495Y-28739685D01*
X83801685Y-26944447D02*
X83863590Y-27006352D01*
X83925495Y-27192066D01*
X83925495Y-27315876D01*
X83863590Y-27501590D01*
X83739780Y-27625400D01*
X83615971Y-27687304D01*
X83368352Y-27749209D01*
X83182638Y-27749209D01*
X82935019Y-27687304D01*
X82811209Y-27625400D01*
X82687400Y-27501590D01*
X82625495Y-27315876D01*
X82625495Y-27192066D01*
X82687400Y-27006352D01*
X82749304Y-26944447D01*
X82625495Y-26015876D02*
X83554066Y-26015876D01*
X83739780Y-26077780D01*
X83863590Y-26201590D01*
X83925495Y-26387304D01*
X83925495Y-26511114D01*
X83925495Y-24777780D02*
X83925495Y-25396828D01*
X82625495Y-25396828D01*
X83801685Y-23601590D02*
X83863590Y-23663495D01*
X83925495Y-23849209D01*
X83925495Y-23973019D01*
X83863590Y-24158733D01*
X83739780Y-24282542D01*
X83615971Y-24344447D01*
X83368352Y-24406352D01*
X83182638Y-24406352D01*
X82935019Y-24344447D01*
X82811209Y-24282542D01*
X82687400Y-24158733D01*
X82625495Y-23973019D01*
X82625495Y-23849209D01*
X82687400Y-23663495D01*
X82749304Y-23601590D01*
D10*
X48004827Y-38198802D02*
X47909167Y-38204544D01*
X47797821Y-38268830D01*
X47707904Y-38370231D01*
X47676530Y-38487319D01*
X47682272Y-38582978D01*
X47730871Y-38752868D01*
X47795156Y-38864214D01*
X47917986Y-38991247D01*
X47997959Y-39044049D01*
X48115046Y-39075423D01*
X48247821Y-39048253D01*
X48322052Y-39005396D01*
X48411969Y-38903994D01*
X48427656Y-38845451D01*
X48277656Y-38585643D01*
X48129195Y-38671357D01*
X49212821Y-38491110D02*
X48767436Y-38748253D01*
X48990129Y-38619681D02*
X48540129Y-37840258D01*
X48530184Y-37994462D01*
X48498810Y-38111550D01*
X48446008Y-38191522D01*
X49102601Y-37614489D02*
X49118288Y-37555945D01*
X49171090Y-37475973D01*
X49356667Y-37368830D01*
X49452326Y-37363088D01*
X49510870Y-37378775D01*
X49590843Y-37431577D01*
X49633700Y-37505808D01*
X49660870Y-37638582D01*
X49472628Y-38341110D01*
X49955128Y-38062538D01*
X57808730Y-38696326D02*
X58068538Y-38546326D01*
X58415598Y-38890310D02*
X58044444Y-39104596D01*
X57594444Y-38325173D01*
X57965598Y-38110887D01*
X59157905Y-38461738D02*
X58712521Y-38718881D01*
X58935213Y-38590310D02*
X58485213Y-37810887D01*
X58475268Y-37965090D01*
X58443895Y-38082178D01*
X58391092Y-38162151D01*
X59900213Y-38033167D02*
X59454828Y-38290310D01*
X59677521Y-38161738D02*
X59227521Y-37382316D01*
X59217576Y-37536519D01*
X59186202Y-37653607D01*
X59133400Y-37733579D01*
X28654229Y-20581929D02*
X29193045Y-20043113D01*
X29398308Y-20248376D01*
X29423965Y-20325350D01*
X29423965Y-20376666D01*
X29398308Y-20453639D01*
X29321334Y-20530613D01*
X29244360Y-20556271D01*
X29193045Y-20556271D01*
X29116071Y-20530613D01*
X28910808Y-20325350D01*
X29680544Y-20530613D02*
X29270018Y-21197718D01*
X29757518Y-20915481D01*
X29475281Y-21402981D01*
X30142386Y-20992455D01*
X30116728Y-22044428D02*
X30193702Y-21608244D01*
X29808834Y-21736533D02*
X30347649Y-21197718D01*
X30552912Y-21402981D01*
X30578570Y-21479954D01*
X30578570Y-21531270D01*
X30552912Y-21608244D01*
X30475938Y-21685217D01*
X30398965Y-21710875D01*
X30347649Y-21710875D01*
X30270675Y-21685217D01*
X30065412Y-21479954D01*
X22047200Y-35737800D02*
X22284266Y-35737800D01*
X22385866Y-36110333D02*
X22047200Y-36110333D01*
X22047200Y-35399133D01*
X22385866Y-35399133D01*
X23097066Y-36110333D02*
X22860000Y-35771666D01*
X22690666Y-36110333D02*
X22690666Y-35399133D01*
X22961600Y-35399133D01*
X23029333Y-35433000D01*
X23063200Y-35466866D01*
X23097066Y-35534600D01*
X23097066Y-35636200D01*
X23063200Y-35703933D01*
X23029333Y-35737800D01*
X22961600Y-35771666D01*
X22690666Y-35771666D01*
X23808266Y-36110333D02*
X23571200Y-35771666D01*
X23401866Y-36110333D02*
X23401866Y-35399133D01*
X23672800Y-35399133D01*
X23740533Y-35433000D01*
X23774400Y-35466866D01*
X23808266Y-35534600D01*
X23808266Y-35636200D01*
X23774400Y-35703933D01*
X23740533Y-35737800D01*
X23672800Y-35771666D01*
X23401866Y-35771666D01*
X52881627Y-38173402D02*
X52785967Y-38179144D01*
X52674621Y-38243430D01*
X52584704Y-38344831D01*
X52553330Y-38461919D01*
X52559072Y-38557578D01*
X52607671Y-38727468D01*
X52671956Y-38838814D01*
X52794786Y-38965847D01*
X52874759Y-39018649D01*
X52991846Y-39050023D01*
X53124621Y-39022853D01*
X53198852Y-38979996D01*
X53288769Y-38878594D01*
X53304456Y-38820051D01*
X53154456Y-38560243D01*
X53005995Y-38645957D01*
X54089621Y-38465710D02*
X53644236Y-38722853D01*
X53866929Y-38594281D02*
X53416929Y-37814858D01*
X53406984Y-37969062D01*
X53375610Y-38086150D01*
X53322808Y-38166122D01*
X54457698Y-37560380D02*
X54757698Y-38079996D01*
X54100692Y-37370600D02*
X54236544Y-38034474D01*
X54719044Y-37755902D01*
X18384971Y-18734942D02*
X18942114Y-18734942D01*
X18642114Y-19077800D01*
X18770685Y-19077800D01*
X18856400Y-19120657D01*
X18899257Y-19163514D01*
X18942114Y-19249228D01*
X18942114Y-19463514D01*
X18899257Y-19549228D01*
X18856400Y-19592085D01*
X18770685Y-19634942D01*
X18513542Y-19634942D01*
X18427828Y-19592085D01*
X18384971Y-19549228D01*
X19242114Y-19034942D02*
X19456400Y-19634942D01*
X19670685Y-19034942D01*
X19927828Y-18734942D02*
X20484971Y-18734942D01*
X20184971Y-19077800D01*
X20313542Y-19077800D01*
X20399257Y-19120657D01*
X20442114Y-19163514D01*
X20484971Y-19249228D01*
X20484971Y-19463514D01*
X20442114Y-19549228D01*
X20399257Y-19592085D01*
X20313542Y-19634942D01*
X20056400Y-19634942D01*
X19970685Y-19592085D01*
X19927828Y-19549228D01*
G04 #@! TO.C,U4*
X48207680Y-32029400D02*
X48445776Y-32029400D01*
X48350538Y-32267495D02*
X48445776Y-32029400D01*
X48350538Y-31791304D01*
X48636252Y-32172257D02*
X48445776Y-32029400D01*
X48636252Y-31886542D01*
X48207680Y-32029400D02*
X48445776Y-32029400D01*
X48350538Y-32267495D02*
X48445776Y-32029400D01*
X48350538Y-31791304D01*
X48636252Y-32172257D02*
X48445776Y-32029400D01*
X48636252Y-31886542D01*
G04 #@! TO.C,U5*
X71019980Y-40570150D02*
X71258076Y-40570150D01*
X71162838Y-40808245D02*
X71258076Y-40570150D01*
X71162838Y-40332054D01*
X71448552Y-40713007D02*
X71258076Y-40570150D01*
X71448552Y-40427292D01*
X71019980Y-40570150D02*
X71258076Y-40570150D01*
X71162838Y-40808245D02*
X71258076Y-40570150D01*
X71162838Y-40332054D01*
X71448552Y-40713007D02*
X71258076Y-40570150D01*
X71448552Y-40427292D01*
D13*
G04 #@! TO.C,D4*
X20209400Y-38558800D02*
X20209400Y-40028800D01*
X22669400Y-38558800D02*
X20209400Y-38558800D01*
X20209400Y-40028800D02*
X22669400Y-40028800D01*
G04 #@! TO.C,U3*
X18175800Y-22809200D02*
X18175800Y-22159200D01*
X18175800Y-22809200D02*
X18175800Y-24484200D01*
X21295800Y-22809200D02*
X21295800Y-23459200D01*
X21295800Y-22809200D02*
X21295800Y-22159200D01*
G04 #@! TO.C,R21*
X25436300Y-40383376D02*
X25436300Y-40892824D01*
X26481300Y-40383376D02*
X26481300Y-40892824D01*
G04 #@! TO.C,C45*
X29669665Y-34243600D02*
X29901335Y-34243600D01*
X29669665Y-33523600D02*
X29901335Y-33523600D01*
G04 #@! TO.C,C21*
X30983600Y-21270965D02*
X30983600Y-21502635D01*
X31703600Y-21270965D02*
X31703600Y-21502635D01*
G04 #@! TO.C,C40*
X35225400Y-21270965D02*
X35225400Y-21502635D01*
X35945400Y-21270965D02*
X35945400Y-21502635D01*
G04 #@! TO.C,C35*
X24115765Y-20603800D02*
X24347435Y-20603800D01*
X24115765Y-19883800D02*
X24347435Y-19883800D01*
G04 #@! TO.C,C43*
X29669665Y-32406000D02*
X29901335Y-32406000D01*
X29669665Y-33126000D02*
X29901335Y-33126000D01*
D12*
G04 #@! TO.C,IC1*
X45287400Y-23481201D02*
X45887400Y-24081201D01*
X31887400Y-23481201D02*
X45287400Y-23481201D01*
X45887400Y-24081201D02*
X45887400Y-37481201D01*
X45887400Y-37481201D02*
X31887400Y-37481201D01*
X31887400Y-37481201D02*
X31887400Y-23481201D01*
X45987400Y-23481201D02*
G75*
G03*
X45987400Y-23481201I-100000J0D01*
G01*
D13*
G04 #@! TO.C,J1*
X17859900Y-35027600D02*
X15959900Y-35027600D01*
X21759900Y-25627600D02*
X19759900Y-25627600D01*
X15959900Y-25627600D02*
X15959900Y-35027600D01*
X21759900Y-35027600D02*
X19759900Y-35027600D01*
X17859900Y-25627600D02*
X15959900Y-25627600D01*
G04 #@! TO.C,U7*
X31826200Y-40055800D02*
X31826200Y-41275000D01*
X29065330Y-39725600D02*
X30218269Y-39725600D01*
X27432000Y-40055800D02*
X27432000Y-41275000D01*
X28067000Y-42138600D02*
X31191200Y-42138600D01*
X28067000Y-39166800D02*
X31191200Y-39166800D01*
X29022261Y-41605200D02*
X30175200Y-41605200D01*
X30175200Y-41605200D02*
G75*
G03*
X30200600Y-39725600I22320J939670D01*
G01*
X29054572Y-39725600D02*
G75*
G03*
X29029172Y-41605200I-22321J-939670D01*
G01*
G04 #@! TO.C,D2*
X20184000Y-42264000D02*
X22644000Y-42264000D01*
X22644000Y-40794000D02*
X20184000Y-40794000D01*
X20184000Y-40794000D02*
X20184000Y-42264000D01*
G04 #@! TO.C,C18*
X48059265Y-21111800D02*
X48290935Y-21111800D01*
X48059265Y-20391800D02*
X48290935Y-20391800D01*
G04 #@! TO.C,C28*
X41330200Y-21270965D02*
X41330200Y-21502635D01*
X40610200Y-21270965D02*
X40610200Y-21502635D01*
G04 #@! TO.C,C26*
X29678365Y-28681000D02*
X29910035Y-28681000D01*
X29678365Y-27961000D02*
X29910035Y-27961000D01*
G04 #@! TO.C,C30*
X37359000Y-21270965D02*
X37359000Y-21502635D01*
X38079000Y-21270965D02*
X38079000Y-21502635D01*
G04 #@! TO.C,C8*
X21807435Y-18766200D02*
X21575765Y-18766200D01*
X21807435Y-19486200D02*
X21575765Y-19486200D01*
G04 #@! TO.C,C25*
X73544165Y-19511600D02*
X73775835Y-19511600D01*
X73544165Y-18791600D02*
X73775835Y-18791600D01*
G04 #@! TO.C,R3*
X19902700Y-37567324D02*
X19902700Y-37057876D01*
X18857700Y-37567324D02*
X18857700Y-37057876D01*
G04 #@! TO.C,C15*
X79690965Y-18766200D02*
X79922635Y-18766200D01*
X79690965Y-19486200D02*
X79922635Y-19486200D01*
G04 #@! TO.C,C41*
X29678365Y-23296200D02*
X29910035Y-23296200D01*
X29678365Y-22576200D02*
X29910035Y-22576200D01*
G04 #@! TO.C,C24*
X62498235Y-35809600D02*
X62266565Y-35809600D01*
X62498235Y-36529600D02*
X62266565Y-36529600D01*
G04 #@! TO.C,R14*
X30403076Y-19877300D02*
X30912524Y-19877300D01*
X30403076Y-18832300D02*
X30912524Y-18832300D01*
G04 #@! TO.C,C12*
X41245200Y-41314635D02*
X41245200Y-41082965D01*
X41965200Y-41314635D02*
X41965200Y-41082965D01*
G04 #@! TO.C,R9*
X27290500Y-21563876D02*
X27290500Y-22073324D01*
X28335500Y-21563876D02*
X28335500Y-22073324D01*
G04 #@! TO.C,C7*
X21575765Y-19883800D02*
X21807435Y-19883800D01*
X21575765Y-20603800D02*
X21807435Y-20603800D01*
G04 #@! TO.C,C38*
X44581400Y-21270965D02*
X44581400Y-21502635D01*
X43861400Y-21270965D02*
X43861400Y-21502635D01*
G04 #@! TO.C,D3*
X22669400Y-36171200D02*
X20209400Y-36171200D01*
X20209400Y-36171200D02*
X20209400Y-37641200D01*
X20209400Y-37641200D02*
X22669400Y-37641200D01*
G04 #@! TO.C,C22*
X42397000Y-21270965D02*
X42397000Y-21502635D01*
X41677000Y-21270965D02*
X41677000Y-21502635D01*
G04 #@! TO.C,U2*
X25182000Y-22783800D02*
X25182000Y-23433800D01*
X22062000Y-22783800D02*
X22062000Y-22133800D01*
X22062000Y-22783800D02*
X22062000Y-24458800D01*
X25182000Y-22783800D02*
X25182000Y-22133800D01*
G04 #@! TO.C,C39*
X36292200Y-21270965D02*
X36292200Y-21502635D01*
X37012200Y-21270965D02*
X37012200Y-21502635D01*
G04 #@! TO.C,R8*
X28360900Y-25018276D02*
X28360900Y-25527724D01*
X27315900Y-25018276D02*
X27315900Y-25527724D01*
G04 #@! TO.C,R13*
X19902700Y-40869324D02*
X19902700Y-40359876D01*
X18857700Y-40869324D02*
X18857700Y-40359876D01*
G04 #@! TO.C,C3*
X64571200Y-33948635D02*
X64571200Y-33716965D01*
X63851200Y-33948635D02*
X63851200Y-33716965D01*
G04 #@! TO.C,J3*
X46817200Y-39411600D02*
X69737200Y-39411600D01*
X46817200Y-42071600D02*
X69737200Y-42071600D01*
X46817200Y-42071600D02*
X46817200Y-39411600D01*
X69737200Y-42071600D02*
X69737200Y-39411600D01*
X44217200Y-42071600D02*
X44217200Y-40741600D01*
X45547200Y-42071600D02*
X44217200Y-42071600D01*
G04 #@! TO.C,R11*
X27548100Y-29161824D02*
X27548100Y-28652376D01*
X26503100Y-29161824D02*
X26503100Y-28652376D01*
G04 #@! TO.C,C32*
X68355800Y-33948635D02*
X68355800Y-33716965D01*
X67635800Y-33948635D02*
X67635800Y-33716965D01*
G04 #@! TO.C,U4*
X72110600Y-31305500D02*
X72110600Y-20764500D01*
X49504600Y-20764500D02*
X49504600Y-31305500D01*
X49504600Y-31305500D02*
X49819560Y-31305500D01*
X49819560Y-20764500D02*
X49504600Y-20764500D01*
X72110600Y-20764500D02*
X71795640Y-20764500D01*
X71795640Y-31305500D02*
X72110600Y-31305500D01*
G36*
X65798700Y-32880300D02*
G01*
X65417700Y-32880300D01*
X65417700Y-32626300D01*
X65798700Y-32626300D01*
X65798700Y-32880300D01*
G37*
D14*
X65798700Y-32880300D02*
X65417700Y-32880300D01*
X65417700Y-32626300D01*
X65798700Y-32626300D01*
X65798700Y-32880300D01*
G36*
X61798200Y-19443700D02*
G01*
X61417200Y-19443700D01*
X61417200Y-19189700D01*
X61798200Y-19189700D01*
X61798200Y-19443700D01*
G37*
X61798200Y-19443700D02*
X61417200Y-19443700D01*
X61417200Y-19189700D01*
X61798200Y-19189700D01*
X61798200Y-19443700D01*
G36*
X69799200Y-19443700D02*
G01*
X69418200Y-19443700D01*
X69418200Y-19189700D01*
X69799200Y-19189700D01*
X69799200Y-19443700D01*
G37*
X69799200Y-19443700D02*
X69418200Y-19443700D01*
X69418200Y-19189700D01*
X69799200Y-19189700D01*
X69799200Y-19443700D01*
G36*
X57797700Y-32880300D02*
G01*
X57416700Y-32880300D01*
X57416700Y-32626300D01*
X57797700Y-32626300D01*
X57797700Y-32880300D01*
G37*
X57797700Y-32880300D02*
X57416700Y-32880300D01*
X57416700Y-32626300D01*
X57797700Y-32626300D01*
X57797700Y-32880300D01*
G36*
X53797200Y-19443700D02*
G01*
X53416200Y-19443700D01*
X53416200Y-19189700D01*
X53797200Y-19189700D01*
X53797200Y-19443700D01*
G37*
X53797200Y-19443700D02*
X53416200Y-19443700D01*
X53416200Y-19189700D01*
X53797200Y-19189700D01*
X53797200Y-19443700D01*
D13*
G04 #@! TO.C,C37*
X40263400Y-21270965D02*
X40263400Y-21502635D01*
X39543400Y-21270965D02*
X39543400Y-21502635D01*
G04 #@! TO.C,C29*
X76900035Y-18791600D02*
X76668365Y-18791600D01*
X76900035Y-19511600D02*
X76668365Y-19511600D01*
G04 #@! TO.C,U5*
X84836000Y-39449001D02*
X84836000Y-21510996D01*
X72593200Y-21510999D02*
X72593200Y-39449004D01*
G36*
X77655100Y-41465500D02*
G01*
X77274100Y-41465500D01*
X77274100Y-41211500D01*
X77655100Y-41211500D01*
X77655100Y-41465500D01*
G37*
D14*
X77655100Y-41465500D02*
X77274100Y-41465500D01*
X77274100Y-41211500D01*
X77655100Y-41211500D01*
X77655100Y-41465500D01*
G36*
X77155098Y-19748500D02*
G01*
X76774098Y-19748500D01*
X76774098Y-19494500D01*
X77155098Y-19494500D01*
X77155098Y-19748500D01*
G37*
X77155098Y-19748500D02*
X76774098Y-19748500D01*
X76774098Y-19494500D01*
X77155098Y-19494500D01*
X77155098Y-19748500D01*
G36*
X82155101Y-19748500D02*
G01*
X81774101Y-19748500D01*
X81774101Y-19494500D01*
X82155101Y-19494500D01*
X82155101Y-19748500D01*
G37*
X82155101Y-19748500D02*
X81774101Y-19748500D01*
X81774101Y-19494500D01*
X82155101Y-19494500D01*
X82155101Y-19748500D01*
G36*
X82655100Y-41465500D02*
G01*
X82274100Y-41465500D01*
X82274100Y-41211500D01*
X82655100Y-41211500D01*
X82655100Y-41465500D01*
G37*
X82655100Y-41465500D02*
X82274100Y-41465500D01*
X82274100Y-41211500D01*
X82655100Y-41211500D01*
X82655100Y-41465500D01*
D13*
G04 #@! TO.C,C42*
X43489200Y-21270965D02*
X43489200Y-21502635D01*
X42769200Y-21270965D02*
X42769200Y-21502635D01*
G04 #@! TO.C,C48*
X33583200Y-41340035D02*
X33583200Y-41108365D01*
X32863200Y-41340035D02*
X32863200Y-41108365D01*
G04 #@! TO.C,C10*
X19010365Y-19883800D02*
X19242035Y-19883800D01*
X19010365Y-20603800D02*
X19242035Y-20603800D01*
G04 #@! TO.C,C46*
X32050400Y-21270965D02*
X32050400Y-21502635D01*
X32770400Y-21270965D02*
X32770400Y-21502635D01*
G04 #@! TO.C,R18*
X28929876Y-37628300D02*
X29439324Y-37628300D01*
X28929876Y-38673300D02*
X29439324Y-38673300D01*
G04 #@! TO.C,R15*
X34773324Y-19877300D02*
X34263876Y-19877300D01*
X34773324Y-18832300D02*
X34263876Y-18832300D01*
G04 #@! TO.C,D1*
X28812600Y-20089800D02*
X28812600Y-18619800D01*
X26352600Y-20089800D02*
X28812600Y-20089800D01*
X28812600Y-18619800D02*
X26352600Y-18619800D01*
G04 #@! TO.C,C31*
X29652965Y-29798600D02*
X29884635Y-29798600D01*
X29652965Y-29078600D02*
X29884635Y-29078600D01*
G04 #@! TO.C,C19*
X70988600Y-33974035D02*
X70988600Y-33742365D01*
X71708600Y-33974035D02*
X71708600Y-33742365D01*
G04 #@! TO.C,R12*
X29464724Y-36971500D02*
X28955276Y-36971500D01*
X29464724Y-35926500D02*
X28955276Y-35926500D01*
G04 #@! TO.C,C2*
X33770835Y-39137000D02*
X33539165Y-39137000D01*
X33770835Y-39857000D02*
X33539165Y-39857000D01*
G04 #@! TO.C,C13*
X68667365Y-35733400D02*
X68899035Y-35733400D01*
X68667365Y-36453400D02*
X68899035Y-36453400D01*
G04 #@! TO.C,R2*
X47802076Y-19928100D02*
X48311524Y-19928100D01*
X47802076Y-18883100D02*
X48311524Y-18883100D01*
G04 #@! TO.C,C9*
X27366965Y-35386600D02*
X27598635Y-35386600D01*
X27366965Y-34666600D02*
X27598635Y-34666600D01*
G04 #@! TO.C,C33*
X29678365Y-25429800D02*
X29910035Y-25429800D01*
X29678365Y-24709800D02*
X29910035Y-24709800D01*
G04 #@! TO.C,C14*
X57723035Y-36631200D02*
X57491365Y-36631200D01*
X57723035Y-35911200D02*
X57491365Y-35911200D01*
G04 #@! TO.C,R10*
X26503100Y-31952476D02*
X26503100Y-32461924D01*
X27548100Y-31952476D02*
X27548100Y-32461924D01*
G04 #@! TO.C,C47*
X33091800Y-21270965D02*
X33091800Y-21502635D01*
X33811800Y-21270965D02*
X33811800Y-21502635D01*
G04 #@! TO.C,C23*
X46071200Y-21270965D02*
X46071200Y-21502635D01*
X46791200Y-21270965D02*
X46791200Y-21502635D01*
G04 #@! TO.C,C1*
X29910035Y-34666600D02*
X29678365Y-34666600D01*
X29910035Y-35386600D02*
X29678365Y-35386600D01*
G04 #@! TO.C,Y1*
X40647600Y-38586000D02*
X34897600Y-38586000D01*
X34897600Y-42186000D02*
X40647600Y-42186000D01*
X34897600Y-38586000D02*
X34897600Y-42186000D01*
G04 #@! TO.C,C27*
X29687065Y-27588800D02*
X29918735Y-27588800D01*
X29687065Y-26868800D02*
X29918735Y-26868800D01*
G04 #@! TO.C,R1*
X43448500Y-40894724D02*
X43448500Y-40385276D01*
X42403500Y-40894724D02*
X42403500Y-40385276D01*
G04 #@! TO.C,C6*
X34650000Y-41314635D02*
X34650000Y-41082965D01*
X33930000Y-41314635D02*
X33930000Y-41082965D01*
G04 #@! TO.C,R5*
X23836100Y-40383376D02*
X23836100Y-40892824D01*
X24881100Y-40383376D02*
X24881100Y-40892824D01*
G04 #@! TO.C,C34*
X45673600Y-21270965D02*
X45673600Y-21502635D01*
X44953600Y-21270965D02*
X44953600Y-21502635D01*
G04 #@! TO.C,R17*
X42164724Y-19877300D02*
X41655276Y-19877300D01*
X42164724Y-18832300D02*
X41655276Y-18832300D01*
G04 #@! TO.C,R6*
X25527724Y-35975400D02*
X25018276Y-35975400D01*
X25527724Y-37020400D02*
X25018276Y-37020400D01*
G04 #@! TO.C,C20*
X71207365Y-37943200D02*
X71439035Y-37943200D01*
X71207365Y-38663200D02*
X71439035Y-38663200D01*
G04 #@! TO.C,R4*
X25690300Y-22073324D02*
X25690300Y-21563876D01*
X26735300Y-22073324D02*
X26735300Y-21563876D01*
G04 #@! TO.C,C36*
X29652965Y-31313800D02*
X29884635Y-31313800D01*
X29652965Y-32033800D02*
X29884635Y-32033800D01*
G04 #@! TO.C,C4*
X82615035Y-41372200D02*
X82383365Y-41372200D01*
X82615035Y-42092200D02*
X82383365Y-42092200D01*
G04 #@! TO.C,C44*
X29678365Y-24363000D02*
X29910035Y-24363000D01*
X29678365Y-23643000D02*
X29910035Y-23643000D01*
G04 #@! TO.C,R16*
X38507124Y-19877300D02*
X37997676Y-19877300D01*
X38507124Y-18832300D02*
X37997676Y-18832300D01*
G04 #@! TO.C,R7*
X25527724Y-37575600D02*
X25018276Y-37575600D01*
X25527724Y-38620600D02*
X25018276Y-38620600D01*
G04 #@! TD*
%LPC*%
D15*
G04 #@! TO.C,D4*
X20994400Y-39293800D03*
X22744400Y-39293800D03*
G04 #@! TD*
D16*
G04 #@! TO.C,U3*
X18785800Y-23746700D03*
X20685800Y-23746700D03*
X19735800Y-21871700D03*
G04 #@! TD*
D17*
G04 #@! TO.C,R21*
X25958800Y-39725600D03*
X25958800Y-41550600D03*
G04 #@! TD*
D18*
G04 #@! TO.C,C45*
X29218000Y-33883600D03*
X30353000Y-33883600D03*
G04 #@! TD*
D19*
G04 #@! TO.C,C21*
X31343600Y-20819300D03*
X31343600Y-21954300D03*
G04 #@! TD*
G04 #@! TO.C,C40*
X35585400Y-20819300D03*
X35585400Y-21954300D03*
G04 #@! TD*
D18*
G04 #@! TO.C,C35*
X23664100Y-20243800D03*
X24799100Y-20243800D03*
G04 #@! TD*
G04 #@! TO.C,C43*
X29218000Y-32766000D03*
X30353000Y-32766000D03*
G04 #@! TD*
D20*
G04 #@! TO.C,IC1*
X45287400Y-24081201D03*
X45287400Y-24881201D03*
X45287400Y-25681201D03*
X45287400Y-26481201D03*
X45287400Y-27281201D03*
X45287400Y-28081201D03*
X45287400Y-28881201D03*
X45287400Y-29681201D03*
X45287400Y-30481201D03*
X45287400Y-31281201D03*
X45287400Y-32081201D03*
X45287400Y-32881201D03*
X45287400Y-33681201D03*
X45287400Y-34481201D03*
X45287400Y-35281201D03*
X45287400Y-36081201D03*
X45287400Y-36881201D03*
X44487400Y-24081201D03*
X44487400Y-24881201D03*
X44487400Y-25681201D03*
X44487400Y-26481201D03*
X44487400Y-27281201D03*
X44487400Y-28081201D03*
X44487400Y-28881201D03*
X44487400Y-29681201D03*
X44487400Y-30481201D03*
X44487400Y-31281201D03*
X44487400Y-32081201D03*
X44487400Y-32881201D03*
X44487400Y-33681201D03*
X44487400Y-34481201D03*
X44487400Y-35281201D03*
X44487400Y-36081201D03*
X44487400Y-36881201D03*
X43687400Y-24081201D03*
X43687400Y-24881201D03*
X43687400Y-25681201D03*
X43687400Y-26481201D03*
X43687400Y-27281201D03*
X43687400Y-28081201D03*
X43687400Y-28881201D03*
X43687400Y-29681201D03*
X43687400Y-30481201D03*
X43687400Y-31281201D03*
X43687400Y-32081201D03*
X43687400Y-32881201D03*
X43687400Y-33681201D03*
X43687400Y-34481201D03*
X43687400Y-35281201D03*
X43687400Y-36081201D03*
X43687400Y-36881201D03*
X42887400Y-24081201D03*
X42887400Y-24881201D03*
X42887400Y-25681201D03*
X42887400Y-26481201D03*
X42887400Y-27281201D03*
X42887400Y-28081201D03*
X42887400Y-28881201D03*
X42887400Y-29681201D03*
X42887400Y-30481201D03*
X42887400Y-31281201D03*
X42887400Y-32081201D03*
X42887400Y-32881201D03*
X42887400Y-33681201D03*
X42887400Y-34481201D03*
X42887400Y-35281201D03*
X42887400Y-36081201D03*
X42887400Y-36881201D03*
X42087400Y-24081201D03*
X42087400Y-24881201D03*
X42087400Y-25681201D03*
X42087400Y-26481201D03*
X42087400Y-27281201D03*
X42087400Y-28081201D03*
X42087400Y-28881201D03*
X42087400Y-29681201D03*
X42087400Y-30481201D03*
X42087400Y-31281201D03*
X42087400Y-32081201D03*
X42087400Y-32881201D03*
X42087400Y-33681201D03*
X42087400Y-34481201D03*
X42087400Y-35281201D03*
X42087400Y-36081201D03*
X42087400Y-36881201D03*
X41287400Y-24081201D03*
X41287400Y-24881201D03*
X41287400Y-25681201D03*
X41287400Y-26481201D03*
X41287400Y-27281201D03*
X41287400Y-28081201D03*
X41287400Y-28881201D03*
X41287400Y-29681201D03*
X41287400Y-30481201D03*
X41287400Y-31281201D03*
X41287400Y-32081201D03*
X41287400Y-32881201D03*
X41287400Y-33681201D03*
X41287400Y-34481201D03*
X41287400Y-35281201D03*
X41287400Y-36081201D03*
X41287400Y-36881201D03*
X40487400Y-24081201D03*
X40487400Y-24881201D03*
X40487400Y-25681201D03*
X40487400Y-26481201D03*
X40487400Y-27281201D03*
X40487400Y-28081201D03*
X40487400Y-28881201D03*
X40487400Y-30481201D03*
X40487400Y-32081201D03*
X40487400Y-32881201D03*
X40487400Y-33681201D03*
X40487400Y-34481201D03*
X40487400Y-35281201D03*
X40487400Y-36081201D03*
X40487400Y-36881201D03*
X39687400Y-24081201D03*
X39687400Y-24881201D03*
X39687400Y-25681201D03*
X39687400Y-26481201D03*
X39687400Y-27281201D03*
X39687400Y-28081201D03*
X39687400Y-32881201D03*
X39687400Y-33681201D03*
X39687400Y-34481201D03*
X39687400Y-35281201D03*
X39687400Y-36081201D03*
X39687400Y-36881201D03*
X38887400Y-24081201D03*
X38887400Y-24881201D03*
X38887400Y-25681201D03*
X38887400Y-26481201D03*
X38887400Y-27281201D03*
X38887400Y-28081201D03*
X38887400Y-28881201D03*
X38887400Y-32081201D03*
X38887400Y-32881201D03*
X38887400Y-33681201D03*
X38887400Y-34481201D03*
X38887400Y-35281201D03*
X38887400Y-36081201D03*
X38887400Y-36881201D03*
X38087400Y-24081201D03*
X38087400Y-24881201D03*
X38087400Y-25681201D03*
X38087400Y-26481201D03*
X38087400Y-27281201D03*
X38087400Y-28081201D03*
X38087400Y-32881201D03*
X38087400Y-33681201D03*
X38087400Y-34481201D03*
X38087400Y-35281201D03*
X38087400Y-36081201D03*
X38087400Y-36881201D03*
X37287400Y-24081201D03*
X37287400Y-24881201D03*
X37287400Y-25681201D03*
X37287400Y-26481201D03*
X37287400Y-27281201D03*
X37287400Y-28081201D03*
X37287400Y-28881201D03*
X37287400Y-30481201D03*
X37287400Y-32081201D03*
X37287400Y-32881201D03*
X37287400Y-33681201D03*
X37287400Y-34481201D03*
X37287400Y-35281201D03*
X37287400Y-36081201D03*
X37287400Y-36881201D03*
X36487400Y-24081201D03*
X36487400Y-24881201D03*
X36487400Y-25681201D03*
X36487400Y-26481201D03*
X36487400Y-27281201D03*
X36487400Y-28081201D03*
X36487400Y-28881201D03*
X36487400Y-29681201D03*
X36487400Y-30481201D03*
X36487400Y-31281201D03*
X36487400Y-32081201D03*
X36487400Y-32881201D03*
X36487400Y-33681201D03*
X36487400Y-34481201D03*
X36487400Y-35281201D03*
X36487400Y-36081201D03*
X36487400Y-36881201D03*
X35687400Y-24081201D03*
X35687400Y-24881201D03*
X35687400Y-25681201D03*
X35687400Y-26481201D03*
X35687400Y-27281201D03*
X35687400Y-28081201D03*
X35687400Y-28881201D03*
X35687400Y-29681201D03*
X35687400Y-30481201D03*
X35687400Y-31281201D03*
X35687400Y-32081201D03*
X35687400Y-32881201D03*
X35687400Y-33681201D03*
X35687400Y-34481201D03*
X35687400Y-35281201D03*
X35687400Y-36081201D03*
X35687400Y-36881201D03*
X34887400Y-24081201D03*
X34887400Y-24881201D03*
X34887400Y-25681201D03*
X34887400Y-26481201D03*
X34887400Y-27281201D03*
X34887400Y-28081201D03*
X34887400Y-28881201D03*
X34887400Y-29681201D03*
X34887400Y-30481201D03*
X34887400Y-31281201D03*
X34887400Y-32081201D03*
X34887400Y-32881201D03*
X34887400Y-33681201D03*
X34887400Y-34481201D03*
X34887400Y-35281201D03*
X34887400Y-36081201D03*
X34887400Y-36881201D03*
X34087400Y-24081201D03*
X34087400Y-24881201D03*
X34087400Y-25681201D03*
X34087400Y-26481201D03*
X34087400Y-27281201D03*
X34087400Y-28081201D03*
X34087400Y-28881201D03*
X34087400Y-29681201D03*
X34087400Y-30481201D03*
X34087400Y-31281201D03*
X34087400Y-32081201D03*
X34087400Y-32881201D03*
X34087400Y-33681201D03*
X34087400Y-34481201D03*
X34087400Y-35281201D03*
X34087400Y-36081201D03*
X34087400Y-36881201D03*
X33287400Y-24081201D03*
X33287400Y-24881201D03*
X33287400Y-25681201D03*
X33287400Y-26481201D03*
X33287400Y-27281201D03*
X33287400Y-28081201D03*
X33287400Y-28881201D03*
X33287400Y-29681201D03*
X33287400Y-30481201D03*
X33287400Y-31281201D03*
X33287400Y-32081201D03*
X33287400Y-32881201D03*
X33287400Y-33681201D03*
X33287400Y-34481201D03*
X33287400Y-35281201D03*
X33287400Y-36081201D03*
X33287400Y-36881201D03*
X32487400Y-24081201D03*
X32487400Y-24881201D03*
X32487400Y-25681201D03*
X32487400Y-26481201D03*
X32487400Y-27281201D03*
X32487400Y-28081201D03*
X32487400Y-28881201D03*
X32487400Y-29681201D03*
X32487400Y-30481201D03*
X32487400Y-31281201D03*
X32487400Y-32081201D03*
X32487400Y-32881201D03*
X32487400Y-33681201D03*
X32487400Y-34481201D03*
X32487400Y-35281201D03*
X32487400Y-36081201D03*
X32487400Y-36881201D03*
G04 #@! TD*
D21*
G04 #@! TO.C,J1*
X22459900Y-27437600D03*
X22459900Y-33217600D03*
D22*
X24259900Y-27077600D03*
X24259900Y-27877600D03*
D23*
X24259900Y-29077600D03*
X24259900Y-30077600D03*
X24259900Y-30577600D03*
X24259900Y-31577600D03*
D22*
X24259900Y-32777600D03*
X24259900Y-33577600D03*
X24259900Y-33577600D03*
D24*
X24259900Y-32777600D03*
D23*
X24259900Y-32077600D03*
X24259900Y-31077600D03*
X24259900Y-29577600D03*
X24259900Y-28577600D03*
D24*
X24259900Y-27877600D03*
X24359900Y-27077600D03*
D25*
X18809900Y-34647600D03*
D26*
X22989900Y-26007600D03*
X22989900Y-34647600D03*
D25*
X18809900Y-26007600D03*
G04 #@! TD*
D27*
G04 #@! TO.C,U7*
X27416760Y-39590980D03*
X31816040Y-39590980D03*
X27416760Y-41739820D03*
X31816040Y-41739820D03*
G04 #@! TD*
D15*
G04 #@! TO.C,D2*
X20969000Y-41529000D03*
X22719000Y-41529000D03*
G04 #@! TD*
D18*
G04 #@! TO.C,C18*
X47607600Y-20751800D03*
X48742600Y-20751800D03*
G04 #@! TD*
D19*
G04 #@! TO.C,C28*
X40970200Y-20819300D03*
X40970200Y-21954300D03*
G04 #@! TD*
D18*
G04 #@! TO.C,C26*
X29226700Y-28321000D03*
X30361700Y-28321000D03*
G04 #@! TD*
D19*
G04 #@! TO.C,C30*
X37719000Y-20819300D03*
X37719000Y-21954300D03*
G04 #@! TD*
D28*
G04 #@! TO.C,C8*
X22259100Y-19126200D03*
X21124100Y-19126200D03*
G04 #@! TD*
D18*
G04 #@! TO.C,C25*
X73092500Y-19151600D03*
X74227500Y-19151600D03*
G04 #@! TD*
D29*
G04 #@! TO.C,R3*
X19380200Y-38225100D03*
X19380200Y-36400100D03*
G04 #@! TD*
D18*
G04 #@! TO.C,C15*
X79239300Y-19126200D03*
X80374300Y-19126200D03*
G04 #@! TD*
G04 #@! TO.C,C41*
X29226700Y-22936200D03*
X30361700Y-22936200D03*
G04 #@! TD*
D28*
G04 #@! TO.C,C24*
X62949900Y-36169600D03*
X61814900Y-36169600D03*
G04 #@! TD*
D30*
G04 #@! TO.C,R14*
X29745300Y-19354800D03*
X31570300Y-19354800D03*
G04 #@! TD*
D31*
G04 #@! TO.C,C12*
X41605200Y-41766300D03*
X41605200Y-40631300D03*
G04 #@! TD*
D17*
G04 #@! TO.C,R9*
X27813000Y-20906100D03*
X27813000Y-22731100D03*
G04 #@! TD*
D18*
G04 #@! TO.C,C7*
X21124100Y-20243800D03*
X22259100Y-20243800D03*
G04 #@! TD*
D19*
G04 #@! TO.C,C38*
X44221400Y-20819300D03*
X44221400Y-21954300D03*
G04 #@! TD*
D15*
G04 #@! TO.C,D3*
X20994400Y-36906200D03*
X22744400Y-36906200D03*
G04 #@! TD*
D19*
G04 #@! TO.C,C22*
X42037000Y-20819300D03*
X42037000Y-21954300D03*
G04 #@! TD*
D16*
G04 #@! TO.C,U2*
X22672000Y-23721300D03*
X24572000Y-23721300D03*
X23622000Y-21846300D03*
G04 #@! TD*
D19*
G04 #@! TO.C,C39*
X36652200Y-20819300D03*
X36652200Y-21954300D03*
G04 #@! TD*
D17*
G04 #@! TO.C,R8*
X27838400Y-24360500D03*
X27838400Y-26185500D03*
G04 #@! TD*
D29*
G04 #@! TO.C,R13*
X19380200Y-41527100D03*
X19380200Y-39702100D03*
G04 #@! TD*
D31*
G04 #@! TO.C,C3*
X64211200Y-34400300D03*
X64211200Y-33265300D03*
G04 #@! TD*
D32*
G04 #@! TO.C,J3*
X45547200Y-40741600D03*
X48087200Y-40741600D03*
X50627200Y-40741600D03*
X53167200Y-40741600D03*
X55707200Y-40741600D03*
X58247200Y-40741600D03*
X60787200Y-40741600D03*
X63327200Y-40741600D03*
X65867200Y-40741600D03*
X68407200Y-40741600D03*
G04 #@! TD*
D29*
G04 #@! TO.C,R11*
X27025600Y-29819600D03*
X27025600Y-27994600D03*
G04 #@! TD*
D31*
G04 #@! TO.C,C32*
X67995800Y-34400300D03*
X67995800Y-33265300D03*
G04 #@! TD*
D33*
G04 #@! TO.C,U4*
X50406300Y-31775400D03*
X51206400Y-31775400D03*
X52006500Y-31775400D03*
X52806600Y-31775400D03*
X53606700Y-31775400D03*
X54406800Y-31775400D03*
X55206900Y-31775400D03*
X56007000Y-31775400D03*
X56807100Y-31775400D03*
X57607200Y-31775400D03*
X58407300Y-31775400D03*
X59207400Y-31775400D03*
X60007500Y-31775400D03*
X60807600Y-31775400D03*
X61607700Y-31775400D03*
X62407800Y-31775400D03*
X63207900Y-31775400D03*
X64008000Y-31775400D03*
X64808100Y-31775400D03*
X65608200Y-31775400D03*
X66408300Y-31775400D03*
X67208400Y-31775400D03*
X68008500Y-31775400D03*
X68808600Y-31775400D03*
X69608700Y-31775400D03*
X70408800Y-31775400D03*
X71208900Y-31775400D03*
X71208900Y-20294600D03*
X70408800Y-20294600D03*
X69608700Y-20294600D03*
X68808600Y-20294600D03*
X68008500Y-20294600D03*
X67208400Y-20294600D03*
X66408300Y-20294600D03*
X65608200Y-20294600D03*
X64808100Y-20294600D03*
X64008000Y-20294600D03*
X63207900Y-20294600D03*
X62407800Y-20294600D03*
X61607700Y-20294600D03*
X60807600Y-20294600D03*
X60007500Y-20294600D03*
X59207400Y-20294600D03*
X58407300Y-20294600D03*
X57607200Y-20294600D03*
X56807100Y-20294600D03*
X56007000Y-20294600D03*
X55206900Y-20294600D03*
X54406800Y-20294600D03*
X53606700Y-20294600D03*
X52806600Y-20294600D03*
X52006500Y-20294600D03*
X51206400Y-20294600D03*
X50406300Y-20294600D03*
G04 #@! TD*
D19*
G04 #@! TO.C,C37*
X39903400Y-20819300D03*
X39903400Y-21954300D03*
G04 #@! TD*
D28*
G04 #@! TO.C,C29*
X77351700Y-19151600D03*
X76216700Y-19151600D03*
G04 #@! TD*
D34*
G04 #@! TO.C,U5*
X72964601Y-40316150D03*
X73464600Y-40316150D03*
X73964599Y-40316150D03*
X74464601Y-40316150D03*
X74964600Y-40316150D03*
X75464599Y-40316150D03*
X75964600Y-40316150D03*
X76464599Y-40316150D03*
X76964601Y-40316150D03*
X77464600Y-40316150D03*
X77964599Y-40316150D03*
X78464600Y-40316150D03*
X78964600Y-40316150D03*
X79464601Y-40316150D03*
X79964600Y-40316150D03*
X80464599Y-40316150D03*
X80964601Y-40316150D03*
X81464600Y-40316150D03*
X81964601Y-40316150D03*
X82464600Y-40316150D03*
X82964599Y-40316150D03*
X83464601Y-40316150D03*
X83964600Y-40316150D03*
X84464601Y-40316150D03*
X84464599Y-20643850D03*
X83964600Y-20643850D03*
X83464601Y-20643850D03*
X82964599Y-20643850D03*
X82464600Y-20643850D03*
X81964599Y-20643850D03*
X81464600Y-20643850D03*
X80964601Y-20643850D03*
X80464599Y-20643850D03*
X79964600Y-20643850D03*
X79464598Y-20643850D03*
X78964600Y-20643850D03*
X78464600Y-20643850D03*
X77964599Y-20643850D03*
X77464600Y-20643850D03*
X76964601Y-20643850D03*
X76464599Y-20643850D03*
X75964600Y-20643850D03*
X75464599Y-20643850D03*
X74964600Y-20643850D03*
X74464601Y-20643850D03*
X73964599Y-20643850D03*
X73464600Y-20643850D03*
X72964599Y-20643850D03*
G04 #@! TD*
D19*
G04 #@! TO.C,C42*
X43129200Y-20819300D03*
X43129200Y-21954300D03*
G04 #@! TD*
D31*
G04 #@! TO.C,C48*
X33223200Y-41791700D03*
X33223200Y-40656700D03*
G04 #@! TD*
D18*
G04 #@! TO.C,C10*
X18558700Y-20243800D03*
X19693700Y-20243800D03*
G04 #@! TD*
D19*
G04 #@! TO.C,C46*
X32410400Y-20819300D03*
X32410400Y-21954300D03*
G04 #@! TD*
D30*
G04 #@! TO.C,R18*
X28272100Y-38150800D03*
X30097100Y-38150800D03*
G04 #@! TD*
D35*
G04 #@! TO.C,R15*
X35431100Y-19354800D03*
X33606100Y-19354800D03*
G04 #@! TD*
D36*
G04 #@! TO.C,D1*
X28027600Y-19354800D03*
X26277600Y-19354800D03*
G04 #@! TD*
D18*
G04 #@! TO.C,C31*
X29201300Y-29438600D03*
X30336300Y-29438600D03*
G04 #@! TD*
D31*
G04 #@! TO.C,C19*
X71348600Y-34425700D03*
X71348600Y-33290700D03*
G04 #@! TD*
D35*
G04 #@! TO.C,R12*
X30122500Y-36449000D03*
X28297500Y-36449000D03*
G04 #@! TD*
D28*
G04 #@! TO.C,C2*
X34222500Y-39497000D03*
X33087500Y-39497000D03*
G04 #@! TD*
D18*
G04 #@! TO.C,C13*
X68215700Y-36093400D03*
X69350700Y-36093400D03*
G04 #@! TD*
D30*
G04 #@! TO.C,R2*
X47144300Y-19405600D03*
X48969300Y-19405600D03*
G04 #@! TD*
D18*
G04 #@! TO.C,C9*
X26915300Y-35026600D03*
X28050300Y-35026600D03*
G04 #@! TD*
G04 #@! TO.C,C33*
X29226700Y-25069800D03*
X30361700Y-25069800D03*
G04 #@! TD*
D28*
G04 #@! TO.C,C14*
X58174700Y-36271200D03*
X57039700Y-36271200D03*
G04 #@! TD*
D17*
G04 #@! TO.C,R10*
X27025600Y-31294700D03*
X27025600Y-33119700D03*
G04 #@! TD*
D19*
G04 #@! TO.C,C47*
X33451800Y-20819300D03*
X33451800Y-21954300D03*
G04 #@! TD*
G04 #@! TO.C,C23*
X46431200Y-20819300D03*
X46431200Y-21954300D03*
G04 #@! TD*
D28*
G04 #@! TO.C,C1*
X30361700Y-35026600D03*
X29226700Y-35026600D03*
G04 #@! TD*
D37*
G04 #@! TO.C,Y1*
X36097600Y-40386000D03*
X39797600Y-40386000D03*
G04 #@! TD*
D18*
G04 #@! TO.C,C27*
X29235400Y-27228800D03*
X30370400Y-27228800D03*
G04 #@! TD*
D29*
G04 #@! TO.C,R1*
X42926000Y-41552500D03*
X42926000Y-39727500D03*
G04 #@! TD*
D31*
G04 #@! TO.C,C6*
X34290000Y-41766300D03*
X34290000Y-40631300D03*
G04 #@! TD*
D17*
G04 #@! TO.C,R5*
X24358600Y-39725600D03*
X24358600Y-41550600D03*
G04 #@! TD*
D19*
G04 #@! TO.C,C34*
X45313600Y-20819300D03*
X45313600Y-21954300D03*
G04 #@! TD*
D35*
G04 #@! TO.C,R17*
X42822500Y-19354800D03*
X40997500Y-19354800D03*
G04 #@! TD*
G04 #@! TO.C,R6*
X26185500Y-36497900D03*
X24360500Y-36497900D03*
G04 #@! TD*
D18*
G04 #@! TO.C,C20*
X70755700Y-38303200D03*
X71890700Y-38303200D03*
G04 #@! TD*
D29*
G04 #@! TO.C,R4*
X26212800Y-22731100D03*
X26212800Y-20906100D03*
G04 #@! TD*
D18*
G04 #@! TO.C,C36*
X29201300Y-31673800D03*
X30336300Y-31673800D03*
G04 #@! TD*
D28*
G04 #@! TO.C,C4*
X83066700Y-41732200D03*
X81931700Y-41732200D03*
G04 #@! TD*
D18*
G04 #@! TO.C,C44*
X29226700Y-24003000D03*
X30361700Y-24003000D03*
G04 #@! TD*
D35*
G04 #@! TO.C,R16*
X39164900Y-19354800D03*
X37339900Y-19354800D03*
G04 #@! TD*
G04 #@! TO.C,R7*
X26185500Y-38098100D03*
X24360500Y-38098100D03*
G04 #@! TD*
M02*
