G04 #@! TF.GenerationSoftware,KiCad,Pcbnew,(6.0.11-0)*
G04 #@! TF.CreationDate,2023-02-06T17:09:19+08:00*
G04 #@! TF.ProjectId,us3c,75733363-2e6b-4696-9361-645f70636258,rev?*
G04 #@! TF.SameCoordinates,Original*
G04 #@! TF.FileFunction,Soldermask,Top*
G04 #@! TF.FilePolarity,Negative*
%FSLAX46Y46*%
G04 Gerber Fmt 4.6, Leading zero omitted, Abs format (unit mm)*
G04 Created by KiCad (PCBNEW (6.0.11-0)) date 2023-02-06 17:09:19*
%MOMM*%
%LPD*%
G01*
G04 APERTURE LIST*
G04 Aperture macros list*
%AMRoundRect*
0 Rectangle with rounded corners*
0 $1 Rounding radius*
0 $2 $3 $4 $5 $6 $7 $8 $9 X,Y pos of 4 corners*
0 Add a 4 corners polygon primitive as box body*
4,1,4,$2,$3,$4,$5,$6,$7,$8,$9,$2,$3,0*
0 Add four circle primitives for the rounded corners*
1,1,$1+$1,$2,$3*
1,1,$1+$1,$4,$5*
1,1,$1+$1,$6,$7*
1,1,$1+$1,$8,$9*
0 Add four rect primitives between the rounded corners*
20,1,$1+$1,$2,$3,$4,$5,0*
20,1,$1+$1,$4,$5,$6,$7,0*
20,1,$1+$1,$6,$7,$8,$9,0*
20,1,$1+$1,$8,$9,$2,$3,0*%
G04 Aperture macros list end*
%ADD10RoundRect,0.237500X-0.287500X-0.237500X0.287500X-0.237500X0.287500X0.237500X-0.287500X0.237500X0*%
%ADD11RoundRect,0.150000X0.150000X-0.587500X0.150000X0.587500X-0.150000X0.587500X-0.150000X-0.587500X0*%
%ADD12RoundRect,0.237500X-0.237500X0.250000X-0.237500X-0.250000X0.237500X-0.250000X0.237500X0.250000X0*%
%ADD13RoundRect,0.155000X-0.212500X-0.155000X0.212500X-0.155000X0.212500X0.155000X-0.212500X0.155000X0*%
%ADD14RoundRect,0.155000X-0.155000X0.212500X-0.155000X-0.212500X0.155000X-0.212500X0.155000X0.212500X0*%
%ADD15C,0.410000*%
%ADD16C,0.650000*%
%ADD17R,2.000000X0.600000*%
%ADD18R,2.000000X0.300000*%
%ADD19R,1.450000X0.600000*%
%ADD20O,1.600000X1.000000*%
%ADD21O,2.100000X1.000000*%
%ADD22RoundRect,0.175260X-0.349250X-0.175260X0.349250X-0.175260X0.349250X0.175260X-0.349250X0.175260X0*%
%ADD23RoundRect,0.155000X0.212500X0.155000X-0.212500X0.155000X-0.212500X-0.155000X0.212500X-0.155000X0*%
%ADD24RoundRect,0.237500X0.237500X-0.250000X0.237500X0.250000X-0.237500X0.250000X-0.237500X-0.250000X0*%
%ADD25RoundRect,0.237500X-0.250000X-0.237500X0.250000X-0.237500X0.250000X0.237500X-0.250000X0.237500X0*%
%ADD26RoundRect,0.155000X0.155000X-0.212500X0.155000X0.212500X-0.155000X0.212500X-0.155000X-0.212500X0*%
%ADD27RoundRect,0.425000X0.425000X-0.425000X0.425000X0.425000X-0.425000X0.425000X-0.425000X-0.425000X0*%
%ADD28R,0.508000X1.193800*%
%ADD29R,0.254000X1.282700*%
%ADD30RoundRect,0.237500X0.250000X0.237500X-0.250000X0.237500X-0.250000X-0.237500X0.250000X-0.237500X0*%
%ADD31RoundRect,0.237500X0.287500X0.237500X-0.287500X0.237500X-0.287500X-0.237500X0.287500X-0.237500X0*%
%ADD32R,2.000000X2.400000*%
G04 APERTURE END LIST*
D10*
G04 #@! TO.C,D4*
X20994400Y-39293800D03*
X22744400Y-39293800D03*
G04 #@! TD*
D11*
G04 #@! TO.C,U3*
X18785800Y-23746700D03*
X20685800Y-23746700D03*
X19735800Y-21871700D03*
G04 #@! TD*
D12*
G04 #@! TO.C,R21*
X25958800Y-39725600D03*
X25958800Y-41550600D03*
G04 #@! TD*
D13*
G04 #@! TO.C,C45*
X29218000Y-33883600D03*
X30353000Y-33883600D03*
G04 #@! TD*
D14*
G04 #@! TO.C,C21*
X31343600Y-20819300D03*
X31343600Y-21954300D03*
G04 #@! TD*
G04 #@! TO.C,C40*
X35585400Y-20819300D03*
X35585400Y-21954300D03*
G04 #@! TD*
D13*
G04 #@! TO.C,C35*
X23664100Y-20243800D03*
X24799100Y-20243800D03*
G04 #@! TD*
G04 #@! TO.C,C43*
X29218000Y-32766000D03*
X30353000Y-32766000D03*
G04 #@! TD*
D15*
G04 #@! TO.C,IC1*
X45287400Y-24081201D03*
X45287400Y-24881201D03*
X45287400Y-25681201D03*
X45287400Y-26481201D03*
X45287400Y-27281201D03*
X45287400Y-28081201D03*
X45287400Y-28881201D03*
X45287400Y-29681201D03*
X45287400Y-30481201D03*
X45287400Y-31281201D03*
X45287400Y-32081201D03*
X45287400Y-32881201D03*
X45287400Y-33681201D03*
X45287400Y-34481201D03*
X45287400Y-35281201D03*
X45287400Y-36081201D03*
X45287400Y-36881201D03*
X44487400Y-24081201D03*
X44487400Y-24881201D03*
X44487400Y-25681201D03*
X44487400Y-26481201D03*
X44487400Y-27281201D03*
X44487400Y-28081201D03*
X44487400Y-28881201D03*
X44487400Y-29681201D03*
X44487400Y-30481201D03*
X44487400Y-31281201D03*
X44487400Y-32081201D03*
X44487400Y-32881201D03*
X44487400Y-33681201D03*
X44487400Y-34481201D03*
X44487400Y-35281201D03*
X44487400Y-36081201D03*
X44487400Y-36881201D03*
X43687400Y-24081201D03*
X43687400Y-24881201D03*
X43687400Y-25681201D03*
X43687400Y-26481201D03*
X43687400Y-27281201D03*
X43687400Y-28081201D03*
X43687400Y-28881201D03*
X43687400Y-29681201D03*
X43687400Y-30481201D03*
X43687400Y-31281201D03*
X43687400Y-32081201D03*
X43687400Y-32881201D03*
X43687400Y-33681201D03*
X43687400Y-34481201D03*
X43687400Y-35281201D03*
X43687400Y-36081201D03*
X43687400Y-36881201D03*
X42887400Y-24081201D03*
X42887400Y-24881201D03*
X42887400Y-25681201D03*
X42887400Y-26481201D03*
X42887400Y-27281201D03*
X42887400Y-28081201D03*
X42887400Y-28881201D03*
X42887400Y-29681201D03*
X42887400Y-30481201D03*
X42887400Y-31281201D03*
X42887400Y-32081201D03*
X42887400Y-32881201D03*
X42887400Y-33681201D03*
X42887400Y-34481201D03*
X42887400Y-35281201D03*
X42887400Y-36081201D03*
X42887400Y-36881201D03*
X42087400Y-24081201D03*
X42087400Y-24881201D03*
X42087400Y-25681201D03*
X42087400Y-26481201D03*
X42087400Y-27281201D03*
X42087400Y-28081201D03*
X42087400Y-28881201D03*
X42087400Y-29681201D03*
X42087400Y-30481201D03*
X42087400Y-31281201D03*
X42087400Y-32081201D03*
X42087400Y-32881201D03*
X42087400Y-33681201D03*
X42087400Y-34481201D03*
X42087400Y-35281201D03*
X42087400Y-36081201D03*
X42087400Y-36881201D03*
X41287400Y-24081201D03*
X41287400Y-24881201D03*
X41287400Y-25681201D03*
X41287400Y-26481201D03*
X41287400Y-27281201D03*
X41287400Y-28081201D03*
X41287400Y-28881201D03*
X41287400Y-29681201D03*
X41287400Y-30481201D03*
X41287400Y-31281201D03*
X41287400Y-32081201D03*
X41287400Y-32881201D03*
X41287400Y-33681201D03*
X41287400Y-34481201D03*
X41287400Y-35281201D03*
X41287400Y-36081201D03*
X41287400Y-36881201D03*
X40487400Y-24081201D03*
X40487400Y-24881201D03*
X40487400Y-25681201D03*
X40487400Y-26481201D03*
X40487400Y-27281201D03*
X40487400Y-28081201D03*
X40487400Y-28881201D03*
X40487400Y-30481201D03*
X40487400Y-32081201D03*
X40487400Y-32881201D03*
X40487400Y-33681201D03*
X40487400Y-34481201D03*
X40487400Y-35281201D03*
X40487400Y-36081201D03*
X40487400Y-36881201D03*
X39687400Y-24081201D03*
X39687400Y-24881201D03*
X39687400Y-25681201D03*
X39687400Y-26481201D03*
X39687400Y-27281201D03*
X39687400Y-28081201D03*
X39687400Y-32881201D03*
X39687400Y-33681201D03*
X39687400Y-34481201D03*
X39687400Y-35281201D03*
X39687400Y-36081201D03*
X39687400Y-36881201D03*
X38887400Y-24081201D03*
X38887400Y-24881201D03*
X38887400Y-25681201D03*
X38887400Y-26481201D03*
X38887400Y-27281201D03*
X38887400Y-28081201D03*
X38887400Y-28881201D03*
X38887400Y-32081201D03*
X38887400Y-32881201D03*
X38887400Y-33681201D03*
X38887400Y-34481201D03*
X38887400Y-35281201D03*
X38887400Y-36081201D03*
X38887400Y-36881201D03*
X38087400Y-24081201D03*
X38087400Y-24881201D03*
X38087400Y-25681201D03*
X38087400Y-26481201D03*
X38087400Y-27281201D03*
X38087400Y-28081201D03*
X38087400Y-32881201D03*
X38087400Y-33681201D03*
X38087400Y-34481201D03*
X38087400Y-35281201D03*
X38087400Y-36081201D03*
X38087400Y-36881201D03*
X37287400Y-24081201D03*
X37287400Y-24881201D03*
X37287400Y-25681201D03*
X37287400Y-26481201D03*
X37287400Y-27281201D03*
X37287400Y-28081201D03*
X37287400Y-28881201D03*
X37287400Y-30481201D03*
X37287400Y-32081201D03*
X37287400Y-32881201D03*
X37287400Y-33681201D03*
X37287400Y-34481201D03*
X37287400Y-35281201D03*
X37287400Y-36081201D03*
X37287400Y-36881201D03*
X36487400Y-24081201D03*
X36487400Y-24881201D03*
X36487400Y-25681201D03*
X36487400Y-26481201D03*
X36487400Y-27281201D03*
X36487400Y-28081201D03*
X36487400Y-28881201D03*
X36487400Y-29681201D03*
X36487400Y-30481201D03*
X36487400Y-31281201D03*
X36487400Y-32081201D03*
X36487400Y-32881201D03*
X36487400Y-33681201D03*
X36487400Y-34481201D03*
X36487400Y-35281201D03*
X36487400Y-36081201D03*
X36487400Y-36881201D03*
X35687400Y-24081201D03*
X35687400Y-24881201D03*
X35687400Y-25681201D03*
X35687400Y-26481201D03*
X35687400Y-27281201D03*
X35687400Y-28081201D03*
X35687400Y-28881201D03*
X35687400Y-29681201D03*
X35687400Y-30481201D03*
X35687400Y-31281201D03*
X35687400Y-32081201D03*
X35687400Y-32881201D03*
X35687400Y-33681201D03*
X35687400Y-34481201D03*
X35687400Y-35281201D03*
X35687400Y-36081201D03*
X35687400Y-36881201D03*
X34887400Y-24081201D03*
X34887400Y-24881201D03*
X34887400Y-25681201D03*
X34887400Y-26481201D03*
X34887400Y-27281201D03*
X34887400Y-28081201D03*
X34887400Y-28881201D03*
X34887400Y-29681201D03*
X34887400Y-30481201D03*
X34887400Y-31281201D03*
X34887400Y-32081201D03*
X34887400Y-32881201D03*
X34887400Y-33681201D03*
X34887400Y-34481201D03*
X34887400Y-35281201D03*
X34887400Y-36081201D03*
X34887400Y-36881201D03*
X34087400Y-24081201D03*
X34087400Y-24881201D03*
X34087400Y-25681201D03*
X34087400Y-26481201D03*
X34087400Y-27281201D03*
X34087400Y-28081201D03*
X34087400Y-28881201D03*
X34087400Y-29681201D03*
X34087400Y-30481201D03*
X34087400Y-31281201D03*
X34087400Y-32081201D03*
X34087400Y-32881201D03*
X34087400Y-33681201D03*
X34087400Y-34481201D03*
X34087400Y-35281201D03*
X34087400Y-36081201D03*
X34087400Y-36881201D03*
X33287400Y-24081201D03*
X33287400Y-24881201D03*
X33287400Y-25681201D03*
X33287400Y-26481201D03*
X33287400Y-27281201D03*
X33287400Y-28081201D03*
X33287400Y-28881201D03*
X33287400Y-29681201D03*
X33287400Y-30481201D03*
X33287400Y-31281201D03*
X33287400Y-32081201D03*
X33287400Y-32881201D03*
X33287400Y-33681201D03*
X33287400Y-34481201D03*
X33287400Y-35281201D03*
X33287400Y-36081201D03*
X33287400Y-36881201D03*
X32487400Y-24081201D03*
X32487400Y-24881201D03*
X32487400Y-25681201D03*
X32487400Y-26481201D03*
X32487400Y-27281201D03*
X32487400Y-28081201D03*
X32487400Y-28881201D03*
X32487400Y-29681201D03*
X32487400Y-30481201D03*
X32487400Y-31281201D03*
X32487400Y-32081201D03*
X32487400Y-32881201D03*
X32487400Y-33681201D03*
X32487400Y-34481201D03*
X32487400Y-35281201D03*
X32487400Y-36081201D03*
X32487400Y-36881201D03*
G04 #@! TD*
D16*
G04 #@! TO.C,J1*
X22459900Y-27437600D03*
X22459900Y-33217600D03*
D17*
X24259900Y-27077600D03*
X24259900Y-27877600D03*
D18*
X24259900Y-29077600D03*
X24259900Y-30077600D03*
X24259900Y-30577600D03*
X24259900Y-31577600D03*
D17*
X24259900Y-32777600D03*
X24259900Y-33577600D03*
X24259900Y-33577600D03*
D19*
X24259900Y-32777600D03*
D18*
X24259900Y-32077600D03*
X24259900Y-31077600D03*
X24259900Y-29577600D03*
X24259900Y-28577600D03*
D19*
X24259900Y-27877600D03*
X24359900Y-27077600D03*
D20*
X18809900Y-34647600D03*
D21*
X22989900Y-26007600D03*
X22989900Y-34647600D03*
D20*
X18809900Y-26007600D03*
G04 #@! TD*
D22*
G04 #@! TO.C,U7*
X27416760Y-39590980D03*
X31816040Y-39590980D03*
X27416760Y-41739820D03*
X31816040Y-41739820D03*
G04 #@! TD*
D10*
G04 #@! TO.C,D2*
X20969000Y-41529000D03*
X22719000Y-41529000D03*
G04 #@! TD*
D13*
G04 #@! TO.C,C18*
X47607600Y-20751800D03*
X48742600Y-20751800D03*
G04 #@! TD*
D14*
G04 #@! TO.C,C28*
X40970200Y-20819300D03*
X40970200Y-21954300D03*
G04 #@! TD*
D13*
G04 #@! TO.C,C26*
X29226700Y-28321000D03*
X30361700Y-28321000D03*
G04 #@! TD*
D14*
G04 #@! TO.C,C30*
X37719000Y-20819300D03*
X37719000Y-21954300D03*
G04 #@! TD*
D23*
G04 #@! TO.C,C8*
X22259100Y-19126200D03*
X21124100Y-19126200D03*
G04 #@! TD*
D13*
G04 #@! TO.C,C25*
X73092500Y-19151600D03*
X74227500Y-19151600D03*
G04 #@! TD*
D24*
G04 #@! TO.C,R3*
X19380200Y-38225100D03*
X19380200Y-36400100D03*
G04 #@! TD*
D13*
G04 #@! TO.C,C15*
X79239300Y-19126200D03*
X80374300Y-19126200D03*
G04 #@! TD*
G04 #@! TO.C,C41*
X29226700Y-22936200D03*
X30361700Y-22936200D03*
G04 #@! TD*
D23*
G04 #@! TO.C,C24*
X62949900Y-36169600D03*
X61814900Y-36169600D03*
G04 #@! TD*
D25*
G04 #@! TO.C,R14*
X29745300Y-19354800D03*
X31570300Y-19354800D03*
G04 #@! TD*
D26*
G04 #@! TO.C,C12*
X41605200Y-41766300D03*
X41605200Y-40631300D03*
G04 #@! TD*
D12*
G04 #@! TO.C,R9*
X27813000Y-20906100D03*
X27813000Y-22731100D03*
G04 #@! TD*
D13*
G04 #@! TO.C,C7*
X21124100Y-20243800D03*
X22259100Y-20243800D03*
G04 #@! TD*
D14*
G04 #@! TO.C,C38*
X44221400Y-20819300D03*
X44221400Y-21954300D03*
G04 #@! TD*
D10*
G04 #@! TO.C,D3*
X20994400Y-36906200D03*
X22744400Y-36906200D03*
G04 #@! TD*
D14*
G04 #@! TO.C,C22*
X42037000Y-20819300D03*
X42037000Y-21954300D03*
G04 #@! TD*
D11*
G04 #@! TO.C,U2*
X22672000Y-23721300D03*
X24572000Y-23721300D03*
X23622000Y-21846300D03*
G04 #@! TD*
D14*
G04 #@! TO.C,C39*
X36652200Y-20819300D03*
X36652200Y-21954300D03*
G04 #@! TD*
D12*
G04 #@! TO.C,R8*
X27838400Y-24360500D03*
X27838400Y-26185500D03*
G04 #@! TD*
D24*
G04 #@! TO.C,R13*
X19380200Y-41527100D03*
X19380200Y-39702100D03*
G04 #@! TD*
D26*
G04 #@! TO.C,C3*
X64211200Y-34400300D03*
X64211200Y-33265300D03*
G04 #@! TD*
D27*
G04 #@! TO.C,J3*
X45547200Y-40741600D03*
X48087200Y-40741600D03*
X50627200Y-40741600D03*
X53167200Y-40741600D03*
X55707200Y-40741600D03*
X58247200Y-40741600D03*
X60787200Y-40741600D03*
X63327200Y-40741600D03*
X65867200Y-40741600D03*
X68407200Y-40741600D03*
G04 #@! TD*
D24*
G04 #@! TO.C,R11*
X27025600Y-29819600D03*
X27025600Y-27994600D03*
G04 #@! TD*
D26*
G04 #@! TO.C,C32*
X67995800Y-34400300D03*
X67995800Y-33265300D03*
G04 #@! TD*
D28*
G04 #@! TO.C,U4*
X50406300Y-31775400D03*
X51206400Y-31775400D03*
X52006500Y-31775400D03*
X52806600Y-31775400D03*
X53606700Y-31775400D03*
X54406800Y-31775400D03*
X55206900Y-31775400D03*
X56007000Y-31775400D03*
X56807100Y-31775400D03*
X57607200Y-31775400D03*
X58407300Y-31775400D03*
X59207400Y-31775400D03*
X60007500Y-31775400D03*
X60807600Y-31775400D03*
X61607700Y-31775400D03*
X62407800Y-31775400D03*
X63207900Y-31775400D03*
X64008000Y-31775400D03*
X64808100Y-31775400D03*
X65608200Y-31775400D03*
X66408300Y-31775400D03*
X67208400Y-31775400D03*
X68008500Y-31775400D03*
X68808600Y-31775400D03*
X69608700Y-31775400D03*
X70408800Y-31775400D03*
X71208900Y-31775400D03*
X71208900Y-20294600D03*
X70408800Y-20294600D03*
X69608700Y-20294600D03*
X68808600Y-20294600D03*
X68008500Y-20294600D03*
X67208400Y-20294600D03*
X66408300Y-20294600D03*
X65608200Y-20294600D03*
X64808100Y-20294600D03*
X64008000Y-20294600D03*
X63207900Y-20294600D03*
X62407800Y-20294600D03*
X61607700Y-20294600D03*
X60807600Y-20294600D03*
X60007500Y-20294600D03*
X59207400Y-20294600D03*
X58407300Y-20294600D03*
X57607200Y-20294600D03*
X56807100Y-20294600D03*
X56007000Y-20294600D03*
X55206900Y-20294600D03*
X54406800Y-20294600D03*
X53606700Y-20294600D03*
X52806600Y-20294600D03*
X52006500Y-20294600D03*
X51206400Y-20294600D03*
X50406300Y-20294600D03*
G04 #@! TD*
D14*
G04 #@! TO.C,C37*
X39903400Y-20819300D03*
X39903400Y-21954300D03*
G04 #@! TD*
D23*
G04 #@! TO.C,C29*
X77351700Y-19151600D03*
X76216700Y-19151600D03*
G04 #@! TD*
D29*
G04 #@! TO.C,U5*
X72964601Y-40316150D03*
X73464600Y-40316150D03*
X73964599Y-40316150D03*
X74464601Y-40316150D03*
X74964600Y-40316150D03*
X75464599Y-40316150D03*
X75964600Y-40316150D03*
X76464599Y-40316150D03*
X76964601Y-40316150D03*
X77464600Y-40316150D03*
X77964599Y-40316150D03*
X78464600Y-40316150D03*
X78964600Y-40316150D03*
X79464601Y-40316150D03*
X79964600Y-40316150D03*
X80464599Y-40316150D03*
X80964601Y-40316150D03*
X81464600Y-40316150D03*
X81964601Y-40316150D03*
X82464600Y-40316150D03*
X82964599Y-40316150D03*
X83464601Y-40316150D03*
X83964600Y-40316150D03*
X84464601Y-40316150D03*
X84464599Y-20643850D03*
X83964600Y-20643850D03*
X83464601Y-20643850D03*
X82964599Y-20643850D03*
X82464600Y-20643850D03*
X81964599Y-20643850D03*
X81464600Y-20643850D03*
X80964601Y-20643850D03*
X80464599Y-20643850D03*
X79964600Y-20643850D03*
X79464598Y-20643850D03*
X78964600Y-20643850D03*
X78464600Y-20643850D03*
X77964599Y-20643850D03*
X77464600Y-20643850D03*
X76964601Y-20643850D03*
X76464599Y-20643850D03*
X75964600Y-20643850D03*
X75464599Y-20643850D03*
X74964600Y-20643850D03*
X74464601Y-20643850D03*
X73964599Y-20643850D03*
X73464600Y-20643850D03*
X72964599Y-20643850D03*
G04 #@! TD*
D14*
G04 #@! TO.C,C42*
X43129200Y-20819300D03*
X43129200Y-21954300D03*
G04 #@! TD*
D26*
G04 #@! TO.C,C48*
X33223200Y-41791700D03*
X33223200Y-40656700D03*
G04 #@! TD*
D13*
G04 #@! TO.C,C10*
X18558700Y-20243800D03*
X19693700Y-20243800D03*
G04 #@! TD*
D14*
G04 #@! TO.C,C46*
X32410400Y-20819300D03*
X32410400Y-21954300D03*
G04 #@! TD*
D25*
G04 #@! TO.C,R18*
X28272100Y-38150800D03*
X30097100Y-38150800D03*
G04 #@! TD*
D30*
G04 #@! TO.C,R15*
X35431100Y-19354800D03*
X33606100Y-19354800D03*
G04 #@! TD*
D31*
G04 #@! TO.C,D1*
X28027600Y-19354800D03*
X26277600Y-19354800D03*
G04 #@! TD*
D13*
G04 #@! TO.C,C31*
X29201300Y-29438600D03*
X30336300Y-29438600D03*
G04 #@! TD*
D26*
G04 #@! TO.C,C19*
X71348600Y-34425700D03*
X71348600Y-33290700D03*
G04 #@! TD*
D30*
G04 #@! TO.C,R12*
X30122500Y-36449000D03*
X28297500Y-36449000D03*
G04 #@! TD*
D23*
G04 #@! TO.C,C2*
X34222500Y-39497000D03*
X33087500Y-39497000D03*
G04 #@! TD*
D13*
G04 #@! TO.C,C13*
X68215700Y-36093400D03*
X69350700Y-36093400D03*
G04 #@! TD*
D25*
G04 #@! TO.C,R2*
X47144300Y-19405600D03*
X48969300Y-19405600D03*
G04 #@! TD*
D13*
G04 #@! TO.C,C9*
X26915300Y-35026600D03*
X28050300Y-35026600D03*
G04 #@! TD*
G04 #@! TO.C,C33*
X29226700Y-25069800D03*
X30361700Y-25069800D03*
G04 #@! TD*
D23*
G04 #@! TO.C,C14*
X58174700Y-36271200D03*
X57039700Y-36271200D03*
G04 #@! TD*
D12*
G04 #@! TO.C,R10*
X27025600Y-31294700D03*
X27025600Y-33119700D03*
G04 #@! TD*
D14*
G04 #@! TO.C,C47*
X33451800Y-20819300D03*
X33451800Y-21954300D03*
G04 #@! TD*
G04 #@! TO.C,C23*
X46431200Y-20819300D03*
X46431200Y-21954300D03*
G04 #@! TD*
D23*
G04 #@! TO.C,C1*
X30361700Y-35026600D03*
X29226700Y-35026600D03*
G04 #@! TD*
D32*
G04 #@! TO.C,Y1*
X36097600Y-40386000D03*
X39797600Y-40386000D03*
G04 #@! TD*
D13*
G04 #@! TO.C,C27*
X29235400Y-27228800D03*
X30370400Y-27228800D03*
G04 #@! TD*
D24*
G04 #@! TO.C,R1*
X42926000Y-41552500D03*
X42926000Y-39727500D03*
G04 #@! TD*
D26*
G04 #@! TO.C,C6*
X34290000Y-41766300D03*
X34290000Y-40631300D03*
G04 #@! TD*
D12*
G04 #@! TO.C,R5*
X24358600Y-39725600D03*
X24358600Y-41550600D03*
G04 #@! TD*
D14*
G04 #@! TO.C,C34*
X45313600Y-20819300D03*
X45313600Y-21954300D03*
G04 #@! TD*
D30*
G04 #@! TO.C,R17*
X42822500Y-19354800D03*
X40997500Y-19354800D03*
G04 #@! TD*
G04 #@! TO.C,R6*
X26185500Y-36497900D03*
X24360500Y-36497900D03*
G04 #@! TD*
D13*
G04 #@! TO.C,C20*
X70755700Y-38303200D03*
X71890700Y-38303200D03*
G04 #@! TD*
D24*
G04 #@! TO.C,R4*
X26212800Y-22731100D03*
X26212800Y-20906100D03*
G04 #@! TD*
D13*
G04 #@! TO.C,C36*
X29201300Y-31673800D03*
X30336300Y-31673800D03*
G04 #@! TD*
D23*
G04 #@! TO.C,C4*
X83066700Y-41732200D03*
X81931700Y-41732200D03*
G04 #@! TD*
D13*
G04 #@! TO.C,C44*
X29226700Y-24003000D03*
X30361700Y-24003000D03*
G04 #@! TD*
D30*
G04 #@! TO.C,R16*
X39164900Y-19354800D03*
X37339900Y-19354800D03*
G04 #@! TD*
G04 #@! TO.C,R7*
X26185500Y-38098100D03*
X24360500Y-38098100D03*
G04 #@! TD*
M02*
