G04 #@! TF.GenerationSoftware,KiCad,Pcbnew,7.0.1-0*
G04 #@! TF.CreationDate,2023-04-12T11:12:59+08:00*
G04 #@! TF.ProjectId,slimarm_classic_2410,736c696d-6172-46d5-9f63-6c6173736963,rev?*
G04 #@! TF.SameCoordinates,Original*
G04 #@! TF.FileFunction,Legend,Bot*
G04 #@! TF.FilePolarity,Positive*
%FSLAX46Y46*%
G04 Gerber Fmt 4.6, Leading zero omitted, Abs format (unit mm)*
G04 Created by KiCad (PCBNEW 7.0.1-0) date 2023-04-12 11:12:59*
%MOMM*%
%LPD*%
G01*
G04 APERTURE LIST*
%ADD10C,0.150000*%
%ADD11C,0.200000*%
%ADD12C,0.300000*%
%ADD13C,0.120000*%
%ADD14C,0.650000*%
%ADD15O,1.000000X2.100000*%
%ADD16O,1.000000X1.600000*%
G04 APERTURE END LIST*
D10*
X33830000Y-32910000D02*
X33830000Y-47130000D01*
D11*
X57680281Y-38979154D02*
X57680281Y-38298202D01*
X57680281Y-38298202D02*
X57742186Y-38174392D01*
X57742186Y-38174392D02*
X57865995Y-38112488D01*
X57865995Y-38112488D02*
X58113614Y-38112488D01*
X58113614Y-38112488D02*
X58237424Y-38174392D01*
X57680281Y-38917250D02*
X57804090Y-38979154D01*
X57804090Y-38979154D02*
X58113614Y-38979154D01*
X58113614Y-38979154D02*
X58237424Y-38917250D01*
X58237424Y-38917250D02*
X58299328Y-38793440D01*
X58299328Y-38793440D02*
X58299328Y-38669630D01*
X58299328Y-38669630D02*
X58237424Y-38545821D01*
X58237424Y-38545821D02*
X58113614Y-38483916D01*
X58113614Y-38483916D02*
X57804090Y-38483916D01*
X57804090Y-38483916D02*
X57680281Y-38422011D01*
X56875519Y-38979154D02*
X56999329Y-38917250D01*
X56999329Y-38917250D02*
X57061234Y-38793440D01*
X57061234Y-38793440D02*
X57061234Y-37679154D01*
X56380282Y-38979154D02*
X56380282Y-38112488D01*
X56380282Y-38236297D02*
X56318377Y-38174392D01*
X56318377Y-38174392D02*
X56194567Y-38112488D01*
X56194567Y-38112488D02*
X56008853Y-38112488D01*
X56008853Y-38112488D02*
X55885044Y-38174392D01*
X55885044Y-38174392D02*
X55823139Y-38298202D01*
X55823139Y-38298202D02*
X55823139Y-38979154D01*
X55823139Y-38298202D02*
X55761234Y-38174392D01*
X55761234Y-38174392D02*
X55637425Y-38112488D01*
X55637425Y-38112488D02*
X55451710Y-38112488D01*
X55451710Y-38112488D02*
X55327901Y-38174392D01*
X55327901Y-38174392D02*
X55265996Y-38298202D01*
X55265996Y-38298202D02*
X55265996Y-38979154D01*
X54461234Y-38979154D02*
X54585044Y-38917250D01*
X54585044Y-38917250D02*
X54646949Y-38855345D01*
X54646949Y-38855345D02*
X54708853Y-38731535D01*
X54708853Y-38731535D02*
X54708853Y-38360107D01*
X54708853Y-38360107D02*
X54646949Y-38236297D01*
X54646949Y-38236297D02*
X54585044Y-38174392D01*
X54585044Y-38174392D02*
X54461234Y-38112488D01*
X54461234Y-38112488D02*
X54275520Y-38112488D01*
X54275520Y-38112488D02*
X54151711Y-38174392D01*
X54151711Y-38174392D02*
X54089806Y-38236297D01*
X54089806Y-38236297D02*
X54027901Y-38360107D01*
X54027901Y-38360107D02*
X54027901Y-38731535D01*
X54027901Y-38731535D02*
X54089806Y-38855345D01*
X54089806Y-38855345D02*
X54151711Y-38917250D01*
X54151711Y-38917250D02*
X54275520Y-38979154D01*
X54275520Y-38979154D02*
X54461234Y-38979154D01*
X53470759Y-38112488D02*
X53470759Y-38979154D01*
X53470759Y-38236297D02*
X53408854Y-38174392D01*
X53408854Y-38174392D02*
X53285044Y-38112488D01*
X53285044Y-38112488D02*
X53099330Y-38112488D01*
X53099330Y-38112488D02*
X52975521Y-38174392D01*
X52975521Y-38174392D02*
X52913616Y-38298202D01*
X52913616Y-38298202D02*
X52913616Y-38979154D01*
X51737426Y-38979154D02*
X51737426Y-37679154D01*
X51737426Y-38917250D02*
X51861235Y-38979154D01*
X51861235Y-38979154D02*
X52108854Y-38979154D01*
X52108854Y-38979154D02*
X52232664Y-38917250D01*
X52232664Y-38917250D02*
X52294569Y-38855345D01*
X52294569Y-38855345D02*
X52356473Y-38731535D01*
X52356473Y-38731535D02*
X52356473Y-38360107D01*
X52356473Y-38360107D02*
X52294569Y-38236297D01*
X52294569Y-38236297D02*
X52232664Y-38174392D01*
X52232664Y-38174392D02*
X52108854Y-38112488D01*
X52108854Y-38112488D02*
X51861235Y-38112488D01*
X51861235Y-38112488D02*
X51737426Y-38174392D01*
X50746950Y-39474392D02*
X50808855Y-39412488D01*
X50808855Y-39412488D02*
X50932664Y-39226773D01*
X50932664Y-39226773D02*
X50994569Y-39102964D01*
X50994569Y-39102964D02*
X51056474Y-38917250D01*
X51056474Y-38917250D02*
X51118379Y-38607726D01*
X51118379Y-38607726D02*
X51118379Y-38360107D01*
X51118379Y-38360107D02*
X51056474Y-38050583D01*
X51056474Y-38050583D02*
X50994569Y-37864869D01*
X50994569Y-37864869D02*
X50932664Y-37741059D01*
X50932664Y-37741059D02*
X50808855Y-37555345D01*
X50808855Y-37555345D02*
X50746950Y-37493440D01*
X50313616Y-38917250D02*
X50189807Y-38979154D01*
X50189807Y-38979154D02*
X49942188Y-38979154D01*
X49942188Y-38979154D02*
X49818378Y-38917250D01*
X49818378Y-38917250D02*
X49756474Y-38793440D01*
X49756474Y-38793440D02*
X49756474Y-38731535D01*
X49756474Y-38731535D02*
X49818378Y-38607726D01*
X49818378Y-38607726D02*
X49942188Y-38545821D01*
X49942188Y-38545821D02*
X50127902Y-38545821D01*
X50127902Y-38545821D02*
X50251712Y-38483916D01*
X50251712Y-38483916D02*
X50313616Y-38360107D01*
X50313616Y-38360107D02*
X50313616Y-38298202D01*
X50313616Y-38298202D02*
X50251712Y-38174392D01*
X50251712Y-38174392D02*
X50127902Y-38112488D01*
X50127902Y-38112488D02*
X49942188Y-38112488D01*
X49942188Y-38112488D02*
X49818378Y-38174392D01*
X49013616Y-38979154D02*
X49137426Y-38917250D01*
X49137426Y-38917250D02*
X49199331Y-38793440D01*
X49199331Y-38793440D02*
X49199331Y-37679154D01*
X47961236Y-38979154D02*
X47961236Y-38298202D01*
X47961236Y-38298202D02*
X48023141Y-38174392D01*
X48023141Y-38174392D02*
X48146950Y-38112488D01*
X48146950Y-38112488D02*
X48394569Y-38112488D01*
X48394569Y-38112488D02*
X48518379Y-38174392D01*
X47961236Y-38917250D02*
X48085045Y-38979154D01*
X48085045Y-38979154D02*
X48394569Y-38979154D01*
X48394569Y-38979154D02*
X48518379Y-38917250D01*
X48518379Y-38917250D02*
X48580283Y-38793440D01*
X48580283Y-38793440D02*
X48580283Y-38669630D01*
X48580283Y-38669630D02*
X48518379Y-38545821D01*
X48518379Y-38545821D02*
X48394569Y-38483916D01*
X48394569Y-38483916D02*
X48085045Y-38483916D01*
X48085045Y-38483916D02*
X47961236Y-38422011D01*
X47342189Y-38979154D02*
X47342189Y-38112488D01*
X47342189Y-38360107D02*
X47280284Y-38236297D01*
X47280284Y-38236297D02*
X47218379Y-38174392D01*
X47218379Y-38174392D02*
X47094570Y-38112488D01*
X47094570Y-38112488D02*
X46970760Y-38112488D01*
X46537427Y-38979154D02*
X46537427Y-38112488D01*
X46537427Y-38236297D02*
X46475522Y-38174392D01*
X46475522Y-38174392D02*
X46351712Y-38112488D01*
X46351712Y-38112488D02*
X46165998Y-38112488D01*
X46165998Y-38112488D02*
X46042189Y-38174392D01*
X46042189Y-38174392D02*
X45980284Y-38298202D01*
X45980284Y-38298202D02*
X45980284Y-38979154D01*
X45980284Y-38298202D02*
X45918379Y-38174392D01*
X45918379Y-38174392D02*
X45794570Y-38112488D01*
X45794570Y-38112488D02*
X45608855Y-38112488D01*
X45608855Y-38112488D02*
X45485046Y-38174392D01*
X45485046Y-38174392D02*
X45423141Y-38298202D01*
X45423141Y-38298202D02*
X45423141Y-38979154D01*
X45113618Y-39102964D02*
X44123141Y-39102964D01*
X43256475Y-38917250D02*
X43380284Y-38979154D01*
X43380284Y-38979154D02*
X43627903Y-38979154D01*
X43627903Y-38979154D02*
X43751713Y-38917250D01*
X43751713Y-38917250D02*
X43813618Y-38855345D01*
X43813618Y-38855345D02*
X43875522Y-38731535D01*
X43875522Y-38731535D02*
X43875522Y-38360107D01*
X43875522Y-38360107D02*
X43813618Y-38236297D01*
X43813618Y-38236297D02*
X43751713Y-38174392D01*
X43751713Y-38174392D02*
X43627903Y-38112488D01*
X43627903Y-38112488D02*
X43380284Y-38112488D01*
X43380284Y-38112488D02*
X43256475Y-38174392D01*
X42513617Y-38979154D02*
X42637427Y-38917250D01*
X42637427Y-38917250D02*
X42699332Y-38793440D01*
X42699332Y-38793440D02*
X42699332Y-37679154D01*
X42080284Y-38917250D02*
X41956475Y-38979154D01*
X41956475Y-38979154D02*
X41708856Y-38979154D01*
X41708856Y-38979154D02*
X41585046Y-38917250D01*
X41585046Y-38917250D02*
X41523142Y-38793440D01*
X41523142Y-38793440D02*
X41523142Y-38731535D01*
X41523142Y-38731535D02*
X41585046Y-38607726D01*
X41585046Y-38607726D02*
X41708856Y-38545821D01*
X41708856Y-38545821D02*
X41894570Y-38545821D01*
X41894570Y-38545821D02*
X42018380Y-38483916D01*
X42018380Y-38483916D02*
X42080284Y-38360107D01*
X42080284Y-38360107D02*
X42080284Y-38298202D01*
X42080284Y-38298202D02*
X42018380Y-38174392D01*
X42018380Y-38174392D02*
X41894570Y-38112488D01*
X41894570Y-38112488D02*
X41708856Y-38112488D01*
X41708856Y-38112488D02*
X41585046Y-38174392D01*
X41275523Y-39102964D02*
X40285046Y-39102964D01*
X40037427Y-37802964D02*
X39975523Y-37741059D01*
X39975523Y-37741059D02*
X39851713Y-37679154D01*
X39851713Y-37679154D02*
X39542189Y-37679154D01*
X39542189Y-37679154D02*
X39418380Y-37741059D01*
X39418380Y-37741059D02*
X39356475Y-37802964D01*
X39356475Y-37802964D02*
X39294570Y-37926773D01*
X39294570Y-37926773D02*
X39294570Y-38050583D01*
X39294570Y-38050583D02*
X39356475Y-38236297D01*
X39356475Y-38236297D02*
X40099332Y-38979154D01*
X40099332Y-38979154D02*
X39294570Y-38979154D01*
X38180285Y-38112488D02*
X38180285Y-38979154D01*
X38489809Y-37617250D02*
X38799332Y-38545821D01*
X38799332Y-38545821D02*
X37994571Y-38545821D01*
X36818380Y-38979154D02*
X37561237Y-38979154D01*
X37189809Y-38979154D02*
X37189809Y-37679154D01*
X37189809Y-37679154D02*
X37313618Y-37864869D01*
X37313618Y-37864869D02*
X37437428Y-37988678D01*
X37437428Y-37988678D02*
X37561237Y-38050583D01*
X36013619Y-37679154D02*
X35889809Y-37679154D01*
X35889809Y-37679154D02*
X35766000Y-37741059D01*
X35766000Y-37741059D02*
X35704095Y-37802964D01*
X35704095Y-37802964D02*
X35642190Y-37926773D01*
X35642190Y-37926773D02*
X35580285Y-38174392D01*
X35580285Y-38174392D02*
X35580285Y-38483916D01*
X35580285Y-38483916D02*
X35642190Y-38731535D01*
X35642190Y-38731535D02*
X35704095Y-38855345D01*
X35704095Y-38855345D02*
X35766000Y-38917250D01*
X35766000Y-38917250D02*
X35889809Y-38979154D01*
X35889809Y-38979154D02*
X36013619Y-38979154D01*
X36013619Y-38979154D02*
X36137428Y-38917250D01*
X36137428Y-38917250D02*
X36199333Y-38855345D01*
X36199333Y-38855345D02*
X36261238Y-38731535D01*
X36261238Y-38731535D02*
X36323142Y-38483916D01*
X36323142Y-38483916D02*
X36323142Y-38174392D01*
X36323142Y-38174392D02*
X36261238Y-37926773D01*
X36261238Y-37926773D02*
X36199333Y-37802964D01*
X36199333Y-37802964D02*
X36137428Y-37741059D01*
X36137428Y-37741059D02*
X36013619Y-37679154D01*
X35146952Y-39474392D02*
X35085047Y-39412488D01*
X35085047Y-39412488D02*
X34961238Y-39226773D01*
X34961238Y-39226773D02*
X34899333Y-39102964D01*
X34899333Y-39102964D02*
X34837428Y-38917250D01*
X34837428Y-38917250D02*
X34775524Y-38607726D01*
X34775524Y-38607726D02*
X34775524Y-38360107D01*
X34775524Y-38360107D02*
X34837428Y-38050583D01*
X34837428Y-38050583D02*
X34899333Y-37864869D01*
X34899333Y-37864869D02*
X34961238Y-37741059D01*
X34961238Y-37741059D02*
X35085047Y-37555345D01*
X35085047Y-37555345D02*
X35146952Y-37493440D01*
X43194570Y-40218488D02*
X42885046Y-41085154D01*
X42885046Y-41085154D02*
X42575523Y-40218488D01*
X42142189Y-39908964D02*
X42080285Y-39847059D01*
X42080285Y-39847059D02*
X41956475Y-39785154D01*
X41956475Y-39785154D02*
X41646951Y-39785154D01*
X41646951Y-39785154D02*
X41523142Y-39847059D01*
X41523142Y-39847059D02*
X41461237Y-39908964D01*
X41461237Y-39908964D02*
X41399332Y-40032773D01*
X41399332Y-40032773D02*
X41399332Y-40156583D01*
X41399332Y-40156583D02*
X41461237Y-40342297D01*
X41461237Y-40342297D02*
X42204094Y-41085154D01*
X42204094Y-41085154D02*
X41399332Y-41085154D01*
X40842190Y-41085154D02*
X40842190Y-40218488D01*
X40842190Y-40466107D02*
X40780285Y-40342297D01*
X40780285Y-40342297D02*
X40718380Y-40280392D01*
X40718380Y-40280392D02*
X40594571Y-40218488D01*
X40594571Y-40218488D02*
X40470761Y-40218488D01*
X39789809Y-39785154D02*
X39665999Y-39785154D01*
X39665999Y-39785154D02*
X39542190Y-39847059D01*
X39542190Y-39847059D02*
X39480285Y-39908964D01*
X39480285Y-39908964D02*
X39418380Y-40032773D01*
X39418380Y-40032773D02*
X39356475Y-40280392D01*
X39356475Y-40280392D02*
X39356475Y-40589916D01*
X39356475Y-40589916D02*
X39418380Y-40837535D01*
X39418380Y-40837535D02*
X39480285Y-40961345D01*
X39480285Y-40961345D02*
X39542190Y-41023250D01*
X39542190Y-41023250D02*
X39665999Y-41085154D01*
X39665999Y-41085154D02*
X39789809Y-41085154D01*
X39789809Y-41085154D02*
X39913618Y-41023250D01*
X39913618Y-41023250D02*
X39975523Y-40961345D01*
X39975523Y-40961345D02*
X40037428Y-40837535D01*
X40037428Y-40837535D02*
X40099332Y-40589916D01*
X40099332Y-40589916D02*
X40099332Y-40280392D01*
X40099332Y-40280392D02*
X40037428Y-40032773D01*
X40037428Y-40032773D02*
X39975523Y-39908964D01*
X39975523Y-39908964D02*
X39913618Y-39847059D01*
X39913618Y-39847059D02*
X39789809Y-39785154D01*
X38923142Y-41085154D02*
X38242190Y-40218488D01*
X38923142Y-40218488D02*
X38242190Y-41085154D01*
X37065999Y-41085154D02*
X37808856Y-41085154D01*
X37437428Y-41085154D02*
X37437428Y-39785154D01*
X37437428Y-39785154D02*
X37561237Y-39970869D01*
X37561237Y-39970869D02*
X37685047Y-40094678D01*
X37685047Y-40094678D02*
X37808856Y-40156583D01*
X36446952Y-41085154D02*
X36199333Y-41085154D01*
X36199333Y-41085154D02*
X36075523Y-41023250D01*
X36075523Y-41023250D02*
X36013619Y-40961345D01*
X36013619Y-40961345D02*
X35889809Y-40775630D01*
X35889809Y-40775630D02*
X35827904Y-40528011D01*
X35827904Y-40528011D02*
X35827904Y-40032773D01*
X35827904Y-40032773D02*
X35889809Y-39908964D01*
X35889809Y-39908964D02*
X35951714Y-39847059D01*
X35951714Y-39847059D02*
X36075523Y-39785154D01*
X36075523Y-39785154D02*
X36323142Y-39785154D01*
X36323142Y-39785154D02*
X36446952Y-39847059D01*
X36446952Y-39847059D02*
X36508857Y-39908964D01*
X36508857Y-39908964D02*
X36570761Y-40032773D01*
X36570761Y-40032773D02*
X36570761Y-40342297D01*
X36570761Y-40342297D02*
X36508857Y-40466107D01*
X36508857Y-40466107D02*
X36446952Y-40528011D01*
X36446952Y-40528011D02*
X36323142Y-40589916D01*
X36323142Y-40589916D02*
X36075523Y-40589916D01*
X36075523Y-40589916D02*
X35951714Y-40528011D01*
X35951714Y-40528011D02*
X35889809Y-40466107D01*
X35889809Y-40466107D02*
X35827904Y-40342297D01*
X34713619Y-41023250D02*
X34837428Y-41085154D01*
X34837428Y-41085154D02*
X35085047Y-41085154D01*
X35085047Y-41085154D02*
X35208857Y-41023250D01*
X35208857Y-41023250D02*
X35270762Y-40961345D01*
X35270762Y-40961345D02*
X35332666Y-40837535D01*
X35332666Y-40837535D02*
X35332666Y-40466107D01*
X35332666Y-40466107D02*
X35270762Y-40342297D01*
X35270762Y-40342297D02*
X35208857Y-40280392D01*
X35208857Y-40280392D02*
X35085047Y-40218488D01*
X35085047Y-40218488D02*
X34837428Y-40218488D01*
X34837428Y-40218488D02*
X34713619Y-40280392D01*
X60527902Y-42324488D02*
X60527902Y-43376869D01*
X60527902Y-43376869D02*
X60589807Y-43500678D01*
X60589807Y-43500678D02*
X60651711Y-43562583D01*
X60651711Y-43562583D02*
X60775521Y-43624488D01*
X60775521Y-43624488D02*
X60961235Y-43624488D01*
X60961235Y-43624488D02*
X61085045Y-43562583D01*
X60527902Y-43129250D02*
X60651711Y-43191154D01*
X60651711Y-43191154D02*
X60899330Y-43191154D01*
X60899330Y-43191154D02*
X61023140Y-43129250D01*
X61023140Y-43129250D02*
X61085045Y-43067345D01*
X61085045Y-43067345D02*
X61146949Y-42943535D01*
X61146949Y-42943535D02*
X61146949Y-42572107D01*
X61146949Y-42572107D02*
X61085045Y-42448297D01*
X61085045Y-42448297D02*
X61023140Y-42386392D01*
X61023140Y-42386392D02*
X60899330Y-42324488D01*
X60899330Y-42324488D02*
X60651711Y-42324488D01*
X60651711Y-42324488D02*
X60527902Y-42386392D01*
X59908855Y-43191154D02*
X59908855Y-42324488D01*
X59908855Y-41891154D02*
X59970759Y-41953059D01*
X59970759Y-41953059D02*
X59908855Y-42014964D01*
X59908855Y-42014964D02*
X59846950Y-41953059D01*
X59846950Y-41953059D02*
X59908855Y-41891154D01*
X59908855Y-41891154D02*
X59908855Y-42014964D01*
X59475521Y-42324488D02*
X58980283Y-42324488D01*
X59289807Y-41891154D02*
X59289807Y-43005440D01*
X59289807Y-43005440D02*
X59227902Y-43129250D01*
X59227902Y-43129250D02*
X59104092Y-43191154D01*
X59104092Y-43191154D02*
X58980283Y-43191154D01*
X58546950Y-43191154D02*
X58546950Y-41891154D01*
X57989807Y-43191154D02*
X57989807Y-42510202D01*
X57989807Y-42510202D02*
X58051712Y-42386392D01*
X58051712Y-42386392D02*
X58175521Y-42324488D01*
X58175521Y-42324488D02*
X58361235Y-42324488D01*
X58361235Y-42324488D02*
X58485045Y-42386392D01*
X58485045Y-42386392D02*
X58546950Y-42448297D01*
X56813617Y-42324488D02*
X56813617Y-43191154D01*
X57370760Y-42324488D02*
X57370760Y-43005440D01*
X57370760Y-43005440D02*
X57308855Y-43129250D01*
X57308855Y-43129250D02*
X57185045Y-43191154D01*
X57185045Y-43191154D02*
X56999331Y-43191154D01*
X56999331Y-43191154D02*
X56875522Y-43129250D01*
X56875522Y-43129250D02*
X56813617Y-43067345D01*
X56194570Y-43191154D02*
X56194570Y-41891154D01*
X56194570Y-42386392D02*
X56070760Y-42324488D01*
X56070760Y-42324488D02*
X55823141Y-42324488D01*
X55823141Y-42324488D02*
X55699332Y-42386392D01*
X55699332Y-42386392D02*
X55637427Y-42448297D01*
X55637427Y-42448297D02*
X55575522Y-42572107D01*
X55575522Y-42572107D02*
X55575522Y-42943535D01*
X55575522Y-42943535D02*
X55637427Y-43067345D01*
X55637427Y-43067345D02*
X55699332Y-43129250D01*
X55699332Y-43129250D02*
X55823141Y-43191154D01*
X55823141Y-43191154D02*
X56070760Y-43191154D01*
X56070760Y-43191154D02*
X56194570Y-43129250D01*
X55018380Y-43067345D02*
X54956475Y-43129250D01*
X54956475Y-43129250D02*
X55018380Y-43191154D01*
X55018380Y-43191154D02*
X55080284Y-43129250D01*
X55080284Y-43129250D02*
X55018380Y-43067345D01*
X55018380Y-43067345D02*
X55018380Y-43191154D01*
X53842189Y-43129250D02*
X53965998Y-43191154D01*
X53965998Y-43191154D02*
X54213617Y-43191154D01*
X54213617Y-43191154D02*
X54337427Y-43129250D01*
X54337427Y-43129250D02*
X54399332Y-43067345D01*
X54399332Y-43067345D02*
X54461236Y-42943535D01*
X54461236Y-42943535D02*
X54461236Y-42572107D01*
X54461236Y-42572107D02*
X54399332Y-42448297D01*
X54399332Y-42448297D02*
X54337427Y-42386392D01*
X54337427Y-42386392D02*
X54213617Y-42324488D01*
X54213617Y-42324488D02*
X53965998Y-42324488D01*
X53965998Y-42324488D02*
X53842189Y-42386392D01*
X53099331Y-43191154D02*
X53223141Y-43129250D01*
X53223141Y-43129250D02*
X53285046Y-43067345D01*
X53285046Y-43067345D02*
X53346950Y-42943535D01*
X53346950Y-42943535D02*
X53346950Y-42572107D01*
X53346950Y-42572107D02*
X53285046Y-42448297D01*
X53285046Y-42448297D02*
X53223141Y-42386392D01*
X53223141Y-42386392D02*
X53099331Y-42324488D01*
X53099331Y-42324488D02*
X52913617Y-42324488D01*
X52913617Y-42324488D02*
X52789808Y-42386392D01*
X52789808Y-42386392D02*
X52727903Y-42448297D01*
X52727903Y-42448297D02*
X52665998Y-42572107D01*
X52665998Y-42572107D02*
X52665998Y-42943535D01*
X52665998Y-42943535D02*
X52727903Y-43067345D01*
X52727903Y-43067345D02*
X52789808Y-43129250D01*
X52789808Y-43129250D02*
X52913617Y-43191154D01*
X52913617Y-43191154D02*
X53099331Y-43191154D01*
X52108856Y-43191154D02*
X52108856Y-42324488D01*
X52108856Y-42448297D02*
X52046951Y-42386392D01*
X52046951Y-42386392D02*
X51923141Y-42324488D01*
X51923141Y-42324488D02*
X51737427Y-42324488D01*
X51737427Y-42324488D02*
X51613618Y-42386392D01*
X51613618Y-42386392D02*
X51551713Y-42510202D01*
X51551713Y-42510202D02*
X51551713Y-43191154D01*
X51551713Y-42510202D02*
X51489808Y-42386392D01*
X51489808Y-42386392D02*
X51365999Y-42324488D01*
X51365999Y-42324488D02*
X51180284Y-42324488D01*
X51180284Y-42324488D02*
X51056475Y-42386392D01*
X51056475Y-42386392D02*
X50994570Y-42510202D01*
X50994570Y-42510202D02*
X50994570Y-43191154D01*
X49446951Y-41829250D02*
X50561237Y-43500678D01*
X49013618Y-42324488D02*
X49013618Y-43438773D01*
X49013618Y-43438773D02*
X49075522Y-43562583D01*
X49075522Y-43562583D02*
X49199332Y-43624488D01*
X49199332Y-43624488D02*
X49261237Y-43624488D01*
X49013618Y-41891154D02*
X49075522Y-41953059D01*
X49075522Y-41953059D02*
X49013618Y-42014964D01*
X49013618Y-42014964D02*
X48951713Y-41953059D01*
X48951713Y-41953059D02*
X49013618Y-41891154D01*
X49013618Y-41891154D02*
X49013618Y-42014964D01*
X48208855Y-43191154D02*
X48332665Y-43129250D01*
X48332665Y-43129250D02*
X48394570Y-43005440D01*
X48394570Y-43005440D02*
X48394570Y-41891154D01*
X47837427Y-42324488D02*
X47527903Y-43191154D01*
X47218380Y-42324488D02*
X47527903Y-43191154D01*
X47527903Y-43191154D02*
X47651713Y-43500678D01*
X47651713Y-43500678D02*
X47713618Y-43562583D01*
X47713618Y-43562583D02*
X47837427Y-43624488D01*
X46846951Y-42324488D02*
X46599332Y-43191154D01*
X46599332Y-43191154D02*
X46351713Y-42572107D01*
X46351713Y-42572107D02*
X46104094Y-43191154D01*
X46104094Y-43191154D02*
X45856475Y-42324488D01*
X45485046Y-43191154D02*
X44804094Y-42324488D01*
X45485046Y-42324488D02*
X44804094Y-43191154D01*
X44432665Y-42324488D02*
X44123141Y-43191154D01*
X43813618Y-42324488D02*
X44123141Y-43191154D01*
X44123141Y-43191154D02*
X44246951Y-43500678D01*
X44246951Y-43500678D02*
X44308856Y-43562583D01*
X44308856Y-43562583D02*
X44432665Y-43624488D01*
X42389808Y-41829250D02*
X43504094Y-43500678D01*
X42018379Y-43129250D02*
X41894570Y-43191154D01*
X41894570Y-43191154D02*
X41646951Y-43191154D01*
X41646951Y-43191154D02*
X41523141Y-43129250D01*
X41523141Y-43129250D02*
X41461237Y-43005440D01*
X41461237Y-43005440D02*
X41461237Y-42943535D01*
X41461237Y-42943535D02*
X41523141Y-42819726D01*
X41523141Y-42819726D02*
X41646951Y-42757821D01*
X41646951Y-42757821D02*
X41832665Y-42757821D01*
X41832665Y-42757821D02*
X41956475Y-42695916D01*
X41956475Y-42695916D02*
X42018379Y-42572107D01*
X42018379Y-42572107D02*
X42018379Y-42510202D01*
X42018379Y-42510202D02*
X41956475Y-42386392D01*
X41956475Y-42386392D02*
X41832665Y-42324488D01*
X41832665Y-42324488D02*
X41646951Y-42324488D01*
X41646951Y-42324488D02*
X41523141Y-42386392D01*
X40718379Y-43191154D02*
X40842189Y-43129250D01*
X40842189Y-43129250D02*
X40904094Y-43005440D01*
X40904094Y-43005440D02*
X40904094Y-41891154D01*
X40223142Y-43191154D02*
X40223142Y-42324488D01*
X40223142Y-41891154D02*
X40285046Y-41953059D01*
X40285046Y-41953059D02*
X40223142Y-42014964D01*
X40223142Y-42014964D02*
X40161237Y-41953059D01*
X40161237Y-41953059D02*
X40223142Y-41891154D01*
X40223142Y-41891154D02*
X40223142Y-42014964D01*
X39604094Y-43191154D02*
X39604094Y-42324488D01*
X39604094Y-42448297D02*
X39542189Y-42386392D01*
X39542189Y-42386392D02*
X39418379Y-42324488D01*
X39418379Y-42324488D02*
X39232665Y-42324488D01*
X39232665Y-42324488D02*
X39108856Y-42386392D01*
X39108856Y-42386392D02*
X39046951Y-42510202D01*
X39046951Y-42510202D02*
X39046951Y-43191154D01*
X39046951Y-42510202D02*
X38985046Y-42386392D01*
X38985046Y-42386392D02*
X38861237Y-42324488D01*
X38861237Y-42324488D02*
X38675522Y-42324488D01*
X38675522Y-42324488D02*
X38551713Y-42386392D01*
X38551713Y-42386392D02*
X38489808Y-42510202D01*
X38489808Y-42510202D02*
X38489808Y-43191154D01*
X37313618Y-43191154D02*
X37313618Y-42510202D01*
X37313618Y-42510202D02*
X37375523Y-42386392D01*
X37375523Y-42386392D02*
X37499332Y-42324488D01*
X37499332Y-42324488D02*
X37746951Y-42324488D01*
X37746951Y-42324488D02*
X37870761Y-42386392D01*
X37313618Y-43129250D02*
X37437427Y-43191154D01*
X37437427Y-43191154D02*
X37746951Y-43191154D01*
X37746951Y-43191154D02*
X37870761Y-43129250D01*
X37870761Y-43129250D02*
X37932665Y-43005440D01*
X37932665Y-43005440D02*
X37932665Y-42881630D01*
X37932665Y-42881630D02*
X37870761Y-42757821D01*
X37870761Y-42757821D02*
X37746951Y-42695916D01*
X37746951Y-42695916D02*
X37437427Y-42695916D01*
X37437427Y-42695916D02*
X37313618Y-42634011D01*
X36694571Y-43191154D02*
X36694571Y-42324488D01*
X36694571Y-42572107D02*
X36632666Y-42448297D01*
X36632666Y-42448297D02*
X36570761Y-42386392D01*
X36570761Y-42386392D02*
X36446952Y-42324488D01*
X36446952Y-42324488D02*
X36323142Y-42324488D01*
X35889809Y-43191154D02*
X35889809Y-42324488D01*
X35889809Y-42448297D02*
X35827904Y-42386392D01*
X35827904Y-42386392D02*
X35704094Y-42324488D01*
X35704094Y-42324488D02*
X35518380Y-42324488D01*
X35518380Y-42324488D02*
X35394571Y-42386392D01*
X35394571Y-42386392D02*
X35332666Y-42510202D01*
X35332666Y-42510202D02*
X35332666Y-43191154D01*
X35332666Y-42510202D02*
X35270761Y-42386392D01*
X35270761Y-42386392D02*
X35146952Y-42324488D01*
X35146952Y-42324488D02*
X34961237Y-42324488D01*
X34961237Y-42324488D02*
X34837428Y-42386392D01*
X34837428Y-42386392D02*
X34775523Y-42510202D01*
X34775523Y-42510202D02*
X34775523Y-43191154D01*
X47510475Y-44860904D02*
X47510475Y-45789476D01*
X47510475Y-45789476D02*
X47572380Y-45975190D01*
X47572380Y-45975190D02*
X47696189Y-46099000D01*
X47696189Y-46099000D02*
X47881904Y-46160904D01*
X47881904Y-46160904D02*
X48005713Y-46160904D01*
X46272380Y-46160904D02*
X46891428Y-46160904D01*
X46891428Y-46160904D02*
X46891428Y-44860904D01*
X45096190Y-46037095D02*
X45158094Y-46099000D01*
X45158094Y-46099000D02*
X45343809Y-46160904D01*
X45343809Y-46160904D02*
X45467618Y-46160904D01*
X45467618Y-46160904D02*
X45653332Y-46099000D01*
X45653332Y-46099000D02*
X45777142Y-45975190D01*
X45777142Y-45975190D02*
X45839047Y-45851380D01*
X45839047Y-45851380D02*
X45900951Y-45603761D01*
X45900951Y-45603761D02*
X45900951Y-45418047D01*
X45900951Y-45418047D02*
X45839047Y-45170428D01*
X45839047Y-45170428D02*
X45777142Y-45046619D01*
X45777142Y-45046619D02*
X45653332Y-44922809D01*
X45653332Y-44922809D02*
X45467618Y-44860904D01*
X45467618Y-44860904D02*
X45343809Y-44860904D01*
X45343809Y-44860904D02*
X45158094Y-44922809D01*
X45158094Y-44922809D02*
X45096190Y-44984714D01*
X44167618Y-44860904D02*
X44167618Y-45789476D01*
X44167618Y-45789476D02*
X44229523Y-45975190D01*
X44229523Y-45975190D02*
X44353332Y-46099000D01*
X44353332Y-46099000D02*
X44539047Y-46160904D01*
X44539047Y-46160904D02*
X44662856Y-46160904D01*
X42929523Y-46160904D02*
X43548571Y-46160904D01*
X43548571Y-46160904D02*
X43548571Y-44860904D01*
X41753333Y-46037095D02*
X41815237Y-46099000D01*
X41815237Y-46099000D02*
X42000952Y-46160904D01*
X42000952Y-46160904D02*
X42124761Y-46160904D01*
X42124761Y-46160904D02*
X42310475Y-46099000D01*
X42310475Y-46099000D02*
X42434285Y-45975190D01*
X42434285Y-45975190D02*
X42496190Y-45851380D01*
X42496190Y-45851380D02*
X42558094Y-45603761D01*
X42558094Y-45603761D02*
X42558094Y-45418047D01*
X42558094Y-45418047D02*
X42496190Y-45170428D01*
X42496190Y-45170428D02*
X42434285Y-45046619D01*
X42434285Y-45046619D02*
X42310475Y-44922809D01*
X42310475Y-44922809D02*
X42124761Y-44860904D01*
X42124761Y-44860904D02*
X42000952Y-44860904D01*
X42000952Y-44860904D02*
X41815237Y-44922809D01*
X41815237Y-44922809D02*
X41753333Y-44984714D01*
X40824761Y-44860904D02*
X40824761Y-45789476D01*
X40824761Y-45789476D02*
X40886666Y-45975190D01*
X40886666Y-45975190D02*
X41010475Y-46099000D01*
X41010475Y-46099000D02*
X41196190Y-46160904D01*
X41196190Y-46160904D02*
X41319999Y-46160904D01*
X39586666Y-46160904D02*
X40205714Y-46160904D01*
X40205714Y-46160904D02*
X40205714Y-44860904D01*
X38410476Y-46037095D02*
X38472380Y-46099000D01*
X38472380Y-46099000D02*
X38658095Y-46160904D01*
X38658095Y-46160904D02*
X38781904Y-46160904D01*
X38781904Y-46160904D02*
X38967618Y-46099000D01*
X38967618Y-46099000D02*
X39091428Y-45975190D01*
X39091428Y-45975190D02*
X39153333Y-45851380D01*
X39153333Y-45851380D02*
X39215237Y-45603761D01*
X39215237Y-45603761D02*
X39215237Y-45418047D01*
X39215237Y-45418047D02*
X39153333Y-45170428D01*
X39153333Y-45170428D02*
X39091428Y-45046619D01*
X39091428Y-45046619D02*
X38967618Y-44922809D01*
X38967618Y-44922809D02*
X38781904Y-44860904D01*
X38781904Y-44860904D02*
X38658095Y-44860904D01*
X38658095Y-44860904D02*
X38472380Y-44922809D01*
X38472380Y-44922809D02*
X38410476Y-44984714D01*
X37481904Y-44860904D02*
X37481904Y-45789476D01*
X37481904Y-45789476D02*
X37543809Y-45975190D01*
X37543809Y-45975190D02*
X37667618Y-46099000D01*
X37667618Y-46099000D02*
X37853333Y-46160904D01*
X37853333Y-46160904D02*
X37977142Y-46160904D01*
X36243809Y-46160904D02*
X36862857Y-46160904D01*
X36862857Y-46160904D02*
X36862857Y-44860904D01*
X35067619Y-46037095D02*
X35129523Y-46099000D01*
X35129523Y-46099000D02*
X35315238Y-46160904D01*
X35315238Y-46160904D02*
X35439047Y-46160904D01*
X35439047Y-46160904D02*
X35624761Y-46099000D01*
X35624761Y-46099000D02*
X35748571Y-45975190D01*
X35748571Y-45975190D02*
X35810476Y-45851380D01*
X35810476Y-45851380D02*
X35872380Y-45603761D01*
X35872380Y-45603761D02*
X35872380Y-45418047D01*
X35872380Y-45418047D02*
X35810476Y-45170428D01*
X35810476Y-45170428D02*
X35748571Y-45046619D01*
X35748571Y-45046619D02*
X35624761Y-44922809D01*
X35624761Y-44922809D02*
X35439047Y-44860904D01*
X35439047Y-44860904D02*
X35315238Y-44860904D01*
X35315238Y-44860904D02*
X35129523Y-44922809D01*
X35129523Y-44922809D02*
X35067619Y-44984714D01*
D12*
X54165238Y-34718000D02*
X53936666Y-34794190D01*
X53936666Y-34794190D02*
X53555714Y-34794190D01*
X53555714Y-34794190D02*
X53403333Y-34718000D01*
X53403333Y-34718000D02*
X53327142Y-34641809D01*
X53327142Y-34641809D02*
X53250952Y-34489428D01*
X53250952Y-34489428D02*
X53250952Y-34337047D01*
X53250952Y-34337047D02*
X53327142Y-34184666D01*
X53327142Y-34184666D02*
X53403333Y-34108476D01*
X53403333Y-34108476D02*
X53555714Y-34032285D01*
X53555714Y-34032285D02*
X53860476Y-33956095D01*
X53860476Y-33956095D02*
X54012857Y-33879904D01*
X54012857Y-33879904D02*
X54089047Y-33803714D01*
X54089047Y-33803714D02*
X54165238Y-33651333D01*
X54165238Y-33651333D02*
X54165238Y-33498952D01*
X54165238Y-33498952D02*
X54089047Y-33346571D01*
X54089047Y-33346571D02*
X54012857Y-33270380D01*
X54012857Y-33270380D02*
X53860476Y-33194190D01*
X53860476Y-33194190D02*
X53479523Y-33194190D01*
X53479523Y-33194190D02*
X53250952Y-33270380D01*
X52336666Y-34794190D02*
X52489047Y-34718000D01*
X52489047Y-34718000D02*
X52565237Y-34565619D01*
X52565237Y-34565619D02*
X52565237Y-33194190D01*
X51727142Y-34794190D02*
X51727142Y-33727523D01*
X51727142Y-33194190D02*
X51803333Y-33270380D01*
X51803333Y-33270380D02*
X51727142Y-33346571D01*
X51727142Y-33346571D02*
X51650952Y-33270380D01*
X51650952Y-33270380D02*
X51727142Y-33194190D01*
X51727142Y-33194190D02*
X51727142Y-33346571D01*
X50965237Y-34794190D02*
X50965237Y-33727523D01*
X50965237Y-33879904D02*
X50889047Y-33803714D01*
X50889047Y-33803714D02*
X50736666Y-33727523D01*
X50736666Y-33727523D02*
X50508094Y-33727523D01*
X50508094Y-33727523D02*
X50355713Y-33803714D01*
X50355713Y-33803714D02*
X50279523Y-33956095D01*
X50279523Y-33956095D02*
X50279523Y-34794190D01*
X50279523Y-33956095D02*
X50203332Y-33803714D01*
X50203332Y-33803714D02*
X50050951Y-33727523D01*
X50050951Y-33727523D02*
X49822380Y-33727523D01*
X49822380Y-33727523D02*
X49669999Y-33803714D01*
X49669999Y-33803714D02*
X49593809Y-33956095D01*
X49593809Y-33956095D02*
X49593809Y-34794190D01*
X48908095Y-34337047D02*
X48146190Y-34337047D01*
X49060476Y-34794190D02*
X48527142Y-33194190D01*
X48527142Y-33194190D02*
X47993809Y-34794190D01*
X46546189Y-34794190D02*
X47079523Y-34032285D01*
X47460475Y-34794190D02*
X47460475Y-33194190D01*
X47460475Y-33194190D02*
X46850951Y-33194190D01*
X46850951Y-33194190D02*
X46698570Y-33270380D01*
X46698570Y-33270380D02*
X46622380Y-33346571D01*
X46622380Y-33346571D02*
X46546189Y-33498952D01*
X46546189Y-33498952D02*
X46546189Y-33727523D01*
X46546189Y-33727523D02*
X46622380Y-33879904D01*
X46622380Y-33879904D02*
X46698570Y-33956095D01*
X46698570Y-33956095D02*
X46850951Y-34032285D01*
X46850951Y-34032285D02*
X47460475Y-34032285D01*
X45860475Y-34794190D02*
X45860475Y-33194190D01*
X45860475Y-33194190D02*
X45327142Y-34337047D01*
X45327142Y-34337047D02*
X44793808Y-33194190D01*
X44793808Y-33194190D02*
X44793808Y-34794190D01*
X41898570Y-34641809D02*
X41974761Y-34718000D01*
X41974761Y-34718000D02*
X42203332Y-34794190D01*
X42203332Y-34794190D02*
X42355713Y-34794190D01*
X42355713Y-34794190D02*
X42584285Y-34718000D01*
X42584285Y-34718000D02*
X42736666Y-34565619D01*
X42736666Y-34565619D02*
X42812856Y-34413238D01*
X42812856Y-34413238D02*
X42889047Y-34108476D01*
X42889047Y-34108476D02*
X42889047Y-33879904D01*
X42889047Y-33879904D02*
X42812856Y-33575142D01*
X42812856Y-33575142D02*
X42736666Y-33422761D01*
X42736666Y-33422761D02*
X42584285Y-33270380D01*
X42584285Y-33270380D02*
X42355713Y-33194190D01*
X42355713Y-33194190D02*
X42203332Y-33194190D01*
X42203332Y-33194190D02*
X41974761Y-33270380D01*
X41974761Y-33270380D02*
X41898570Y-33346571D01*
X40984285Y-34794190D02*
X41136666Y-34718000D01*
X41136666Y-34718000D02*
X41212856Y-34565619D01*
X41212856Y-34565619D02*
X41212856Y-33194190D01*
X39689047Y-34794190D02*
X39689047Y-33956095D01*
X39689047Y-33956095D02*
X39765237Y-33803714D01*
X39765237Y-33803714D02*
X39917618Y-33727523D01*
X39917618Y-33727523D02*
X40222380Y-33727523D01*
X40222380Y-33727523D02*
X40374761Y-33803714D01*
X39689047Y-34718000D02*
X39841428Y-34794190D01*
X39841428Y-34794190D02*
X40222380Y-34794190D01*
X40222380Y-34794190D02*
X40374761Y-34718000D01*
X40374761Y-34718000D02*
X40450952Y-34565619D01*
X40450952Y-34565619D02*
X40450952Y-34413238D01*
X40450952Y-34413238D02*
X40374761Y-34260857D01*
X40374761Y-34260857D02*
X40222380Y-34184666D01*
X40222380Y-34184666D02*
X39841428Y-34184666D01*
X39841428Y-34184666D02*
X39689047Y-34108476D01*
X39003333Y-34718000D02*
X38850952Y-34794190D01*
X38850952Y-34794190D02*
X38546190Y-34794190D01*
X38546190Y-34794190D02*
X38393809Y-34718000D01*
X38393809Y-34718000D02*
X38317618Y-34565619D01*
X38317618Y-34565619D02*
X38317618Y-34489428D01*
X38317618Y-34489428D02*
X38393809Y-34337047D01*
X38393809Y-34337047D02*
X38546190Y-34260857D01*
X38546190Y-34260857D02*
X38774761Y-34260857D01*
X38774761Y-34260857D02*
X38927142Y-34184666D01*
X38927142Y-34184666D02*
X39003333Y-34032285D01*
X39003333Y-34032285D02*
X39003333Y-33956095D01*
X39003333Y-33956095D02*
X38927142Y-33803714D01*
X38927142Y-33803714D02*
X38774761Y-33727523D01*
X38774761Y-33727523D02*
X38546190Y-33727523D01*
X38546190Y-33727523D02*
X38393809Y-33803714D01*
X37708095Y-34718000D02*
X37555714Y-34794190D01*
X37555714Y-34794190D02*
X37250952Y-34794190D01*
X37250952Y-34794190D02*
X37098571Y-34718000D01*
X37098571Y-34718000D02*
X37022380Y-34565619D01*
X37022380Y-34565619D02*
X37022380Y-34489428D01*
X37022380Y-34489428D02*
X37098571Y-34337047D01*
X37098571Y-34337047D02*
X37250952Y-34260857D01*
X37250952Y-34260857D02*
X37479523Y-34260857D01*
X37479523Y-34260857D02*
X37631904Y-34184666D01*
X37631904Y-34184666D02*
X37708095Y-34032285D01*
X37708095Y-34032285D02*
X37708095Y-33956095D01*
X37708095Y-33956095D02*
X37631904Y-33803714D01*
X37631904Y-33803714D02*
X37479523Y-33727523D01*
X37479523Y-33727523D02*
X37250952Y-33727523D01*
X37250952Y-33727523D02*
X37098571Y-33803714D01*
X36336666Y-34794190D02*
X36336666Y-33727523D01*
X36336666Y-33194190D02*
X36412857Y-33270380D01*
X36412857Y-33270380D02*
X36336666Y-33346571D01*
X36336666Y-33346571D02*
X36260476Y-33270380D01*
X36260476Y-33270380D02*
X36336666Y-33194190D01*
X36336666Y-33194190D02*
X36336666Y-33346571D01*
X34889047Y-34718000D02*
X35041428Y-34794190D01*
X35041428Y-34794190D02*
X35346190Y-34794190D01*
X35346190Y-34794190D02*
X35498571Y-34718000D01*
X35498571Y-34718000D02*
X35574761Y-34641809D01*
X35574761Y-34641809D02*
X35650952Y-34489428D01*
X35650952Y-34489428D02*
X35650952Y-34032285D01*
X35650952Y-34032285D02*
X35574761Y-33879904D01*
X35574761Y-33879904D02*
X35498571Y-33803714D01*
X35498571Y-33803714D02*
X35346190Y-33727523D01*
X35346190Y-33727523D02*
X35041428Y-33727523D01*
X35041428Y-33727523D02*
X34889047Y-33803714D01*
D13*
G04 #@! TO.C,J2*
X36097000Y-12750000D02*
G75*
G03*
X36097000Y-12750000I-381000J0D01*
G01*
G04 #@! TO.C,J3*
X57172000Y-12650000D02*
G75*
G03*
X57172000Y-12650000I-381000J0D01*
G01*
G04 #@! TD*
%LPC*%
D14*
G04 #@! TO.C,J1*
X30576000Y-13417500D03*
X24796000Y-13417500D03*
D15*
X32006000Y-13947500D03*
D16*
X32006000Y-9767500D03*
D15*
X23366000Y-13947500D03*
D16*
X23366000Y-9767500D03*
G04 #@! TD*
D14*
G04 #@! TO.C,J4*
X24796000Y-41420250D03*
X30576000Y-41420250D03*
D15*
X23366000Y-40890250D03*
D16*
X23366000Y-45070250D03*
D15*
X32006000Y-40890250D03*
D16*
X32006000Y-45070250D03*
G04 #@! TD*
M02*
