G04 #@! TF.GenerationSoftware,KiCad,Pcbnew,7.0.1-0*
G04 #@! TF.CreationDate,2023-04-12T11:12:59+08:00*
G04 #@! TF.ProjectId,slimarm_classic_2410,736c696d-6172-46d5-9f63-6c6173736963,rev?*
G04 #@! TF.SameCoordinates,Original*
G04 #@! TF.FileFunction,Soldermask,Top*
G04 #@! TF.FilePolarity,Negative*
%FSLAX46Y46*%
G04 Gerber Fmt 4.6, Leading zero omitted, Abs format (unit mm)*
G04 Created by KiCad (PCBNEW 7.0.1-0) date 2023-04-12 11:12:59*
%MOMM*%
%LPD*%
G01*
G04 APERTURE LIST*
G04 Aperture macros list*
%AMRoundRect*
0 Rectangle with rounded corners*
0 $1 Rounding radius*
0 $2 $3 $4 $5 $6 $7 $8 $9 X,Y pos of 4 corners*
0 Add a 4 corners polygon primitive as box body*
4,1,4,$2,$3,$4,$5,$6,$7,$8,$9,$2,$3,0*
0 Add four circle primitives for the rounded corners*
1,1,$1+$1,$2,$3*
1,1,$1+$1,$4,$5*
1,1,$1+$1,$6,$7*
1,1,$1+$1,$8,$9*
0 Add four rect primitives between the rounded corners*
20,1,$1+$1,$2,$3,$4,$5,0*
20,1,$1+$1,$4,$5,$6,$7,0*
20,1,$1+$1,$6,$7,$8,$9,0*
20,1,$1+$1,$8,$9,$2,$3,0*%
G04 Aperture macros list end*
%ADD10RoundRect,0.237500X-0.250000X-0.237500X0.250000X-0.237500X0.250000X0.237500X-0.250000X0.237500X0*%
%ADD11RoundRect,0.150000X0.150000X-0.739000X0.150000X0.739000X-0.150000X0.739000X-0.150000X-0.739000X0*%
%ADD12RoundRect,0.155000X-0.212500X-0.155000X0.212500X-0.155000X0.212500X0.155000X-0.212500X0.155000X0*%
%ADD13RoundRect,0.155000X-0.155000X0.212500X-0.155000X-0.212500X0.155000X-0.212500X0.155000X0.212500X0*%
%ADD14C,0.410000*%
%ADD15RoundRect,0.160000X-0.160000X0.197500X-0.160000X-0.197500X0.160000X-0.197500X0.160000X0.197500X0*%
%ADD16RoundRect,0.160000X0.197500X0.160000X-0.197500X0.160000X-0.197500X-0.160000X0.197500X-0.160000X0*%
%ADD17C,0.650000*%
%ADD18R,0.600000X2.000000*%
%ADD19R,0.300000X2.000000*%
%ADD20R,0.600000X1.450000*%
%ADD21O,1.000000X2.100000*%
%ADD22O,1.000000X1.600000*%
%ADD23RoundRect,0.237500X0.287500X0.237500X-0.287500X0.237500X-0.287500X-0.237500X0.287500X-0.237500X0*%
%ADD24RoundRect,0.155000X0.212500X0.155000X-0.212500X0.155000X-0.212500X-0.155000X0.212500X-0.155000X0*%
%ADD25R,0.711200X1.600000*%
%ADD26R,1.600200X2.209800*%
%ADD27RoundRect,0.237500X0.237500X-0.250000X0.237500X0.250000X-0.237500X0.250000X-0.237500X-0.250000X0*%
%ADD28RoundRect,0.160000X0.160000X-0.197500X0.160000X0.197500X-0.160000X0.197500X-0.160000X-0.197500X0*%
%ADD29RoundRect,0.237500X-0.237500X0.250000X-0.237500X-0.250000X0.237500X-0.250000X0.237500X0.250000X0*%
%ADD30RoundRect,0.155000X0.155000X-0.212500X0.155000X0.212500X-0.155000X0.212500X-0.155000X-0.212500X0*%
%ADD31RoundRect,0.237500X0.250000X0.237500X-0.250000X0.237500X-0.250000X-0.237500X0.250000X-0.237500X0*%
%ADD32RoundRect,0.160000X-0.197500X-0.160000X0.197500X-0.160000X0.197500X0.160000X-0.197500X0.160000X0*%
%ADD33R,0.508000X1.693800*%
%ADD34R,2.182700X0.254000*%
%ADD35RoundRect,0.150000X0.150000X-0.825000X0.150000X0.825000X-0.150000X0.825000X-0.150000X-0.825000X0*%
%ADD36R,2.000000X2.400000*%
G04 APERTURE END LIST*
D10*
G04 #@! TO.C,R7*
X25757500Y-36830000D03*
X27582500Y-36830000D03*
G04 #@! TD*
D11*
G04 #@! TO.C,U3*
X55650000Y-45212500D03*
X57550000Y-45212500D03*
X56600000Y-43337500D03*
G04 #@! TD*
D12*
G04 #@! TO.C,C45*
X51476000Y-46919000D03*
X52611000Y-46919000D03*
G04 #@! TD*
D13*
G04 #@! TO.C,C21*
X35364000Y-14242500D03*
X35364000Y-15377500D03*
G04 #@! TD*
G04 #@! TO.C,C40*
X34036000Y-18332500D03*
X34036000Y-19467500D03*
G04 #@! TD*
D12*
G04 #@! TO.C,C35*
X25340500Y-35560000D03*
X26475500Y-35560000D03*
G04 #@! TD*
G04 #@! TO.C,C43*
X23054500Y-29718000D03*
X24189500Y-29718000D03*
G04 #@! TD*
G04 #@! TO.C,C11*
X44310500Y-45850000D03*
X45445500Y-45850000D03*
G04 #@! TD*
D14*
G04 #@! TO.C,IC1*
X38650000Y-21100000D03*
X38650000Y-21900000D03*
X38650000Y-22700000D03*
X38650000Y-23500000D03*
X38650000Y-24300000D03*
X38650000Y-25100000D03*
X38650000Y-25900000D03*
X38650000Y-26700000D03*
X38650000Y-27500000D03*
X38650000Y-28300000D03*
X38650000Y-29100000D03*
X38650000Y-29900000D03*
X38650000Y-30700000D03*
X38650000Y-31500000D03*
X38650000Y-32300000D03*
X38650000Y-33100000D03*
X38650000Y-33900000D03*
X37850000Y-21100000D03*
X37850000Y-21900000D03*
X37850000Y-22700000D03*
X37850000Y-23500000D03*
X37850000Y-24300000D03*
X37850000Y-25100000D03*
X37850000Y-25900000D03*
X37850000Y-26700000D03*
X37850000Y-27500000D03*
X37850000Y-28300000D03*
X37850000Y-29100000D03*
X37850000Y-29900000D03*
X37850000Y-30700000D03*
X37850000Y-31500000D03*
X37850000Y-32300000D03*
X37850000Y-33100000D03*
X37850000Y-33900000D03*
X37050000Y-21100000D03*
X37050000Y-21900000D03*
X37050000Y-22700000D03*
X37050000Y-23500000D03*
X37050000Y-24300000D03*
X37050000Y-25100000D03*
X37050000Y-25900000D03*
X37050000Y-26700000D03*
X37050000Y-27500000D03*
X37050000Y-28300000D03*
X37050000Y-29100000D03*
X37050000Y-29900000D03*
X37050000Y-30700000D03*
X37050000Y-31500000D03*
X37050000Y-32300000D03*
X37050000Y-33100000D03*
X37050000Y-33900000D03*
X36250000Y-21100000D03*
X36250000Y-21900000D03*
X36250000Y-22700000D03*
X36250000Y-23500000D03*
X36250000Y-24300000D03*
X36250000Y-25100000D03*
X36250000Y-25900000D03*
X36250000Y-26700000D03*
X36250000Y-27500000D03*
X36250000Y-28300000D03*
X36250000Y-29100000D03*
X36250000Y-29900000D03*
X36250000Y-30700000D03*
X36250000Y-31500000D03*
X36250000Y-32300000D03*
X36250000Y-33100000D03*
X36250000Y-33900000D03*
X35450000Y-21100000D03*
X35450000Y-21900000D03*
X35450000Y-22700000D03*
X35450000Y-23500000D03*
X35450000Y-24300000D03*
X35450000Y-25100000D03*
X35450000Y-25900000D03*
X35450000Y-26700000D03*
X35450000Y-27500000D03*
X35450000Y-28300000D03*
X35450000Y-29100000D03*
X35450000Y-29900000D03*
X35450000Y-30700000D03*
X35450000Y-31500000D03*
X35450000Y-32300000D03*
X35450000Y-33100000D03*
X35450000Y-33900000D03*
X34650000Y-21100000D03*
X34650000Y-21900000D03*
X34650000Y-22700000D03*
X34650000Y-23500000D03*
X34650000Y-24300000D03*
X34650000Y-25100000D03*
X34650000Y-25900000D03*
X34650000Y-26700000D03*
X34650000Y-27500000D03*
X34650000Y-28300000D03*
X34650000Y-29100000D03*
X34650000Y-29900000D03*
X34650000Y-30700000D03*
X34650000Y-31500000D03*
X34650000Y-32300000D03*
X34650000Y-33100000D03*
X34650000Y-33900000D03*
X33850000Y-21100000D03*
X33850000Y-21900000D03*
X33850000Y-22700000D03*
X33850000Y-23500000D03*
X33850000Y-24300000D03*
X33850000Y-25100000D03*
X33850000Y-25900000D03*
X33850000Y-27500000D03*
X33850000Y-29100000D03*
X33850000Y-29900000D03*
X33850000Y-30700000D03*
X33850000Y-31500000D03*
X33850000Y-32300000D03*
X33850000Y-33100000D03*
X33850000Y-33900000D03*
X33050000Y-21100000D03*
X33050000Y-21900000D03*
X33050000Y-22700000D03*
X33050000Y-23500000D03*
X33050000Y-24300000D03*
X33050000Y-25100000D03*
X33050000Y-29900000D03*
X33050000Y-30700000D03*
X33050000Y-31500000D03*
X33050000Y-32300000D03*
X33050000Y-33100000D03*
X33050000Y-33900000D03*
X32250000Y-21100000D03*
X32250000Y-21900000D03*
X32250000Y-22700000D03*
X32250000Y-23500000D03*
X32250000Y-24300000D03*
X32250000Y-25100000D03*
X32250000Y-25900000D03*
X32250000Y-29100000D03*
X32250000Y-29900000D03*
X32250000Y-30700000D03*
X32250000Y-31500000D03*
X32250000Y-32300000D03*
X32250000Y-33100000D03*
X32250000Y-33900000D03*
X31450000Y-21100000D03*
X31450000Y-21900000D03*
X31450000Y-22700000D03*
X31450000Y-23500000D03*
X31450000Y-24300000D03*
X31450000Y-25100000D03*
X31450000Y-29900000D03*
X31450000Y-30700000D03*
X31450000Y-31500000D03*
X31450000Y-32300000D03*
X31450000Y-33100000D03*
X31450000Y-33900000D03*
X30650000Y-21100000D03*
X30650000Y-21900000D03*
X30650000Y-22700000D03*
X30650000Y-23500000D03*
X30650000Y-24300000D03*
X30650000Y-25100000D03*
X30650000Y-25900000D03*
X30650000Y-27500000D03*
X30650000Y-29100000D03*
X30650000Y-29900000D03*
X30650000Y-30700000D03*
X30650000Y-31500000D03*
X30650000Y-32300000D03*
X30650000Y-33100000D03*
X30650000Y-33900000D03*
X29850000Y-21100000D03*
X29850000Y-21900000D03*
X29850000Y-22700000D03*
X29850000Y-23500000D03*
X29850000Y-24300000D03*
X29850000Y-25100000D03*
X29850000Y-25900000D03*
X29850000Y-26700000D03*
X29850000Y-27500000D03*
X29850000Y-28300000D03*
X29850000Y-29100000D03*
X29850000Y-29900000D03*
X29850000Y-30700000D03*
X29850000Y-31500000D03*
X29850000Y-32300000D03*
X29850000Y-33100000D03*
X29850000Y-33900000D03*
X29050000Y-21100000D03*
X29050000Y-21900000D03*
X29050000Y-22700000D03*
X29050000Y-23500000D03*
X29050000Y-24300000D03*
X29050000Y-25100000D03*
X29050000Y-25900000D03*
X29050000Y-26700000D03*
X29050000Y-27500000D03*
X29050000Y-28300000D03*
X29050000Y-29100000D03*
X29050000Y-29900000D03*
X29050000Y-30700000D03*
X29050000Y-31500000D03*
X29050000Y-32300000D03*
X29050000Y-33100000D03*
X29050000Y-33900000D03*
X28250000Y-21100000D03*
X28250000Y-21900000D03*
X28250000Y-22700000D03*
X28250000Y-23500000D03*
X28250000Y-24300000D03*
X28250000Y-25100000D03*
X28250000Y-25900000D03*
X28250000Y-26700000D03*
X28250000Y-27500000D03*
X28250000Y-28300000D03*
X28250000Y-29100000D03*
X28250000Y-29900000D03*
X28250000Y-30700000D03*
X28250000Y-31500000D03*
X28250000Y-32300000D03*
X28250000Y-33100000D03*
X28250000Y-33900000D03*
X27450000Y-21100000D03*
X27450000Y-21900000D03*
X27450000Y-22700000D03*
X27450000Y-23500000D03*
X27450000Y-24300000D03*
X27450000Y-25100000D03*
X27450000Y-25900000D03*
X27450000Y-26700000D03*
X27450000Y-27500000D03*
X27450000Y-28300000D03*
X27450000Y-29100000D03*
X27450000Y-29900000D03*
X27450000Y-30700000D03*
X27450000Y-31500000D03*
X27450000Y-32300000D03*
X27450000Y-33100000D03*
X27450000Y-33900000D03*
X26650000Y-21100000D03*
X26650000Y-21900000D03*
X26650000Y-22700000D03*
X26650000Y-23500000D03*
X26650000Y-24300000D03*
X26650000Y-25100000D03*
X26650000Y-25900000D03*
X26650000Y-26700000D03*
X26650000Y-27500000D03*
X26650000Y-28300000D03*
X26650000Y-29100000D03*
X26650000Y-29900000D03*
X26650000Y-30700000D03*
X26650000Y-31500000D03*
X26650000Y-32300000D03*
X26650000Y-33100000D03*
X26650000Y-33900000D03*
X25850000Y-21100000D03*
X25850000Y-21900000D03*
X25850000Y-22700000D03*
X25850000Y-23500000D03*
X25850000Y-24300000D03*
X25850000Y-25100000D03*
X25850000Y-25900000D03*
X25850000Y-26700000D03*
X25850000Y-27500000D03*
X25850000Y-28300000D03*
X25850000Y-29100000D03*
X25850000Y-29900000D03*
X25850000Y-30700000D03*
X25850000Y-31500000D03*
X25850000Y-32300000D03*
X25850000Y-33100000D03*
X25850000Y-33900000D03*
G04 #@! TD*
D15*
G04 #@! TO.C,R21*
X43180000Y-29300000D03*
X43180000Y-30495000D03*
G04 #@! TD*
D16*
G04 #@! TO.C,R25*
X45457500Y-40770000D03*
X44262500Y-40770000D03*
G04 #@! TD*
D17*
G04 #@! TO.C,J1*
X30576000Y-13417500D03*
X24796000Y-13417500D03*
D18*
X30936000Y-15217500D03*
X30136000Y-15217500D03*
D19*
X28936000Y-15217500D03*
X27936000Y-15217500D03*
X27436000Y-15217500D03*
X26436000Y-15217500D03*
D18*
X25236000Y-15217500D03*
X24436000Y-15217500D03*
X24436000Y-15217500D03*
D20*
X25236000Y-15217500D03*
D19*
X25936000Y-15217500D03*
X26936000Y-15217500D03*
X28436000Y-15217500D03*
X29436000Y-15217500D03*
D20*
X30136000Y-15217500D03*
X30936000Y-15317500D03*
D21*
X32006000Y-13947500D03*
D22*
X32006000Y-9767500D03*
D21*
X23366000Y-13947500D03*
D22*
X23366000Y-9767500D03*
G04 #@! TD*
D23*
G04 #@! TO.C,D2*
X65542500Y-41944000D03*
X63792500Y-41944000D03*
G04 #@! TD*
D13*
G04 #@! TO.C,C18*
X38100000Y-18332500D03*
X38100000Y-19467500D03*
G04 #@! TD*
D12*
G04 #@! TO.C,C28*
X23054500Y-35822000D03*
X24189500Y-35822000D03*
G04 #@! TD*
D24*
G04 #@! TO.C,C26*
X57917500Y-27900000D03*
X56782500Y-27900000D03*
G04 #@! TD*
D25*
G04 #@! TO.C,J2*
X37925000Y-12750000D03*
X39175000Y-12750000D03*
X40425000Y-12750000D03*
X41675000Y-12750000D03*
X42925000Y-12750000D03*
X44175000Y-12750000D03*
X45425000Y-12750000D03*
D26*
X47672100Y-9448000D03*
X35677900Y-9448000D03*
G04 #@! TD*
D12*
G04 #@! TO.C,C30*
X23054500Y-36830000D03*
X24189500Y-36830000D03*
G04 #@! TD*
G04 #@! TO.C,C8*
X50992500Y-41900000D03*
X52127500Y-41900000D03*
G04 #@! TD*
D13*
G04 #@! TO.C,C25*
X69510000Y-34192500D03*
X69510000Y-35327500D03*
G04 #@! TD*
D27*
G04 #@! TO.C,R3*
X67200000Y-43852500D03*
X67200000Y-42027500D03*
G04 #@! TD*
D28*
G04 #@! TO.C,R20*
X44196000Y-28209000D03*
X44196000Y-27014000D03*
G04 #@! TD*
D15*
G04 #@! TO.C,R23*
X44196000Y-29300000D03*
X44196000Y-30495000D03*
G04 #@! TD*
D13*
G04 #@! TO.C,C15*
X55725000Y-11607500D03*
X55725000Y-12742500D03*
G04 #@! TD*
D12*
G04 #@! TO.C,C41*
X23054500Y-20574000D03*
X24189500Y-20574000D03*
G04 #@! TD*
D13*
G04 #@! TO.C,C24*
X39116000Y-18332500D03*
X39116000Y-19467500D03*
G04 #@! TD*
D24*
G04 #@! TO.C,C5*
X49569000Y-45850000D03*
X48434000Y-45850000D03*
G04 #@! TD*
D29*
G04 #@! TO.C,R14*
X52650000Y-8000000D03*
X52650000Y-9825000D03*
G04 #@! TD*
D16*
G04 #@! TO.C,R18*
X27682500Y-18870000D03*
X26487500Y-18870000D03*
G04 #@! TD*
D30*
G04 #@! TO.C,C12*
X39878000Y-36695000D03*
X39878000Y-35560000D03*
G04 #@! TD*
D29*
G04 #@! TO.C,R9*
X34036000Y-9755500D03*
X34036000Y-11580500D03*
G04 #@! TD*
D12*
G04 #@! TO.C,C7*
X55812500Y-41770000D03*
X56947500Y-41770000D03*
G04 #@! TD*
G04 #@! TO.C,C38*
X23054500Y-31750000D03*
X24189500Y-31750000D03*
G04 #@! TD*
D23*
G04 #@! TO.C,D3*
X65567500Y-45500000D03*
X63817500Y-45500000D03*
G04 #@! TD*
D13*
G04 #@! TO.C,C22*
X37076000Y-18332500D03*
X37076000Y-19467500D03*
G04 #@! TD*
D25*
G04 #@! TO.C,J3*
X59000000Y-12650000D03*
X60250000Y-12650000D03*
X61500000Y-12650000D03*
X62750000Y-12650000D03*
X64000000Y-12650000D03*
X65250000Y-12650000D03*
X66500000Y-12650000D03*
D26*
X68747100Y-9348000D03*
X56752900Y-9348000D03*
G04 #@! TD*
D11*
G04 #@! TO.C,U2*
X51027500Y-45316500D03*
X52927500Y-45316500D03*
X51977500Y-43441500D03*
G04 #@! TD*
D13*
G04 #@! TO.C,C39*
X35052000Y-18332500D03*
X35052000Y-19467500D03*
G04 #@! TD*
D27*
G04 #@! TO.C,R8*
X34036000Y-15136500D03*
X34036000Y-13311500D03*
G04 #@! TD*
D31*
G04 #@! TO.C,R13*
X69042500Y-45490000D03*
X67217500Y-45490000D03*
G04 #@! TD*
D13*
G04 #@! TO.C,C3*
X69480000Y-26712500D03*
X69480000Y-27847500D03*
G04 #@! TD*
D32*
G04 #@! TO.C,R11*
X28707500Y-17760000D03*
X29902500Y-17760000D03*
G04 #@! TD*
D13*
G04 #@! TO.C,C32*
X51000000Y-11632500D03*
X51000000Y-12767500D03*
G04 #@! TD*
D33*
G04 #@! TO.C,U4*
X46919375Y-26363350D03*
X47719475Y-26363350D03*
X48519575Y-26363350D03*
X49319675Y-26363350D03*
X50119775Y-26363350D03*
X50919875Y-26363350D03*
X51719975Y-26363350D03*
X52520075Y-26363350D03*
X53320175Y-26363350D03*
X54120275Y-26363350D03*
X54920375Y-26363350D03*
X55720475Y-26363350D03*
X56520575Y-26363350D03*
X57320675Y-26363350D03*
X58120775Y-26363350D03*
X58920875Y-26363350D03*
X59720975Y-26363350D03*
X60521075Y-26363350D03*
X61321175Y-26363350D03*
X62121275Y-26363350D03*
X62921375Y-26363350D03*
X63721475Y-26363350D03*
X64521575Y-26363350D03*
X65321675Y-26363350D03*
X66121775Y-26363350D03*
X66921875Y-26363350D03*
X67721975Y-26363350D03*
X67721975Y-14882550D03*
X66921875Y-14882550D03*
X66121775Y-14882550D03*
X65321675Y-14882550D03*
X64521575Y-14882550D03*
X63721475Y-14882550D03*
X62921375Y-14882550D03*
X62121275Y-14882550D03*
X61321175Y-14882550D03*
X60521075Y-14882550D03*
X59720975Y-14882550D03*
X58920875Y-14882550D03*
X58120775Y-14882550D03*
X57320675Y-14882550D03*
X56520575Y-14882550D03*
X55720475Y-14882550D03*
X54920375Y-14882550D03*
X54120275Y-14882550D03*
X53320175Y-14882550D03*
X52520075Y-14882550D03*
X51719975Y-14882550D03*
X50919875Y-14882550D03*
X50119775Y-14882550D03*
X49319675Y-14882550D03*
X48519575Y-14882550D03*
X47719475Y-14882550D03*
X46919375Y-14882550D03*
G04 #@! TD*
D12*
G04 #@! TO.C,C37*
X23054500Y-30734000D03*
X24189500Y-30734000D03*
G04 #@! TD*
G04 #@! TO.C,C29*
X23054500Y-28194000D03*
X24189500Y-28194000D03*
G04 #@! TD*
D34*
G04 #@! TO.C,U5*
X67735475Y-40537499D03*
X67735475Y-40037500D03*
X67735475Y-39537501D03*
X67735475Y-39037499D03*
X67735475Y-38537500D03*
X67735475Y-38037501D03*
X67735475Y-37537500D03*
X67735475Y-37037501D03*
X67735475Y-36537499D03*
X67735475Y-36037500D03*
X67735475Y-35537501D03*
X67735475Y-35037500D03*
X67735475Y-34537500D03*
X67735475Y-34037499D03*
X67735475Y-33537500D03*
X67735475Y-33037501D03*
X67735475Y-32537499D03*
X67735475Y-32037500D03*
X67735475Y-31537499D03*
X67735475Y-31037500D03*
X67735475Y-30537501D03*
X67735475Y-30037499D03*
X67735475Y-29537500D03*
X67735475Y-29037499D03*
X48063175Y-29037501D03*
X48063175Y-29537500D03*
X48063175Y-30037499D03*
X48063175Y-30537501D03*
X48063175Y-31037500D03*
X48063175Y-31537501D03*
X48063175Y-32037500D03*
X48063175Y-32537499D03*
X48063175Y-33037501D03*
X48063175Y-33537500D03*
X48063175Y-34037502D03*
X48063175Y-34537500D03*
X48063175Y-35037500D03*
X48063175Y-35537501D03*
X48063175Y-36037500D03*
X48063175Y-36537499D03*
X48063175Y-37037501D03*
X48063175Y-37537500D03*
X48063175Y-38037501D03*
X48063175Y-38537500D03*
X48063175Y-39037499D03*
X48063175Y-39537501D03*
X48063175Y-40037500D03*
X48063175Y-40537501D03*
G04 #@! TD*
D35*
G04 #@! TO.C,U1*
X33965000Y-45105000D03*
X35235000Y-45105000D03*
X36505000Y-45105000D03*
X37775000Y-45105000D03*
X39045000Y-45105000D03*
X40315000Y-45105000D03*
X41585000Y-45105000D03*
X42855000Y-45105000D03*
X42855000Y-40155000D03*
X41585000Y-40155000D03*
X40315000Y-40155000D03*
X39045000Y-40155000D03*
X37775000Y-40155000D03*
X36505000Y-40155000D03*
X35235000Y-40155000D03*
X33965000Y-40155000D03*
G04 #@! TD*
D12*
G04 #@! TO.C,C42*
X23054500Y-33782000D03*
X24189500Y-33782000D03*
G04 #@! TD*
D24*
G04 #@! TO.C,C10*
X53857500Y-27910000D03*
X52722500Y-27910000D03*
G04 #@! TD*
D13*
G04 #@! TO.C,C46*
X33020000Y-18332500D03*
X33020000Y-19467500D03*
G04 #@! TD*
D29*
G04 #@! TO.C,R15*
X54180000Y-8007500D03*
X54180000Y-9832500D03*
G04 #@! TD*
D12*
G04 #@! TO.C,C31*
X23054500Y-27178000D03*
X24189500Y-27178000D03*
G04 #@! TD*
D13*
G04 #@! TO.C,C19*
X36380000Y-14242500D03*
X36380000Y-15377500D03*
G04 #@! TD*
D12*
G04 #@! TO.C,C2*
X27626500Y-35560000D03*
X28761500Y-35560000D03*
G04 #@! TD*
D13*
G04 #@! TO.C,C13*
X45920000Y-34222500D03*
X45920000Y-35357500D03*
G04 #@! TD*
D28*
G04 #@! TO.C,R22*
X43180000Y-28209000D03*
X43180000Y-27014000D03*
G04 #@! TD*
D29*
G04 #@! TO.C,R2*
X42894000Y-36250000D03*
X42894000Y-38075000D03*
G04 #@! TD*
D12*
G04 #@! TO.C,C9*
X23054500Y-32766000D03*
X24189500Y-32766000D03*
G04 #@! TD*
G04 #@! TO.C,C33*
X23054500Y-22606000D03*
X24189500Y-22606000D03*
G04 #@! TD*
D23*
G04 #@! TO.C,D1*
X65567500Y-43722000D03*
X63817500Y-43722000D03*
G04 #@! TD*
D12*
G04 #@! TO.C,C14*
X56032500Y-46815000D03*
X57167500Y-46815000D03*
G04 #@! TD*
D16*
G04 #@! TO.C,R10*
X27697500Y-17750000D03*
X26502500Y-17750000D03*
G04 #@! TD*
D13*
G04 #@! TO.C,C47*
X32004000Y-18332500D03*
X32004000Y-19467500D03*
G04 #@! TD*
G04 #@! TO.C,C23*
X36068000Y-18332500D03*
X36068000Y-19467500D03*
G04 #@! TD*
D12*
G04 #@! TO.C,C1*
X29912500Y-35560000D03*
X31047500Y-35560000D03*
G04 #@! TD*
D36*
G04 #@! TO.C,Y1*
X34218000Y-36900000D03*
X37918000Y-36900000D03*
G04 #@! TD*
D12*
G04 #@! TO.C,C27*
X67092500Y-27950000D03*
X68227500Y-27950000D03*
G04 #@! TD*
D32*
G04 #@! TO.C,R19*
X28692500Y-18880000D03*
X29887500Y-18880000D03*
G04 #@! TD*
D27*
G04 #@! TO.C,R1*
X41370000Y-38075000D03*
X41370000Y-36250000D03*
G04 #@! TD*
D36*
G04 #@! TO.C,Y2*
X48760000Y-43310000D03*
X45060000Y-43310000D03*
G04 #@! TD*
D30*
G04 #@! TO.C,C6*
X32258000Y-36695000D03*
X32258000Y-35560000D03*
G04 #@! TD*
D17*
G04 #@! TO.C,J4*
X24796000Y-41420250D03*
X30576000Y-41420250D03*
D20*
X24436000Y-39975250D03*
X25236000Y-39975250D03*
D19*
X26436000Y-39672750D03*
X27436000Y-39672750D03*
X27936000Y-39672750D03*
X28936000Y-39672750D03*
D20*
X30136000Y-39975250D03*
X30936000Y-39975250D03*
D18*
X30936000Y-39672750D03*
X30136000Y-39672750D03*
D19*
X29436000Y-39672750D03*
X28436000Y-39672750D03*
X26936000Y-39672750D03*
X25936000Y-39672750D03*
D18*
X25236000Y-39672750D03*
X24436000Y-39672750D03*
D21*
X23366000Y-40890250D03*
D22*
X23366000Y-45070250D03*
D21*
X32006000Y-40890250D03*
D22*
X32006000Y-45070250D03*
G04 #@! TD*
D10*
G04 #@! TO.C,R5*
X60305000Y-41994000D03*
X62130000Y-41994000D03*
G04 #@! TD*
D12*
G04 #@! TO.C,C16*
X36552500Y-46910000D03*
X37687500Y-46910000D03*
G04 #@! TD*
G04 #@! TO.C,C34*
X23054500Y-23622000D03*
X24189500Y-23622000D03*
G04 #@! TD*
D29*
G04 #@! TO.C,R17*
X49550000Y-7987500D03*
X49550000Y-9812500D03*
G04 #@! TD*
D10*
G04 #@! TO.C,R6*
X60305000Y-45494000D03*
X62130000Y-45494000D03*
G04 #@! TD*
D12*
G04 #@! TO.C,C20*
X23054500Y-26162000D03*
X24189500Y-26162000D03*
G04 #@! TD*
G04 #@! TO.C,C36*
X23054500Y-34798000D03*
X24189500Y-34798000D03*
G04 #@! TD*
D16*
G04 #@! TO.C,R24*
X45457500Y-39430000D03*
X44262500Y-39430000D03*
G04 #@! TD*
D12*
G04 #@! TO.C,C4*
X23054500Y-25146000D03*
X24189500Y-25146000D03*
G04 #@! TD*
G04 #@! TO.C,C44*
X23054500Y-21590000D03*
X24189500Y-21590000D03*
G04 #@! TD*
D10*
G04 #@! TO.C,R4*
X60312000Y-43722000D03*
X62137000Y-43722000D03*
G04 #@! TD*
D29*
G04 #@! TO.C,R16*
X51120000Y-7987500D03*
X51120000Y-9812500D03*
G04 #@! TD*
D31*
G04 #@! TO.C,R12*
X30884500Y-36830000D03*
X29059500Y-36830000D03*
G04 #@! TD*
M02*
