G04 #@! TF.GenerationSoftware,KiCad,Pcbnew,7.0.1-0*
G04 #@! TF.CreationDate,2023-04-29T19:14:42+08:00*
G04 #@! TF.ProjectId,slimarm_classic_2410,736c696d-6172-46d5-9f63-6c6173736963,rev?*
G04 #@! TF.SameCoordinates,Original*
G04 #@! TF.FileFunction,Legend,Top*
G04 #@! TF.FilePolarity,Positive*
%FSLAX46Y46*%
G04 Gerber Fmt 4.6, Leading zero omitted, Abs format (unit mm)*
G04 Created by KiCad (PCBNEW 7.0.1-0) date 2023-04-29 19:14:42*
%MOMM*%
%LPD*%
G01*
G04 APERTURE LIST*
G04 Aperture macros list*
%AMRoundRect*
0 Rectangle with rounded corners*
0 $1 Rounding radius*
0 $2 $3 $4 $5 $6 $7 $8 $9 X,Y pos of 4 corners*
0 Add a 4 corners polygon primitive as box body*
4,1,4,$2,$3,$4,$5,$6,$7,$8,$9,$2,$3,0*
0 Add four circle primitives for the rounded corners*
1,1,$1+$1,$2,$3*
1,1,$1+$1,$4,$5*
1,1,$1+$1,$6,$7*
1,1,$1+$1,$8,$9*
0 Add four rect primitives between the rounded corners*
20,1,$1+$1,$2,$3,$4,$5,0*
20,1,$1+$1,$4,$5,$6,$7,0*
20,1,$1+$1,$6,$7,$8,$9,0*
20,1,$1+$1,$8,$9,$2,$3,0*%
%AMFreePoly0*
4,1,9,3.862500,-0.866500,0.737500,-0.866500,0.737500,-0.450000,-0.737500,-0.450000,-0.737500,0.450000,0.737500,0.450000,0.737500,0.866500,3.862500,0.866500,3.862500,-0.866500,3.862500,-0.866500,$1*%
G04 Aperture macros list end*
%ADD10C,0.127000*%
%ADD11C,0.150000*%
%ADD12C,0.120000*%
%ADD13C,0.100000*%
%ADD14C,0.200000*%
%ADD15RoundRect,0.150000X0.150000X-0.825000X0.150000X0.825000X-0.150000X0.825000X-0.150000X-0.825000X0*%
%ADD16RoundRect,0.155000X-0.212500X-0.155000X0.212500X-0.155000X0.212500X0.155000X-0.212500X0.155000X0*%
%ADD17RoundRect,0.237500X-0.237500X0.250000X-0.237500X-0.250000X0.237500X-0.250000X0.237500X0.250000X0*%
%ADD18RoundRect,0.155000X-0.155000X0.212500X-0.155000X-0.212500X0.155000X-0.212500X0.155000X0.212500X0*%
%ADD19C,0.410000*%
%ADD20C,1.000000*%
%ADD21C,0.650000*%
%ADD22R,0.600000X2.000000*%
%ADD23R,0.300000X2.000000*%
%ADD24R,0.600000X1.450000*%
%ADD25O,1.000000X2.100000*%
%ADD26O,1.000000X1.600000*%
%ADD27RoundRect,0.237500X0.287500X0.237500X-0.287500X0.237500X-0.287500X-0.237500X0.287500X-0.237500X0*%
%ADD28RoundRect,0.155000X0.155000X-0.212500X0.155000X0.212500X-0.155000X0.212500X-0.155000X-0.212500X0*%
%ADD29RoundRect,0.155000X0.212500X0.155000X-0.212500X0.155000X-0.212500X-0.155000X0.212500X-0.155000X0*%
%ADD30R,0.711200X1.270000*%
%ADD31RoundRect,0.400050X0.400050X0.704850X-0.400050X0.704850X-0.400050X-0.704850X0.400050X-0.704850X0*%
%ADD32R,1.600200X2.209800*%
%ADD33R,1.300000X0.900000*%
%ADD34FreePoly0,180.000000*%
%ADD35RoundRect,0.237500X0.237500X-0.250000X0.237500X0.250000X-0.237500X0.250000X-0.237500X-0.250000X0*%
%ADD36RoundRect,0.155000X-0.040659X-0.259862X0.259862X0.040659X0.040659X0.259862X-0.259862X-0.040659X0*%
%ADD37RoundRect,0.160000X-0.197500X-0.160000X0.197500X-0.160000X0.197500X0.160000X-0.197500X0.160000X0*%
%ADD38RoundRect,0.127000X0.127000X-0.719900X0.127000X0.719900X-0.127000X0.719900X-0.127000X-0.719900X0*%
%ADD39RoundRect,0.063500X0.952500X0.063500X-0.952500X0.063500X-0.952500X-0.063500X0.952500X-0.063500X0*%
%ADD40RoundRect,0.160000X0.197500X0.160000X-0.197500X0.160000X-0.197500X-0.160000X0.197500X-0.160000X0*%
%ADD41R,2.000000X2.400000*%
%ADD42RoundRect,0.237500X-0.250000X-0.237500X0.250000X-0.237500X0.250000X0.237500X-0.250000X0.237500X0*%
G04 APERTURE END LIST*
D10*
X28298428Y-8546075D02*
X28298428Y-9162932D01*
X28298428Y-9162932D02*
X28334714Y-9235504D01*
X28334714Y-9235504D02*
X28371000Y-9271790D01*
X28371000Y-9271790D02*
X28443571Y-9308075D01*
X28443571Y-9308075D02*
X28588714Y-9308075D01*
X28588714Y-9308075D02*
X28661285Y-9271790D01*
X28661285Y-9271790D02*
X28697571Y-9235504D01*
X28697571Y-9235504D02*
X28733857Y-9162932D01*
X28733857Y-9162932D02*
X28733857Y-8546075D01*
X29060428Y-9271790D02*
X29169286Y-9308075D01*
X29169286Y-9308075D02*
X29350714Y-9308075D01*
X29350714Y-9308075D02*
X29423286Y-9271790D01*
X29423286Y-9271790D02*
X29459571Y-9235504D01*
X29459571Y-9235504D02*
X29495857Y-9162932D01*
X29495857Y-9162932D02*
X29495857Y-9090361D01*
X29495857Y-9090361D02*
X29459571Y-9017790D01*
X29459571Y-9017790D02*
X29423286Y-8981504D01*
X29423286Y-8981504D02*
X29350714Y-8945218D01*
X29350714Y-8945218D02*
X29205571Y-8908932D01*
X29205571Y-8908932D02*
X29133000Y-8872647D01*
X29133000Y-8872647D02*
X29096714Y-8836361D01*
X29096714Y-8836361D02*
X29060428Y-8763790D01*
X29060428Y-8763790D02*
X29060428Y-8691218D01*
X29060428Y-8691218D02*
X29096714Y-8618647D01*
X29096714Y-8618647D02*
X29133000Y-8582361D01*
X29133000Y-8582361D02*
X29205571Y-8546075D01*
X29205571Y-8546075D02*
X29387000Y-8546075D01*
X29387000Y-8546075D02*
X29495857Y-8582361D01*
X30076428Y-8908932D02*
X30185285Y-8945218D01*
X30185285Y-8945218D02*
X30221571Y-8981504D01*
X30221571Y-8981504D02*
X30257857Y-9054075D01*
X30257857Y-9054075D02*
X30257857Y-9162932D01*
X30257857Y-9162932D02*
X30221571Y-9235504D01*
X30221571Y-9235504D02*
X30185285Y-9271790D01*
X30185285Y-9271790D02*
X30112714Y-9308075D01*
X30112714Y-9308075D02*
X29822428Y-9308075D01*
X29822428Y-9308075D02*
X29822428Y-8546075D01*
X29822428Y-8546075D02*
X30076428Y-8546075D01*
X30076428Y-8546075D02*
X30149000Y-8582361D01*
X30149000Y-8582361D02*
X30185285Y-8618647D01*
X30185285Y-8618647D02*
X30221571Y-8691218D01*
X30221571Y-8691218D02*
X30221571Y-8763790D01*
X30221571Y-8763790D02*
X30185285Y-8836361D01*
X30185285Y-8836361D02*
X30149000Y-8872647D01*
X30149000Y-8872647D02*
X30076428Y-8908932D01*
X30076428Y-8908932D02*
X29822428Y-8908932D01*
X26701857Y-10542515D02*
X26701857Y-9780515D01*
X26701857Y-9780515D02*
X26883286Y-9780515D01*
X26883286Y-9780515D02*
X26992143Y-9816801D01*
X26992143Y-9816801D02*
X27064714Y-9889372D01*
X27064714Y-9889372D02*
X27101000Y-9961944D01*
X27101000Y-9961944D02*
X27137286Y-10107087D01*
X27137286Y-10107087D02*
X27137286Y-10215944D01*
X27137286Y-10215944D02*
X27101000Y-10361087D01*
X27101000Y-10361087D02*
X27064714Y-10433658D01*
X27064714Y-10433658D02*
X26992143Y-10506230D01*
X26992143Y-10506230D02*
X26883286Y-10542515D01*
X26883286Y-10542515D02*
X26701857Y-10542515D01*
X27463857Y-10542515D02*
X27463857Y-9780515D01*
X27463857Y-9780515D02*
X27754143Y-9780515D01*
X27754143Y-9780515D02*
X27826714Y-9816801D01*
X27826714Y-9816801D02*
X27863000Y-9853087D01*
X27863000Y-9853087D02*
X27899286Y-9925658D01*
X27899286Y-9925658D02*
X27899286Y-10034515D01*
X27899286Y-10034515D02*
X27863000Y-10107087D01*
X27863000Y-10107087D02*
X27826714Y-10143372D01*
X27826714Y-10143372D02*
X27754143Y-10179658D01*
X27754143Y-10179658D02*
X27463857Y-10179658D01*
X28225857Y-10252230D02*
X28806429Y-10252230D01*
X29568429Y-9816801D02*
X29495858Y-9780515D01*
X29495858Y-9780515D02*
X29387000Y-9780515D01*
X29387000Y-9780515D02*
X29278143Y-9816801D01*
X29278143Y-9816801D02*
X29205572Y-9889372D01*
X29205572Y-9889372D02*
X29169286Y-9961944D01*
X29169286Y-9961944D02*
X29133000Y-10107087D01*
X29133000Y-10107087D02*
X29133000Y-10215944D01*
X29133000Y-10215944D02*
X29169286Y-10361087D01*
X29169286Y-10361087D02*
X29205572Y-10433658D01*
X29205572Y-10433658D02*
X29278143Y-10506230D01*
X29278143Y-10506230D02*
X29387000Y-10542515D01*
X29387000Y-10542515D02*
X29459572Y-10542515D01*
X29459572Y-10542515D02*
X29568429Y-10506230D01*
X29568429Y-10506230D02*
X29604715Y-10469944D01*
X29604715Y-10469944D02*
X29604715Y-10215944D01*
X29604715Y-10215944D02*
X29459572Y-10215944D01*
X29931286Y-10542515D02*
X29931286Y-9780515D01*
X29931286Y-9780515D02*
X30221572Y-9780515D01*
X30221572Y-9780515D02*
X30294143Y-9816801D01*
X30294143Y-9816801D02*
X30330429Y-9853087D01*
X30330429Y-9853087D02*
X30366715Y-9925658D01*
X30366715Y-9925658D02*
X30366715Y-10034515D01*
X30366715Y-10034515D02*
X30330429Y-10107087D01*
X30330429Y-10107087D02*
X30294143Y-10143372D01*
X30294143Y-10143372D02*
X30221572Y-10179658D01*
X30221572Y-10179658D02*
X29931286Y-10179658D01*
X31092429Y-9816801D02*
X31019858Y-9780515D01*
X31019858Y-9780515D02*
X30911000Y-9780515D01*
X30911000Y-9780515D02*
X30802143Y-9816801D01*
X30802143Y-9816801D02*
X30729572Y-9889372D01*
X30729572Y-9889372D02*
X30693286Y-9961944D01*
X30693286Y-9961944D02*
X30657000Y-10107087D01*
X30657000Y-10107087D02*
X30657000Y-10215944D01*
X30657000Y-10215944D02*
X30693286Y-10361087D01*
X30693286Y-10361087D02*
X30729572Y-10433658D01*
X30729572Y-10433658D02*
X30802143Y-10506230D01*
X30802143Y-10506230D02*
X30911000Y-10542515D01*
X30911000Y-10542515D02*
X30983572Y-10542515D01*
X30983572Y-10542515D02*
X31092429Y-10506230D01*
X31092429Y-10506230D02*
X31128715Y-10469944D01*
X31128715Y-10469944D02*
X31128715Y-10215944D01*
X31128715Y-10215944D02*
X30983572Y-10215944D01*
X31818143Y-9780515D02*
X31455286Y-9780515D01*
X31455286Y-9780515D02*
X31419000Y-10143372D01*
X31419000Y-10143372D02*
X31455286Y-10107087D01*
X31455286Y-10107087D02*
X31527858Y-10070801D01*
X31527858Y-10070801D02*
X31709286Y-10070801D01*
X31709286Y-10070801D02*
X31781858Y-10107087D01*
X31781858Y-10107087D02*
X31818143Y-10143372D01*
X31818143Y-10143372D02*
X31854429Y-10215944D01*
X31854429Y-10215944D02*
X31854429Y-10397372D01*
X31854429Y-10397372D02*
X31818143Y-10469944D01*
X31818143Y-10469944D02*
X31781858Y-10506230D01*
X31781858Y-10506230D02*
X31709286Y-10542515D01*
X31709286Y-10542515D02*
X31527858Y-10542515D01*
X31527858Y-10542515D02*
X31455286Y-10506230D01*
X31455286Y-10506230D02*
X31419000Y-10469944D01*
X26520428Y-11776955D02*
X26520428Y-11014955D01*
X26520428Y-11014955D02*
X26701857Y-11014955D01*
X26701857Y-11014955D02*
X26810714Y-11051241D01*
X26810714Y-11051241D02*
X26883285Y-11123812D01*
X26883285Y-11123812D02*
X26919571Y-11196384D01*
X26919571Y-11196384D02*
X26955857Y-11341527D01*
X26955857Y-11341527D02*
X26955857Y-11450384D01*
X26955857Y-11450384D02*
X26919571Y-11595527D01*
X26919571Y-11595527D02*
X26883285Y-11668098D01*
X26883285Y-11668098D02*
X26810714Y-11740670D01*
X26810714Y-11740670D02*
X26701857Y-11776955D01*
X26701857Y-11776955D02*
X26520428Y-11776955D01*
X27282428Y-11776955D02*
X27282428Y-11014955D01*
X27282428Y-11014955D02*
X27717857Y-11776955D01*
X27717857Y-11776955D02*
X27717857Y-11014955D01*
X28080714Y-11486670D02*
X28661286Y-11486670D01*
X29241857Y-12067241D02*
X29205572Y-12030955D01*
X29205572Y-12030955D02*
X29133000Y-11922098D01*
X29133000Y-11922098D02*
X29096715Y-11849527D01*
X29096715Y-11849527D02*
X29060429Y-11740670D01*
X29060429Y-11740670D02*
X29024143Y-11559241D01*
X29024143Y-11559241D02*
X29024143Y-11414098D01*
X29024143Y-11414098D02*
X29060429Y-11232670D01*
X29060429Y-11232670D02*
X29096715Y-11123812D01*
X29096715Y-11123812D02*
X29133000Y-11051241D01*
X29133000Y-11051241D02*
X29205572Y-10942384D01*
X29205572Y-10942384D02*
X29241857Y-10906098D01*
X29931286Y-11051241D02*
X29858715Y-11014955D01*
X29858715Y-11014955D02*
X29749857Y-11014955D01*
X29749857Y-11014955D02*
X29641000Y-11051241D01*
X29641000Y-11051241D02*
X29568429Y-11123812D01*
X29568429Y-11123812D02*
X29532143Y-11196384D01*
X29532143Y-11196384D02*
X29495857Y-11341527D01*
X29495857Y-11341527D02*
X29495857Y-11450384D01*
X29495857Y-11450384D02*
X29532143Y-11595527D01*
X29532143Y-11595527D02*
X29568429Y-11668098D01*
X29568429Y-11668098D02*
X29641000Y-11740670D01*
X29641000Y-11740670D02*
X29749857Y-11776955D01*
X29749857Y-11776955D02*
X29822429Y-11776955D01*
X29822429Y-11776955D02*
X29931286Y-11740670D01*
X29931286Y-11740670D02*
X29967572Y-11704384D01*
X29967572Y-11704384D02*
X29967572Y-11450384D01*
X29967572Y-11450384D02*
X29822429Y-11450384D01*
X30294143Y-11776955D02*
X30294143Y-11014955D01*
X30294143Y-11014955D02*
X30729572Y-11776955D01*
X30729572Y-11776955D02*
X30729572Y-11014955D01*
X31092429Y-11776955D02*
X31092429Y-11014955D01*
X31092429Y-11014955D02*
X31273858Y-11014955D01*
X31273858Y-11014955D02*
X31382715Y-11051241D01*
X31382715Y-11051241D02*
X31455286Y-11123812D01*
X31455286Y-11123812D02*
X31491572Y-11196384D01*
X31491572Y-11196384D02*
X31527858Y-11341527D01*
X31527858Y-11341527D02*
X31527858Y-11450384D01*
X31527858Y-11450384D02*
X31491572Y-11595527D01*
X31491572Y-11595527D02*
X31455286Y-11668098D01*
X31455286Y-11668098D02*
X31382715Y-11740670D01*
X31382715Y-11740670D02*
X31273858Y-11776955D01*
X31273858Y-11776955D02*
X31092429Y-11776955D01*
X31781858Y-12067241D02*
X31818143Y-12030955D01*
X31818143Y-12030955D02*
X31890715Y-11922098D01*
X31890715Y-11922098D02*
X31927001Y-11849527D01*
X31927001Y-11849527D02*
X31963286Y-11740670D01*
X31963286Y-11740670D02*
X31999572Y-11559241D01*
X31999572Y-11559241D02*
X31999572Y-11414098D01*
X31999572Y-11414098D02*
X31963286Y-11232670D01*
X31963286Y-11232670D02*
X31927001Y-11123812D01*
X31927001Y-11123812D02*
X31890715Y-11051241D01*
X31890715Y-11051241D02*
X31818143Y-10942384D01*
X31818143Y-10942384D02*
X31781858Y-10906098D01*
X26433429Y-44972724D02*
X26397143Y-45009010D01*
X26397143Y-45009010D02*
X26288286Y-45045295D01*
X26288286Y-45045295D02*
X26215714Y-45045295D01*
X26215714Y-45045295D02*
X26106857Y-45009010D01*
X26106857Y-45009010D02*
X26034286Y-44936438D01*
X26034286Y-44936438D02*
X25998000Y-44863867D01*
X25998000Y-44863867D02*
X25961714Y-44718724D01*
X25961714Y-44718724D02*
X25961714Y-44609867D01*
X25961714Y-44609867D02*
X25998000Y-44464724D01*
X25998000Y-44464724D02*
X26034286Y-44392152D01*
X26034286Y-44392152D02*
X26106857Y-44319581D01*
X26106857Y-44319581D02*
X26215714Y-44283295D01*
X26215714Y-44283295D02*
X26288286Y-44283295D01*
X26288286Y-44283295D02*
X26397143Y-44319581D01*
X26397143Y-44319581D02*
X26433429Y-44355867D01*
X26760000Y-45045295D02*
X26760000Y-44283295D01*
X26760000Y-44646152D02*
X27195429Y-44646152D01*
X27195429Y-45045295D02*
X27195429Y-44283295D01*
X27485715Y-44283295D02*
X27957429Y-44283295D01*
X27957429Y-44283295D02*
X27703429Y-44573581D01*
X27703429Y-44573581D02*
X27812286Y-44573581D01*
X27812286Y-44573581D02*
X27884858Y-44609867D01*
X27884858Y-44609867D02*
X27921143Y-44646152D01*
X27921143Y-44646152D02*
X27957429Y-44718724D01*
X27957429Y-44718724D02*
X27957429Y-44900152D01*
X27957429Y-44900152D02*
X27921143Y-44972724D01*
X27921143Y-44972724D02*
X27884858Y-45009010D01*
X27884858Y-45009010D02*
X27812286Y-45045295D01*
X27812286Y-45045295D02*
X27594572Y-45045295D01*
X27594572Y-45045295D02*
X27522000Y-45009010D01*
X27522000Y-45009010D02*
X27485715Y-44972724D01*
X28610572Y-44537295D02*
X28610572Y-45045295D01*
X28429143Y-44247010D02*
X28247714Y-44791295D01*
X28247714Y-44791295D02*
X28719429Y-44791295D01*
X29154857Y-44283295D02*
X29227428Y-44283295D01*
X29227428Y-44283295D02*
X29300000Y-44319581D01*
X29300000Y-44319581D02*
X29336286Y-44355867D01*
X29336286Y-44355867D02*
X29372571Y-44428438D01*
X29372571Y-44428438D02*
X29408857Y-44573581D01*
X29408857Y-44573581D02*
X29408857Y-44755010D01*
X29408857Y-44755010D02*
X29372571Y-44900152D01*
X29372571Y-44900152D02*
X29336286Y-44972724D01*
X29336286Y-44972724D02*
X29300000Y-45009010D01*
X29300000Y-45009010D02*
X29227428Y-45045295D01*
X29227428Y-45045295D02*
X29154857Y-45045295D01*
X29154857Y-45045295D02*
X29082286Y-45009010D01*
X29082286Y-45009010D02*
X29046000Y-44972724D01*
X29046000Y-44972724D02*
X29009714Y-44900152D01*
X29009714Y-44900152D02*
X28973428Y-44755010D01*
X28973428Y-44755010D02*
X28973428Y-44573581D01*
X28973428Y-44573581D02*
X29009714Y-44428438D01*
X29009714Y-44428438D02*
X29046000Y-44355867D01*
X29046000Y-44355867D02*
X29082286Y-44319581D01*
X29082286Y-44319581D02*
X29154857Y-44283295D01*
X30170857Y-44972724D02*
X30134571Y-45009010D01*
X30134571Y-45009010D02*
X30025714Y-45045295D01*
X30025714Y-45045295D02*
X29953142Y-45045295D01*
X29953142Y-45045295D02*
X29844285Y-45009010D01*
X29844285Y-45009010D02*
X29771714Y-44936438D01*
X29771714Y-44936438D02*
X29735428Y-44863867D01*
X29735428Y-44863867D02*
X29699142Y-44718724D01*
X29699142Y-44718724D02*
X29699142Y-44609867D01*
X29699142Y-44609867D02*
X29735428Y-44464724D01*
X29735428Y-44464724D02*
X29771714Y-44392152D01*
X29771714Y-44392152D02*
X29844285Y-44319581D01*
X29844285Y-44319581D02*
X29953142Y-44283295D01*
X29953142Y-44283295D02*
X30025714Y-44283295D01*
X30025714Y-44283295D02*
X30134571Y-44319581D01*
X30134571Y-44319581D02*
X30170857Y-44355867D01*
X31077999Y-44755010D02*
X31658571Y-44755010D01*
X32021428Y-44537295D02*
X32602000Y-44755010D01*
X32602000Y-44755010D02*
X32021428Y-44972724D01*
X26469714Y-45517735D02*
X26469714Y-46134592D01*
X26469714Y-46134592D02*
X26506000Y-46207164D01*
X26506000Y-46207164D02*
X26542286Y-46243450D01*
X26542286Y-46243450D02*
X26614857Y-46279735D01*
X26614857Y-46279735D02*
X26760000Y-46279735D01*
X26760000Y-46279735D02*
X26832571Y-46243450D01*
X26832571Y-46243450D02*
X26868857Y-46207164D01*
X26868857Y-46207164D02*
X26905143Y-46134592D01*
X26905143Y-46134592D02*
X26905143Y-45517735D01*
X27231714Y-46243450D02*
X27340572Y-46279735D01*
X27340572Y-46279735D02*
X27522000Y-46279735D01*
X27522000Y-46279735D02*
X27594572Y-46243450D01*
X27594572Y-46243450D02*
X27630857Y-46207164D01*
X27630857Y-46207164D02*
X27667143Y-46134592D01*
X27667143Y-46134592D02*
X27667143Y-46062021D01*
X27667143Y-46062021D02*
X27630857Y-45989450D01*
X27630857Y-45989450D02*
X27594572Y-45953164D01*
X27594572Y-45953164D02*
X27522000Y-45916878D01*
X27522000Y-45916878D02*
X27376857Y-45880592D01*
X27376857Y-45880592D02*
X27304286Y-45844307D01*
X27304286Y-45844307D02*
X27268000Y-45808021D01*
X27268000Y-45808021D02*
X27231714Y-45735450D01*
X27231714Y-45735450D02*
X27231714Y-45662878D01*
X27231714Y-45662878D02*
X27268000Y-45590307D01*
X27268000Y-45590307D02*
X27304286Y-45554021D01*
X27304286Y-45554021D02*
X27376857Y-45517735D01*
X27376857Y-45517735D02*
X27558286Y-45517735D01*
X27558286Y-45517735D02*
X27667143Y-45554021D01*
X28247714Y-45880592D02*
X28356571Y-45916878D01*
X28356571Y-45916878D02*
X28392857Y-45953164D01*
X28392857Y-45953164D02*
X28429143Y-46025735D01*
X28429143Y-46025735D02*
X28429143Y-46134592D01*
X28429143Y-46134592D02*
X28392857Y-46207164D01*
X28392857Y-46207164D02*
X28356571Y-46243450D01*
X28356571Y-46243450D02*
X28284000Y-46279735D01*
X28284000Y-46279735D02*
X27993714Y-46279735D01*
X27993714Y-46279735D02*
X27993714Y-45517735D01*
X27993714Y-45517735D02*
X28247714Y-45517735D01*
X28247714Y-45517735D02*
X28320286Y-45554021D01*
X28320286Y-45554021D02*
X28356571Y-45590307D01*
X28356571Y-45590307D02*
X28392857Y-45662878D01*
X28392857Y-45662878D02*
X28392857Y-45735450D01*
X28392857Y-45735450D02*
X28356571Y-45808021D01*
X28356571Y-45808021D02*
X28320286Y-45844307D01*
X28320286Y-45844307D02*
X28247714Y-45880592D01*
X28247714Y-45880592D02*
X27993714Y-45880592D01*
X28755714Y-45989450D02*
X29336286Y-45989450D01*
X29699143Y-45517735D02*
X29699143Y-46134592D01*
X29699143Y-46134592D02*
X29735429Y-46207164D01*
X29735429Y-46207164D02*
X29771715Y-46243450D01*
X29771715Y-46243450D02*
X29844286Y-46279735D01*
X29844286Y-46279735D02*
X29989429Y-46279735D01*
X29989429Y-46279735D02*
X30062000Y-46243450D01*
X30062000Y-46243450D02*
X30098286Y-46207164D01*
X30098286Y-46207164D02*
X30134572Y-46134592D01*
X30134572Y-46134592D02*
X30134572Y-45517735D01*
X30461143Y-46062021D02*
X30824001Y-46062021D01*
X30388572Y-46279735D02*
X30642572Y-45517735D01*
X30642572Y-45517735D02*
X30896572Y-46279735D01*
X31586001Y-46279735D02*
X31332001Y-45916878D01*
X31150572Y-46279735D02*
X31150572Y-45517735D01*
X31150572Y-45517735D02*
X31440858Y-45517735D01*
X31440858Y-45517735D02*
X31513429Y-45554021D01*
X31513429Y-45554021D02*
X31549715Y-45590307D01*
X31549715Y-45590307D02*
X31586001Y-45662878D01*
X31586001Y-45662878D02*
X31586001Y-45771735D01*
X31586001Y-45771735D02*
X31549715Y-45844307D01*
X31549715Y-45844307D02*
X31513429Y-45880592D01*
X31513429Y-45880592D02*
X31440858Y-45916878D01*
X31440858Y-45916878D02*
X31150572Y-45916878D01*
X31803715Y-45517735D02*
X32239144Y-45517735D01*
X32021429Y-46279735D02*
X32021429Y-45517735D01*
X40821000Y-8473295D02*
X40821000Y-9017581D01*
X40821000Y-9017581D02*
X40784715Y-9126438D01*
X40784715Y-9126438D02*
X40712143Y-9199010D01*
X40712143Y-9199010D02*
X40603286Y-9235295D01*
X40603286Y-9235295D02*
X40530715Y-9235295D01*
X41075000Y-8473295D02*
X41510429Y-8473295D01*
X41292714Y-9235295D02*
X41292714Y-8473295D01*
X41728142Y-9017581D02*
X42091000Y-9017581D01*
X41655571Y-9235295D02*
X41909571Y-8473295D01*
X41909571Y-8473295D02*
X42163571Y-9235295D01*
X42816714Y-8509581D02*
X42744143Y-8473295D01*
X42744143Y-8473295D02*
X42635285Y-8473295D01*
X42635285Y-8473295D02*
X42526428Y-8509581D01*
X42526428Y-8509581D02*
X42453857Y-8582152D01*
X42453857Y-8582152D02*
X42417571Y-8654724D01*
X42417571Y-8654724D02*
X42381285Y-8799867D01*
X42381285Y-8799867D02*
X42381285Y-8908724D01*
X42381285Y-8908724D02*
X42417571Y-9053867D01*
X42417571Y-9053867D02*
X42453857Y-9126438D01*
X42453857Y-9126438D02*
X42526428Y-9199010D01*
X42526428Y-9199010D02*
X42635285Y-9235295D01*
X42635285Y-9235295D02*
X42707857Y-9235295D01*
X42707857Y-9235295D02*
X42816714Y-9199010D01*
X42816714Y-9199010D02*
X42853000Y-9162724D01*
X42853000Y-9162724D02*
X42853000Y-8908724D01*
X42853000Y-8908724D02*
X42707857Y-8908724D01*
X37627858Y-10469735D02*
X37627858Y-9707735D01*
X38571286Y-10469735D02*
X38571286Y-9707735D01*
X38571286Y-9707735D02*
X38825286Y-10252021D01*
X38825286Y-10252021D02*
X39079286Y-9707735D01*
X39079286Y-9707735D02*
X39079286Y-10469735D01*
X40458143Y-10469735D02*
X40204143Y-10106878D01*
X40022714Y-10469735D02*
X40022714Y-9707735D01*
X40022714Y-9707735D02*
X40313000Y-9707735D01*
X40313000Y-9707735D02*
X40385571Y-9744021D01*
X40385571Y-9744021D02*
X40421857Y-9780307D01*
X40421857Y-9780307D02*
X40458143Y-9852878D01*
X40458143Y-9852878D02*
X40458143Y-9961735D01*
X40458143Y-9961735D02*
X40421857Y-10034307D01*
X40421857Y-10034307D02*
X40385571Y-10070592D01*
X40385571Y-10070592D02*
X40313000Y-10106878D01*
X40313000Y-10106878D02*
X40022714Y-10106878D01*
X41510428Y-9707735D02*
X41655571Y-9707735D01*
X41655571Y-9707735D02*
X41728142Y-9744021D01*
X41728142Y-9744021D02*
X41800714Y-9816592D01*
X41800714Y-9816592D02*
X41836999Y-9961735D01*
X41836999Y-9961735D02*
X41836999Y-10215735D01*
X41836999Y-10215735D02*
X41800714Y-10360878D01*
X41800714Y-10360878D02*
X41728142Y-10433450D01*
X41728142Y-10433450D02*
X41655571Y-10469735D01*
X41655571Y-10469735D02*
X41510428Y-10469735D01*
X41510428Y-10469735D02*
X41437857Y-10433450D01*
X41437857Y-10433450D02*
X41365285Y-10360878D01*
X41365285Y-10360878D02*
X41328999Y-10215735D01*
X41328999Y-10215735D02*
X41328999Y-9961735D01*
X41328999Y-9961735D02*
X41365285Y-9816592D01*
X41365285Y-9816592D02*
X41437857Y-9744021D01*
X41437857Y-9744021D02*
X41510428Y-9707735D01*
X43179571Y-10397164D02*
X43143285Y-10433450D01*
X43143285Y-10433450D02*
X43034428Y-10469735D01*
X43034428Y-10469735D02*
X42961856Y-10469735D01*
X42961856Y-10469735D02*
X42852999Y-10433450D01*
X42852999Y-10433450D02*
X42780428Y-10360878D01*
X42780428Y-10360878D02*
X42744142Y-10288307D01*
X42744142Y-10288307D02*
X42707856Y-10143164D01*
X42707856Y-10143164D02*
X42707856Y-10034307D01*
X42707856Y-10034307D02*
X42744142Y-9889164D01*
X42744142Y-9889164D02*
X42780428Y-9816592D01*
X42780428Y-9816592D02*
X42852999Y-9744021D01*
X42852999Y-9744021D02*
X42961856Y-9707735D01*
X42961856Y-9707735D02*
X43034428Y-9707735D01*
X43034428Y-9707735D02*
X43143285Y-9744021D01*
X43143285Y-9744021D02*
X43179571Y-9780307D01*
X44014142Y-9707735D02*
X44485856Y-9707735D01*
X44485856Y-9707735D02*
X44231856Y-9998021D01*
X44231856Y-9998021D02*
X44340713Y-9998021D01*
X44340713Y-9998021D02*
X44413285Y-10034307D01*
X44413285Y-10034307D02*
X44449570Y-10070592D01*
X44449570Y-10070592D02*
X44485856Y-10143164D01*
X44485856Y-10143164D02*
X44485856Y-10324592D01*
X44485856Y-10324592D02*
X44449570Y-10397164D01*
X44449570Y-10397164D02*
X44413285Y-10433450D01*
X44413285Y-10433450D02*
X44340713Y-10469735D01*
X44340713Y-10469735D02*
X44122999Y-10469735D01*
X44122999Y-10469735D02*
X44050427Y-10433450D01*
X44050427Y-10433450D02*
X44014142Y-10397164D01*
X45792141Y-9744021D02*
X45719570Y-9707735D01*
X45719570Y-9707735D02*
X45610712Y-9707735D01*
X45610712Y-9707735D02*
X45501855Y-9744021D01*
X45501855Y-9744021D02*
X45429284Y-9816592D01*
X45429284Y-9816592D02*
X45392998Y-9889164D01*
X45392998Y-9889164D02*
X45356712Y-10034307D01*
X45356712Y-10034307D02*
X45356712Y-10143164D01*
X45356712Y-10143164D02*
X45392998Y-10288307D01*
X45392998Y-10288307D02*
X45429284Y-10360878D01*
X45429284Y-10360878D02*
X45501855Y-10433450D01*
X45501855Y-10433450D02*
X45610712Y-10469735D01*
X45610712Y-10469735D02*
X45683284Y-10469735D01*
X45683284Y-10469735D02*
X45792141Y-10433450D01*
X45792141Y-10433450D02*
X45828427Y-10397164D01*
X45828427Y-10397164D02*
X45828427Y-10143164D01*
X45828427Y-10143164D02*
X45683284Y-10143164D01*
X57860571Y-42447515D02*
X57425142Y-42447515D01*
X57642857Y-42447515D02*
X57642857Y-41685515D01*
X57642857Y-41685515D02*
X57570285Y-41794372D01*
X57570285Y-41794372D02*
X57497714Y-41866944D01*
X57497714Y-41866944D02*
X57425142Y-41903230D01*
X58114571Y-41939515D02*
X58295999Y-42447515D01*
X58295999Y-42447515D02*
X58477428Y-41939515D01*
X58876570Y-42012087D02*
X58803999Y-41975801D01*
X58803999Y-41975801D02*
X58767713Y-41939515D01*
X58767713Y-41939515D02*
X58731427Y-41866944D01*
X58731427Y-41866944D02*
X58731427Y-41830658D01*
X58731427Y-41830658D02*
X58767713Y-41758087D01*
X58767713Y-41758087D02*
X58803999Y-41721801D01*
X58803999Y-41721801D02*
X58876570Y-41685515D01*
X58876570Y-41685515D02*
X59021713Y-41685515D01*
X59021713Y-41685515D02*
X59094285Y-41721801D01*
X59094285Y-41721801D02*
X59130570Y-41758087D01*
X59130570Y-41758087D02*
X59166856Y-41830658D01*
X59166856Y-41830658D02*
X59166856Y-41866944D01*
X59166856Y-41866944D02*
X59130570Y-41939515D01*
X59130570Y-41939515D02*
X59094285Y-41975801D01*
X59094285Y-41975801D02*
X59021713Y-42012087D01*
X59021713Y-42012087D02*
X58876570Y-42012087D01*
X58876570Y-42012087D02*
X58803999Y-42048372D01*
X58803999Y-42048372D02*
X58767713Y-42084658D01*
X58767713Y-42084658D02*
X58731427Y-42157230D01*
X58731427Y-42157230D02*
X58731427Y-42302372D01*
X58731427Y-42302372D02*
X58767713Y-42374944D01*
X58767713Y-42374944D02*
X58803999Y-42411230D01*
X58803999Y-42411230D02*
X58876570Y-42447515D01*
X58876570Y-42447515D02*
X59021713Y-42447515D01*
X59021713Y-42447515D02*
X59094285Y-42411230D01*
X59094285Y-42411230D02*
X59130570Y-42374944D01*
X59130570Y-42374944D02*
X59166856Y-42302372D01*
X59166856Y-42302372D02*
X59166856Y-42157230D01*
X59166856Y-42157230D02*
X59130570Y-42084658D01*
X59130570Y-42084658D02*
X59094285Y-42048372D01*
X59094285Y-42048372D02*
X59021713Y-42012087D01*
X58544667Y-38273179D02*
X58460001Y-38230846D01*
X58460001Y-38230846D02*
X58417667Y-38188512D01*
X58417667Y-38188512D02*
X58375334Y-38103846D01*
X58375334Y-38103846D02*
X58375334Y-38061512D01*
X58375334Y-38061512D02*
X58417667Y-37976846D01*
X58417667Y-37976846D02*
X58460001Y-37934512D01*
X58460001Y-37934512D02*
X58544667Y-37892179D01*
X58544667Y-37892179D02*
X58714001Y-37892179D01*
X58714001Y-37892179D02*
X58798667Y-37934512D01*
X58798667Y-37934512D02*
X58841001Y-37976846D01*
X58841001Y-37976846D02*
X58883334Y-38061512D01*
X58883334Y-38061512D02*
X58883334Y-38103846D01*
X58883334Y-38103846D02*
X58841001Y-38188512D01*
X58841001Y-38188512D02*
X58798667Y-38230846D01*
X58798667Y-38230846D02*
X58714001Y-38273179D01*
X58714001Y-38273179D02*
X58544667Y-38273179D01*
X58544667Y-38273179D02*
X58460001Y-38315512D01*
X58460001Y-38315512D02*
X58417667Y-38357846D01*
X58417667Y-38357846D02*
X58375334Y-38442512D01*
X58375334Y-38442512D02*
X58375334Y-38611846D01*
X58375334Y-38611846D02*
X58417667Y-38696512D01*
X58417667Y-38696512D02*
X58460001Y-38738846D01*
X58460001Y-38738846D02*
X58544667Y-38781179D01*
X58544667Y-38781179D02*
X58714001Y-38781179D01*
X58714001Y-38781179D02*
X58798667Y-38738846D01*
X58798667Y-38738846D02*
X58841001Y-38696512D01*
X58841001Y-38696512D02*
X58883334Y-38611846D01*
X58883334Y-38611846D02*
X58883334Y-38442512D01*
X58883334Y-38442512D02*
X58841001Y-38357846D01*
X58841001Y-38357846D02*
X58798667Y-38315512D01*
X58798667Y-38315512D02*
X58714001Y-38273179D01*
X59264334Y-38442512D02*
X59941668Y-38442512D01*
X60365001Y-38781179D02*
X60365001Y-37892179D01*
X60365001Y-38230846D02*
X60449668Y-38188512D01*
X60449668Y-38188512D02*
X60619001Y-38188512D01*
X60619001Y-38188512D02*
X60703668Y-38230846D01*
X60703668Y-38230846D02*
X60746001Y-38273179D01*
X60746001Y-38273179D02*
X60788335Y-38357846D01*
X60788335Y-38357846D02*
X60788335Y-38611846D01*
X60788335Y-38611846D02*
X60746001Y-38696512D01*
X60746001Y-38696512D02*
X60703668Y-38738846D01*
X60703668Y-38738846D02*
X60619001Y-38781179D01*
X60619001Y-38781179D02*
X60449668Y-38781179D01*
X60449668Y-38781179D02*
X60365001Y-38738846D01*
X61169334Y-38781179D02*
X61169334Y-38188512D01*
X61169334Y-37892179D02*
X61127001Y-37934512D01*
X61127001Y-37934512D02*
X61169334Y-37976846D01*
X61169334Y-37976846D02*
X61211668Y-37934512D01*
X61211668Y-37934512D02*
X61169334Y-37892179D01*
X61169334Y-37892179D02*
X61169334Y-37976846D01*
X61465667Y-38188512D02*
X61804334Y-38188512D01*
X61592667Y-37892179D02*
X61592667Y-38654179D01*
X61592667Y-38654179D02*
X61635001Y-38738846D01*
X61635001Y-38738846D02*
X61719667Y-38781179D01*
X61719667Y-38781179D02*
X61804334Y-38781179D01*
X62778000Y-38781179D02*
X62778000Y-37892179D01*
X62778000Y-37892179D02*
X63286000Y-38781179D01*
X63286000Y-38781179D02*
X63286000Y-37892179D01*
X63667000Y-38527179D02*
X64090333Y-38527179D01*
X63582333Y-38781179D02*
X63878667Y-37892179D01*
X63878667Y-37892179D02*
X64175000Y-38781179D01*
X64471333Y-38781179D02*
X64471333Y-37892179D01*
X64471333Y-37892179D02*
X64979333Y-38781179D01*
X64979333Y-38781179D02*
X64979333Y-37892179D01*
X65402666Y-38781179D02*
X65402666Y-37892179D01*
X65402666Y-37892179D02*
X65614333Y-37892179D01*
X65614333Y-37892179D02*
X65741333Y-37934512D01*
X65741333Y-37934512D02*
X65826000Y-38019179D01*
X65826000Y-38019179D02*
X65868333Y-38103846D01*
X65868333Y-38103846D02*
X65910666Y-38273179D01*
X65910666Y-38273179D02*
X65910666Y-38400179D01*
X65910666Y-38400179D02*
X65868333Y-38569512D01*
X65868333Y-38569512D02*
X65826000Y-38654179D01*
X65826000Y-38654179D02*
X65741333Y-38738846D01*
X65741333Y-38738846D02*
X65614333Y-38781179D01*
X65614333Y-38781179D02*
X65402666Y-38781179D01*
X58375332Y-39628692D02*
X57697998Y-39882692D01*
X57697998Y-39882692D02*
X58375332Y-40136692D01*
X58798665Y-39755692D02*
X59475999Y-39755692D01*
X59475999Y-40009692D02*
X58798665Y-40009692D01*
X60364999Y-40221359D02*
X59856999Y-40221359D01*
X60110999Y-40221359D02*
X60110999Y-39332359D01*
X60110999Y-39332359D02*
X60026332Y-39459359D01*
X60026332Y-39459359D02*
X59941666Y-39544026D01*
X59941666Y-39544026D02*
X59856999Y-39586359D01*
X60703666Y-39417026D02*
X60745999Y-39374692D01*
X60745999Y-39374692D02*
X60830666Y-39332359D01*
X60830666Y-39332359D02*
X61042333Y-39332359D01*
X61042333Y-39332359D02*
X61126999Y-39374692D01*
X61126999Y-39374692D02*
X61169333Y-39417026D01*
X61169333Y-39417026D02*
X61211666Y-39501692D01*
X61211666Y-39501692D02*
X61211666Y-39586359D01*
X61211666Y-39586359D02*
X61169333Y-39713359D01*
X61169333Y-39713359D02*
X60661333Y-40221359D01*
X60661333Y-40221359D02*
X61211666Y-40221359D01*
X61719666Y-39713359D02*
X61635000Y-39671026D01*
X61635000Y-39671026D02*
X61592666Y-39628692D01*
X61592666Y-39628692D02*
X61550333Y-39544026D01*
X61550333Y-39544026D02*
X61550333Y-39501692D01*
X61550333Y-39501692D02*
X61592666Y-39417026D01*
X61592666Y-39417026D02*
X61635000Y-39374692D01*
X61635000Y-39374692D02*
X61719666Y-39332359D01*
X61719666Y-39332359D02*
X61889000Y-39332359D01*
X61889000Y-39332359D02*
X61973666Y-39374692D01*
X61973666Y-39374692D02*
X62016000Y-39417026D01*
X62016000Y-39417026D02*
X62058333Y-39501692D01*
X62058333Y-39501692D02*
X62058333Y-39544026D01*
X62058333Y-39544026D02*
X62016000Y-39628692D01*
X62016000Y-39628692D02*
X61973666Y-39671026D01*
X61973666Y-39671026D02*
X61889000Y-39713359D01*
X61889000Y-39713359D02*
X61719666Y-39713359D01*
X61719666Y-39713359D02*
X61635000Y-39755692D01*
X61635000Y-39755692D02*
X61592666Y-39798026D01*
X61592666Y-39798026D02*
X61550333Y-39882692D01*
X61550333Y-39882692D02*
X61550333Y-40052026D01*
X61550333Y-40052026D02*
X61592666Y-40136692D01*
X61592666Y-40136692D02*
X61635000Y-40179026D01*
X61635000Y-40179026D02*
X61719666Y-40221359D01*
X61719666Y-40221359D02*
X61889000Y-40221359D01*
X61889000Y-40221359D02*
X61973666Y-40179026D01*
X61973666Y-40179026D02*
X62016000Y-40136692D01*
X62016000Y-40136692D02*
X62058333Y-40052026D01*
X62058333Y-40052026D02*
X62058333Y-39882692D01*
X62058333Y-39882692D02*
X62016000Y-39798026D01*
X62016000Y-39798026D02*
X61973666Y-39755692D01*
X61973666Y-39755692D02*
X61889000Y-39713359D01*
X62439333Y-40221359D02*
X62439333Y-39332359D01*
X62439333Y-39332359D02*
X62735667Y-39967359D01*
X62735667Y-39967359D02*
X63032000Y-39332359D01*
X63032000Y-39332359D02*
X63032000Y-40221359D01*
X63751667Y-39755692D02*
X63878667Y-39798026D01*
X63878667Y-39798026D02*
X63921000Y-39840359D01*
X63921000Y-39840359D02*
X63963333Y-39925026D01*
X63963333Y-39925026D02*
X63963333Y-40052026D01*
X63963333Y-40052026D02*
X63921000Y-40136692D01*
X63921000Y-40136692D02*
X63878667Y-40179026D01*
X63878667Y-40179026D02*
X63794000Y-40221359D01*
X63794000Y-40221359D02*
X63455333Y-40221359D01*
X63455333Y-40221359D02*
X63455333Y-39332359D01*
X63455333Y-39332359D02*
X63751667Y-39332359D01*
X63751667Y-39332359D02*
X63836333Y-39374692D01*
X63836333Y-39374692D02*
X63878667Y-39417026D01*
X63878667Y-39417026D02*
X63921000Y-39501692D01*
X63921000Y-39501692D02*
X63921000Y-39586359D01*
X63921000Y-39586359D02*
X63878667Y-39671026D01*
X63878667Y-39671026D02*
X63836333Y-39713359D01*
X63836333Y-39713359D02*
X63751667Y-39755692D01*
X63751667Y-39755692D02*
X63455333Y-39755692D01*
X64259667Y-39628692D02*
X64471333Y-40221359D01*
X64683000Y-39628692D02*
X64471333Y-40221359D01*
X64471333Y-40221359D02*
X64386667Y-40433026D01*
X64386667Y-40433026D02*
X64344333Y-40475359D01*
X64344333Y-40475359D02*
X64259667Y-40517692D01*
X64894666Y-39628692D02*
X65233333Y-39628692D01*
X65021666Y-39332359D02*
X65021666Y-40094359D01*
X65021666Y-40094359D02*
X65064000Y-40179026D01*
X65064000Y-40179026D02*
X65148666Y-40221359D01*
X65148666Y-40221359D02*
X65233333Y-40221359D01*
X65868333Y-40179026D02*
X65783666Y-40221359D01*
X65783666Y-40221359D02*
X65614333Y-40221359D01*
X65614333Y-40221359D02*
X65529666Y-40179026D01*
X65529666Y-40179026D02*
X65487333Y-40094359D01*
X65487333Y-40094359D02*
X65487333Y-39755692D01*
X65487333Y-39755692D02*
X65529666Y-39671026D01*
X65529666Y-39671026D02*
X65614333Y-39628692D01*
X65614333Y-39628692D02*
X65783666Y-39628692D01*
X65783666Y-39628692D02*
X65868333Y-39671026D01*
X65868333Y-39671026D02*
X65910666Y-39755692D01*
X65910666Y-39755692D02*
X65910666Y-39840359D01*
X65910666Y-39840359D02*
X65487333Y-39925026D01*
X60240666Y-21738756D02*
X60367666Y-21781089D01*
X60367666Y-21781089D02*
X60579333Y-21781089D01*
X60579333Y-21781089D02*
X60663999Y-21738756D01*
X60663999Y-21738756D02*
X60706333Y-21696422D01*
X60706333Y-21696422D02*
X60748666Y-21611756D01*
X60748666Y-21611756D02*
X60748666Y-21527089D01*
X60748666Y-21527089D02*
X60706333Y-21442422D01*
X60706333Y-21442422D02*
X60663999Y-21400089D01*
X60663999Y-21400089D02*
X60579333Y-21357756D01*
X60579333Y-21357756D02*
X60409999Y-21315422D01*
X60409999Y-21315422D02*
X60325333Y-21273089D01*
X60325333Y-21273089D02*
X60282999Y-21230756D01*
X60282999Y-21230756D02*
X60240666Y-21146089D01*
X60240666Y-21146089D02*
X60240666Y-21061422D01*
X60240666Y-21061422D02*
X60282999Y-20976756D01*
X60282999Y-20976756D02*
X60325333Y-20934422D01*
X60325333Y-20934422D02*
X60409999Y-20892089D01*
X60409999Y-20892089D02*
X60621666Y-20892089D01*
X60621666Y-20892089D02*
X60748666Y-20934422D01*
X61129666Y-21781089D02*
X61129666Y-20892089D01*
X61129666Y-20892089D02*
X61341333Y-20892089D01*
X61341333Y-20892089D02*
X61468333Y-20934422D01*
X61468333Y-20934422D02*
X61553000Y-21019089D01*
X61553000Y-21019089D02*
X61595333Y-21103756D01*
X61595333Y-21103756D02*
X61637666Y-21273089D01*
X61637666Y-21273089D02*
X61637666Y-21400089D01*
X61637666Y-21400089D02*
X61595333Y-21569422D01*
X61595333Y-21569422D02*
X61553000Y-21654089D01*
X61553000Y-21654089D02*
X61468333Y-21738756D01*
X61468333Y-21738756D02*
X61341333Y-21781089D01*
X61341333Y-21781089D02*
X61129666Y-21781089D01*
X62526666Y-21781089D02*
X62230333Y-21357756D01*
X62018666Y-21781089D02*
X62018666Y-20892089D01*
X62018666Y-20892089D02*
X62357333Y-20892089D01*
X62357333Y-20892089D02*
X62442000Y-20934422D01*
X62442000Y-20934422D02*
X62484333Y-20976756D01*
X62484333Y-20976756D02*
X62526666Y-21061422D01*
X62526666Y-21061422D02*
X62526666Y-21188422D01*
X62526666Y-21188422D02*
X62484333Y-21273089D01*
X62484333Y-21273089D02*
X62442000Y-21315422D01*
X62442000Y-21315422D02*
X62357333Y-21357756D01*
X62357333Y-21357756D02*
X62018666Y-21357756D01*
X63542666Y-21738756D02*
X63669666Y-21781089D01*
X63669666Y-21781089D02*
X63881333Y-21781089D01*
X63881333Y-21781089D02*
X63965999Y-21738756D01*
X63965999Y-21738756D02*
X64008333Y-21696422D01*
X64008333Y-21696422D02*
X64050666Y-21611756D01*
X64050666Y-21611756D02*
X64050666Y-21527089D01*
X64050666Y-21527089D02*
X64008333Y-21442422D01*
X64008333Y-21442422D02*
X63965999Y-21400089D01*
X63965999Y-21400089D02*
X63881333Y-21357756D01*
X63881333Y-21357756D02*
X63711999Y-21315422D01*
X63711999Y-21315422D02*
X63627333Y-21273089D01*
X63627333Y-21273089D02*
X63584999Y-21230756D01*
X63584999Y-21230756D02*
X63542666Y-21146089D01*
X63542666Y-21146089D02*
X63542666Y-21061422D01*
X63542666Y-21061422D02*
X63584999Y-20976756D01*
X63584999Y-20976756D02*
X63627333Y-20934422D01*
X63627333Y-20934422D02*
X63711999Y-20892089D01*
X63711999Y-20892089D02*
X63923666Y-20892089D01*
X63923666Y-20892089D02*
X64050666Y-20934422D01*
X64431666Y-21781089D02*
X64431666Y-20892089D01*
X64431666Y-20892089D02*
X64643333Y-20892089D01*
X64643333Y-20892089D02*
X64770333Y-20934422D01*
X64770333Y-20934422D02*
X64855000Y-21019089D01*
X64855000Y-21019089D02*
X64897333Y-21103756D01*
X64897333Y-21103756D02*
X64939666Y-21273089D01*
X64939666Y-21273089D02*
X64939666Y-21400089D01*
X64939666Y-21400089D02*
X64897333Y-21569422D01*
X64897333Y-21569422D02*
X64855000Y-21654089D01*
X64855000Y-21654089D02*
X64770333Y-21738756D01*
X64770333Y-21738756D02*
X64643333Y-21781089D01*
X64643333Y-21781089D02*
X64431666Y-21781089D01*
X65828666Y-21781089D02*
X65532333Y-21357756D01*
X65320666Y-21781089D02*
X65320666Y-20892089D01*
X65320666Y-20892089D02*
X65659333Y-20892089D01*
X65659333Y-20892089D02*
X65744000Y-20934422D01*
X65744000Y-20934422D02*
X65786333Y-20976756D01*
X65786333Y-20976756D02*
X65828666Y-21061422D01*
X65828666Y-21061422D02*
X65828666Y-21188422D01*
X65828666Y-21188422D02*
X65786333Y-21273089D01*
X65786333Y-21273089D02*
X65744000Y-21315422D01*
X65744000Y-21315422D02*
X65659333Y-21357756D01*
X65659333Y-21357756D02*
X65320666Y-21357756D01*
X66167333Y-21527089D02*
X66590666Y-21527089D01*
X66082666Y-21781089D02*
X66379000Y-20892089D01*
X66379000Y-20892089D02*
X66675333Y-21781089D01*
X66971666Y-21781089D02*
X66971666Y-20892089D01*
X66971666Y-20892089D02*
X67268000Y-21527089D01*
X67268000Y-21527089D02*
X67564333Y-20892089D01*
X67564333Y-20892089D02*
X67564333Y-21781089D01*
X56938665Y-22628602D02*
X56938665Y-23221269D01*
X56726999Y-22289936D02*
X56515332Y-22924936D01*
X56515332Y-22924936D02*
X57065665Y-22924936D01*
X57404332Y-23221269D02*
X57404332Y-22332269D01*
X57404332Y-22332269D02*
X57700666Y-22967269D01*
X57700666Y-22967269D02*
X57996999Y-22332269D01*
X57996999Y-22332269D02*
X57996999Y-23221269D01*
X58335666Y-23221269D02*
X58801332Y-22628602D01*
X58335666Y-22628602D02*
X58801332Y-23221269D01*
X59605666Y-23221269D02*
X59097666Y-23221269D01*
X59351666Y-23221269D02*
X59351666Y-22332269D01*
X59351666Y-22332269D02*
X59266999Y-22459269D01*
X59266999Y-22459269D02*
X59182333Y-22543936D01*
X59182333Y-22543936D02*
X59097666Y-22586269D01*
X60367666Y-22332269D02*
X60198333Y-22332269D01*
X60198333Y-22332269D02*
X60113666Y-22374602D01*
X60113666Y-22374602D02*
X60071333Y-22416936D01*
X60071333Y-22416936D02*
X59986666Y-22543936D01*
X59986666Y-22543936D02*
X59944333Y-22713269D01*
X59944333Y-22713269D02*
X59944333Y-23051936D01*
X59944333Y-23051936D02*
X59986666Y-23136602D01*
X59986666Y-23136602D02*
X60029000Y-23178936D01*
X60029000Y-23178936D02*
X60113666Y-23221269D01*
X60113666Y-23221269D02*
X60283000Y-23221269D01*
X60283000Y-23221269D02*
X60367666Y-23178936D01*
X60367666Y-23178936D02*
X60410000Y-23136602D01*
X60410000Y-23136602D02*
X60452333Y-23051936D01*
X60452333Y-23051936D02*
X60452333Y-22840269D01*
X60452333Y-22840269D02*
X60410000Y-22755602D01*
X60410000Y-22755602D02*
X60367666Y-22713269D01*
X60367666Y-22713269D02*
X60283000Y-22670936D01*
X60283000Y-22670936D02*
X60113666Y-22670936D01*
X60113666Y-22670936D02*
X60029000Y-22713269D01*
X60029000Y-22713269D02*
X59986666Y-22755602D01*
X59986666Y-22755602D02*
X59944333Y-22840269D01*
X60833333Y-23221269D02*
X60833333Y-22332269D01*
X60833333Y-22670936D02*
X60918000Y-22628602D01*
X60918000Y-22628602D02*
X61087333Y-22628602D01*
X61087333Y-22628602D02*
X61172000Y-22670936D01*
X61172000Y-22670936D02*
X61214333Y-22713269D01*
X61214333Y-22713269D02*
X61256667Y-22797936D01*
X61256667Y-22797936D02*
X61256667Y-23051936D01*
X61256667Y-23051936D02*
X61214333Y-23136602D01*
X61214333Y-23136602D02*
X61172000Y-23178936D01*
X61172000Y-23178936D02*
X61087333Y-23221269D01*
X61087333Y-23221269D02*
X60918000Y-23221269D01*
X60918000Y-23221269D02*
X60833333Y-23178936D01*
X61637666Y-23221269D02*
X61637666Y-22628602D01*
X61637666Y-22332269D02*
X61595333Y-22374602D01*
X61595333Y-22374602D02*
X61637666Y-22416936D01*
X61637666Y-22416936D02*
X61680000Y-22374602D01*
X61680000Y-22374602D02*
X61637666Y-22332269D01*
X61637666Y-22332269D02*
X61637666Y-22416936D01*
X61933999Y-22628602D02*
X62272666Y-22628602D01*
X62060999Y-22332269D02*
X62060999Y-23094269D01*
X62060999Y-23094269D02*
X62103333Y-23178936D01*
X62103333Y-23178936D02*
X62187999Y-23221269D01*
X62187999Y-23221269D02*
X62272666Y-23221269D01*
X62484333Y-23221269D02*
X62949999Y-22628602D01*
X62484333Y-22628602D02*
X62949999Y-23221269D01*
X63669666Y-22628602D02*
X63669666Y-23221269D01*
X63458000Y-22289936D02*
X63246333Y-22924936D01*
X63246333Y-22924936D02*
X63796666Y-22924936D01*
X64135333Y-23221269D02*
X64135333Y-22332269D01*
X64135333Y-22670936D02*
X64220000Y-22628602D01*
X64220000Y-22628602D02*
X64389333Y-22628602D01*
X64389333Y-22628602D02*
X64474000Y-22670936D01*
X64474000Y-22670936D02*
X64516333Y-22713269D01*
X64516333Y-22713269D02*
X64558667Y-22797936D01*
X64558667Y-22797936D02*
X64558667Y-23051936D01*
X64558667Y-23051936D02*
X64516333Y-23136602D01*
X64516333Y-23136602D02*
X64474000Y-23178936D01*
X64474000Y-23178936D02*
X64389333Y-23221269D01*
X64389333Y-23221269D02*
X64220000Y-23221269D01*
X64220000Y-23221269D02*
X64135333Y-23178936D01*
X65320666Y-23221269D02*
X65320666Y-22755602D01*
X65320666Y-22755602D02*
X65278333Y-22670936D01*
X65278333Y-22670936D02*
X65193666Y-22628602D01*
X65193666Y-22628602D02*
X65024333Y-22628602D01*
X65024333Y-22628602D02*
X64939666Y-22670936D01*
X65320666Y-23178936D02*
X65236000Y-23221269D01*
X65236000Y-23221269D02*
X65024333Y-23221269D01*
X65024333Y-23221269D02*
X64939666Y-23178936D01*
X64939666Y-23178936D02*
X64897333Y-23094269D01*
X64897333Y-23094269D02*
X64897333Y-23009602D01*
X64897333Y-23009602D02*
X64939666Y-22924936D01*
X64939666Y-22924936D02*
X65024333Y-22882602D01*
X65024333Y-22882602D02*
X65236000Y-22882602D01*
X65236000Y-22882602D02*
X65320666Y-22840269D01*
X65743999Y-22628602D02*
X65743999Y-23221269D01*
X65743999Y-22713269D02*
X65786333Y-22670936D01*
X65786333Y-22670936D02*
X65870999Y-22628602D01*
X65870999Y-22628602D02*
X65997999Y-22628602D01*
X65997999Y-22628602D02*
X66082666Y-22670936D01*
X66082666Y-22670936D02*
X66124999Y-22755602D01*
X66124999Y-22755602D02*
X66124999Y-23221269D01*
X66548332Y-23221269D02*
X66548332Y-22332269D01*
X66632999Y-22882602D02*
X66886999Y-23221269D01*
X66886999Y-22628602D02*
X66548332Y-22967269D01*
X67225666Y-23178936D02*
X67310333Y-23221269D01*
X67310333Y-23221269D02*
X67479666Y-23221269D01*
X67479666Y-23221269D02*
X67564333Y-23178936D01*
X67564333Y-23178936D02*
X67606666Y-23094269D01*
X67606666Y-23094269D02*
X67606666Y-23051936D01*
X67606666Y-23051936D02*
X67564333Y-22967269D01*
X67564333Y-22967269D02*
X67479666Y-22924936D01*
X67479666Y-22924936D02*
X67352666Y-22924936D01*
X67352666Y-22924936D02*
X67267999Y-22882602D01*
X67267999Y-22882602D02*
X67225666Y-22797936D01*
X67225666Y-22797936D02*
X67225666Y-22755602D01*
X67225666Y-22755602D02*
X67267999Y-22670936D01*
X67267999Y-22670936D02*
X67352666Y-22628602D01*
X67352666Y-22628602D02*
X67479666Y-22628602D01*
X67479666Y-22628602D02*
X67564333Y-22670936D01*
X57488999Y-25000116D02*
X57446666Y-24957782D01*
X57446666Y-24957782D02*
X57361999Y-24830782D01*
X57361999Y-24830782D02*
X57319666Y-24746116D01*
X57319666Y-24746116D02*
X57277333Y-24619116D01*
X57277333Y-24619116D02*
X57234999Y-24407449D01*
X57234999Y-24407449D02*
X57234999Y-24238116D01*
X57234999Y-24238116D02*
X57277333Y-24026449D01*
X57277333Y-24026449D02*
X57319666Y-23899449D01*
X57319666Y-23899449D02*
X57361999Y-23814782D01*
X57361999Y-23814782D02*
X57446666Y-23687782D01*
X57446666Y-23687782D02*
X57488999Y-23645449D01*
X57743000Y-23772449D02*
X58293333Y-23772449D01*
X58293333Y-23772449D02*
X57997000Y-24111116D01*
X57997000Y-24111116D02*
X58124000Y-24111116D01*
X58124000Y-24111116D02*
X58208666Y-24153449D01*
X58208666Y-24153449D02*
X58251000Y-24195782D01*
X58251000Y-24195782D02*
X58293333Y-24280449D01*
X58293333Y-24280449D02*
X58293333Y-24492116D01*
X58293333Y-24492116D02*
X58251000Y-24576782D01*
X58251000Y-24576782D02*
X58208666Y-24619116D01*
X58208666Y-24619116D02*
X58124000Y-24661449D01*
X58124000Y-24661449D02*
X57870000Y-24661449D01*
X57870000Y-24661449D02*
X57785333Y-24619116D01*
X57785333Y-24619116D02*
X57743000Y-24576782D01*
X58632000Y-23857116D02*
X58674333Y-23814782D01*
X58674333Y-23814782D02*
X58759000Y-23772449D01*
X58759000Y-23772449D02*
X58970667Y-23772449D01*
X58970667Y-23772449D02*
X59055333Y-23814782D01*
X59055333Y-23814782D02*
X59097667Y-23857116D01*
X59097667Y-23857116D02*
X59140000Y-23941782D01*
X59140000Y-23941782D02*
X59140000Y-24026449D01*
X59140000Y-24026449D02*
X59097667Y-24153449D01*
X59097667Y-24153449D02*
X58589667Y-24661449D01*
X58589667Y-24661449D02*
X59140000Y-24661449D01*
X59521000Y-24661449D02*
X59521000Y-23772449D01*
X59521000Y-23772449D02*
X59817334Y-24407449D01*
X59817334Y-24407449D02*
X60113667Y-23772449D01*
X60113667Y-23772449D02*
X60113667Y-24661449D01*
X60833334Y-24195782D02*
X60960334Y-24238116D01*
X60960334Y-24238116D02*
X61002667Y-24280449D01*
X61002667Y-24280449D02*
X61045000Y-24365116D01*
X61045000Y-24365116D02*
X61045000Y-24492116D01*
X61045000Y-24492116D02*
X61002667Y-24576782D01*
X61002667Y-24576782D02*
X60960334Y-24619116D01*
X60960334Y-24619116D02*
X60875667Y-24661449D01*
X60875667Y-24661449D02*
X60537000Y-24661449D01*
X60537000Y-24661449D02*
X60537000Y-23772449D01*
X60537000Y-23772449D02*
X60833334Y-23772449D01*
X60833334Y-23772449D02*
X60918000Y-23814782D01*
X60918000Y-23814782D02*
X60960334Y-23857116D01*
X60960334Y-23857116D02*
X61002667Y-23941782D01*
X61002667Y-23941782D02*
X61002667Y-24026449D01*
X61002667Y-24026449D02*
X60960334Y-24111116D01*
X60960334Y-24111116D02*
X60918000Y-24153449D01*
X60918000Y-24153449D02*
X60833334Y-24195782D01*
X60833334Y-24195782D02*
X60537000Y-24195782D01*
X61341334Y-24068782D02*
X61553000Y-24661449D01*
X61764667Y-24068782D02*
X61553000Y-24661449D01*
X61553000Y-24661449D02*
X61468334Y-24873116D01*
X61468334Y-24873116D02*
X61426000Y-24915449D01*
X61426000Y-24915449D02*
X61341334Y-24957782D01*
X61976333Y-24068782D02*
X62315000Y-24068782D01*
X62103333Y-23772449D02*
X62103333Y-24534449D01*
X62103333Y-24534449D02*
X62145667Y-24619116D01*
X62145667Y-24619116D02*
X62230333Y-24661449D01*
X62230333Y-24661449D02*
X62315000Y-24661449D01*
X62950000Y-24619116D02*
X62865333Y-24661449D01*
X62865333Y-24661449D02*
X62696000Y-24661449D01*
X62696000Y-24661449D02*
X62611333Y-24619116D01*
X62611333Y-24619116D02*
X62569000Y-24534449D01*
X62569000Y-24534449D02*
X62569000Y-24195782D01*
X62569000Y-24195782D02*
X62611333Y-24111116D01*
X62611333Y-24111116D02*
X62696000Y-24068782D01*
X62696000Y-24068782D02*
X62865333Y-24068782D01*
X62865333Y-24068782D02*
X62950000Y-24111116D01*
X62950000Y-24111116D02*
X62992333Y-24195782D01*
X62992333Y-24195782D02*
X62992333Y-24280449D01*
X62992333Y-24280449D02*
X62569000Y-24365116D01*
X63288667Y-25000116D02*
X63331000Y-24957782D01*
X63331000Y-24957782D02*
X63415667Y-24830782D01*
X63415667Y-24830782D02*
X63458000Y-24746116D01*
X63458000Y-24746116D02*
X63500333Y-24619116D01*
X63500333Y-24619116D02*
X63542667Y-24407449D01*
X63542667Y-24407449D02*
X63542667Y-24238116D01*
X63542667Y-24238116D02*
X63500333Y-24026449D01*
X63500333Y-24026449D02*
X63458000Y-23899449D01*
X63458000Y-23899449D02*
X63415667Y-23814782D01*
X63415667Y-23814782D02*
X63331000Y-23687782D01*
X63331000Y-23687782D02*
X63288667Y-23645449D01*
X64812667Y-23772449D02*
X64982000Y-23772449D01*
X64982000Y-23772449D02*
X65066667Y-23814782D01*
X65066667Y-23814782D02*
X65151333Y-23899449D01*
X65151333Y-23899449D02*
X65193667Y-24068782D01*
X65193667Y-24068782D02*
X65193667Y-24365116D01*
X65193667Y-24365116D02*
X65151333Y-24534449D01*
X65151333Y-24534449D02*
X65066667Y-24619116D01*
X65066667Y-24619116D02*
X64982000Y-24661449D01*
X64982000Y-24661449D02*
X64812667Y-24661449D01*
X64812667Y-24661449D02*
X64728000Y-24619116D01*
X64728000Y-24619116D02*
X64643333Y-24534449D01*
X64643333Y-24534449D02*
X64601000Y-24365116D01*
X64601000Y-24365116D02*
X64601000Y-24068782D01*
X64601000Y-24068782D02*
X64643333Y-23899449D01*
X64643333Y-23899449D02*
X64728000Y-23814782D01*
X64728000Y-23814782D02*
X64812667Y-23772449D01*
X65574666Y-24661449D02*
X65574666Y-23772449D01*
X65574666Y-23772449D02*
X66082666Y-24661449D01*
X66082666Y-24661449D02*
X66082666Y-23772449D01*
X66929333Y-24661449D02*
X66505999Y-24661449D01*
X66505999Y-24661449D02*
X66505999Y-23772449D01*
X67395000Y-24238116D02*
X67395000Y-24661449D01*
X67098666Y-23772449D02*
X67395000Y-24238116D01*
X67395000Y-24238116D02*
X67691333Y-23772449D01*
X59927857Y-9139010D02*
X60036715Y-9175295D01*
X60036715Y-9175295D02*
X60218143Y-9175295D01*
X60218143Y-9175295D02*
X60290715Y-9139010D01*
X60290715Y-9139010D02*
X60327000Y-9102724D01*
X60327000Y-9102724D02*
X60363286Y-9030152D01*
X60363286Y-9030152D02*
X60363286Y-8957581D01*
X60363286Y-8957581D02*
X60327000Y-8885010D01*
X60327000Y-8885010D02*
X60290715Y-8848724D01*
X60290715Y-8848724D02*
X60218143Y-8812438D01*
X60218143Y-8812438D02*
X60073000Y-8776152D01*
X60073000Y-8776152D02*
X60000429Y-8739867D01*
X60000429Y-8739867D02*
X59964143Y-8703581D01*
X59964143Y-8703581D02*
X59927857Y-8631010D01*
X59927857Y-8631010D02*
X59927857Y-8558438D01*
X59927857Y-8558438D02*
X59964143Y-8485867D01*
X59964143Y-8485867D02*
X60000429Y-8449581D01*
X60000429Y-8449581D02*
X60073000Y-8413295D01*
X60073000Y-8413295D02*
X60254429Y-8413295D01*
X60254429Y-8413295D02*
X60363286Y-8449581D01*
X60689857Y-9175295D02*
X60689857Y-8413295D01*
X60689857Y-8413295D02*
X60980143Y-8413295D01*
X60980143Y-8413295D02*
X61052714Y-8449581D01*
X61052714Y-8449581D02*
X61089000Y-8485867D01*
X61089000Y-8485867D02*
X61125286Y-8558438D01*
X61125286Y-8558438D02*
X61125286Y-8667295D01*
X61125286Y-8667295D02*
X61089000Y-8739867D01*
X61089000Y-8739867D02*
X61052714Y-8776152D01*
X61052714Y-8776152D02*
X60980143Y-8812438D01*
X60980143Y-8812438D02*
X60689857Y-8812438D01*
X61451857Y-9175295D02*
X61451857Y-8413295D01*
X61959857Y-8413295D02*
X62032428Y-8413295D01*
X62032428Y-8413295D02*
X62105000Y-8449581D01*
X62105000Y-8449581D02*
X62141286Y-8485867D01*
X62141286Y-8485867D02*
X62177571Y-8558438D01*
X62177571Y-8558438D02*
X62213857Y-8703581D01*
X62213857Y-8703581D02*
X62213857Y-8885010D01*
X62213857Y-8885010D02*
X62177571Y-9030152D01*
X62177571Y-9030152D02*
X62141286Y-9102724D01*
X62141286Y-9102724D02*
X62105000Y-9139010D01*
X62105000Y-9139010D02*
X62032428Y-9175295D01*
X62032428Y-9175295D02*
X61959857Y-9175295D01*
X61959857Y-9175295D02*
X61887286Y-9139010D01*
X61887286Y-9139010D02*
X61851000Y-9102724D01*
X61851000Y-9102724D02*
X61814714Y-9030152D01*
X61814714Y-9030152D02*
X61778428Y-8885010D01*
X61778428Y-8885010D02*
X61778428Y-8703581D01*
X61778428Y-8703581D02*
X61814714Y-8558438D01*
X61814714Y-8558438D02*
X61851000Y-8485867D01*
X61851000Y-8485867D02*
X61887286Y-8449581D01*
X61887286Y-8449581D02*
X61959857Y-8413295D01*
X62540428Y-8885010D02*
X63121000Y-8885010D01*
X62830714Y-9175295D02*
X62830714Y-8594724D01*
X63483857Y-9175295D02*
X63483857Y-8413295D01*
X63483857Y-8413295D02*
X63774143Y-8413295D01*
X63774143Y-8413295D02*
X63846714Y-8449581D01*
X63846714Y-8449581D02*
X63883000Y-8485867D01*
X63883000Y-8485867D02*
X63919286Y-8558438D01*
X63919286Y-8558438D02*
X63919286Y-8667295D01*
X63919286Y-8667295D02*
X63883000Y-8739867D01*
X63883000Y-8739867D02*
X63846714Y-8776152D01*
X63846714Y-8776152D02*
X63774143Y-8812438D01*
X63774143Y-8812438D02*
X63483857Y-8812438D01*
X64173286Y-8413295D02*
X64354714Y-9175295D01*
X64354714Y-9175295D02*
X64499857Y-8631010D01*
X64499857Y-8631010D02*
X64645000Y-9175295D01*
X64645000Y-9175295D02*
X64826429Y-8413295D01*
X65552143Y-9175295D02*
X65298143Y-8812438D01*
X65116714Y-9175295D02*
X65116714Y-8413295D01*
X65116714Y-8413295D02*
X65407000Y-8413295D01*
X65407000Y-8413295D02*
X65479571Y-8449581D01*
X65479571Y-8449581D02*
X65515857Y-8485867D01*
X65515857Y-8485867D02*
X65552143Y-8558438D01*
X65552143Y-8558438D02*
X65552143Y-8667295D01*
X65552143Y-8667295D02*
X65515857Y-8739867D01*
X65515857Y-8739867D02*
X65479571Y-8776152D01*
X65479571Y-8776152D02*
X65407000Y-8812438D01*
X65407000Y-8812438D02*
X65116714Y-8812438D01*
X58748573Y-10409735D02*
X58748573Y-9647735D01*
X59837144Y-9647735D02*
X59982287Y-9647735D01*
X59982287Y-9647735D02*
X60054858Y-9684021D01*
X60054858Y-9684021D02*
X60127430Y-9756592D01*
X60127430Y-9756592D02*
X60163715Y-9901735D01*
X60163715Y-9901735D02*
X60163715Y-10155735D01*
X60163715Y-10155735D02*
X60127430Y-10300878D01*
X60127430Y-10300878D02*
X60054858Y-10373450D01*
X60054858Y-10373450D02*
X59982287Y-10409735D01*
X59982287Y-10409735D02*
X59837144Y-10409735D01*
X59837144Y-10409735D02*
X59764573Y-10373450D01*
X59764573Y-10373450D02*
X59692001Y-10300878D01*
X59692001Y-10300878D02*
X59655715Y-10155735D01*
X59655715Y-10155735D02*
X59655715Y-9901735D01*
X59655715Y-9901735D02*
X59692001Y-9756592D01*
X59692001Y-9756592D02*
X59764573Y-9684021D01*
X59764573Y-9684021D02*
X59837144Y-9647735D01*
X61506287Y-10337164D02*
X61470001Y-10373450D01*
X61470001Y-10373450D02*
X61361144Y-10409735D01*
X61361144Y-10409735D02*
X61288572Y-10409735D01*
X61288572Y-10409735D02*
X61179715Y-10373450D01*
X61179715Y-10373450D02*
X61107144Y-10300878D01*
X61107144Y-10300878D02*
X61070858Y-10228307D01*
X61070858Y-10228307D02*
X61034572Y-10083164D01*
X61034572Y-10083164D02*
X61034572Y-9974307D01*
X61034572Y-9974307D02*
X61070858Y-9829164D01*
X61070858Y-9829164D02*
X61107144Y-9756592D01*
X61107144Y-9756592D02*
X61179715Y-9684021D01*
X61179715Y-9684021D02*
X61288572Y-9647735D01*
X61288572Y-9647735D02*
X61361144Y-9647735D01*
X61361144Y-9647735D02*
X61470001Y-9684021D01*
X61470001Y-9684021D02*
X61506287Y-9720307D01*
X62812572Y-10409735D02*
X62377143Y-10409735D01*
X62594858Y-10409735D02*
X62594858Y-9647735D01*
X62594858Y-9647735D02*
X62522286Y-9756592D01*
X62522286Y-9756592D02*
X62449715Y-9829164D01*
X62449715Y-9829164D02*
X62377143Y-9865450D01*
X63647143Y-9647735D02*
X64118857Y-9647735D01*
X64118857Y-9647735D02*
X63864857Y-9938021D01*
X63864857Y-9938021D02*
X63973714Y-9938021D01*
X63973714Y-9938021D02*
X64046286Y-9974307D01*
X64046286Y-9974307D02*
X64082571Y-10010592D01*
X64082571Y-10010592D02*
X64118857Y-10083164D01*
X64118857Y-10083164D02*
X64118857Y-10264592D01*
X64118857Y-10264592D02*
X64082571Y-10337164D01*
X64082571Y-10337164D02*
X64046286Y-10373450D01*
X64046286Y-10373450D02*
X63973714Y-10409735D01*
X63973714Y-10409735D02*
X63756000Y-10409735D01*
X63756000Y-10409735D02*
X63683428Y-10373450D01*
X63683428Y-10373450D02*
X63647143Y-10337164D01*
X65388856Y-9647735D02*
X65025999Y-9647735D01*
X65025999Y-9647735D02*
X64989713Y-10010592D01*
X64989713Y-10010592D02*
X65025999Y-9974307D01*
X65025999Y-9974307D02*
X65098571Y-9938021D01*
X65098571Y-9938021D02*
X65279999Y-9938021D01*
X65279999Y-9938021D02*
X65352571Y-9974307D01*
X65352571Y-9974307D02*
X65388856Y-10010592D01*
X65388856Y-10010592D02*
X65425142Y-10083164D01*
X65425142Y-10083164D02*
X65425142Y-10264592D01*
X65425142Y-10264592D02*
X65388856Y-10337164D01*
X65388856Y-10337164D02*
X65352571Y-10373450D01*
X65352571Y-10373450D02*
X65279999Y-10409735D01*
X65279999Y-10409735D02*
X65098571Y-10409735D01*
X65098571Y-10409735D02*
X65025999Y-10373450D01*
X65025999Y-10373450D02*
X64989713Y-10337164D01*
X66731427Y-9684021D02*
X66658856Y-9647735D01*
X66658856Y-9647735D02*
X66549998Y-9647735D01*
X66549998Y-9647735D02*
X66441141Y-9684021D01*
X66441141Y-9684021D02*
X66368570Y-9756592D01*
X66368570Y-9756592D02*
X66332284Y-9829164D01*
X66332284Y-9829164D02*
X66295998Y-9974307D01*
X66295998Y-9974307D02*
X66295998Y-10083164D01*
X66295998Y-10083164D02*
X66332284Y-10228307D01*
X66332284Y-10228307D02*
X66368570Y-10300878D01*
X66368570Y-10300878D02*
X66441141Y-10373450D01*
X66441141Y-10373450D02*
X66549998Y-10409735D01*
X66549998Y-10409735D02*
X66622570Y-10409735D01*
X66622570Y-10409735D02*
X66731427Y-10373450D01*
X66731427Y-10373450D02*
X66767713Y-10337164D01*
X66767713Y-10337164D02*
X66767713Y-10083164D01*
X66767713Y-10083164D02*
X66622570Y-10083164D01*
X50828857Y-41675515D02*
X51300571Y-41675515D01*
X51300571Y-41675515D02*
X51046571Y-41965801D01*
X51046571Y-41965801D02*
X51155428Y-41965801D01*
X51155428Y-41965801D02*
X51228000Y-42002087D01*
X51228000Y-42002087D02*
X51264285Y-42038372D01*
X51264285Y-42038372D02*
X51300571Y-42110944D01*
X51300571Y-42110944D02*
X51300571Y-42292372D01*
X51300571Y-42292372D02*
X51264285Y-42364944D01*
X51264285Y-42364944D02*
X51228000Y-42401230D01*
X51228000Y-42401230D02*
X51155428Y-42437515D01*
X51155428Y-42437515D02*
X50937714Y-42437515D01*
X50937714Y-42437515D02*
X50865142Y-42401230D01*
X50865142Y-42401230D02*
X50828857Y-42364944D01*
X51554571Y-41929515D02*
X51735999Y-42437515D01*
X51735999Y-42437515D02*
X51917428Y-41929515D01*
X52135142Y-41675515D02*
X52606856Y-41675515D01*
X52606856Y-41675515D02*
X52352856Y-41965801D01*
X52352856Y-41965801D02*
X52461713Y-41965801D01*
X52461713Y-41965801D02*
X52534285Y-42002087D01*
X52534285Y-42002087D02*
X52570570Y-42038372D01*
X52570570Y-42038372D02*
X52606856Y-42110944D01*
X52606856Y-42110944D02*
X52606856Y-42292372D01*
X52606856Y-42292372D02*
X52570570Y-42364944D01*
X52570570Y-42364944D02*
X52534285Y-42401230D01*
X52534285Y-42401230D02*
X52461713Y-42437515D01*
X52461713Y-42437515D02*
X52243999Y-42437515D01*
X52243999Y-42437515D02*
X52171427Y-42401230D01*
X52171427Y-42401230D02*
X52135142Y-42364944D01*
D11*
G04 #@! TO.C,U1*
X36712619Y-43301904D02*
X37522142Y-43301904D01*
X37522142Y-43301904D02*
X37617380Y-43254285D01*
X37617380Y-43254285D02*
X37665000Y-43206666D01*
X37665000Y-43206666D02*
X37712619Y-43111428D01*
X37712619Y-43111428D02*
X37712619Y-42920952D01*
X37712619Y-42920952D02*
X37665000Y-42825714D01*
X37665000Y-42825714D02*
X37617380Y-42778095D01*
X37617380Y-42778095D02*
X37522142Y-42730476D01*
X37522142Y-42730476D02*
X36712619Y-42730476D01*
X37712619Y-41730476D02*
X37712619Y-42301904D01*
X37712619Y-42016190D02*
X36712619Y-42016190D01*
X36712619Y-42016190D02*
X36855476Y-42111428D01*
X36855476Y-42111428D02*
X36950714Y-42206666D01*
X36950714Y-42206666D02*
X36998333Y-42301904D01*
X35022619Y-45949999D02*
X35260714Y-45949999D01*
X35165476Y-46188094D02*
X35260714Y-45949999D01*
X35260714Y-45949999D02*
X35165476Y-45711904D01*
X35451190Y-46092856D02*
X35260714Y-45949999D01*
X35260714Y-45949999D02*
X35451190Y-45807142D01*
G04 #@! TO.C,RXD*
X40939922Y-42654264D02*
X41095958Y-42319764D01*
X40758493Y-42340020D02*
X41308419Y-42022520D01*
X41308419Y-42022520D02*
X41429371Y-42232016D01*
X41429371Y-42232016D02*
X41433423Y-42299509D01*
X41433423Y-42299509D02*
X41422355Y-42340815D01*
X41422355Y-42340815D02*
X41385100Y-42397240D01*
X41385100Y-42397240D02*
X41306539Y-42442597D01*
X41306539Y-42442597D02*
X41239046Y-42446648D01*
X41239046Y-42446648D02*
X41197740Y-42435580D01*
X41197740Y-42435580D02*
X41141315Y-42398325D01*
X41141315Y-42398325D02*
X41020363Y-42188830D01*
X41595681Y-42520072D02*
X41257422Y-43204190D01*
X41807348Y-42886690D02*
X41045755Y-42837572D01*
X41378374Y-43413685D02*
X41928300Y-43096185D01*
X41928300Y-43096185D02*
X42003895Y-43227120D01*
X42003895Y-43227120D02*
X42023065Y-43320800D01*
X42023065Y-43320800D02*
X42000930Y-43403412D01*
X42000930Y-43403412D02*
X41963675Y-43459837D01*
X41963675Y-43459837D02*
X41874046Y-43546500D01*
X41874046Y-43546500D02*
X41795485Y-43591858D01*
X41795485Y-43591858D02*
X41675618Y-43626147D01*
X41675618Y-43626147D02*
X41608125Y-43630198D01*
X41608125Y-43630198D02*
X41525513Y-43608062D01*
X41525513Y-43608062D02*
X41453969Y-43544620D01*
X41453969Y-43544620D02*
X41378374Y-43413685D01*
G04 #@! TO.C,J2*
X57735200Y-11922619D02*
X57735200Y-12160714D01*
X57497105Y-12065476D02*
X57735200Y-12160714D01*
X57735200Y-12160714D02*
X57973295Y-12065476D01*
X57592343Y-12351190D02*
X57735200Y-12160714D01*
X57735200Y-12160714D02*
X57878057Y-12351190D01*
G04 #@! TO.C,J3*
X36990000Y-11802619D02*
X36990000Y-12040714D01*
X36751905Y-11945476D02*
X36990000Y-12040714D01*
X36990000Y-12040714D02*
X37228095Y-11945476D01*
X36847143Y-12231190D02*
X36990000Y-12040714D01*
X36990000Y-12040714D02*
X37132857Y-12231190D01*
D10*
G04 #@! TO.C,R13*
X69555010Y-45786571D02*
X69313105Y-45955905D01*
X69555010Y-46076857D02*
X69047010Y-46076857D01*
X69047010Y-46076857D02*
X69047010Y-45883333D01*
X69047010Y-45883333D02*
X69071200Y-45834952D01*
X69071200Y-45834952D02*
X69095391Y-45810762D01*
X69095391Y-45810762D02*
X69143772Y-45786571D01*
X69143772Y-45786571D02*
X69216343Y-45786571D01*
X69216343Y-45786571D02*
X69264724Y-45810762D01*
X69264724Y-45810762D02*
X69288915Y-45834952D01*
X69288915Y-45834952D02*
X69313105Y-45883333D01*
X69313105Y-45883333D02*
X69313105Y-46076857D01*
X69555010Y-45302762D02*
X69555010Y-45593048D01*
X69555010Y-45447905D02*
X69047010Y-45447905D01*
X69047010Y-45447905D02*
X69119581Y-45496286D01*
X69119581Y-45496286D02*
X69167962Y-45544667D01*
X69167962Y-45544667D02*
X69192153Y-45593048D01*
X69047010Y-45133428D02*
X69047010Y-44818952D01*
X69047010Y-44818952D02*
X69240534Y-44988285D01*
X69240534Y-44988285D02*
X69240534Y-44915714D01*
X69240534Y-44915714D02*
X69264724Y-44867333D01*
X69264724Y-44867333D02*
X69288915Y-44843142D01*
X69288915Y-44843142D02*
X69337296Y-44818952D01*
X69337296Y-44818952D02*
X69458248Y-44818952D01*
X69458248Y-44818952D02*
X69506629Y-44843142D01*
X69506629Y-44843142D02*
X69530820Y-44867333D01*
X69530820Y-44867333D02*
X69555010Y-44915714D01*
X69555010Y-44915714D02*
X69555010Y-45060857D01*
X69555010Y-45060857D02*
X69530820Y-45109238D01*
X69530820Y-45109238D02*
X69506629Y-45133428D01*
G04 #@! TO.C,R11*
X32283428Y-17085010D02*
X32114094Y-16843105D01*
X31993142Y-17085010D02*
X31993142Y-16577010D01*
X31993142Y-16577010D02*
X32186666Y-16577010D01*
X32186666Y-16577010D02*
X32235047Y-16601200D01*
X32235047Y-16601200D02*
X32259237Y-16625391D01*
X32259237Y-16625391D02*
X32283428Y-16673772D01*
X32283428Y-16673772D02*
X32283428Y-16746343D01*
X32283428Y-16746343D02*
X32259237Y-16794724D01*
X32259237Y-16794724D02*
X32235047Y-16818915D01*
X32235047Y-16818915D02*
X32186666Y-16843105D01*
X32186666Y-16843105D02*
X31993142Y-16843105D01*
X32767237Y-17085010D02*
X32476951Y-17085010D01*
X32622094Y-17085010D02*
X32622094Y-16577010D01*
X32622094Y-16577010D02*
X32573713Y-16649581D01*
X32573713Y-16649581D02*
X32525332Y-16697962D01*
X32525332Y-16697962D02*
X32476951Y-16722153D01*
X33251047Y-17085010D02*
X32960761Y-17085010D01*
X33105904Y-17085010D02*
X33105904Y-16577010D01*
X33105904Y-16577010D02*
X33057523Y-16649581D01*
X33057523Y-16649581D02*
X33009142Y-16697962D01*
X33009142Y-16697962D02*
X32960761Y-16722153D01*
D11*
G04 #@! TO.C,U4*
X66511920Y-16321469D02*
X66511920Y-17130992D01*
X66511920Y-17130992D02*
X66559539Y-17226230D01*
X66559539Y-17226230D02*
X66607158Y-17273850D01*
X66607158Y-17273850D02*
X66702396Y-17321469D01*
X66702396Y-17321469D02*
X66892872Y-17321469D01*
X66892872Y-17321469D02*
X66988110Y-17273850D01*
X66988110Y-17273850D02*
X67035729Y-17226230D01*
X67035729Y-17226230D02*
X67083348Y-17130992D01*
X67083348Y-17130992D02*
X67083348Y-16321469D01*
X67988110Y-16654802D02*
X67988110Y-17321469D01*
X67750015Y-16273850D02*
X67511920Y-16988135D01*
X67511920Y-16988135D02*
X68130967Y-16988135D01*
X45272619Y-26639999D02*
X45510714Y-26639999D01*
X45415476Y-26878094D02*
X45510714Y-26639999D01*
X45510714Y-26639999D02*
X45415476Y-26401904D01*
X45701190Y-26782856D02*
X45510714Y-26639999D01*
X45510714Y-26639999D02*
X45701190Y-26497142D01*
X46532619Y-24469999D02*
X46770714Y-24469999D01*
X46675476Y-24708094D02*
X46770714Y-24469999D01*
X46770714Y-24469999D02*
X46675476Y-24231904D01*
X46961190Y-24612856D02*
X46770714Y-24469999D01*
X46770714Y-24469999D02*
X46961190Y-24327142D01*
G04 #@! TO.C,U5*
X64606770Y-29172619D02*
X64606770Y-29982142D01*
X64606770Y-29982142D02*
X64654389Y-30077380D01*
X64654389Y-30077380D02*
X64702008Y-30125000D01*
X64702008Y-30125000D02*
X64797246Y-30172619D01*
X64797246Y-30172619D02*
X64987722Y-30172619D01*
X64987722Y-30172619D02*
X65082960Y-30125000D01*
X65082960Y-30125000D02*
X65130579Y-30077380D01*
X65130579Y-30077380D02*
X65178198Y-29982142D01*
X65178198Y-29982142D02*
X65178198Y-29172619D01*
X66130579Y-29172619D02*
X65654389Y-29172619D01*
X65654389Y-29172619D02*
X65606770Y-29648809D01*
X65606770Y-29648809D02*
X65654389Y-29601190D01*
X65654389Y-29601190D02*
X65749627Y-29553571D01*
X65749627Y-29553571D02*
X65987722Y-29553571D01*
X65987722Y-29553571D02*
X66082960Y-29601190D01*
X66082960Y-29601190D02*
X66130579Y-29648809D01*
X66130579Y-29648809D02*
X66178198Y-29744047D01*
X66178198Y-29744047D02*
X66178198Y-29982142D01*
X66178198Y-29982142D02*
X66130579Y-30077380D01*
X66130579Y-30077380D02*
X66082960Y-30125000D01*
X66082960Y-30125000D02*
X65987722Y-30172619D01*
X65987722Y-30172619D02*
X65749627Y-30172619D01*
X65749627Y-30172619D02*
X65654389Y-30125000D01*
X65654389Y-30125000D02*
X65606770Y-30077380D01*
X69240000Y-40592619D02*
X69240000Y-40830714D01*
X69001905Y-40735476D02*
X69240000Y-40830714D01*
X69240000Y-40830714D02*
X69478095Y-40735476D01*
X69097143Y-41021190D02*
X69240000Y-40830714D01*
X69240000Y-40830714D02*
X69382857Y-41021190D01*
X66150000Y-40222619D02*
X66150000Y-40460714D01*
X65911905Y-40365476D02*
X66150000Y-40460714D01*
X66150000Y-40460714D02*
X66388095Y-40365476D01*
X66007143Y-40651190D02*
X66150000Y-40460714D01*
X66150000Y-40460714D02*
X66292857Y-40651190D01*
G04 #@! TO.C,TXD*
X44070859Y-42169426D02*
X44252288Y-42483670D01*
X43611648Y-42644048D02*
X44161574Y-42326548D01*
X44327883Y-42614605D02*
X43989624Y-43298723D01*
X44539550Y-42981223D02*
X43777957Y-42932105D01*
X44110576Y-43508218D02*
X44660503Y-43190718D01*
X44660503Y-43190718D02*
X44736098Y-43321653D01*
X44736098Y-43321653D02*
X44755268Y-43415333D01*
X44755268Y-43415333D02*
X44733132Y-43497945D01*
X44733132Y-43497945D02*
X44695877Y-43554370D01*
X44695877Y-43554370D02*
X44606249Y-43641033D01*
X44606249Y-43641033D02*
X44527688Y-43686390D01*
X44527688Y-43686390D02*
X44407821Y-43720680D01*
X44407821Y-43720680D02*
X44340328Y-43724731D01*
X44340328Y-43724731D02*
X44257716Y-43702595D01*
X44257716Y-43702595D02*
X44186172Y-43639153D01*
X44186172Y-43639153D02*
X44110576Y-43508218D01*
D10*
G04 #@! TO.C,R10*
X24793428Y-17135010D02*
X24624094Y-16893105D01*
X24503142Y-17135010D02*
X24503142Y-16627010D01*
X24503142Y-16627010D02*
X24696666Y-16627010D01*
X24696666Y-16627010D02*
X24745047Y-16651200D01*
X24745047Y-16651200D02*
X24769237Y-16675391D01*
X24769237Y-16675391D02*
X24793428Y-16723772D01*
X24793428Y-16723772D02*
X24793428Y-16796343D01*
X24793428Y-16796343D02*
X24769237Y-16844724D01*
X24769237Y-16844724D02*
X24745047Y-16868915D01*
X24745047Y-16868915D02*
X24696666Y-16893105D01*
X24696666Y-16893105D02*
X24503142Y-16893105D01*
X25277237Y-17135010D02*
X24986951Y-17135010D01*
X25132094Y-17135010D02*
X25132094Y-16627010D01*
X25132094Y-16627010D02*
X25083713Y-16699581D01*
X25083713Y-16699581D02*
X25035332Y-16747962D01*
X25035332Y-16747962D02*
X24986951Y-16772153D01*
X25591714Y-16627010D02*
X25640095Y-16627010D01*
X25640095Y-16627010D02*
X25688476Y-16651200D01*
X25688476Y-16651200D02*
X25712666Y-16675391D01*
X25712666Y-16675391D02*
X25736857Y-16723772D01*
X25736857Y-16723772D02*
X25761047Y-16820534D01*
X25761047Y-16820534D02*
X25761047Y-16941486D01*
X25761047Y-16941486D02*
X25736857Y-17038248D01*
X25736857Y-17038248D02*
X25712666Y-17086629D01*
X25712666Y-17086629D02*
X25688476Y-17110820D01*
X25688476Y-17110820D02*
X25640095Y-17135010D01*
X25640095Y-17135010D02*
X25591714Y-17135010D01*
X25591714Y-17135010D02*
X25543333Y-17110820D01*
X25543333Y-17110820D02*
X25519142Y-17086629D01*
X25519142Y-17086629D02*
X25494952Y-17038248D01*
X25494952Y-17038248D02*
X25470761Y-16941486D01*
X25470761Y-16941486D02*
X25470761Y-16820534D01*
X25470761Y-16820534D02*
X25494952Y-16723772D01*
X25494952Y-16723772D02*
X25519142Y-16675391D01*
X25519142Y-16675391D02*
X25543333Y-16651200D01*
X25543333Y-16651200D02*
X25591714Y-16627010D01*
D11*
G04 #@! TO.C,Y1*
X36594428Y-37366190D02*
X37070619Y-37366190D01*
X36070619Y-37699523D02*
X36594428Y-37366190D01*
X36594428Y-37366190D02*
X36070619Y-37032857D01*
X37070619Y-36175714D02*
X37070619Y-36747142D01*
X37070619Y-36461428D02*
X36070619Y-36461428D01*
X36070619Y-36461428D02*
X36213476Y-36556666D01*
X36213476Y-36556666D02*
X36308714Y-36651904D01*
X36308714Y-36651904D02*
X36356333Y-36747142D01*
D12*
G04 #@! TO.C,U1*
X36260000Y-42640000D02*
X36260000Y-46090000D01*
X36260000Y-42640000D02*
X36260000Y-40690000D01*
X46380000Y-42640000D02*
X46380000Y-44590000D01*
X46380000Y-42640000D02*
X46380000Y-40690000D01*
D13*
G04 #@! TO.C,C48*
X47210000Y-44000000D02*
X47640000Y-44000000D01*
X47210000Y-44920000D02*
X47210000Y-44005000D01*
X47215000Y-44920000D02*
X47645000Y-44920000D01*
X49355000Y-44000000D02*
X48925000Y-44000000D01*
X49360000Y-44000000D02*
X49360000Y-44915000D01*
X49360000Y-44920000D02*
X48930000Y-44920000D01*
D12*
G04 #@! TO.C,R7*
X23542500Y-39885276D02*
X23542500Y-40394724D01*
X22497500Y-39885276D02*
X22497500Y-40394724D01*
D13*
G04 #@! TO.C,C21*
X26170000Y-17830000D02*
X26170000Y-18260000D01*
X25250000Y-17830000D02*
X26165000Y-17830000D01*
X25250000Y-17835000D02*
X25250000Y-18265000D01*
X26170000Y-19975000D02*
X26170000Y-19545000D01*
X26170000Y-19980000D02*
X25255000Y-19980000D01*
X25250000Y-19980000D02*
X25250000Y-19550000D01*
G04 #@! TO.C,C40*
X31410000Y-17810000D02*
X31410000Y-18240000D01*
X30490000Y-17810000D02*
X31405000Y-17810000D01*
X30490000Y-17815000D02*
X30490000Y-18245000D01*
X31410000Y-19955000D02*
X31410000Y-19525000D01*
X31410000Y-19960000D02*
X30495000Y-19960000D01*
X30490000Y-19960000D02*
X30490000Y-19530000D01*
G04 #@! TO.C,C14*
X22560000Y-19260000D02*
X22990000Y-19260000D01*
X22560000Y-20180000D02*
X22560000Y-19265000D01*
X22565000Y-20180000D02*
X22995000Y-20180000D01*
X24705000Y-19260000D02*
X24275000Y-19260000D01*
X24710000Y-19260000D02*
X24710000Y-20175000D01*
X24710000Y-20180000D02*
X24280000Y-20180000D01*
G04 #@! TO.C,C35*
X31770000Y-34987500D02*
X31770000Y-35417500D01*
X30850000Y-34987500D02*
X31765000Y-34987500D01*
X30850000Y-34992500D02*
X30850000Y-35422500D01*
X31770000Y-37132500D02*
X31770000Y-36702500D01*
X31770000Y-37137500D02*
X30855000Y-37137500D01*
X30850000Y-37137500D02*
X30850000Y-36707500D01*
G04 #@! TO.C,C43*
X22572500Y-24880000D02*
X23002500Y-24880000D01*
X22572500Y-25800000D02*
X22572500Y-24885000D01*
X22577500Y-25800000D02*
X23007500Y-25800000D01*
X24717500Y-24880000D02*
X24287500Y-24880000D01*
X24722500Y-24880000D02*
X24722500Y-25795000D01*
X24722500Y-25800000D02*
X24292500Y-25800000D01*
D14*
G04 #@! TO.C,IC1*
X38650000Y-20500000D02*
X39250000Y-21100000D01*
X25250000Y-20500000D02*
X38650000Y-20500000D01*
X39250000Y-21100000D02*
X39250000Y-34500000D01*
X39250000Y-34500000D02*
X25250000Y-34500000D01*
X25250000Y-34500000D02*
X25250000Y-20500000D01*
X39350000Y-20500000D02*
G75*
G03*
X39350000Y-20500000I-100000J0D01*
G01*
D12*
G04 #@! TO.C,RXD*
X43360000Y-42150000D02*
G75*
G03*
X43360000Y-42150000I-700000J0D01*
G01*
G04 #@! TO.C,J1*
X33910000Y-12463500D02*
X33910000Y-10463500D01*
X33910000Y-8563500D02*
X33910000Y-6663500D01*
X33910000Y-6663500D02*
X24510000Y-6663500D01*
X24510000Y-12463500D02*
X24510000Y-10463500D01*
X24510000Y-8563500D02*
X24510000Y-6663500D01*
G04 #@! TO.C,D2*
X68430000Y-42697000D02*
X68430000Y-41227000D01*
X68430000Y-41227000D02*
X65970000Y-41227000D01*
X65970000Y-42697000D02*
X68430000Y-42697000D01*
D13*
G04 #@! TO.C,C18*
X39180000Y-17810000D02*
X39180000Y-18240000D01*
X38260000Y-17810000D02*
X39175000Y-17810000D01*
X38260000Y-17815000D02*
X38260000Y-18245000D01*
X39180000Y-19955000D02*
X39180000Y-19525000D01*
X39180000Y-19960000D02*
X38265000Y-19960000D01*
X38260000Y-19960000D02*
X38260000Y-19530000D01*
G04 #@! TO.C,C28*
X25420000Y-37160000D02*
X25420000Y-36730000D01*
X26340000Y-37160000D02*
X25425000Y-37160000D01*
X26340000Y-37155000D02*
X26340000Y-36725000D01*
X25420000Y-35015000D02*
X25420000Y-35445000D01*
X25420000Y-35010000D02*
X26335000Y-35010000D01*
X26340000Y-35010000D02*
X26340000Y-35440000D01*
G04 #@! TO.C,C26*
X58430000Y-28360000D02*
X58000000Y-28360000D01*
X58430000Y-27440000D02*
X58430000Y-28355000D01*
X58425000Y-27440000D02*
X57995000Y-27440000D01*
X56285000Y-28360000D02*
X56715000Y-28360000D01*
X56280000Y-28360000D02*
X56280000Y-27445000D01*
X56280000Y-27440000D02*
X56710000Y-27440000D01*
D12*
G04 #@! TO.C,J2*
X67775200Y-13081520D02*
X67775200Y-11090160D01*
X67775200Y-8214880D02*
X67775200Y-7087120D01*
X67775200Y-7071000D02*
X57111200Y-7093600D01*
X66889540Y-13081520D02*
X67775200Y-13081520D01*
X57111200Y-13088000D02*
X57996860Y-13088000D01*
X57111200Y-11096640D02*
X57111200Y-13088000D01*
X57111200Y-7093600D02*
X57111200Y-8221360D01*
X56857200Y-12961000D02*
G75*
G03*
X56857200Y-12961000I-381000J0D01*
G01*
D13*
G04 #@! TO.C,C30*
X26790000Y-37160000D02*
X26790000Y-36730000D01*
X27710000Y-37160000D02*
X26795000Y-37160000D01*
X27710000Y-37155000D02*
X27710000Y-36725000D01*
X26790000Y-35015000D02*
X26790000Y-35445000D01*
X26790000Y-35010000D02*
X27705000Y-35010000D01*
X27710000Y-35010000D02*
X27710000Y-35440000D01*
G04 #@! TO.C,C11*
X69940000Y-29120000D02*
X69940000Y-29550000D01*
X69020000Y-29120000D02*
X69935000Y-29120000D01*
X69020000Y-29125000D02*
X69020000Y-29555000D01*
X69940000Y-31265000D02*
X69940000Y-30835000D01*
X69940000Y-31270000D02*
X69025000Y-31270000D01*
X69020000Y-31270000D02*
X69020000Y-30840000D01*
G04 #@! TO.C,C25*
X69930000Y-33670000D02*
X69930000Y-34100000D01*
X69010000Y-33670000D02*
X69925000Y-33670000D01*
X69010000Y-33675000D02*
X69010000Y-34105000D01*
X69930000Y-35815000D02*
X69930000Y-35385000D01*
X69930000Y-35820000D02*
X69015000Y-35820000D01*
X69010000Y-35820000D02*
X69010000Y-35390000D01*
D12*
G04 #@! TO.C,U6*
X54580000Y-45920000D02*
X53440000Y-45920000D01*
X53440000Y-46150000D02*
X53440000Y-45920000D01*
X53440000Y-46150000D02*
X50720000Y-46150000D01*
X53440000Y-41430000D02*
X53440000Y-41660000D01*
X50720000Y-46150000D02*
X50720000Y-44840000D01*
X50720000Y-42740000D02*
X50720000Y-41430000D01*
X50720000Y-41430000D02*
X53440000Y-41430000D01*
D13*
G04 #@! TO.C,C15*
X54060000Y-12590000D02*
X54490000Y-12590000D01*
X54060000Y-13510000D02*
X54060000Y-12595000D01*
X54065000Y-13510000D02*
X54495000Y-13510000D01*
X56205000Y-12590000D02*
X55775000Y-12590000D01*
X56210000Y-12590000D02*
X56210000Y-13505000D01*
X56210000Y-13510000D02*
X55780000Y-13510000D01*
G04 #@! TO.C,C41*
X36630000Y-17820000D02*
X36630000Y-18250000D01*
X35710000Y-17820000D02*
X36625000Y-17820000D01*
X35710000Y-17825000D02*
X35710000Y-18255000D01*
X36630000Y-19965000D02*
X36630000Y-19535000D01*
X36630000Y-19970000D02*
X35715000Y-19970000D01*
X35710000Y-19970000D02*
X35710000Y-19540000D01*
G04 #@! TO.C,C24*
X54370000Y-28440000D02*
X53940000Y-28440000D01*
X54370000Y-27520000D02*
X54370000Y-28435000D01*
X54365000Y-27520000D02*
X53935000Y-27520000D01*
X52225000Y-28440000D02*
X52655000Y-28440000D01*
X52220000Y-28440000D02*
X52220000Y-27525000D01*
X52220000Y-27520000D02*
X52650000Y-27520000D01*
G04 #@! TO.C,C45*
X22580000Y-20740000D02*
X23010000Y-20740000D01*
X22580000Y-21660000D02*
X22580000Y-20745000D01*
X22585000Y-21660000D02*
X23015000Y-21660000D01*
X24725000Y-20740000D02*
X24295000Y-20740000D01*
X24730000Y-20740000D02*
X24730000Y-21655000D01*
X24730000Y-21660000D02*
X24300000Y-21660000D01*
D12*
G04 #@! TO.C,R14*
X53522500Y-9807776D02*
X53522500Y-10317224D01*
X52477500Y-9807776D02*
X52477500Y-10317224D01*
D13*
G04 #@! TO.C,C12*
X39760000Y-37170000D02*
X39760000Y-36740000D01*
X40680000Y-37170000D02*
X39765000Y-37170000D01*
X40680000Y-37165000D02*
X40680000Y-36735000D01*
X39760000Y-35025000D02*
X39760000Y-35455000D01*
X39760000Y-35020000D02*
X40675000Y-35020000D01*
X40680000Y-35020000D02*
X40680000Y-35450000D01*
D12*
G04 #@! TO.C,R9*
X22527500Y-14944724D02*
X22527500Y-14435276D01*
X23572500Y-14944724D02*
X23572500Y-14435276D01*
D13*
G04 #@! TO.C,C38*
X22542500Y-30334000D02*
X22972500Y-30334000D01*
X22542500Y-31254000D02*
X22542500Y-30339000D01*
X22547500Y-31254000D02*
X22977500Y-31254000D01*
X24687500Y-30334000D02*
X24257500Y-30334000D01*
X24692500Y-30334000D02*
X24692500Y-31249000D01*
X24692500Y-31254000D02*
X24262500Y-31254000D01*
D12*
G04 #@! TO.C,D3*
X68455000Y-46253000D02*
X68455000Y-44783000D01*
X68455000Y-44783000D02*
X65995000Y-44783000D01*
X65995000Y-46253000D02*
X68455000Y-46253000D01*
D13*
G04 #@! TO.C,C22*
X35330000Y-17810000D02*
X35330000Y-18240000D01*
X34410000Y-17810000D02*
X35325000Y-17810000D01*
X34410000Y-17815000D02*
X34410000Y-18245000D01*
X35330000Y-19955000D02*
X35330000Y-19525000D01*
X35330000Y-19960000D02*
X34415000Y-19960000D01*
X34410000Y-19960000D02*
X34410000Y-19530000D01*
D12*
G04 #@! TO.C,J3*
X47012200Y-13081520D02*
X47012200Y-11090160D01*
X47012200Y-8214880D02*
X47012200Y-7087120D01*
X47012200Y-7071000D02*
X36348200Y-7093600D01*
X46126540Y-13081520D02*
X47012200Y-13081520D01*
X36348200Y-13088000D02*
X37233860Y-13088000D01*
X36348200Y-11096640D02*
X36348200Y-13088000D01*
X36348200Y-7093600D02*
X36348200Y-8221360D01*
X36094200Y-12961000D02*
G75*
G03*
X36094200Y-12961000I-381000J0D01*
G01*
D13*
G04 #@! TO.C,C39*
X32690000Y-17810000D02*
X32690000Y-18240000D01*
X31770000Y-17810000D02*
X32685000Y-17810000D01*
X31770000Y-17815000D02*
X31770000Y-18245000D01*
X32690000Y-19955000D02*
X32690000Y-19525000D01*
X32690000Y-19960000D02*
X31775000Y-19960000D01*
X31770000Y-19960000D02*
X31770000Y-19530000D01*
G04 #@! TO.C,C50*
X47200000Y-42580000D02*
X47630000Y-42580000D01*
X47200000Y-43500000D02*
X47200000Y-42585000D01*
X47205000Y-43500000D02*
X47635000Y-43500000D01*
X49345000Y-42580000D02*
X48915000Y-42580000D01*
X49350000Y-42580000D02*
X49350000Y-43495000D01*
X49350000Y-43500000D02*
X48920000Y-43500000D01*
G04 #@! TO.C,C17*
X47220000Y-45340000D02*
X47650000Y-45340000D01*
X47220000Y-46260000D02*
X47220000Y-45345000D01*
X47225000Y-46260000D02*
X47655000Y-46260000D01*
X49365000Y-45340000D02*
X48935000Y-45340000D01*
X49370000Y-45340000D02*
X49370000Y-46255000D01*
X49370000Y-46260000D02*
X48940000Y-46260000D01*
D12*
G04 #@! TO.C,R8*
X23572500Y-10895276D02*
X23572500Y-11404724D01*
X22527500Y-10895276D02*
X22527500Y-11404724D01*
G04 #@! TO.C,R13*
X69855000Y-42603276D02*
X69855000Y-43112724D01*
X68810000Y-42603276D02*
X68810000Y-43112724D01*
D13*
G04 #@! TO.C,C3*
X42001056Y-30598406D02*
X42305111Y-30294350D01*
X42651594Y-31248944D02*
X42004591Y-30601942D01*
X42655129Y-31245409D02*
X42959185Y-30941353D01*
X43517800Y-29081662D02*
X43213744Y-29385718D01*
X43521335Y-29078127D02*
X44168338Y-29725129D01*
X44171873Y-29728665D02*
X43867817Y-30032721D01*
D12*
G04 #@! TO.C,R11*
X29662379Y-16540000D02*
X29997621Y-16540000D01*
X29662379Y-17300000D02*
X29997621Y-17300000D01*
D13*
G04 #@! TO.C,C32*
X52710000Y-13420000D02*
X52280000Y-13420000D01*
X52710000Y-12500000D02*
X52710000Y-13415000D01*
X52705000Y-12500000D02*
X52275000Y-12500000D01*
X50565000Y-13420000D02*
X50995000Y-13420000D01*
X50560000Y-13420000D02*
X50560000Y-12505000D01*
X50560000Y-12500000D02*
X50990000Y-12500000D01*
D12*
G04 #@! TO.C,U4*
X46035500Y-25882050D02*
X46350460Y-25882050D01*
X68326540Y-25882050D02*
X68641500Y-25882050D01*
X68641500Y-25882050D02*
X68641500Y-15341050D01*
X46035500Y-15341050D02*
X46035500Y-25882050D01*
X46350460Y-15341050D02*
X46035500Y-15341050D01*
X68641500Y-15341050D02*
X68326540Y-15341050D01*
D13*
X54328600Y-27456850D02*
X53947600Y-27456850D01*
X53947600Y-27202850D01*
X54328600Y-27202850D01*
X54328600Y-27456850D01*
G36*
X54328600Y-27456850D02*
G01*
X53947600Y-27456850D01*
X53947600Y-27202850D01*
X54328600Y-27202850D01*
X54328600Y-27456850D01*
G37*
X62329600Y-27456850D02*
X61948600Y-27456850D01*
X61948600Y-27202850D01*
X62329600Y-27202850D01*
X62329600Y-27456850D01*
G36*
X62329600Y-27456850D02*
G01*
X61948600Y-27456850D01*
X61948600Y-27202850D01*
X62329600Y-27202850D01*
X62329600Y-27456850D01*
G37*
X50328100Y-14020250D02*
X49947100Y-14020250D01*
X49947100Y-13766250D01*
X50328100Y-13766250D01*
X50328100Y-14020250D01*
G36*
X50328100Y-14020250D02*
G01*
X49947100Y-14020250D01*
X49947100Y-13766250D01*
X50328100Y-13766250D01*
X50328100Y-14020250D01*
G37*
X58329100Y-14020250D02*
X57948100Y-14020250D01*
X57948100Y-13766250D01*
X58329100Y-13766250D01*
X58329100Y-14020250D01*
G36*
X58329100Y-14020250D02*
G01*
X57948100Y-14020250D01*
X57948100Y-13766250D01*
X58329100Y-13766250D01*
X58329100Y-14020250D01*
G37*
X66330100Y-14020250D02*
X65949100Y-14020250D01*
X65949100Y-13766250D01*
X66330100Y-13766250D01*
X66330100Y-14020250D01*
G36*
X66330100Y-14020250D02*
G01*
X65949100Y-14020250D01*
X65949100Y-13766250D01*
X66330100Y-13766250D01*
X66330100Y-14020250D01*
G37*
G04 #@! TO.C,C37*
X22562500Y-26200000D02*
X22992500Y-26200000D01*
X22562500Y-27120000D02*
X22562500Y-26205000D01*
X22567500Y-27120000D02*
X22997500Y-27120000D01*
X24707500Y-26200000D02*
X24277500Y-26200000D01*
X24712500Y-26200000D02*
X24712500Y-27115000D01*
X24712500Y-27120000D02*
X24282500Y-27120000D01*
G04 #@! TO.C,C8*
X34900000Y-15530000D02*
X34900000Y-15100000D01*
X35820000Y-15530000D02*
X34905000Y-15530000D01*
X35820000Y-15525000D02*
X35820000Y-15095000D01*
X34900000Y-13385000D02*
X34900000Y-13815000D01*
X34900000Y-13380000D02*
X35815000Y-13380000D01*
X35820000Y-13380000D02*
X35820000Y-13810000D01*
D12*
G04 #@! TO.C,C29*
X42155835Y-35030000D02*
X41924165Y-35030000D01*
X42155835Y-34310000D02*
X41924165Y-34310000D01*
G04 #@! TO.C,U5*
X66881001Y-28666100D02*
X48942996Y-28666100D01*
X48942999Y-40908900D02*
X66881004Y-40908900D01*
D13*
X68897500Y-36228000D02*
X68643500Y-36228000D01*
X68643500Y-35847000D01*
X68897500Y-35847000D01*
X68897500Y-36228000D01*
G36*
X68897500Y-36228000D02*
G01*
X68643500Y-36228000D01*
X68643500Y-35847000D01*
X68897500Y-35847000D01*
X68897500Y-36228000D01*
G37*
X68897500Y-31228000D02*
X68643500Y-31228000D01*
X68643500Y-30847000D01*
X68897500Y-30847000D01*
X68897500Y-31228000D01*
G36*
X68897500Y-31228000D02*
G01*
X68643500Y-31228000D01*
X68643500Y-30847000D01*
X68897500Y-30847000D01*
X68897500Y-31228000D01*
G37*
X47180500Y-36728002D02*
X46926500Y-36728002D01*
X46926500Y-36347002D01*
X47180500Y-36347002D01*
X47180500Y-36728002D01*
G36*
X47180500Y-36728002D02*
G01*
X46926500Y-36728002D01*
X46926500Y-36347002D01*
X47180500Y-36347002D01*
X47180500Y-36728002D01*
G37*
X47180500Y-31727999D02*
X46926500Y-31727999D01*
X46926500Y-31346999D01*
X47180500Y-31346999D01*
X47180500Y-31727999D01*
G36*
X47180500Y-31727999D02*
G01*
X46926500Y-31727999D01*
X46926500Y-31346999D01*
X47180500Y-31346999D01*
X47180500Y-31727999D01*
G37*
G04 #@! TO.C,C51*
X45162000Y-35490000D02*
X45162000Y-35920000D01*
X44242000Y-35490000D02*
X45157000Y-35490000D01*
X44242000Y-35495000D02*
X44242000Y-35925000D01*
X45162000Y-37635000D02*
X45162000Y-37205000D01*
X45162000Y-37640000D02*
X44247000Y-37640000D01*
X44242000Y-37640000D02*
X44242000Y-37210000D01*
G04 #@! TO.C,C42*
X22550000Y-33110000D02*
X22980000Y-33110000D01*
X22550000Y-34030000D02*
X22550000Y-33115000D01*
X22555000Y-34030000D02*
X22985000Y-34030000D01*
X24695000Y-33110000D02*
X24265000Y-33110000D01*
X24700000Y-33110000D02*
X24700000Y-34025000D01*
X24700000Y-34030000D02*
X24270000Y-34030000D01*
G04 #@! TO.C,C46*
X30130000Y-17820000D02*
X30130000Y-18250000D01*
X29210000Y-17820000D02*
X30125000Y-17820000D01*
X29210000Y-17825000D02*
X29210000Y-18255000D01*
X30130000Y-19965000D02*
X30130000Y-19535000D01*
X30130000Y-19970000D02*
X29215000Y-19970000D01*
X29210000Y-19970000D02*
X29210000Y-19540000D01*
D12*
G04 #@! TO.C,TXD*
X46130000Y-42310000D02*
G75*
G03*
X46130000Y-42310000I-700000J0D01*
G01*
G04 #@! TO.C,R15*
X55052500Y-9815276D02*
X55052500Y-10324724D01*
X54007500Y-9815276D02*
X54007500Y-10324724D01*
D13*
G04 #@! TO.C,C31*
X22550000Y-31710000D02*
X22980000Y-31710000D01*
X22550000Y-32630000D02*
X22550000Y-31715000D01*
X22555000Y-32630000D02*
X22985000Y-32630000D01*
X24695000Y-31710000D02*
X24265000Y-31710000D01*
X24700000Y-31710000D02*
X24700000Y-32625000D01*
X24700000Y-32630000D02*
X24270000Y-32630000D01*
G04 #@! TO.C,C19*
X27500000Y-17820000D02*
X27500000Y-18250000D01*
X26580000Y-17820000D02*
X27495000Y-17820000D01*
X26580000Y-17825000D02*
X26580000Y-18255000D01*
X27500000Y-19965000D02*
X27500000Y-19535000D01*
X27500000Y-19970000D02*
X26585000Y-19970000D01*
X26580000Y-19970000D02*
X26580000Y-19540000D01*
G04 #@! TO.C,C2*
X29110000Y-34990000D02*
X29110000Y-35420000D01*
X28190000Y-34990000D02*
X29105000Y-34990000D01*
X28190000Y-34995000D02*
X28190000Y-35425000D01*
X29110000Y-37135000D02*
X29110000Y-36705000D01*
X29110000Y-37140000D02*
X28195000Y-37140000D01*
X28190000Y-37140000D02*
X28190000Y-36710000D01*
G04 #@! TO.C,C13*
X46380000Y-33710000D02*
X46380000Y-34140000D01*
X45460000Y-33710000D02*
X46375000Y-33710000D01*
X45460000Y-33715000D02*
X45460000Y-34145000D01*
X46380000Y-35855000D02*
X46380000Y-35425000D01*
X46380000Y-35860000D02*
X45465000Y-35860000D01*
X45460000Y-35860000D02*
X45460000Y-35430000D01*
D12*
G04 #@! TO.C,R2*
X43898500Y-36897776D02*
X43898500Y-37407224D01*
X42853500Y-36897776D02*
X42853500Y-37407224D01*
D13*
G04 #@! TO.C,C7*
X69070000Y-15450000D02*
X69070000Y-15020000D01*
X69990000Y-15450000D02*
X69075000Y-15450000D01*
X69990000Y-15445000D02*
X69990000Y-15015000D01*
X69070000Y-13305000D02*
X69070000Y-13735000D01*
X69070000Y-13300000D02*
X69985000Y-13300000D01*
X69990000Y-13300000D02*
X69990000Y-13730000D01*
G04 #@! TO.C,C33*
X22580000Y-22130000D02*
X23010000Y-22130000D01*
X22580000Y-23050000D02*
X22580000Y-22135000D01*
X22585000Y-23050000D02*
X23015000Y-23050000D01*
X24725000Y-22130000D02*
X24295000Y-22130000D01*
X24730000Y-22130000D02*
X24730000Y-23045000D01*
X24730000Y-23050000D02*
X24300000Y-23050000D01*
D12*
G04 #@! TO.C,D1*
X68455000Y-44475000D02*
X68455000Y-43005000D01*
X68455000Y-43005000D02*
X65995000Y-43005000D01*
X65995000Y-44475000D02*
X68455000Y-44475000D01*
G04 #@! TO.C,R10*
X27792621Y-17290000D02*
X27457379Y-17290000D01*
X27792621Y-16530000D02*
X27457379Y-16530000D01*
D13*
G04 #@! TO.C,C47*
X28840000Y-17810000D02*
X28840000Y-18240000D01*
X27920000Y-17810000D02*
X28835000Y-17810000D01*
X27920000Y-17815000D02*
X27920000Y-18245000D01*
X28840000Y-19955000D02*
X28840000Y-19525000D01*
X28840000Y-19960000D02*
X27925000Y-19960000D01*
X27920000Y-19960000D02*
X27920000Y-19530000D01*
G04 #@! TO.C,C23*
X34000000Y-17810000D02*
X34000000Y-18240000D01*
X33080000Y-17810000D02*
X33995000Y-17810000D01*
X33080000Y-17815000D02*
X33080000Y-18245000D01*
X34000000Y-19955000D02*
X34000000Y-19525000D01*
X34000000Y-19960000D02*
X33085000Y-19960000D01*
X33080000Y-19960000D02*
X33080000Y-19530000D01*
G04 #@! TO.C,C1*
X30460000Y-34990000D02*
X30460000Y-35420000D01*
X29540000Y-34990000D02*
X30455000Y-34990000D01*
X29540000Y-34995000D02*
X29540000Y-35425000D01*
X30460000Y-37135000D02*
X30460000Y-36705000D01*
X30460000Y-37140000D02*
X29545000Y-37140000D01*
X29540000Y-37140000D02*
X29540000Y-36710000D01*
D12*
G04 #@! TO.C,Y1*
X33500000Y-35090000D02*
X33500000Y-38690000D01*
X33500000Y-38690000D02*
X39250000Y-38690000D01*
X39250000Y-35090000D02*
X33500000Y-35090000D01*
D13*
G04 #@! TO.C,C27*
X66580000Y-27490000D02*
X67010000Y-27490000D01*
X66580000Y-28410000D02*
X66580000Y-27495000D01*
X66585000Y-28410000D02*
X67015000Y-28410000D01*
X68725000Y-27490000D02*
X68295000Y-27490000D01*
X68730000Y-27490000D02*
X68730000Y-28405000D01*
X68730000Y-28410000D02*
X68300000Y-28410000D01*
D12*
G04 #@! TO.C,R1*
X41329500Y-37407224D02*
X41329500Y-36897776D01*
X42374500Y-37407224D02*
X42374500Y-36897776D01*
D13*
G04 #@! TO.C,C5*
X42881056Y-31438406D02*
X43185111Y-31134350D01*
X43531594Y-32088944D02*
X42884591Y-31441942D01*
X43535129Y-32085409D02*
X43839185Y-31781353D01*
X44397800Y-29921662D02*
X44093744Y-30225718D01*
X44401335Y-29918127D02*
X45048338Y-30565129D01*
X45051873Y-30568665D02*
X44747817Y-30872721D01*
G04 #@! TO.C,C49*
X47220000Y-41320000D02*
X47650000Y-41320000D01*
X47220000Y-42240000D02*
X47220000Y-41325000D01*
X47225000Y-42240000D02*
X47655000Y-42240000D01*
X49365000Y-41320000D02*
X48935000Y-41320000D01*
X49370000Y-41320000D02*
X49370000Y-42235000D01*
X49370000Y-42240000D02*
X48940000Y-42240000D01*
G04 #@! TO.C,C6*
X32240000Y-37160000D02*
X32240000Y-36730000D01*
X33160000Y-37160000D02*
X32245000Y-37160000D01*
X33160000Y-37155000D02*
X33160000Y-36725000D01*
X32240000Y-35015000D02*
X32240000Y-35445000D01*
X32240000Y-35010000D02*
X33155000Y-35010000D01*
X33160000Y-35010000D02*
X33160000Y-35440000D01*
D12*
G04 #@! TO.C,U7*
X61140000Y-45930000D02*
X60000000Y-45930000D01*
X60000000Y-46160000D02*
X60000000Y-45930000D01*
X60000000Y-46160000D02*
X57280000Y-46160000D01*
X60000000Y-41440000D02*
X60000000Y-41670000D01*
X57280000Y-46160000D02*
X57280000Y-44850000D01*
X57280000Y-42750000D02*
X57280000Y-41440000D01*
X57280000Y-41440000D02*
X60000000Y-41440000D01*
G04 #@! TO.C,J4*
X24510000Y-42374250D02*
X24510000Y-44374250D01*
X24510000Y-46274250D02*
X24510000Y-48174250D01*
X24510000Y-48174250D02*
X33910000Y-48174250D01*
X33910000Y-42374250D02*
X33910000Y-44374250D01*
X33910000Y-46274250D02*
X33910000Y-48174250D01*
G04 #@! TO.C,R5*
X63065276Y-41489500D02*
X63574724Y-41489500D01*
X63065276Y-42534500D02*
X63574724Y-42534500D01*
D13*
G04 #@! TO.C,C16*
X35030000Y-43580000D02*
X35030000Y-43150000D01*
X35950000Y-43580000D02*
X35035000Y-43580000D01*
X35950000Y-43575000D02*
X35950000Y-43145000D01*
X35030000Y-41435000D02*
X35030000Y-41865000D01*
X35030000Y-41430000D02*
X35945000Y-41430000D01*
X35950000Y-41430000D02*
X35950000Y-41860000D01*
G04 #@! TO.C,C34*
X37950000Y-17800000D02*
X37950000Y-18230000D01*
X37030000Y-17800000D02*
X37945000Y-17800000D01*
X37030000Y-17805000D02*
X37030000Y-18235000D01*
X37950000Y-19945000D02*
X37950000Y-19515000D01*
X37950000Y-19950000D02*
X37035000Y-19950000D01*
X37030000Y-19950000D02*
X37030000Y-19520000D01*
D12*
G04 #@! TO.C,R17*
X50422500Y-9795276D02*
X50422500Y-10304724D01*
X49377500Y-9795276D02*
X49377500Y-10304724D01*
G04 #@! TO.C,R6*
X63065276Y-44989500D02*
X63574724Y-44989500D01*
X63065276Y-46034500D02*
X63574724Y-46034500D01*
D13*
G04 #@! TO.C,C20*
X22522500Y-28980000D02*
X22952500Y-28980000D01*
X22522500Y-29900000D02*
X22522500Y-28985000D01*
X22527500Y-29900000D02*
X22957500Y-29900000D01*
X24667500Y-28980000D02*
X24237500Y-28980000D01*
X24672500Y-28980000D02*
X24672500Y-29895000D01*
X24672500Y-29900000D02*
X24242500Y-29900000D01*
G04 #@! TO.C,C36*
X22580000Y-34550000D02*
X23010000Y-34550000D01*
X22580000Y-35470000D02*
X22580000Y-34555000D01*
X22585000Y-35470000D02*
X23015000Y-35470000D01*
X24725000Y-34550000D02*
X24295000Y-34550000D01*
X24730000Y-34550000D02*
X24730000Y-35465000D01*
X24730000Y-35470000D02*
X24300000Y-35470000D01*
G04 #@! TO.C,C4*
X22552500Y-27620000D02*
X22982500Y-27620000D01*
X22552500Y-28540000D02*
X22552500Y-27625000D01*
X22557500Y-28540000D02*
X22987500Y-28540000D01*
X24697500Y-27620000D02*
X24267500Y-27620000D01*
X24702500Y-27620000D02*
X24702500Y-28535000D01*
X24702500Y-28540000D02*
X24272500Y-28540000D01*
G04 #@! TO.C,C44*
X22550000Y-23530000D02*
X22980000Y-23530000D01*
X22550000Y-24450000D02*
X22550000Y-23535000D01*
X22555000Y-24450000D02*
X22985000Y-24450000D01*
X24695000Y-23530000D02*
X24265000Y-23530000D01*
X24700000Y-23530000D02*
X24700000Y-24445000D01*
X24700000Y-24450000D02*
X24270000Y-24450000D01*
D12*
G04 #@! TO.C,R4*
X63072276Y-43217500D02*
X63581724Y-43217500D01*
X63072276Y-44262500D02*
X63581724Y-44262500D01*
G04 #@! TO.C,R16*
X51992500Y-9795276D02*
X51992500Y-10304724D01*
X50947500Y-9795276D02*
X50947500Y-10304724D01*
G04 #@! TO.C,R12*
X22497500Y-44114724D02*
X22497500Y-43605276D01*
X23542500Y-44114724D02*
X23542500Y-43605276D01*
G04 #@! TD*
%LPC*%
D15*
G04 #@! TO.C,U1*
X36875000Y-45115000D03*
X38145000Y-45115000D03*
X39415000Y-45115000D03*
X40685000Y-45115000D03*
X41955000Y-45115000D03*
X43225000Y-45115000D03*
X44495000Y-45115000D03*
X45765000Y-45115000D03*
X45765000Y-40165000D03*
X44495000Y-40165000D03*
X43225000Y-40165000D03*
X41955000Y-40165000D03*
X40685000Y-40165000D03*
X39415000Y-40165000D03*
X38145000Y-40165000D03*
X36875000Y-40165000D03*
G04 #@! TD*
D16*
G04 #@! TO.C,C48*
X47722500Y-44460000D03*
X48857500Y-44460000D03*
G04 #@! TD*
D17*
G04 #@! TO.C,R7*
X23020000Y-39227500D03*
X23020000Y-41052500D03*
G04 #@! TD*
D18*
G04 #@! TO.C,C21*
X25710000Y-18342500D03*
X25710000Y-19477500D03*
G04 #@! TD*
G04 #@! TO.C,C40*
X30950000Y-18322500D03*
X30950000Y-19457500D03*
G04 #@! TD*
D16*
G04 #@! TO.C,C14*
X23072500Y-19720000D03*
X24207500Y-19720000D03*
G04 #@! TD*
D18*
G04 #@! TO.C,C35*
X31310000Y-35500000D03*
X31310000Y-36635000D03*
G04 #@! TD*
D16*
G04 #@! TO.C,C43*
X23085000Y-25340000D03*
X24220000Y-25340000D03*
G04 #@! TD*
D19*
G04 #@! TO.C,IC1*
X38650000Y-21100000D03*
X38650000Y-21900000D03*
X38650000Y-22700000D03*
X38650000Y-23500000D03*
X38650000Y-24300000D03*
X38650000Y-25100000D03*
X38650000Y-25900000D03*
X38650000Y-26700000D03*
X38650000Y-27500000D03*
X38650000Y-28300000D03*
X38650000Y-29100000D03*
X38650000Y-29900000D03*
X38650000Y-30700000D03*
X38650000Y-31500000D03*
X38650000Y-32300000D03*
X38650000Y-33100000D03*
X38650000Y-33900000D03*
X37850000Y-21100000D03*
X37850000Y-21900000D03*
X37850000Y-22700000D03*
X37850000Y-23500000D03*
X37850000Y-24300000D03*
X37850000Y-25100000D03*
X37850000Y-25900000D03*
X37850000Y-26700000D03*
X37850000Y-27500000D03*
X37850000Y-28300000D03*
X37850000Y-29100000D03*
X37850000Y-29900000D03*
X37850000Y-30700000D03*
X37850000Y-31500000D03*
X37850000Y-32300000D03*
X37850000Y-33100000D03*
X37850000Y-33900000D03*
X37050000Y-21100000D03*
X37050000Y-21900000D03*
X37050000Y-22700000D03*
X37050000Y-23500000D03*
X37050000Y-24300000D03*
X37050000Y-25100000D03*
X37050000Y-25900000D03*
X37050000Y-26700000D03*
X37050000Y-27500000D03*
X37050000Y-28300000D03*
X37050000Y-29100000D03*
X37050000Y-29900000D03*
X37050000Y-30700000D03*
X37050000Y-31500000D03*
X37050000Y-32300000D03*
X37050000Y-33100000D03*
X37050000Y-33900000D03*
X36250000Y-21100000D03*
X36250000Y-21900000D03*
X36250000Y-22700000D03*
X36250000Y-23500000D03*
X36250000Y-24300000D03*
X36250000Y-25100000D03*
X36250000Y-25900000D03*
X36250000Y-26700000D03*
X36250000Y-27500000D03*
X36250000Y-28300000D03*
X36250000Y-29100000D03*
X36250000Y-29900000D03*
X36250000Y-30700000D03*
X36250000Y-31500000D03*
X36250000Y-32300000D03*
X36250000Y-33100000D03*
X36250000Y-33900000D03*
X35450000Y-21100000D03*
X35450000Y-21900000D03*
X35450000Y-22700000D03*
X35450000Y-23500000D03*
X35450000Y-24300000D03*
X35450000Y-25100000D03*
X35450000Y-25900000D03*
X35450000Y-26700000D03*
X35450000Y-27500000D03*
X35450000Y-28300000D03*
X35450000Y-29100000D03*
X35450000Y-29900000D03*
X35450000Y-30700000D03*
X35450000Y-31500000D03*
X35450000Y-32300000D03*
X35450000Y-33100000D03*
X35450000Y-33900000D03*
X34650000Y-21100000D03*
X34650000Y-21900000D03*
X34650000Y-22700000D03*
X34650000Y-23500000D03*
X34650000Y-24300000D03*
X34650000Y-25100000D03*
X34650000Y-25900000D03*
X34650000Y-26700000D03*
X34650000Y-27500000D03*
X34650000Y-28300000D03*
X34650000Y-29100000D03*
X34650000Y-29900000D03*
X34650000Y-30700000D03*
X34650000Y-31500000D03*
X34650000Y-32300000D03*
X34650000Y-33100000D03*
X34650000Y-33900000D03*
X33850000Y-21100000D03*
X33850000Y-21900000D03*
X33850000Y-22700000D03*
X33850000Y-23500000D03*
X33850000Y-24300000D03*
X33850000Y-25100000D03*
X33850000Y-25900000D03*
X33850000Y-27500000D03*
X33850000Y-29100000D03*
X33850000Y-29900000D03*
X33850000Y-30700000D03*
X33850000Y-31500000D03*
X33850000Y-32300000D03*
X33850000Y-33100000D03*
X33850000Y-33900000D03*
X33050000Y-21100000D03*
X33050000Y-21900000D03*
X33050000Y-22700000D03*
X33050000Y-23500000D03*
X33050000Y-24300000D03*
X33050000Y-25100000D03*
X33050000Y-29900000D03*
X33050000Y-30700000D03*
X33050000Y-31500000D03*
X33050000Y-32300000D03*
X33050000Y-33100000D03*
X33050000Y-33900000D03*
X32250000Y-21100000D03*
X32250000Y-21900000D03*
X32250000Y-22700000D03*
X32250000Y-23500000D03*
X32250000Y-24300000D03*
X32250000Y-25100000D03*
X32250000Y-25900000D03*
X32250000Y-29100000D03*
X32250000Y-29900000D03*
X32250000Y-30700000D03*
X32250000Y-31500000D03*
X32250000Y-32300000D03*
X32250000Y-33100000D03*
X32250000Y-33900000D03*
X31450000Y-21100000D03*
X31450000Y-21900000D03*
X31450000Y-22700000D03*
X31450000Y-23500000D03*
X31450000Y-24300000D03*
X31450000Y-25100000D03*
X31450000Y-29900000D03*
X31450000Y-30700000D03*
X31450000Y-31500000D03*
X31450000Y-32300000D03*
X31450000Y-33100000D03*
X31450000Y-33900000D03*
X30650000Y-21100000D03*
X30650000Y-21900000D03*
X30650000Y-22700000D03*
X30650000Y-23500000D03*
X30650000Y-24300000D03*
X30650000Y-25100000D03*
X30650000Y-25900000D03*
X30650000Y-27500000D03*
X30650000Y-29100000D03*
X30650000Y-29900000D03*
X30650000Y-30700000D03*
X30650000Y-31500000D03*
X30650000Y-32300000D03*
X30650000Y-33100000D03*
X30650000Y-33900000D03*
X29850000Y-21100000D03*
X29850000Y-21900000D03*
X29850000Y-22700000D03*
X29850000Y-23500000D03*
X29850000Y-24300000D03*
X29850000Y-25100000D03*
X29850000Y-25900000D03*
X29850000Y-26700000D03*
X29850000Y-27500000D03*
X29850000Y-28300000D03*
X29850000Y-29100000D03*
X29850000Y-29900000D03*
X29850000Y-30700000D03*
X29850000Y-31500000D03*
X29850000Y-32300000D03*
X29850000Y-33100000D03*
X29850000Y-33900000D03*
X29050000Y-21100000D03*
X29050000Y-21900000D03*
X29050000Y-22700000D03*
X29050000Y-23500000D03*
X29050000Y-24300000D03*
X29050000Y-25100000D03*
X29050000Y-25900000D03*
X29050000Y-26700000D03*
X29050000Y-27500000D03*
X29050000Y-28300000D03*
X29050000Y-29100000D03*
X29050000Y-29900000D03*
X29050000Y-30700000D03*
X29050000Y-31500000D03*
X29050000Y-32300000D03*
X29050000Y-33100000D03*
X29050000Y-33900000D03*
X28250000Y-21100000D03*
X28250000Y-21900000D03*
X28250000Y-22700000D03*
X28250000Y-23500000D03*
X28250000Y-24300000D03*
X28250000Y-25100000D03*
X28250000Y-25900000D03*
X28250000Y-26700000D03*
X28250000Y-27500000D03*
X28250000Y-28300000D03*
X28250000Y-29100000D03*
X28250000Y-29900000D03*
X28250000Y-30700000D03*
X28250000Y-31500000D03*
X28250000Y-32300000D03*
X28250000Y-33100000D03*
X28250000Y-33900000D03*
X27450000Y-21100000D03*
X27450000Y-21900000D03*
X27450000Y-22700000D03*
X27450000Y-23500000D03*
X27450000Y-24300000D03*
X27450000Y-25100000D03*
X27450000Y-25900000D03*
X27450000Y-26700000D03*
X27450000Y-27500000D03*
X27450000Y-28300000D03*
X27450000Y-29100000D03*
X27450000Y-29900000D03*
X27450000Y-30700000D03*
X27450000Y-31500000D03*
X27450000Y-32300000D03*
X27450000Y-33100000D03*
X27450000Y-33900000D03*
X26650000Y-21100000D03*
X26650000Y-21900000D03*
X26650000Y-22700000D03*
X26650000Y-23500000D03*
X26650000Y-24300000D03*
X26650000Y-25100000D03*
X26650000Y-25900000D03*
X26650000Y-26700000D03*
X26650000Y-27500000D03*
X26650000Y-28300000D03*
X26650000Y-29100000D03*
X26650000Y-29900000D03*
X26650000Y-30700000D03*
X26650000Y-31500000D03*
X26650000Y-32300000D03*
X26650000Y-33100000D03*
X26650000Y-33900000D03*
X25850000Y-21100000D03*
X25850000Y-21900000D03*
X25850000Y-22700000D03*
X25850000Y-23500000D03*
X25850000Y-24300000D03*
X25850000Y-25100000D03*
X25850000Y-25900000D03*
X25850000Y-26700000D03*
X25850000Y-27500000D03*
X25850000Y-28300000D03*
X25850000Y-29100000D03*
X25850000Y-29900000D03*
X25850000Y-30700000D03*
X25850000Y-31500000D03*
X25850000Y-32300000D03*
X25850000Y-33100000D03*
X25850000Y-33900000D03*
G04 #@! TD*
D20*
G04 #@! TO.C,RXD*
X42660000Y-42150000D03*
G04 #@! TD*
D21*
G04 #@! TO.C,J1*
X32100000Y-13163500D03*
X26320000Y-13163500D03*
D22*
X32460000Y-14963500D03*
X31660000Y-14963500D03*
D23*
X30460000Y-14963500D03*
X29460000Y-14963500D03*
X28960000Y-14963500D03*
X27960000Y-14963500D03*
D22*
X26760000Y-14963500D03*
X25960000Y-14963500D03*
X25960000Y-14963500D03*
D24*
X26760000Y-14963500D03*
D23*
X27460000Y-14963500D03*
X28460000Y-14963500D03*
X29960000Y-14963500D03*
X30960000Y-14963500D03*
D24*
X31660000Y-14963500D03*
X32460000Y-15063500D03*
D25*
X33530000Y-13693500D03*
D26*
X33530000Y-9513500D03*
D25*
X24890000Y-13693500D03*
D26*
X24890000Y-9513500D03*
G04 #@! TD*
D27*
G04 #@! TO.C,D2*
X67645000Y-41962000D03*
X65895000Y-41962000D03*
G04 #@! TD*
D18*
G04 #@! TO.C,C18*
X38720000Y-18322500D03*
X38720000Y-19457500D03*
G04 #@! TD*
D28*
G04 #@! TO.C,C28*
X25880000Y-36647500D03*
X25880000Y-35512500D03*
G04 #@! TD*
D29*
G04 #@! TO.C,C26*
X57917500Y-27900000D03*
X56782500Y-27900000D03*
G04 #@! TD*
D30*
G04 #@! TO.C,J2*
X58685200Y-12733000D03*
X59935200Y-12733000D03*
X61185200Y-12733000D03*
X62435200Y-12733000D03*
X63685200Y-12733000D03*
X64935200Y-12733000D03*
X66185200Y-12733000D03*
D31*
X68432300Y-9659000D03*
D32*
X56438100Y-9659000D03*
G04 #@! TD*
D28*
G04 #@! TO.C,C30*
X27250000Y-36647500D03*
X27250000Y-35512500D03*
G04 #@! TD*
D18*
G04 #@! TO.C,C11*
X69480000Y-29632500D03*
X69480000Y-30767500D03*
G04 #@! TD*
G04 #@! TO.C,C25*
X69470000Y-34182500D03*
X69470000Y-35317500D03*
G04 #@! TD*
D33*
G04 #@! TO.C,U6*
X54030000Y-45290000D03*
D34*
X53942500Y-43790000D03*
D33*
X54030000Y-42290000D03*
G04 #@! TD*
D16*
G04 #@! TO.C,C15*
X54572500Y-13050000D03*
X55707500Y-13050000D03*
G04 #@! TD*
D18*
G04 #@! TO.C,C41*
X36170000Y-18332500D03*
X36170000Y-19467500D03*
G04 #@! TD*
D29*
G04 #@! TO.C,C24*
X53857500Y-27980000D03*
X52722500Y-27980000D03*
G04 #@! TD*
D16*
G04 #@! TO.C,C45*
X23092500Y-21200000D03*
X24227500Y-21200000D03*
G04 #@! TD*
D17*
G04 #@! TO.C,R14*
X53000000Y-9150000D03*
X53000000Y-10975000D03*
G04 #@! TD*
D28*
G04 #@! TO.C,C12*
X40220000Y-36657500D03*
X40220000Y-35522500D03*
G04 #@! TD*
D35*
G04 #@! TO.C,R9*
X23050000Y-15602500D03*
X23050000Y-13777500D03*
G04 #@! TD*
D16*
G04 #@! TO.C,C38*
X23055000Y-30794000D03*
X24190000Y-30794000D03*
G04 #@! TD*
D27*
G04 #@! TO.C,D3*
X67670000Y-45518000D03*
X65920000Y-45518000D03*
G04 #@! TD*
D18*
G04 #@! TO.C,C22*
X34870000Y-18322500D03*
X34870000Y-19457500D03*
G04 #@! TD*
D30*
G04 #@! TO.C,J3*
X37922200Y-12733000D03*
X39172200Y-12733000D03*
X40422200Y-12733000D03*
X41672200Y-12733000D03*
X42922200Y-12733000D03*
X44172200Y-12733000D03*
X45422200Y-12733000D03*
D32*
X47669300Y-9659000D03*
X35675100Y-9659000D03*
G04 #@! TD*
D18*
G04 #@! TO.C,C39*
X32230000Y-18322500D03*
X32230000Y-19457500D03*
G04 #@! TD*
D16*
G04 #@! TO.C,C50*
X47712500Y-43040000D03*
X48847500Y-43040000D03*
G04 #@! TD*
G04 #@! TO.C,C17*
X47732500Y-45800000D03*
X48867500Y-45800000D03*
G04 #@! TD*
D17*
G04 #@! TO.C,R8*
X23050000Y-10237500D03*
X23050000Y-12062500D03*
G04 #@! TD*
G04 #@! TO.C,R13*
X69332500Y-41945500D03*
X69332500Y-43770500D03*
G04 #@! TD*
D36*
G04 #@! TO.C,C3*
X42688717Y-30561283D03*
X43491283Y-29758717D03*
G04 #@! TD*
D37*
G04 #@! TO.C,R11*
X29232500Y-16920000D03*
X30427500Y-16920000D03*
G04 #@! TD*
D29*
G04 #@! TO.C,C32*
X52197500Y-12960000D03*
X51062500Y-12960000D03*
G04 #@! TD*
D38*
G04 #@! TO.C,U4*
X46937200Y-26351950D03*
X47737300Y-26351950D03*
X48537400Y-26351950D03*
X49337500Y-26351950D03*
X50137600Y-26351950D03*
X50937700Y-26351950D03*
X51737800Y-26351950D03*
X52537900Y-26351950D03*
X53338000Y-26351950D03*
X54138100Y-26351950D03*
X54938200Y-26351950D03*
X55738300Y-26351950D03*
X56538400Y-26351950D03*
X57338500Y-26351950D03*
X58138600Y-26351950D03*
X58938700Y-26351950D03*
X59738800Y-26351950D03*
X60538900Y-26351950D03*
X61339000Y-26351950D03*
X62139100Y-26351950D03*
X62939200Y-26351950D03*
X63739300Y-26351950D03*
X64539400Y-26351950D03*
X65339500Y-26351950D03*
X66139600Y-26351950D03*
X66939700Y-26351950D03*
X67739800Y-26351950D03*
X67739800Y-14871150D03*
X66939700Y-14871150D03*
X66139600Y-14871150D03*
X65339500Y-14871150D03*
X64539400Y-14871150D03*
X63739300Y-14871150D03*
X62939200Y-14871150D03*
X62139100Y-14871150D03*
X61339000Y-14871150D03*
X60538900Y-14871150D03*
X59738800Y-14871150D03*
X58938700Y-14871150D03*
X58138600Y-14871150D03*
X57338500Y-14871150D03*
X56538400Y-14871150D03*
X55738300Y-14871150D03*
X54938200Y-14871150D03*
X54138100Y-14871150D03*
X53338000Y-14871150D03*
X52537900Y-14871150D03*
X51737800Y-14871150D03*
X50937700Y-14871150D03*
X50137600Y-14871150D03*
X49337500Y-14871150D03*
X48537400Y-14871150D03*
X47737300Y-14871150D03*
X46937200Y-14871150D03*
G04 #@! TD*
D16*
G04 #@! TO.C,C37*
X23075000Y-26660000D03*
X24210000Y-26660000D03*
G04 #@! TD*
D28*
G04 #@! TO.C,C8*
X35360000Y-15017500D03*
X35360000Y-13882500D03*
G04 #@! TD*
D29*
G04 #@! TO.C,C29*
X42607500Y-34670000D03*
X41472500Y-34670000D03*
G04 #@! TD*
D39*
G04 #@! TO.C,U5*
X67748150Y-40537499D03*
X67748150Y-40037500D03*
X67748150Y-39537501D03*
X67748150Y-39037499D03*
X67748150Y-38537500D03*
X67748150Y-38037501D03*
X67748150Y-37537500D03*
X67748150Y-37037501D03*
X67748150Y-36537499D03*
X67748150Y-36037500D03*
X67748150Y-35537501D03*
X67748150Y-35037500D03*
X67748150Y-34537500D03*
X67748150Y-34037499D03*
X67748150Y-33537500D03*
X67748150Y-33037501D03*
X67748150Y-32537499D03*
X67748150Y-32037500D03*
X67748150Y-31537499D03*
X67748150Y-31037500D03*
X67748150Y-30537501D03*
X67748150Y-30037499D03*
X67748150Y-29537500D03*
X67748150Y-29037499D03*
X48075850Y-29037501D03*
X48075850Y-29537500D03*
X48075850Y-30037499D03*
X48075850Y-30537501D03*
X48075850Y-31037500D03*
X48075850Y-31537501D03*
X48075850Y-32037500D03*
X48075850Y-32537499D03*
X48075850Y-33037501D03*
X48075850Y-33537500D03*
X48075850Y-34037502D03*
X48075850Y-34537500D03*
X48075850Y-35037500D03*
X48075850Y-35537501D03*
X48075850Y-36037500D03*
X48075850Y-36537499D03*
X48075850Y-37037501D03*
X48075850Y-37537500D03*
X48075850Y-38037501D03*
X48075850Y-38537500D03*
X48075850Y-39037499D03*
X48075850Y-39537501D03*
X48075850Y-40037500D03*
X48075850Y-40537501D03*
G04 #@! TD*
D18*
G04 #@! TO.C,C51*
X44702000Y-36002500D03*
X44702000Y-37137500D03*
G04 #@! TD*
D16*
G04 #@! TO.C,C42*
X23062500Y-33570000D03*
X24197500Y-33570000D03*
G04 #@! TD*
D18*
G04 #@! TO.C,C46*
X29670000Y-18332500D03*
X29670000Y-19467500D03*
G04 #@! TD*
D20*
G04 #@! TO.C,TXD*
X45430000Y-42310000D03*
G04 #@! TD*
D17*
G04 #@! TO.C,R15*
X54530000Y-9157500D03*
X54530000Y-10982500D03*
G04 #@! TD*
D16*
G04 #@! TO.C,C31*
X23062500Y-32170000D03*
X24197500Y-32170000D03*
G04 #@! TD*
D18*
G04 #@! TO.C,C19*
X27040000Y-18332500D03*
X27040000Y-19467500D03*
G04 #@! TD*
G04 #@! TO.C,C2*
X28650000Y-35502500D03*
X28650000Y-36637500D03*
G04 #@! TD*
G04 #@! TO.C,C13*
X45920000Y-34222500D03*
X45920000Y-35357500D03*
G04 #@! TD*
D17*
G04 #@! TO.C,R2*
X43376000Y-36240000D03*
X43376000Y-38065000D03*
G04 #@! TD*
D28*
G04 #@! TO.C,C7*
X69530000Y-14937500D03*
X69530000Y-13802500D03*
G04 #@! TD*
D16*
G04 #@! TO.C,C33*
X23092500Y-22590000D03*
X24227500Y-22590000D03*
G04 #@! TD*
D27*
G04 #@! TO.C,D1*
X67670000Y-43740000D03*
X65920000Y-43740000D03*
G04 #@! TD*
D40*
G04 #@! TO.C,R10*
X28222500Y-16910000D03*
X27027500Y-16910000D03*
G04 #@! TD*
D18*
G04 #@! TO.C,C47*
X28380000Y-18322500D03*
X28380000Y-19457500D03*
G04 #@! TD*
G04 #@! TO.C,C23*
X33540000Y-18322500D03*
X33540000Y-19457500D03*
G04 #@! TD*
G04 #@! TO.C,C1*
X30000000Y-35502500D03*
X30000000Y-36637500D03*
G04 #@! TD*
D41*
G04 #@! TO.C,Y1*
X34700000Y-36890000D03*
X38400000Y-36890000D03*
G04 #@! TD*
D16*
G04 #@! TO.C,C27*
X67092500Y-27950000D03*
X68227500Y-27950000D03*
G04 #@! TD*
D35*
G04 #@! TO.C,R1*
X41852000Y-38065000D03*
X41852000Y-36240000D03*
G04 #@! TD*
D36*
G04 #@! TO.C,C5*
X43568717Y-31401283D03*
X44371283Y-30598717D03*
G04 #@! TD*
D16*
G04 #@! TO.C,C49*
X47732500Y-41780000D03*
X48867500Y-41780000D03*
G04 #@! TD*
D28*
G04 #@! TO.C,C6*
X32700000Y-36647500D03*
X32700000Y-35512500D03*
G04 #@! TD*
D33*
G04 #@! TO.C,U7*
X60590000Y-45300000D03*
D34*
X60502500Y-43800000D03*
D33*
X60590000Y-42300000D03*
G04 #@! TD*
D21*
G04 #@! TO.C,J4*
X26320000Y-41674250D03*
X32100000Y-41674250D03*
D24*
X25960000Y-40229250D03*
X26760000Y-40229250D03*
D23*
X27960000Y-39926750D03*
X28960000Y-39926750D03*
X29460000Y-39926750D03*
X30460000Y-39926750D03*
D24*
X31660000Y-40229250D03*
X32460000Y-40229250D03*
D22*
X32460000Y-39926750D03*
X31660000Y-39926750D03*
D23*
X30960000Y-39926750D03*
X29960000Y-39926750D03*
X28460000Y-39926750D03*
X27460000Y-39926750D03*
D22*
X26760000Y-39926750D03*
X25960000Y-39926750D03*
D25*
X24890000Y-41144250D03*
D26*
X24890000Y-45324250D03*
D25*
X33530000Y-41144250D03*
D26*
X33530000Y-45324250D03*
G04 #@! TD*
D42*
G04 #@! TO.C,R5*
X62407500Y-42012000D03*
X64232500Y-42012000D03*
G04 #@! TD*
D28*
G04 #@! TO.C,C16*
X35490000Y-43067500D03*
X35490000Y-41932500D03*
G04 #@! TD*
D18*
G04 #@! TO.C,C34*
X37490000Y-18312500D03*
X37490000Y-19447500D03*
G04 #@! TD*
D17*
G04 #@! TO.C,R17*
X49900000Y-9137500D03*
X49900000Y-10962500D03*
G04 #@! TD*
D42*
G04 #@! TO.C,R6*
X62407500Y-45512000D03*
X64232500Y-45512000D03*
G04 #@! TD*
D16*
G04 #@! TO.C,C20*
X23035000Y-29440000D03*
X24170000Y-29440000D03*
G04 #@! TD*
G04 #@! TO.C,C36*
X23092500Y-35010000D03*
X24227500Y-35010000D03*
G04 #@! TD*
G04 #@! TO.C,C4*
X23065000Y-28080000D03*
X24200000Y-28080000D03*
G04 #@! TD*
G04 #@! TO.C,C44*
X23062500Y-23990000D03*
X24197500Y-23990000D03*
G04 #@! TD*
D42*
G04 #@! TO.C,R4*
X62414500Y-43740000D03*
X64239500Y-43740000D03*
G04 #@! TD*
D17*
G04 #@! TO.C,R16*
X51470000Y-9137500D03*
X51470000Y-10962500D03*
G04 #@! TD*
D35*
G04 #@! TO.C,R12*
X23020000Y-44772500D03*
X23020000Y-42947500D03*
G04 #@! TD*
M02*
