M48
; DRILL file {KiCad 7.0.5-0} date 2023 June 19, Monday 10:32:11
; FORMAT={-:-/ absolute / inch / decimal}
; #@! TF.CreationDate,2023-06-19T10:32:11+08:00
; #@! TF.GenerationSoftware,Kicad,Pcbnew,7.0.5-0
; #@! TF.FileFunction,Plated,1,4,PTH
FMAT,2
INCH
; #@! TA.AperFunction,Plated,PTH,ViaDrill
T1C0.0120
; #@! TA.AperFunction,Plated,PTH,ViaDrill
T2C0.0150
; #@! TA.AperFunction,Plated,PTH,ComponentDrill
T3C0.0236
; #@! TA.AperFunction,Plated,PTH,ComponentDrill
T4C0.0394
%
G90
G05
T1
X0.6177Y-1.4445
X0.624Y-0.6382
X0.6315Y-0.5673
X0.7768Y-0.7795
X0.7854Y-1.1815
X0.8303Y-0.6799
X0.8335Y-0.5764
X0.8388Y-1.0053
X0.8776Y-0.6827
X0.9181Y-1.3772
X0.9272Y-0.7791
X0.9287Y-0.5744
X0.9539Y-1.5272
X0.9657Y-1.2177
X0.9768Y-0.7811
X0.9783Y-0.8209
X0.9846Y-1.2866
X0.9866Y-0.9169
X1.0094Y-1.285
X1.0118Y-1.2189
X1.0476Y-1.0091
X1.0752Y-1.1177
X1.1063Y-1.0748
X1.1228Y-1.5681
X1.1239Y-1.3561
X1.1324Y-1.3796
X1.1504Y-0.7327
X1.1504Y-1.1201
X1.1678Y-0.8044
X1.1728Y-1.1417
X1.1917Y-0.5331
X1.1961Y-1.1638
X1.2037Y-0.7684
X1.2038Y-0.8613
X1.2157Y-0.8917
X1.2161Y-1.1406
X1.2173Y-1.0972
X1.2176Y-1.0528
X1.2264Y-1.5024
X1.2394Y-0.9843
X1.2449Y-1.5732
X1.2496Y-1.2752
X1.2626Y-1.4626
X1.276Y-0.8075
X1.2831Y-1.2972
X1.2846Y-1.2538
X1.2963Y-0.7837
X1.2965Y-1.4248
X1.3067Y-1.2748
X1.3071Y-1.2291
X1.3193Y-1.0224
X1.324Y-0.7559
X1.3358Y-1.0606
X1.337Y-1.5705
X1.3421Y-1.1575
X1.3516Y-1.276
X1.3516Y-1.4075
X1.3524Y-0.9193
X1.3559Y-1.3799
X1.3591Y-1.0366
X1.3738Y-1.3404
X1.374Y-0.8079
X1.374Y-0.8524
X1.3783Y-1.2071
X1.3811Y-1.1583
X1.3823Y-1.1079
X1.3953Y-1.363
X1.3961Y-0.8744
X1.3965Y-1.3182
X1.4106Y-1.439
X1.4193Y-1.3858
X1.4406Y-1.052
X1.4628Y-1.0748
X1.463Y-1.2965
X1.4693Y-1.5697
X1.4831Y-0.9228
X1.4854Y-1.1606
X1.4866Y-1.2142
X1.4913Y-1.415
X1.5071Y-0.8035
X1.5346Y-0.7094
X1.5409Y-1.5661
X1.5516Y-0.939
X1.5571Y-1.3524
X1.574Y-0.9161
X1.5752Y-1.185
X1.5754Y-1.1421
X1.5777Y-1.0234
X1.5835Y-1.1201
X1.5875Y-0.6656
X1.5973Y-0.9846
X1.602Y-0.8268
X1.6031Y-0.5559
X1.6122Y-1.0512
X1.6178Y-0.9623
X1.6187Y-1.0866
X1.621Y-0.6991
X1.6283Y-0.7618
X1.6374Y-1.0734
X1.6402Y-1.0289
X1.657Y-0.7351
X1.6625Y-1.0969
X1.663Y-1.1419
X1.6643Y-1.0515
X1.6772Y-1.2831
X1.6835Y-0.8732
X1.6843Y-1.1193
X1.6863Y-0.985
X1.7087Y-1.0509
X1.7205Y-1.3004
X1.7272Y-0.5902
X1.7311Y-1.0303
X1.7547Y-0.9685
X1.7587Y-1.1449
X1.7724Y-1.3295
X1.7894Y-1.4488
X1.7917Y-0.9909
X1.8083Y-1.1705
X1.8169Y-0.8614
X1.865Y-0.5429
X1.8772Y-1.0185
X1.8933Y-1.0925
X1.9461Y-0.635
X1.9669Y-0.6484
X2.0547Y-0.5673
X2.1268Y-0.5492
X2.148Y-0.9071
X2.148Y-1.0386
X2.152Y-1.276
X2.1689Y-0.865
X2.1764Y-1.1929
X2.1787Y-1.0417
X2.1791Y-0.9402
X2.1795Y-0.9654
X2.2087Y-1.2466
X2.2256Y-1.3087
X2.2299Y-0.8189
X2.2299Y-1.0886
X2.2303Y-1.276
X2.2308Y-1.1208
X2.2314Y-0.993
X2.2325Y-1.243
X2.252Y-0.8283
X2.2618Y-1.1197
X2.2632Y-0.8671
X2.2638Y-1.2458
X2.2874Y-1.372
X2.2941Y-0.9008
X2.2969Y-1.1811
X2.2972Y-1.1189
X2.3146Y-0.9685
X2.3165Y-0.9382
X2.3295Y-0.6673
X2.3362Y-1.172
X2.3437Y-1.3154
X2.3878Y-1.0563
X2.3894Y-1.1819
X2.3898Y-0.5496
X2.3898Y-1.6142
X2.4008Y-1.3236
X2.4173Y-0.8362
X2.4189Y-0.8992
X2.419Y-1.2142
X2.419Y-1.3472
X2.4201Y-0.9297
X2.4205Y-1.0563
X2.4504Y-1.5094
X2.4516Y-1.0571
X2.452Y-1.2457
X2.452Y-0.932
X2.4524Y-0.8988
X2.4524Y-0.9614
X2.4583Y-1.2878
X2.4768Y-1.4606
X2.4819Y-1.3217
X2.4831Y-1.1209
X2.4839Y-1.0248
X2.4846Y-0.9945
X2.4866Y-0.867
X2.5075Y-0.715
X2.5077Y-1.5923
X2.5122Y-0.8012
X2.5197Y-1.0406
X2.5201Y-1.1854
X2.5217Y-0.9055
X2.522Y-1.0732
X2.5232Y-0.9319
X2.5303Y-1.3579
T2
X0.6189Y-1.5673
X0.6528Y-1.3264
X0.6531Y-1.3638
X0.6535Y-1.4
X0.663Y-1.5933
X0.7016Y-1.5937
X0.7421Y-1.5933
X0.8283Y-1.3579
X0.8315Y-1.3878
X0.8457Y-1.463
X0.8724Y-1.4272
X0.8909Y-1.5488
X0.8925Y-1.4669
X0.9622Y-1.5702
X0.9858Y-1.526
X1.0268Y-1.3803
X1.0469Y-1.3394
X1.0772Y-1.3398
X1.0925Y-1.5248
X1.1346Y-1.4685
X1.1358Y-1.4976
T4
X1.2756Y-0.5583
X1.3756Y-0.5583
X1.4756Y-0.5583
T3
G00X0.7079Y-0.9055
M15
G01X0.6843Y-0.9055
M16
G05
G00X0.7079Y-1.2457
M15
G01X0.6843Y-1.2457
M16
G05
G00X0.8823Y-0.9055
M15
G01X0.839Y-0.9055
M16
G05
G00X0.8823Y-1.2457
M15
G01X0.839Y-1.2457
M16
G05
T0
M30
