%TF.GenerationSoftware,KiCad,Pcbnew,7.0.5-0*%
%TF.CreationDate,2023-07-21T17:37:06+08:00*%
%TF.ProjectId,slimarm_carambola,736c696d-6172-46d5-9f63-6172616d626f,rev?*%
%TF.SameCoordinates,Original*%
%TF.FileFunction,Legend,Bot*%
%TF.FilePolarity,Positive*%
%FSLAX46Y46*%
G04 Gerber Fmt 4.6, Leading zero omitted, Abs format (unit mm)*
G04 Created by KiCad (PCBNEW 7.0.5-0) date 2023-07-21 17:37:06*
%MOMM*%
%LPD*%
G01*
G04 APERTURE LIST*
%ADD10C,0.150000*%
%ADD11C,0.300000*%
%ADD12C,0.220000*%
%ADD13C,0.120000*%
G04 APERTURE END LIST*
D10*
X38700476Y-35896200D02*
X38586190Y-35934295D01*
X38586190Y-35934295D02*
X38395714Y-35934295D01*
X38395714Y-35934295D02*
X38319523Y-35896200D01*
X38319523Y-35896200D02*
X38281428Y-35858104D01*
X38281428Y-35858104D02*
X38243333Y-35781914D01*
X38243333Y-35781914D02*
X38243333Y-35705723D01*
X38243333Y-35705723D02*
X38281428Y-35629533D01*
X38281428Y-35629533D02*
X38319523Y-35591438D01*
X38319523Y-35591438D02*
X38395714Y-35553342D01*
X38395714Y-35553342D02*
X38548095Y-35515247D01*
X38548095Y-35515247D02*
X38624285Y-35477152D01*
X38624285Y-35477152D02*
X38662380Y-35439057D01*
X38662380Y-35439057D02*
X38700476Y-35362866D01*
X38700476Y-35362866D02*
X38700476Y-35286676D01*
X38700476Y-35286676D02*
X38662380Y-35210485D01*
X38662380Y-35210485D02*
X38624285Y-35172390D01*
X38624285Y-35172390D02*
X38548095Y-35134295D01*
X38548095Y-35134295D02*
X38357618Y-35134295D01*
X38357618Y-35134295D02*
X38243333Y-35172390D01*
X37786190Y-35934295D02*
X37862380Y-35896200D01*
X37862380Y-35896200D02*
X37900475Y-35820009D01*
X37900475Y-35820009D02*
X37900475Y-35134295D01*
X37481427Y-35934295D02*
X37481427Y-35400961D01*
X37481427Y-35134295D02*
X37519523Y-35172390D01*
X37519523Y-35172390D02*
X37481427Y-35210485D01*
X37481427Y-35210485D02*
X37443332Y-35172390D01*
X37443332Y-35172390D02*
X37481427Y-35134295D01*
X37481427Y-35134295D02*
X37481427Y-35210485D01*
X37100475Y-35934295D02*
X37100475Y-35400961D01*
X37100475Y-35477152D02*
X37062380Y-35439057D01*
X37062380Y-35439057D02*
X36986190Y-35400961D01*
X36986190Y-35400961D02*
X36871904Y-35400961D01*
X36871904Y-35400961D02*
X36795713Y-35439057D01*
X36795713Y-35439057D02*
X36757618Y-35515247D01*
X36757618Y-35515247D02*
X36757618Y-35934295D01*
X36757618Y-35515247D02*
X36719523Y-35439057D01*
X36719523Y-35439057D02*
X36643332Y-35400961D01*
X36643332Y-35400961D02*
X36529047Y-35400961D01*
X36529047Y-35400961D02*
X36452856Y-35439057D01*
X36452856Y-35439057D02*
X36414761Y-35515247D01*
X36414761Y-35515247D02*
X36414761Y-35934295D01*
X36071904Y-35705723D02*
X35690951Y-35705723D01*
X36148094Y-35934295D02*
X35881427Y-35134295D01*
X35881427Y-35134295D02*
X35614761Y-35934295D01*
X34890951Y-35934295D02*
X35157618Y-35553342D01*
X35348094Y-35934295D02*
X35348094Y-35134295D01*
X35348094Y-35134295D02*
X35043332Y-35134295D01*
X35043332Y-35134295D02*
X34967142Y-35172390D01*
X34967142Y-35172390D02*
X34929047Y-35210485D01*
X34929047Y-35210485D02*
X34890951Y-35286676D01*
X34890951Y-35286676D02*
X34890951Y-35400961D01*
X34890951Y-35400961D02*
X34929047Y-35477152D01*
X34929047Y-35477152D02*
X34967142Y-35515247D01*
X34967142Y-35515247D02*
X35043332Y-35553342D01*
X35043332Y-35553342D02*
X35348094Y-35553342D01*
X34548094Y-35934295D02*
X34548094Y-35134295D01*
X34548094Y-35134295D02*
X34281428Y-35705723D01*
X34281428Y-35705723D02*
X34014761Y-35134295D01*
X34014761Y-35134295D02*
X34014761Y-35934295D01*
X33024284Y-35515247D02*
X32757618Y-35515247D01*
X32643332Y-35934295D02*
X33024284Y-35934295D01*
X33024284Y-35934295D02*
X33024284Y-35134295D01*
X33024284Y-35134295D02*
X32643332Y-35134295D01*
X32376665Y-35934295D02*
X31957617Y-35400961D01*
X32376665Y-35400961D02*
X31957617Y-35934295D01*
X31767141Y-35400961D02*
X31462379Y-35400961D01*
X31652855Y-35134295D02*
X31652855Y-35820009D01*
X31652855Y-35820009D02*
X31614760Y-35896200D01*
X31614760Y-35896200D02*
X31538570Y-35934295D01*
X31538570Y-35934295D02*
X31462379Y-35934295D01*
X31195712Y-35934295D02*
X31195712Y-35134295D01*
X30662379Y-35134295D02*
X30509998Y-35134295D01*
X30509998Y-35134295D02*
X30433808Y-35172390D01*
X30433808Y-35172390D02*
X30357617Y-35248580D01*
X30357617Y-35248580D02*
X30319522Y-35400961D01*
X30319522Y-35400961D02*
X30319522Y-35667628D01*
X30319522Y-35667628D02*
X30357617Y-35820009D01*
X30357617Y-35820009D02*
X30433808Y-35896200D01*
X30433808Y-35896200D02*
X30509998Y-35934295D01*
X30509998Y-35934295D02*
X30662379Y-35934295D01*
X30662379Y-35934295D02*
X30738570Y-35896200D01*
X30738570Y-35896200D02*
X30814760Y-35820009D01*
X30814760Y-35820009D02*
X30852856Y-35667628D01*
X30852856Y-35667628D02*
X30852856Y-35400961D01*
X30852856Y-35400961D02*
X30814760Y-35248580D01*
X30814760Y-35248580D02*
X30738570Y-35172390D01*
X30738570Y-35172390D02*
X30662379Y-35134295D01*
D11*
X63810000Y-19329000D02*
X63810000Y-26051000D01*
D10*
X38365714Y-15892390D02*
X38441904Y-15854295D01*
X38441904Y-15854295D02*
X38556190Y-15854295D01*
X38556190Y-15854295D02*
X38670476Y-15892390D01*
X38670476Y-15892390D02*
X38746666Y-15968580D01*
X38746666Y-15968580D02*
X38784761Y-16044771D01*
X38784761Y-16044771D02*
X38822857Y-16197152D01*
X38822857Y-16197152D02*
X38822857Y-16311438D01*
X38822857Y-16311438D02*
X38784761Y-16463819D01*
X38784761Y-16463819D02*
X38746666Y-16540009D01*
X38746666Y-16540009D02*
X38670476Y-16616200D01*
X38670476Y-16616200D02*
X38556190Y-16654295D01*
X38556190Y-16654295D02*
X38479999Y-16654295D01*
X38479999Y-16654295D02*
X38365714Y-16616200D01*
X38365714Y-16616200D02*
X38327618Y-16578104D01*
X38327618Y-16578104D02*
X38327618Y-16311438D01*
X38327618Y-16311438D02*
X38479999Y-16311438D01*
X37984761Y-16654295D02*
X37984761Y-15854295D01*
X37984761Y-15854295D02*
X37527618Y-16654295D01*
X37527618Y-16654295D02*
X37527618Y-15854295D01*
X37146666Y-16654295D02*
X37146666Y-15854295D01*
X37146666Y-15854295D02*
X36956190Y-15854295D01*
X36956190Y-15854295D02*
X36841904Y-15892390D01*
X36841904Y-15892390D02*
X36765714Y-15968580D01*
X36765714Y-15968580D02*
X36727619Y-16044771D01*
X36727619Y-16044771D02*
X36689523Y-16197152D01*
X36689523Y-16197152D02*
X36689523Y-16311438D01*
X36689523Y-16311438D02*
X36727619Y-16463819D01*
X36727619Y-16463819D02*
X36765714Y-16540009D01*
X36765714Y-16540009D02*
X36841904Y-16616200D01*
X36841904Y-16616200D02*
X36956190Y-16654295D01*
X36956190Y-16654295D02*
X37146666Y-16654295D01*
X35279999Y-16654295D02*
X35546666Y-16273342D01*
X35737142Y-16654295D02*
X35737142Y-15854295D01*
X35737142Y-15854295D02*
X35432380Y-15854295D01*
X35432380Y-15854295D02*
X35356190Y-15892390D01*
X35356190Y-15892390D02*
X35318095Y-15930485D01*
X35318095Y-15930485D02*
X35279999Y-16006676D01*
X35279999Y-16006676D02*
X35279999Y-16120961D01*
X35279999Y-16120961D02*
X35318095Y-16197152D01*
X35318095Y-16197152D02*
X35356190Y-16235247D01*
X35356190Y-16235247D02*
X35432380Y-16273342D01*
X35432380Y-16273342D02*
X35737142Y-16273342D01*
X35013333Y-15854295D02*
X34479999Y-16654295D01*
X34479999Y-15854295D02*
X35013333Y-16654295D01*
X34175237Y-16654295D02*
X34175237Y-15854295D01*
X34175237Y-15854295D02*
X33984761Y-15854295D01*
X33984761Y-15854295D02*
X33870475Y-15892390D01*
X33870475Y-15892390D02*
X33794285Y-15968580D01*
X33794285Y-15968580D02*
X33756190Y-16044771D01*
X33756190Y-16044771D02*
X33718094Y-16197152D01*
X33718094Y-16197152D02*
X33718094Y-16311438D01*
X33718094Y-16311438D02*
X33756190Y-16463819D01*
X33756190Y-16463819D02*
X33794285Y-16540009D01*
X33794285Y-16540009D02*
X33870475Y-16616200D01*
X33870475Y-16616200D02*
X33984761Y-16654295D01*
X33984761Y-16654295D02*
X34175237Y-16654295D01*
X32879999Y-15854295D02*
X32422856Y-15854295D01*
X32651428Y-16654295D02*
X32651428Y-15854295D01*
X32232380Y-15854295D02*
X31699046Y-16654295D01*
X31699046Y-15854295D02*
X32232380Y-16654295D01*
X31394284Y-16654295D02*
X31394284Y-15854295D01*
X31394284Y-15854295D02*
X31203808Y-15854295D01*
X31203808Y-15854295D02*
X31089522Y-15892390D01*
X31089522Y-15892390D02*
X31013332Y-15968580D01*
X31013332Y-15968580D02*
X30975237Y-16044771D01*
X30975237Y-16044771D02*
X30937141Y-16197152D01*
X30937141Y-16197152D02*
X30937141Y-16311438D01*
X30937141Y-16311438D02*
X30975237Y-16463819D01*
X30975237Y-16463819D02*
X31013332Y-16540009D01*
X31013332Y-16540009D02*
X31089522Y-16616200D01*
X31089522Y-16616200D02*
X31203808Y-16654295D01*
X31203808Y-16654295D02*
X31394284Y-16654295D01*
D12*
X61724308Y-20731455D02*
X61793356Y-20800503D01*
X61793356Y-20800503D02*
X62000498Y-20869550D01*
X62000498Y-20869550D02*
X62138594Y-20869550D01*
X62138594Y-20869550D02*
X62345737Y-20800503D01*
X62345737Y-20800503D02*
X62483832Y-20662407D01*
X62483832Y-20662407D02*
X62552879Y-20524312D01*
X62552879Y-20524312D02*
X62621927Y-20248122D01*
X62621927Y-20248122D02*
X62621927Y-20040979D01*
X62621927Y-20040979D02*
X62552879Y-19764788D01*
X62552879Y-19764788D02*
X62483832Y-19626693D01*
X62483832Y-19626693D02*
X62345737Y-19488598D01*
X62345737Y-19488598D02*
X62138594Y-19419550D01*
X62138594Y-19419550D02*
X62000498Y-19419550D01*
X62000498Y-19419550D02*
X61793356Y-19488598D01*
X61793356Y-19488598D02*
X61724308Y-19557645D01*
X60481451Y-20869550D02*
X60481451Y-20110026D01*
X60481451Y-20110026D02*
X60550498Y-19971931D01*
X60550498Y-19971931D02*
X60688594Y-19902883D01*
X60688594Y-19902883D02*
X60964784Y-19902883D01*
X60964784Y-19902883D02*
X61102879Y-19971931D01*
X60481451Y-20800503D02*
X60619546Y-20869550D01*
X60619546Y-20869550D02*
X60964784Y-20869550D01*
X60964784Y-20869550D02*
X61102879Y-20800503D01*
X61102879Y-20800503D02*
X61171927Y-20662407D01*
X61171927Y-20662407D02*
X61171927Y-20524312D01*
X61171927Y-20524312D02*
X61102879Y-20386217D01*
X61102879Y-20386217D02*
X60964784Y-20317169D01*
X60964784Y-20317169D02*
X60619546Y-20317169D01*
X60619546Y-20317169D02*
X60481451Y-20248122D01*
X59790974Y-20869550D02*
X59790974Y-19902883D01*
X59790974Y-20179074D02*
X59721927Y-20040979D01*
X59721927Y-20040979D02*
X59652879Y-19971931D01*
X59652879Y-19971931D02*
X59514784Y-19902883D01*
X59514784Y-19902883D02*
X59376689Y-19902883D01*
X58271927Y-20869550D02*
X58271927Y-20110026D01*
X58271927Y-20110026D02*
X58340974Y-19971931D01*
X58340974Y-19971931D02*
X58479070Y-19902883D01*
X58479070Y-19902883D02*
X58755260Y-19902883D01*
X58755260Y-19902883D02*
X58893355Y-19971931D01*
X58271927Y-20800503D02*
X58410022Y-20869550D01*
X58410022Y-20869550D02*
X58755260Y-20869550D01*
X58755260Y-20869550D02*
X58893355Y-20800503D01*
X58893355Y-20800503D02*
X58962403Y-20662407D01*
X58962403Y-20662407D02*
X58962403Y-20524312D01*
X58962403Y-20524312D02*
X58893355Y-20386217D01*
X58893355Y-20386217D02*
X58755260Y-20317169D01*
X58755260Y-20317169D02*
X58410022Y-20317169D01*
X58410022Y-20317169D02*
X58271927Y-20248122D01*
X57581450Y-20869550D02*
X57581450Y-19902883D01*
X57581450Y-20040979D02*
X57512403Y-19971931D01*
X57512403Y-19971931D02*
X57374308Y-19902883D01*
X57374308Y-19902883D02*
X57167165Y-19902883D01*
X57167165Y-19902883D02*
X57029069Y-19971931D01*
X57029069Y-19971931D02*
X56960022Y-20110026D01*
X56960022Y-20110026D02*
X56960022Y-20869550D01*
X56960022Y-20110026D02*
X56890974Y-19971931D01*
X56890974Y-19971931D02*
X56752879Y-19902883D01*
X56752879Y-19902883D02*
X56545736Y-19902883D01*
X56545736Y-19902883D02*
X56407641Y-19971931D01*
X56407641Y-19971931D02*
X56338593Y-20110026D01*
X56338593Y-20110026D02*
X56338593Y-20869550D01*
X55648117Y-20869550D02*
X55648117Y-19419550D01*
X55648117Y-19971931D02*
X55510022Y-19902883D01*
X55510022Y-19902883D02*
X55233832Y-19902883D01*
X55233832Y-19902883D02*
X55095736Y-19971931D01*
X55095736Y-19971931D02*
X55026689Y-20040979D01*
X55026689Y-20040979D02*
X54957641Y-20179074D01*
X54957641Y-20179074D02*
X54957641Y-20593360D01*
X54957641Y-20593360D02*
X55026689Y-20731455D01*
X55026689Y-20731455D02*
X55095736Y-20800503D01*
X55095736Y-20800503D02*
X55233832Y-20869550D01*
X55233832Y-20869550D02*
X55510022Y-20869550D01*
X55510022Y-20869550D02*
X55648117Y-20800503D01*
X54129070Y-20869550D02*
X54267165Y-20800503D01*
X54267165Y-20800503D02*
X54336212Y-20731455D01*
X54336212Y-20731455D02*
X54405260Y-20593360D01*
X54405260Y-20593360D02*
X54405260Y-20179074D01*
X54405260Y-20179074D02*
X54336212Y-20040979D01*
X54336212Y-20040979D02*
X54267165Y-19971931D01*
X54267165Y-19971931D02*
X54129070Y-19902883D01*
X54129070Y-19902883D02*
X53921927Y-19902883D01*
X53921927Y-19902883D02*
X53783831Y-19971931D01*
X53783831Y-19971931D02*
X53714784Y-20040979D01*
X53714784Y-20040979D02*
X53645736Y-20179074D01*
X53645736Y-20179074D02*
X53645736Y-20593360D01*
X53645736Y-20593360D02*
X53714784Y-20731455D01*
X53714784Y-20731455D02*
X53783831Y-20800503D01*
X53783831Y-20800503D02*
X53921927Y-20869550D01*
X53921927Y-20869550D02*
X54129070Y-20869550D01*
X52817165Y-20869550D02*
X52955260Y-20800503D01*
X52955260Y-20800503D02*
X53024307Y-20662407D01*
X53024307Y-20662407D02*
X53024307Y-19419550D01*
X51643355Y-20869550D02*
X51643355Y-20110026D01*
X51643355Y-20110026D02*
X51712402Y-19971931D01*
X51712402Y-19971931D02*
X51850498Y-19902883D01*
X51850498Y-19902883D02*
X52126688Y-19902883D01*
X52126688Y-19902883D02*
X52264783Y-19971931D01*
X51643355Y-20800503D02*
X51781450Y-20869550D01*
X51781450Y-20869550D02*
X52126688Y-20869550D01*
X52126688Y-20869550D02*
X52264783Y-20800503D01*
X52264783Y-20800503D02*
X52333831Y-20662407D01*
X52333831Y-20662407D02*
X52333831Y-20524312D01*
X52333831Y-20524312D02*
X52264783Y-20386217D01*
X52264783Y-20386217D02*
X52126688Y-20317169D01*
X52126688Y-20317169D02*
X51781450Y-20317169D01*
X51781450Y-20317169D02*
X51643355Y-20248122D01*
X50952878Y-20317169D02*
X49848117Y-20317169D01*
X48329069Y-20869550D02*
X48812402Y-20179074D01*
X49157640Y-20869550D02*
X49157640Y-19419550D01*
X49157640Y-19419550D02*
X48605259Y-19419550D01*
X48605259Y-19419550D02*
X48467164Y-19488598D01*
X48467164Y-19488598D02*
X48398117Y-19557645D01*
X48398117Y-19557645D02*
X48329069Y-19695741D01*
X48329069Y-19695741D02*
X48329069Y-19902883D01*
X48329069Y-19902883D02*
X48398117Y-20040979D01*
X48398117Y-20040979D02*
X48467164Y-20110026D01*
X48467164Y-20110026D02*
X48605259Y-20179074D01*
X48605259Y-20179074D02*
X49157640Y-20179074D01*
X46740974Y-19902883D02*
X46395736Y-20869550D01*
X46395736Y-20869550D02*
X46050497Y-19902883D01*
X44738593Y-20869550D02*
X45567164Y-20869550D01*
X45152878Y-20869550D02*
X45152878Y-19419550D01*
X45152878Y-19419550D02*
X45290974Y-19626693D01*
X45290974Y-19626693D02*
X45429069Y-19764788D01*
X45429069Y-19764788D02*
X45567164Y-19833836D01*
X44117164Y-20869550D02*
X44117164Y-19902883D01*
X44117164Y-20179074D02*
X44048117Y-20040979D01*
X44048117Y-20040979D02*
X43979069Y-19971931D01*
X43979069Y-19971931D02*
X43840974Y-19902883D01*
X43840974Y-19902883D02*
X43702879Y-19902883D01*
X42460022Y-20869550D02*
X43288593Y-20869550D01*
X42874307Y-20869550D02*
X42874307Y-19419550D01*
X42874307Y-19419550D02*
X43012403Y-19626693D01*
X43012403Y-19626693D02*
X43150498Y-19764788D01*
X43150498Y-19764788D02*
X43288593Y-19833836D01*
X41976689Y-20869550D02*
X41217165Y-19902883D01*
X41976689Y-19902883D02*
X41217165Y-20869550D01*
X40733831Y-19557645D02*
X40664783Y-19488598D01*
X40664783Y-19488598D02*
X40526688Y-19419550D01*
X40526688Y-19419550D02*
X40181450Y-19419550D01*
X40181450Y-19419550D02*
X40043355Y-19488598D01*
X40043355Y-19488598D02*
X39974307Y-19557645D01*
X39974307Y-19557645D02*
X39905260Y-19695741D01*
X39905260Y-19695741D02*
X39905260Y-19833836D01*
X39905260Y-19833836D02*
X39974307Y-20040979D01*
X39974307Y-20040979D02*
X40802879Y-20869550D01*
X40802879Y-20869550D02*
X39905260Y-20869550D01*
X38662403Y-20869550D02*
X38662403Y-19419550D01*
X38662403Y-20800503D02*
X38800498Y-20869550D01*
X38800498Y-20869550D02*
X39076689Y-20869550D01*
X39076689Y-20869550D02*
X39214784Y-20800503D01*
X39214784Y-20800503D02*
X39283831Y-20731455D01*
X39283831Y-20731455D02*
X39352879Y-20593360D01*
X39352879Y-20593360D02*
X39352879Y-20179074D01*
X39352879Y-20179074D02*
X39283831Y-20040979D01*
X39283831Y-20040979D02*
X39214784Y-19971931D01*
X39214784Y-19971931D02*
X39076689Y-19902883D01*
X39076689Y-19902883D02*
X38800498Y-19902883D01*
X38800498Y-19902883D02*
X38662403Y-19971931D01*
X37212403Y-20869550D02*
X38040974Y-20869550D01*
X37626688Y-20869550D02*
X37626688Y-19419550D01*
X37626688Y-19419550D02*
X37764784Y-19626693D01*
X37764784Y-19626693D02*
X37902879Y-19764788D01*
X37902879Y-19764788D02*
X38040974Y-19833836D01*
X62621927Y-22789764D02*
X61931451Y-22789764D01*
X62760022Y-23204050D02*
X62276689Y-21754050D01*
X62276689Y-21754050D02*
X61793356Y-23204050D01*
X61517165Y-21754050D02*
X60688594Y-21754050D01*
X61102880Y-23204050D02*
X61102880Y-21754050D01*
X60136213Y-23204050D02*
X59860022Y-23204050D01*
X59860022Y-23204050D02*
X59721927Y-23135003D01*
X59721927Y-23135003D02*
X59652879Y-23065955D01*
X59652879Y-23065955D02*
X59514784Y-22858812D01*
X59514784Y-22858812D02*
X59445737Y-22582622D01*
X59445737Y-22582622D02*
X59445737Y-22030241D01*
X59445737Y-22030241D02*
X59514784Y-21892145D01*
X59514784Y-21892145D02*
X59583832Y-21823098D01*
X59583832Y-21823098D02*
X59721927Y-21754050D01*
X59721927Y-21754050D02*
X59998118Y-21754050D01*
X59998118Y-21754050D02*
X60136213Y-21823098D01*
X60136213Y-21823098D02*
X60205260Y-21892145D01*
X60205260Y-21892145D02*
X60274308Y-22030241D01*
X60274308Y-22030241D02*
X60274308Y-22375479D01*
X60274308Y-22375479D02*
X60205260Y-22513574D01*
X60205260Y-22513574D02*
X60136213Y-22582622D01*
X60136213Y-22582622D02*
X59998118Y-22651669D01*
X59998118Y-22651669D02*
X59721927Y-22651669D01*
X59721927Y-22651669D02*
X59583832Y-22582622D01*
X59583832Y-22582622D02*
X59514784Y-22513574D01*
X59514784Y-22513574D02*
X59445737Y-22375479D01*
X58064785Y-23204050D02*
X58893356Y-23204050D01*
X58479070Y-23204050D02*
X58479070Y-21754050D01*
X58479070Y-21754050D02*
X58617166Y-21961193D01*
X58617166Y-21961193D02*
X58755261Y-22099288D01*
X58755261Y-22099288D02*
X58893356Y-22168336D01*
X57512404Y-23135003D02*
X57305261Y-23204050D01*
X57305261Y-23204050D02*
X56960023Y-23204050D01*
X56960023Y-23204050D02*
X56821928Y-23135003D01*
X56821928Y-23135003D02*
X56752880Y-23065955D01*
X56752880Y-23065955D02*
X56683833Y-22927860D01*
X56683833Y-22927860D02*
X56683833Y-22789764D01*
X56683833Y-22789764D02*
X56752880Y-22651669D01*
X56752880Y-22651669D02*
X56821928Y-22582622D01*
X56821928Y-22582622D02*
X56960023Y-22513574D01*
X56960023Y-22513574D02*
X57236214Y-22444526D01*
X57236214Y-22444526D02*
X57374309Y-22375479D01*
X57374309Y-22375479D02*
X57443356Y-22306431D01*
X57443356Y-22306431D02*
X57512404Y-22168336D01*
X57512404Y-22168336D02*
X57512404Y-22030241D01*
X57512404Y-22030241D02*
X57443356Y-21892145D01*
X57443356Y-21892145D02*
X57374309Y-21823098D01*
X57374309Y-21823098D02*
X57236214Y-21754050D01*
X57236214Y-21754050D02*
X56890975Y-21754050D01*
X56890975Y-21754050D02*
X56683833Y-21823098D01*
X56131452Y-22789764D02*
X55440976Y-22789764D01*
X56269547Y-23204050D02*
X55786214Y-21754050D01*
X55786214Y-21754050D02*
X55302881Y-23204050D01*
X54819547Y-23204050D02*
X54819547Y-21754050D01*
X54819547Y-21754050D02*
X54336214Y-22789764D01*
X54336214Y-22789764D02*
X53852881Y-21754050D01*
X53852881Y-21754050D02*
X53852881Y-23204050D01*
X53093357Y-23204050D02*
X52817166Y-23204050D01*
X52817166Y-23204050D02*
X52679071Y-23135003D01*
X52679071Y-23135003D02*
X52610023Y-23065955D01*
X52610023Y-23065955D02*
X52471928Y-22858812D01*
X52471928Y-22858812D02*
X52402881Y-22582622D01*
X52402881Y-22582622D02*
X52402881Y-22030241D01*
X52402881Y-22030241D02*
X52471928Y-21892145D01*
X52471928Y-21892145D02*
X52540976Y-21823098D01*
X52540976Y-21823098D02*
X52679071Y-21754050D01*
X52679071Y-21754050D02*
X52955262Y-21754050D01*
X52955262Y-21754050D02*
X53093357Y-21823098D01*
X53093357Y-21823098D02*
X53162404Y-21892145D01*
X53162404Y-21892145D02*
X53231452Y-22030241D01*
X53231452Y-22030241D02*
X53231452Y-22375479D01*
X53231452Y-22375479D02*
X53162404Y-22513574D01*
X53162404Y-22513574D02*
X53093357Y-22582622D01*
X53093357Y-22582622D02*
X52955262Y-22651669D01*
X52955262Y-22651669D02*
X52679071Y-22651669D01*
X52679071Y-22651669D02*
X52540976Y-22582622D01*
X52540976Y-22582622D02*
X52471928Y-22513574D01*
X52471928Y-22513574D02*
X52402881Y-22375479D01*
X51021929Y-21823098D02*
X51160024Y-21754050D01*
X51160024Y-21754050D02*
X51367167Y-21754050D01*
X51367167Y-21754050D02*
X51574310Y-21823098D01*
X51574310Y-21823098D02*
X51712405Y-21961193D01*
X51712405Y-21961193D02*
X51781452Y-22099288D01*
X51781452Y-22099288D02*
X51850500Y-22375479D01*
X51850500Y-22375479D02*
X51850500Y-22582622D01*
X51850500Y-22582622D02*
X51781452Y-22858812D01*
X51781452Y-22858812D02*
X51712405Y-22996907D01*
X51712405Y-22996907D02*
X51574310Y-23135003D01*
X51574310Y-23135003D02*
X51367167Y-23204050D01*
X51367167Y-23204050D02*
X51229071Y-23204050D01*
X51229071Y-23204050D02*
X51021929Y-23135003D01*
X51021929Y-23135003D02*
X50952881Y-23065955D01*
X50952881Y-23065955D02*
X50952881Y-22582622D01*
X50952881Y-22582622D02*
X51229071Y-22582622D01*
X50400500Y-21892145D02*
X50331452Y-21823098D01*
X50331452Y-21823098D02*
X50193357Y-21754050D01*
X50193357Y-21754050D02*
X49848119Y-21754050D01*
X49848119Y-21754050D02*
X49710024Y-21823098D01*
X49710024Y-21823098D02*
X49640976Y-21892145D01*
X49640976Y-21892145D02*
X49571929Y-22030241D01*
X49571929Y-22030241D02*
X49571929Y-22168336D01*
X49571929Y-22168336D02*
X49640976Y-22375479D01*
X49640976Y-22375479D02*
X50469548Y-23204050D01*
X50469548Y-23204050D02*
X49571929Y-23204050D01*
X48260024Y-21754050D02*
X48950500Y-21754050D01*
X48950500Y-21754050D02*
X49019548Y-22444526D01*
X49019548Y-22444526D02*
X48950500Y-22375479D01*
X48950500Y-22375479D02*
X48812405Y-22306431D01*
X48812405Y-22306431D02*
X48467167Y-22306431D01*
X48467167Y-22306431D02*
X48329072Y-22375479D01*
X48329072Y-22375479D02*
X48260024Y-22444526D01*
X48260024Y-22444526D02*
X48190977Y-22582622D01*
X48190977Y-22582622D02*
X48190977Y-22927860D01*
X48190977Y-22927860D02*
X48260024Y-23065955D01*
X48260024Y-23065955D02*
X48329072Y-23135003D01*
X48329072Y-23135003D02*
X48467167Y-23204050D01*
X48467167Y-23204050D02*
X48812405Y-23204050D01*
X48812405Y-23204050D02*
X48950500Y-23135003D01*
X48950500Y-23135003D02*
X49019548Y-23065955D01*
X46671929Y-22513574D02*
X46740977Y-22444526D01*
X46740977Y-22444526D02*
X46879072Y-22375479D01*
X46879072Y-22375479D02*
X47017167Y-22375479D01*
X47017167Y-22375479D02*
X47155263Y-22444526D01*
X47155263Y-22444526D02*
X47224310Y-22513574D01*
X47224310Y-22513574D02*
X47293358Y-22651669D01*
X47293358Y-22651669D02*
X47293358Y-22789764D01*
X47293358Y-22789764D02*
X47224310Y-22927860D01*
X47224310Y-22927860D02*
X47155263Y-22996907D01*
X47155263Y-22996907D02*
X47017167Y-23065955D01*
X47017167Y-23065955D02*
X46879072Y-23065955D01*
X46879072Y-23065955D02*
X46740977Y-22996907D01*
X46740977Y-22996907D02*
X46671929Y-22927860D01*
X46671929Y-22375479D02*
X46671929Y-22927860D01*
X46671929Y-22927860D02*
X46602882Y-22996907D01*
X46602882Y-22996907D02*
X46533834Y-22996907D01*
X46533834Y-22996907D02*
X46395739Y-22927860D01*
X46395739Y-22927860D02*
X46326691Y-22789764D01*
X46326691Y-22789764D02*
X46326691Y-22444526D01*
X46326691Y-22444526D02*
X46464787Y-22237383D01*
X46464787Y-22237383D02*
X46671929Y-22099288D01*
X46671929Y-22099288D02*
X46948120Y-22030241D01*
X46948120Y-22030241D02*
X47224310Y-22099288D01*
X47224310Y-22099288D02*
X47431453Y-22237383D01*
X47431453Y-22237383D02*
X47569548Y-22444526D01*
X47569548Y-22444526D02*
X47638596Y-22720717D01*
X47638596Y-22720717D02*
X47569548Y-22996907D01*
X47569548Y-22996907D02*
X47431453Y-23204050D01*
X47431453Y-23204050D02*
X47224310Y-23342145D01*
X47224310Y-23342145D02*
X46948120Y-23411193D01*
X46948120Y-23411193D02*
X46671929Y-23342145D01*
X46671929Y-23342145D02*
X46464787Y-23204050D01*
X45083834Y-22237383D02*
X45083834Y-23204050D01*
X45429072Y-21685003D02*
X45774310Y-22720717D01*
X45774310Y-22720717D02*
X44876691Y-22720717D01*
X44048120Y-21754050D02*
X43910025Y-21754050D01*
X43910025Y-21754050D02*
X43771929Y-21823098D01*
X43771929Y-21823098D02*
X43702882Y-21892145D01*
X43702882Y-21892145D02*
X43633834Y-22030241D01*
X43633834Y-22030241D02*
X43564787Y-22306431D01*
X43564787Y-22306431D02*
X43564787Y-22651669D01*
X43564787Y-22651669D02*
X43633834Y-22927860D01*
X43633834Y-22927860D02*
X43702882Y-23065955D01*
X43702882Y-23065955D02*
X43771929Y-23135003D01*
X43771929Y-23135003D02*
X43910025Y-23204050D01*
X43910025Y-23204050D02*
X44048120Y-23204050D01*
X44048120Y-23204050D02*
X44186215Y-23135003D01*
X44186215Y-23135003D02*
X44255263Y-23065955D01*
X44255263Y-23065955D02*
X44324310Y-22927860D01*
X44324310Y-22927860D02*
X44393358Y-22651669D01*
X44393358Y-22651669D02*
X44393358Y-22306431D01*
X44393358Y-22306431D02*
X44324310Y-22030241D01*
X44324310Y-22030241D02*
X44255263Y-21892145D01*
X44255263Y-21892145D02*
X44186215Y-21823098D01*
X44186215Y-21823098D02*
X44048120Y-21754050D01*
X42667168Y-21754050D02*
X42529073Y-21754050D01*
X42529073Y-21754050D02*
X42390977Y-21823098D01*
X42390977Y-21823098D02*
X42321930Y-21892145D01*
X42321930Y-21892145D02*
X42252882Y-22030241D01*
X42252882Y-22030241D02*
X42183835Y-22306431D01*
X42183835Y-22306431D02*
X42183835Y-22651669D01*
X42183835Y-22651669D02*
X42252882Y-22927860D01*
X42252882Y-22927860D02*
X42321930Y-23065955D01*
X42321930Y-23065955D02*
X42390977Y-23135003D01*
X42390977Y-23135003D02*
X42529073Y-23204050D01*
X42529073Y-23204050D02*
X42667168Y-23204050D01*
X42667168Y-23204050D02*
X42805263Y-23135003D01*
X42805263Y-23135003D02*
X42874311Y-23065955D01*
X42874311Y-23065955D02*
X42943358Y-22927860D01*
X42943358Y-22927860D02*
X43012406Y-22651669D01*
X43012406Y-22651669D02*
X43012406Y-22306431D01*
X43012406Y-22306431D02*
X42943358Y-22030241D01*
X42943358Y-22030241D02*
X42874311Y-21892145D01*
X42874311Y-21892145D02*
X42805263Y-21823098D01*
X42805263Y-21823098D02*
X42667168Y-21754050D01*
X41562406Y-23204050D02*
X41562406Y-21754050D01*
X41562406Y-21754050D02*
X41079073Y-22789764D01*
X41079073Y-22789764D02*
X40595740Y-21754050D01*
X40595740Y-21754050D02*
X40595740Y-23204050D01*
X39905263Y-23204050D02*
X39905263Y-21754050D01*
X39905263Y-22444526D02*
X39076692Y-22444526D01*
X39076692Y-23204050D02*
X39076692Y-21754050D01*
X38524311Y-22237383D02*
X37764787Y-22237383D01*
X37764787Y-22237383D02*
X38524311Y-23204050D01*
X38524311Y-23204050D02*
X37764787Y-23204050D01*
X61931451Y-24571883D02*
X61931451Y-25745693D01*
X61931451Y-25745693D02*
X62000498Y-25883788D01*
X62000498Y-25883788D02*
X62069546Y-25952836D01*
X62069546Y-25952836D02*
X62207641Y-26021883D01*
X62207641Y-26021883D02*
X62414784Y-26021883D01*
X62414784Y-26021883D02*
X62552879Y-25952836D01*
X61931451Y-25469503D02*
X62069546Y-25538550D01*
X62069546Y-25538550D02*
X62345737Y-25538550D01*
X62345737Y-25538550D02*
X62483832Y-25469503D01*
X62483832Y-25469503D02*
X62552879Y-25400455D01*
X62552879Y-25400455D02*
X62621927Y-25262360D01*
X62621927Y-25262360D02*
X62621927Y-24848074D01*
X62621927Y-24848074D02*
X62552879Y-24709979D01*
X62552879Y-24709979D02*
X62483832Y-24640931D01*
X62483832Y-24640931D02*
X62345737Y-24571883D01*
X62345737Y-24571883D02*
X62069546Y-24571883D01*
X62069546Y-24571883D02*
X61931451Y-24640931D01*
X61240974Y-25538550D02*
X61240974Y-24571883D01*
X61240974Y-24088550D02*
X61310022Y-24157598D01*
X61310022Y-24157598D02*
X61240974Y-24226645D01*
X61240974Y-24226645D02*
X61171927Y-24157598D01*
X61171927Y-24157598D02*
X61240974Y-24088550D01*
X61240974Y-24088550D02*
X61240974Y-24226645D01*
X60757641Y-24571883D02*
X60205260Y-24571883D01*
X60550498Y-24088550D02*
X60550498Y-25331407D01*
X60550498Y-25331407D02*
X60481451Y-25469503D01*
X60481451Y-25469503D02*
X60343356Y-25538550D01*
X60343356Y-25538550D02*
X60205260Y-25538550D01*
X59721927Y-25538550D02*
X59721927Y-24088550D01*
X59100499Y-25538550D02*
X59100499Y-24779026D01*
X59100499Y-24779026D02*
X59169546Y-24640931D01*
X59169546Y-24640931D02*
X59307642Y-24571883D01*
X59307642Y-24571883D02*
X59514785Y-24571883D01*
X59514785Y-24571883D02*
X59652880Y-24640931D01*
X59652880Y-24640931D02*
X59721927Y-24709979D01*
X57788594Y-24571883D02*
X57788594Y-25538550D01*
X58410022Y-24571883D02*
X58410022Y-25331407D01*
X58410022Y-25331407D02*
X58340975Y-25469503D01*
X58340975Y-25469503D02*
X58202880Y-25538550D01*
X58202880Y-25538550D02*
X57995737Y-25538550D01*
X57995737Y-25538550D02*
X57857641Y-25469503D01*
X57857641Y-25469503D02*
X57788594Y-25400455D01*
X57098117Y-25538550D02*
X57098117Y-24088550D01*
X57098117Y-24640931D02*
X56960022Y-24571883D01*
X56960022Y-24571883D02*
X56683832Y-24571883D01*
X56683832Y-24571883D02*
X56545736Y-24640931D01*
X56545736Y-24640931D02*
X56476689Y-24709979D01*
X56476689Y-24709979D02*
X56407641Y-24848074D01*
X56407641Y-24848074D02*
X56407641Y-25262360D01*
X56407641Y-25262360D02*
X56476689Y-25400455D01*
X56476689Y-25400455D02*
X56545736Y-25469503D01*
X56545736Y-25469503D02*
X56683832Y-25538550D01*
X56683832Y-25538550D02*
X56960022Y-25538550D01*
X56960022Y-25538550D02*
X57098117Y-25469503D01*
X55786212Y-25400455D02*
X55717165Y-25469503D01*
X55717165Y-25469503D02*
X55786212Y-25538550D01*
X55786212Y-25538550D02*
X55855260Y-25469503D01*
X55855260Y-25469503D02*
X55786212Y-25400455D01*
X55786212Y-25400455D02*
X55786212Y-25538550D01*
X55786212Y-24640931D02*
X55717165Y-24709979D01*
X55717165Y-24709979D02*
X55786212Y-24779026D01*
X55786212Y-24779026D02*
X55855260Y-24709979D01*
X55855260Y-24709979D02*
X55786212Y-24640931D01*
X55786212Y-24640931D02*
X55786212Y-24779026D01*
X53990974Y-24571883D02*
X53990974Y-25814741D01*
X53990974Y-25814741D02*
X54060022Y-25952836D01*
X54060022Y-25952836D02*
X54198117Y-26021883D01*
X54198117Y-26021883D02*
X54267165Y-26021883D01*
X53990974Y-24088550D02*
X54060022Y-24157598D01*
X54060022Y-24157598D02*
X53990974Y-24226645D01*
X53990974Y-24226645D02*
X53921927Y-24157598D01*
X53921927Y-24157598D02*
X53990974Y-24088550D01*
X53990974Y-24088550D02*
X53990974Y-24226645D01*
X53093356Y-25538550D02*
X53231451Y-25469503D01*
X53231451Y-25469503D02*
X53300498Y-25331407D01*
X53300498Y-25331407D02*
X53300498Y-24088550D01*
X52679070Y-24571883D02*
X52333832Y-25538550D01*
X51988593Y-24571883D02*
X52333832Y-25538550D01*
X52333832Y-25538550D02*
X52471927Y-25883788D01*
X52471927Y-25883788D02*
X52540974Y-25952836D01*
X52540974Y-25952836D02*
X52679070Y-26021883D01*
X51574308Y-24571883D02*
X51298117Y-25538550D01*
X51298117Y-25538550D02*
X51021927Y-24848074D01*
X51021927Y-24848074D02*
X50745736Y-25538550D01*
X50745736Y-25538550D02*
X50469546Y-24571883D01*
X50055260Y-25538550D02*
X49295736Y-24571883D01*
X50055260Y-24571883D02*
X49295736Y-25538550D01*
X48881450Y-24571883D02*
X48536212Y-25538550D01*
X48190973Y-24571883D02*
X48536212Y-25538550D01*
X48536212Y-25538550D02*
X48674307Y-25883788D01*
X48674307Y-25883788D02*
X48743354Y-25952836D01*
X48743354Y-25952836D02*
X48881450Y-26021883D01*
X46602878Y-24019503D02*
X47845735Y-25883788D01*
X46188592Y-25469503D02*
X46050497Y-25538550D01*
X46050497Y-25538550D02*
X45774306Y-25538550D01*
X45774306Y-25538550D02*
X45636211Y-25469503D01*
X45636211Y-25469503D02*
X45567163Y-25331407D01*
X45567163Y-25331407D02*
X45567163Y-25262360D01*
X45567163Y-25262360D02*
X45636211Y-25124264D01*
X45636211Y-25124264D02*
X45774306Y-25055217D01*
X45774306Y-25055217D02*
X45981449Y-25055217D01*
X45981449Y-25055217D02*
X46119544Y-24986169D01*
X46119544Y-24986169D02*
X46188592Y-24848074D01*
X46188592Y-24848074D02*
X46188592Y-24779026D01*
X46188592Y-24779026D02*
X46119544Y-24640931D01*
X46119544Y-24640931D02*
X45981449Y-24571883D01*
X45981449Y-24571883D02*
X45774306Y-24571883D01*
X45774306Y-24571883D02*
X45636211Y-24640931D01*
X44738592Y-25538550D02*
X44876687Y-25469503D01*
X44876687Y-25469503D02*
X44945734Y-25331407D01*
X44945734Y-25331407D02*
X44945734Y-24088550D01*
X44186210Y-25538550D02*
X44186210Y-24571883D01*
X44186210Y-24088550D02*
X44255258Y-24157598D01*
X44255258Y-24157598D02*
X44186210Y-24226645D01*
X44186210Y-24226645D02*
X44117163Y-24157598D01*
X44117163Y-24157598D02*
X44186210Y-24088550D01*
X44186210Y-24088550D02*
X44186210Y-24226645D01*
X43495734Y-25538550D02*
X43495734Y-24571883D01*
X43495734Y-24709979D02*
X43426687Y-24640931D01*
X43426687Y-24640931D02*
X43288592Y-24571883D01*
X43288592Y-24571883D02*
X43081449Y-24571883D01*
X43081449Y-24571883D02*
X42943353Y-24640931D01*
X42943353Y-24640931D02*
X42874306Y-24779026D01*
X42874306Y-24779026D02*
X42874306Y-25538550D01*
X42874306Y-24779026D02*
X42805258Y-24640931D01*
X42805258Y-24640931D02*
X42667163Y-24571883D01*
X42667163Y-24571883D02*
X42460020Y-24571883D01*
X42460020Y-24571883D02*
X42321925Y-24640931D01*
X42321925Y-24640931D02*
X42252877Y-24779026D01*
X42252877Y-24779026D02*
X42252877Y-25538550D01*
X40940973Y-25538550D02*
X40940973Y-24779026D01*
X40940973Y-24779026D02*
X41010020Y-24640931D01*
X41010020Y-24640931D02*
X41148116Y-24571883D01*
X41148116Y-24571883D02*
X41424306Y-24571883D01*
X41424306Y-24571883D02*
X41562401Y-24640931D01*
X40940973Y-25469503D02*
X41079068Y-25538550D01*
X41079068Y-25538550D02*
X41424306Y-25538550D01*
X41424306Y-25538550D02*
X41562401Y-25469503D01*
X41562401Y-25469503D02*
X41631449Y-25331407D01*
X41631449Y-25331407D02*
X41631449Y-25193312D01*
X41631449Y-25193312D02*
X41562401Y-25055217D01*
X41562401Y-25055217D02*
X41424306Y-24986169D01*
X41424306Y-24986169D02*
X41079068Y-24986169D01*
X41079068Y-24986169D02*
X40940973Y-24917122D01*
X40250496Y-25538550D02*
X40250496Y-24571883D01*
X40250496Y-24848074D02*
X40181449Y-24709979D01*
X40181449Y-24709979D02*
X40112401Y-24640931D01*
X40112401Y-24640931D02*
X39974306Y-24571883D01*
X39974306Y-24571883D02*
X39836211Y-24571883D01*
X39352877Y-25538550D02*
X39352877Y-24571883D01*
X39352877Y-24709979D02*
X39283830Y-24640931D01*
X39283830Y-24640931D02*
X39145735Y-24571883D01*
X39145735Y-24571883D02*
X38938592Y-24571883D01*
X38938592Y-24571883D02*
X38800496Y-24640931D01*
X38800496Y-24640931D02*
X38731449Y-24779026D01*
X38731449Y-24779026D02*
X38731449Y-25538550D01*
X38731449Y-24779026D02*
X38662401Y-24640931D01*
X38662401Y-24640931D02*
X38524306Y-24571883D01*
X38524306Y-24571883D02*
X38317163Y-24571883D01*
X38317163Y-24571883D02*
X38179068Y-24640931D01*
X38179068Y-24640931D02*
X38110020Y-24779026D01*
X38110020Y-24779026D02*
X38110020Y-25538550D01*
D10*
%TO.C,J3*%
X23728333Y-11254819D02*
X23728333Y-11969104D01*
X23728333Y-11969104D02*
X23775952Y-12111961D01*
X23775952Y-12111961D02*
X23871190Y-12207200D01*
X23871190Y-12207200D02*
X24014047Y-12254819D01*
X24014047Y-12254819D02*
X24109285Y-12254819D01*
X23347380Y-11254819D02*
X22728333Y-11254819D01*
X22728333Y-11254819D02*
X23061666Y-11635771D01*
X23061666Y-11635771D02*
X22918809Y-11635771D01*
X22918809Y-11635771D02*
X22823571Y-11683390D01*
X22823571Y-11683390D02*
X22775952Y-11731009D01*
X22775952Y-11731009D02*
X22728333Y-11826247D01*
X22728333Y-11826247D02*
X22728333Y-12064342D01*
X22728333Y-12064342D02*
X22775952Y-12159580D01*
X22775952Y-12159580D02*
X22823571Y-12207200D01*
X22823571Y-12207200D02*
X22918809Y-12254819D01*
X22918809Y-12254819D02*
X23204523Y-12254819D01*
X23204523Y-12254819D02*
X23299761Y-12207200D01*
X23299761Y-12207200D02*
X23347380Y-12159580D01*
D13*
%TO.C,J2*%
X39270000Y-41110000D02*
X38220000Y-41110000D01*
X29350000Y-41110000D02*
X30400000Y-41110000D01*
X38220000Y-37090000D02*
X39270000Y-37090000D01*
X30400000Y-37090000D02*
X29350000Y-37090000D01*
X30400000Y-36666667D02*
X30400000Y-37090000D01*
X29350000Y-37090000D02*
X29350000Y-41110000D01*
X39270000Y-37090000D02*
X39270000Y-41110000D01*
%TO.C,J4*%
X17939100Y-18572000D02*
G75*
G03*
X17939100Y-18572000I-381000J0D01*
G01*
%TO.C,G\u002A\u002A\u002A*%
G36*
X52451311Y-29879218D02*
G01*
X52485781Y-29881238D01*
X52513154Y-29885147D01*
X52551059Y-29894971D01*
X52594801Y-29911694D01*
X52636422Y-29934417D01*
X52677924Y-29964267D01*
X52721309Y-30002373D01*
X52735430Y-30015673D01*
X52749464Y-30028718D01*
X52759233Y-30037592D01*
X52763194Y-30040877D01*
X52763249Y-30040820D01*
X52763723Y-30035096D01*
X52764109Y-30021347D01*
X52764368Y-30001494D01*
X52764464Y-29977457D01*
X52764464Y-29913995D01*
X52932003Y-29913995D01*
X53099542Y-29913995D01*
X53099542Y-30632384D01*
X53099542Y-31350773D01*
X52932237Y-31350773D01*
X52764932Y-31350773D01*
X52763177Y-30910347D01*
X52762945Y-30852756D01*
X52762647Y-30782724D01*
X52762351Y-30721651D01*
X52762041Y-30668846D01*
X52761698Y-30623621D01*
X52761305Y-30585287D01*
X52760842Y-30553154D01*
X52760293Y-30526533D01*
X52759640Y-30504735D01*
X52758863Y-30487072D01*
X52757946Y-30472852D01*
X52756871Y-30461389D01*
X52755619Y-30451992D01*
X52754172Y-30443971D01*
X52752513Y-30436639D01*
X52750623Y-30429306D01*
X52732017Y-30373042D01*
X52707525Y-30323696D01*
X52677380Y-30282549D01*
X52641414Y-30249375D01*
X52599463Y-30223949D01*
X52581582Y-30216215D01*
X52547282Y-30205955D01*
X52508422Y-30200140D01*
X52462519Y-30198305D01*
X52457947Y-30198327D01*
X52410457Y-30201862D01*
X52367144Y-30212036D01*
X52324113Y-30229733D01*
X52322890Y-30230333D01*
X52307034Y-30237691D01*
X52295280Y-30242404D01*
X52290092Y-30243474D01*
X52288679Y-30240892D01*
X52283555Y-30230224D01*
X52275342Y-30212575D01*
X52264647Y-30189299D01*
X52252080Y-30161744D01*
X52238250Y-30131264D01*
X52223766Y-30099209D01*
X52209237Y-30066931D01*
X52195272Y-30035781D01*
X52182481Y-30007110D01*
X52171472Y-29982270D01*
X52162854Y-29962613D01*
X52157237Y-29949488D01*
X52155229Y-29944248D01*
X52155229Y-29944230D01*
X52159750Y-29940050D01*
X52171831Y-29933410D01*
X52189455Y-29925167D01*
X52210601Y-29916181D01*
X52233251Y-29907309D01*
X52255387Y-29899410D01*
X52274987Y-29893342D01*
X52299659Y-29888068D01*
X52333917Y-29883513D01*
X52372518Y-29880455D01*
X52412603Y-29878990D01*
X52451311Y-29879218D01*
G37*
G36*
X54960540Y-30699793D02*
G01*
X54950269Y-30785650D01*
X54931923Y-30869808D01*
X54905510Y-30951219D01*
X54871034Y-31028832D01*
X54828501Y-31101595D01*
X54813778Y-31122898D01*
X54761703Y-31187082D01*
X54703530Y-31243238D01*
X54639602Y-31291161D01*
X54570265Y-31330646D01*
X54495863Y-31361488D01*
X54416740Y-31383482D01*
X54333242Y-31396423D01*
X54307093Y-31398320D01*
X54247473Y-31398455D01*
X54186886Y-31393418D01*
X54128753Y-31383570D01*
X54076495Y-31369274D01*
X54043165Y-31356808D01*
X53984355Y-31328218D01*
X53929892Y-31292163D01*
X53877586Y-31247298D01*
X53835701Y-31207219D01*
X53835701Y-31281535D01*
X53835701Y-31355850D01*
X53668161Y-31355850D01*
X53500622Y-31355850D01*
X53500622Y-30634923D01*
X53500622Y-30624789D01*
X53811852Y-30624789D01*
X53813081Y-30696404D01*
X53822390Y-30763987D01*
X53839425Y-30827000D01*
X53863834Y-30884902D01*
X53895265Y-30937154D01*
X53933364Y-30983215D01*
X53977780Y-31022545D01*
X54028158Y-31054605D01*
X54084148Y-31078855D01*
X54145395Y-31094754D01*
X54192613Y-31100530D01*
X54256791Y-31099580D01*
X54320550Y-31088531D01*
X54367310Y-31072837D01*
X54418123Y-31046270D01*
X54464623Y-31011448D01*
X54506187Y-30969121D01*
X54542190Y-30920038D01*
X54572008Y-30864950D01*
X54595018Y-30804607D01*
X54610595Y-30739760D01*
X54611638Y-30733392D01*
X54616102Y-30688898D01*
X54617081Y-30639273D01*
X54614727Y-30588236D01*
X54609192Y-30539502D01*
X54600630Y-30496789D01*
X54580338Y-30435401D01*
X54552250Y-30377739D01*
X54517430Y-30326209D01*
X54476490Y-30281479D01*
X54430044Y-30244215D01*
X54378706Y-30215085D01*
X54323088Y-30194756D01*
X54311412Y-30192108D01*
X54281982Y-30188104D01*
X54247140Y-30185862D01*
X54209950Y-30185385D01*
X54173477Y-30186676D01*
X54140783Y-30189737D01*
X54114933Y-30194572D01*
X54090354Y-30202127D01*
X54038227Y-30224465D01*
X53989349Y-30253765D01*
X53946871Y-30288271D01*
X53927067Y-30308367D01*
X53890805Y-30353480D01*
X53861869Y-30402935D01*
X53839792Y-30457787D01*
X53824109Y-30519090D01*
X53814353Y-30587899D01*
X53811852Y-30624789D01*
X53500622Y-30624789D01*
X53500622Y-29913995D01*
X53668161Y-29913995D01*
X53835701Y-29913995D01*
X53835701Y-29995495D01*
X53835701Y-30076994D01*
X53877681Y-30034634D01*
X53902188Y-30011212D01*
X53950517Y-29972556D01*
X54002416Y-29941016D01*
X54059832Y-29915492D01*
X54124713Y-29894883D01*
X54126436Y-29894424D01*
X54145583Y-29889647D01*
X54162933Y-29886229D01*
X54180877Y-29883938D01*
X54201804Y-29882542D01*
X54228103Y-29881809D01*
X54262165Y-29881505D01*
X54305950Y-29881859D01*
X54343287Y-29883672D01*
X54376764Y-29887415D01*
X54409520Y-29893558D01*
X54444695Y-29902572D01*
X54485429Y-29914927D01*
X54532156Y-29931942D01*
X54602802Y-29966115D01*
X54669493Y-30008723D01*
X54730988Y-30058829D01*
X54786049Y-30115498D01*
X54833435Y-30177793D01*
X54852306Y-30207801D01*
X54890595Y-30281793D01*
X54920776Y-30360388D01*
X54942856Y-30442535D01*
X54956839Y-30527185D01*
X54962732Y-30613288D01*
X54962074Y-30639273D01*
X54960540Y-30699793D01*
G37*
G36*
X51303997Y-29882821D02*
G01*
X51363601Y-29893924D01*
X51421544Y-29912896D01*
X51476822Y-29939774D01*
X51528430Y-29974594D01*
X51575365Y-30017393D01*
X51601545Y-30045075D01*
X51602962Y-29980804D01*
X51604380Y-29916534D01*
X51771919Y-29916534D01*
X51939459Y-29916534D01*
X51940745Y-30636192D01*
X51942032Y-31355850D01*
X51777013Y-31355850D01*
X51611995Y-31355850D01*
X51611995Y-30941878D01*
X51611989Y-30906050D01*
X51611921Y-30828925D01*
X51611757Y-30760931D01*
X51611473Y-30701352D01*
X51611045Y-30649470D01*
X51610448Y-30604568D01*
X51609657Y-30565931D01*
X51608649Y-30532841D01*
X51607399Y-30504580D01*
X51605883Y-30480433D01*
X51604076Y-30459682D01*
X51601954Y-30441611D01*
X51599492Y-30425502D01*
X51596667Y-30410640D01*
X51593454Y-30396306D01*
X51590580Y-30385125D01*
X51572445Y-30335604D01*
X51547328Y-30291802D01*
X51516048Y-30254422D01*
X51479423Y-30224168D01*
X51438271Y-30201744D01*
X51393410Y-30187853D01*
X51345658Y-30183198D01*
X51340997Y-30183253D01*
X51294198Y-30188397D01*
X51253146Y-30201904D01*
X51217758Y-30223825D01*
X51187954Y-30254207D01*
X51163652Y-30293100D01*
X51163177Y-30294051D01*
X51157031Y-30306730D01*
X51151576Y-30319107D01*
X51146770Y-30331835D01*
X51142572Y-30345568D01*
X51138942Y-30360959D01*
X51135837Y-30378663D01*
X51133218Y-30399331D01*
X51131042Y-30423619D01*
X51129270Y-30452179D01*
X51127858Y-30485665D01*
X51126768Y-30524731D01*
X51125956Y-30570029D01*
X51125383Y-30622214D01*
X51125007Y-30681938D01*
X51124786Y-30749856D01*
X51124681Y-30826621D01*
X51124649Y-30912886D01*
X51124607Y-31355850D01*
X50957501Y-31355850D01*
X50790395Y-31355850D01*
X50787983Y-30917963D01*
X50787878Y-30899022D01*
X50787428Y-30820936D01*
X50786977Y-30752140D01*
X50786490Y-30691928D01*
X50785934Y-30639597D01*
X50785274Y-30594441D01*
X50784476Y-30555755D01*
X50783506Y-30522835D01*
X50782330Y-30494974D01*
X50780914Y-30471469D01*
X50779222Y-30451614D01*
X50777222Y-30434703D01*
X50774880Y-30420034D01*
X50772159Y-30406899D01*
X50769028Y-30394595D01*
X50765451Y-30382415D01*
X50761394Y-30369657D01*
X50755191Y-30352356D01*
X50732576Y-30306931D01*
X50703265Y-30267374D01*
X50668249Y-30234513D01*
X50628523Y-30209175D01*
X50585081Y-30192188D01*
X50538916Y-30184378D01*
X50505735Y-30184046D01*
X50460759Y-30190450D01*
X50421409Y-30205258D01*
X50387451Y-30228603D01*
X50358656Y-30260619D01*
X50334790Y-30301439D01*
X50333535Y-30304090D01*
X50328188Y-30315684D01*
X50323452Y-30326903D01*
X50319286Y-30338405D01*
X50315651Y-30350849D01*
X50312506Y-30364891D01*
X50309811Y-30381190D01*
X50307527Y-30400404D01*
X50305611Y-30423192D01*
X50304026Y-30450211D01*
X50302730Y-30482119D01*
X50301682Y-30519574D01*
X50300844Y-30563235D01*
X50300175Y-30613760D01*
X50299634Y-30671806D01*
X50299182Y-30738032D01*
X50298778Y-30813096D01*
X50298382Y-30897655D01*
X50296307Y-31355850D01*
X50131685Y-31355850D01*
X49967062Y-31355850D01*
X49967062Y-30853736D01*
X49967062Y-30836279D01*
X49967074Y-30755300D01*
X49967113Y-30683682D01*
X49967189Y-30620764D01*
X49967315Y-30565885D01*
X49967503Y-30518386D01*
X49967764Y-30477605D01*
X49968109Y-30442882D01*
X49968551Y-30413557D01*
X49969101Y-30388969D01*
X49969771Y-30368457D01*
X49970572Y-30351361D01*
X49971517Y-30337021D01*
X49972617Y-30324775D01*
X49973883Y-30313964D01*
X49975327Y-30303926D01*
X49976961Y-30294002D01*
X49990859Y-30229179D01*
X50011825Y-30164246D01*
X50038976Y-30106425D01*
X50072774Y-30054904D01*
X50113679Y-30008871D01*
X50162153Y-29967510D01*
X50179281Y-29955411D01*
X50233146Y-29925314D01*
X50292091Y-29902766D01*
X50354818Y-29887786D01*
X50420029Y-29880397D01*
X50486427Y-29880620D01*
X50552715Y-29888476D01*
X50617594Y-29903986D01*
X50679767Y-29927172D01*
X50737937Y-29958054D01*
X50748232Y-29964902D01*
X50772703Y-29983497D01*
X50799290Y-30006093D01*
X50825349Y-30030285D01*
X50848236Y-30053669D01*
X50865307Y-30073843D01*
X50872349Y-30082457D01*
X50877330Y-30085043D01*
X50881199Y-30080844D01*
X50881525Y-30080282D01*
X50887298Y-30071612D01*
X50897084Y-30057894D01*
X50908959Y-30041832D01*
X50924625Y-30022330D01*
X50967735Y-29979383D01*
X51016214Y-29944047D01*
X51069058Y-29916359D01*
X51125263Y-29896355D01*
X51183824Y-29884073D01*
X51243736Y-29879550D01*
X51303997Y-29882821D01*
G37*
G36*
X53364257Y-15411869D02*
G01*
X53364257Y-15746032D01*
X53201370Y-15739321D01*
X53167572Y-15737785D01*
X53098506Y-15732886D01*
X53048664Y-15725435D01*
X53010149Y-15713954D01*
X52975062Y-15696964D01*
X52944423Y-15677140D01*
X52881709Y-15614146D01*
X52839715Y-15536956D01*
X52818703Y-15451330D01*
X52818934Y-15363032D01*
X52840672Y-15277824D01*
X52884177Y-15201468D01*
X52949713Y-15139726D01*
X52954954Y-15136192D01*
X53006594Y-15108059D01*
X53064836Y-15090064D01*
X53137403Y-15080512D01*
X53232023Y-15077705D01*
X53364257Y-15077705D01*
X53364257Y-15411869D01*
G37*
G36*
X55223763Y-15333164D02*
G01*
X55237274Y-15371573D01*
X55258356Y-15431176D01*
X55285546Y-15507844D01*
X55317381Y-15597446D01*
X55352397Y-15695853D01*
X55379513Y-15772293D01*
X55411451Y-15863143D01*
X55438683Y-15941537D01*
X55459836Y-16003481D01*
X55473535Y-16044985D01*
X55478406Y-16062053D01*
X55466155Y-16065709D01*
X55428197Y-16069175D01*
X55369215Y-16071920D01*
X55293981Y-16073726D01*
X55207264Y-16074376D01*
X54936121Y-16074376D01*
X54971274Y-15979994D01*
X54972180Y-15977557D01*
X54988898Y-15931735D01*
X55013206Y-15864102D01*
X55042886Y-15780878D01*
X55075719Y-15688281D01*
X55109486Y-15592529D01*
X55119142Y-15565249D01*
X55149408Y-15482126D01*
X55176121Y-15412284D01*
X55197734Y-15359550D01*
X55212699Y-15327750D01*
X55219466Y-15320710D01*
X55223763Y-15333164D01*
G37*
G36*
X64129404Y-14489611D02*
G01*
X64130072Y-14613947D01*
X64130564Y-14758338D01*
X64130907Y-14924476D01*
X64131128Y-15114050D01*
X64131252Y-15328753D01*
X64131307Y-15570276D01*
X64131320Y-15840310D01*
X64131319Y-15930117D01*
X64131297Y-16190762D01*
X64131296Y-16195185D01*
X64131225Y-16423439D01*
X64131077Y-16629841D01*
X64130826Y-16811662D01*
X64130443Y-16970592D01*
X64129904Y-17108324D01*
X64129180Y-17226550D01*
X64128244Y-17326963D01*
X64127070Y-17411256D01*
X64125632Y-17481119D01*
X64123901Y-17538246D01*
X64121850Y-17584329D01*
X64119454Y-17621060D01*
X64116685Y-17650131D01*
X64113516Y-17673235D01*
X64109920Y-17692064D01*
X64105871Y-17708311D01*
X64101340Y-17723667D01*
X64048216Y-17851832D01*
X63967597Y-17973729D01*
X63865056Y-18077625D01*
X63743500Y-18160610D01*
X63605837Y-18219773D01*
X63599281Y-18221675D01*
X63590474Y-18223674D01*
X63579259Y-18225567D01*
X63564843Y-18227356D01*
X63546431Y-18229045D01*
X63523228Y-18230637D01*
X63494442Y-18232135D01*
X63459278Y-18233541D01*
X63416941Y-18234860D01*
X63366637Y-18236093D01*
X63307573Y-18237244D01*
X63238955Y-18238315D01*
X63159987Y-18239310D01*
X63069877Y-18240232D01*
X62967829Y-18241084D01*
X62853050Y-18241869D01*
X62724746Y-18242589D01*
X62582122Y-18243248D01*
X62424384Y-18243849D01*
X62250739Y-18244395D01*
X62060392Y-18244888D01*
X61852549Y-18245332D01*
X61626415Y-18245730D01*
X61381198Y-18246084D01*
X61116101Y-18246398D01*
X60830333Y-18246675D01*
X60523097Y-18246918D01*
X60193601Y-18247129D01*
X59841050Y-18247312D01*
X59464650Y-18247470D01*
X59063606Y-18247606D01*
X58637125Y-18247722D01*
X58184413Y-18247822D01*
X57704675Y-18247908D01*
X57197117Y-18247984D01*
X56660945Y-18248053D01*
X56095366Y-18248118D01*
X55557286Y-18248176D01*
X55020198Y-18248229D01*
X54511758Y-18248272D01*
X54031169Y-18248300D01*
X53577635Y-18248312D01*
X53150359Y-18248304D01*
X52748545Y-18248273D01*
X52371396Y-18248217D01*
X52018115Y-18248131D01*
X51687906Y-18248013D01*
X51379973Y-18247859D01*
X51093518Y-18247668D01*
X50827744Y-18247435D01*
X50581857Y-18247158D01*
X50355058Y-18246834D01*
X50146551Y-18246459D01*
X49955540Y-18246031D01*
X49781228Y-18245546D01*
X49622819Y-18245002D01*
X49479515Y-18244395D01*
X49350521Y-18243722D01*
X49235039Y-18242980D01*
X49132274Y-18242167D01*
X49041428Y-18241279D01*
X48961704Y-18240313D01*
X48892307Y-18239265D01*
X48832440Y-18238134D01*
X48781306Y-18236916D01*
X48738108Y-18235607D01*
X48702050Y-18234206D01*
X48672336Y-18232708D01*
X48648168Y-18231111D01*
X48628750Y-18229411D01*
X48613286Y-18227606D01*
X48600979Y-18225692D01*
X48591032Y-18223667D01*
X48582649Y-18221527D01*
X48575033Y-18219270D01*
X48442603Y-18163887D01*
X48321107Y-18082693D01*
X48217817Y-17980127D01*
X48135934Y-17859387D01*
X48078659Y-17723667D01*
X48077152Y-17718735D01*
X48072779Y-17703278D01*
X48068878Y-17686387D01*
X48065422Y-17666371D01*
X48062384Y-17641537D01*
X48059737Y-17610193D01*
X48057455Y-17570647D01*
X48055510Y-17521206D01*
X48053876Y-17460178D01*
X48052525Y-17385870D01*
X48051431Y-17296592D01*
X48050566Y-17190649D01*
X48049904Y-17066350D01*
X48049483Y-16941196D01*
X49211462Y-16941196D01*
X49211470Y-16941269D01*
X49226429Y-16944091D01*
X49266800Y-16946148D01*
X49327906Y-16947346D01*
X49405073Y-16947593D01*
X49493626Y-16946796D01*
X49775790Y-16942688D01*
X49900471Y-16212792D01*
X49902960Y-16198220D01*
X49927683Y-16053407D01*
X49950896Y-15917312D01*
X49972087Y-15792943D01*
X49990745Y-15683308D01*
X50006357Y-15591413D01*
X50018413Y-15520266D01*
X50026402Y-15472874D01*
X50029811Y-15452245D01*
X50030750Y-15452612D01*
X50038464Y-15472610D01*
X50053139Y-15517448D01*
X50073891Y-15584105D01*
X50099839Y-15669562D01*
X50130100Y-15770798D01*
X50163792Y-15884793D01*
X50200032Y-16008526D01*
X50237937Y-16138976D01*
X50276625Y-16273124D01*
X50315215Y-16407949D01*
X50352822Y-16540430D01*
X50388565Y-16667548D01*
X50421562Y-16786281D01*
X50450929Y-16893609D01*
X50466271Y-16950238D01*
X50718529Y-16950238D01*
X50970787Y-16950238D01*
X51182177Y-16202822D01*
X51195923Y-16154276D01*
X51236212Y-16012648D01*
X51273908Y-15881093D01*
X51308218Y-15762324D01*
X51338344Y-15659057D01*
X51363493Y-15574008D01*
X51382868Y-15509892D01*
X51395675Y-15469424D01*
X51401117Y-15455320D01*
X51401602Y-15456111D01*
X51406621Y-15477021D01*
X51416021Y-15524250D01*
X51429293Y-15594983D01*
X51445929Y-15686407D01*
X51465422Y-15795708D01*
X51487265Y-15920073D01*
X51510949Y-16056686D01*
X51535967Y-16202736D01*
X51663265Y-16950238D01*
X52249406Y-16950238D01*
X52835546Y-16950238D01*
X53099901Y-16553880D01*
X53364257Y-16157522D01*
X53364257Y-16553880D01*
X53364257Y-16950238D01*
X53620975Y-16950238D01*
X53877693Y-16950238D01*
X53877693Y-16932081D01*
X54079380Y-16932081D01*
X54084418Y-16939227D01*
X54100210Y-16944213D01*
X54130647Y-16947425D01*
X54179619Y-16949243D01*
X54251013Y-16950053D01*
X54348719Y-16950238D01*
X54625466Y-16950238D01*
X54661492Y-16848306D01*
X54663681Y-16842115D01*
X54687733Y-16774288D01*
X54715734Y-16695581D01*
X54742066Y-16621790D01*
X54786613Y-16497206D01*
X55211791Y-16497280D01*
X55636968Y-16497353D01*
X55687972Y-16644515D01*
X55700392Y-16680207D01*
X55726284Y-16753858D01*
X55750245Y-16821141D01*
X55768338Y-16870958D01*
X55797699Y-16950238D01*
X56070194Y-16950238D01*
X56342690Y-16950238D01*
X56487706Y-16950238D01*
X56745660Y-16950238D01*
X57003614Y-16950238D01*
X57003699Y-16516082D01*
X57003827Y-16453684D01*
X57005002Y-16321099D01*
X57007339Y-16209219D01*
X57010757Y-16120415D01*
X57015175Y-16057059D01*
X57020514Y-16021522D01*
X57048764Y-15952190D01*
X57096545Y-15893008D01*
X57156270Y-15858686D01*
X57223804Y-15850471D01*
X57295010Y-15869611D01*
X57365755Y-15917354D01*
X57375335Y-15926147D01*
X57402173Y-15953586D01*
X57423536Y-15982591D01*
X57440041Y-16016740D01*
X57452309Y-16059613D01*
X57460958Y-16114789D01*
X57466607Y-16185846D01*
X57469876Y-16276364D01*
X57471383Y-16389922D01*
X57471748Y-16530098D01*
X57471748Y-16950238D01*
X57727660Y-16950238D01*
X57983573Y-16950238D01*
X57988154Y-16485880D01*
X57989451Y-16363497D01*
X57990936Y-16256604D01*
X57992739Y-16173035D01*
X57995104Y-16109214D01*
X57998275Y-16061563D01*
X58002496Y-16026505D01*
X58008009Y-16000463D01*
X58015059Y-15979860D01*
X58023889Y-15961118D01*
X58033846Y-15943471D01*
X58083066Y-15887396D01*
X58142705Y-15857639D01*
X58208526Y-15854609D01*
X58276294Y-15878716D01*
X58341772Y-15930370D01*
X58346538Y-15935363D01*
X58376329Y-15968780D01*
X58400023Y-16001885D01*
X58418314Y-16038490D01*
X58431892Y-16082409D01*
X58441451Y-16137456D01*
X58447680Y-16207445D01*
X58451273Y-16296189D01*
X58452922Y-16407503D01*
X58453317Y-16545199D01*
X58453317Y-16950238D01*
X58710035Y-16950238D01*
X58966754Y-16950238D01*
X59374483Y-16950238D01*
X59631201Y-16950238D01*
X59887919Y-16950238D01*
X59887919Y-16210286D01*
X59887919Y-15470333D01*
X59631201Y-15470333D01*
X59374483Y-15470333D01*
X59374483Y-16210286D01*
X59374483Y-16950238D01*
X58966754Y-16950238D01*
X58966754Y-16210286D01*
X58966754Y-15470333D01*
X58710035Y-15470333D01*
X58453317Y-15470333D01*
X58453317Y-15547596D01*
X58453317Y-15624858D01*
X58393593Y-15570901D01*
X58344240Y-15528935D01*
X58283206Y-15488304D01*
X58220585Y-15463477D01*
X58147017Y-15451066D01*
X58053139Y-15447682D01*
X58015872Y-15447870D01*
X57951820Y-15450165D01*
X57904030Y-15456347D01*
X57862961Y-15468007D01*
X57819072Y-15486739D01*
X57781252Y-15507519D01*
X57719662Y-15550184D01*
X57666928Y-15596030D01*
X57597840Y-15666264D01*
X57554026Y-15620533D01*
X57489931Y-15564654D01*
X57391546Y-15504474D01*
X57284690Y-15462337D01*
X57283331Y-15461950D01*
X57197848Y-15446038D01*
X57099256Y-15440693D01*
X56998068Y-15445431D01*
X56904795Y-15459770D01*
X56829952Y-15483227D01*
X56827227Y-15484460D01*
X56728546Y-15545805D01*
X56643622Y-15632338D01*
X56574525Y-15741446D01*
X56523326Y-15870512D01*
X56522190Y-15874446D01*
X56515628Y-15905275D01*
X56510174Y-15948084D01*
X56505675Y-16005911D01*
X56501978Y-16081792D01*
X56498928Y-16178763D01*
X56496374Y-16299863D01*
X56494161Y-16448128D01*
X56487706Y-16950238D01*
X56342690Y-16950238D01*
X56333853Y-16916261D01*
X56332923Y-16913388D01*
X56322723Y-16886377D01*
X56302280Y-16834242D01*
X56272474Y-16759174D01*
X56234187Y-16663366D01*
X56188298Y-16549011D01*
X56135689Y-16418299D01*
X56077240Y-16273425D01*
X56013832Y-16116580D01*
X55946346Y-15949956D01*
X55875663Y-15775746D01*
X55559646Y-14997549D01*
X59330183Y-14997549D01*
X59345918Y-15078825D01*
X59384415Y-15149204D01*
X59395332Y-15161879D01*
X59441558Y-15205616D01*
X59489176Y-15239794D01*
X59519989Y-15254838D01*
X59603509Y-15274442D01*
X59688821Y-15268589D01*
X59769440Y-15239245D01*
X59838879Y-15188380D01*
X59890652Y-15117962D01*
X59893073Y-15113061D01*
X59913716Y-15049308D01*
X59922760Y-14976333D01*
X60280547Y-14976333D01*
X60280547Y-15470333D01*
X60280547Y-15696849D01*
X60280547Y-16950238D01*
X60537265Y-16950238D01*
X60793983Y-16950238D01*
X60793983Y-16214240D01*
X61084079Y-16214240D01*
X61086728Y-16342576D01*
X61110759Y-16469251D01*
X61155199Y-16588524D01*
X61219077Y-16694657D01*
X61301419Y-16781908D01*
X61322722Y-16798391D01*
X61395606Y-16844744D01*
X61483514Y-16890471D01*
X61575919Y-16930396D01*
X61662295Y-16959342D01*
X61688635Y-16965385D01*
X61763460Y-16976368D01*
X61856340Y-16984403D01*
X61959277Y-16989310D01*
X62064273Y-16990907D01*
X62163331Y-16989013D01*
X62248453Y-16983449D01*
X62311641Y-16974031D01*
X62454550Y-16931977D01*
X62592293Y-16871476D01*
X62710988Y-16797179D01*
X62805672Y-16711724D01*
X62810959Y-16705752D01*
X62880426Y-16608412D01*
X62934910Y-16496375D01*
X62970544Y-16379317D01*
X62983459Y-16266915D01*
X62983638Y-16195185D01*
X62728601Y-16195185D01*
X62473563Y-16195185D01*
X62463071Y-16251111D01*
X62462821Y-16252430D01*
X62429338Y-16350196D01*
X62370933Y-16435728D01*
X62291932Y-16504161D01*
X62196663Y-16550631D01*
X62191895Y-16552172D01*
X62110063Y-16569556D01*
X62015374Y-16576928D01*
X61921475Y-16573923D01*
X61842013Y-16560172D01*
X61776593Y-16535178D01*
X61705965Y-16490669D01*
X61652463Y-16435941D01*
X61620371Y-16375613D01*
X61613975Y-16314307D01*
X61619648Y-16284514D01*
X61637727Y-16239417D01*
X61668888Y-16199542D01*
X61715927Y-16163270D01*
X61781642Y-16128979D01*
X61868831Y-16095049D01*
X61980289Y-16059859D01*
X62118816Y-16021788D01*
X62120788Y-16021272D01*
X62256432Y-15984493D01*
X62367476Y-15951297D01*
X62458950Y-15919798D01*
X62535885Y-15888112D01*
X62603314Y-15854353D01*
X62666266Y-15816636D01*
X62690176Y-15800308D01*
X62782949Y-15715692D01*
X62852267Y-15613830D01*
X62896986Y-15497495D01*
X62915956Y-15369457D01*
X62908031Y-15232491D01*
X62891708Y-15156181D01*
X62841776Y-15029914D01*
X62766413Y-14919036D01*
X62666822Y-14825148D01*
X62544211Y-14749847D01*
X62452454Y-14708945D01*
X62365262Y-14680091D01*
X62274496Y-14661820D01*
X62171439Y-14652377D01*
X62047372Y-14650013D01*
X61990847Y-14650955D01*
X61830969Y-14663213D01*
X61692601Y-14690678D01*
X61571515Y-14734766D01*
X61463479Y-14796890D01*
X61364265Y-14878465D01*
X61278251Y-14978957D01*
X61212232Y-15100394D01*
X61172775Y-15235265D01*
X61164929Y-15276196D01*
X61157782Y-15317987D01*
X61158008Y-15346799D01*
X61169406Y-15365019D01*
X61195776Y-15375035D01*
X61240919Y-15379233D01*
X61308634Y-15380001D01*
X61402722Y-15379727D01*
X61649034Y-15379727D01*
X61668771Y-15302719D01*
X61676249Y-15278642D01*
X61702112Y-15221274D01*
X61732734Y-15175340D01*
X61760380Y-15148745D01*
X61829982Y-15106679D01*
X61913001Y-15080007D01*
X62003593Y-15068315D01*
X62095912Y-15071191D01*
X62184114Y-15088221D01*
X62262356Y-15118991D01*
X62324792Y-15163089D01*
X62365579Y-15220101D01*
X62368330Y-15226482D01*
X62384927Y-15289625D01*
X62375215Y-15344111D01*
X62338019Y-15397507D01*
X62320256Y-15414478D01*
X62279526Y-15442571D01*
X62223969Y-15469131D01*
X62149817Y-15495605D01*
X62053301Y-15523444D01*
X61930654Y-15554094D01*
X61803598Y-15585643D01*
X61652010Y-15628441D01*
X61525351Y-15671762D01*
X61420610Y-15717155D01*
X61334772Y-15766172D01*
X61264825Y-15820363D01*
X61207755Y-15881280D01*
X61160550Y-15950472D01*
X61146816Y-15975544D01*
X61103784Y-16089983D01*
X61084079Y-16214240D01*
X60793983Y-16214240D01*
X60793983Y-15696849D01*
X60793983Y-14443461D01*
X60537265Y-14443461D01*
X60280547Y-14443461D01*
X60280547Y-14976333D01*
X59922760Y-14976333D01*
X59919616Y-14906239D01*
X59903692Y-14851124D01*
X59848959Y-14773623D01*
X59777682Y-14717235D01*
X59695723Y-14684625D01*
X59608192Y-14676991D01*
X59520203Y-14695536D01*
X59436867Y-14741461D01*
X59409574Y-14765842D01*
X59363007Y-14833308D01*
X59336211Y-14913127D01*
X59330183Y-14997549D01*
X55559646Y-14997549D01*
X55426310Y-14669208D01*
X55209236Y-14673368D01*
X54992163Y-14677527D01*
X54540815Y-15787456D01*
X54517642Y-15844448D01*
X54447743Y-16016440D01*
X54381325Y-16179982D01*
X54319267Y-16332905D01*
X54262448Y-16473039D01*
X54211745Y-16598217D01*
X54168037Y-16706267D01*
X54132202Y-16795020D01*
X54105119Y-16862309D01*
X54087665Y-16905962D01*
X54080720Y-16923811D01*
X54079380Y-16932081D01*
X53877693Y-16932081D01*
X53877693Y-15810107D01*
X53877693Y-14669977D01*
X53443537Y-14670091D01*
X53318364Y-14670429D01*
X53187650Y-14671908D01*
X53080293Y-14674941D01*
X52992512Y-14679937D01*
X52920526Y-14687303D01*
X52860554Y-14697446D01*
X52808815Y-14710773D01*
X52761527Y-14727693D01*
X52714911Y-14748612D01*
X52659906Y-14778483D01*
X52552705Y-14859155D01*
X52466004Y-14956729D01*
X52399784Y-15067633D01*
X52354026Y-15188297D01*
X52328711Y-15315150D01*
X52323818Y-15444622D01*
X52339327Y-15573142D01*
X52375219Y-15697139D01*
X52431475Y-15813042D01*
X52508075Y-15917281D01*
X52604998Y-16006285D01*
X52722226Y-16076483D01*
X52729087Y-16079702D01*
X52776822Y-16103341D01*
X52801776Y-16119935D01*
X52808522Y-16133638D01*
X52801636Y-16148606D01*
X52799174Y-16151933D01*
X52780017Y-16176974D01*
X52745513Y-16221595D01*
X52698145Y-16282599D01*
X52640398Y-16356792D01*
X52574754Y-16440976D01*
X52503698Y-16531956D01*
X52447991Y-16602953D01*
X52374043Y-16695934D01*
X52315911Y-16767067D01*
X52272292Y-16817849D01*
X52241884Y-16849777D01*
X52223385Y-16864346D01*
X52215491Y-16863054D01*
X52211846Y-16847265D01*
X52202799Y-16803712D01*
X52188942Y-16735070D01*
X52170745Y-16643737D01*
X52148681Y-16532109D01*
X52123223Y-16402585D01*
X52094843Y-16257563D01*
X52064013Y-16099439D01*
X52031206Y-15930612D01*
X51996893Y-15753478D01*
X51787336Y-14669977D01*
X51484744Y-14670109D01*
X51182152Y-14670242D01*
X50964560Y-15406286D01*
X50954578Y-15440036D01*
X50912151Y-15583166D01*
X50872079Y-15717839D01*
X50835244Y-15841123D01*
X50802528Y-15950088D01*
X50774813Y-16041803D01*
X50752981Y-16113337D01*
X50737914Y-16161760D01*
X50730493Y-16184141D01*
X50729495Y-16186449D01*
X50724934Y-16191591D01*
X50718945Y-16188612D01*
X50710831Y-16175423D01*
X50699893Y-16149936D01*
X50685432Y-16110063D01*
X50666751Y-16053714D01*
X50643149Y-15978802D01*
X50613930Y-15883237D01*
X50578395Y-15764930D01*
X50535844Y-15621794D01*
X50485581Y-15451739D01*
X50257143Y-14677527D01*
X49954403Y-14673443D01*
X49651663Y-14669358D01*
X49635749Y-14748948D01*
X49628625Y-14784850D01*
X49615293Y-14852660D01*
X49597915Y-14941500D01*
X49577036Y-15048554D01*
X49553201Y-15171006D01*
X49526954Y-15306042D01*
X49498841Y-15450847D01*
X49469407Y-15602604D01*
X49439196Y-15758498D01*
X49408753Y-15915714D01*
X49378624Y-16071437D01*
X49349353Y-16222851D01*
X49321485Y-16367140D01*
X49295564Y-16501490D01*
X49272137Y-16623085D01*
X49251747Y-16729110D01*
X49234940Y-16816749D01*
X49222260Y-16883186D01*
X49214253Y-16925607D01*
X49211462Y-16941196D01*
X48049483Y-16941196D01*
X48049418Y-16922003D01*
X48049080Y-16755914D01*
X48048865Y-16566393D01*
X48048744Y-16351747D01*
X48048691Y-16110283D01*
X48048680Y-15840310D01*
X48048681Y-15750502D01*
X48048703Y-15489857D01*
X48048774Y-15257180D01*
X48048922Y-15050778D01*
X48049174Y-14868957D01*
X48049556Y-14710027D01*
X48050096Y-14572295D01*
X48050820Y-14454069D01*
X48051755Y-14353656D01*
X48052929Y-14269363D01*
X48054368Y-14199500D01*
X48056099Y-14142373D01*
X48058149Y-14096290D01*
X48060545Y-14059559D01*
X48063314Y-14030488D01*
X48066483Y-14007384D01*
X48070079Y-13988555D01*
X48074129Y-13972308D01*
X48078659Y-13956952D01*
X48133944Y-13824912D01*
X48215168Y-13703700D01*
X48317892Y-13600572D01*
X48438914Y-13518723D01*
X48575033Y-13461349D01*
X48582112Y-13459243D01*
X48590426Y-13457095D01*
X48600255Y-13455061D01*
X48612395Y-13453138D01*
X48627642Y-13451324D01*
X48646795Y-13449615D01*
X48670649Y-13448009D01*
X48700002Y-13446501D01*
X48735650Y-13445089D01*
X48778391Y-13443770D01*
X48829021Y-13442540D01*
X48888337Y-13441397D01*
X48957136Y-13440337D01*
X49036215Y-13439357D01*
X49126371Y-13438454D01*
X49228401Y-13437625D01*
X49343101Y-13436866D01*
X49471268Y-13436175D01*
X49613700Y-13435549D01*
X49771194Y-13434983D01*
X49944545Y-13434476D01*
X50134551Y-13434023D01*
X50342010Y-13433623D01*
X50567717Y-13433271D01*
X50812470Y-13432964D01*
X51077065Y-13432700D01*
X51362300Y-13432475D01*
X51668971Y-13432286D01*
X51997876Y-13432130D01*
X52349811Y-13432004D01*
X52725572Y-13431904D01*
X53125958Y-13431828D01*
X53551764Y-13431773D01*
X54003788Y-13431734D01*
X54482827Y-13431710D01*
X54989677Y-13431696D01*
X55525136Y-13431690D01*
X56090000Y-13431689D01*
X56131494Y-13431689D01*
X56694187Y-13431690D01*
X57227533Y-13431696D01*
X57732328Y-13431709D01*
X58209368Y-13431733D01*
X58659452Y-13431771D01*
X59083377Y-13431826D01*
X59481938Y-13431902D01*
X59855934Y-13432001D01*
X60206161Y-13432126D01*
X60533416Y-13432282D01*
X60838497Y-13432471D01*
X61122200Y-13432695D01*
X61385323Y-13432960D01*
X61628662Y-13433266D01*
X61853015Y-13433619D01*
X62059178Y-13434020D01*
X62247949Y-13434474D01*
X62420125Y-13434983D01*
X62576502Y-13435550D01*
X62717878Y-13436179D01*
X62845050Y-13436873D01*
X62958815Y-13437635D01*
X63059969Y-13438468D01*
X63149311Y-13439375D01*
X63227636Y-13440360D01*
X63295742Y-13441426D01*
X63354427Y-13442575D01*
X63404486Y-13443812D01*
X63446717Y-13445139D01*
X63481918Y-13446559D01*
X63510885Y-13448077D01*
X63534415Y-13449693D01*
X63553305Y-13451413D01*
X63568352Y-13453239D01*
X63580354Y-13455174D01*
X63590107Y-13457222D01*
X63598409Y-13459386D01*
X63606056Y-13461668D01*
X63738096Y-13516952D01*
X63859308Y-13598177D01*
X63962437Y-13700901D01*
X64044285Y-13821923D01*
X64101659Y-13958042D01*
X64102822Y-13961839D01*
X64107184Y-13977193D01*
X64111077Y-13993999D01*
X64114528Y-14013947D01*
X64117563Y-14038728D01*
X64120208Y-14070035D01*
X64122492Y-14109558D01*
X64124439Y-14158989D01*
X64126077Y-14220018D01*
X64127433Y-14294338D01*
X64128533Y-14383638D01*
X64129025Y-14443461D01*
X64129404Y-14489611D01*
G37*
G36*
X36518969Y-26760778D02*
G01*
X36567276Y-26798388D01*
X36634997Y-26856749D01*
X36712348Y-26926780D01*
X36789543Y-26999402D01*
X36856798Y-27065537D01*
X36904326Y-27116105D01*
X36922343Y-27142027D01*
X36916463Y-27161047D01*
X36894877Y-27158477D01*
X36852281Y-27130202D01*
X36783371Y-27072686D01*
X36682843Y-26982396D01*
X36633160Y-26936507D01*
X36545879Y-26851325D01*
X36496318Y-26793979D01*
X36482289Y-26761681D01*
X36501599Y-26751642D01*
X36518969Y-26760778D01*
G37*
G36*
X36581909Y-26441087D02*
G01*
X36611486Y-26461417D01*
X36670962Y-26510115D01*
X36753442Y-26580941D01*
X36852035Y-26667655D01*
X36959846Y-26764018D01*
X37069982Y-26863790D01*
X37175552Y-26960731D01*
X37269660Y-27048601D01*
X37345415Y-27121162D01*
X37395923Y-27172172D01*
X37414290Y-27195394D01*
X37414201Y-27198592D01*
X37408344Y-27211755D01*
X37390261Y-27209492D01*
X37355659Y-27188506D01*
X37300245Y-27145504D01*
X37219726Y-27077189D01*
X37109810Y-26980267D01*
X36966204Y-26851443D01*
X36844074Y-26740842D01*
X36728591Y-26634333D01*
X36646204Y-26555179D01*
X36593569Y-26499816D01*
X36567341Y-26464682D01*
X36564174Y-26446214D01*
X36580725Y-26440849D01*
X36581909Y-26441087D01*
G37*
G36*
X36774693Y-25865477D02*
G01*
X36870227Y-25951641D01*
X37023006Y-26088923D01*
X37196059Y-26243978D01*
X37378847Y-26407374D01*
X37560829Y-26569684D01*
X37731467Y-26721476D01*
X37767963Y-26753956D01*
X37908675Y-26880479D01*
X38034679Y-26995794D01*
X38141126Y-27095319D01*
X38223165Y-27174474D01*
X38275945Y-27228677D01*
X38294617Y-27253347D01*
X38294768Y-27256007D01*
X38299427Y-27298053D01*
X38310051Y-27384460D01*
X38325901Y-27509474D01*
X38346235Y-27667343D01*
X38370315Y-27852313D01*
X38397400Y-28058630D01*
X38426749Y-28280541D01*
X38460943Y-28540631D01*
X38489918Y-28768441D01*
X38513015Y-28961690D01*
X38531007Y-29128880D01*
X38538011Y-29205596D01*
X38544668Y-29278515D01*
X38554771Y-29419095D01*
X38562090Y-29559124D01*
X38567398Y-29707102D01*
X38571468Y-29871532D01*
X38581935Y-30366746D01*
X38584055Y-30467047D01*
X38088000Y-30900737D01*
X37973247Y-31000363D01*
X37846705Y-31108481D01*
X37736689Y-31200586D01*
X37648757Y-31272095D01*
X37588467Y-31318424D01*
X37561375Y-31334992D01*
X37543966Y-31331929D01*
X37480222Y-31317840D01*
X37375218Y-31293450D01*
X37234187Y-31260010D01*
X37062365Y-31218773D01*
X36864986Y-31170989D01*
X36647285Y-31117911D01*
X36414496Y-31060790D01*
X35298188Y-30786022D01*
X35132832Y-30626534D01*
X35123881Y-30617970D01*
X35084270Y-30581057D01*
X35530140Y-30581057D01*
X35537511Y-30589311D01*
X35557132Y-30599175D01*
X35593226Y-30611862D01*
X35650015Y-30628581D01*
X35731721Y-30650546D01*
X35842566Y-30678966D01*
X35986772Y-30715054D01*
X36168560Y-30760020D01*
X36392155Y-30815077D01*
X36661776Y-30881435D01*
X36755233Y-30904370D01*
X36944476Y-30950295D01*
X37115592Y-30991141D01*
X37262157Y-31025415D01*
X37377748Y-31051626D01*
X37455943Y-31068282D01*
X37490318Y-31073891D01*
X37494258Y-31072864D01*
X37533052Y-31048563D01*
X37602297Y-30995875D01*
X37695561Y-30920002D01*
X37806413Y-30826146D01*
X37928421Y-30719510D01*
X38326038Y-30366746D01*
X38316306Y-29920140D01*
X38313194Y-29800194D01*
X38308457Y-29667812D01*
X38303153Y-29561122D01*
X38297731Y-29488817D01*
X38292636Y-29459595D01*
X38292049Y-29459260D01*
X38259008Y-29454967D01*
X38180567Y-29449139D01*
X38062492Y-29442084D01*
X37910554Y-29434104D01*
X37730519Y-29425504D01*
X37528157Y-29416589D01*
X37309236Y-29407664D01*
X36339775Y-29369672D01*
X36212767Y-29455785D01*
X36125937Y-29514657D01*
X36067229Y-29554963D01*
X35982498Y-29615094D01*
X35919964Y-29661975D01*
X35890099Y-29687912D01*
X35875854Y-29716743D01*
X35845956Y-29785873D01*
X35804127Y-29886407D01*
X35753847Y-30009740D01*
X35698596Y-30147266D01*
X35641855Y-30290380D01*
X35587104Y-30430476D01*
X35537823Y-30558949D01*
X35535262Y-30564534D01*
X35530798Y-30573201D01*
X35530140Y-30581057D01*
X35084270Y-30581057D01*
X35059970Y-30558412D01*
X34963738Y-30470337D01*
X34840495Y-30358536D01*
X34695551Y-30227804D01*
X34534217Y-30082931D01*
X34361803Y-29928711D01*
X34183620Y-29769936D01*
X34120851Y-29713976D01*
X33953800Y-29563668D01*
X33800521Y-29423781D01*
X33665207Y-29298270D01*
X33552051Y-29191089D01*
X33465245Y-29106192D01*
X33408984Y-29047534D01*
X33387459Y-29019069D01*
X33386967Y-29016675D01*
X33380058Y-28972489D01*
X33367481Y-28883789D01*
X33350038Y-28756542D01*
X33328535Y-28596715D01*
X33303774Y-28410275D01*
X33276560Y-28203188D01*
X33247695Y-27981420D01*
X33236160Y-27891958D01*
X33200643Y-27609082D01*
X33171977Y-27365995D01*
X33149329Y-27153844D01*
X33142680Y-27081484D01*
X33394025Y-27081484D01*
X33408560Y-27168965D01*
X33412131Y-27192783D01*
X33422572Y-27268131D01*
X33438110Y-27383750D01*
X33457847Y-27532848D01*
X33480886Y-27708633D01*
X33506330Y-27904314D01*
X33533282Y-28113099D01*
X33643468Y-28969753D01*
X33790110Y-29096993D01*
X33822295Y-29125137D01*
X33899312Y-29193061D01*
X34005328Y-29286969D01*
X34134565Y-29401727D01*
X34281240Y-29532199D01*
X34439574Y-29673251D01*
X34603784Y-29819748D01*
X34732202Y-29934230D01*
X34879671Y-30065255D01*
X35011305Y-30181728D01*
X35122556Y-30279649D01*
X35208879Y-30355018D01*
X35265724Y-30403834D01*
X35288546Y-30422099D01*
X35302886Y-30401463D01*
X35332223Y-30339725D01*
X35373348Y-30244287D01*
X35423070Y-30122555D01*
X35478197Y-29981936D01*
X35518135Y-29879361D01*
X35562708Y-29765578D01*
X35595551Y-29675747D01*
X35617335Y-29600450D01*
X35628731Y-29530269D01*
X35630407Y-29455785D01*
X35623036Y-29367582D01*
X35607288Y-29256242D01*
X35583833Y-29112346D01*
X35553341Y-28926476D01*
X35525787Y-28755084D01*
X35478520Y-28460289D01*
X35437719Y-28204587D01*
X35402130Y-27980079D01*
X35370496Y-27778863D01*
X35341564Y-27593041D01*
X35338407Y-27572737D01*
X35318016Y-27445045D01*
X35299585Y-27335138D01*
X35285030Y-27254157D01*
X35276267Y-27213243D01*
X35275349Y-27210627D01*
X35261191Y-27193676D01*
X35230182Y-27179579D01*
X35177332Y-27167841D01*
X35097652Y-27157966D01*
X34986151Y-27149455D01*
X34837839Y-27141814D01*
X34647727Y-27134546D01*
X34410825Y-27127155D01*
X34292754Y-27123502D01*
X34111406Y-27117181D01*
X34104762Y-27116921D01*
X35532778Y-27116921D01*
X35534394Y-27161661D01*
X35538384Y-27183412D01*
X35551245Y-27258329D01*
X35568272Y-27361223D01*
X35586870Y-27476527D01*
X35602194Y-27572725D01*
X35626693Y-27726374D01*
X35653061Y-27891632D01*
X35677734Y-28046150D01*
X35693736Y-28146566D01*
X35719683Y-28309949D01*
X35749180Y-28496169D01*
X35779697Y-28689242D01*
X35808703Y-28873186D01*
X35812467Y-28897054D01*
X35836760Y-29049301D01*
X35858348Y-29181627D01*
X35875922Y-29286217D01*
X35888172Y-29355261D01*
X35893790Y-29380946D01*
X35916471Y-29374718D01*
X35964646Y-29342355D01*
X36024509Y-29293913D01*
X36083197Y-29240511D01*
X36127844Y-29193270D01*
X36145585Y-29163309D01*
X36145180Y-29156688D01*
X36138775Y-29104863D01*
X36125539Y-29012731D01*
X36106711Y-28888513D01*
X36083527Y-28740426D01*
X36057227Y-28576691D01*
X36033786Y-28432285D01*
X35990206Y-28162562D01*
X35949430Y-27908602D01*
X35912391Y-27676293D01*
X35880022Y-27471525D01*
X35853257Y-27300187D01*
X35833029Y-27168168D01*
X35820272Y-27081357D01*
X35813555Y-27041181D01*
X35796976Y-26975967D01*
X35780328Y-26944030D01*
X35760792Y-26945411D01*
X35708138Y-26968979D01*
X35639360Y-27011389D01*
X35608328Y-27033230D01*
X35554335Y-27078531D01*
X35532778Y-27116921D01*
X34104762Y-27116921D01*
X33935745Y-27110307D01*
X33781131Y-27103494D01*
X33662924Y-27097354D01*
X33394025Y-27081484D01*
X33142680Y-27081484D01*
X33131865Y-26963776D01*
X33118749Y-26786937D01*
X33109149Y-26614476D01*
X33102230Y-26437538D01*
X33100375Y-26375317D01*
X33096959Y-26213468D01*
X33095945Y-26070819D01*
X33097270Y-25955503D01*
X33098175Y-25935459D01*
X33343169Y-25935459D01*
X33361841Y-26375871D01*
X33366981Y-26490216D01*
X33373741Y-26622413D01*
X33380148Y-26729230D01*
X33385664Y-26801878D01*
X33389749Y-26831569D01*
X33398525Y-26834187D01*
X33450706Y-26839793D01*
X33543260Y-26846015D01*
X33668776Y-26852449D01*
X33819844Y-26858688D01*
X33989054Y-26864329D01*
X34010449Y-26864964D01*
X34214435Y-26871138D01*
X34429018Y-26877818D01*
X34638608Y-26884506D01*
X34827614Y-26890707D01*
X34980447Y-26895922D01*
X35381773Y-26910041D01*
X35588477Y-26758385D01*
X35611074Y-26741806D01*
X36025600Y-26741806D01*
X36215152Y-27929178D01*
X36250475Y-28149838D01*
X36286972Y-28376512D01*
X36320346Y-28582410D01*
X36349765Y-28762470D01*
X36374397Y-28911631D01*
X36393411Y-29024832D01*
X36405976Y-29097011D01*
X36411260Y-29123106D01*
X36412611Y-29123488D01*
X36448602Y-29126444D01*
X36528479Y-29130897D01*
X36645677Y-29136541D01*
X36793632Y-29143073D01*
X36965779Y-29150188D01*
X37155553Y-29157583D01*
X37159464Y-29157731D01*
X37304961Y-29163309D01*
X37361302Y-29165469D01*
X37556291Y-29173120D01*
X37735451Y-29180320D01*
X37889802Y-29186702D01*
X38010364Y-29191900D01*
X38088158Y-29195550D01*
X38283024Y-29205596D01*
X38158584Y-28256913D01*
X38133935Y-28070146D01*
X38104640Y-27852977D01*
X38080108Y-27678905D01*
X38059495Y-27543105D01*
X38041957Y-27440755D01*
X38026647Y-27367031D01*
X38012723Y-27317112D01*
X37999340Y-27286173D01*
X37985652Y-27269392D01*
X37981944Y-27266322D01*
X37943813Y-27233258D01*
X37872614Y-27170600D01*
X37772824Y-27082319D01*
X37648921Y-26972388D01*
X37505382Y-26844776D01*
X37346684Y-26703456D01*
X37177305Y-26552399D01*
X37131114Y-26511197D01*
X36965837Y-26364150D01*
X36813461Y-26229156D01*
X36678263Y-26109966D01*
X36564521Y-26010331D01*
X36476511Y-25934001D01*
X36418513Y-25884728D01*
X36394802Y-25866263D01*
X36379303Y-25885481D01*
X36348500Y-25945820D01*
X36305932Y-26039964D01*
X36254942Y-26160507D01*
X36198877Y-26300043D01*
X36025600Y-26741806D01*
X35611074Y-26741806D01*
X35795182Y-26606729D01*
X35971059Y-26157662D01*
X35971533Y-26156451D01*
X36026328Y-26014733D01*
X36073059Y-25890435D01*
X36108951Y-25791227D01*
X36131227Y-25724781D01*
X36137111Y-25698770D01*
X36123397Y-25694144D01*
X36065081Y-25678128D01*
X35966532Y-25652398D01*
X35833674Y-25618464D01*
X35672430Y-25577834D01*
X35488723Y-25532019D01*
X35288474Y-25482527D01*
X35165624Y-25452257D01*
X34963519Y-25402292D01*
X34775926Y-25355714D01*
X34610002Y-25314311D01*
X34472904Y-25279871D01*
X34371789Y-25254182D01*
X34313813Y-25239031D01*
X34177963Y-25201953D01*
X33760566Y-25568706D01*
X33343169Y-25935459D01*
X33098175Y-25935459D01*
X33100875Y-25875656D01*
X33106698Y-25839413D01*
X33126043Y-25815955D01*
X33180582Y-25761640D01*
X33262100Y-25685909D01*
X33364048Y-25594366D01*
X33479875Y-25492611D01*
X33603031Y-25386248D01*
X33726966Y-25280878D01*
X33845130Y-25182104D01*
X33950972Y-25095528D01*
X34037943Y-25026752D01*
X34099491Y-24981378D01*
X34129068Y-24965008D01*
X34146422Y-24967694D01*
X34210932Y-24981338D01*
X34316771Y-25005392D01*
X34458577Y-25038585D01*
X34630984Y-25079645D01*
X34828629Y-25127302D01*
X35046148Y-25180284D01*
X35278176Y-25237319D01*
X36381070Y-25509630D01*
X36590289Y-25698770D01*
X36774693Y-25865477D01*
G37*
G36*
X45357758Y-28963537D02*
G01*
X45540575Y-29047941D01*
X45709096Y-29177324D01*
X45733868Y-29201459D01*
X45867776Y-29366114D01*
X45961838Y-29552467D01*
X46017334Y-29763761D01*
X46035548Y-30003241D01*
X46016780Y-30241349D01*
X45958530Y-30463572D01*
X45861537Y-30659877D01*
X45726560Y-30828239D01*
X45674950Y-30877719D01*
X45575652Y-30955781D01*
X45469931Y-31010356D01*
X45337105Y-31053401D01*
X45297237Y-31063157D01*
X45090602Y-31085576D01*
X44879771Y-31065211D01*
X44674839Y-31003843D01*
X44485904Y-30903253D01*
X44479751Y-30898726D01*
X44468278Y-30882115D01*
X44470820Y-30855847D01*
X44490507Y-30812402D01*
X44530469Y-30744256D01*
X44593838Y-30643888D01*
X44674132Y-30518368D01*
X44775660Y-30589931D01*
X44776960Y-30590844D01*
X44908313Y-30657484D01*
X45042082Y-30680151D01*
X45170707Y-30661216D01*
X45286628Y-30603048D01*
X45382285Y-30508018D01*
X45450119Y-30378496D01*
X45472106Y-30304784D01*
X45499920Y-30134254D01*
X45503530Y-29953940D01*
X45483988Y-29777140D01*
X45442345Y-29617150D01*
X45379652Y-29487267D01*
X45341243Y-29439411D01*
X45242789Y-29367318D01*
X45125502Y-29328300D01*
X45000976Y-29323606D01*
X44880803Y-29354489D01*
X44776576Y-29422198D01*
X44724283Y-29471180D01*
X44645156Y-29358927D01*
X44613839Y-29314033D01*
X44561670Y-29237502D01*
X44522629Y-29178138D01*
X44479230Y-29109602D01*
X44600653Y-29048072D01*
X44750572Y-28983350D01*
X44960053Y-28930926D01*
X45163350Y-28924427D01*
X45357758Y-28963537D01*
G37*
G36*
X44433296Y-30703291D02*
G01*
X44381824Y-30830190D01*
X44309754Y-30929213D01*
X44215246Y-31003929D01*
X44088636Y-31057143D01*
X44035595Y-31071138D01*
X43884484Y-31084082D01*
X43741737Y-31058694D01*
X43619309Y-30996517D01*
X43584935Y-30971791D01*
X43546274Y-30951161D01*
X43529962Y-30962488D01*
X43526611Y-31006815D01*
X43526611Y-31066552D01*
X43273161Y-31066552D01*
X43248998Y-31066538D01*
X43144837Y-31065644D01*
X43079428Y-31062381D01*
X43045149Y-31055385D01*
X43034379Y-31043291D01*
X43039499Y-31024736D01*
X43043045Y-31009535D01*
X43049490Y-30949878D01*
X43056084Y-30853967D01*
X43062427Y-30729070D01*
X43068118Y-30582457D01*
X43072757Y-30421397D01*
X43074083Y-30367864D01*
X43574401Y-30367864D01*
X43574767Y-30496182D01*
X43577054Y-30573271D01*
X43588511Y-30634511D01*
X43615015Y-30673622D01*
X43662435Y-30704555D01*
X43737814Y-30730505D01*
X43827462Y-30730378D01*
X43905177Y-30700266D01*
X43959910Y-30644880D01*
X43980610Y-30568930D01*
X43972800Y-30517411D01*
X43926319Y-30448134D01*
X43840313Y-30401091D01*
X43717441Y-30378210D01*
X43574401Y-30367864D01*
X43074083Y-30367864D01*
X43074475Y-30352019D01*
X43080033Y-30168986D01*
X43087032Y-30025228D01*
X43096753Y-29914330D01*
X43110474Y-29829876D01*
X43129475Y-29765449D01*
X43155037Y-29714633D01*
X43188438Y-29671011D01*
X43230959Y-29628168D01*
X43255235Y-29606701D01*
X43366196Y-29537444D01*
X43500909Y-29497395D01*
X43668372Y-29483580D01*
X43697696Y-29483901D01*
X43798444Y-29490756D01*
X43912078Y-29504731D01*
X44026494Y-29523657D01*
X44129584Y-29545364D01*
X44209243Y-29567682D01*
X44253365Y-29588441D01*
X44256599Y-29615602D01*
X44241675Y-29676666D01*
X44210075Y-29760600D01*
X44144922Y-29913897D01*
X44026668Y-29868964D01*
X44003162Y-29860654D01*
X43897846Y-29835288D01*
X43791940Y-29825317D01*
X43700508Y-29831326D01*
X43638617Y-29853899D01*
X43637952Y-29854398D01*
X43603176Y-29898387D01*
X43575981Y-29961425D01*
X43553842Y-30039083D01*
X43665674Y-30039263D01*
X43814122Y-30046782D01*
X44001336Y-30079663D01*
X44163060Y-30136423D01*
X44292845Y-30214617D01*
X44384243Y-30311799D01*
X44385384Y-30313536D01*
X44435146Y-30429985D01*
X44451093Y-30564896D01*
X44450574Y-30568930D01*
X44433296Y-30703291D01*
G37*
G36*
X42888384Y-30395210D02*
G01*
X42871684Y-30554287D01*
X42837456Y-30685012D01*
X42786784Y-30785673D01*
X42696274Y-30903042D01*
X42587671Y-30997110D01*
X42472850Y-31055799D01*
X42432938Y-31066702D01*
X42286627Y-31079856D01*
X42136888Y-31058548D01*
X42004010Y-31004978D01*
X41901776Y-30945064D01*
X41901776Y-31005808D01*
X41901776Y-31066552D01*
X41654865Y-31066552D01*
X41579329Y-31065945D01*
X41487897Y-31063309D01*
X41422950Y-31059064D01*
X41395138Y-31053736D01*
X41393206Y-31049329D01*
X41396822Y-31011454D01*
X41414001Y-30952184D01*
X41415343Y-30948179D01*
X41423349Y-30911035D01*
X41429966Y-30852551D01*
X41435305Y-30768949D01*
X41439477Y-30656452D01*
X41442594Y-30511282D01*
X41444768Y-30329661D01*
X41445147Y-30266886D01*
X41925671Y-30266886D01*
X41925703Y-30329635D01*
X41926438Y-30446597D01*
X41929077Y-30527288D01*
X41934831Y-30579787D01*
X41944910Y-30612175D01*
X41960523Y-30632532D01*
X41982880Y-30648937D01*
X41995465Y-30656596D01*
X42082536Y-30689047D01*
X42175707Y-30697959D01*
X42252842Y-30680724D01*
X42294944Y-30644977D01*
X42337775Y-30565673D01*
X42366074Y-30459537D01*
X42379499Y-30337291D01*
X42377708Y-30209660D01*
X42360362Y-30087367D01*
X42327118Y-29981135D01*
X42277635Y-29901688D01*
X42230698Y-29869299D01*
X42147081Y-29848514D01*
X42056568Y-29853426D01*
X41978777Y-29885122D01*
X41972794Y-29889412D01*
X41953708Y-29906975D01*
X41940615Y-29931897D01*
X41932390Y-29972263D01*
X41927907Y-30036159D01*
X41926042Y-30131672D01*
X41925671Y-30266886D01*
X41445147Y-30266886D01*
X41446109Y-30107810D01*
X41446729Y-29841952D01*
X41447778Y-28820456D01*
X41725492Y-28820456D01*
X41783238Y-28820535D01*
X41882399Y-28821680D01*
X41943770Y-28825075D01*
X41974277Y-28831836D01*
X41980848Y-28843080D01*
X41970412Y-28859923D01*
X41964972Y-28871220D01*
X41954058Y-28922559D01*
X41944309Y-29003197D01*
X41936112Y-29103522D01*
X41929857Y-29213921D01*
X41925931Y-29324782D01*
X41924723Y-29426493D01*
X41926622Y-29509443D01*
X41932016Y-29564019D01*
X41941292Y-29580608D01*
X42068759Y-29526859D01*
X42243256Y-29486122D01*
X42402385Y-29489082D01*
X42543732Y-29534824D01*
X42664883Y-29622435D01*
X42763425Y-29751002D01*
X42836943Y-29919609D01*
X42869243Y-30056408D01*
X42887567Y-30223882D01*
X42888108Y-30337291D01*
X42888384Y-30395210D01*
G37*
G36*
X49063456Y-31114998D02*
G01*
X49060667Y-31195680D01*
X49056886Y-31254639D01*
X49052023Y-31295578D01*
X49045985Y-31322201D01*
X49038681Y-31338212D01*
X49030020Y-31347314D01*
X49027994Y-31348341D01*
X48989022Y-31354351D01*
X48908353Y-31359733D01*
X48791229Y-31364475D01*
X48642894Y-31368570D01*
X48468591Y-31372006D01*
X48273563Y-31374775D01*
X48063052Y-31376867D01*
X47842303Y-31378272D01*
X47616557Y-31378981D01*
X47391059Y-31378984D01*
X47171051Y-31378272D01*
X46961776Y-31376835D01*
X46768477Y-31374663D01*
X46596398Y-31371746D01*
X46450781Y-31368076D01*
X46336869Y-31363643D01*
X46259906Y-31358436D01*
X46225135Y-31352447D01*
X46219026Y-31348777D01*
X46210071Y-31339962D01*
X46202558Y-31324540D01*
X46196360Y-31298767D01*
X46191351Y-31258899D01*
X46187404Y-31201192D01*
X46184394Y-31121903D01*
X46182622Y-31037656D01*
X46380634Y-31037656D01*
X46385136Y-31050843D01*
X46409124Y-31059282D01*
X46459674Y-31064017D01*
X46543859Y-31066092D01*
X46668756Y-31066552D01*
X47083217Y-31066552D01*
X47443484Y-31066552D01*
X47803752Y-31066552D01*
X47803752Y-31005245D01*
X47805410Y-30973456D01*
X47813252Y-30938751D01*
X47831016Y-30897579D01*
X47862435Y-30843571D01*
X47911239Y-30770361D01*
X47981160Y-30671583D01*
X48075930Y-30540870D01*
X48293592Y-30242187D01*
X48301419Y-30337766D01*
X48302185Y-30348325D01*
X48304597Y-30430228D01*
X48303770Y-30536520D01*
X48300257Y-30655173D01*
X48294611Y-30774157D01*
X48287385Y-30881440D01*
X48279131Y-30964994D01*
X48270402Y-31012789D01*
X48252176Y-31066552D01*
X48568150Y-31066552D01*
X48677827Y-31066268D01*
X48771093Y-31064628D01*
X48829346Y-31060641D01*
X48859547Y-31053319D01*
X48868660Y-31041680D01*
X48863646Y-31024736D01*
X48861805Y-31017824D01*
X48857169Y-30968586D01*
X48853212Y-30880030D01*
X48849935Y-30758379D01*
X48847338Y-30609854D01*
X48845421Y-30440676D01*
X48844184Y-30257067D01*
X48843627Y-30065249D01*
X48843750Y-29871442D01*
X48844552Y-29681870D01*
X48846035Y-29502752D01*
X48848197Y-29340311D01*
X48851039Y-29200768D01*
X48854562Y-29090345D01*
X48858764Y-29015264D01*
X48863646Y-28981745D01*
X48868631Y-28966241D01*
X48861171Y-28954236D01*
X48833489Y-28946552D01*
X48778696Y-28942240D01*
X48689900Y-28940349D01*
X48560208Y-28939929D01*
X48236294Y-28939929D01*
X48271623Y-29024485D01*
X48287869Y-29079690D01*
X48297671Y-29157009D01*
X48301595Y-29264820D01*
X48300272Y-29411661D01*
X48293592Y-29714280D01*
X48075792Y-29440604D01*
X48056382Y-29416151D01*
X47949057Y-29277552D01*
X47870657Y-29168903D01*
X47818269Y-29085633D01*
X47788974Y-29023175D01*
X47779857Y-28976958D01*
X47778688Y-28969425D01*
X47765780Y-28956751D01*
X47732955Y-28948235D01*
X47673249Y-28943107D01*
X47579696Y-28940595D01*
X47445332Y-28939929D01*
X47401915Y-28940037D01*
X47287379Y-28941449D01*
X47194983Y-28944243D01*
X47133276Y-28948093D01*
X47110807Y-28952673D01*
X47114423Y-28960139D01*
X47142220Y-28994424D01*
X47188465Y-29043362D01*
X47197959Y-29053287D01*
X47244537Y-29105778D01*
X47313393Y-29186617D01*
X47398860Y-29289031D01*
X47495269Y-29406247D01*
X47596953Y-29531492D01*
X47927783Y-29941678D01*
X47610673Y-30378668D01*
X47577734Y-30423958D01*
X47479176Y-30558338D01*
X47385120Y-30685024D01*
X47301408Y-30796235D01*
X47233884Y-30884189D01*
X47188390Y-30941105D01*
X47103835Y-31041959D01*
X47083217Y-31066552D01*
X46668756Y-31066552D01*
X46762520Y-31066342D01*
X46857585Y-31064834D01*
X46916999Y-31060963D01*
X46947835Y-31053686D01*
X46957169Y-31041959D01*
X46952075Y-31024736D01*
X46947072Y-31002650D01*
X46940770Y-30935990D01*
X46935419Y-30834609D01*
X46931062Y-30706007D01*
X46927742Y-30557682D01*
X46925502Y-30397133D01*
X46924385Y-30231859D01*
X46924434Y-30069360D01*
X46925693Y-29917133D01*
X46928204Y-29782679D01*
X46932010Y-29673496D01*
X46937154Y-29597083D01*
X46943679Y-29560939D01*
X46950976Y-29545724D01*
X46951194Y-29530352D01*
X46932995Y-29520835D01*
X46889037Y-29515771D01*
X46811976Y-29513760D01*
X46694470Y-29513401D01*
X46419819Y-29513401D01*
X46412867Y-30248161D01*
X46412048Y-30323603D01*
X46409230Y-30502963D01*
X46405472Y-30665607D01*
X46400994Y-30805321D01*
X46396017Y-30915891D01*
X46390758Y-30991101D01*
X46385438Y-31024736D01*
X46380634Y-31037656D01*
X46182622Y-31037656D01*
X46182194Y-31017288D01*
X46180677Y-30883603D01*
X46179717Y-30717104D01*
X46179188Y-30514047D01*
X46178963Y-30270688D01*
X46178916Y-29983284D01*
X46178928Y-29913800D01*
X46179301Y-29616997D01*
X46180242Y-29364628D01*
X46181809Y-29153931D01*
X46184060Y-28982144D01*
X46187052Y-28846505D01*
X46190844Y-28744251D01*
X46195492Y-28672621D01*
X46201055Y-28628852D01*
X46207590Y-28610183D01*
X46208250Y-28609543D01*
X46251799Y-28589722D01*
X46315116Y-28581510D01*
X46358164Y-28583857D01*
X46387409Y-28600397D01*
X46393968Y-28642433D01*
X46400778Y-28699463D01*
X46443964Y-28791952D01*
X46518092Y-28862721D01*
X46612801Y-28903357D01*
X46717730Y-28905442D01*
X46736979Y-28900911D01*
X46827877Y-28853010D01*
X46897819Y-28772925D01*
X46934975Y-28673299D01*
X46949731Y-28581017D01*
X48003976Y-28587237D01*
X49058220Y-28593457D01*
X49064455Y-29955451D01*
X49064510Y-29967329D01*
X49065743Y-30256122D01*
X49066535Y-30500971D01*
X49066794Y-30705580D01*
X49066428Y-30873651D01*
X49065346Y-31008890D01*
X49064762Y-31041680D01*
X49063456Y-31114998D01*
G37*
G36*
X57216184Y-29399653D02*
G01*
X57216184Y-30616471D01*
X56736283Y-30615734D01*
X56256382Y-30614997D01*
X56102828Y-30244853D01*
X55949274Y-29874710D01*
X56267962Y-29873968D01*
X56586649Y-29873227D01*
X56586649Y-29028030D01*
X56586649Y-28182834D01*
X56901417Y-28182834D01*
X57216184Y-28182834D01*
X57216184Y-29399653D01*
G37*
G36*
X62424062Y-27567142D02*
G01*
X62654626Y-27971531D01*
X62297620Y-27972272D01*
X61940614Y-27973012D01*
X61940614Y-29294733D01*
X61940614Y-30616454D01*
X61641876Y-30616454D01*
X61343138Y-30616454D01*
X61343138Y-29294721D01*
X61343138Y-27972989D01*
X58648669Y-27972989D01*
X55954199Y-27972989D01*
X55954199Y-27567871D01*
X55954199Y-27162754D01*
X59073848Y-27162754D01*
X62193498Y-27162754D01*
X62424062Y-27567142D01*
G37*
G36*
X58734647Y-29399644D02*
G01*
X58734647Y-30616454D01*
X58068680Y-30616454D01*
X57402713Y-30616454D01*
X57402713Y-30241939D01*
X57402713Y-29867424D01*
X57850091Y-29867424D01*
X58297470Y-29867424D01*
X58297470Y-29784360D01*
X58297470Y-29701296D01*
X57847177Y-29701296D01*
X57396884Y-29701296D01*
X57396884Y-29374871D01*
X57396884Y-29048445D01*
X57850091Y-29048445D01*
X58303299Y-29048445D01*
X58303299Y-28955180D01*
X58303299Y-28861916D01*
X57853006Y-28861916D01*
X57402713Y-28861916D01*
X57402713Y-28522375D01*
X57402713Y-28182834D01*
X58068680Y-28182834D01*
X58734647Y-28182834D01*
X58734647Y-29399644D01*
G37*
G36*
X63948714Y-31005543D02*
G01*
X63948714Y-31237248D01*
X60250022Y-31236518D01*
X56551330Y-31235788D01*
X56448037Y-31007808D01*
X56436249Y-30981771D01*
X56421218Y-30948511D01*
X56407028Y-30917048D01*
X56393855Y-30887772D01*
X56381872Y-30861072D01*
X56371254Y-30837340D01*
X56362176Y-30816965D01*
X56354811Y-30800336D01*
X56349335Y-30787845D01*
X56345921Y-30779880D01*
X56344744Y-30776832D01*
X56346980Y-30776681D01*
X56354236Y-30776526D01*
X56366541Y-30776375D01*
X56383918Y-30776229D01*
X56406387Y-30776087D01*
X56433972Y-30775950D01*
X56466692Y-30775818D01*
X56504571Y-30775689D01*
X56547629Y-30775566D01*
X56595888Y-30775446D01*
X56649370Y-30775331D01*
X56708096Y-30775221D01*
X56772089Y-30775115D01*
X56841369Y-30775013D01*
X56915959Y-30774916D01*
X56995880Y-30774823D01*
X57081154Y-30774734D01*
X57171802Y-30774649D01*
X57267847Y-30774569D01*
X57369309Y-30774493D01*
X57476210Y-30774422D01*
X57588572Y-30774354D01*
X57706417Y-30774291D01*
X57829766Y-30774232D01*
X57958641Y-30774177D01*
X58093064Y-30774127D01*
X58233056Y-30774080D01*
X58378639Y-30774038D01*
X58529834Y-30774000D01*
X58686664Y-30773965D01*
X58849149Y-30773935D01*
X59017312Y-30773909D01*
X59191174Y-30773887D01*
X59370757Y-30773870D01*
X59556083Y-30773856D01*
X59747172Y-30773846D01*
X59944047Y-30773840D01*
X60146729Y-30773838D01*
X63948714Y-30773838D01*
X63948714Y-31005543D01*
G37*
G36*
X62425152Y-28182868D02*
G01*
X62714417Y-28182903D01*
X63315432Y-29394578D01*
X63316177Y-29396079D01*
X63355505Y-29475370D01*
X63394183Y-29553355D01*
X63432130Y-29629871D01*
X63469264Y-29704755D01*
X63505506Y-29777844D01*
X63540774Y-29848975D01*
X63574987Y-29917984D01*
X63608065Y-29984709D01*
X63639927Y-30048985D01*
X63670491Y-30110651D01*
X63699677Y-30169542D01*
X63727405Y-30225497D01*
X63753593Y-30278350D01*
X63778160Y-30327940D01*
X63801026Y-30374104D01*
X63822110Y-30416677D01*
X63841330Y-30455497D01*
X63858607Y-30490400D01*
X63873859Y-30521225D01*
X63887005Y-30547806D01*
X63897965Y-30569982D01*
X63906658Y-30587588D01*
X63913002Y-30600463D01*
X63916918Y-30608442D01*
X63918323Y-30611363D01*
X63918394Y-30611920D01*
X63917954Y-30612537D01*
X63916691Y-30613094D01*
X63914341Y-30613594D01*
X63910641Y-30614039D01*
X63905327Y-30614432D01*
X63898136Y-30614775D01*
X63888805Y-30615070D01*
X63877069Y-30615321D01*
X63862667Y-30615530D01*
X63845333Y-30615698D01*
X63824805Y-30615829D01*
X63800819Y-30615926D01*
X63773112Y-30615989D01*
X63741420Y-30616023D01*
X63705479Y-30616029D01*
X63665027Y-30616011D01*
X63619800Y-30615969D01*
X63569535Y-30615908D01*
X63513967Y-30615829D01*
X63452834Y-30615734D01*
X62985467Y-30614997D01*
X62984717Y-30433568D01*
X62983966Y-30252140D01*
X63070209Y-30252140D01*
X63074414Y-30252137D01*
X63096836Y-30252024D01*
X63116517Y-30251757D01*
X63132840Y-30251357D01*
X63145186Y-30250841D01*
X63152939Y-30250229D01*
X63155481Y-30249540D01*
X63154989Y-30248661D01*
X63151845Y-30243358D01*
X63145963Y-30233552D01*
X63137533Y-30219557D01*
X63126743Y-30201685D01*
X63113783Y-30180248D01*
X63098841Y-30155560D01*
X63082108Y-30127931D01*
X63063771Y-30097675D01*
X63044021Y-30065105D01*
X63023047Y-30030533D01*
X63001037Y-29994272D01*
X62978181Y-29956633D01*
X62801853Y-29666326D01*
X62801115Y-30141390D01*
X62800378Y-30616454D01*
X62468132Y-30616454D01*
X62135886Y-30616454D01*
X62135886Y-29399644D01*
X62135886Y-28182834D01*
X62425152Y-28182868D01*
G37*
G36*
X61130378Y-29399597D02*
G01*
X61130378Y-30616454D01*
X60830183Y-30616454D01*
X60529988Y-30616454D01*
X60529988Y-29545370D01*
X60529988Y-28474285D01*
X60423608Y-28474285D01*
X60317229Y-28474285D01*
X60317229Y-29545383D01*
X60317229Y-30616482D01*
X60019219Y-30615739D01*
X59721210Y-30614997D01*
X59720478Y-29556299D01*
X59719745Y-28497601D01*
X59654056Y-28497601D01*
X59646420Y-28497605D01*
X59626572Y-28497679D01*
X59611441Y-28497896D01*
X59600189Y-28498318D01*
X59591976Y-28499008D01*
X59585965Y-28500027D01*
X59581316Y-28501438D01*
X59577192Y-28503303D01*
X59566858Y-28510077D01*
X59553766Y-28524314D01*
X59542837Y-28543879D01*
X59541810Y-28546114D01*
X59540464Y-28548855D01*
X59539202Y-28551359D01*
X59538022Y-28553810D01*
X59536921Y-28556391D01*
X59535896Y-28559286D01*
X59534944Y-28562679D01*
X59534063Y-28566754D01*
X59533248Y-28571694D01*
X59532499Y-28577684D01*
X59531811Y-28584908D01*
X59531183Y-28593548D01*
X59530610Y-28603790D01*
X59530091Y-28615816D01*
X59529623Y-28629811D01*
X59529202Y-28645958D01*
X59528826Y-28664441D01*
X59528492Y-28685445D01*
X59528197Y-28709152D01*
X59527939Y-28735748D01*
X59527715Y-28765415D01*
X59527521Y-28798337D01*
X59527355Y-28834698D01*
X59527214Y-28874683D01*
X59527096Y-28918475D01*
X59526997Y-28966257D01*
X59526915Y-29018214D01*
X59526846Y-29074529D01*
X59526789Y-29135386D01*
X59526740Y-29200970D01*
X59526696Y-29271463D01*
X59526655Y-29347050D01*
X59526613Y-29427915D01*
X59526568Y-29514241D01*
X59526518Y-29606212D01*
X59525938Y-30614997D01*
X59218456Y-30614997D01*
X58910975Y-30614997D01*
X58910975Y-29657579D01*
X58910975Y-29654927D01*
X58910976Y-29566318D01*
X58910980Y-29483340D01*
X58910987Y-29405800D01*
X58910999Y-29333507D01*
X58911016Y-29266268D01*
X58911040Y-29203891D01*
X58911073Y-29146183D01*
X58911114Y-29092952D01*
X58911164Y-29044005D01*
X58911226Y-28999151D01*
X58911300Y-28958196D01*
X58911387Y-28920949D01*
X58911488Y-28887217D01*
X58911604Y-28856808D01*
X58911736Y-28829529D01*
X58911886Y-28805188D01*
X58912054Y-28783593D01*
X58912241Y-28764551D01*
X58912448Y-28747870D01*
X58912677Y-28733358D01*
X58912928Y-28720822D01*
X58913203Y-28710069D01*
X58913503Y-28700909D01*
X58913828Y-28693147D01*
X58914179Y-28686592D01*
X58914559Y-28681052D01*
X58914967Y-28676333D01*
X58915405Y-28672244D01*
X58915873Y-28668593D01*
X58916374Y-28665186D01*
X58919159Y-28648339D01*
X58932017Y-28589195D01*
X58949094Y-28533296D01*
X58970253Y-28480835D01*
X58995360Y-28432007D01*
X59024280Y-28387009D01*
X59056876Y-28346033D01*
X59093013Y-28309276D01*
X59132557Y-28276933D01*
X59175371Y-28249197D01*
X59221320Y-28226265D01*
X59232288Y-28221733D01*
X59265739Y-28209824D01*
X59302144Y-28199315D01*
X59339409Y-28190834D01*
X59371468Y-28184545D01*
X60250923Y-28183643D01*
X61130378Y-28182741D01*
X61130378Y-29399597D01*
G37*
%TO.C,J3*%
X29465000Y-24800000D02*
X26785000Y-24800000D01*
X29465000Y-24080000D02*
X29465000Y-24800000D01*
X29465000Y-20380000D02*
X29465000Y-22680000D01*
X29465000Y-14530000D02*
X29465000Y-18980000D01*
X27985000Y-13160000D02*
X27125000Y-13160000D01*
X24485000Y-24800000D02*
X20815000Y-24800000D01*
X18515000Y-24800000D02*
X17285000Y-24800000D01*
X17285000Y-24800000D02*
X17285000Y-14980000D01*
%TD*%
M02*
