%TF.GenerationSoftware,KiCad,Pcbnew,7.0.5-0*%
%TF.CreationDate,2023-07-21T17:37:06+08:00*%
%TF.ProjectId,slimarm_carambola,736c696d-6172-46d5-9f63-6172616d626f,rev?*%
%TF.SameCoordinates,Original*%
%TF.FileFunction,Paste,Bot*%
%TF.FilePolarity,Positive*%
%FSLAX46Y46*%
G04 Gerber Fmt 4.6, Leading zero omitted, Abs format (unit mm)*
G04 Created by KiCad (PCBNEW 7.0.5-0) date 2023-07-21 17:37:06*
%MOMM*%
%LPD*%
G01*
G04 APERTURE LIST*
%ADD10R,0.280000X1.200000*%
%ADD11R,0.850000X1.100000*%
%ADD12R,0.750000X1.100000*%
%ADD13R,1.200000X1.000000*%
%ADD14R,1.550000X1.350000*%
%ADD15R,1.900000X1.350000*%
%ADD16R,1.170000X1.800000*%
G04 APERTURE END LIST*
D10*
%TO.C,J2*%
X35810000Y-37100000D03*
X33810000Y-37100000D03*
X37310000Y-41100000D03*
X36310000Y-41100000D03*
X34310000Y-37100000D03*
X31310000Y-41100000D03*
X30810000Y-41100000D03*
X36810000Y-41100000D03*
X32810000Y-41100000D03*
X36310000Y-37100000D03*
X33310000Y-37100000D03*
X35810000Y-41100000D03*
X31810000Y-37100000D03*
X33310000Y-41100000D03*
X34810000Y-37100000D03*
X32310000Y-37100000D03*
X37810000Y-37100000D03*
X32310000Y-41100000D03*
X30810000Y-37100000D03*
X31310000Y-37100000D03*
X33810000Y-41100000D03*
X37310000Y-37100000D03*
X36810000Y-37100000D03*
X31810000Y-41100000D03*
X37810000Y-41100000D03*
X35310000Y-37100000D03*
X35310000Y-41100000D03*
X34810000Y-41100000D03*
X34310000Y-41100000D03*
X32810000Y-37100000D03*
%TD*%
D11*
%TO.C,J3*%
X26500000Y-13530000D03*
X25400000Y-13530000D03*
X24300000Y-13530000D03*
X23200000Y-13530000D03*
X22100000Y-13530000D03*
X21000000Y-13530000D03*
X19900000Y-13530000D03*
D12*
X18850000Y-13530000D03*
D13*
X29135000Y-19680000D03*
X29135000Y-23380000D03*
D14*
X28960000Y-13655000D03*
D15*
X25635000Y-24355000D03*
X19665000Y-24355000D03*
D16*
X17640000Y-13880000D03*
%TD*%
M02*
