G04 #@! TF.GenerationSoftware,KiCad,Pcbnew,(6.0.11-0)*
G04 #@! TF.CreationDate,2023-02-20T21:42:13+08:00*
G04 #@! TF.ProjectId,slimarm_classical,736c696d-6172-46d5-9f63-6c6173736963,rev?*
G04 #@! TF.SameCoordinates,Original*
G04 #@! TF.FileFunction,Soldermask,Top*
G04 #@! TF.FilePolarity,Negative*
%FSLAX46Y46*%
G04 Gerber Fmt 4.6, Leading zero omitted, Abs format (unit mm)*
G04 Created by KiCad (PCBNEW (6.0.11-0)) date 2023-02-20 21:42:13*
%MOMM*%
%LPD*%
G01*
G04 APERTURE LIST*
G04 Aperture macros list*
%AMRoundRect*
0 Rectangle with rounded corners*
0 $1 Rounding radius*
0 $2 $3 $4 $5 $6 $7 $8 $9 X,Y pos of 4 corners*
0 Add a 4 corners polygon primitive as box body*
4,1,4,$2,$3,$4,$5,$6,$7,$8,$9,$2,$3,0*
0 Add four circle primitives for the rounded corners*
1,1,$1+$1,$2,$3*
1,1,$1+$1,$4,$5*
1,1,$1+$1,$6,$7*
1,1,$1+$1,$8,$9*
0 Add four rect primitives between the rounded corners*
20,1,$1+$1,$2,$3,$4,$5,0*
20,1,$1+$1,$4,$5,$6,$7,0*
20,1,$1+$1,$6,$7,$8,$9,0*
20,1,$1+$1,$8,$9,$2,$3,0*%
G04 Aperture macros list end*
%ADD10C,0.410000*%
%ADD11RoundRect,0.155000X0.212500X0.155000X-0.212500X0.155000X-0.212500X-0.155000X0.212500X-0.155000X0*%
%ADD12RoundRect,0.155000X-0.212500X-0.155000X0.212500X-0.155000X0.212500X0.155000X-0.212500X0.155000X0*%
%ADD13RoundRect,0.150000X-0.739000X-0.150000X0.739000X-0.150000X0.739000X0.150000X-0.739000X0.150000X0*%
%ADD14RoundRect,0.237500X-0.250000X-0.237500X0.250000X-0.237500X0.250000X0.237500X-0.250000X0.237500X0*%
%ADD15RoundRect,0.155000X-0.155000X0.212500X-0.155000X-0.212500X0.155000X-0.212500X0.155000X0.212500X0*%
%ADD16C,0.650000*%
%ADD17R,1.450000X0.600000*%
%ADD18R,2.000000X0.300000*%
%ADD19R,2.000000X0.600000*%
%ADD20O,2.100000X1.000000*%
%ADD21O,1.600000X1.000000*%
%ADD22R,2.400000X2.000000*%
%ADD23RoundRect,0.155000X0.155000X-0.212500X0.155000X0.212500X-0.155000X0.212500X-0.155000X-0.212500X0*%
%ADD24RoundRect,0.237500X-0.287500X-0.237500X0.287500X-0.237500X0.287500X0.237500X-0.287500X0.237500X0*%
%ADD25RoundRect,0.075000X-0.662500X-0.075000X0.662500X-0.075000X0.662500X0.075000X-0.662500X0.075000X0*%
%ADD26RoundRect,0.075000X-0.075000X-0.662500X0.075000X-0.662500X0.075000X0.662500X-0.075000X0.662500X0*%
%ADD27RoundRect,0.237500X-0.237500X0.250000X-0.237500X-0.250000X0.237500X-0.250000X0.237500X0.250000X0*%
%ADD28RoundRect,0.237500X0.237500X-0.250000X0.237500X0.250000X-0.237500X0.250000X-0.237500X-0.250000X0*%
%ADD29RoundRect,0.237500X0.250000X0.237500X-0.250000X0.237500X-0.250000X-0.237500X0.250000X-0.237500X0*%
%ADD30RoundRect,0.425000X-1.075000X-0.425000X1.075000X-0.425000X1.075000X0.425000X-1.075000X0.425000X0*%
%ADD31R,1.693800X0.508000*%
%ADD32R,2.000000X2.400000*%
%ADD33RoundRect,0.150000X-0.587500X-0.150000X0.587500X-0.150000X0.587500X0.150000X-0.587500X0.150000X0*%
G04 APERTURE END LIST*
D10*
G04 #@! TO.C,IC1*
X43230000Y-23597400D03*
X43230000Y-24397400D03*
X43230000Y-25197400D03*
X43230000Y-25997400D03*
X43230000Y-26797400D03*
X43230000Y-27597400D03*
X43230000Y-28397400D03*
X43230000Y-29197400D03*
X43230000Y-29997400D03*
X43230000Y-30797400D03*
X43230000Y-31597400D03*
X43230000Y-32397400D03*
X43230000Y-33197400D03*
X43230000Y-33997400D03*
X43230000Y-34797400D03*
X43230000Y-35597400D03*
X43230000Y-36397400D03*
X42430000Y-23597400D03*
X42430000Y-24397400D03*
X42430000Y-25197400D03*
X42430000Y-25997400D03*
X42430000Y-26797400D03*
X42430000Y-27597400D03*
X42430000Y-28397400D03*
X42430000Y-29197400D03*
X42430000Y-29997400D03*
X42430000Y-30797400D03*
X42430000Y-31597400D03*
X42430000Y-32397400D03*
X42430000Y-33197400D03*
X42430000Y-33997400D03*
X42430000Y-34797400D03*
X42430000Y-35597400D03*
X42430000Y-36397400D03*
X41630000Y-23597400D03*
X41630000Y-24397400D03*
X41630000Y-25197400D03*
X41630000Y-25997400D03*
X41630000Y-26797400D03*
X41630000Y-27597400D03*
X41630000Y-28397400D03*
X41630000Y-29197400D03*
X41630000Y-29997400D03*
X41630000Y-30797400D03*
X41630000Y-31597400D03*
X41630000Y-32397400D03*
X41630000Y-33197400D03*
X41630000Y-33997400D03*
X41630000Y-34797400D03*
X41630000Y-35597400D03*
X41630000Y-36397400D03*
X40830000Y-23597400D03*
X40830000Y-24397400D03*
X40830000Y-25197400D03*
X40830000Y-25997400D03*
X40830000Y-26797400D03*
X40830000Y-27597400D03*
X40830000Y-28397400D03*
X40830000Y-29197400D03*
X40830000Y-29997400D03*
X40830000Y-30797400D03*
X40830000Y-31597400D03*
X40830000Y-32397400D03*
X40830000Y-33197400D03*
X40830000Y-33997400D03*
X40830000Y-34797400D03*
X40830000Y-35597400D03*
X40830000Y-36397400D03*
X40030000Y-23597400D03*
X40030000Y-24397400D03*
X40030000Y-25197400D03*
X40030000Y-25997400D03*
X40030000Y-26797400D03*
X40030000Y-27597400D03*
X40030000Y-28397400D03*
X40030000Y-29197400D03*
X40030000Y-29997400D03*
X40030000Y-30797400D03*
X40030000Y-31597400D03*
X40030000Y-32397400D03*
X40030000Y-33197400D03*
X40030000Y-33997400D03*
X40030000Y-34797400D03*
X40030000Y-35597400D03*
X40030000Y-36397400D03*
X39230000Y-23597400D03*
X39230000Y-24397400D03*
X39230000Y-25197400D03*
X39230000Y-25997400D03*
X39230000Y-26797400D03*
X39230000Y-27597400D03*
X39230000Y-28397400D03*
X39230000Y-29197400D03*
X39230000Y-29997400D03*
X39230000Y-30797400D03*
X39230000Y-31597400D03*
X39230000Y-32397400D03*
X39230000Y-33197400D03*
X39230000Y-33997400D03*
X39230000Y-34797400D03*
X39230000Y-35597400D03*
X39230000Y-36397400D03*
X38430000Y-23597400D03*
X38430000Y-24397400D03*
X38430000Y-25197400D03*
X38430000Y-25997400D03*
X38430000Y-26797400D03*
X38430000Y-27597400D03*
X38430000Y-28397400D03*
X38430000Y-29997400D03*
X38430000Y-31597400D03*
X38430000Y-32397400D03*
X38430000Y-33197400D03*
X38430000Y-33997400D03*
X38430000Y-34797400D03*
X38430000Y-35597400D03*
X38430000Y-36397400D03*
X37630000Y-23597400D03*
X37630000Y-24397400D03*
X37630000Y-25197400D03*
X37630000Y-25997400D03*
X37630000Y-26797400D03*
X37630000Y-27597400D03*
X37630000Y-32397400D03*
X37630000Y-33197400D03*
X37630000Y-33997400D03*
X37630000Y-34797400D03*
X37630000Y-35597400D03*
X37630000Y-36397400D03*
X36830000Y-23597400D03*
X36830000Y-24397400D03*
X36830000Y-25197400D03*
X36830000Y-25997400D03*
X36830000Y-26797400D03*
X36830000Y-27597400D03*
X36830000Y-28397400D03*
X36830000Y-31597400D03*
X36830000Y-32397400D03*
X36830000Y-33197400D03*
X36830000Y-33997400D03*
X36830000Y-34797400D03*
X36830000Y-35597400D03*
X36830000Y-36397400D03*
X36030000Y-23597400D03*
X36030000Y-24397400D03*
X36030000Y-25197400D03*
X36030000Y-25997400D03*
X36030000Y-26797400D03*
X36030000Y-27597400D03*
X36030000Y-32397400D03*
X36030000Y-33197400D03*
X36030000Y-33997400D03*
X36030000Y-34797400D03*
X36030000Y-35597400D03*
X36030000Y-36397400D03*
X35230000Y-23597400D03*
X35230000Y-24397400D03*
X35230000Y-25197400D03*
X35230000Y-25997400D03*
X35230000Y-26797400D03*
X35230000Y-27597400D03*
X35230000Y-28397400D03*
X35230000Y-29997400D03*
X35230000Y-31597400D03*
X35230000Y-32397400D03*
X35230000Y-33197400D03*
X35230000Y-33997400D03*
X35230000Y-34797400D03*
X35230000Y-35597400D03*
X35230000Y-36397400D03*
X34430000Y-23597400D03*
X34430000Y-24397400D03*
X34430000Y-25197400D03*
X34430000Y-25997400D03*
X34430000Y-26797400D03*
X34430000Y-27597400D03*
X34430000Y-28397400D03*
X34430000Y-29197400D03*
X34430000Y-29997400D03*
X34430000Y-30797400D03*
X34430000Y-31597400D03*
X34430000Y-32397400D03*
X34430000Y-33197400D03*
X34430000Y-33997400D03*
X34430000Y-34797400D03*
X34430000Y-35597400D03*
X34430000Y-36397400D03*
X33630000Y-23597400D03*
X33630000Y-24397400D03*
X33630000Y-25197400D03*
X33630000Y-25997400D03*
X33630000Y-26797400D03*
X33630000Y-27597400D03*
X33630000Y-28397400D03*
X33630000Y-29197400D03*
X33630000Y-29997400D03*
X33630000Y-30797400D03*
X33630000Y-31597400D03*
X33630000Y-32397400D03*
X33630000Y-33197400D03*
X33630000Y-33997400D03*
X33630000Y-34797400D03*
X33630000Y-35597400D03*
X33630000Y-36397400D03*
X32830000Y-23597400D03*
X32830000Y-24397400D03*
X32830000Y-25197400D03*
X32830000Y-25997400D03*
X32830000Y-26797400D03*
X32830000Y-27597400D03*
X32830000Y-28397400D03*
X32830000Y-29197400D03*
X32830000Y-29997400D03*
X32830000Y-30797400D03*
X32830000Y-31597400D03*
X32830000Y-32397400D03*
X32830000Y-33197400D03*
X32830000Y-33997400D03*
X32830000Y-34797400D03*
X32830000Y-35597400D03*
X32830000Y-36397400D03*
X32030000Y-23597400D03*
X32030000Y-24397400D03*
X32030000Y-25197400D03*
X32030000Y-25997400D03*
X32030000Y-26797400D03*
X32030000Y-27597400D03*
X32030000Y-28397400D03*
X32030000Y-29197400D03*
X32030000Y-29997400D03*
X32030000Y-30797400D03*
X32030000Y-31597400D03*
X32030000Y-32397400D03*
X32030000Y-33197400D03*
X32030000Y-33997400D03*
X32030000Y-34797400D03*
X32030000Y-35597400D03*
X32030000Y-36397400D03*
X31230000Y-23597400D03*
X31230000Y-24397400D03*
X31230000Y-25197400D03*
X31230000Y-25997400D03*
X31230000Y-26797400D03*
X31230000Y-27597400D03*
X31230000Y-28397400D03*
X31230000Y-29197400D03*
X31230000Y-29997400D03*
X31230000Y-30797400D03*
X31230000Y-31597400D03*
X31230000Y-32397400D03*
X31230000Y-33197400D03*
X31230000Y-33997400D03*
X31230000Y-34797400D03*
X31230000Y-35597400D03*
X31230000Y-36397400D03*
X30430000Y-23597400D03*
X30430000Y-24397400D03*
X30430000Y-25197400D03*
X30430000Y-25997400D03*
X30430000Y-26797400D03*
X30430000Y-27597400D03*
X30430000Y-28397400D03*
X30430000Y-29197400D03*
X30430000Y-29997400D03*
X30430000Y-30797400D03*
X30430000Y-31597400D03*
X30430000Y-32397400D03*
X30430000Y-33197400D03*
X30430000Y-33997400D03*
X30430000Y-34797400D03*
X30430000Y-35597400D03*
X30430000Y-36397400D03*
G04 #@! TD*
D11*
G04 #@! TO.C,C11*
X25992900Y-6273800D03*
X24857900Y-6273800D03*
G04 #@! TD*
D12*
G04 #@! TO.C,C51*
X32731900Y-15697200D03*
X33866900Y-15697200D03*
G04 #@! TD*
D13*
G04 #@! TO.C,U3*
X42013900Y-19268400D03*
X42013900Y-21168400D03*
X43888900Y-20218400D03*
G04 #@! TD*
D14*
G04 #@! TO.C,R22*
X36044500Y-14351000D03*
X37869500Y-14351000D03*
G04 #@! TD*
D12*
G04 #@! TO.C,C45*
X32029400Y-19151600D03*
X33164400Y-19151600D03*
G04 #@! TD*
D15*
G04 #@! TO.C,C49*
X20574000Y-12310300D03*
X20574000Y-13445300D03*
G04 #@! TD*
G04 #@! TO.C,C21*
X29298900Y-20276375D03*
X29298900Y-21411375D03*
G04 #@! TD*
G04 #@! TO.C,C40*
X33248600Y-20260500D03*
X33248600Y-21395500D03*
G04 #@! TD*
G04 #@! TO.C,C35*
X28016200Y-20311300D03*
X28016200Y-21446300D03*
G04 #@! TD*
D12*
G04 #@! TO.C,C43*
X27126500Y-31191200D03*
X28261500Y-31191200D03*
G04 #@! TD*
D16*
G04 #@! TO.C,J4*
X42205600Y-6990600D03*
X42205600Y-12770600D03*
D17*
X40760600Y-13130600D03*
X40760600Y-12330600D03*
D18*
X40760600Y-11130600D03*
X40760600Y-10130600D03*
X40760600Y-9630600D03*
X40760600Y-8630600D03*
D17*
X40760600Y-7430600D03*
D19*
X40760600Y-6630600D03*
X40760600Y-6630600D03*
X40760600Y-7430600D03*
D18*
X40760600Y-8130600D03*
X40760600Y-9130600D03*
X40760600Y-10630600D03*
X40760600Y-11630600D03*
D19*
X40760600Y-12330600D03*
X40760600Y-13130600D03*
D20*
X41675600Y-14200600D03*
D21*
X45855600Y-14200600D03*
D20*
X41675600Y-5560600D03*
D21*
X45855600Y-5560600D03*
G04 #@! TD*
D22*
G04 #@! TO.C,Y2*
X23063200Y-8132200D03*
X23063200Y-11832200D03*
G04 #@! TD*
D23*
G04 #@! TO.C,C17*
X25476200Y-12581700D03*
X25476200Y-11446700D03*
G04 #@! TD*
D16*
G04 #@! TO.C,J1*
X21142000Y-27082000D03*
X21142000Y-32862000D03*
D19*
X22942000Y-26722000D03*
X22942000Y-27522000D03*
D18*
X22942000Y-28722000D03*
X22942000Y-29722000D03*
X22942000Y-30222000D03*
X22942000Y-31222000D03*
D19*
X22942000Y-32422000D03*
X22942000Y-33222000D03*
X22942000Y-33222000D03*
D17*
X22942000Y-32422000D03*
D18*
X22942000Y-31722000D03*
X22942000Y-30722000D03*
X22942000Y-29222000D03*
X22942000Y-28222000D03*
D17*
X22942000Y-27522000D03*
X23042000Y-26722000D03*
D21*
X17492000Y-34292000D03*
D20*
X21672000Y-25652000D03*
X21672000Y-34292000D03*
D21*
X17492000Y-25652000D03*
G04 #@! TD*
D24*
G04 #@! TO.C,D2*
X17514600Y-20091400D03*
X19264600Y-20091400D03*
G04 #@! TD*
D11*
G04 #@! TO.C,C18*
X30488700Y-19177000D03*
X29353700Y-19177000D03*
G04 #@! TD*
D15*
G04 #@! TO.C,C28*
X46482000Y-19439000D03*
X46482000Y-20574000D03*
G04 #@! TD*
D23*
G04 #@! TO.C,C26*
X64846200Y-24392700D03*
X64846200Y-23257700D03*
G04 #@! TD*
D15*
G04 #@! TO.C,C30*
X45440600Y-19447700D03*
X45440600Y-20582700D03*
G04 #@! TD*
D23*
G04 #@! TO.C,C8*
X40208200Y-21370100D03*
X40208200Y-20235100D03*
G04 #@! TD*
D25*
G04 #@! TO.C,U1*
X27003300Y-7206800D03*
X27003300Y-7706800D03*
X27003300Y-8206800D03*
X27003300Y-8706800D03*
X27003300Y-9206800D03*
X27003300Y-9706800D03*
X27003300Y-10206800D03*
X27003300Y-10706800D03*
X27003300Y-11206800D03*
X27003300Y-11706800D03*
X27003300Y-12206800D03*
X27003300Y-12706800D03*
D26*
X28415800Y-14119300D03*
X28915800Y-14119300D03*
X29415800Y-14119300D03*
X29915800Y-14119300D03*
X30415800Y-14119300D03*
X30915800Y-14119300D03*
X31415800Y-14119300D03*
X31915800Y-14119300D03*
X32415800Y-14119300D03*
X32915800Y-14119300D03*
X33415800Y-14119300D03*
X33915800Y-14119300D03*
D25*
X35328300Y-12706800D03*
X35328300Y-12206800D03*
X35328300Y-11706800D03*
X35328300Y-11206800D03*
X35328300Y-10706800D03*
X35328300Y-10206800D03*
X35328300Y-9706800D03*
X35328300Y-9206800D03*
X35328300Y-8706800D03*
X35328300Y-8206800D03*
X35328300Y-7706800D03*
X35328300Y-7206800D03*
D26*
X33915800Y-5794300D03*
X33415800Y-5794300D03*
X32915800Y-5794300D03*
X32415800Y-5794300D03*
X31915800Y-5794300D03*
X31415800Y-5794300D03*
X30915800Y-5794300D03*
X30415800Y-5794300D03*
X29915800Y-5794300D03*
X29415800Y-5794300D03*
X28915800Y-5794300D03*
X28415800Y-5794300D03*
G04 #@! TD*
D23*
G04 #@! TO.C,C25*
X64795400Y-40115300D03*
X64795400Y-38980300D03*
G04 #@! TD*
D27*
G04 #@! TO.C,R3*
X31013400Y-38813100D03*
X31013400Y-40638100D03*
G04 #@! TD*
D28*
G04 #@! TO.C,R19*
X37871400Y-12748900D03*
X37871400Y-10923900D03*
G04 #@! TD*
D12*
G04 #@! TO.C,C48*
X32681100Y-4191000D03*
X33816100Y-4191000D03*
G04 #@! TD*
D23*
G04 #@! TO.C,C15*
X64820800Y-21378800D03*
X64820800Y-20243800D03*
G04 #@! TD*
D12*
G04 #@! TO.C,C41*
X27118500Y-22428200D03*
X28253500Y-22428200D03*
G04 #@! TD*
D11*
G04 #@! TO.C,C24*
X26780300Y-20269200D03*
X25645300Y-20269200D03*
G04 #@! TD*
D27*
G04 #@! TO.C,R14*
X19227800Y-21744300D03*
X19227800Y-23569300D03*
G04 #@! TD*
D23*
G04 #@! TO.C,C12*
X29286200Y-39708900D03*
X29286200Y-38573900D03*
G04 #@! TD*
D28*
G04 #@! TO.C,R9*
X19024600Y-38045400D03*
X19024600Y-36220400D03*
G04 #@! TD*
D11*
G04 #@! TO.C,C7*
X25865900Y-25019000D03*
X24730900Y-25019000D03*
G04 #@! TD*
D12*
G04 #@! TO.C,C38*
X27109800Y-28651200D03*
X28244800Y-28651200D03*
G04 #@! TD*
D24*
G04 #@! TO.C,D3*
X20994400Y-20066000D03*
X22744400Y-20066000D03*
G04 #@! TD*
D15*
G04 #@! TO.C,C22*
X47650400Y-19439000D03*
X47650400Y-20574000D03*
G04 #@! TD*
D13*
G04 #@! TO.C,U2*
X36476700Y-19217600D03*
X36476700Y-21117600D03*
X38351700Y-20167600D03*
G04 #@! TD*
D15*
G04 #@! TO.C,C39*
X34620200Y-20260500D03*
X34620200Y-21395500D03*
G04 #@! TD*
D28*
G04 #@! TO.C,R8*
X17373600Y-38047300D03*
X17373600Y-36222300D03*
G04 #@! TD*
D29*
G04 #@! TO.C,R23*
X26896700Y-5054600D03*
X25071700Y-5054600D03*
G04 #@! TD*
D28*
G04 #@! TO.C,R13*
X32994600Y-40612700D03*
X32994600Y-38787700D03*
G04 #@! TD*
D23*
G04 #@! TO.C,C3*
X27965400Y-40801100D03*
X27965400Y-39666100D03*
G04 #@! TD*
D30*
G04 #@! TO.C,J3*
X18186400Y-4754800D03*
X18186400Y-7294800D03*
X18186400Y-9834800D03*
X18186400Y-12374800D03*
X18186400Y-14914800D03*
G04 #@! TD*
D28*
G04 #@! TO.C,R11*
X25628600Y-29030300D03*
X25628600Y-27205300D03*
G04 #@! TD*
D15*
G04 #@! TO.C,C32*
X40868600Y-39615300D03*
X40868600Y-40750300D03*
G04 #@! TD*
D31*
G04 #@! TO.C,U4*
X51587400Y-19596100D03*
X51587400Y-20396200D03*
X51587400Y-21196300D03*
X51587400Y-21996400D03*
X51587400Y-22796500D03*
X51587400Y-23596600D03*
X51587400Y-24396700D03*
X51587400Y-25196800D03*
X51587400Y-25996900D03*
X51587400Y-26797000D03*
X51587400Y-27597100D03*
X51587400Y-28397200D03*
X51587400Y-29197300D03*
X51587400Y-29997400D03*
X51587400Y-30797500D03*
X51587400Y-31597600D03*
X51587400Y-32397700D03*
X51587400Y-33197800D03*
X51587400Y-33997900D03*
X51587400Y-34798000D03*
X51587400Y-35598100D03*
X51587400Y-36398200D03*
X51587400Y-37198300D03*
X51587400Y-37998400D03*
X51587400Y-38798500D03*
X51587400Y-39598600D03*
X51587400Y-40398700D03*
X63068200Y-40398700D03*
X63068200Y-39598600D03*
X63068200Y-38798500D03*
X63068200Y-37998400D03*
X63068200Y-37198300D03*
X63068200Y-36398200D03*
X63068200Y-35598100D03*
X63068200Y-34798000D03*
X63068200Y-33997900D03*
X63068200Y-33197800D03*
X63068200Y-32397700D03*
X63068200Y-31597600D03*
X63068200Y-30797500D03*
X63068200Y-29997400D03*
X63068200Y-29197300D03*
X63068200Y-28397200D03*
X63068200Y-27597100D03*
X63068200Y-26797000D03*
X63068200Y-25996900D03*
X63068200Y-25196800D03*
X63068200Y-24396700D03*
X63068200Y-23596600D03*
X63068200Y-22796500D03*
X63068200Y-21996400D03*
X63068200Y-21196300D03*
X63068200Y-20396200D03*
X63068200Y-19596100D03*
G04 #@! TD*
D12*
G04 #@! TO.C,C37*
X27135200Y-26212800D03*
X28270200Y-26212800D03*
G04 #@! TD*
G04 #@! TO.C,C50*
X28515500Y-15697200D03*
X29650500Y-15697200D03*
G04 #@! TD*
D15*
G04 #@! TO.C,C29*
X64846200Y-26373200D03*
X64846200Y-27508200D03*
G04 #@! TD*
D12*
G04 #@! TO.C,C42*
X27117800Y-33502600D03*
X28252800Y-33502600D03*
G04 #@! TD*
D15*
G04 #@! TO.C,C10*
X41935400Y-39624000D03*
X41935400Y-40759000D03*
G04 #@! TD*
G04 #@! TO.C,C16*
X25476200Y-7331900D03*
X25476200Y-8466900D03*
G04 #@! TD*
G04 #@! TO.C,C46*
X30607000Y-20260500D03*
X30607000Y-21395500D03*
G04 #@! TD*
D14*
G04 #@! TO.C,R18*
X19051900Y-40106600D03*
X20876900Y-40106600D03*
G04 #@! TD*
D27*
G04 #@! TO.C,R15*
X17424400Y-21744300D03*
X17424400Y-23569300D03*
G04 #@! TD*
D15*
G04 #@! TO.C,C31*
X64795400Y-32816800D03*
X64795400Y-33951800D03*
G04 #@! TD*
D23*
G04 #@! TO.C,C19*
X45440600Y-22843300D03*
X45440600Y-21708300D03*
G04 #@! TD*
D28*
G04 #@! TO.C,R12*
X20675600Y-38021900D03*
X20675600Y-36196900D03*
G04 #@! TD*
D15*
G04 #@! TO.C,C2*
X34899600Y-38599300D03*
X34899600Y-39734300D03*
G04 #@! TD*
D12*
G04 #@! TO.C,C13*
X43069700Y-40284400D03*
X44204700Y-40284400D03*
G04 #@! TD*
D14*
G04 #@! TO.C,R2*
X37797100Y-40538400D03*
X39622100Y-40538400D03*
G04 #@! TD*
D12*
G04 #@! TO.C,C9*
X27135200Y-32359600D03*
X28270200Y-32359600D03*
G04 #@! TD*
G04 #@! TO.C,C33*
X27118500Y-25028525D03*
X28253500Y-25028525D03*
G04 #@! TD*
D23*
G04 #@! TO.C,C14*
X17653000Y-40597900D03*
X17653000Y-39462900D03*
G04 #@! TD*
D27*
G04 #@! TO.C,R24*
X37820600Y-6605900D03*
X37820600Y-8430900D03*
G04 #@! TD*
G04 #@! TO.C,R10*
X25603200Y-30759400D03*
X25603200Y-32584400D03*
G04 #@! TD*
D15*
G04 #@! TO.C,C47*
X31902400Y-20260500D03*
X31902400Y-21395500D03*
G04 #@! TD*
G04 #@! TO.C,C23*
X48793400Y-19422300D03*
X48793400Y-20557300D03*
G04 #@! TD*
G04 #@! TO.C,C1*
X36499800Y-38599300D03*
X36499800Y-39734300D03*
G04 #@! TD*
D32*
G04 #@! TO.C,Y1*
X23774400Y-37211000D03*
X27474400Y-37211000D03*
G04 #@! TD*
D23*
G04 #@! TO.C,C27*
X26720800Y-40826500D03*
X26720800Y-39691500D03*
G04 #@! TD*
D11*
G04 #@! TO.C,C5*
X25992900Y-3835400D03*
X24857900Y-3835400D03*
G04 #@! TD*
D14*
G04 #@! TO.C,R1*
X23217500Y-40132000D03*
X25042500Y-40132000D03*
G04 #@! TD*
D11*
G04 #@! TO.C,C6*
X28228100Y-34772600D03*
X27093100Y-34772600D03*
G04 #@! TD*
D28*
G04 #@! TO.C,R5*
X24231600Y-23518500D03*
X24231600Y-21693500D03*
G04 #@! TD*
D12*
G04 #@! TO.C,C34*
X27135200Y-27432000D03*
X28270200Y-27432000D03*
G04 #@! TD*
G04 #@! TO.C,C52*
X28540900Y-4140200D03*
X29675900Y-4140200D03*
G04 #@! TD*
D28*
G04 #@! TO.C,R17*
X22656800Y-23518500D03*
X22656800Y-21693500D03*
G04 #@! TD*
G04 #@! TO.C,R6*
X25806400Y-23518500D03*
X25806400Y-21693500D03*
G04 #@! TD*
D15*
G04 #@! TO.C,C20*
X64770000Y-35830700D03*
X64770000Y-36965700D03*
G04 #@! TD*
D12*
G04 #@! TO.C,C36*
X35043300Y-40817800D03*
X36178300Y-40817800D03*
G04 #@! TD*
D15*
G04 #@! TO.C,C4*
X64846200Y-29370400D03*
X64846200Y-30505400D03*
G04 #@! TD*
D12*
G04 #@! TO.C,C44*
X27080400Y-23758525D03*
X28215400Y-23758525D03*
G04 #@! TD*
D28*
G04 #@! TO.C,R16*
X20929600Y-23493100D03*
X20929600Y-21668100D03*
G04 #@! TD*
D33*
G04 #@! TO.C,U6*
X21439900Y-4155400D03*
X21439900Y-6055400D03*
X23314900Y-5105400D03*
G04 #@! TD*
D14*
G04 #@! TO.C,R20*
X36222300Y-4648200D03*
X38047300Y-4648200D03*
G04 #@! TD*
M02*
