G04 #@! TF.GenerationSoftware,KiCad,Pcbnew,(6.0.11-0)*
G04 #@! TF.CreationDate,2023-02-20T21:42:13+08:00*
G04 #@! TF.ProjectId,slimarm_classical,736c696d-6172-46d5-9f63-6c6173736963,rev?*
G04 #@! TF.SameCoordinates,Original*
G04 #@! TF.FileFunction,Paste,Bot*
G04 #@! TF.FilePolarity,Positive*
%FSLAX46Y46*%
G04 Gerber Fmt 4.6, Leading zero omitted, Abs format (unit mm)*
G04 Created by KiCad (PCBNEW (6.0.11-0)) date 2023-02-20 21:42:13*
%MOMM*%
%LPD*%
G01*
G04 APERTURE LIST*
G04 Aperture macros list*
%AMRoundRect*
0 Rectangle with rounded corners*
0 $1 Rounding radius*
0 $2 $3 $4 $5 $6 $7 $8 $9 X,Y pos of 4 corners*
0 Add a 4 corners polygon primitive as box body*
4,1,4,$2,$3,$4,$5,$6,$7,$8,$9,$2,$3,0*
0 Add four circle primitives for the rounded corners*
1,1,$1+$1,$2,$3*
1,1,$1+$1,$4,$5*
1,1,$1+$1,$6,$7*
1,1,$1+$1,$8,$9*
0 Add four rect primitives between the rounded corners*
20,1,$1+$1,$2,$3,$4,$5,0*
20,1,$1+$1,$4,$5,$6,$7,0*
20,1,$1+$1,$6,$7,$8,$9,0*
20,1,$1+$1,$8,$9,$2,$3,0*%
G04 Aperture macros list end*
%ADD10R,2.750000X1.000000*%
%ADD11RoundRect,0.425000X1.075000X0.425000X-1.075000X0.425000X-1.075000X-0.425000X1.075000X-0.425000X0*%
%ADD12R,0.254000X2.182700*%
%ADD13RoundRect,0.425000X0.425000X-1.075000X0.425000X1.075000X-0.425000X1.075000X-0.425000X-1.075000X0*%
G04 APERTURE END LIST*
D10*
G04 #@! TO.C,J8*
X38200800Y-7956800D03*
X44450800Y-7956800D03*
X38200800Y-9956800D03*
X44450800Y-9956800D03*
X38200800Y-11956800D03*
X44450800Y-11956800D03*
G04 #@! TD*
D11*
G04 #@! TO.C,J6*
X18186400Y-4780200D03*
X18186400Y-7320200D03*
X18186400Y-9860200D03*
X18186400Y-12400200D03*
X18186400Y-14940200D03*
G04 #@! TD*
D10*
G04 #@! TO.C,J2*
X18490400Y-19513800D03*
X24740400Y-19513800D03*
X18490400Y-21513800D03*
X24740400Y-21513800D03*
X18490400Y-23513800D03*
X24740400Y-23513800D03*
G04 #@! TD*
D12*
G04 #@! TO.C,U5*
X63560399Y-39833550D03*
X63060400Y-39833550D03*
X62560401Y-39833550D03*
X62060399Y-39833550D03*
X61560400Y-39833550D03*
X61060401Y-39833550D03*
X60560400Y-39833550D03*
X60060401Y-39833550D03*
X59560399Y-39833550D03*
X59060400Y-39833550D03*
X58560401Y-39833550D03*
X58060400Y-39833550D03*
X57560400Y-39833550D03*
X57060399Y-39833550D03*
X56560400Y-39833550D03*
X56060401Y-39833550D03*
X55560399Y-39833550D03*
X55060400Y-39833550D03*
X54560399Y-39833550D03*
X54060400Y-39833550D03*
X53560401Y-39833550D03*
X53060399Y-39833550D03*
X52560400Y-39833550D03*
X52060399Y-39833550D03*
X52060401Y-20161250D03*
X52560400Y-20161250D03*
X53060399Y-20161250D03*
X53560401Y-20161250D03*
X54060400Y-20161250D03*
X54560401Y-20161250D03*
X55060400Y-20161250D03*
X55560399Y-20161250D03*
X56060401Y-20161250D03*
X56560400Y-20161250D03*
X57060402Y-20161250D03*
X57560400Y-20161250D03*
X58060400Y-20161250D03*
X58560401Y-20161250D03*
X59060400Y-20161250D03*
X59560399Y-20161250D03*
X60060401Y-20161250D03*
X60560400Y-20161250D03*
X61060401Y-20161250D03*
X61560400Y-20161250D03*
X62060399Y-20161250D03*
X62560401Y-20161250D03*
X63060400Y-20161250D03*
X63560401Y-20161250D03*
G04 #@! TD*
D10*
G04 #@! TO.C,J5*
X24943600Y-40608000D03*
X18693600Y-40608000D03*
X24943600Y-38608000D03*
X18693600Y-38608000D03*
X24943600Y-36608000D03*
X18693600Y-36608000D03*
G04 #@! TD*
D13*
G04 #@! TO.C,J7*
X37531200Y-14427200D03*
X34991200Y-14427200D03*
X32451200Y-14427200D03*
X29911200Y-14427200D03*
G04 #@! TD*
M02*
